<svg width="394" height="31" viewBox="0 0 394 31" fill="none" xmlns="http://www.w3.org/2000/svg">
<path d="M360.748 28.3759C361.684 29.2248 358.693 28.8065 360.738 30.0369C360.336 30.1515 359.925 30.2693 359.509 30.3842C359.373 29.8923 359.234 29.4019 359.106 28.9095C359.653 28.7312 360.212 28.5519 360.748 28.3735C360.748 28.3743 360.748 28.3751 360.748 28.3759ZM361.128 22.0954C360.699 23.5463 359.156 24.0161 360.932 25.2275C361.034 24.7324 361.158 24.236 361.267 23.7403C361.907 24.0817 362.507 24.4248 363.14 24.7631C363.35 24.5637 363.557 24.3641 363.762 24.1669C364.09 24.9966 364.413 25.8287 364.735 26.6605C364.489 26.5517 364.236 26.4411 363.984 26.3324C363.038 27.0819 362.217 27.3209 360.892 27.5274C361.018 27.7211 361.136 27.9135 361.269 28.1068C360.593 27.8047 359.914 27.5011 359.211 27.1992C359.785 26.8307 360.408 26.4212 360.909 26.0787C360.001 24.7997 358.517 25.6261 357.757 25.9461C356.693 26.3845 356.909 25.7389 356.14 26.0461C356.017 26.0942 356.03 26.5901 355.781 26.612C354.482 26.7221 352.069 26.5843 353.432 25.3546C355.486 25.396 357.244 24.3698 359.273 24.5939C358.646 23.2894 359.724 22.7729 361.128 22.0954ZM323.275 28.1079C323.887 27.4362 325.167 27.6525 326.049 28.0712C326.05 28.0712 326.051 28.0711 326.052 28.0711C326.249 28.1633 326.717 29.0101 326.086 28.9982C325.069 28.9753 324.536 27.6342 324.034 28.5756C323.789 28.4125 323.532 28.2686 323.275 28.1079ZM321.071 28.265C320.437 27.9531 320.686 26.92 321.473 27.1704C321.473 27.1696 321.473 27.1688 321.473 27.168C321.8 27.2726 321.194 28.1037 322.324 27.2423C322.584 27.873 322.844 28.4458 323.102 29.0557C322.816 29.0761 322.547 29.1023 322.253 29.1208C322.417 28.0637 321.705 28.5743 321.071 28.265ZM352.396 25.9879C352.344 26.9371 352.769 26.9093 353.504 27.5277C353.126 27.5298 352.743 27.5313 352.356 27.533C352.079 27.5335 351.8 27.5341 351.52 27.5351C351.779 27.0813 352.032 26.6291 352.286 26.1757C352.322 26.1131 352.359 26.0505 352.396 25.9879ZM367.921 25.2208C367.922 25.2207 367.923 25.2206 367.924 25.2206C368.137 25.0564 368.35 24.8915 368.554 24.7297C368.709 25.057 368.86 25.3829 369.013 25.7103C369.753 25.3397 370.493 24.9672 371.258 24.5878C371.235 25.6238 369.844 25.5618 369.134 26.3343C367.978 26.1059 367.395 25.545 367.264 24.6786C367.485 24.8585 367.702 25.041 367.921 25.2208ZM184.577 18.9985C184.29 19.2513 184.005 19.5047 183.718 19.7574C184.038 19.9277 184.36 20.0669 184.682 20.258C185.719 19.1324 185.674 20.2334 186.844 20.296C190.448 20.4838 189.709 18.456 192.616 21.6307C190.044 21.2031 190.883 22.6343 189.203 23.4693C188.97 22.6588 190.718 21.0947 189.713 20.6113C187.814 21.2198 185.987 21.7754 183.915 22.0599C183.958 22.2005 184 22.3416 184.042 22.4822C184.37 22.4365 184.696 22.3899 185.025 22.344C184.638 22.6602 184.259 22.9741 183.867 23.2934C184.406 22.5353 183.228 22.8525 183.492 21.9383C183.609 21.5314 184.174 21.0158 184.515 20.6546C183.785 20.3474 183.041 20.0562 182.301 19.7526C182.737 19.4706 183.173 19.188 183.604 18.9049C183.927 18.9339 184.248 18.9654 184.571 18.9942C184.573 18.9956 184.575 18.9971 184.577 18.9985ZM24.4002 20.5087C24.9731 19.3034 26.5672 18.6544 27.7132 19.4545C26.6046 19.79 25.4925 20.1447 24.4002 20.5087ZM367.142 23.9651C367.263 24.1227 367.379 24.2787 367.498 24.4363C367.049 24.7741 366.547 25.1127 366.101 25.4491C365.978 24.9782 365.853 24.5074 365.728 24.0387C366.183 24.0151 366.673 23.9908 367.142 23.9651ZM336.305 26.1171C336.659 26.0731 336.691 26.0874 337.133 26.1366C337.133 26.1362 337.132 26.1359 337.132 26.1355C337.31 26.1534 338.761 26.3696 338.618 26.7441C337.904 26.7816 337.138 26.8086 336.391 26.8404C336.359 26.5995 336.343 26.3598 336.305 26.1171ZM344.827 25.9493C344.828 25.9501 344.829 25.9508 344.83 25.9516C345.1 25.9948 345.357 26.0965 345.63 26.1042C344.676 26.7294 344.456 25.6996 343.598 26.0339C342.731 26.3706 342.196 26.969 341.372 25.5815C341.639 25.356 341.938 25.037 342.216 24.7756C343.517 25.2855 343.797 24.7362 344.8 24.1273C344.809 24.736 344.818 25.3406 344.827 25.9493ZM200.166 23.6566C200.481 22.9817 200.677 23.696 200.704 23.7072C200.703 23.7079 200.703 23.7087 200.702 23.7094C202.896 23.278 200.383 24.0694 202.385 24.3821C202.068 24.527 201.754 24.682 201.439 24.8289C201.013 24.4445 200.586 24.0141 200.166 23.6566ZM269.739 27.2045C269.758 27.4095 269.781 27.6149 269.8 27.8199C268.585 27.7689 268.271 28.5742 267.265 27.8347C268.09 27.6236 268.914 27.4131 269.739 27.202C269.739 27.2029 269.739 27.2037 269.739 27.2045ZM330.142 24.8775C331.473 24.4337 332.443 24.2222 333.769 24.7891C333.77 24.7898 333.771 24.7906 333.772 24.7914C333.848 24.8265 333.506 25.2697 333.607 25.3736C333.871 25.2985 334.142 25.1887 334.406 25.1011C334.456 25.4426 334.505 25.7841 334.556 26.1235C333.8 26.0577 333.032 25.9918 332.261 25.9256C332.38 26.1218 332.507 26.3158 332.628 26.5118C331.981 26.6416 331.358 26.7697 330.714 26.8987C330.917 26.3275 331.117 25.7561 331.315 25.1829C330.926 25.0804 330.534 24.9822 330.142 24.8775ZM249.566 24.6908C249.774 24.9197 249.369 25.2844 249.696 25.4853C250.023 25.6838 250.646 25.2818 250.487 25.9092C250.037 25.9831 249.565 26.0684 249.107 26.1453C250.546 27.3219 252.034 26.3247 252.024 27.7301C250.634 27.3346 249.456 27.4745 248.088 27.8261C248.175 26.7129 249.56 25.7849 248.732 24.7152C249.007 24.7081 249.296 24.6945 249.563 24.6931C249.564 24.6923 249.565 24.6915 249.566 24.6908ZM380.844 7.97058C380.998 7.93269 381.124 7.71826 380.961 7.8195C380.831 7.88786 380.251 8.52299 380.112 9.52139C380.11 9.53991 380.109 9.56134 380.111 9.58538L379.543 10.9702C379.604 11.2519 380.075 11.687 380.608 11.8489C381.137 12.0288 381.69 12.0299 381.819 12.0485C382.734 12.1605 382.829 12.3871 383.457 12.217C383.448 12.3726 383.459 12.4141 383.524 12.2568C384.104 12.4746 384.696 12.653 385.295 12.8009C385.227 12.7021 385.174 12.4409 385.102 12.0932C385.308 12.091 385.514 12.0878 385.72 12.0834C385.609 13.2182 386.478 12.6207 387.084 13.3293C387.578 12.9858 388.001 12.1989 388.403 11.4451C388.339 11.8939 388.28 12.409 388.183 12.7654C389.228 12.9456 389.053 11.9538 389.248 11.8053C389.873 11.3225 390.088 12.5718 389.878 14.2997C389.864 14.3363 389.824 14.4447 389.805 14.4787C389.393 15.6936 388.698 16.5818 388.959 17.2035C389.681 16.7745 390.497 16.1614 391.167 15.1663C391.21 15.0905 391.299 14.8491 391.33 14.7675C391.408 14.6009 391.476 14.4387 391.538 14.2818C391.586 14.4648 391.625 14.6608 391.651 14.8708C391.616 14.9623 391.516 15.2331 391.468 15.3181C391.459 15.5551 391.436 15.7952 391.407 16.0279C388.734 18.0222 386.742 18.3001 384.548 18.7062C384.395 18.8263 384.243 18.9451 384.087 19.0602C384.332 19.4695 384.576 19.8774 384.825 20.2849C384.675 20.3892 384.53 20.49 384.379 20.5925C384.338 20.6077 384.22 20.6592 384.179 20.6714C384.073 20.7331 383.955 20.7981 383.838 20.8613C384.209 19.0675 382.958 19.5974 381.385 18.9488C381.981 18.2699 382.925 18.3145 382.544 17.3615C380.483 18.8365 377.369 17.9921 375.106 19.1219C374.523 19.3977 374.651 20.7127 373.243 20.7142C373.278 20.5657 373.264 20.3044 373.278 20.112C370.888 20.95 369.464 21.432 366.898 20.9635C367.075 21.4263 367.249 21.8912 367.425 22.354C367.925 22.0831 368.482 21.8035 368.976 21.5311C369.38 22.2858 368.904 22.6687 370.484 22.5417C371.816 22.4329 370.995 22.1496 371.335 21.8905C371.772 21.5386 372.281 22.122 372.755 21.7272C373.119 21.4241 372.654 20.8171 373.708 20.8891C373.372 21.7584 372.988 22.6579 372.647 23.5356C372.377 23.369 372.097 23.2 371.822 23.031C372.066 22.7872 372.313 22.5457 372.551 22.3016C371.655 22.7788 370.818 23.2238 369.924 23.7076C370.148 22.4788 369.178 23.0054 368.681 23.1837C367.871 23.465 368.523 22.5849 367.985 22.7618C367.453 22.94 366.94 23.9071 365.949 23.7734C366.424 23.2028 365.698 22.7672 365.799 22.2627C365.893 21.759 366.924 21.58 365.898 21.1051C364.039 21.6393 366.222 23.3927 364.948 23.7823C363.435 24.2482 362.867 21.1927 363.291 20.5027C363.622 19.9598 364.858 19.9864 365.195 19.4435C362.911 18.6512 363.013 20.4964 362.642 20.8828C361.366 22.281 362.071 18.7137 360.504 20.0817C360.495 19.423 360.485 18.8307 360.478 18.199C360.21 18.3349 360.036 18.5049 359.702 18.6196C360.771 19.8417 359.959 19.8341 359.533 19.8607C358.863 19.9034 359.934 20.4681 359.766 20.6395C359.318 21.0983 358.531 20.9466 359.037 21.4835C358.805 21.2335 358.576 20.9824 358.352 20.7339C357.617 21.1038 355.888 23.9498 357.632 23.2977C357.532 24.3253 356.906 23.8689 356.48 23.7367C356.039 23.6054 356.082 24.2539 355.69 24.155C354.11 23.7591 355.069 22.5942 355.268 21.7109C353.236 22.4204 355.298 22.7095 352.366 23.265C352.114 23.9889 353.531 24.674 352.405 25.1428C352.356 24.9285 352.289 24.7258 352.201 24.5356C351.806 23.6418 350.998 23.0213 349.62 22.7523C349.479 23.0433 349.341 23.3366 349.201 23.6275C348.268 22.534 348.672 21.3292 347.087 22.82C347.857 20.1816 347.297 21.8733 345.815 20.8858C345.51 20.687 346.165 20.116 345.741 19.8629C345.548 19.7487 345.113 20.1769 344.634 19.885C344.391 19.7412 343.317 18.7891 342.615 19.2977C343.204 20.5302 341.878 21.6633 343.106 22.6487C340.891 22.4943 339.415 23.1647 341.773 21.3403C341.185 20.986 340.638 20.6311 340.065 20.2776C339.694 20.5946 339.317 20.9094 338.938 21.2245C338.839 20.1935 338.859 19.9027 337.371 20.1494C338.01 19.8774 338.66 19.6005 339.317 19.3249C339.33 19.1153 339.413 18.8943 339.382 18.6928C338.569 19.1269 336.325 19.3952 335.768 19.694C335.221 19.9927 336.303 20.0222 336.153 20.2958C334.9 22.5528 334.956 20.9249 334.019 21.3421C333.471 21.5886 334.811 21.7759 334.517 21.8834C333.43 22.2779 332.853 21.1303 331.87 21.155C332.236 21.805 332.625 22.4644 332.994 23.1203C331.936 23.1283 330.821 23.1669 329.856 23.4179C329.48 23.5159 329.786 23.9983 329.725 24.0338C329.418 24.2158 328.193 24.532 328.062 24.5389C327.074 24.5803 327.02 23.8977 326.049 23.8962C326.428 23.8242 326.784 23.7587 327.151 23.689C327.278 22.5742 327.407 21.4592 327.533 20.3423C326.593 20.2972 325.625 20.254 324.693 20.207C325.388 20.5525 326.103 20.8951 326.81 21.2393C325.751 22.1758 324.72 23.1123 323.667 24.0487C323.086 23.5185 322.492 22.9886 321.918 22.4576C320.405 22.6552 320.784 24.8781 319.992 22.946C319.547 23.1265 319.094 23.307 318.651 23.4851C318.706 23.2038 318.759 22.922 318.815 22.6407C318.281 22.8301 317.747 23.0182 317.21 23.2094C317.813 24.1799 318.402 25.2023 318.998 26.1435C317.94 26.3933 317.892 25.5549 317.726 25.3508C317.287 24.81 316.47 25.5845 316.115 25.082C315.996 24.9095 317.03 24.3241 316.647 23.6987C316.574 23.5775 315.087 21.2808 314.22 21.8479C314.249 22.2715 314.334 22.7895 314.384 23.2498C313.192 23.5437 312.509 21.3475 312.651 20.7223C312.02 21.1757 311.086 21.2387 310.975 21.9209C310.65 21.9467 310.326 21.9715 309.999 21.9971C310.295 20.3349 308.939 20.6747 308.886 22.0984C309.451 22.1183 310.016 22.1398 310.577 22.1593C310.199 23.9129 311.946 24.9183 308.333 23.4015C307.625 22.5135 309.551 23.4923 308.976 22.8286C307.994 22.4599 307.11 22.8137 306.178 22.2059C305.019 21.446 306.4 20.6539 303.772 21.7217C309.69 24.0907 303.016 23.4442 300.276 24.2807C299.47 21.8135 297.132 21.0774 293.954 21.8712C294.299 22.5567 295.299 22.1828 295.881 22.3995C296.463 22.6164 295.846 23.0382 296.572 23.3474C297.298 23.6566 298.848 24.0645 299.587 24.5371C298.98 24.942 295.928 25.927 297.935 24.7761C296.403 24.1212 295.695 23.4308 293.817 23.3349C293.274 24.4225 293.327 25.094 291.504 25.1537C292.559 23.6387 290.472 22.6294 290.905 21.0744C292.201 21.4152 291.503 22.9307 292.261 23.639C292.339 23.7099 293.535 23.313 293.817 23.3349C292.574 22.0042 292.155 21.5074 292.871 19.8873C292.018 20.0421 291.481 19.8484 291.415 20.6174C291.231 20.2871 291.046 19.9564 290.865 19.626C290.586 19.6384 290.335 19.673 290.039 19.6711C290.464 20.8234 289.662 20.122 289.108 20.6547C288.554 21.1879 289.32 22.0925 287.777 22.125C288.295 22.3896 288.768 22.616 289.269 22.8657C288.279 23.1775 287.283 23.4901 286.289 23.7996C286.998 24.4995 288.53 25.5312 288.501 26.4627C288.037 26.1175 286.468 26.7546 286.295 26.7818C285.627 26.8846 285.985 26.2932 285.934 26.2793C284.881 26.0058 284.02 26.2141 283.613 25.328C282.829 25.7369 282.231 25.5132 281.396 25.5424C280.936 25.5583 281.031 26.2112 280.76 26.0891C278.964 25.2727 280.667 24.4198 277.221 26.0445C277.641 26.4981 278.056 26.9619 278.478 27.4192C278.088 27.593 277.7 27.7676 277.31 27.9411C277.048 27.8594 276.789 27.777 276.527 27.6951C276.529 26.7079 276.532 25.7186 276.535 24.7314C276.248 24.6786 275.961 24.6272 275.675 24.5742C276.165 24.4755 276.657 24.3767 277.147 24.2773C277.191 24.1035 277.232 23.9295 277.276 23.7556C276.546 23.4896 275.82 23.2205 275.092 22.9511C275.078 23.2945 275.065 23.6404 275.052 23.9838C273.41 23.5089 273.371 23.2181 271.81 24.1635C270.609 24.1524 269.627 25.5857 268.927 26.1877C268.678 25.9944 268.428 25.7986 268.176 25.6051C268.015 25.8901 267.852 26.1737 267.691 26.4586C267.376 26.0598 267.056 25.6607 266.742 25.2637C266.561 26.1645 266.466 26.4462 267.703 26.7687C267.275 27.8892 265.092 27.3815 264.207 26.9968C263.536 26.7054 264.291 25.7759 264.207 25.6614C263.929 25.2726 262.819 25.5963 262.587 25.5296C261.604 25.2529 260.911 25.2917 260.025 25.0735C259.852 25.03 259.377 24.4306 259.337 24.4114C259.02 24.3058 258.235 24.0063 258.144 23.9966C253.522 23.4784 258.428 26.1361 254.123 25.7866C254.245 26.1283 254.358 26.4676 254.478 26.8092C254.151 26.8236 253.82 26.8367 253.493 26.8507C253.085 26.5587 253.596 26.0537 252.766 26.4522C252.829 26.0353 252.891 25.6183 252.956 25.2036C252.595 25.4216 252.246 25.6378 251.877 25.8551C251.343 24.3927 249.253 24.0109 249.448 22.3115C249.514 21.7338 251.007 21.1761 250.241 20.538C249.61 20.4003 250.022 21.103 249.762 21.1328C247.889 21.3365 248.031 20.3683 247.26 20.6053C247.127 21.0174 246.988 21.4374 246.852 21.8535C246.567 21.723 246.281 21.5922 245.995 21.4612C245.919 21.7384 245.84 22.0158 245.764 22.293C246.035 22.3201 246.341 22.3484 246.59 22.3745C246.205 23.4477 243.007 23.8281 244.251 22.9462C244.756 22.5885 245.656 22.7764 245.126 21.4801C244.272 21.6369 243.297 21.7919 242.39 21.943C242.372 21.6669 242.356 21.3903 242.338 21.1142C241.124 21.2474 242.181 22.3882 242.158 22.9776C241.88 22.984 241.6 22.988 241.323 22.9939C241.216 22.7229 241.115 22.4396 241.003 22.1766C240.978 22.5658 240.812 23.4247 240.161 23.2527C240.102 23.2374 240.04 23.214 239.973 23.1815C239.449 22.9215 240.332 21.886 239.31 21.9924C239.359 22.6571 239.692 23.4788 238.551 23.6439C238.469 22.9486 238.341 22.3094 238.286 21.5799C236.863 22.1821 236.271 21.0868 234.591 21.7772C233.534 22.2143 232.001 23.8697 231.474 21.1647C230.717 21.0526 230.921 21.7301 230.688 21.8669C229.592 22.5144 228.863 21.2018 228.671 21.1157C227.431 20.563 226.853 20.9661 225.854 20.3029C225.879 20.8002 225.879 21.2695 225.893 21.7537C226.89 21.0747 227.352 21.1388 228.67 21.3774C228.219 21.45 227.769 21.5246 227.32 21.5964C227.368 22.0015 227.415 22.4067 227.461 22.8096C231.666 21.4752 230.561 23.9152 227.077 24.2523C226.827 23.4925 226.567 22.7338 226.323 21.9719C224.251 22.9675 223.399 21.9311 221.163 21.5371C220.898 21.4914 219.903 21.8478 219.481 21.8374C219.488 21.8407 219.495 21.8441 219.502 21.8475C219.188 22.5276 219.518 22.876 219.514 23.5045C219.28 23.5659 219.046 23.6269 218.812 23.6881C218.34 23.1729 218.547 22.7954 217.543 22.8319C217.641 23.3169 217.736 23.8019 217.834 24.2869C216.74 24.219 216.07 23.6469 215.03 23.7866C215.216 23.6211 215.4 23.4548 215.586 23.2891C213.408 22.6503 215.398 20.0058 213.62 21.2557C213.535 21.0035 213.453 20.7492 213.368 20.497C214.055 20.4949 214.744 20.4937 215.434 20.4895C215.476 20.1463 215.519 19.8046 215.558 19.4611C214.815 19.5046 214.073 19.5501 213.336 19.5915C213.888 19.4056 214.442 19.2189 214.995 19.0318C214.16 18.797 213.333 18.5611 212.494 18.3226C213.288 19.6661 212.104 19.7202 212.216 20.9927C210.799 19.8185 209.742 18.3398 207.339 19.0026C206.864 19.1345 207.027 20.0339 205.817 18.8431C206 20.2665 204.294 20.7607 204.375 22.1052C204.838 22.086 205.317 22.0918 205.769 22.0562C205.307 21.5481 205.346 20.2764 206.149 19.9749C207.18 19.5915 208.513 20.5983 208.587 19.1898C208.97 19.2915 209.329 19.3635 209.704 19.4535C209.516 19.7875 209.331 20.124 209.146 20.4582C210.281 20.0111 210.933 20.2473 211.376 21.1708C210.08 21.2609 208.765 21.3433 207.466 21.4235C207.649 21.5009 207.835 21.5788 208.019 21.654C206.961 22.4596 207.894 23.4043 206.049 23.4232C206.099 23.0143 206.147 22.6049 206.198 22.194C205.427 23.2275 203.616 23.0443 204.07 24.3615C203.562 23.9206 203.474 23.6645 203.094 24.313C201.734 23.2106 200.939 21.9045 201.598 20.5114C201.041 20.6897 200.481 20.8675 199.922 21.0444C200.191 21.4719 200.463 21.8976 200.732 22.3247C199.798 22.2037 198.859 22.0807 197.935 21.9594C197.97 20.7814 199.765 21.7941 199.332 20.6918C199.245 20.4707 198.697 20.8672 198.578 20.7351C197.33 19.3102 199.404 20.464 199.1 19.4413C197.072 18.9197 198.896 17.4569 195.905 18.5271C195.867 18.1815 195.825 17.8286 195.792 17.4857C194.814 17.3574 194.805 18.1276 193.94 18.1769C193.398 18.207 192.885 16.7944 192.198 17.6387C192.072 17.7942 192.879 19.5432 190.806 19.2325C189.202 18.9906 190.007 17.9131 189.188 17.4028C188.362 16.892 186.189 18.2568 185.818 16.3708C186.246 16.6662 186.807 16.8649 187.289 17.1222C187.536 16.7931 187.777 16.4672 188.022 16.1397C186.814 16.4595 185.686 15.7783 184.806 16.5265C183.426 15.0523 181.553 16.0341 181.841 17.5462C182.374 17.3991 181.9 16.6969 182.556 17.1878C182.586 17.5356 182.621 17.8823 182.652 18.2302C181.454 18.0414 180.622 17.9475 181.296 16.982C181.113 16.9344 180.932 16.887 180.75 16.8393C180.624 17.5828 180.501 18.3296 180.375 19.0732C180.143 19.1299 179.908 19.1855 179.675 19.2419C179.447 19.0468 179.22 18.8497 178.991 18.6521C179.476 17.5111 180.051 17.5439 178.241 16.6452C178.184 17.0532 178.125 17.4592 178.068 17.8672C176.549 17.1481 176.629 16.1526 174.637 15.9366C176.342 14.7122 176.86 17.3325 177.214 14.4857C177.574 14.721 177.936 14.9591 178.295 15.194C178.405 14.7886 178.514 14.3824 178.622 13.9766C176.541 13.937 172.778 16.2145 171.633 14.2379C171.438 14.4361 171.246 14.6055 171.046 14.8198C169.837 13.5603 168.941 15.9234 167.753 14.3427C167.631 14.1771 168.222 11.9247 166.43 11.777C166.436 12.0805 166.395 12.5845 166.382 12.9647C166.02 12.7323 165.661 12.4916 165.302 12.2555C165.197 12.5215 165.089 12.787 164.984 13.0551C165.628 13.2466 166.271 13.4399 166.914 13.6315C166.356 13.6554 165.793 13.6788 165.234 13.7027C165.89 14.2441 166.211 14.2904 165.688 14.9551C165.063 14.9183 164.437 14.8841 163.813 14.8475C163.725 15.0238 163.638 15.2024 163.551 15.3787C163.779 15.9674 164.013 16.5444 164.24 17.1413C162.687 16.484 161.287 16.2794 160.188 15.0392C160.001 14.8295 160.839 14.208 159.318 14.6708C159.344 14.2883 159.345 13.9751 159.365 13.621C157.468 14.46 156.933 14.0693 155.191 13.07C156.291 13.9364 155.288 13.3366 154.937 13.6827C154.696 13.9213 155.511 13.9839 155.385 14.2495C155.258 14.513 154.068 15.4923 154.949 15.7388C157.441 13.739 157.696 16.5377 160.666 15.8055C160.193 16.0433 159.716 16.2814 159.243 16.5193C159.423 16.7445 159.583 16.9486 159.778 17.1883C158.257 16.5411 158.987 16.9286 158.294 17.1969C157.6 17.4653 156.384 17.614 155.582 17.6109C155.329 17.6098 155.656 17.1321 155.1 17.0138C154.72 16.9326 153.582 17.5591 153.452 16.6362C153.366 16.0352 155.248 14.6446 152.922 14.3585C152.554 13.7341 153.648 14.0499 153.681 13.9843C153.969 13.3319 152.599 12.6436 151.875 13.0799C151.816 13.118 152.272 13.7106 151.679 13.8479C150.273 14.177 149.566 13.4762 148.795 12.5509C148.584 13.5012 147.311 14.5122 145.944 13.9896C145.84 14.2564 145.738 14.526 145.633 14.7948C145.869 14.6749 146.105 14.5571 146.34 14.4374C146.558 14.6384 146.797 14.7943 147.006 15.0257C145.559 15.0928 145.205 16.3959 144.469 16.8011C143.764 17.1893 143.399 17.2067 143.249 17.0179C143.082 16.8059 143.187 16.3336 143.387 15.836C143.644 15.1964 144.061 14.5151 144.259 14.2904C144.534 14.5704 144.794 14.8778 145.063 15.17C145.069 14.831 145.075 14.4894 145.085 14.1487C144.321 14.0612 143.878 13.9051 143.634 13.7054C142.768 12.9944 144.434 11.7285 143.107 11.0822C142.461 12.6787 141.143 12.688 139.602 11.4564C139.417 11.4441 139.233 11.4257 139.048 11.4156C138.99 11.6528 138.95 12.0205 138.883 12.1735C136.855 12.2327 136.774 9.6547 136.61 9.39301C135.882 8.23409 135.067 9.64213 134.817 9.62855C133.766 9.56948 133.53 8.8814 132.504 9.06022C131.401 9.25461 132.082 9.83368 131.71 10.2511C131.412 10.5823 130.562 10.5602 130.176 10.8965C130.345 10.6068 130.529 10.3247 130.698 10.0339C129.63 9.50798 128.762 9.01408 127.51 8.79039C125.873 10.8743 125.017 7.01204 125.221 10.099C126.395 10.42 127.029 10.8314 127.591 11.6681C126.799 11.6907 126.007 11.7117 125.216 11.7366C125.019 11.3813 124.888 11.0407 124.65 10.6754C123.999 11.3291 122.671 10.9 122.12 11.06C119.541 11.8118 120.208 13.0897 118.11 10.8609C119.765 10.8031 119.851 9.81582 121.467 10.0968C121.18 9.36019 120.337 9.43291 120.949 8.63512C119.35 8.70395 119.795 9.50419 119.124 10.1209C118.545 10.6527 117.479 10.5951 117.476 11.3511C117.402 10.9291 117.351 10.5223 117.277 10.1009C116.255 10.0193 115.238 9.93652 114.214 9.85937C114.684 9.46275 115.156 9.06599 115.625 8.67228C115.31 8.48273 114.992 8.29382 114.675 8.10461C112.059 9.24077 107.893 6.47274 108.348 9.8943C107.129 9.91675 107.011 9.48447 106.393 8.80172C106.303 9.05284 106.218 9.26104 106.126 9.54112C105.361 9.22087 104.699 10.1433 104.028 9.84989C103.355 9.55842 103.238 8.63986 103.044 10.1602C102.624 9.69477 102.202 9.30415 101.783 8.87087C101.495 9.20185 101.209 9.52917 100.923 9.85863C100.514 9.65254 100.104 9.44763 99.6957 9.24253C99.4314 9.95852 97.8055 9.55557 97.0532 10.0092C96.4036 9.18893 96.55 6.71344 94.8954 7.08067C94.9093 7.69654 94.9224 8.31059 94.936 8.92646C94.5696 8.78104 94.2027 8.63643 93.8343 8.49178C93.8208 8.2904 93.8102 8.08914 93.7967 7.88777C93.984 7.95813 94.1689 8.02817 94.3563 8.10083C94.2064 7.75427 94.0597 7.40951 93.9122 7.06323C93.3218 7.54058 92.7334 8.01906 92.1401 8.49833C92.8983 8.91012 93.6432 9.32348 94.3942 9.73865C93.4115 10.146 92.766 9.66817 91.9054 10.1369C91.2113 9.2601 91.498 8.78223 91.8317 7.87391C91.5568 7.94166 91.2794 8.00682 91.0055 8.07509C91.2202 7.16209 90.7788 6.59432 92.3693 6.73259C92.2704 6.46567 92.1686 6.21091 92.0726 5.93384C91.8092 5.96471 91.6483 5.73616 91.3578 5.8263C90.5658 6.07327 89.9117 7.6689 89.9441 8.23749C89.9638 8.53531 90.7484 7.99554 90.7023 8.41423C90.5877 9.43499 88.8577 8.91 91.3411 10.0327C90.4773 10.6519 90.315 10.1537 89.3913 9.9329C89.452 10.2765 89.5107 10.6179 89.5684 10.9614C89.1446 10.7892 88.7207 10.6181 88.2981 10.4472C88.9533 8.71358 85.8014 7.95649 88.7074 6.51332C87.8647 6.40701 87.0192 6.30264 86.1748 6.19716C86.3538 6.02187 86.5333 5.8485 86.7132 5.67345C87.093 5.77935 87.4763 5.88433 87.8521 5.98908C87.4157 5.64648 86.9682 5.3062 86.5268 4.96489C85.448 5.34334 85.0244 5.96124 84.5155 6.7237C85.7388 7.31766 85.3495 6.53646 86.3175 6.4086C86.2705 6.89775 86.3026 7.34971 86.2047 7.86231C85.7365 6.83293 84.0974 7.53296 83.7203 7.57564C82.5753 7.70347 83.4902 6.72361 82.7267 6.68815C81.9645 6.65336 81.0437 7.23365 80.4328 6.23694C80.4373 6.79158 80.4803 7.3659 80.5187 7.87134C79.3316 8.03956 79.573 7.38814 79.4504 7.30179C77.486 5.89018 76.4047 7.06349 74.1584 7.21866C74.448 7.38855 74.7373 7.54213 75.0246 7.70248C73.3347 8.88925 74.4796 8.51914 75.9436 8.90634C74.5715 8.79012 73.7818 9.79933 72.8221 10.1075C71.867 10.4143 70.1905 9.92924 69.5808 9.54259C70.9486 8.86579 72.4643 9.26879 74.0063 9.08C73.826 8.51634 73.6506 8.0396 73.4628 7.42052C72.5292 8.6146 71.9836 7.83006 71.6642 7.67736C70.7391 7.23034 70.7883 8.24803 70.2162 7.16418C70.246 7.54022 70.2687 7.85644 70.2979 8.20764C68.4157 8.08619 66.3474 7.48735 65.1858 8.92654C65.0387 8.02726 64.9207 7.15997 64.7523 6.24307C63.9711 6.95679 63.254 6.29245 62.5898 6.48558C61.9234 6.67975 62.2153 7.39581 61.4421 7.72074C61.2994 7.78064 60.9687 7.3413 60.6321 7.6997C60.294 8.05864 59.1232 10.6634 58.8175 8.47749C58.5556 8.49181 58.2993 8.49558 58.0457 8.49573C57.6402 8.49661 57.2412 8.48858 56.8376 8.49839C57.2295 8.38944 57.6246 8.28302 58.022 8.17738C58.26 8.11312 58.4988 8.04914 58.7381 7.98504C58.4779 7.76508 58.2184 7.54586 57.9589 7.32716C57.6288 7.05504 57.2989 6.78373 56.968 6.51276C56.9349 6.99295 56.9029 7.48171 56.8733 7.95546C55.4564 8.65188 54.3097 7.97466 52.8303 8.31067C52.5855 8.36751 53.2644 9.24194 52.1441 9.1191C51.023 8.99962 50.0039 7.34267 48.19 8.25904C48.096 8.30672 47.73 9.71046 46.9251 8.88094C46.7419 8.69288 47.3491 8.29472 46.9571 8.06833C46.5613 7.84032 44.9643 7.83976 44.735 7.20819C44.7865 7.43691 44.9213 7.6618 45.0042 7.89009C44.7495 8.04078 44.4941 8.19234 44.2404 8.34215C44.153 7.9389 44.0633 7.53539 43.9758 7.13425C42.5661 8.32443 42.034 9.98913 39.6829 9.88991C40.4374 10.3595 41.1598 10.8414 41.8984 11.322C42.0029 10.8778 42.1063 10.4313 42.2064 9.98852C43.2728 9.97982 44.3462 9.97936 45.4186 9.99063C45.5219 9.49209 45.6255 8.99518 45.7273 8.4974C46.0128 8.51892 46.2966 8.53945 46.5847 8.56204C46.5624 8.91411 46.5399 9.26443 46.516 9.61682C47.0509 9.45597 47.603 9.29381 48.1312 9.13938C47.2882 11.3031 45.0027 9.40025 45.3878 11.07C45.1027 10.8447 44.8171 10.6181 44.5319 10.3919C44.5492 11.2267 44.023 11.0651 43.118 11.0801C43.3845 11.4498 43.6705 11.8112 43.9199 12.1886C42.977 11.7542 41.4779 12.0647 40.5706 12.005C40.1683 11.979 40.4477 11.3187 40.3198 11.2701C39.6483 11.0161 38.7332 12.2558 38.4778 12.2221C36.9829 12.0128 35.6535 10.2602 34.387 11.8794C36.0526 11.8446 35.1504 11.9033 35.8646 12.4925C36.0868 12.6775 38.2173 12.7161 35.6328 13.0451C35.3292 13.0635 30.4042 12.8155 31.6764 11.4352C30.9899 11.9456 30.5124 12.4642 29.9072 12.9866C27.5402 10.7397 28.7763 13.1086 29.6229 14.3664C29.3588 14.4418 29.0947 14.5266 28.8173 14.6009C29.0296 12.9818 25.9451 13.7241 25.1463 14.7653C24.8737 15.1096 25.9708 15.2865 25.2422 15.7403C24.8314 15.7526 24.3797 15.7468 23.9436 15.7581C24.802 16.4896 23.7781 17.1898 24.0901 18.1081C23.1408 17.5013 22.0085 15.9465 22.1064 14.8728C21.6341 15.4463 21.152 16.0273 20.7001 16.6059C21.0432 16.7325 21.392 16.8562 21.7405 16.9831C19.6068 17.0393 17.64 19.2376 16.5332 17.4834C16.2853 17.5917 16.026 17.7032 15.7823 17.8116C15.8271 18.1623 15.8779 18.5115 15.9227 18.8623C14.7992 19.0048 13.6731 19.1616 12.5492 19.3289C12.4253 19.3483 12.303 19.3672 12.1824 19.3854C12.2924 19.3131 12.3922 19.2409 12.4844 19.1699C13.1361 18.6553 13.3264 18.2123 14.3874 18.1701C13.8351 17.9627 13.2587 17.7646 12.7157 17.5574C12.4901 17.8574 12.3096 18.127 12.1575 18.3681C11.4466 19.4648 11.091 20.0522 9.05556 20.6553C8.94312 20.6807 6.78212 20.6911 6.67453 20.6604C6.21278 20.4459 6.39293 19.7123 6.17575 19.5957C5.86385 19.4408 5.04618 19.2699 4.02934 19.3779C3.51698 19.4835 2.90703 19.4544 1.94061 20.5531C1.44701 21.1204 1.14797 22.1518 1.091 22.5027C1.01328 22.8821 0.97813 22.8242 0.949184 22.8347C0.826181 22.8088 0.67155 22.6661 0.634612 22.0477C0.586578 21.4419 0.830764 20.4547 1.15571 19.8219C1.82403 18.5328 2.29952 18.0725 2.69274 17.5812C3.45914 16.6817 4.15311 16.0674 4.95148 15.4685C6.52627 14.2959 8.38161 13.3629 9.83794 12.6782C10.5855 12.3263 11.2594 12.0321 11.6614 11.8434C26.2193 5.0083 42.088 2.57346 57.5466 1.78035C64.3612 1.4328 71.1091 1.38779 77.8626 1.32018C78.0894 1.31637 77.9924 0.929674 78.0894 0.913641C78.6919 0.819836 79.281 1.42696 79.504 1.45394C79.9812 1.50979 79.7229 0.951051 80.0695 0.954335C83.6606 1.0007 87.0304 1.41323 90.608 1.44831C90.8401 1.45065 90.5869 1.88649 90.9971 1.82307C91.2086 1.78782 91.8946 1.13095 92.3728 1.14003C94.0392 1.17247 95.431 1.45439 97.1765 1.531C98.1362 1.57249 99.5675 1.70658 100.638 1.75705C101.112 1.77936 101.624 1.49616 102.089 1.5132C102.752 1.53795 102.579 2.16207 102.678 2.20738C103.114 2.40575 103.218 1.71597 103.642 1.75865C104.432 1.84092 104.443 2.30624 105.445 2.33146C106.161 2.34837 107.822 2.09299 108.73 2.04936C110.802 2.73342 113.462 2.72084 115.441 2.70204C116.611 2.69057 116.664 3.34736 117.138 3.38429C118.807 3.51027 120.139 2.79258 121.709 2.90511C123.789 3.05532 125.578 3.77288 127.583 4.00611C127.908 4.0438 127.891 3.44417 128.212 3.46007C129.401 3.51947 130.925 3.56289 131.97 3.75491C133.135 3.96768 133.478 4.8718 134.644 4.81716C134.986 4.80061 135.164 4.05766 135.738 4.02085C136.656 3.96453 137.572 4.73547 138.192 4.87814C139.042 5.07113 138.377 4.22166 139.527 4.45262C139.575 4.46235 139.688 5.02981 139.94 5.03134C140.674 5.03814 140.651 4.59815 141.708 4.75896C141.81 4.77593 143.16 5.45854 143.299 5.47691C143.631 5.51837 144.096 5.60409 144.564 5.68829C145.259 5.81287 145.961 5.93414 146.259 5.90222C148.045 5.71341 146.772 4.72686 148.041 6.69158C148.745 6.33194 149.444 5.96625 150.185 5.62477C149.676 5.96517 151.477 6.76519 151.612 6.7446C152.734 6.58014 152.173 5.8048 153.535 6.09022C151.518 7.47123 155.286 6.51733 156.09 6.57779C159.969 6.86326 163.413 7.71469 167.271 8.20177C168.561 8.36394 170.335 8.24778 171.696 8.43115C172.014 8.47251 171.725 8.82157 172.004 8.86575C172.282 8.90725 172.027 8.44094 172.343 8.50445C174.304 8.90655 175.755 9.90974 177.694 9.13283C177.764 9.28947 177.747 9.40407 177.873 9.58234C179.469 8.86888 182.17 10.4368 183.223 10.7344C184.872 11.1995 185.368 10.6407 186.575 10.911C188.161 11.2693 190.446 12.7443 189.594 10.6504C190.705 10.7183 191.765 10.8239 192.863 11.1344C192.984 11.1693 192.842 11.6597 192.891 11.6757C193.196 11.7831 193.349 11.3469 193.563 11.3503C194.144 11.36 193.145 11.7902 193.982 11.733C194.424 11.7014 194.715 11.339 195.92 11.464C203.172 12.2237 211.012 13.1227 218.437 13.7605C218.946 13.804 218.648 13.2929 219.286 13.3727C221.498 13.6521 225.418 14.7427 227.35 14.7483C229.271 14.7546 228.883 14.017 230.105 13.7901C230.341 13.7456 230.127 14.1397 230.336 14.1579C231.727 14.2756 233.401 14.9984 234.525 15.1498C235.277 15.2512 235.248 14.6106 235.775 14.5905C236.562 14.5621 237.339 15.2432 237.752 15.2823C238.766 15.375 239.629 15.2932 240.483 15.2407C241.257 15.1918 242.024 15.1679 242.901 15.3267C242.834 15.1837 242.791 15.052 242.736 14.9115C244.91 15.0134 247.082 15.1037 249.245 15.1838C249.146 15.0528 249.051 14.9207 248.952 14.7876C251.498 14.9248 251.181 16.3051 251.024 13.3642C251.212 13.2653 251.413 13.15 251.59 13.059C251.483 14.5696 252.991 15.7137 254.961 16.1359C255.106 16.1677 256.096 14.7102 255.961 16.4508C256.221 16.0289 256.376 15.7376 256.596 15.3666C257.002 15.9012 257.416 16.4294 257.826 16.9613C258.052 16.8861 258.282 16.8137 258.509 16.7383C258.548 16.3973 258.527 16.0424 258.604 15.7082C259.646 15.6722 261.782 16.1198 262.611 16.0841C264.658 15.9949 266.756 15.0845 268.344 16.0883C269.122 15.9895 268.353 15.3166 269.509 15.4051C269.638 15.7448 269.761 16.0704 269.896 16.4205C270.845 14.9062 271.038 15.8292 272.334 16.1466C273.21 16.3619 273.785 15.9907 274.619 16.0615C274.83 16.0797 274.801 16.5249 274.946 16.51C275.431 16.4633 276.811 15.8462 277.153 15.828C280.252 15.6533 282.916 15.7003 285.87 15.8307C286.188 15.8436 285.771 15.4091 286.1 15.424C286.629 15.4471 286.326 16.1256 286.633 16.1551C287.488 16.2333 287.486 15.5217 288.675 15.4687C292.597 15.2944 297.118 15.748 301.218 15.7038C301.347 15.7009 301.33 15.2842 301.47 15.277C302.379 15.2362 303.31 15.7782 304.13 15.7522C305.504 15.7107 306.518 15.099 307.861 15.0655C310.513 14.9971 312.878 15.229 315.591 15.1612C317.819 15.106 319.754 14.9866 322.18 14.904C331.926 14.5703 341.792 13.0396 351.599 12.8816C352.555 12.8649 353.441 12.8639 354.376 12.8744C354.654 12.8781 354.561 13.2521 354.644 13.2316C355.432 13.0296 355.468 12.5296 355.802 13.5539C356.777 13.295 357.096 12.4941 358.275 12.4832C358.935 12.4748 358.523 13.7128 359.58 13.0255C360.515 12.4042 359.416 11.8064 362.367 12.3073C362.447 12.321 362.886 13.0344 363.473 12.8046C364.062 12.5763 363.32 12.0942 364.791 11.8393C368.188 11.2413 372.635 11.5758 376.327 10.9587C376.594 10.924 378.649 10.2514 378.898 10.0054C379.187 9.77396 379.244 9.53017 379.322 9.31112C379.384 9.0947 379.493 8.89558 379.62 8.78896C379.689 8.73279 379.746 8.76402 379.961 8.76525L379.311 9.02225C379.768 8.97968 380.261 9.02451 380.615 8.74849C380.668 8.70298 380.522 8.0625 380.844 7.97058ZM180.393 19.7348C180.09 20.3295 179.389 22.571 178.095 21.7003C177.973 21.6182 178.876 20.1302 178.146 19.7839C178.911 19.7109 179.647 19.7481 180.394 19.7323C180.394 19.7331 180.394 19.7339 180.393 19.7348ZM393.792 11.9565C393.657 12.7542 393.594 13.7757 393.039 15.3177C392.988 15.4522 392.84 15.85 392.769 15.9749C392.425 16.5819 392.027 17.0941 391.633 17.5175C391.91 16.9969 392.171 16.4092 392.361 15.7693C392.426 15.6569 392.558 15.2988 392.604 15.1778C392.714 14.2985 392.633 13.6264 392.529 13.0598C392.965 12.6641 393.381 12.29 393.792 11.9565ZM263.213 26.6696C263.214 26.6696 263.215 26.6697 263.216 26.6697C262.122 26.9577 261.013 27.2442 259.915 27.5283C260.033 27.3103 260.151 27.0915 260.269 26.8735C261.138 26.5387 262.012 26.2031 262.875 25.8657C262.988 26.1337 263.1 26.4016 263.213 26.6696ZM271.871 24.3882C272.569 24.6493 272.398 25.089 272.783 25.5174C272.783 25.5166 272.783 25.5158 272.783 25.515C272.884 25.6265 273.357 25.7239 273.54 25.7403C273.472 25.4651 273.385 25.1934 273.312 24.9203C274.938 24.2528 278.137 26.6118 274.006 27.5757C274.068 27.2279 274.126 26.8819 274.187 26.5342C272.132 26.6349 269.848 25.876 271.871 24.3882ZM163.934 18.644C162.058 19.5501 161.472 19.7165 159.472 18.6739C159.81 18.3917 160.147 18.1097 160.485 17.8276C160.79 18.1985 161.092 18.5668 161.397 18.9378C161.398 18.9379 161.399 18.938 161.4 18.9382C161.513 18.6042 161.627 18.2697 161.738 17.9355C162.469 18.1713 163.203 18.4079 163.934 18.644ZM338.812 23.62C339.41 25.8694 339.187 24.5568 337.834 25.1289C337.363 25.3275 337.847 25.7047 337.552 25.7838C335.952 26.2149 335.746 24.6984 336.079 23.8909C337.004 23.7977 337.905 23.7096 338.809 23.6201C338.81 23.6201 338.811 23.62 338.812 23.62ZM380.878 20.2658C380.879 20.2656 380.88 20.2654 380.881 20.2652C381.03 20.802 380.353 21.0754 381.234 21.4499C380.621 21.5623 380.038 21.6487 379.448 21.7302C379.607 21.6556 379.781 21.5803 379.948 21.5028C379.767 21.3376 379.577 21.1706 379.408 21.0022C379.296 21.6617 379.047 21.324 378.416 21.1893C378.673 21.8433 378.928 22.4973 379.184 23.1501C378.429 23.0462 377.714 22.9251 376.973 22.8016C376.945 22.632 376.918 22.462 376.892 22.2923C376.663 22.5377 376.426 22.7855 376.175 23.0316C376.077 22.8356 375.996 22.6398 375.905 22.443C375.617 22.6278 375.291 22.8153 375.001 23.0006C374.857 22.5154 375.534 22.2377 374.316 22.4768C374.661 21.9342 374.956 21.3968 375.304 20.8514C377.132 20.7109 378.968 20.5627 380.878 20.2658ZM326.182 24.8319C328.197 24.6614 327.639 25.0419 327.217 26.1845C326.874 25.7336 326.527 25.2829 326.182 24.8319ZM222.587 23.3644C221.948 24.0898 221.307 24.8065 220.655 25.5024C219.439 25.8441 218.345 24.3571 219.285 23.8779C220.408 23.3018 221.474 24.1171 222.587 23.3644ZM195.553 21.2624C196.961 21.7743 195.501 22.5331 195.116 23.0258C194.811 22.1322 194.242 22.1454 193.354 21.946C194.206 21.9858 195.322 21.1764 195.553 21.26C195.553 21.2608 195.553 21.2616 195.553 21.2624ZM245.967 25.3951C246.552 25.3902 247.146 25.1931 247.658 25.4683C247.484 26.1981 246.449 25.4995 247.17 26.6095C246.793 26.6172 246.416 26.6241 246.043 26.6333C246.294 26.1898 245.986 25.8432 245.969 25.3976C245.968 25.3968 245.968 25.396 245.967 25.3951ZM306.736 26.309C305.571 25.4691 305.36 25.8464 304.221 26.4765C304.038 25.7729 305.391 24.5543 306.244 24.2715C306.407 24.9506 306.57 25.6301 306.736 26.309ZM38.1204 14.7275C38.203 13.788 40.1421 13.2926 41.1622 13.3859C41.0706 13.5381 40.9795 13.6922 40.8894 13.8465C39.9549 14.1329 39.0419 14.4248 38.1204 14.7275ZM192.934 21.8374C193.081 21.8805 193.222 21.9161 193.354 21.946C193.204 21.939 193.061 21.9075 192.934 21.8374ZM133.009 10.6145C133.574 9.81819 132.186 9.38608 133.872 9.89716C133.872 9.89635 133.873 9.89554 133.873 9.89473C134.988 10.2326 135.232 10.3176 136.279 10.4966C135.782 11.5422 133.607 11.7019 136.524 12.242C136.563 12.2472 136.556 11.5923 137.016 11.7317C137.158 11.775 137.564 12.3558 138.253 12.5878C138.476 12.6623 140.171 13.0152 137.834 12.7677C137.821 13.5325 137.611 14.2852 137.536 15.0203C136.605 15.1343 136.066 13.5757 135.098 13.5091C133.661 13.4142 132.777 14.8394 132.707 12.8425C133.961 12.4832 136.031 12.693 136.172 13.9056C137.333 14.0458 137.774 13.1137 136.887 12.5318C132.798 12.7091 135.936 10.9708 132.327 11.3759C132.257 11.6453 132.081 11.925 132.077 12.1846C131.1 11.1105 132.807 10.8991 133.009 10.6145ZM141.199 13.6223C140.438 14.1213 139.683 14.6264 138.928 15.1297C139.032 14.1877 139.508 13.384 140.662 12.9767C140.84 13.1924 141.021 13.4085 141.199 13.6223ZM82.626 9.6078C82.516 10.1212 82.2445 10.5888 82.0396 11.076C81.8329 10.63 76.8295 10.167 79.3854 9.76333C79.7574 9.70289 82.0014 10.6441 82.626 9.6078ZM314.656 25.3102C314.054 24.9827 313.453 24.6543 312.85 24.3262C313.757 24.0802 314.652 23.8281 315.555 23.5765C315.249 24.1546 314.958 24.7325 314.656 25.3102ZM213.004 21.7169C213.253 21.7574 212.36 22.3931 213.357 22.3654C212.583 22.755 211.856 23.0775 211.1 23.4393C210.914 23.0864 210.727 22.7346 210.542 22.3815C210.356 22.5811 210.166 22.7791 209.98 22.9785C210.124 22.501 210.255 22.0337 210.405 21.5483C211.518 22.6984 211.9 21.5395 213.004 21.7169ZM249.087 21.8051C249.277 22.8723 247.506 23.4563 249.228 23.6722C248.882 24.3607 248.344 24.7128 247.334 24.7459C247.178 24.4746 247.022 24.2051 246.867 23.9336C246.824 24.6464 246.554 24.9041 245.967 25.3951C245.967 25.3943 245.966 25.3935 245.966 25.3926C244.422 25.3961 244.524 25.16 244.194 23.9751C245.796 24.6908 245.882 23.6199 247.013 23.016C247.792 22.6004 248.771 22.8256 249.087 21.8051ZM87.9726 9.72857C86.8051 10.59 87.8025 11.4537 85.8012 10.4463C85.9378 10.2222 86.0752 10 86.2125 9.77597C86.7977 9.75667 87.3912 9.7414 87.9726 9.72857ZM254.69 25.5717C254.588 23.9263 253.529 22.6258 253.288 25.2948C254.337 25.8606 253.849 24.3361 254.69 25.5717ZM196.325 18.7584C198.335 19.0533 197.76 20.8559 196.825 21.6881C196.733 21.3388 196.641 20.9889 196.551 20.6419C196.18 20.7557 195.81 20.8697 195.44 20.9811C195.735 20.241 196.03 19.4987 196.325 18.7584ZM290.531 23.7889C288.994 24.9853 292.217 24.4165 291.143 25.1653C290.285 25.7643 289.124 24.5976 289.546 23.8507C289.846 23.8258 290.18 23.8065 290.528 23.789C290.529 23.7889 290.53 23.7889 290.531 23.7889ZM281.552 24.2265C281.816 25.4783 281.446 25.1161 282.672 24.8801C283.023 24.8136 285.81 25.2562 284.631 24.2291C283.638 24.2393 282.586 24.2308 281.552 24.2265ZM172.813 17.7784C172.863 17.2345 175.141 16.3166 175.374 16.6481C175.374 16.6473 175.374 16.6465 175.374 16.6457C176.007 17.5503 173.753 17.3807 174.583 18.6172C172.552 17.3633 171.608 19.6488 172.157 16.5475C173.441 16.5729 172.759 17.1393 172.813 17.7784ZM12.3826 19.8311C12.3817 19.8314 12.3807 19.8318 12.3798 19.8322C12.4222 19.8231 12.576 19.8427 12.7745 19.8815C13.2187 19.9825 13.9145 20.191 13.8886 20.4116C13.5136 20.4944 13.2423 20.5145 13.035 20.5205C12.4353 20.5494 12.2823 20.4862 11.6381 21.444C11.4637 21.2142 11.3025 20.9882 11.1231 20.7584C11.5415 20.4036 11.6857 19.9804 12.3826 19.8311ZM77.207 8.44869C77.7271 8.30711 78.6763 8.90439 79.2741 8.87487C77.3667 11.1294 75.1175 9.014 77.207 8.44869ZM361.133 22.0927C361.131 22.0936 361.13 22.0945 361.128 22.0954C361.129 22.0941 361.129 22.0929 361.13 22.0916C361.131 22.092 361.132 22.0923 361.133 22.0927ZM117.559 11.782C117.504 11.6293 117.477 11.4984 117.473 11.3852C117.474 11.3746 117.475 11.3641 117.476 11.3536C117.5 11.4943 117.527 11.6367 117.559 11.782ZM168.378 17.3746C167.591 16.5054 170.691 15.6842 171.608 16.0931C171.497 16.4293 171.447 16.7405 171.24 17.1165C170.584 16.1249 168.51 17.521 168.378 17.3746ZM235.921 23.6294C233.565 23.4957 236.775 20.6398 236.788 23.0404C236.784 23.0869 235.982 23.6284 235.921 23.6294ZM186.806 19.3658C187.508 18.5324 186.341 18.1509 188.233 18.5332C188.317 18.7805 188.401 19.0284 188.485 19.2757C187.924 19.3056 187.364 19.3365 186.806 19.3658ZM220.815 18.7681C217.842 19.0607 214.961 19.7204 216.679 22.3773C216.908 22.3145 217.14 22.2545 217.369 22.1915C217.498 20.9729 218.265 21.7041 219.476 21.8345C219.688 21.3628 220.357 21.2994 220.513 20.8964C220.812 20.1174 220.09 19.5016 220.815 18.7681ZM345.339 20.5493C345.302 20.7604 345.265 20.9725 345.227 21.1815C344.774 21.4394 344.291 21.6973 343.85 21.9541C343.906 21.5499 343.962 21.1457 344.017 20.7415C344.454 20.6774 344.9 20.6125 345.336 20.5482C345.337 20.5486 345.338 20.5489 345.339 20.5493ZM144.356 11.3842C143.823 13.639 144.805 13.3251 146.83 12.3949C146.008 12.0572 145.182 11.7201 144.356 11.3842ZM268.097 21.3727C268.156 22.0267 268.214 22.6787 268.275 23.3326C269.289 22.6555 269.103 21.906 268.623 21.0391C268.446 21.1502 268.273 21.2618 268.097 21.3727ZM282.631 21.0584C282.211 20.9257 282.43 21.4516 282.386 21.4414C281.322 21.1729 281.173 20.9321 279.876 21.3382C279.718 21.4778 279.562 21.6246 279.403 21.7684C280.013 23.1344 280.445 22.3853 281.724 23.1802C281.491 22.7122 281.259 22.2435 281.026 21.7733C281.733 21.8674 282.44 21.9595 283.148 22.0524C283.231 21.9067 283.314 21.7624 283.396 21.6167C283.143 21.4329 282.882 21.2259 282.631 21.0584ZM350.769 20.8768C351.188 20.8882 351.604 20.9004 352.014 20.9126C352.293 20.9197 352.569 20.9268 352.843 20.9337C352.851 20.5955 352.857 20.255 352.865 19.9168C352.574 20.0494 352.28 20.1822 351.983 20.315C351.583 20.5022 351.178 20.6895 350.769 20.8768ZM130.176 10.8965C130.109 11.0101 130.044 11.1245 129.985 11.2417C130.005 11.0936 130.076 10.9837 130.176 10.8965ZM9.99581 18.8186C9.17499 18.9083 8.20066 19.4975 7.38 19.8229C7.79713 20.5533 9.70594 19.4548 10.6092 19.6397C10.6604 19.4536 10.344 18.7796 9.99581 18.8186ZM199.107 19.1315C199.346 18.7322 199.584 18.3347 199.82 17.9349C200.285 18.0293 200.754 18.1264 201.221 18.2201C201.27 17.8777 201.32 17.5322 201.369 17.1898C199.24 17.4213 199.823 16.4786 198.901 15.393C198.97 16.6386 199.036 17.8839 199.107 19.1315ZM372.44 17.3292C370.954 17.6877 370.479 18.1597 371.393 19.1284C371.912 18.8483 372.413 18.568 372.933 18.2845C372.767 17.9664 372.592 17.6486 372.44 17.3292ZM102.727 7.86247C101.437 8.17289 101.501 6.7826 100.213 7.48773C100.864 7.78139 101.511 8.07895 102.155 8.37454C102.344 8.20409 102.537 8.03272 102.727 7.86247ZM165.102 10.3825C164.634 9.83397 163.349 11.9886 162.073 10.1121C161.653 10.5694 161.368 11.0211 161 11.4746C160.89 10.916 160.758 10.3474 160.656 9.79399C160.655 9.79386 160.654 9.79374 160.653 9.79361C159.276 9.80122 160.068 10.5855 159.965 11.1503C159.92 11.3842 158.966 10.8619 159.214 11.4151C159.644 12.3649 161.733 12.1176 161.601 13.1922C160.935 12.7499 159.509 12.8657 159.828 13.6346C160.177 14.4783 161.654 13.3282 162.404 14.0878C161.43 12.2183 163.829 13.0654 163.939 14.4195C165.515 13.5938 164.24 13.0095 162.75 12.866C163.786 11.9724 162.383 12.3467 162.271 11.4789C163.27 11.0919 166.419 11.9273 165.102 10.3825ZM233.074 19.1223C232.06 19.1355 230.534 18.4676 229.804 19.2857C229.377 19.7627 230.918 20.2395 229.795 20.9627C230.772 20.942 231.013 20.6472 230.885 19.9499C231.111 19.8797 231.341 19.8116 231.568 19.7433C231.663 19.8832 231.762 20.0214 231.858 20.1613C231.991 19.8845 232.124 19.61 232.253 19.333C232.487 19.4015 232.724 19.4701 232.959 19.5404C232.995 19.3995 233.049 19.2781 233.074 19.1223ZM66.2634 7.1919C66.5444 7.17375 66.8236 7.15618 67.1063 7.13686C67.0698 6.97009 67.0271 6.79659 66.9857 6.62534C66.9556 6.48993 66.9255 6.35452 66.8954 6.21912C67.0834 6.6995 68.4284 7.46919 68.9842 6.93638C69.2628 6.66895 68.5915 5.75732 69.798 5.56856C68.9223 5.63497 68.1094 5.78269 67.27 5.88728C67.3372 5.60978 67.4015 5.32945 67.4692 5.052C67.4687 5.05161 67.4682 5.05122 67.4677 5.05083C67.1863 4.99718 66.894 4.94137 66.6074 4.88884C66.4905 5.65695 66.3773 6.42366 66.2634 7.1919ZM267.285 20.0763C266.331 20.6116 266.011 20.8899 266.455 21.7661C266.456 21.7665 266.457 21.7669 266.458 21.7673C266.814 21.3824 267.171 20.9975 267.527 20.6122C267.447 20.4338 267.367 20.2547 267.285 20.0763ZM122.247 7.24273C119.924 10.3641 124.667 8.75204 123.904 7.54855C123.87 7.49306 122.405 7.6244 122.247 7.24273ZM196.066 17.7035C196.621 17.7372 197.178 17.7732 197.738 17.8063C197.654 17.3871 197.566 16.969 197.482 16.5497C197.01 16.934 196.537 17.3199 196.066 17.7035ZM365.8 16.3113C365.183 15.44 363.653 15.2079 362.992 16.2409C363.386 16.3325 363.772 16.4245 364.152 16.5164C363.465 16.6743 362.713 16.8465 362.009 16.9971C362.034 18.2666 362.867 17.4793 364.13 17.7495C364.335 17.7933 365.699 19.2832 366.047 18.0699C366.1 17.822 364.793 17.7419 365.653 16.9742C365.255 16.9447 364.906 16.9798 364.513 16.974C364.466 16.6742 364.418 16.3741 364.368 16.0745C364.86 16.1526 365.332 16.2327 365.8 16.3113ZM227.236 18.8871C225.875 18.7319 225.66 19.2248 225.317 20.1005C225.966 20.0413 226.618 19.9826 227.259 19.9208C227.25 19.5769 227.245 19.2331 227.236 18.8871ZM353.494 16.7412C352.737 16.6343 353.096 17.3457 352.799 17.5001C352.465 17.6721 352.154 17.7514 351.852 17.7877C351.17 17.8722 350.54 17.7139 349.739 17.9847C349.808 17.8402 349.872 17.7053 349.938 17.5652C349.937 17.5652 349.936 17.5653 349.935 17.5653C344.526 17.2182 347.436 18.7322 350.643 18.3006C350.733 18.5676 350.819 18.8351 350.907 19.1C351.255 18.9654 351.591 18.8323 351.899 18.689C352.892 18.2475 353.592 17.7108 353.494 16.7412ZM140.265 8.95603C140.222 8.78052 140.864 7.76687 139.828 8.15928C138.878 9.63813 140.237 9.00275 140.488 9.64058C140.206 9.76101 139.919 9.87682 139.64 9.99781C141.173 10.6168 141.446 10.2719 140.998 9.06293C140.965 8.98138 140.307 9.131 140.265 8.95603ZM129.912 7.07813C129.464 9.36474 131.57 8.5283 131.571 7.80492C131.297 7.74815 131.042 8.11718 130.766 7.9147C130.488 7.71186 130.466 7.16486 129.912 7.07813ZM186.989 14.5504C186.932 14.5333 186.465 13.4951 186.432 14.2599C186.939 16.141 188.535 15.1587 188.353 14.5036C187.867 14.4775 187.514 14.7085 186.99 14.548C186.989 14.5488 186.989 14.5496 186.989 14.5504ZM374.746 15.0594C374.706 14.9998 373.231 14.7431 373.093 15.1191C372.978 15.5406 372.939 15.9848 372.859 16.4175C373.601 15.961 375.259 16.102 374.743 15.0597C374.744 15.0596 374.745 15.0595 374.746 15.0594Z" fill="#FEEA94"/>
</svg>
