<svg width="470" height="33" viewBox="0 0 470 33" fill="none" xmlns="http://www.w3.org/2000/svg">
<path d="M39.4433 28.3823C38.3606 29.2392 41.8746 28.7966 39.5014 30.0438C39.9889 30.1553 40.4556 30.2694 40.9393 30.3819C41.0845 29.889 41.2336 29.3976 41.3804 28.9048C40.7244 28.7284 40.101 28.5543 39.4434 28.3798C39.4434 28.3806 39.4433 28.3814 39.4433 28.3823ZM38.8123 22.1041C38.8353 22.1641 38.8606 22.2224 38.888 22.2791C39.4941 23.5882 41.1571 24.0596 39.1298 25.2345C39.0252 24.8694 38.9186 24.5043 38.8134 24.1393C38.7746 24.0099 38.736 23.8805 38.6977 23.7511C37.96 24.1008 37.2376 24.4526 36.5109 24.804C36.265 24.6091 36.0161 24.4142 35.7625 24.2216C35.4047 25.0587 35.0626 25.899 34.7119 26.7391C35.0046 26.6239 35.2928 26.5067 35.5874 26.3921C36.5656 27.0249 37.4373 27.2766 38.6804 27.458C38.86 27.4848 39.0482 27.51 39.2469 27.5348C39.1032 27.7298 38.9601 27.9232 38.8182 28.1184C39.6088 27.8086 40.413 27.5003 41.2146 27.1941C40.5443 26.8287 39.802 26.4238 39.1831 26.0857C40.259 24.7977 41.9998 25.6164 42.9268 25.9379C44.1713 26.3754 43.9204 25.7305 44.8504 26.0404C44.9975 26.0889 44.99 26.585 45.2861 26.6078C46.789 26.72 49.7163 26.6054 48.0729 25.3638C45.5948 25.3886 43.5227 24.3566 41.0849 24.5883C41.7759 23.3011 40.5666 22.7828 38.8938 22.135C38.8667 22.1247 38.8395 22.1144 38.8123 22.1041ZM84.2909 28.412C83.5599 27.7397 82.003 27.9522 80.945 28.3671C80.9438 28.367 80.9426 28.367 80.9414 28.3669C80.7074 28.4584 80.1553 29.3034 80.9098 29.2941C82.1382 29.2755 82.7693 27.9355 83.3865 28.8784C83.6826 28.7159 83.9846 28.5724 84.2909 28.412ZM86.9491 28.5702C87.7101 28.2577 87.3953 27.2248 86.4504 27.4755C86.4504 27.4747 86.4505 27.4739 86.4505 27.4731C86.0552 27.5777 86.8044 28.4094 85.4192 27.5471C85.1123 28.1776 84.8116 28.7505 84.5088 29.3602C84.8531 29.381 85.1676 29.4071 85.5305 29.4261C85.3179 28.3685 86.1905 28.88 86.9491 28.5702ZM49.3006 26.0052C49.3716 26.9554 48.8728 26.924 48.0131 27.5375C48.7939 27.5458 49.5942 27.5533 50.3743 27.562C50.0121 27.0422 49.6669 26.5251 49.3006 26.0052ZM30.9085 25.4146C30.9073 25.4146 30.9062 25.4145 30.905 25.4145C30.6505 25.2602 30.4077 25.1058 30.1537 24.954C29.9927 25.2885 29.8352 25.6216 29.6776 25.9563C28.7877 25.6241 27.8825 25.2951 26.9861 24.9678C27.096 25.9988 28.6976 25.8492 29.5774 26.5857C30.9043 26.2983 31.5585 25.7166 31.6606 24.8449C31.4161 25.0339 31.1617 25.2253 30.9085 25.4146ZM250.206 10.689C250.536 10.9442 250.863 11.2003 251.193 11.4562C250.801 11.6238 250.412 11.7608 250.022 11.9502C248.846 10.8172 248.841 11.9207 247.451 11.9864C243.171 12.2024 244.071 10.1646 240.556 13.4195C243.625 12.9225 242.589 14.3815 244.556 15.1885C244.856 14.3718 242.817 12.8336 244.027 12.3317C246.269 12.911 248.417 13.4579 250.844 13.761C250.787 13.9015 250.731 14.0425 250.674 14.183C250.289 14.1346 249.912 14.0855 249.524 14.0383C249.968 14.3565 250.395 14.6738 250.843 14.9971C250.243 14.2329 251.617 14.5613 251.351 13.6432C251.233 13.2343 250.587 12.7126 250.201 12.3486C251.077 12.0459 251.992 11.761 252.879 11.4698C252.377 11.1803 251.879 10.8907 251.374 10.6032C250.985 10.629 250.6 10.6579 250.213 10.6847C250.211 10.6861 250.208 10.6876 250.206 10.689ZM443.031 32.2826C442.143 31.0495 440.166 30.3762 438.823 31.1503C440.232 31.5275 441.618 31.902 443.031 32.2826ZM31.7632 24.1269C31.6307 24.2893 31.5033 24.4501 31.3726 24.6126C31.924 24.9311 32.5066 25.2495 33.0593 25.5706C33.1813 25.0958 33.3069 24.621 33.4343 24.1484C32.8741 24.1393 32.3204 24.1336 31.7632 24.1269ZM68.6033 26.3294C68.182 26.2815 68.1401 26.2954 67.6087 26.3395C67.6093 26.3391 67.6099 26.3387 67.6105 26.3383C67.3993 26.3545 65.6395 26.5524 65.8152 26.9288C66.6919 26.976 67.6067 27.0117 68.5047 27.052C68.5423 26.8114 68.5589 26.5718 68.6033 26.3294ZM58.369 26.0544C58.3678 26.0551 58.3665 26.0559 58.3653 26.0566C58.0442 26.0964 57.7384 26.1949 57.4121 26.1992C58.5596 26.837 58.7931 25.8084 59.8458 26.1551C60.9054 26.5041 61.5238 27.1085 62.5066 25.7312C62.1801 25.5019 61.8289 25.1794 61.4951 24.9143C59.965 25.4089 59.5682 24.8526 58.3901 24.2319C58.3832 24.8408 58.3758 25.4455 58.369 26.0544ZM231.614 15.7845C231.234 15.1265 231.012 15.8544 230.979 15.8672C230.98 15.868 230.981 15.8687 230.981 15.8694C228.369 15.5767 231.36 16.2081 229.002 16.6516C229.379 16.7756 229.752 16.9105 230.127 17.0376C230.62 16.6256 231.13 16.1664 231.614 15.7845ZM148.723 25.8448C148.711 26.0507 148.694 26.2574 148.682 26.4633C150.139 26.3343 150.559 27.1177 151.73 26.3119C150.726 26.1566 149.725 26.0003 148.723 25.8424C148.723 25.8432 148.723 25.844 148.723 25.8448ZM75.9995 25.1484C74.4074 24.6947 73.2224 24.4737 71.641 25.0279C71.6398 25.0287 71.6386 25.0295 71.6373 25.0302C71.5463 25.0646 71.9604 25.5113 71.8392 25.6143C71.5217 25.5366 71.1964 25.424 70.8784 25.3336C70.8201 25.6747 70.7637 26.0159 70.7054 26.3549C71.6116 26.2968 72.5402 26.2387 73.4492 26.1788C73.3064 26.3738 73.1605 26.567 73.0179 26.762C73.7832 26.8973 74.5651 27.0321 75.3292 27.1658C75.0818 26.5929 74.8392 26.0198 74.5927 25.4446C75.0654 25.3456 75.5288 25.2502 75.9995 25.1484ZM172.789 21.7772C172.555 22.0247 173.066 22.3516 172.686 22.582C172.307 22.81 171.537 22.4644 171.769 23.0763C172.31 23.1098 172.882 23.1521 173.437 23.1867C171.791 24.4933 169.937 23.6286 170.041 25.0304C171.699 24.5121 173.101 24.547 174.775 24.7692C174.594 23.6668 172.87 22.8689 173.792 21.7249C173.462 21.7433 173.114 21.7563 172.793 21.7793C172.792 21.7786 172.791 21.7779 172.789 21.7772ZM9.83552 9.67104C9.05702 9.65055 7.41099 8.86266 6.18107 9.22417C5.89302 9.32109 4.46506 11.1001 4.39439 11.3635C4.19231 12.2631 5.32 12.6782 3.93056 12.9445C4.35029 13.0587 4.74424 13.1934 5.14694 13.308C4.92833 13.8918 4.70882 14.4736 4.4898 15.0549C4.00272 14.8396 3.51207 14.6174 3.01594 14.3898C2.93878 14.5814 2.86148 14.7735 2.78412 14.9651C4.6498 15.4499 3.34908 15.9331 4.14417 16.8905C3.16128 17.0343 2.15391 17.1527 1.15213 17.2741C1.68719 17.3679 2.31177 17.4971 2.78493 17.5627C2.58652 18.596 1.545 18.0669 1.30739 18.2048C-0.042499 18.9982 5.52609 19.8532 5.73484 21.3927C4.78338 21.376 3.79 21.3183 2.83334 21.2544C3.05137 21.5023 3.27541 21.7504 3.50001 21.9969C5.85663 21.4759 8.3423 21.5528 10.8838 21.1132C11.1058 21.1763 11.324 21.2387 11.5441 21.2964C11.4437 21.7641 11.3442 22.2299 11.2397 22.697C11.5858 22.78 11.9348 22.8588 12.2828 22.9343C11.6613 21.8598 12.0893 21.5518 12.9235 21.2022C13.3468 21.0235 13.8789 20.8309 14.4378 20.521C13.9282 20.186 13.345 20.1508 12.9792 19.9622C12.7248 19.8327 12.5793 19.6326 12.6308 19.2187C12.7541 19.2592 12.8798 19.2958 13.0077 19.3287C15.8375 20.0532 19.1498 18.9924 21.9104 19.8403C22.6323 20.0578 22.6268 21.3736 24.3049 21.2538C24.2481 21.1088 24.2388 20.8472 24.2023 20.6567C27.111 21.2959 28.8492 21.6942 31.8806 21.1175C31.6951 21.5871 31.5204 22.059 31.3334 22.5288C30.6939 22.2789 30.0612 22.027 29.4339 21.7806C28.9919 22.5567 29.6168 22.9086 27.7199 22.8759C26.1639 22.8532 27.0924 22.5178 26.6722 22.2818C26.1017 21.9605 25.5975 22.5799 24.976 22.2237C24.5047 21.9512 25.0154 21.3061 23.7722 21.468C24.2678 22.3045 24.7806 23.1692 25.2783 24.0181C25.5905 23.8312 25.8772 23.6417 26.1875 23.4535C25.8767 23.2277 25.592 23.0054 25.2768 22.7804C26.3545 23.187 27.3687 23.5749 28.4785 24.0063C28.1307 22.7925 29.2856 23.2616 29.9012 23.416C30.881 23.6576 30.0561 22.81 30.6898 22.961C31.3289 23.1148 32.0013 24.0587 33.1537 23.8905C32.5496 23.3363 33.4038 22.8762 33.2549 22.3754C33.1008 21.8741 31.8921 21.7335 33.0732 21.2215C35.3325 21.6962 32.8264 23.5178 34.3365 23.8677C36.1508 24.2914 36.7046 21.229 36.1763 20.547C35.7532 20.0101 34.2576 20.0685 33.8437 19.5379C36.5404 18.6791 36.5097 20.5369 36.9486 20.9134C38.4003 22.148 37.7411 19.4229 38.987 19.8092C39.1279 19.8542 39.2944 19.9417 39.4934 20.083C39.4837 19.424 39.4781 18.8314 39.4671 18.1993C39.8007 18.3331 40.0202 18.5019 40.433 18.6148C39.1551 19.8442 40.1643 19.8313 40.666 19.8551C41.4597 19.8936 40.2071 20.4653 40.411 20.6358C40.9526 21.0913 41.8734 20.9361 41.2906 21.4756C41.5509 21.224 41.8388 20.973 42.1001 20.7238C43.0201 21.0929 45.0732 23.9402 43.0231 23.2883C43.1774 24.3169 43.8572 23.8578 44.3976 23.7284C44.9389 23.5991 44.8882 24.2473 45.3561 24.1499C47.2273 23.7609 46.0724 22.5912 45.8211 21.7064C48.2252 22.4264 45.8239 22.7038 49.3088 23.2813C49.6124 24.0076 47.9498 24.6819 49.2821 25.1597C49.5981 23.9408 50.6345 23.1062 52.5873 22.796C52.7615 23.0889 52.9357 23.3843 53.1112 23.6772C54.2191 22.594 53.7462 21.3846 55.6288 22.8942C54.7182 20.2467 55.3423 21.9428 57.1567 20.976C57.5208 20.781 56.732 20.2014 57.2388 19.9535C57.4685 19.8418 57.9923 20.2756 58.562 19.9898C58.844 19.8486 60.1381 18.9107 60.9893 19.4289C60.2929 20.6545 61.8853 21.8052 60.42 22.7751C63.0519 22.6483 64.8547 23.3391 62.0031 21.4831C62.6942 21.1356 63.3665 20.7885 64.053 20.4421C64.5054 20.7643 64.9558 21.0838 65.4072 21.4034C65.5253 20.3733 65.4716 20.0812 67.2854 20.347C66.5149 20.0673 65.7223 19.7818 64.9474 19.4986C64.9307 19.2887 64.8312 19.0666 64.8672 18.8654C65.8136 19.3088 68.5538 19.6059 69.203 19.9097C69.8523 20.2142 68.5718 20.2325 68.7505 20.5077C70.2362 22.7781 70.1978 21.1506 71.3174 21.5773C71.977 21.8294 70.3697 22.0031 70.7234 22.1136C72.0317 22.5195 72.7129 21.3769 73.887 21.4102C73.4393 22.0567 73.0012 22.7136 72.5598 23.3661C73.7976 23.3829 75.1862 23.433 76.3295 23.6905C76.7805 23.7912 76.4182 24.2716 76.4911 24.3075C76.8576 24.4918 78.3334 24.816 78.4947 24.8238C79.6944 24.8713 79.741 24.1883 80.9037 24.191C80.4501 24.1175 80.0251 24.0504 79.5848 23.9788C79.4237 22.8631 79.258 21.7472 79.0956 20.6292C80.2247 20.5893 81.3685 20.5498 82.4968 20.506C81.6614 20.8493 80.8095 21.1891 79.9702 21.5301C81.2356 22.4716 82.4984 23.4125 83.7765 24.3513C84.4669 23.8221 85.1569 23.2923 85.8517 22.7618C87.6786 22.9595 87.2505 25.1824 88.1769 23.249C88.7144 23.4288 89.248 23.6079 89.787 23.7847C89.7164 23.5035 89.6466 23.2218 89.5763 22.9406C90.2249 23.1286 90.8755 23.3148 91.5218 23.5033C90.816 24.4769 90.1141 25.5015 89.408 26.4444C90.6937 26.6912 90.7394 25.8521 90.9351 25.6473C91.4547 25.1046 92.4501 25.8749 92.8681 25.37C93.0083 25.1969 91.7563 24.6174 92.2056 23.9897C92.2969 23.8684 94.0237 21.5622 95.0895 22.122C95.0616 22.5458 94.9688 23.0645 94.9165 23.5252C96.36 23.8093 97.1304 21.6051 96.949 20.9816C97.7141 21.4286 98.8322 21.4802 98.9822 22.161C99.375 22.1827 99.7657 22.2032 100.16 22.2243C99.7719 20.5665 101.399 20.8868 101.495 22.3093C100.818 22.3379 100.146 22.3675 99.4667 22.3942C99.9552 24.1417 97.8922 25.1746 102.186 23.6035C103.013 22.7043 100.73 23.7135 101.403 23.0408C101.815 22.9045 102.219 22.8593 102.617 22.8297C103.336 22.7759 104.039 22.7735 104.751 22.3702C106.123 21.5873 104.44 20.825 107.623 21.8365C100.587 24.3247 108.579 23.5522 111.893 24.3094C112.795 21.8212 115.565 21.0236 119.408 21.7076C119.018 22.4048 117.807 22.0646 117.114 22.2998C116.42 22.5351 117.178 22.9371 116.314 23.2691C115.451 23.6013 113.608 24.0545 112.732 24.547C113.477 24.9364 117.168 25.8287 114.725 24.7387C116.534 24.0382 117.378 23.326 119.623 23.1658C120.313 24.2335 120.271 24.9081 122.468 24.9C121.145 23.4255 123.614 22.3384 123.036 20.8007C121.496 21.1902 122.388 22.6784 121.502 23.4143C121.411 23.4882 119.959 23.1344 119.623 23.1658C121.063 21.7926 121.554 21.2801 120.634 19.6869C121.664 19.8111 122.3 19.5971 122.408 20.3632C122.616 20.0262 122.825 19.6888 123.03 19.3516C123.364 19.3535 123.666 19.3783 124.02 19.3649C123.555 20.5329 124.488 19.8009 125.173 20.3109C125.858 20.8211 124.973 21.7569 126.827 21.7253C126.216 22.0114 125.656 22.2571 125.064 22.5268C126.266 22.7985 127.475 23.0691 128.68 23.3349C127.859 24.0656 126.057 25.1605 126.129 26.0899C126.674 25.7263 128.586 26.2957 128.795 26.3149C129.601 26.3883 129.147 25.8131 129.207 25.7969C130.462 25.477 131.507 25.6449 131.958 24.7405C132.919 25.112 133.626 24.8597 134.631 24.8473C135.185 24.8403 135.1 25.4972 135.42 25.3616C137.543 24.4534 135.456 23.693 139.672 25.1308C139.188 25.6069 138.711 26.0926 138.225 26.5718C138.702 26.7247 139.177 26.8782 139.654 27.0301C139.965 26.9342 140.273 26.8375 140.584 26.7412C140.535 25.7552 140.484 24.7672 140.434 23.7812C140.776 23.7125 141.118 23.6451 141.459 23.576C140.866 23.5052 140.271 23.4338 139.678 23.3615C139.617 23.1902 139.559 23.0187 139.498 22.8474C140.361 22.5418 141.22 22.2323 142.081 21.9215C142.113 22.2638 142.146 22.6085 142.178 22.9508C144.128 22.3813 144.156 22.0887 146.078 22.9378C147.519 22.853 148.774 24.2213 149.645 24.7771C149.934 24.5679 150.222 24.356 150.515 24.1462C150.724 24.4201 150.935 24.6926 151.144 24.9663C151.502 24.547 151.864 24.1271 152.22 23.7093C152.487 24.5963 152.616 24.8719 151.146 25.2768C151.722 26.3677 154.319 25.7117 155.359 25.264C156.15 24.9251 155.189 24.051 155.283 23.9307C155.596 23.5229 156.949 23.7658 157.224 23.6821C158.386 23.3339 159.22 23.3207 160.27 23.0353C160.475 22.9786 161.011 22.3435 161.059 22.3212C161.435 22.1912 162.357 21.8306 162.463 21.8138C167.971 20.9237 162.251 23.9778 167.397 23.2714C167.272 23.6229 167.159 23.971 167.037 24.3221C167.429 24.309 167.825 24.2942 168.219 24.2801C168.691 23.9535 168.045 23.4936 169.067 23.8197C168.965 23.409 168.863 22.9982 168.759 22.5899C169.206 22.7763 169.638 22.9618 170.095 23.1462C170.654 21.6395 173.115 21.0712 172.773 19.3921C172.653 18.8222 170.838 18.3995 171.708 17.6941C172.449 17.5 172.006 18.2383 172.318 18.2444C174.575 18.2762 174.342 17.3214 175.28 17.4854C175.466 17.8841 175.661 18.2901 175.851 18.6924C176.182 18.5351 176.513 18.3773 176.846 18.219C176.955 18.4884 177.069 18.7575 177.179 19.0267C176.856 19.0802 176.496 19.1374 176.2 19.1873C176.723 20.2246 180.598 20.285 179.041 19.5292C178.409 19.2229 177.342 19.4986 177.889 18.1531C178.924 18.2255 180.102 18.2823 181.191 18.3407C181.193 18.0634 181.192 17.7858 181.193 17.5085C181.357 17.5096 181.487 17.5261 181.589 17.5556C182.122 17.7067 181.914 18.2021 181.721 18.6727C181.619 18.924 181.521 19.1681 181.543 19.3491C181.628 19.3435 181.713 19.3376 181.798 19.3317C182.048 19.3141 182.298 19.2957 182.546 19.2786C182.655 18.997 182.755 18.7038 182.87 18.4295C182.934 18.8492 183.239 19.8072 184.177 19.3232C184.783 19.0082 183.653 18.069 184.88 18.0666C184.871 18.7347 184.535 19.5905 185.907 19.6328C185.954 18.9302 186.059 18.2787 186.07 17.5451C187.826 17.9898 188.443 16.8328 190.502 17.3335C191.809 17.6496 193.755 19.1282 194.183 16.3685C195.079 16.1699 194.886 16.8693 195.175 16.9791C196.546 17.4977 197.305 16.1056 197.529 15.9975C198.967 15.3035 199.702 15.6368 200.84 14.8611C200.847 15.3603 200.881 15.8288 200.899 16.3137C199.664 15.7498 199.105 15.8689 197.549 16.2585C198.093 16.2792 198.637 16.3016 199.18 16.3214C199.152 16.7313 199.126 17.1412 199.101 17.5486C193.993 16.6987 195.485 19.0082 199.665 18.9444C199.909 18.1571 200.165 17.3696 200.405 16.5805C202.932 17.3395 203.9 16.2028 206.531 15.5605C206.844 15.4852 208.065 15.7293 208.564 15.6731C208.556 15.6772 208.548 15.6813 208.541 15.6854C208.957 16.3308 208.588 16.7147 208.634 17.3421C208.915 17.3781 209.197 17.4137 209.478 17.4496C210.006 16.8839 209.734 16.5288 210.934 16.4574C210.848 16.9526 210.764 17.4475 210.678 17.9427C211.976 17.7576 212.744 17.1145 213.983 17.1483C213.753 17.0018 213.526 16.8544 213.296 16.7079C215.847 15.8468 213.332 13.4049 215.528 14.4743C215.616 14.2135 215.702 13.9509 215.791 13.6901C214.965 13.757 214.137 13.8264 213.315 13.8934C213.245 13.5546 213.175 13.2174 213.108 12.878C213.998 12.8446 214.893 12.8137 215.782 12.7811C215.109 12.6505 214.432 12.5206 213.758 12.3905C214.747 12.0695 215.734 11.7491 216.725 11.4292C215.84 12.8509 217.261 12.7893 217.19 14.0734C218.822 12.7631 220.029 11.1802 222.946 11.6386C223.525 11.7307 223.354 12.644 224.765 11.3549C224.588 12.7944 226.648 13.1572 226.585 14.5113C226.032 14.5266 225.46 14.5694 224.922 14.5691C225.455 14.0244 225.372 12.7531 224.403 12.5148C223.165 12.2115 221.593 13.3376 221.454 11.9336C220.997 12.0693 220.569 12.1734 220.126 12.2971C220.364 12.6146 220.599 12.9348 220.834 13.2528C219.467 12.9053 218.685 13.2056 218.201 14.1713C219.763 14.1369 221.322 14.1033 222.88 14.0735C222.663 14.1665 222.444 14.2604 222.228 14.3514C223.518 15.0689 222.451 16.0895 224.637 15.9598C224.563 15.5544 224.493 15.1483 224.419 14.7408C225.364 15.7133 227.514 15.3955 227.01 16.7487C227.601 16.27 227.699 16.0074 228.163 16.6306C229.737 15.433 230.671 14.0758 229.859 12.7217C230.531 12.8637 231.2 13.0077 231.866 13.1527C231.551 13.5968 231.237 14.0392 230.925 14.4835C232.023 14.3062 233.142 14.1297 234.24 13.9612C234.191 12.7808 232.06 13.8938 232.566 12.7655C232.668 12.5388 233.325 12.9061 233.466 12.7676C234.95 11.2732 232.476 12.5399 232.833 11.499C235.258 10.8698 233.076 9.48921 236.66 10.4257C236.707 10.0776 236.761 9.72181 236.803 9.37656C237.989 9.20673 237.983 9.98022 239.021 9.99878C239.674 10.0099 240.31 8.57787 241.126 9.40519C241.27 9.55922 240.281 11.3285 242.758 10.97C244.679 10.6966 243.754 9.63115 244.752 9.10685C245.757 8.58115 248.315 9.93817 248.846 8.05096C248.316 8.3464 247.629 8.54702 247.042 8.80734C246.759 8.47869 246.48 8.15382 246.197 7.82775C247.637 8.13799 249.038 7.45509 250.053 8.21075C251.803 6.73819 253.994 7.75935 253.556 9.26808C252.925 9.11131 253.535 8.41598 252.721 8.89693C252.664 9.24486 252.603 9.59155 252.547 9.93949C253.299 9.8501 253.937 9.78744 254.265 9.60685C254.56 9.44307 254.602 9.18112 254.247 8.7136C254.469 8.66982 254.689 8.62656 254.911 8.58336C255.013 9.33094 255.11 10.0817 255.211 10.8294C255.484 10.8923 255.757 10.9548 256.03 11.0186C256.313 10.8304 256.598 10.6407 256.887 10.4512C256.392 9.294 255.7 9.30137 257.934 8.47244C257.969 8.88287 258.008 9.29145 258.043 9.70188C259.921 9.05001 259.904 8.04856 262.322 7.95112C260.386 6.62369 259.53 9.22299 259.355 6.35874C258.902 6.57649 258.44 6.79855 257.988 7.01873C257.888 6.6086 257.789 6.19788 257.692 5.78762C260.236 5.82156 264.522 8.3418 266.109 6.46652C266.321 6.67937 266.533 6.86346 266.748 7.09312C268.346 5.93583 269.141 8.36894 270.754 6.9064C270.922 6.75413 270.496 4.45085 272.678 4.48182C272.631 4.78314 272.614 5.28886 272.579 5.66841C273.044 5.47355 273.507 5.27103 273.971 5.07372C274.061 5.34928 274.155 5.62468 274.245 5.90236C273.444 6.025 272.653 6.15161 271.852 6.27916C272.523 6.35771 273.189 6.43821 273.857 6.52025C272.999 6.9906 272.611 7.00485 273.147 7.71917C273.897 7.74647 274.652 7.77849 275.402 7.81C275.482 7.99478 275.561 8.18176 275.641 8.36659C275.288 8.92677 274.931 9.47525 274.579 10.0447C276.515 9.55646 278.206 9.5147 279.697 8.41476C279.951 8.22937 279.044 7.51065 280.788 8.1542C280.813 7.77138 280.859 7.46043 280.888 7.10651C283.026 8.17287 283.719 7.85379 285.951 7.09177C284.505 7.80608 285.795 7.34307 286.159 7.73274C286.408 8.00095 285.428 7.95547 285.537 8.23554C285.648 8.51324 286.91 9.64146 285.824 9.76913C283.169 7.46129 282.438 10.2007 279.016 9.1189C279.545 9.41086 280.078 9.70436 280.604 9.99813C280.358 10.1998 280.137 10.3829 279.871 10.5975C281.771 10.1392 280.847 10.4357 281.629 10.7871C282.413 11.139 283.833 11.4407 284.784 11.5423C285.084 11.5742 284.769 11.0578 285.447 11.0133C285.91 10.9822 287.163 11.7549 287.462 10.8581C287.66 10.2744 285.639 8.6424 288.452 8.67301C288.988 8.1044 287.636 8.26862 287.608 8.19954C287.368 7.51393 289.108 7.01725 289.902 7.55005C289.966 7.59586 289.328 8.11991 290.012 8.33765C291.634 8.85837 292.583 8.26478 293.655 7.45863C293.752 8.42937 295.1 9.61123 296.811 9.2929C296.892 9.57206 296.968 9.85358 297.049 10.1348C296.788 9.98191 296.526 9.8311 296.265 9.67847C295.973 9.8458 295.665 9.96565 295.379 10.1645C297.085 10.4398 297.297 11.7816 298.104 12.2898C300.862 14.0301 299.257 10.4579 298.766 9.83645C298.394 10.0733 298.034 10.3393 297.665 10.5892C297.714 10.2528 297.763 9.91399 297.808 9.57554C302.019 9.69433 298.505 7.40144 300.665 6.83219C301.171 8.50682 302.737 8.71091 304.772 7.72264C304.994 7.73808 305.217 7.74746 305.439 7.76509C305.468 8.0082 305.455 8.37794 305.51 8.53931C307.91 8.9008 308.433 6.36358 308.671 6.12926C309.725 5.09206 310.462 6.60658 310.762 6.63048C312.024 6.72942 312.409 6.08385 313.604 6.41395C314.884 6.77064 313.98 7.24193 314.355 7.71024C314.655 8.08221 315.669 8.18685 316.076 8.57673C315.921 8.2651 315.747 7.95864 315.593 7.64591C316.951 7.28419 318.056 6.92376 319.581 6.88588C321.198 9.18788 322.819 5.48756 322.098 8.51406C320.651 8.662 319.832 8.97612 319.031 9.72174C319.969 9.86016 320.911 9.9966 321.85 10.1358C322.139 9.81253 322.348 9.49439 322.687 9.16704C323.363 9.90825 325.011 9.67283 325.643 9.90879C328.609 11.0151 327.633 12.1893 330.456 10.2658C328.496 9.98429 328.527 8.99336 326.568 9.04662C327.022 8.3575 328.008 8.54626 327.402 7.67105C329.288 7.96048 328.647 8.69152 329.356 9.39477C329.965 10.001 331.25 10.0872 331.146 10.837C331.295 10.4286 331.413 10.0321 331.561 9.62408C332.783 9.67901 334.026 9.73008 335.245 9.78257C334.741 9.3297 334.237 8.87579 333.729 8.42436C334.133 8.27723 334.535 8.13056 334.935 7.98303C335.712 8.3681 336.665 8.49582 337.602 8.53368C340.27 8.64031 342.966 8.07789 342.244 10.539C343.705 10.7122 343.892 10.2975 344.721 9.69678C344.797 9.95729 344.872 10.1746 344.945 10.4641C345.902 10.2417 346.565 11.24 347.411 11.0337C348.252 10.8293 348.505 9.93233 348.541 11.466C349.103 11.0574 349.66 10.7236 350.214 10.3472C350.515 10.7126 350.813 11.0741 351.114 11.438C351.629 11.2862 352.144 11.1359 352.655 10.9853C352.881 11.7301 354.867 11.5428 355.71 12.0936C356.589 11.3663 356.742 8.8902 358.663 9.47822C358.567 10.0873 358.472 10.6947 358.376 11.3038C358.828 11.2089 359.287 11.1157 359.746 11.0229C359.789 10.825 359.828 10.6268 359.87 10.4289C359.637 10.473 359.407 10.5171 359.172 10.5635C359.397 10.2403 359.618 9.91843 359.84 9.59523C360.483 10.1498 361.122 10.7057 361.766 11.2638C360.808 11.5664 359.868 11.8739 358.913 12.1829C360.038 12.7214 360.867 12.3366 361.831 12.9215C362.77 12.149 362.493 11.6351 362.215 10.6876C362.534 10.7933 362.852 10.8966 363.173 11.0033C363.037 10.0679 363.635 9.56566 361.724 9.48071C361.877 9.22977 362.032 8.99132 362.182 8.72995C362.492 8.79737 362.714 8.59325 363.047 8.72343C363.966 9.08053 364.534 10.7563 364.419 11.3153C364.359 11.6079 363.492 10.9608 363.492 11.3826C363.495 12.4113 365.632 12.1362 362.515 12.8972C363.464 13.633 363.729 13.1626 364.852 13.0753C364.734 13.4072 364.618 13.7372 364.505 14.0696C365.033 13.9596 365.56 13.8512 366.086 13.7431C365.531 11.9282 369.404 11.6394 366.12 9.78368C367.138 9.80031 368.163 9.82133 369.182 9.8425C368.992 9.64203 368.799 9.44335 368.61 9.24336C368.144 9.29216 367.68 9.34045 367.212 9.3887C367.784 9.11351 368.355 8.84143 368.926 8.56862C370.165 9.10454 370.591 9.78179 371.092 10.6142C369.554 11.0179 370.122 10.3023 368.983 10.0308C368.974 10.5226 368.875 10.9658 368.923 11.4884C369.622 10.5375 371.482 11.4791 371.922 11.5793C373.269 11.8817 372.311 10.7701 373.228 10.853C374.146 10.9369 375.154 11.6552 376.02 10.7649C375.939 11.3137 375.809 11.8759 375.695 12.3705C377.091 12.7262 376.89 12.0428 377.047 11.9767C379.573 10.8927 380.699 12.2317 383.353 12.7609C382.988 12.8811 382.623 12.9849 382.257 13.0957C384.104 14.5534 382.796 13.9948 380.996 14.1356C382.651 14.2481 383.442 15.3792 384.546 15.8471C385.65 16.3135 387.696 16.1172 388.483 15.8405C386.936 14.9332 385.088 15.0756 383.278 14.63C383.569 14.1018 383.842 13.6589 384.15 13.0771C385.096 14.4169 385.861 13.7339 386.255 13.6359C387.412 13.3498 387.216 14.35 388.045 13.3741C387.958 13.7416 387.888 14.0511 387.806 14.3941C390.061 14.5959 392.587 14.3581 393.791 15.9876C394.084 15.1211 394.337 14.2813 394.653 13.4004C395.478 14.2409 396.415 13.705 397.182 14.0107C397.946 14.3167 397.512 14.9782 398.386 15.4314C398.548 15.5151 398.992 15.1345 399.353 15.5481C399.417 15.622 399.505 15.7705 399.609 15.9529C400.088 16.7968 400.905 18.3704 401.415 16.6248C402.209 16.7729 402.98 16.847 403.764 16.9698C403.033 16.6929 402.295 16.4205 401.565 16.1482C402.315 15.7535 403.066 15.3622 403.822 14.9719C403.809 15.4552 403.795 15.9469 403.779 16.4234C405.403 17.3488 406.824 16.853 408.541 17.4107C408.827 17.5044 407.938 18.2747 409.287 18.3215C410.634 18.3693 411.979 16.8648 414.045 18.0253C414.149 18.085 414.505 19.5443 415.503 18.8168C415.73 18.652 415.041 18.1746 415.517 17.9985C415.992 17.8217 417.891 18.0248 418.185 17.4157C418.113 17.6389 417.943 17.8483 417.833 18.0672C418.123 18.249 418.416 18.4317 418.709 18.6125C418.832 18.2183 418.957 17.8241 419.08 17.4319C420.679 18.7897 421.25 20.5288 424.047 20.668C423.158 21.0693 422.261 21.4725 421.377 21.8772C421.268 21.4196 421.16 20.9591 421.053 20.5021C419.778 20.3726 418.503 20.2451 417.232 20.1232C417.137 19.6104 417.044 19.0997 416.947 18.5868C416.604 18.5714 416.267 18.5559 415.925 18.5413C415.93 18.897 415.936 19.2511 415.944 19.6075C415.315 19.3763 414.682 19.1434 414.055 18.9149C414.919 21.2003 417.766 19.5857 417.212 21.2099C417.563 21.0193 417.914 20.827 418.265 20.6349C418.206 21.4707 418.854 21.3767 419.923 21.4945C419.592 21.8354 419.237 22.1651 418.924 22.5149C420.065 22.191 421.851 22.672 422.95 22.7082C423.432 22.7238 423.114 22.0304 423.267 21.9945C424.055 21.8045 425.152 23.1469 425.451 23.1346C427.247 23.0642 428.806 21.4027 430.33 23.1277C428.362 22.9735 429.419 23.0946 428.576 23.635C428.313 23.8047 425.761 23.6668 428.862 24.2122C429.23 24.2718 435.102 24.3262 433.536 22.8515C434.348 23.4006 434.965 23.9558 435.692 24.5068C438.386 22.3317 437.048 24.677 436.114 25.9178C436.442 26.0074 436.75 26.1005 437.086 26.1857C436.737 24.544 440.429 25.3869 441.487 26.4433C441.839 26.7942 440.56 26.9637 441.462 27.4298C441.941 27.4436 442.509 27.4483 443.016 27.4567C442.081 28.1995 443.361 28.9071 443.106 29.8415C444.202 29.2322 445.333 27.6343 445.091 26.5483C445.732 27.1274 446.354 27.7017 446.987 28.281C446.595 28.4174 446.185 28.5473 445.792 28.6833C448.337 28.7104 451.046 30.8319 452.057 28.9877C452.136 29.0116 452.215 29.0353 452.294 29.0588C452.534 29.13 452.77 29.1999 453.001 29.2694C453.014 29.627 453.023 29.9843 453.034 30.3417C454.54 30.4158 456.029 30.4845 457.539 30.5637C456.327 30.0332 456.131 29.4788 454.704 29.5259C455.326 29.2762 455.937 29.0215 456.544 28.7685C458.277 30.3104 458.393 31.0554 461.489 31.5404C461.624 31.558 464.139 31.3134 464.244 31.258C464.705 30.9754 464.323 30.2676 464.536 30.1191C465.163 29.7833 468.061 28.7848 469.742 30.0184C467.981 27.0274 466.049 26.3174 463.345 25.1193C460.733 24.0642 457.866 23.295 456.649 22.9158C455.778 22.6451 454.931 22.3849 454.048 22.1199C436.665 16.8148 418.891 12.8677 400.835 9.6626C393.858 8.42852 386.828 7.32822 379.754 6.30692C379.483 6.26622 379.652 5.89895 379.539 5.86731C378.832 5.67633 378.05 6.18371 377.782 6.17494C377.209 6.15432 377.591 5.64176 377.175 5.58954C372.888 5.06365 368.802 4.96393 364.524 4.48894C364.246 4.45811 364.492 4.92637 364.008 4.80503C363.757 4.73977 363.024 3.99154 362.453 3.93384C360.456 3.73304 358.763 3.82321 356.66 3.66546C355.507 3.57827 353.775 3.52276 352.495 3.43458C351.931 3.39561 351.346 3.04795 350.793 3.00547C350.001 2.94528 350.126 3.58689 350.002 3.61915C349.455 3.7604 349.415 3.06227 348.906 3.05093C347.961 3.03303 347.883 3.49309 346.681 3.39215C345.829 3.31915 343.88 2.85887 342.798 2.70354C341.261 2.95916 339.503 2.93781 337.818 2.82467C336.743 2.7513 335.67 2.63257 334.76 2.52515C333.389 2.3643 333.223 3.00723 332.667 2.98234C330.687 2.88799 329.211 1.99493 327.35 1.88872C324.868 1.74785 322.656 2.20195 320.244 2.14036C319.855 2.13028 319.969 1.53938 319.587 1.50817C318.168 1.39299 316.362 1.21084 315.092 1.24541C313.682 1.28291 313.121 2.12562 311.753 1.89765C311.35 1.83022 311.26 1.06877 310.583 0.946415C309.505 0.753482 308.293 1.37886 307.531 1.42723C306.491 1.49109 307.42 0.75029 306.016 0.806814C305.958 0.80937 305.73 1.35372 305.43 1.31759C304.554 1.21471 304.658 0.783063 303.373 0.784785C303.249 0.786346 301.531 1.26133 301.362 1.25906C300.367 1.23834 298.356 1.37026 297.768 1.24488C295.667 0.798094 297.346 0.00657705 295.513 1.76744C294.732 1.31001 293.956 0.847877 293.125 0.404619C293.677 0.813535 291.395 1.35101 291.237 1.31237C289.92 0.993319 290.717 0.302763 289.037 0.398145C291.233 2.04285 286.872 0.580669 285.892 0.537655C281.182 0.30999 276.89 0.739329 272.136 0.840012C270.542 0.872795 268.393 0.595917 266.705 0.670554C266.31 0.686491 266.623 1.0575 266.276 1.07958C265.93 1.09924 266.297 0.653952 265.902 0.692843C263.452 0.944041 261.57 1.85469 259.252 0.983616C259.152 1.1369 259.163 1.25228 258.992 1.42462C257.558 0.831594 255.233 1.51979 253.619 2.03305C253.082 2.20314 252.623 2.3515 252.297 2.42251C250.263 2.86661 249.668 2.3083 248.182 2.57848C246.211 2.93721 243.372 4.45547 244.485 2.34236C243.123 2.42682 241.808 2.5575 240.457 2.9011C240.307 2.93974 240.47 3.42739 240.411 3.44484C240.032 3.56203 239.854 3.12937 239.59 3.13982C238.878 3.16884 240.093 3.56702 239.07 3.53771C238.53 3.52172 238.173 3.16741 236.7 3.34272C227.788 4.40722 218.238 6.0282 209.308 7.48753C208.694 7.58709 209.024 7.04324 208.259 7.19352C205.6 7.71686 200.954 9.26003 198.644 9.48903C196.336 9.71859 196.747 8.93741 195.274 8.85102C194.99 8.83376 195.275 9.20243 195.025 9.24483C193.348 9.52571 191.435 10.4334 190.081 10.7138C189.19 10.8997 189.177 10.257 188.547 10.2957C187.605 10.3552 186.737 11.1189 186.241 11.2037C184.209 11.546 182.684 11.3435 180.893 11.6339C180.637 11.6753 180.376 11.7269 180.106 11.7916C180.175 11.6422 180.216 11.5066 180.272 11.3607C177.697 11.683 175.123 11.9817 172.54 12.2606C172.649 12.1208 172.754 11.9803 172.863 11.8384C169.836 12.2075 170.314 13.5524 170.303 10.6048C170.073 10.5226 169.829 10.4252 169.61 10.3501C169.836 11.8481 168.104 13.125 165.79 13.7092C165.62 13.7531 164.342 12.3802 164.613 14.1063C164.275 13.7065 164.073 13.4283 163.788 13.0758C163.336 13.6422 162.875 14.2025 162.418 14.7659C162.143 14.7089 161.865 14.6546 161.591 14.597C161.524 14.2596 161.527 13.9037 161.416 13.5761C160.169 13.6225 157.644 14.2299 156.655 14.2536C154.198 14.3143 151.655 13.5476 149.806 14.654C148.873 14.6058 149.756 13.8843 148.381 14.0469C148.244 14.3944 148.116 14.7274 147.972 15.0855C146.759 13.6333 146.578 14.5674 145.044 14.9631C144.008 15.231 143.305 14.8941 142.311 15.013C142.059 15.0434 142.115 15.4863 141.942 15.4798C141.361 15.4611 139.681 14.9217 139.272 14.9218C135.562 14.9157 132.383 15.0931 128.857 15.3539C128.478 15.3808 128.958 14.9284 128.566 14.9577C127.935 15.0038 128.324 15.6685 127.959 15.7113C126.941 15.826 126.914 15.1153 125.49 15.111C120.801 15.097 115.415 15.7014 110.511 15.7598C110.358 15.7602 110.366 15.3432 110.2 15.3394C109.114 15.3213 108.018 15.8847 107.03 15.8763C105.436 15.8644 104.229 15.3014 102.679 15.2627C102.638 15.2617 102.597 15.2611 102.556 15.2608C99.4035 15.2361 96.5776 15.4947 93.3292 15.4451C90.6679 15.4043 88.3593 15.2909 85.4423 15.2065C72.6893 14.8429 59.7542 12.8226 46.7552 12.87C46.4205 12.8722 46.5384 13.2468 46.4376 13.2259C45.4817 13.0195 45.4339 12.5198 45.0352 13.5427C43.8183 13.2792 43.4675 12.4793 41.9871 12.4686C41.1886 12.4627 41.7313 13.6991 40.42 13.0174C39.6542 12.6225 39.9426 12.2307 39.2944 12.1411C38.9146 12.0907 38.272 12.1351 36.9548 12.3321C36.8615 12.3475 36.3607 13.069 35.6167 12.8527C34.8786 12.6394 35.7521 12.1351 33.9442 11.9233C29.6821 11.4239 24.1709 12.0149 19.2706 11.8643C18.951 11.8553 16.0664 11.4742 15.5649 11.2813C14.5506 10.9141 14.7489 10.3746 13.5452 10.1972C13.5024 10.1906 13.4604 10.1855 13.4188 10.1818C12.5799 10.1057 11.8246 10.6126 10.8467 10.3812C10.7274 10.3506 10.6047 9.69857 9.83552 9.67104ZM255.146 11.4912C255.47 12.0952 256.142 14.3544 257.716 13.5346C257.867 13.4572 256.913 11.9331 257.801 11.6157C256.905 11.5115 256.027 11.5243 255.146 11.4887C255.146 11.4895 255.146 11.4904 255.146 11.4912ZM0.0853712 22.5836C1.32875 22.7909 2.63091 23.0106 3.96467 23.1913C3.12319 22.7159 2.31251 22.2269 1.53248 21.7351C1.04696 22.0181 0.565672 22.3012 0.0853712 22.5836ZM156.536 24.8659C156.535 24.866 156.534 24.866 156.533 24.8661C157.867 25.0743 159.209 25.2782 160.547 25.4774C160.392 25.2689 160.237 25.0594 160.083 24.8508C159.02 24.5827 157.953 24.3127 156.897 24.0387C156.777 24.3145 156.657 24.5902 156.536 24.8659ZM146.016 23.1659C145.191 23.4694 145.418 23.898 144.978 24.3491C144.978 24.3483 144.978 24.3475 144.978 24.3467C144.862 24.4642 144.299 24.5897 144.081 24.617C144.148 24.3381 144.239 24.0616 144.314 23.7844C142.329 23.2148 138.596 25.7521 143.611 26.4776C143.52 26.1338 143.433 25.7917 143.342 25.448C145.816 25.4288 148.522 24.5259 146.016 23.1659ZM274.741 11.5715C276.838 12.6754 277.499 12.9059 280.016 12.1091C279.658 11.7884 279.299 11.4681 278.939 11.1483C278.524 11.4806 278.114 11.8113 277.702 12.1448C277.701 12.1448 277.7 12.1448 277.698 12.1449C277.611 11.8001 277.524 11.4548 277.44 11.1101C276.538 11.261 275.639 11.4148 274.741 11.5715ZM65.5689 23.8012C64.878 26.0448 65.1063 24.7332 66.7579 25.3229C67.3262 25.5273 66.7459 25.8988 67.1019 25.9815C69.0373 26.432 69.2537 24.9157 68.8584 24.1048C67.7562 24.0017 66.6577 23.9021 65.5725 23.8014C65.5713 23.8013 65.5701 23.8013 65.5689 23.8012ZM15.2936 21.7278C15.2924 21.7278 15.2912 21.7278 15.29 21.7278C15.2335 22.2819 16.0338 22.4388 15.1216 22.9552C15.8141 22.9613 16.4985 22.9581 17.1824 22.9545C16.987 22.9033 16.7736 22.8543 16.5761 22.8024C16.7512 22.6121 16.9327 22.4192 17.1074 22.2284C17.3472 22.8653 17.5718 22.4945 18.2816 22.2776C18.0904 22.9596 17.8939 23.642 17.7025 24.3237C18.5315 24.1176 19.3538 23.9081 20.1719 23.7003C20.1807 23.5287 20.1898 23.3567 20.1986 23.1851C20.5024 23.4025 20.8184 23.6224 21.1209 23.8402C21.2032 23.6349 21.283 23.4315 21.3665 23.2263C21.738 23.3797 22.1139 23.5334 22.4798 23.6897C22.5924 23.1933 21.7734 22.98 23.2218 23.1037C22.7775 22.595 22.3386 22.0885 21.881 21.5811C19.7014 21.6285 17.5189 21.7045 15.2936 21.7278ZM80.7544 25.1264C78.3445 24.9468 79.0133 25.3293 79.53 26.4747C79.9361 26.0253 80.3469 25.5761 80.7544 25.1264ZM204.961 17.5448C205.77 18.1976 206.58 18.842 207.402 19.4647C208.879 19.67 210.074 18.0678 208.93 17.6904C207.553 17.238 206.331 18.1722 204.961 17.5448ZM237.069 13.1533C235.392 13.7266 237.128 14.4241 237.582 14.9032C237.954 13.9948 238.619 13.9869 239.676 13.7581C238.666 13.8247 237.351 13.0565 237.069 13.1509C237.069 13.1517 237.069 13.1525 237.069 13.1533ZM177.151 22.1417C176.452 22.1932 175.734 22.0523 175.134 22.3757C175.398 23.0872 176.583 22.2924 175.799 23.4681C176.249 23.4402 176.7 23.4111 177.146 23.3845C176.816 22.966 177.16 22.5905 177.15 22.1443C177.15 22.1434 177.151 22.1425 177.151 22.1417ZM104.181 26.483C105.569 25.6214 105.82 25.9944 107.211 26.6C107.407 25.8927 105.756 24.7036 104.724 24.4366C104.545 25.1187 104.365 25.8011 104.181 26.483ZM425.872 25.6956C425.769 24.7411 423.436 24.0538 422.207 24.0351C422.315 24.1985 422.423 24.3639 422.53 24.5293C423.643 24.9154 424.759 25.3047 425.872 25.6956ZM240.177 13.636C240.003 13.6836 239.834 13.7238 239.676 13.7581C239.855 13.7462 240.026 13.71 240.177 13.636ZM312.75 7.87603C312.208 7.00397 313.926 6.78382 311.842 7.03751C311.842 7.0367 311.842 7.03588 311.842 7.03507C310.463 7.20256 310.154 7.24982 308.883 7.27032C309.302 8.37872 311.858 8.86215 308.304 8.95971C308.258 8.95907 308.374 8.31248 307.803 8.38143C307.625 8.40293 307.047 8.91658 306.191 9.04313C305.914 9.08353 303.839 9.17919 306.659 9.28367C306.549 10.0421 306.674 10.8178 306.642 11.556C307.73 11.8081 308.634 10.3475 309.792 10.4265C311.523 10.548 312.338 12.0894 312.748 10.1248C311.317 9.58237 308.816 9.47958 308.45 10.6578C307.043 10.6225 306.671 9.63469 307.824 9.19198C312.658 9.97938 309.214 7.79112 313.44 8.73098C313.479 9.00793 313.643 9.31072 313.606 9.56815C314.943 8.65142 312.946 8.18776 312.75 7.87603ZM302.515 9.62717C303.338 10.2337 304.152 10.8458 304.969 11.4564C304.999 10.509 304.567 9.64313 303.261 9.06853C303.013 9.25542 302.762 9.44216 302.515 9.62717ZM372.953 13.7616C373.014 14.2873 373.278 14.7932 373.452 15.3074C373.754 14.8925 379.767 15.2338 376.788 14.4255C376.352 14.3049 373.555 14.8837 372.953 13.7616ZM94.6244 25.5879C95.3502 25.2558 96.0626 24.9218 96.7805 24.5876C95.6912 24.3509 94.5969 24.1061 93.5103 23.8607C93.881 24.4366 94.2503 25.0125 94.6244 25.5879ZM216.289 14.8742C215.994 14.9393 217.09 15.4872 215.902 15.5578C216.844 15.8708 217.721 16.1239 218.637 16.4149C218.841 16.0443 219.049 15.6747 219.254 15.3042C219.486 15.4866 219.722 15.667 219.953 15.8496C219.76 15.3848 219.582 14.9294 219.38 14.4576C218.1 15.7127 217.593 14.5894 216.289 14.8742ZM173.171 18.8536C173.014 19.9363 175.178 20.3551 173.128 20.7297C173.59 21.3848 174.254 21.6874 175.476 21.624C175.643 21.3385 175.81 21.055 175.977 20.7694C176.078 21.4765 176.417 21.7081 177.151 22.1417C177.152 22.1408 177.152 22.1399 177.153 22.1391C179.007 21.9919 178.869 21.7649 179.181 20.5501C177.308 21.4235 177.129 20.3625 175.74 19.8675C174.782 19.5268 173.618 19.8431 173.171 18.8536ZM366.569 13.078C367.855 14.1041 366.54 14.8111 369.059 14.1099C368.926 13.8672 368.792 13.6265 368.658 13.384C367.962 13.2777 367.269 13.1764 366.569 13.078ZM166.706 23.1045C166.725 21.4539 167.906 20.0668 168.366 22.7095C167.142 23.364 167.634 21.8007 166.706 23.1045ZM236.155 10.676C233.749 11.0641 234.448 12.8459 235.558 13.6355C235.666 13.2811 235.775 12.9262 235.882 12.5744C236.322 12.6719 236.764 12.7702 237.206 12.8665C236.857 12.1367 236.506 11.4052 236.155 10.676ZM123.587 23.499C125.476 24.6352 121.586 24.1908 122.903 24.898C123.956 25.4642 125.306 24.2517 124.77 23.5221C124.409 23.5092 124.008 23.5031 123.59 23.499C123.589 23.499 123.588 23.499 123.587 23.499ZM134.386 23.5405C134.123 24.804 134.552 24.4245 133.07 24.2481C132.647 24.1998 129.314 24.7701 130.688 23.6898C131.883 23.6545 133.145 23.596 134.386 23.5405ZM264.313 9.91105C264.309 9.36214 261.688 8.29606 261.369 8.61769C261.369 8.61688 261.369 8.61606 261.369 8.61525C260.529 9.48125 263.234 9.4469 262.127 10.6315C264.659 9.50674 265.547 11.8673 265.225 8.73038C263.691 8.66193 264.443 9.2775 264.313 9.91105ZM457.398 31.0316C457.4 31.0319 457.401 31.0322 457.402 31.0325C457.232 31.0153 455.653 31.4393 455.756 31.752C457.471 31.9443 457.303 31.3565 458.623 32.5918C458.777 32.3433 458.921 32.1008 459.084 31.8522C458.512 31.5335 458.261 31.1224 457.398 31.0316ZM379.56 13.4754C378.958 13.2497 377.743 13.6872 377.041 13.5631C379 16.1011 381.962 14.3778 379.56 13.4754ZM38.8069 22.1014C38.8087 22.1023 38.8105 22.1032 38.8123 22.1041C38.8118 22.1028 38.8111 22.1016 38.8106 22.1003C38.8094 22.1007 38.8082 22.101 38.8069 22.1014ZM330.985 11.253C331.072 11.109 331.124 10.9829 331.145 10.8712C331.145 10.8606 331.146 10.8501 331.146 10.8395C331.096 10.9757 331.044 11.1133 330.985 11.253ZM269.634 9.86783C270.679 9.07213 267.08 7.97561 265.931 8.31872C266.026 8.66263 266.052 8.97691 266.256 9.36808C267.155 8.42792 269.46 10.0001 269.634 9.86783ZM189.055 19.3296C191.856 18.9342 187.811 16.442 187.979 18.8372C187.991 18.8827 188.979 19.3357 189.055 19.3296ZM247.532 11.054C246.725 10.2226 248.14 9.83067 245.856 10.2291C245.747 10.4779 245.639 10.7272 245.531 10.9759C246.195 11.0002 246.872 11.0261 247.532 11.054ZM206.764 12.7553C210.346 12.7136 213.84 13.0742 211.941 15.9106C211.663 15.8722 211.382 15.837 211.104 15.7986C210.876 14.5945 209.999 15.4076 208.571 15.6696C208.292 15.2208 207.48 15.2329 207.267 14.8476C206.856 14.1029 207.684 13.4066 206.764 12.7553ZM57.7234 20.6454C57.7698 20.857 57.815 21.0697 57.8617 21.2794C58.4116 21.5434 58.9649 21.8063 59.5104 22.0698C59.44 21.6646 59.3695 21.2594 59.2994 20.8542C58.7819 20.7848 58.2494 20.7142 57.7271 20.6443C57.7258 20.6447 57.7246 20.645 57.7234 20.6454ZM299.128 6.94707C299.39 9.25629 298.28 8.80037 296.018 7.58636C297.052 7.37112 298.094 7.15822 299.128 6.94707ZM150.384 19.9146C150.349 20.5715 150.314 21.2264 150.275 21.8835C149.024 21.2736 149.209 20.5127 149.737 19.6159C149.954 19.7153 150.167 19.8155 150.384 19.9146ZM132.953 20.428C133.451 20.2752 133.212 20.8111 133.264 20.7988C134.526 20.4787 134.695 20.231 136.268 20.5704C136.465 20.7018 136.658 20.8403 136.854 20.9757C136.185 22.3718 135.633 21.6463 134.133 22.5037C134.393 22.0246 134.65 21.5448 134.909 21.0634C134.064 21.1929 133.222 21.3193 132.376 21.4457C132.271 21.3041 132.166 21.1639 132.06 21.0222C132.356 20.8266 132.661 20.6074 132.953 20.428ZM51.2109 20.9081C50.3773 20.9194 49.5505 20.9333 48.7193 20.9452C48.7062 20.6068 48.6944 20.2661 48.6813 19.9276C49.5242 20.254 50.3649 20.581 51.2109 20.9081ZM316.076 8.57673C316.137 8.69896 316.196 8.82185 316.248 8.9465C316.249 8.79716 316.182 8.67786 316.076 8.57673ZM459.975 29.7846C460.94 29.7907 462.224 30.2869 463.224 30.5069C462.925 31.2993 460.46 30.4048 459.441 30.6737C459.333 30.489 459.57 29.7821 459.975 29.7846ZM232.822 11.1889C232.532 10.8019 232.241 10.4171 231.954 10.0301C231.395 10.152 230.837 10.277 230.277 10.4007C230.213 10.0606 230.148 9.71755 230.084 9.37749C232.644 9.47801 231.939 8.57037 233.048 7.42953C232.969 8.68221 232.897 9.93432 232.822 11.1889ZM24.9246 17.8145C26.7542 18.0563 27.3899 18.5029 26.3614 19.5303C25.7136 19.2874 25.0731 19.0461 24.4291 18.8067C24.5981 18.476 24.763 18.1451 24.9246 17.8145ZM349.216 9.22574C350.718 9.69856 350.822 8.3106 352.266 9.17687C351.455 9.3841 350.638 9.59575 349.835 9.80708C349.631 9.61376 349.421 9.41891 349.216 9.22574ZM274.467 3.23194C275.114 2.7363 276.353 5.01599 278.157 3.2999C278.596 3.80283 278.872 4.28493 279.248 4.77892C279.461 4.23716 279.704 3.68848 279.909 3.15123C279.91 3.15122 279.911 3.15122 279.912 3.15121C281.568 3.32542 280.497 4.00812 280.538 4.58115C280.556 4.81839 281.778 4.41745 281.397 4.93585C280.742 5.82358 278.274 5.33004 278.278 6.41399C279.138 6.05132 280.83 6.33902 280.333 7.06367C279.791 7.85841 278.197 6.54114 277.191 7.21152C278.624 5.46461 275.626 6.03408 275.311 7.37076C273.537 6.38156 275.143 5.93286 276.949 5.95828C275.834 4.95404 277.463 5.48333 277.723 4.63479C276.577 4.13066 272.668 4.62899 274.467 3.23194ZM192.122 14.5123C193.324 14.4119 195.103 13.5695 196.045 14.3007C196.594 14.7272 194.776 15.3819 196.181 15.9732C195.002 16.0663 194.695 15.7991 194.796 15.0887C194.52 15.0447 194.24 15.0031 193.963 14.9609C193.86 15.1114 193.752 15.2606 193.648 15.4111C193.469 15.1501 193.289 14.8914 193.114 14.6298C192.839 14.7249 192.563 14.82 192.289 14.9165C192.237 14.78 192.163 14.6649 192.122 14.5123ZM392.733 14.0806C392.403 14.0145 392.075 13.9491 391.744 13.8816C391.809 13.7225 391.883 13.5578 391.954 13.3951C392.007 13.266 392.061 13.1369 392.114 13.0078C391.836 13.4531 390.121 13.9817 389.538 13.3594C389.244 13.0467 390.162 12.258 388.759 11.8649C389.787 12.0801 390.727 12.3653 391.715 12.6146C391.672 12.3278 391.632 12.0388 391.588 11.752C391.589 11.7517 391.59 11.7514 391.59 11.7511C391.935 11.7469 392.284 11.7411 392.63 11.7381C392.667 12.5198 392.699 13.2992 392.733 14.0806ZM151.288 18.5661C152.46 19.0366 152.86 19.292 152.375 20.1973C152.374 20.1978 152.372 20.1983 152.371 20.1988C151.923 19.8387 151.474 19.4783 151.027 19.1173C151.113 18.9339 151.199 18.7498 151.288 18.5661ZM326.066 6.1101C328.362 9.52898 322.963 7.2628 324.056 6.17825C324.108 6.12865 325.816 6.46612 326.066 6.1101ZM236.471 9.60692C235.8 9.66514 235.137 9.7263 234.461 9.7878C234.562 9.36329 234.667 8.93969 234.769 8.51523C235.336 8.87771 235.904 9.24294 236.471 9.60692ZM32.9282 16.4264C33.6631 15.5331 35.4962 15.2571 36.3632 16.2787C35.8812 16.3783 35.4204 16.4795 34.9464 16.5809C35.8226 16.7216 36.6903 16.8763 37.5827 17.0168C37.5802 18.2867 36.5819 17.5115 35.0349 17.8134C34.7851 17.8614 33.2193 19.392 32.732 18.1931C32.6267 17.9458 34.2587 17.8235 33.1461 17.084C33.6424 17.0412 34.0703 17.0657 34.5355 17.0484C34.5783 16.7474 34.621 16.446 34.6676 16.145C34.0885 16.2371 33.5045 16.3317 32.9282 16.4264ZM199.083 13.6073C200.713 13.2933 200.99 13.7631 201.466 14.5977C200.688 14.6125 199.907 14.6287 199.13 14.6418C199.116 14.2974 199.097 13.9537 199.083 13.6073ZM47.8808 16.7452C48.8081 16.6449 48.3722 17.3533 48.7318 17.5102C50.0917 18.101 51.065 17.6289 52.4097 18.0251C52.3264 17.8799 52.2501 17.7442 52.1702 17.6033C52.1714 17.6034 52.1726 17.6035 52.1738 17.6035C58.6827 17.3213 55.1881 18.7986 51.3353 18.3319C51.2301 18.598 51.1287 18.8647 51.024 19.1287C49.3221 18.5671 47.7413 18.0313 47.8808 16.7452ZM304.397 5.15087C304.476 4.98366 303.88 3.8853 305.047 4.42798C305.935 6.03246 304.421 5.2011 304.019 5.79476C304.334 5.95583 304.655 6.11313 304.968 6.27443C303.043 6.65801 302.774 6.27667 303.507 5.14745C303.56 5.07161 304.317 5.31755 304.397 5.15087ZM317 4.83809C317.17 7.16697 314.795 6.027 314.914 5.31118C315.247 5.29568 315.49 5.69858 315.852 5.53925C316.216 5.37995 316.33 4.84206 317 4.83809ZM247.509 6.22814C247.578 6.21057 248.194 5.1686 248.199 5.93537C247.498 7.82017 245.617 6.84832 245.857 6.1906C246.451 6.15934 246.865 6.38889 247.509 6.22571C247.509 6.22652 247.509 6.22733 247.509 6.22814ZM21.8519 15.7623C21.8911 15.6967 23.6669 15.3012 23.9053 15.6664C24.0924 16.0763 24.186 16.5156 24.3279 16.9401C23.3446 16.5435 21.3586 16.8507 21.8555 15.7623C21.8543 15.7623 21.8531 15.7623 21.8519 15.7623Z" fill="#FEEA94"/>
</svg>
