<svg width="248" height="226" viewBox="0 0 248 226" fill="none" xmlns="http://www.w3.org/2000/svg">
<path d="M85.1817 213.244C87.1857 206.281 85.3668 199.363 90.8518 193.61C92.4318 191.954 97.4697 192.771 98.2777 190.578C99.0997 188.331 97.8197 186.122 98.9057 183.838C102.487 176.308 107.561 170.423 114.823 166.326C118.67 164.155 122.285 165.331 126.396 165.343C131.155 165.357 133.695 163.412 137.552 161.041C138.984 160.161 140.435 160.024 142.049 159.977C142.111 160.334 142.138 160.757 142.121 161.272C141.991 164.647 146.62 166.165 147.273 162.418C147.445 161.443 147.961 159.782 147.663 158.778C147.561 158.402 147.445 158.031 147.316 157.665C146.148 155.425 147.356 156.086 150.932 159.654C153.179 163.282 150.869 169.075 150.701 173.156C150.555 176.628 152.261 179.866 153.469 183.008C155.023 187.051 154.486 189.806 154.115 193.729C153.673 198.449 155.877 202.425 154.125 207.319C151.938 213.421 150.363 217.927 155.298 223.344C159.088 227.507 165.921 223.828 165.067 218.432C164.366 214.003 161.933 210.246 161.232 205.796C160.232 199.479 160.72 194.772 162.434 188.617C163.435 185.028 162.815 182.014 161.517 178.585C160.107 174.867 159.491 171.288 159.133 167.646C159.388 167.922 159.606 167.916 159.558 167.186C159.484 166.019 159.393 165.154 159.235 163.984C158.988 162.13 160.631 155.584 161.015 158.163C161.188 159.326 161.048 160.727 161.599 161.815C162.061 162.729 163.532 163.566 164.525 163.325C167.6 162.582 168.596 159.878 172.402 161.736C174.147 162.589 176.893 165.227 178.903 163.075C180.16 161.732 180.39 160.391 180.398 158.544C180.423 150.326 187.123 153.005 190.365 157.204C191.948 159.259 192.872 160.512 195.128 161.8C199.26 164.157 203.156 166.454 206.957 169.339C208.784 170.729 211.46 172.859 213.871 172.88C217.597 172.915 220.217 169.769 219.218 166.096C218.022 161.702 214.721 158.494 211.482 155.465C206.269 150.588 201.485 145.735 197.98 139.535C198.152 139.206 198.192 138.717 197.955 138.25C194.352 131.171 205.303 136.289 207.216 132.557C207.869 131.286 207.078 129.828 206.461 128.749C205.983 127.914 204.738 127.673 203.917 127.438C203.047 127.306 202.171 127.217 201.29 127.172C197.413 126.877 195.6 123.363 194.623 120.103C191.119 108.403 203.454 107.536 211.45 107.49C214.385 107.473 217.31 107.509 220.229 107.172C224.672 106.657 227.334 103.082 230.652 100.489C235.538 96.6731 246.609 103.615 247.11 94.1761C247.362 89.4001 241.186 88.3601 237.726 88.0551C232.728 87.6131 225.961 87.6351 222.375 91.5781C217.949 96.4462 216.062 91.6781 211.405 91.9511C206.753 92.2232 197.196 98.8221 193.431 93.5931C195.655 91.2121 198.504 88.5051 196.955 85.2951C195.856 83.0241 192.692 82.2711 197.824 80.3101C199.988 79.4831 200.023 77.4851 199.903 75.5081C199.866 74.8851 199.409 74.0781 198.686 74.1951C197.114 74.4541 196.039 74.9791 194.694 75.7761C191.233 77.8201 189.455 77.8411 185.985 75.5381C179.698 71.3681 188.226 66.4741 189.058 62.0651C189.448 60.0101 189.52 58.1611 189.582 56.0731C189.71 51.5171 194.18 48.2121 197.385 45.5671C202.202 41.5911 205.683 37.2001 209.606 32.3771C213.082 28.1011 218.241 25.4641 222.449 21.9991C224.755 20.0991 226.573 17.4221 228.267 15.0051C230.329 12.0671 235.18 4.94814 231.707 1.39014C230.022 -0.333857 227.726 -0.184857 225.562 0.403143C224.602 0.665143 224.194 1.72514 223.823 2.49814C222.552 5.14414 220.344 4.29014 218.372 5.33914C215.34 6.95114 213.697 10.9811 212.045 13.8481C210.918 15.8001 209.305 17.8551 209.943 20.2301C210.378 21.8471 212.564 23.0661 211.382 25.1831C210.506 26.7551 209.127 28.1611 207.895 29.4601C202.921 34.6971 198.323 40.3601 192.95 45.2001C189.14 48.6281 185.562 51.4371 182.385 55.4971C181.284 56.9581 179.998 58.2171 178.518 59.2691C176.559 60.8341 166.811 64.7671 167.06 57.7081C167.124 55.8401 167.441 54.0471 167.394 52.1671C167.381 51.7121 166.993 50.8121 166.412 50.8381C163.866 50.9601 162.783 52.1261 162.133 54.2171C161.82 53.7461 161.435 53.5371 161.263 54.2381C159.848 55.1611 158.432 56.0851 157.018 57.0081C157.209 56.5701 157.374 56.1251 157.515 55.6701C157.689 54.8781 157.867 54.4021 157.71 53.6511C157.082 50.6721 154.84 49.9691 152.943 47.7571C152.234 46.9321 148.781 38.2591 146.391 40.5281C142.76 43.9791 145.96 48.1151 148.207 51.2481C148.974 52.3181 143.023 49.7901 143.206 49.8551C141.871 49.3761 141.146 49.1521 139.856 48.9181C137.657 48.5181 135.131 48.2811 133.03 47.4161C132.873 47.1471 132.665 46.9841 132.417 47.1021C130.783 47.8681 130.303 49.3061 129.823 50.9511C129.364 52.5401 129.239 54.5451 127.43 55.1651C125.271 55.9051 122.198 53.0361 120.962 51.5171C120.338 50.7511 114.108 40.2831 112.687 43.2911C111.908 44.9411 112.487 47.0481 113.054 48.6541C113.815 50.8021 115.023 50.5681 114.986 53.9661C114.967 55.6301 115.097 56.3911 115.74 58.0391C116.395 59.6701 117.01 61.3131 117.584 62.9741C118.045 64.3571 114.354 65.3771 113.405 65.5981C111.319 66.0831 110.438 63.4611 109.625 62.1011C108.201 59.7161 106.12 58.6631 103.41 58.3571C103.128 58.3261 102.938 58.5481 102.909 58.8231C102.497 62.7171 103.473 65.3591 105.983 68.3641C109.332 72.3891 108.366 75.9271 108.909 80.3441C109.078 81.7211 111.159 87.1151 109.667 87.6681C96.8337 92.4481 88.7377 72.6191 75.4727 78.1921C72.3788 79.4941 69.8807 81.6481 66.5647 82.5301C63.0667 83.4581 59.9497 81.4831 56.9377 80.1321C48.4587 76.3271 38.8877 74.6101 30.1607 71.3781C24.5877 69.3141 0.306775 62.9241 0.00277388 73.7211C-0.0952335 77.1461 2.36467 79.3071 5.24667 80.4661C12.6847 83.4511 21.6467 84.8791 29.5907 85.3681C33.5527 85.6151 37.5648 84.9811 41.4878 85.6151C44.8808 86.1601 47.9377 87.6081 51.4177 87.9241C54.6657 88.2211 58.0097 87.8361 61.2647 87.8901C64.6747 87.9461 65.6627 90.2511 68.1157 91.9481C73.2537 95.5041 82.2928 96.6231 88.2798 97.4191C90.3067 97.6891 107.926 97.7641 107.525 102.032C107.257 102.689 106.773 103.421 106.03 104.236C105.615 104.691 105.156 105.132 104.67 105.567C99.7008 109.46 91.7848 111.283 92.3518 118.459C92.4248 119.38 92.7017 120.195 93.1267 120.922C93.2837 121.575 93.5157 122.255 93.8487 122.969C96.0837 127.743 100.942 127.661 105.345 128.618C113.365 130.36 109.278 142.008 108.141 146.491C107.111 150.563 107.178 154.463 106.707 158.605C106.144 163.584 101.851 167.538 98.5658 170.928C96.1238 173.445 94.4567 176.115 92.7517 179.139C88.4307 186.795 83.9407 192.01 76.3537 196.524C68.3667 201.277 62.4597 211.667 66.8337 220.537C68.4667 223.844 72.1467 224.451 75.3947 223.758C80.5237 222.66 83.8277 217.948 85.1817 213.244Z" fill="#7DADFE"/>
<path d="M114.153 12.1401C113.835 12.0061 113.592 12.0551 113.42 12.1961C113.033 11.9561 112.642 11.7341 112.243 11.5401C107.859 9.4231 103.132 11.6171 103.938 16.9541C104.373 19.8071 106.593 22.2151 108.679 24.0391C110.427 25.5671 113.549 27.7201 115.975 26.5981C122.199 23.7201 119.365 14.3121 114.153 12.1401Z" fill="#7DADFE"/>
<path d="M136.968 43.9012C138.075 43.5382 138.339 42.4862 138.047 41.4262C137.655 40.0042 136.377 39.0222 135.188 38.2222C133.922 36.3182 131.854 35.0062 129.739 35.9252C127.748 36.7962 125.755 38.2862 126.846 40.6992C127.643 42.4652 129.772 43.2022 131.506 43.6512C133.174 44.0842 135.286 44.4512 136.968 43.9012Z" fill="#7DADFE"/>
<path d="M48.6348 59.608C48.1038 58.832 47.6408 59.163 47.4618 59.757C44.7778 57.559 40.8158 56.439 37.4378 56.734C33.0058 57.121 34.3237 61.803 36.0907 64.3C38.0137 67.004 42.9998 67.018 45.8768 66.546C49.7648 65.911 50.7968 62.751 48.6348 59.608Z" fill="#7DADFE"/>
<path d="M37.1177 96.286C39.4197 92.116 34.6056 88.908 30.9386 88.614C26.4496 88.259 23.5896 92.64 25.1936 96.757C26.4756 100.055 30.2736 101.321 33.5516 100.686C36.1886 100.175 37.1677 98.346 37.1177 96.286Z" fill="#7DADFE"/>
</svg>
