<svg width="1920" height="127" viewBox="0 0 1920 127" fill="none" xmlns="http://www.w3.org/2000/svg">
<path d="M1722.98 102.77C1737.03 86.1507 1755.24 73.9747 1778.41 73.9747V40.1333H1681.76H1585.11V73.9747C1608.28 73.9747 1626.48 86.1507 1640.53 102.77C1664.27 130.837 1699.25 130.837 1722.98 102.77Z" fill="#4489E3"/>
<path d="M1481.71 102.77C1495.77 86.1507 1513.97 73.9747 1537.14 73.9747V40.1333H1440.49H1343.84V73.9747C1367.01 73.9747 1385.22 86.1507 1399.27 102.77C1423 130.837 1457.98 130.837 1481.71 102.77Z" fill="#4489E3"/>
<path d="M1240.44 102.77C1254.5 86.1507 1272.7 73.9747 1295.87 73.9747V40.1333H1199.22H1102.57V73.9747C1125.74 73.9747 1143.95 86.1507 1158 102.77C1181.73 130.837 1216.71 130.837 1240.44 102.77Z" fill="#4489E3"/>
<path d="M999.178 102.77C1013.23 86.1507 1031.43 73.9747 1054.6 73.9747V40.1333H957.955H861.308V73.9747C884.478 73.9747 902.68 86.1507 916.732 102.77C940.46 130.837 975.442 130.837 999.178 102.77Z" fill="#4489E3"/>
<path d="M757.907 102.77C771.959 86.1507 790.161 73.9747 813.331 73.9747V40.1333H716.684H620.037V73.9747C643.207 73.9747 661.409 86.1507 675.461 102.77C699.189 130.837 734.175 130.837 757.907 102.77Z" fill="#4489E3"/>
<path d="M516.64 102.77C530.693 86.1507 548.895 73.9747 572.064 73.9747V40.1333H475.417H378.77V73.9747C401.94 73.9747 420.142 86.1507 434.194 102.77C457.922 130.837 492.904 130.837 516.64 102.77Z" fill="#4489E3"/>
<path d="M275.37 102.77C289.422 86.1507 307.624 73.9747 330.794 73.9747V40.1333H234.147H137.5V73.9747C160.669 73.9747 178.871 86.1507 192.924 102.77C216.652 130.837 251.638 130.837 275.37 102.77Z" fill="#4489E3"/>
<path d="M63.9929 100.726C93.6187 135.758 137.189 135.758 166.811 100.726C184.351 79.9866 207.021 64.7893 235.944 64.7893C264.863 64.7893 287.558 79.9866 305.098 100.726C334.724 135.758 378.377 135.758 407.999 100.726C425.54 79.9866 448.251 64.7893 477.17 64.7893C506.089 64.7893 528.804 79.9866 546.344 100.726C575.966 135.758 619.632 135.758 649.257 100.726C666.798 79.9866 689.513 64.7893 718.436 64.7893C747.359 64.7893 770.074 79.9866 787.615 100.726C817.241 135.758 860.906 135.758 890.528 100.726C908.069 79.9866 930.788 64.7893 959.707 64.7893C988.626 64.7893 1011.35 79.9866 1028.89 100.726C1058.51 135.758 1102.17 135.758 1131.8 100.726C1149.34 79.9866 1172.06 64.7893 1200.98 64.7893C1229.9 64.7893 1252.62 79.9866 1270.16 100.726C1299.78 135.758 1343.44 135.758 1373.07 100.726C1390.61 79.9866 1413.33 64.7893 1442.25 64.7893C1471.17 64.7893 1493.89 79.9866 1511.43 100.726C1541.05 135.758 1584.71 135.758 1614.34 100.726C1631.88 79.9866 1654.6 64.7893 1683.52 64.7893C1712.44 64.7893 1735.16 79.9866 1752.7 100.726C1782.32 135.758 1824.1 135.758 1853.72 100.726C1871.25 79.9866 1892.07 64.7893 1921 64.7893V20.3426H1804.14H1683.51H1562.87H1442.24H1321.6H1200.97H1080.34H959.703H839.068H718.432H597.797H477.161H356.526H235.891H115.255H-5V64.7893C19.7983 64.7893 46.4523 79.9866 63.9929 100.726Z" fill="#266BC5"/>
<path d="M63.9929 79.8669C93.6187 114.711 137.189 114.711 166.811 79.8669C184.351 59.2383 207.021 44.1183 235.944 44.1183C264.863 44.1183 287.558 59.2342 305.098 79.8669C334.724 114.711 378.377 114.711 407.999 79.8669C425.54 59.2383 448.251 44.1183 477.17 44.1183C506.089 44.1183 528.804 59.2342 546.344 79.8669C575.966 114.711 619.632 114.711 649.257 79.8669C666.798 59.2383 689.513 44.1183 718.436 44.1183C747.359 44.1183 770.074 59.2342 787.615 79.8669C817.241 114.711 860.906 114.711 890.528 79.8669C908.069 59.2383 930.788 44.1183 959.707 44.1183C988.626 44.1183 1011.35 59.2342 1028.89 79.8669C1058.51 114.711 1102.17 114.711 1131.8 79.8669C1149.34 59.2383 1172.06 44.1183 1200.98 44.1183C1229.9 44.1183 1252.62 59.2342 1270.16 79.8669C1299.78 114.711 1343.44 114.711 1373.07 79.8669C1390.61 59.2383 1413.33 44.1183 1442.25 44.1183C1471.17 44.1183 1493.89 59.2342 1511.43 79.8669C1541.05 114.711 1584.71 114.711 1614.34 79.8669C1631.88 59.2383 1654.6 44.1183 1683.52 44.1183C1712.44 44.1183 1735.16 59.2342 1752.7 79.8669C1782.32 114.711 1824.1 114.711 1853.72 79.8669C1871.25 59.2383 1892.07 44.1225 1921 44.1225V0H1804.14H1683.51H1562.87H1442.24H1321.6H1200.97H1080.34H959.703H839.068H718.432H597.797H477.161H356.526H235.891H115.255H-5V44.1225C19.7983 44.1225 46.4523 59.2383 63.9929 79.8669Z" fill="#084DA7"/>
</svg>
