<svg width="333" height="157" viewBox="0 0 333 157" fill="none" xmlns="http://www.w3.org/2000/svg">
<path opacity="0.1" d="M439.69 96.1377C429.879 141.815 393.96 157.911 360.75 155.942C327.84 153.99 296.826 120.647 295.97 69.3619C295.629 83.3587 281.817 128.085 243.369 139.084C203.52 150.484 177.496 131.164 163.144 106.34C140.625 67.3879 138.311 23.1611 138.713 -15.0656C126.932 9.0471 104.295 43.8855 66.9482 50.1392C29.6019 56.393 -7.89116 26.3682 2.08959 -39.0002C12.0703 -104.369 60.8279 -230.045 157.615 -202.479C196.426 -191.424 213.098 -149.287 219.41 -124.752C222.142 -114.131 229.036 -82.4321 231.451 -37.4104C233.752 -91.6673 255.845 -176.948 315.527 -184.32C434.891 -199.065 457.244 14.4093 439.69 96.1377Z" fill="#7DADFE"/>
</svg>
