<svg width="160" height="160" viewBox="0 0 160 160" fill="none" xmlns="http://www.w3.org/2000/svg">
<g opacity="0.2">
<path d="M41.3844 145.977C22.2202 145.977 6.68457 143.795 6.68457 141.105C6.68457 139.589 11.6186 138.234 19.355 137.341C20.0658 137.959 20.8298 138.512 21.6294 139.007C21.631 139.008 21.6326 139.009 21.6338 139.01C21.6358 139.011 21.6382 139.012 21.6402 139.014C21.7578 139.087 21.8766 139.158 21.9958 139.229C21.997 139.229 21.9986 139.23 21.9998 139.231C22.0034 139.233 22.007 139.235 22.0106 139.237C22.801 139.703 23.6226 140.114 24.4566 140.477C26.5146 141.371 28.6518 141.97 30.605 142.367C30.6058 142.367 30.6062 142.367 30.607 142.367C30.613 142.368 30.619 142.369 30.625 142.371C30.6262 142.371 30.6267 142.371 30.6274 142.371C30.6334 142.372 30.6386 142.373 30.6442 142.375C30.6462 142.375 30.6474 142.375 30.649 142.375C30.6542 142.377 30.659 142.377 30.6638 142.379C30.6663 142.379 30.6682 142.379 30.6703 142.38C30.6746 142.381 30.6786 142.381 30.683 142.382C30.6858 142.383 30.6882 142.383 30.6915 142.384C30.6955 142.385 30.6986 142.385 30.7026 142.386C30.7059 142.387 30.7086 142.387 30.7118 142.388C30.715 142.389 30.7186 142.389 30.7222 142.39C30.7254 142.391 30.729 142.391 30.7322 142.392C30.7354 142.393 30.7386 142.393 30.7418 142.394C30.7458 142.395 30.7494 142.395 30.753 142.396C30.7554 142.397 30.7582 142.397 30.7606 142.398C30.7646 142.399 30.7698 142.4 30.7742 142.401C30.7762 142.401 30.7782 142.401 30.7802 142.402C30.7846 142.403 30.7894 142.403 30.7942 142.405C30.7958 142.405 30.7978 142.405 30.7994 142.405C30.8046 142.407 30.8094 142.407 30.8146 142.409C30.8158 142.409 30.8178 142.409 30.819 142.409C30.8246 142.41 30.8298 142.411 30.835 142.413C30.8358 142.413 30.837 142.413 30.8378 142.413C30.8442 142.414 30.8498 142.415 30.8562 142.417C31.7398 142.59 32.583 142.721 33.3608 142.82C33.3615 142.82 33.3636 142.82 33.3643 142.821C33.3692 142.821 33.3742 142.822 33.3791 142.822C33.3805 142.822 33.3805 142.823 33.3812 142.823C33.3861 142.823 33.391 142.824 33.3952 142.824C33.3966 142.825 33.398 142.825 33.3994 142.825C33.4037 142.825 33.4086 142.826 33.4128 142.827C33.4142 142.827 33.4156 142.827 33.4163 142.827C33.4205 142.827 33.424 142.828 33.4275 142.828C33.4303 142.829 33.4324 142.829 33.4352 142.829C33.4373 142.83 33.4409 142.83 33.4437 142.83C33.4465 142.831 33.4493 142.831 33.4521 142.831C33.4556 142.832 33.4577 142.832 33.4605 142.833C33.464 142.833 33.4668 142.833 33.4703 142.834C33.4724 142.834 33.4753 142.834 33.4774 142.835C33.4809 142.835 33.4844 142.835 33.4872 142.836C33.49 142.836 33.4921 142.836 33.4942 142.837C33.4977 142.837 33.5019 142.837 33.5054 142.838C33.5075 142.838 33.5097 142.839 33.5111 142.839C33.5153 142.839 33.5188 142.84 33.5223 142.84C33.5244 142.84 33.5265 142.841 33.5286 142.841C33.5328 142.841 33.5363 142.842 33.5405 142.842C33.5419 142.843 33.5441 142.843 33.5462 142.843C33.5497 142.843 33.5532 142.844 33.5574 142.845C33.5588 142.845 33.5609 142.845 33.5623 142.845C33.5665 142.845 33.5714 142.846 33.5756 142.847C33.5763 142.847 33.5771 142.847 33.5785 142.847C33.5834 142.847 33.5876 142.848 33.5925 142.849C33.5939 142.849 33.5953 142.849 33.5967 142.849C33.6009 142.85 33.6051 142.85 33.61 142.851C33.6108 142.851 33.6122 142.851 33.6136 142.851C33.6185 142.852 33.622 142.852 33.6269 142.853C33.6283 142.853 33.6297 142.853 33.6304 142.853C33.6353 142.854 33.6402 142.854 33.6452 142.855C33.6459 142.855 33.6459 142.855 33.6466 142.855C33.6515 142.856 33.6571 142.857 33.662 142.857C33.6627 142.857 33.6634 142.857 33.6641 142.857C33.669 142.858 33.6739 142.859 33.6796 142.859L33.681 142.859C33.6866 142.86 33.6908 142.861 33.6964 142.861C33.6971 142.861 33.6985 142.861 33.6992 142.861C33.7097 142.863 33.721 142.864 33.7315 142.865V142.865C33.7427 142.867 33.754 142.868 33.7652 142.869L33.7659 142.869C34.025 142.899 34.2756 142.926 34.5171 142.949C34.5192 142.949 34.5206 142.949 34.5227 142.949C34.5234 142.949 34.5241 142.949 34.5241 142.949C34.5248 142.949 34.5255 142.949 34.5262 142.949C34.5276 142.95 34.5283 142.95 34.5304 142.95C34.5332 142.95 34.536 142.951 34.5388 142.951C34.541 142.951 34.5417 142.951 34.5438 142.951C34.5487 142.952 34.5536 142.952 34.5585 142.953C35.641 143.055 36.534 143.089 37.1476 143.089C37.7675 143.089 38.7729 143.077 39.9228 142.964C41.7116 143.515 43.7314 143.706 45.6711 143.706C47.1896 143.705 48.6597 143.589 49.9311 143.437C55.0812 142.755 60.3781 141.289 64.4331 137.864C64.5672 137.75 64.6999 137.633 64.8305 137.514C71.747 138.404 76.0835 139.683 76.0835 141.105C76.0835 143.795 60.548 145.977 41.3844 145.977Z" fill="#1E1E1E"/>
</g>
<path d="M14.1749 103.492C16.0089 106.277 15.7133 108.566 15.0681 109.796C14.5573 110.77 13.8197 111.609 12.3933 111.908C10.8897 112.224 8.29566 111.771 6.21646 109.858C5.36846 109.078 4.35246 108.008 2.61286 107.66C2.56646 107.262 2.90246 106.92 3.42286 106.632C2.83126 105.894 2.05207 105.11 0.625305 104.179C0.610705 104.17 3.21846 100.324 10.3345 101.142C10.5557 100.145 11.3001 99.7849 12.1541 99.9705C11.9993 101.777 12.9449 101.624 14.1749 103.492Z" fill="#C4612B"/>
<path d="M12.3928 111.908C10.89 112.224 8.29525 111.772 6.21725 109.859C5.37085 109.082 4.35965 108.015 2.62965 107.664C2.62405 107.661 2.61685 107.66 2.61205 107.659C2.60565 107.599 2.60645 107.54 2.61685 107.482C2.64485 107.328 2.73005 107.183 2.85805 107.046C2.99925 106.898 3.19405 106.76 3.42285 106.632C2.83045 105.894 2.05165 105.11 0.625488 104.18C0.626328 104.175 0.679409 104.092 0.790969 103.959C0.808649 103.936 0.830008 103.913 0.853328 103.886C0.929608 103.798 1.02701 103.694 1.14413 103.578C1.16797 103.555 1.19221 103.53 1.21885 103.505C1.27493 103.454 1.33281 103.399 1.39737 103.341C1.42541 103.316 1.45581 103.29 1.48625 103.265C1.69005 103.09 1.93205 102.903 2.21525 102.713C3.69165 101.722 6.28285 100.678 10.3348 101.142C10.5564 100.145 11.3 99.7852 12.1544 99.97C11.9988 101.777 12.944 101.624 14.1752 103.492C15.692 105.799 15.752 107.763 15.3604 109.068L15.3608 109.072C15.28 109.343 15.1796 109.586 15.0676 109.798C14.556 110.771 13.82 111.61 12.3928 111.908Z" fill="#C4612B"/>
<path d="M12.3928 111.908C10.89 112.224 8.29525 111.772 6.21725 109.859C5.37085 109.082 4.35965 108.015 2.62965 107.664C2.62405 107.661 2.61685 107.66 2.61205 107.659C2.60565 107.599 2.60645 107.54 2.61685 107.482C2.64485 107.328 2.73005 107.183 2.85805 107.046C2.99925 106.898 3.19405 106.76 3.42285 106.632C2.83045 105.894 2.05165 105.11 0.625488 104.18C0.626328 104.175 0.679409 104.092 0.790969 103.959C0.808649 103.936 0.830008 103.913 0.853328 103.886C0.929608 103.798 1.02701 103.694 1.14413 103.578C1.16797 103.555 1.19221 103.53 1.21885 103.505C1.27493 103.454 1.33281 103.399 1.39737 103.341C1.42541 103.316 1.45581 103.29 1.48625 103.265C1.69005 103.09 1.93205 102.903 2.21525 102.713C3.69165 101.722 6.28285 100.678 10.3348 101.142C10.3412 101.113 10.3476 101.086 10.3552 101.057C10.4484 100.696 10.6156 100.426 10.8324 100.239C10.8484 100.226 10.8628 100.214 10.8788 100.201C11.1984 99.9516 11.6148 99.8752 12.0676 99.9532C12.0964 99.9584 12.1248 99.9636 12.1544 99.97C11.9988 101.777 12.944 101.624 14.1752 103.492C15.692 105.799 15.752 107.763 15.3604 109.068L15.3608 109.072C15.28 109.343 15.1796 109.586 15.0676 109.798C14.9456 110.03 14.81 110.256 14.6548 110.468C14.164 111.141 13.4768 111.681 12.3928 111.908Z" fill="#915320"/>
<path d="M12.3928 111.908C10.89 112.224 8.29524 111.772 6.21725 109.859C5.37085 109.082 4.35965 108.015 2.62965 107.664C2.62405 107.661 2.61685 107.66 2.61205 107.659C2.60565 107.599 2.60645 107.54 2.61685 107.482C2.64485 107.328 2.72885 107.181 2.85805 107.046C2.99925 106.898 3.19405 106.76 3.42285 106.632C2.83045 105.894 2.05165 105.11 0.625488 104.18C0.626328 104.175 0.679409 104.092 0.790969 103.959C0.808649 103.936 0.830008 103.913 0.853328 103.886C0.929608 103.798 1.02701 103.694 1.14413 103.578C1.16797 103.555 1.19221 103.53 1.21885 103.505C1.27493 103.454 1.33281 103.399 1.39737 103.341C1.42541 103.316 1.45581 103.29 1.48625 103.265C1.69005 103.09 1.93205 102.903 2.21525 102.713C1.76605 103.406 1.90605 103.908 2.64445 104.26C4.12125 104.962 5.57645 105.178 6.76524 106.276C5.71644 106.841 7.33845 108.46 7.97045 108.657C10.4464 109.428 11.5284 107.633 13.1428 107.41C14.8296 107.178 15.36 109.07 15.3608 109.072C15.28 109.343 15.1796 109.586 15.0676 109.798C14.556 110.771 13.82 111.61 12.3928 111.908Z" fill="#7A431A"/>
<path d="M3.55156 107.279C4.85116 107.739 5.73636 108.566 6.41316 109.197C6.48876 109.268 6.56316 109.337 6.63596 109.405C8.50916 111.127 10.8668 111.598 12.2664 111.304C13.3 111.087 13.9736 110.551 14.5192 109.511C14.818 108.941 15.6396 106.846 13.6572 103.835C13.2472 103.212 12.8776 102.839 12.552 102.51C12.0424 101.995 11.5908 101.539 11.5264 100.567C11.2256 100.639 11.0288 100.876 10.9396 101.279C10.8712 101.589 10.5796 101.796 10.2636 101.76C5.11636 101.167 2.47396 103.143 1.54728 104.059C2.78356 104.939 3.45276 105.681 3.90636 106.246C4.02036 106.388 4.06596 106.574 4.03076 106.753C3.99556 106.932 3.88316 107.087 3.72356 107.175C3.65836 107.212 3.60116 107.247 3.55156 107.279ZM11.4128 112.625C9.72836 112.625 7.58196 111.959 5.79676 110.317C5.72196 110.248 5.64515 110.176 5.56715 110.103C4.78875 109.377 3.90636 108.553 2.49156 108.27C2.22796 108.217 2.02835 108.001 1.99715 107.734C1.94515 107.287 2.11756 106.881 2.51036 106.521C2.03916 106.009 1.37364 105.409 0.286717 104.701C0.0457171 104.544 -0.0554832 104.241 0.0423968 103.97C0.121677 103.751 0.914035 102.691 2.53915 101.792C3.95355 101.009 6.36036 100.167 9.90756 100.478C10.3264 99.5754 11.2268 99.137 12.2856 99.367C12.59 99.4334 12.798 99.7154 12.7716 100.025C12.6968 100.895 12.8824 101.082 13.4328 101.638C13.7812 101.989 14.2148 102.427 14.6928 103.153C17.0476 106.73 15.9956 109.364 15.6172 110.087C15.1664 110.946 14.3548 112.133 12.5204 112.517C12.1848 112.587 11.8116 112.625 11.4128 112.625Z" fill="#1E1E1E"/>
<path d="M10.9541 101.126C10.8001 101.929 10.6249 102.763 10.6993 103.586C10.2189 102.851 9.9701 101.994 9.7105 101.159C9.6149 100.818 9.8137 100.464 10.1549 100.368C10.6093 100.228 11.0681 100.67 10.9541 101.126Z" fill="#1E1E1E"/>
<path d="M3.212 106.051C4.3472 105.898 5.562 105.793 6.6304 106.257C5.5628 106.211 4.5376 106.712 3.6332 107.217C2.7332 107.691 2.2164 106.262 3.212 106.051Z" fill="#1E1E1E"/>
<path d="M12.8677 109.743C13.7373 111.888 12.4997 113.893 12.0265 116.673C11.9121 117.345 11.8417 118.062 11.8581 118.837C12.0153 126.812 21.3045 127.977 21.3045 127.977L22.5049 122.803C19.6237 123.375 17.7529 122.74 16.6529 121.389C15.1945 119.597 15.0853 116.547 15.7629 113.377C16.3109 110.817 15.3889 109.406 14.2521 108.629C13.4889 108.11 12.5201 108.887 12.8677 109.743Z" fill="#FECF1F"/>
<path d="M14.1536 109.328C13.8916 109.314 13.6488 109.299 13.4316 109.285C13.4548 109.224 13.4972 109.18 13.5308 109.153C13.5644 109.126 13.6336 109.081 13.724 109.081C13.7772 109.081 13.838 109.097 13.9028 109.141C13.9904 109.201 14.074 109.263 14.1536 109.328Z" fill="#FEE279"/>
<path d="M12.0265 116.673C11.9121 117.345 11.8417 118.062 11.8581 118.837C12.0153 126.812 21.3045 127.977 21.3045 127.977L22.5049 122.803C19.6237 123.375 17.7529 122.74 16.6529 121.389C14.9489 121.27 12.1997 120.482 12.0265 116.673Z" fill="#FCA822"/>
<path d="M21.3045 128.602C21.2785 128.602 21.2525 128.6 21.2265 128.597C21.1269 128.584 18.7589 128.275 16.3409 126.946C13.0713 125.147 11.3073 122.349 11.2385 118.854C11.2021 116.982 11.6325 115.448 12.0125 114.096C12.4577 112.51 12.8097 111.257 12.2925 109.98C12.0301 109.333 12.2105 108.632 12.7525 108.195C13.2877 107.763 14.0305 107.735 14.6009 108.123C15.7637 108.916 17.0141 110.494 16.3697 113.513C15.6185 117.033 15.9805 119.856 17.3629 121.259C18.4233 122.334 20.1121 122.651 22.3837 122.2C22.7209 122.134 23.0457 122.352 23.1121 122.688C23.1789 123.023 22.9605 123.35 22.6249 123.416C19.9189 123.953 17.8517 123.52 16.4801 122.129C14.7749 120.399 14.3053 117.247 15.1573 113.254C15.5597 111.37 15.1373 109.989 13.9029 109.147C13.7281 109.029 13.5845 109.116 13.5309 109.16C13.4653 109.213 13.3661 109.33 13.4413 109.515C14.1177 111.184 13.6749 112.761 13.2061 114.43C12.8317 115.763 12.4449 117.14 12.4781 118.83C12.6217 126.166 21.0237 127.321 21.3813 127.367C21.7205 127.41 21.9613 127.72 21.9185 128.06C21.8785 128.372 21.6121 128.602 21.3045 128.602Z" fill="#1E1E1E"/>
<path d="M13.1551 106.25C12.8511 106.25 12.5239 106.025 12.4343 105.697C12.1863 104.788 12.2107 103.2 12.3967 103.2C12.3987 103.2 12.4007 103.201 12.4027 103.201C12.7967 103.272 13.9615 104.948 13.6871 105.827C13.5939 106.126 13.3807 106.25 13.1551 106.25Z" fill="#BD9879"/>
<path d="M8.05857 103.43C6.75417 103.43 3.89257 103.177 3.98177 103.04C4.23977 102.643 6.51137 102.085 7.98777 102.085C8.39937 102.085 8.74897 102.128 8.97617 102.23C9.64577 102.532 9.48977 103.23 8.59858 103.4C8.49297 103.421 8.30337 103.43 8.05857 103.43Z" fill="#BD9879"/>
<path d="M55.0734 101.485C53.386 101.998 51.4832 102.415 49.4187 102.719L48.637 97.9345C50.4848 97.9345 52.0844 98.7329 53.4863 99.9119L53.4892 99.917C54.0486 100.388 54.5765 100.919 55.0734 101.485Z" fill="#535360"/>
<path d="M54.0856 100.465C52.6514 100.948 51.0182 101.348 49.241 101.648L48.6365 97.9465C50.484 97.9465 52.0838 98.745 53.4856 99.9239L53.489 99.9285C53.692 100.099 53.8905 100.279 54.0856 100.465Z" fill="#93B3C1"/>
<path d="M31.0455 119.456C24.3238 125.357 12.2471 122.898 12.2471 122.898V109.824C12.2471 109.824 19.2147 110.439 21.7559 109.619C24.4862 108.727 25.0869 98.745 34.5613 98.745L31.0455 119.456Z" fill="#777782"/>
<path d="M34.5606 98.7453L31.0462 119.456C24.3242 125.357 12.2471 122.898 12.2471 122.898V109.825C12.2471 109.825 19.2151 110.44 21.7549 109.62C23.5602 109.03 24.436 104.465 27.5608 101.441V101.439C27.7348 101.271 27.9142 101.108 28.1034 100.95C29.6251 99.6748 31.6366 98.7731 34.43 98.7467C34.4739 98.7453 34.5172 98.7453 34.5606 98.7453Z" fill="#777782"/>
<path d="M34.5606 98.7453L33.8754 102.783L31.0462 119.456C24.3242 125.357 12.2471 122.898 12.2471 122.898V109.825C12.2471 109.825 19.2151 110.44 21.7549 109.62C23.5602 109.03 24.436 104.465 27.5608 101.441V101.439C27.7286 101.277 27.9017 101.119 28.0851 100.966C28.0909 100.961 28.0976 100.955 28.1034 100.95C29.6251 99.6748 31.6366 98.7731 34.43 98.7467C34.4739 98.7453 34.5172 98.7453 34.5606 98.7453Z" fill="#FECF1F"/>
<path d="M34.5606 98.7454L33.8758 102.783L31.0462 119.456C24.3246 125.357 12.2471 122.898 12.2471 122.898V109.825C12.2471 109.825 13.4525 109.931 15.0427 109.996C16.3493 110.049 17.9139 110.076 19.2853 109.993C20.2613 109.935 21.1385 109.82 21.7553 109.62C22.2496 109.459 22.6741 109 23.0928 108.356C23.7932 107.283 24.4794 105.701 25.4527 104.13C26.0324 103.194 26.7136 102.261 27.5613 101.441V101.44C27.7286 101.277 27.9021 101.119 28.0851 100.966C28.0913 100.961 28.0976 100.955 28.1039 100.95C29.6256 99.6749 31.6366 98.7731 34.4305 98.7467C34.4739 98.7454 34.5172 98.7454 34.5606 98.7454Z" fill="#FECF1F"/>
<path d="M17.0488 115.542C17.0152 115.957 17.6908 117.898 17.9404 117.918C18.19 117.939 20.2648 118.125 20.536 117.97C20.8072 117.815 21.7884 115.989 21.5688 115.504C21.4 115.13 19.8884 114.085 19.4992 113.956C19.1104 113.826 17.0828 115.128 17.0488 115.542Z" fill="#D3691A"/>
<path d="M22.8177 112.087C22.7709 112.662 23.663 115.486 24.0099 115.515C24.3563 115.544 27.2358 115.802 27.6121 115.587C27.9887 115.372 29.195 112.652 29.0462 112.164C28.8797 111.618 26.572 110.183 26.032 110.004C25.4921 109.825 22.8641 111.512 22.8177 112.087Z" fill="#D3691A"/>
<path d="M25.1072 108.319C24.9056 108.433 23.9464 108.405 23.0928 108.354C23.7932 107.282 24.4796 105.7 25.4528 104.129C25.9656 104.494 26.3964 104.863 26.4628 105.083C26.6024 105.545 25.4636 108.114 25.1072 108.319Z" fill="#D3691A"/>
<path d="M25.9808 104.531C25.97 104.522 25.9592 104.513 25.948 104.504C25.9484 104.504 25.9488 104.503 25.9488 104.502C25.96 104.512 25.9708 104.52 25.9816 104.53C25.9812 104.53 25.9812 104.53 25.9808 104.531Z" fill="#FFFEF9"/>
<path d="M19.4096 111.074C19.298 111.415 17.4244 112.467 17.1128 112.469C16.6544 112.469 15.2224 111.113 15.0304 110.952C14.9528 110.887 14.9732 110.479 15.0428 109.994C16.3492 110.047 17.914 110.073 19.2856 109.991C19.3972 110.476 19.462 110.913 19.4096 111.074Z" fill="#D3691A"/>
<path d="M21.8097 123.184C19.2253 123.508 16.7801 123.425 15.0105 123.267C15.2937 122.692 15.6889 121.957 15.9385 121.741C16.2749 121.451 18.1529 120.34 18.9741 120.34C19.7861 120.34 21.7169 122.606 21.8097 123.184Z" fill="#B25414"/>
<path d="M18.1261 124.047C14.8321 124.047 12.3488 123.558 12.1237 123.512C11.8354 123.453 11.6279 123.2 11.6279 122.905V109.831C11.6279 109.657 11.7006 109.491 11.8291 109.374C11.9572 109.256 12.1287 109.199 12.3023 109.213C12.37 109.219 19.1726 109.808 21.5657 109.036C22.2203 108.822 22.8884 107.546 23.5966 106.195C25.2788 102.985 27.8221 98.1321 34.5611 98.1321C34.9035 98.1321 35.181 98.4091 35.181 98.7515C35.181 99.0939 34.9035 99.3713 34.5611 99.3713C28.5718 99.3713 26.3308 103.648 24.6942 106.771C23.7947 108.488 23.0842 109.844 21.9487 110.215C19.7681 110.918 14.7072 110.634 12.8676 110.501V122.384C15.1768 122.753 24.9824 123.961 30.6365 118.996C30.8937 118.77 31.2852 118.796 31.5112 119.053C31.7372 119.31 31.712 119.702 31.4544 119.928C27.6349 123.282 22.2465 124.047 18.1261 124.047Z" fill="#1E1E1E"/>
<path d="M16.4165 118.526C16.2201 120.007 15.0821 121.161 13.0921 122.153C11.5345 122.928 10.4805 124.304 9.17886 125.268C8.79526 125.553 8.39006 125.8 7.94446 125.988C6.76046 126.484 4.63606 126.84 4.08206 125.315C3.56566 123.897 4.74766 123.153 5.63126 122.507C6.14766 122.13 6.56206 121.786 6.47366 121.363C6.04246 121.591 5.62606 121.772 5.22926 121.91C4.75566 122.074 4.30806 122.178 3.89166 122.228H3.89006H3.88846C1.92606 122.466 0.657178 121.528 0.626058 120.24C0.580138 118.307 2.48686 118.068 4.00806 117.922C4.46206 117.877 4.88206 117.843 5.20486 117.774H5.20646C5.40646 117.732 5.56886 117.676 5.68046 117.596C5.33286 117.54 5.01286 117.469 4.71806 117.382H4.71646C2.27366 116.674 1.59822 114.972 1.97526 113.171C2.33926 111.441 3.80486 110.594 5.02926 110.634C5.60806 110.654 6.13286 110.872 6.46046 111.294L6.46406 111.3C6.47366 111.313 6.48206 111.326 6.49166 111.34C6.49846 111.348 6.50326 111.354 6.50486 111.356V111.358C6.55086 111.422 6.59326 111.489 6.62966 111.561C7.19686 112.708 6.16566 113.369 6.78046 114.035C7.16406 114.451 8.29526 114.304 8.90006 113.908C9.82486 113.305 10.2049 112.141 9.65086 111.667C9.32966 111.394 8.89766 111.489 8.42406 111.585C7.91446 111.688 7.35686 111.792 6.83926 111.433C6.83126 111.428 6.82286 111.422 6.81486 111.415C6.77366 111.384 6.73446 111.353 6.69526 111.32C6.68206 111.31 6.66886 111.3 6.65726 111.287C6.25086 110.908 6.01486 110.1 6.24406 109.289C6.49486 108.4 7.30486 107.508 9.06246 107.172C11.1001 106.782 12.2725 107.994 13.0805 109.289H13.0821C13.6821 110.248 14.0837 111.253 14.4937 111.686C14.4937 111.686 15.3061 112.936 15.2869 114.563C16.1197 115.351 16.3873 117.336 16.3873 117.336C16.4593 117.756 16.4693 118.153 16.4165 118.526Z" fill="#915320"/>
<path d="M6.50557 111.359C6.50517 111.359 6.50517 111.359 6.50477 111.359V111.357C6.50637 111.358 6.50637 111.359 6.50557 111.359ZM6.49157 111.341C6.49077 111.339 6.48957 111.338 6.48877 111.337C6.48997 111.338 6.49077 111.339 6.49157 111.341Z" fill="#FFF4FF"/>
<path d="M6.84102 111.445C6.83302 111.439 6.82302 111.432 6.81502 111.424C6.82302 111.431 6.83142 111.437 6.83942 111.442L6.84102 111.445Z" fill="#FFF4FF"/>
<path d="M16.4165 118.533C16.2201 120.013 15.0821 121.167 13.0921 122.159C11.5345 122.934 10.4805 124.31 9.17886 125.273C9.16726 124.575 9.04606 123.651 8.53766 123.142C7.73286 122.336 6.46246 122.4 5.63126 122.513C6.14766 122.136 6.56246 121.791 6.47366 121.369C6.04246 121.597 5.62606 121.778 5.22926 121.916C5.45406 121.339 5.56406 120.503 5.29846 119.685C5.08046 119.018 4.42926 118.326 4.00806 117.927C4.74406 117.857 5.39006 117.809 5.68046 117.601C5.33286 117.545 5.01286 117.475 4.71806 117.388C5.35406 117.165 5.96566 116.448 5.93846 115.642C5.91126 114.835 5.34086 114.044 5.61126 113.291C5.93766 112.388 6.01646 111.829 5.02926 110.64C5.72126 110.663 6.33446 110.971 6.62966 111.567C7.19686 112.714 6.16566 113.375 6.78046 114.041C7.16406 114.457 8.29526 114.309 8.90006 113.914C9.82486 113.311 10.2049 112.147 9.65086 111.673C8.94286 111.07 7.69686 112.262 6.65726 111.293C6.25086 110.914 6.01486 110.106 6.24406 109.295C6.28366 109.36 6.31806 109.439 6.34926 109.529C7.02966 111.55 8.78046 109.701 10.1065 110.542C11.4797 111.413 10.1681 115.041 12.5041 114.938C11.6025 116.086 9.32726 114.309 7.81166 115.512C6.07086 116.893 6.64606 119.598 7.77046 120.873C9.49206 122.828 10.8313 121.406 13.3725 120.777C15.0069 120.37 15.9513 119.267 16.4165 118.533Z" fill="#7A431A"/>
<path d="M14.4934 111.684C13.8842 111.195 13.4982 110.464 13.029 109.86C11.9758 108.361 10.7138 107.295 8.81019 107.919C7.94699 108.147 7.0302 108.729 6.8618 109.607C6.7698 110.082 6.8278 110.678 7.2686 110.947C7.5722 111.144 8.12139 110.999 8.53699 110.922C8.87459 110.855 9.4026 110.809 9.7818 111.015C11.3562 111.937 10.1734 114.111 8.85139 114.633C8.05779 114.939 7.029 115.128 6.323 114.452C6.0454 114.176 5.903 113.69 5.973 113.316C6.051 112.783 6.33899 112.326 6.07619 111.841C5.64059 111.044 4.4978 111.152 3.763 111.594C2.9266 112.074 2.50739 113.057 2.49939 114.006C2.41419 115.868 4.131 116.756 5.7906 116.986C6.1258 117.038 6.35459 117.353 6.30139 117.688C6.17019 118.291 5.42179 118.36 4.96739 118.443C3.82539 118.631 2.2582 118.494 1.47296 119.375C1.253 119.663 1.20299 120.111 1.27539 120.47C1.46591 121.318 2.44299 121.653 3.28219 121.644C4.25779 121.648 5.27179 121.296 6.19819 120.807C6.55219 120.614 7.0126 120.839 7.0806 121.235C7.193 121.656 6.98579 122.14 6.72619 122.42C6.09739 123.19 4.859 123.602 4.6838 124.556C4.6526 125.146 5.02019 125.607 5.63739 125.646C6.80459 125.756 8.0078 125.264 8.9306 124.533C9.611 124.016 10.2562 123.356 11.005 122.743C11.721 122.118 12.6098 121.653 13.465 121.237C15.0766 120.381 16.3074 119.255 16.3874 117.336C17.0622 118.752 16.4246 120.454 15.287 121.437C14.5898 122.111 13.7286 122.519 12.9178 123.011C11.7734 123.776 10.9698 124.774 9.8386 125.688C8.6234 126.684 7.0506 127.302 5.441 127.127C4.069 126.994 3.0774 125.769 3.2478 124.389C3.3198 123.753 3.70779 123.185 4.14739 122.785C4.71699 122.238 5.3806 121.969 5.855 121.459C5.863 121.448 5.85779 121.484 5.86739 121.49L6.76419 121.91C5.71779 122.455 4.5542 122.882 3.2778 122.884C1.9486 122.916 0.365914 122.208 0.064394 120.734C-0.266926 119.14 0.713796 117.916 2.2358 117.572C3.1174 117.34 3.94659 117.325 4.79739 117.215C4.94419 117.198 5.2398 117.141 5.3198 117.092L5.58339 118.208C3.91659 117.978 1.99659 117.089 1.45307 115.328C0.909194 113.594 1.5088 111.48 3.125 110.531C4.9318 109.389 7.67299 110.181 7.39819 112.646C7.36459 112.948 7.1914 113.359 7.1998 113.559C7.1994 113.562 7.2154 113.592 7.2278 113.603C7.4754 113.739 8.0462 113.632 8.35899 113.495C8.79299 113.327 9.28939 112.735 9.28819 112.287C9.27899 112.167 9.27819 112.159 9.22819 112.127C9.10619 112.092 8.97739 112.12 8.76819 112.157C8.35619 112.242 7.91499 112.351 7.44619 112.308C6.00019 112.206 5.2642 110.644 5.537 109.346C5.9714 106.998 9.06699 105.922 11.1214 106.728C12.3462 107.224 13.1158 108.373 13.615 109.525C13.945 110.241 14.1162 110.997 14.4934 111.684Z" fill="#1E1E1E"/>
<path d="M6.54101 115.991C6.12901 118.167 6.27261 120.094 7.91021 121.703C8.35701 122.234 9.05861 122.593 7.86781 122.179C5.35381 121.182 4.75781 117.937 6.54101 115.991Z" fill="#1E1E1E"/>
<path d="M52.2972 119.456C59.0189 125.357 71.0955 122.898 71.0955 122.898V109.824C71.0955 109.824 64.1279 110.439 61.5872 109.619C58.8565 108.727 58.2555 98.7453 48.7815 98.7453L52.2972 119.456Z" fill="#777782"/>
<path d="M48.7815 98.7452L52.2965 119.456C59.0183 125.357 71.0955 122.898 71.0955 122.898V109.824C71.0955 109.824 64.1273 110.44 61.5872 109.62C59.7824 109.03 58.9068 104.464 55.7813 101.441V101.44C55.608 101.271 55.4281 101.108 55.2387 100.95C53.7173 99.6748 51.7056 98.7728 48.9124 98.7468C48.8688 98.7452 48.8251 98.7452 48.7815 98.7452Z" fill="#777782"/>
<path d="M48.7815 98.7452L49.467 102.783L52.2965 119.456C59.0183 125.357 71.0955 122.898 71.0955 122.898V109.824C71.0955 109.824 64.1273 110.44 61.5872 109.62C59.7824 109.03 58.9068 104.464 55.7813 101.441V101.44C55.6141 101.277 55.4402 101.119 55.2575 100.966C55.2515 100.961 55.2448 100.955 55.2387 100.95C53.7173 99.6748 51.7056 98.7728 48.9124 98.7468C48.8688 98.7452 48.8251 98.7452 48.7815 98.7452Z" fill="#FECF1F"/>
<path d="M48.7817 98.7452L49.4666 102.783L52.296 119.456C59.0178 125.357 71.0949 122.898 71.0949 122.898V109.824C71.0949 109.824 69.8897 109.931 68.2997 109.996C66.9931 110.049 65.4286 110.076 64.0569 109.993C63.0806 109.934 62.2037 109.82 61.5867 109.62C61.0932 109.459 60.6682 109 60.2499 108.356C59.5496 107.283 58.8627 105.701 57.8898 104.13C57.3103 103.194 56.6288 102.261 55.7808 101.441V101.44C55.6136 101.277 55.4404 101.119 55.2571 100.966C55.251 100.961 55.2443 100.955 55.2383 100.95C53.7168 99.6748 51.7058 98.7732 48.912 98.7468C48.8684 98.7452 48.8247 98.7452 48.7817 98.7452Z" fill="#FECF1F"/>
<path d="M66.2941 115.542C66.3275 115.957 65.6519 117.898 65.4021 117.918C65.1523 117.939 63.078 118.125 62.8064 117.97C62.5354 117.815 61.5541 115.989 61.7737 115.504C61.9426 115.13 63.4543 114.085 63.8435 113.956C64.232 113.826 66.26 115.128 66.2941 115.542Z" fill="#D3691A"/>
<path d="M60.5249 112.087C60.5717 112.662 59.6795 115.486 59.333 115.515C58.9865 115.544 56.1069 115.802 55.7306 115.587C55.3543 115.372 54.1479 112.652 54.2966 112.164C54.4628 111.618 56.7708 110.183 57.3103 110.004C57.8504 109.825 60.4782 111.512 60.5249 112.087Z" fill="#D3691A"/>
<path d="M58.2353 108.318C58.4368 108.433 59.3961 108.405 60.2496 108.354C59.5492 107.282 58.8626 105.7 57.8899 104.129C57.377 104.494 56.9463 104.863 56.8791 105.083C56.74 105.545 57.879 108.114 58.2353 108.318Z" fill="#D3691A"/>
<path d="M57.3615 104.531C57.3609 104.53 57.3609 104.53 57.3604 104.53C57.3715 104.52 57.3821 104.512 57.3932 104.503C57.3932 104.503 57.3932 104.503 57.3938 104.504C57.3833 104.513 57.3721 104.522 57.3615 104.531Z" fill="#FFFEF9"/>
<path d="M63.933 111.074C64.045 111.415 65.9185 112.467 66.2295 112.469C66.6886 112.469 68.12 111.113 68.3126 110.952C68.3898 110.887 68.3695 110.479 68.3001 109.994C66.9937 110.047 65.4286 110.073 64.0568 109.991C63.9454 110.476 63.8806 110.913 63.933 111.074Z" fill="#D3691A"/>
<path d="M63.9375 110.625C63.9381 110.617 63.9394 110.61 63.94 110.602H63.9406C63.9394 110.61 63.9381 110.617 63.9375 110.625Z" fill="#FFFEF9"/>
<path d="M61.5322 123.184C64.1168 123.508 66.5619 123.425 68.3317 123.267C68.0483 122.693 67.653 121.957 67.4036 121.741C67.0672 121.451 65.1895 120.34 64.3681 120.34C63.5559 120.34 61.6252 122.606 61.5322 123.184Z" fill="#B25414"/>
<path d="M65.2164 124.047C61.0954 124.047 55.7083 123.282 51.8878 119.928C51.6306 119.702 51.6056 119.31 51.8311 119.053C52.0573 118.796 52.4483 118.77 52.7056 118.996C58.3607 123.961 68.1658 122.753 70.4758 122.384V110.501C68.6358 110.634 63.5749 110.918 61.3966 110.216C60.2588 109.844 59.5478 108.488 58.6483 106.771C57.0116 103.648 54.7704 99.3712 48.7811 99.3712C48.4387 99.3712 48.1619 99.0941 48.1619 98.7516C48.1619 98.4092 48.4387 98.132 48.7811 98.132C55.5206 98.132 58.0636 102.984 59.7463 106.195C60.4539 107.546 61.1224 108.822 61.7794 109.036C64.1711 109.808 70.9721 109.219 71.041 109.213C71.2139 109.199 71.3854 109.256 71.5137 109.373C71.642 109.491 71.7149 109.657 71.7149 109.83V122.905C71.7149 123.2 71.5076 123.453 71.2186 123.512C70.9944 123.558 68.5102 124.047 65.2164 124.047Z" fill="#1E1E1E"/>
<path d="M66.926 118.526C67.1229 120.007 68.2604 121.161 70.251 122.153C71.8083 122.928 72.8619 124.304 74.1637 125.268C74.5471 125.553 74.9528 125.8 75.3979 125.988C76.5815 126.484 78.7065 126.84 79.2608 125.315C79.7772 123.897 78.595 123.153 77.7116 122.507C77.1952 122.13 76.7799 121.786 76.869 121.363C77.3 121.591 77.7168 121.772 78.1128 121.91C78.5869 122.074 79.0349 122.178 79.451 122.228H79.4525H79.454C81.4163 122.466 82.6854 121.528 82.7166 120.24C82.7626 118.307 80.856 118.068 79.3343 117.922C78.8804 117.877 78.4606 117.843 78.1381 117.774H78.1359C77.936 117.732 77.774 117.676 77.6626 117.596C78.0095 117.54 78.3298 117.469 78.6248 117.382H78.6263C81.0693 116.674 81.7447 114.972 81.3672 113.171C81.0032 111.441 79.5379 110.594 78.3127 110.634C77.7346 110.654 77.2101 110.872 76.8824 111.294L76.8787 111.3C76.869 111.313 76.8609 111.326 76.8512 111.34C76.8445 111.348 76.8393 111.354 76.8378 111.356V111.358C76.7917 111.422 76.7487 111.489 76.713 111.561C76.1461 112.708 77.1774 113.369 76.5622 114.035C76.1788 114.451 75.0471 114.304 74.4423 113.908C73.518 113.305 73.1376 112.141 73.6919 111.667C74.0129 111.394 74.4453 111.489 74.9186 111.585C75.4283 111.688 75.9856 111.792 76.5035 111.433C76.5116 111.428 76.5198 111.422 76.528 111.415C76.5688 111.384 76.6082 111.353 76.6476 111.32C76.661 111.31 76.6736 111.3 76.6855 111.287C77.0919 110.908 77.3275 110.1 77.0979 109.289C76.8475 108.4 76.0376 107.508 74.2804 107.172C72.2423 106.782 71.0705 107.994 70.2621 109.289H70.2606C69.6603 110.248 69.2591 111.253 68.8489 111.686C68.8489 111.686 68.0361 112.936 68.0561 114.563C67.2232 115.351 66.9557 117.336 66.9557 117.336C66.8836 117.756 66.8732 118.153 66.926 118.526Z" fill="#915320"/>
<path d="M76.5017 111.445L76.5031 111.442C76.5109 111.437 76.5194 111.431 76.5272 111.424C76.5194 111.432 76.5095 111.439 76.5017 111.445Z" fill="#FFF4FF"/>
<path d="M66.9255 118.533C67.1226 120.013 68.2605 121.167 70.2503 122.159C71.8076 122.934 72.8617 124.31 74.1634 125.273C74.175 124.575 74.2963 123.651 74.8045 123.142C75.6096 122.336 76.8795 122.4 77.7113 122.513C77.1943 122.136 76.7799 121.791 76.8687 121.369C77.2997 121.597 77.7163 121.778 78.1127 121.916C77.8881 121.339 77.7784 120.503 78.0441 119.685C78.2621 119.018 78.9134 118.326 79.3343 117.927C78.5986 117.857 77.9524 117.809 77.6622 117.601C78.0094 117.545 78.3293 117.475 78.6246 117.388C77.9885 117.165 77.377 116.448 77.4037 115.642C77.4311 114.835 78.0015 114.044 77.7308 113.291C77.4044 112.388 77.3257 111.829 78.3127 110.64C77.621 110.663 77.008 110.971 76.7128 111.567C76.1453 112.714 77.177 113.375 76.5619 114.041C76.1785 114.457 75.0471 114.309 74.4421 113.914C73.5173 113.311 73.1375 112.147 73.6913 111.673C74.3995 111.07 75.6457 112.262 76.6853 111.293C77.0918 110.914 77.3272 110.106 77.0983 109.295C77.0586 109.36 77.0239 109.439 76.9929 109.529C76.3128 111.55 74.562 109.701 73.2357 110.542C71.8625 111.413 73.1743 115.041 70.838 114.938C71.7397 116.086 74.0154 114.309 75.5309 115.512C77.2716 116.893 76.6962 119.598 75.572 120.873C73.8501 122.828 72.5108 121.406 69.9701 120.777C68.3356 120.37 67.3912 119.267 66.9255 118.533Z" fill="#7A431A"/>
<path d="M68.8489 111.684C69.2267 110.997 69.3973 110.241 69.7273 109.525C70.2271 108.373 70.9962 107.224 72.2211 106.728C74.2741 105.92 77.3725 107 77.8057 109.346C78.078 110.646 77.3425 112.204 75.8963 112.308C75.4279 112.351 74.9864 112.241 74.5742 112.157C74.3647 112.12 74.2367 112.092 74.1148 112.127C74.0661 112.156 74.0624 112.169 74.0542 112.287C74.0534 112.736 74.5495 113.327 74.9834 113.495C75.2954 113.633 75.8678 113.737 76.1147 113.603C76.1275 113.591 76.1439 113.564 76.1432 113.559C76.1506 113.362 75.9786 112.949 75.9441 112.646C75.6688 110.183 78.411 109.387 80.2179 110.531C81.834 111.48 82.4333 113.594 81.8894 115.327C81.3455 117.089 79.4263 117.977 77.7593 118.208L78.0227 117.091C78.0997 117.139 78.3983 117.198 78.5449 117.215C79.3956 117.325 80.2254 117.339 81.1068 117.571C82.6294 117.918 83.6088 119.136 83.2781 120.734C82.9758 122.207 81.3948 122.917 80.0645 122.883C78.7881 122.881 77.6246 122.455 76.5786 121.91L77.475 121.49C77.4847 121.485 77.4795 121.447 77.4877 121.459C77.9621 121.968 78.625 122.238 79.1951 122.785C79.635 123.185 80.0226 123.753 80.0944 124.389C80.2658 125.764 79.2729 126.997 77.9015 127.127C76.2921 127.302 74.7186 126.684 73.5042 125.688C72.3729 124.774 71.5686 123.776 70.4246 123.011C69.6143 122.518 68.7531 122.111 68.0558 121.437C66.9193 120.453 66.2788 118.752 66.9552 117.336C67.0367 119.255 68.2638 120.38 69.8777 121.237C70.7329 121.652 71.6217 122.119 72.337 122.743C73.0867 123.356 73.7317 124.016 74.4118 124.533C75.3344 125.265 76.539 125.757 77.7054 125.646C78.3227 125.602 78.6886 125.156 78.6586 124.556C78.4821 123.601 77.246 123.189 76.616 122.42C76.111 121.926 75.9973 120.663 76.9729 120.748C77.0403 120.76 77.1016 120.783 77.1585 120.815C78.0818 121.299 79.0896 121.647 80.06 121.644C80.8995 121.653 81.8774 121.317 82.0675 120.469C82.1401 120.111 82.0899 119.663 81.8699 119.375C81.3148 118.695 80.1341 118.637 79.2348 118.534C78.5629 118.445 77.9351 118.493 77.3014 118.1C76.8427 117.801 77.0163 117.058 77.5498 116.986C79.2086 116.758 80.9295 115.868 80.8434 114.005C80.8344 113.057 80.4162 112.073 79.5797 111.594C78.8449 111.151 77.7017 111.043 77.2662 111.841C76.925 112.48 77.5273 113.111 77.356 113.814C77.059 115.117 75.4428 115.053 74.4911 114.633C73.169 114.111 71.9861 111.937 73.5611 111.015C73.9397 110.808 74.4679 110.855 74.8054 110.922C75.2206 110.998 75.7706 111.143 76.0743 110.947C76.515 110.676 76.5726 110.083 76.4806 109.606C76.3123 108.729 75.3957 108.147 74.5323 107.919C72.6311 107.296 71.3666 108.359 70.3139 109.86C69.844 110.464 69.4587 111.195 68.8489 111.684Z" fill="#1E1E1E"/>
<path d="M76.8016 115.991C78.585 117.94 77.9882 121.182 75.4744 122.18C74.29 122.591 74.9787 122.239 75.4321 121.703C77.0699 120.095 77.2134 118.165 76.8016 115.991Z" fill="#1E1E1E"/>
<path d="M58.0514 128.386C53.7656 134.499 41.5272 134.006 41.5272 134.006C41.5272 134.006 41.2913 134.015 40.8731 134.015C38.2824 134.015 28.6937 133.65 25.0011 128.386C21.2898 123.092 23.0162 116.721 25.5232 112.097C25.7418 111.696 25.9648 111.308 26.1908 110.935C27.1176 109.407 27.9001 106.385 29.9177 102.663L41.5272 91.6445L53.136 102.663C55.1537 106.385 55.9361 109.407 56.863 110.935C57.0896 111.308 57.3119 111.697 57.5312 112.099C60.0383 116.723 61.7642 123.094 58.0514 128.386Z" fill="white"/>
<path d="M58.1498 128.469C53.8382 134.619 41.5268 134.123 41.5268 134.123C41.5268 134.123 41.2896 134.132 40.8686 134.132C38.2627 134.132 28.6167 133.765 24.9019 128.469C23.019 125.784 22.5283 122.821 22.8255 119.948C23.1203 117.125 24.1776 114.389 25.4272 112.083C25.6468 111.68 25.8718 111.29 26.0993 110.915C27.031 109.377 27.8184 106.338 29.8481 102.593L41.5268 91.5087L53.2049 102.593C55.2345 106.338 56.0219 109.377 56.9542 110.915C57.1817 111.29 57.4061 111.681 57.6257 112.085C58.8747 114.389 59.9314 117.126 60.2256 119.948C60.5252 122.821 60.0339 125.784 58.1498 128.469Z" fill="#FECF1F"/>
<path d="M59.0613 128.529C54.557 134.953 41.6948 134.435 41.6948 134.435C41.6948 134.435 41.4472 134.445 41.0078 134.445C38.285 134.445 28.2075 134.061 24.327 128.529C22.3597 125.723 21.8466 122.627 22.1578 119.626C24.3154 119.883 27.1608 120.676 29.9663 123.11C34.1422 126.734 38.6251 128.633 41.6948 128.633C44.7651 128.633 49.248 126.734 53.4238 123.11C56.2294 120.676 59.073 119.883 61.2308 119.626C61.5433 122.627 61.0304 125.723 59.0613 128.529Z" fill="#FC9E22"/>
<path d="M41.6769 132.781V132.724L41.6676 132.781C29.8955 132.781 27.1702 127.002 27.4908 121.349C28.3072 121.809 29.1393 122.384 29.9668 123.103C34.1417 126.726 38.6257 128.625 41.6954 128.625C44.7652 128.625 49.248 126.726 53.4241 123.103C54.2359 122.398 55.0529 121.83 55.8537 121.375C56.1668 127.018 53.4322 132.781 41.6769 132.781Z" fill="#F9D3B7"/>
<path d="M53.1507 101.739C49.8949 102.872 45.8739 103.539 41.5212 103.539C37.1714 103.539 33.1532 102.873 29.8997 101.742C31.5343 99.4496 37.8753 90.8936 41.5274 90.8936C45.1767 90.8936 51.5144 99.4423 53.1507 101.739Z" fill="#A1ACC6"/>
<path d="M55.0699 28.2769C60.0543 33.0673 68.032 30.4992 68.7868 33.5587C69.3023 35.6509 66.7148 40.0114 61.5986 39.9605C57.1581 39.916 53.7341 36.6537 53.7341 36.6537L55.0699 28.2769Z" fill="#FECF1F"/>
<path d="M68.8306 34.4832L68.829 34.4864C68.5768 36.7208 66.0418 40.0041 61.5988 39.9605C57.4872 39.9185 54.2483 37.1192 53.7901 36.7047C53.7683 36.6845 53.753 36.6691 53.7433 36.6626L53.7368 36.6554L53.7344 36.6529L53.7586 36.4978L54.7469 30.3045L55.0702 28.2769C60.0554 33.0674 68.0322 30.5 68.7869 33.5579C68.8548 33.8335 68.8685 34.147 68.8306 34.4832Z" fill="#FECF1F"/>
<path d="M52.9438 31.419L53.735 36.6529C53.735 36.6529 57.1578 39.9171 61.5989 39.9605C65.5289 40.0007 67.9664 37.4362 68.6511 35.2969C68.655 34.7605 68.5241 34.2943 68.1628 34.0095C67.6564 33.6096 67.3211 34.0718 66.5275 34.5341C65.0571 35.39 62.0146 36.2459 53.4014 31.6265C53.2404 31.5405 53.0882 31.4703 52.9438 31.419Z" fill="#FC9E22"/>
<path d="M61.6841 40.5859C61.6533 40.5859 61.6232 40.5859 61.5931 40.5851C56.9606 40.5396 53.4538 37.2482 53.3068 37.1084C53.059 36.8721 53.0493 36.4797 53.2857 36.232C53.5221 35.9834 53.9144 35.9745 54.1622 36.2108C54.1938 36.2409 57.4715 39.3049 61.6053 39.3464C61.6338 39.3464 61.6622 39.3464 61.6906 39.3464C64.6783 39.3464 66.376 37.7689 67.1258 36.8217C68.0867 35.6073 68.3507 34.3848 68.185 33.7122C67.9543 32.778 66.493 32.5563 64.1276 32.2711C61.1732 31.9162 57.4967 31.4743 54.6406 28.7287C54.3937 28.4915 54.3855 28.0991 54.6227 27.8522C54.8599 27.6053 55.2523 27.5979 55.4992 27.8351C58.0564 30.2932 61.5054 30.7075 64.2762 31.0405C66.7789 31.3419 68.9413 31.6018 69.3881 33.4157C69.6837 34.613 69.189 36.2125 68.0981 37.591C66.5888 39.4974 64.2551 40.5859 61.6841 40.5859Z" fill="#1E1E1E"/>
<path d="M66.6659 34.7334C61.3887 36.2946 58.2086 34.2277 57.6415 33.7283C57.1849 33.3262 55.6828 33.2048 55.5342 34.4876C55.5342 34.4876 56.5618 37.3059 59.2767 37.8395C65.0292 38.9698 66.6659 34.7334 66.6659 34.7334Z" fill="#FF5C64"/>
<path d="M56.177 34.4171C56.4184 34.9553 57.3971 36.837 59.396 37.2299C62.6158 37.8618 64.4023 36.6956 65.3037 35.6973C60.1194 36.662 57.2628 34.2195 57.2315 34.1921C57.1409 34.1125 56.7504 34.0039 56.4457 34.121C56.3418 34.1617 56.2317 34.2296 56.177 34.4171ZM61.1309 38.6484C60.5279 38.6484 59.8717 38.5859 59.157 38.4461C56.1341 37.8525 54.9991 34.8272 54.9522 34.6983C54.9186 34.6077 54.9077 34.5108 54.9186 34.4147C54.9999 33.7164 55.3842 33.2017 56.0021 32.9642C56.7473 32.6775 57.6291 32.89 58.0509 33.261C58.0791 33.2868 60.9841 35.7661 66.4902 34.1374C66.7159 34.0703 66.9612 34.1374 67.1214 34.3109C67.2815 34.485 67.3291 34.7342 67.244 34.9545C67.2276 34.9967 65.7552 38.6484 61.1309 38.6484Z" fill="#1E1E1E"/>
<path d="M28.2732 28.2769C23.2884 33.0673 15.3108 30.4992 14.5569 33.5587C14.0408 35.6509 16.6281 40.0114 21.744 39.9605C26.1852 39.916 29.6089 36.6537 29.6089 36.6537L28.2732 28.2769Z" fill="#FECF1F"/>
<path d="M14.5123 34.4832L14.5135 34.4864C14.7659 36.7208 17.3007 40.0041 21.7435 39.9605C25.8551 39.9185 29.0947 37.1192 29.5527 36.7047C29.5747 36.6845 29.5895 36.6691 29.5991 36.6626L29.6059 36.6554L29.6086 36.6529L29.5838 36.4978L28.5959 30.3045L28.2731 28.2769C23.2875 33.0674 15.3111 30.5 14.5559 33.5579C14.4879 33.8335 14.4743 34.147 14.5123 34.4832Z" fill="#FECF1F"/>
<path d="M30.3997 31.419L29.6085 36.6529C29.6085 36.6529 26.1849 39.9171 21.7441 39.9605C17.8149 40.0007 15.3765 37.4362 14.6917 35.2969C14.6881 34.7605 14.8193 34.2943 15.1805 34.0095C15.6869 33.6096 16.0221 34.0718 16.8161 34.5341C18.2861 35.39 21.3285 36.2459 29.9413 31.6265C30.1029 31.5405 30.2549 31.4703 30.3997 31.419Z" fill="#FC9E22"/>
<path d="M21.6598 40.5859C19.0878 40.5859 16.7542 39.4974 15.2454 37.591C14.1543 36.2125 13.6602 34.6122 13.955 33.4157C14.4023 31.6018 16.5642 31.3419 19.0678 31.0405C21.8382 30.7075 25.2867 30.2932 27.8439 27.8351C28.0907 27.5979 28.4831 27.6053 28.7202 27.8522C28.9578 28.0991 28.9499 28.4915 28.703 28.7287C25.8466 31.4743 22.1699 31.9162 19.2158 32.2711C16.8506 32.5563 15.3891 32.778 15.1586 33.7122C14.9931 34.3848 15.2562 35.6065 16.2179 36.8217C16.9739 37.777 18.6999 39.3813 21.7378 39.3455C25.8719 39.3049 29.1491 36.2409 29.1819 36.21C29.4299 35.9745 29.8219 35.985 30.0579 36.2328C30.2934 36.4805 30.2843 36.8721 30.0363 37.1076C29.8895 37.2482 26.3827 40.5396 21.7506 40.5851C21.7203 40.5859 21.6898 40.5859 21.6598 40.5859Z" fill="#1E1E1E"/>
<path d="M16.6768 34.7334C21.954 36.2946 25.134 34.2277 25.702 33.7283C26.1588 33.3262 27.66 33.2048 27.8088 34.4876C27.8088 34.4876 26.7807 37.3059 24.066 37.8395C18.314 38.9698 16.6768 34.7334 16.6768 34.7334Z" fill="#FF5C64"/>
<path d="M18.0392 35.6973C18.9408 36.6964 20.7293 37.8618 23.9464 37.2299C25.9592 36.8339 26.9268 34.9576 27.166 34.4187C27.1112 34.2296 27.0016 34.1617 26.8969 34.121C26.5921 34.0039 26.2016 34.1125 26.1112 34.1921C26.0804 34.2187 23.2236 36.662 18.0392 35.6973ZM22.2116 38.6484C17.5864 38.6484 16.1148 34.9967 16.0988 34.9545C16.0136 34.7342 16.0613 34.485 16.2212 34.3109C16.3816 34.1374 16.6268 34.0703 16.8528 34.1374C22.3604 35.7677 25.2636 33.2868 25.2924 33.261C25.714 32.89 26.5948 32.6775 27.3408 32.9642C27.9588 33.2009 28.3436 33.7164 28.4244 34.4147C28.4356 34.5108 28.4244 34.6077 28.3912 34.6983C28.344 34.8272 27.2084 37.8525 24.1857 38.4461C23.4712 38.5859 22.8149 38.6484 22.2116 38.6484Z" fill="#1E1E1E"/>
<path d="M55.0122 17.2924L52.204 28.8359L49.9326 27.9981L47.6616 27.1603L53.0251 16.5593L55.0122 17.2924Z" fill="#FECF1F"/>
<path d="M52.2045 28.8359L49.9322 27.999L47.6614 27.1612L50.3054 21.9355L53.0247 16.5611L55.0118 17.2942L53.6275 22.9828L52.2045 28.8359Z" fill="#FECF1F"/>
<path d="M52.2042 28.8359L49.9324 27.999L47.6614 27.1613L50.3059 21.9357C51.347 22.0348 52.6455 22.3033 53.6281 22.9827L52.2042 28.8359Z" fill="#FCA822"/>
<path d="M52.642 29.6484L46.7947 27.4905L52.4722 16.2694C52.6261 15.9643 52.9984 15.8414 53.3044 15.9961C53.6104 16.1509 53.7324 16.5232 53.5777 16.8292L48.5286 26.8087L51.7664 28.0035L54.4099 17.1361C54.4904 16.8027 54.8273 16.5993 55.159 16.6798C55.4915 16.7611 55.6958 17.0963 55.6144 17.4288L52.642 29.6484Z" fill="#1E1E1E"/>
<path d="M55.828 18.7375C55.3266 20.0962 53.8183 20.7917 52.4595 20.2903C51.1007 19.789 50.4056 18.2807 50.9075 16.9219C51.4088 15.5631 52.9163 14.8677 54.276 15.369C55.6347 15.8703 56.3293 17.3787 55.828 18.7375Z" fill="#915320"/>
<path d="M52.7843 19.4108C52.7174 19.3862 52.6532 19.358 52.5907 19.3255C51.8366 18.9366 51.4899 18.0417 51.7838 17.2436C51.8806 16.9831 52.0346 16.7561 52.2361 16.5757C52.1551 17.2594 52.501 17.9449 53.1354 18.2722C53.197 18.3039 53.2612 18.3338 53.3272 18.3576C53.9361 18.5819 54.5917 18.4315 55.044 18.025C55.0299 18.1543 54.9982 18.2837 54.9507 18.4121C54.6286 19.285 53.6572 19.7338 52.7843 19.4108Z" fill="#7A431A"/>
<path d="M53.3668 15.8167C53.0812 15.8167 52.7964 15.8783 52.5294 16.0015C52.0438 16.2256 51.6742 16.6246 51.4885 17.1264C51.1064 18.1628 51.6385 19.3172 52.675 19.6993C53.7097 20.0814 54.864 19.5493 55.247 18.5137C55.4318 18.0111 55.4103 17.4674 55.1863 16.9817C54.9631 16.4961 54.5631 16.1265 54.0614 15.9408C53.8355 15.8578 53.6007 15.8167 53.3668 15.8167ZM53.3642 21.0625C52.9919 21.0625 52.6142 20.9982 52.2455 20.8625C50.5682 20.243 49.707 18.3753 50.3258 16.6978C50.6258 15.8854 51.2242 15.2382 52.0107 14.8757C52.7973 14.5124 53.6775 14.4785 54.4899 14.7784C55.3023 15.0784 55.9505 15.6765 56.3129 16.463C56.6754 17.2496 56.7102 18.1298 56.4102 18.9422C55.9272 20.251 54.6836 21.0625 53.3642 21.0625Z" fill="#1E1E1E"/>
<path d="M28.6079 17.2924L31.416 28.8359L33.6872 27.9981L35.9583 27.1603L30.5951 16.5593L28.6079 17.2924Z" fill="#FECF1F"/>
<path d="M31.4159 28.8359L33.6876 27.999L35.9587 27.1612L33.3144 21.9355L30.5948 16.5611L28.6079 17.2942L29.9919 22.9828L31.4159 28.8359Z" fill="#FECF1F"/>
<path d="M31.4162 28.8359L33.6879 27.999L35.959 27.1613L33.3146 21.9357C32.2734 22.0348 30.9746 22.3033 29.9922 22.9827L31.4162 28.8359Z" fill="#FCA822"/>
<path d="M30.9784 29.6484L28.0059 17.4288C27.9252 17.0963 28.1291 16.7611 28.4616 16.6798C28.7931 16.5993 29.1295 16.8027 29.2104 17.1361L31.854 28.0035L35.0916 26.8087L30.0423 16.8292C29.888 16.5232 30.01 16.1509 30.3156 15.9961C30.6224 15.8414 30.9944 15.9634 31.1488 16.2694L36.8256 27.4905L30.9784 29.6484Z" fill="#1E1E1E"/>
<path d="M27.7921 18.7375C28.2933 20.0962 29.8013 20.7917 31.1601 20.2903C32.5193 19.789 33.2141 18.2807 32.7129 16.9219C32.2113 15.5631 30.7033 14.8677 29.3445 15.369C27.9857 15.8703 27.2905 17.3787 27.7921 18.7375Z" fill="#915320"/>
<path d="M30.8364 19.4108C30.9024 19.3862 30.9667 19.358 31.0288 19.3255C31.7836 18.9366 32.1304 18.0417 31.8356 17.2436C31.7396 16.9831 31.5856 16.7561 31.384 16.5757C31.4652 17.2594 31.1191 17.9449 30.4852 18.2722C30.4228 18.3039 30.3591 18.3338 30.2924 18.3576C29.6844 18.5819 29.028 18.4315 28.5764 18.025C28.5904 18.1543 28.622 18.2837 28.6688 18.4121C28.9916 19.285 29.9632 19.7338 30.8364 19.4108Z" fill="#7A431A"/>
<path d="M30.2507 15.8168C30.0207 15.8168 29.787 15.8571 29.5591 15.9412C28.5231 16.3232 27.9914 17.4774 28.3735 18.5135C28.7559 19.5495 29.9102 20.0819 30.9459 19.699C31.9819 19.3169 32.5139 18.1627 32.1315 17.1267C31.8334 16.3187 31.0655 15.8168 30.2507 15.8168ZM30.2559 21.0625C28.9363 21.0625 27.6935 20.251 27.2106 18.9429C26.5918 17.2653 27.4527 15.3972 29.1299 14.778C30.8075 14.1589 32.6759 15.0205 33.2943 16.6981C33.9135 18.3748 33.0523 20.2429 31.3751 20.8621C31.0063 20.9981 30.6279 21.0625 30.2559 21.0625Z" fill="#1E1E1E"/>
<path d="M41.8105 23.365C58.4245 23.365 62.4366 38.2986 61.9127 49.2863C63.005 52.3067 63.3378 55.4965 61.9747 58.4557C58.9694 64.9744 49.1226 66.4473 41.8105 66.6016C34.4985 66.4473 24.6513 64.9744 21.6466 58.4557C20.283 55.4965 20.6158 52.3067 21.7082 49.2863C21.2289 38.1343 25.197 23.365 41.8105 23.365Z" fill="#FECF1F"/>
<path d="M61.9749 58.4558C58.9696 64.9727 49.1221 66.4473 41.81 66.6016C34.4984 66.4473 24.652 64.9727 21.6467 58.4558C20.2828 55.4957 20.6152 52.3068 21.708 49.2847C21.6864 48.7809 21.674 48.2695 21.6712 47.7506C21.6564 45.0152 21.918 42.1206 22.5668 39.3173C24.5088 30.9292 29.922 23.3652 41.81 23.3652C53.664 23.3652 59.1029 30.9661 61.0562 39.3131V39.3148C61.7142 42.1306 61.9775 45.032 61.954 47.7531C61.9506 48.2712 61.9355 48.7826 61.9121 49.2847C63.0052 52.3068 63.3372 55.4957 61.9749 58.4558Z" fill="#FECF1F"/>
<path d="M61.9754 58.4557C58.97 64.9727 49.1224 66.4473 41.8105 66.6016C34.4988 66.4473 24.6525 64.9727 21.6472 58.4557C20.2833 55.4957 20.6157 52.3067 21.7084 49.2855C21.6869 48.7808 21.6745 48.2695 21.6716 47.7505C21.6569 45.0151 21.9184 42.1205 22.5673 39.3172C23.4653 35.4358 25.1089 31.7288 27.7936 28.8685C30.9064 25.548 35.4245 23.365 41.8105 23.365C48.1819 23.365 52.6995 25.5605 55.818 28.8869C58.5056 31.7506 60.1546 35.4517 61.0566 39.313V39.3146C61.7155 42.1297 61.9779 45.0319 61.9553 47.7531C61.9511 48.2711 61.936 48.7817 61.9125 49.2855C63.0057 52.3067 63.3385 55.4957 61.9754 58.4557Z" fill="#FECF1F"/>
<path d="M61.9746 58.4557C58.9701 64.9736 49.1225 66.4473 41.8108 66.6016C34.4988 66.4473 24.6528 64.9736 21.648 58.4557C20.2829 55.4965 20.616 52.3059 21.708 49.2846C21.686 48.7817 21.6744 48.2694 21.6716 47.7514C21.6568 45.0151 21.9181 42.1213 22.5668 39.3172C23.4652 35.4366 25.1096 31.7296 27.7944 28.8685C29.854 26.6713 32.53 24.9712 35.9548 24.0742C37.7048 23.6148 39.6512 23.365 41.8108 23.365C43.9687 23.365 45.9151 23.6173 47.6655 24.0801C51.0825 24.9829 53.7558 26.6889 55.8181 28.8878C58.5057 31.7497 60.1546 35.4526 61.0575 39.313V39.3146C61.7155 42.1305 61.9779 45.0327 61.9545 47.7539C61.952 48.2711 61.9352 48.7817 61.9134 49.2846C63.0057 52.3059 63.3385 55.4965 61.9746 58.4557Z" fill="#FECF1F"/>
<path d="M61.9746 58.4557C58.9701 64.9736 49.1225 66.4473 41.8108 66.6016C34.4988 66.4473 24.6528 64.9736 21.648 58.4557C20.2829 55.4965 20.616 52.3059 21.708 49.2846C21.686 48.7817 21.6744 48.2694 21.6716 47.7514C21.6568 45.0151 21.9181 42.1213 22.5668 39.3172C23.4652 35.4366 25.1096 31.7296 27.7944 28.8685C29.854 26.6713 32.53 24.9712 35.9548 24.0742C37.7048 23.6148 39.6512 23.365 41.8108 23.365C43.9687 23.365 45.9151 23.6173 47.6655 24.0801C48.2817 24.2427 48.8735 24.4305 49.441 24.6451C51.489 25.4113 53.2319 26.4944 54.7081 27.8089C55.0963 28.1517 55.466 28.5114 55.8181 28.8878C58.5057 31.7497 60.1546 35.4526 61.0575 39.313V39.3146C61.7155 42.1305 61.9779 45.0327 61.9545 47.7539C61.952 48.2711 61.9352 48.7817 61.9134 49.2846C63.0057 52.3059 63.3385 55.4965 61.9746 58.4557Z" fill="#FECF1F"/>
<path d="M47.6653 24.0715C47.4625 24.8729 47.2126 25.629 46.9511 25.8721C46.1078 26.661 43.0362 27.4062 41.8106 27.4062C40.5834 27.4062 37.5138 26.661 36.6682 25.8721C36.407 25.629 36.1558 24.8687 35.9546 24.0656C37.7046 23.6062 39.651 23.3564 41.8106 23.3564C43.9686 23.3564 45.9149 23.6087 47.6653 24.0715Z" fill="#D3691A"/>
<path d="M54.7085 27.8053C53.1173 28.2006 50.8693 28.2222 50.3636 27.8584C49.9159 27.5395 49.4841 25.9442 49.4409 24.6421C51.4897 25.4086 53.2319 26.4915 54.7085 27.8053Z" fill="#D3691A"/>
<path d="M28.8779 27.8053C30.4692 28.2006 32.7168 28.2222 33.2231 27.8584C33.6707 27.5395 34.1023 25.9442 34.1452 24.6421C32.0972 25.4086 30.3547 26.4915 28.8779 27.8053Z" fill="#D3691A"/>
<path d="M21.7 45.9922C21.736 45.053 21.806 44.1017 21.914 43.1482C21.806 44.1017 21.736 45.0523 21.7 45.9922Z" fill="#FEE06D"/>
<path d="M23.1023 37.3125C23.516 35.9626 24.03 34.6493 24.6579 33.4027C24.0383 34.633 23.5295 35.9277 23.1187 37.2589C23.1131 37.2768 23.1075 37.2946 23.1023 37.3125Z" fill="#FEE06D"/>
<path d="M23.1184 37.2578C23.5292 35.9265 24.038 34.6312 24.6576 33.4015C25.3292 32.0686 26.1312 30.8125 27.0792 29.6691C25.2565 31.8679 23.9748 34.4841 23.1184 37.2578Z" fill="#FEE06D"/>
<path d="M28.4001 28.2422C28.557 28.0905 28.7166 27.9429 28.8802 27.7969C28.7169 27.9429 28.557 28.0905 28.4001 28.2422Z" fill="#FEE06D"/>
<path d="M59.2201 33.9531C59.2194 33.9531 59.2202 33.9531 59.2194 33.9531C58.8742 33.2226 58.4904 32.5126 58.0674 31.8292C58.4904 32.5126 58.8742 33.2226 59.2201 33.9531Z" fill="#FEE06D"/>
<path d="M60.1612 36.2422C60.0734 35.9947 59.9809 35.7488 59.8862 35.5043C59.9817 35.7488 60.0726 35.9947 60.1612 36.2422Z" fill="#FF959A"/>
<path d="M59.8858 35.5C59.6809 34.9757 59.459 34.4599 59.2192 33.9542C59.22 33.9542 59.2192 33.9542 59.22 33.9542C59.4597 34.4599 59.6809 34.9757 59.8858 35.5Z" fill="#9B5959"/>
<path d="M34.1448 24.6406C34.1448 24.6406 34.1448 24.6406 34.1448 24.6398C34.724 24.423 35.3268 24.2322 35.9556 24.0673C36.768 23.8538 37.6232 23.6864 38.5224 23.5676C38.056 23.6295 37.602 23.704 37.1592 23.7919C37.158 23.7919 37.1564 23.7919 37.1552 23.7927C37.1535 23.7927 37.152 23.7927 37.1504 23.7936C36.1528 23.9911 35.2136 24.2531 34.3304 24.5728C34.3292 24.5728 34.328 24.5737 34.3268 24.5737C34.3236 24.5753 34.32 24.5762 34.3168 24.577C34.2596 24.5979 34.202 24.6197 34.1448 24.6406Z" fill="#FEE06D"/>
<path d="M34.3169 24.5781C34.3201 24.5773 34.3237 24.5765 34.3269 24.5748C34.3237 24.5765 34.3205 24.5773 34.3169 24.5781ZM34.3305 24.5739C35.2137 24.2539 36.1529 23.9915 37.1505 23.7943C36.7425 23.8753 36.3437 23.9673 35.9549 24.0692C35.3937 24.2163 34.8525 24.3851 34.3305 24.5739ZM37.1553 23.7934C37.1564 23.7934 37.1581 23.7926 37.1593 23.7926C37.1577 23.7926 37.1564 23.7934 37.1553 23.7934Z" fill="#FEE06D"/>
<path d="M48.4172 24.2891C47.9321 24.1388 47.4311 24.006 46.9133 23.8907C47.168 23.9475 47.4185 24.0085 47.6657 24.0736C47.9212 24.1404 48.1709 24.2122 48.4181 24.2891H48.4172Z" fill="#FFE6FF"/>
<path d="M48.7453 24.3906C48.6379 24.3548 48.5271 24.3199 48.4172 24.2857H48.4181C48.528 24.3199 48.637 24.3548 48.7453 24.3906Z" fill="#9B5959"/>
<path d="M48.7745 24.4062C48.466 24.3042 48.1508 24.2089 47.8289 24.1211C47.8247 24.1203 47.8205 24.1186 47.8163 24.1178C47.813 24.117 47.8105 24.1161 47.8071 24.1153C47.7988 24.1128 47.7896 24.1103 47.7804 24.1078C47.7519 24.1002 47.7227 24.0927 47.6943 24.0852L47.6934 24.0843C47.6842 24.0818 47.6742 24.0793 47.665 24.0768C47.1433 23.9389 46.604 23.8201 46.0471 23.7206C46.3406 23.7733 46.629 23.831 46.9133 23.8937C47.4309 24.0091 47.9326 24.142 48.4175 24.2925C48.5279 24.326 48.6374 24.3611 48.7461 24.3971C48.7553 24.4004 48.7653 24.4029 48.7745 24.4062Z" fill="#FEE06D"/>
<path d="M47.8071 24.1113C47.7979 24.1088 47.7896 24.1063 47.7804 24.1038C47.7896 24.1063 47.7988 24.1088 47.8071 24.1113ZM47.7804 24.1038C47.7519 24.0963 47.7235 24.0888 47.6943 24.0812C47.7227 24.0888 47.7519 24.0963 47.7804 24.1038Z" fill="#FEE06D"/>
<path d="M23.1704 46.7763C23.0192 46.9074 22.3188 47.3487 21.6712 47.75C21.6564 45.0148 21.918 42.1197 22.5668 39.3164C23.2673 40.6773 24.0564 42.2707 24.1748 42.7809C24.2909 43.2777 23.4676 46.5216 23.1704 46.7763Z" fill="#D3691A"/>
<path d="M61.9544 47.75C61.3058 47.3494 60.6008 46.9044 60.4483 46.7741C60.1529 46.5194 59.3295 43.2754 59.4457 42.7786C59.5642 42.2684 60.3543 40.6727 61.0562 39.311C61.7145 42.127 61.9773 45.0281 61.9544 47.75Z" fill="#D3691A"/>
<path d="M41.6942 59.8151C41.6942 59.8151 51.347 60.6228 51.0107 62.87C49.3253 74.1387 51.1638 94.7504 52.9045 97.5435C53.5088 98.5128 56.4862 101.566 57.1845 103.033C56.4561 103.801 52.1202 105.992 41.6942 105.992C31.2682 105.992 26.9324 103.801 26.2046 103.033C26.9022 101.566 29.8797 98.5128 30.4839 97.5435C32.2246 94.7504 34.0631 74.1387 32.3777 62.87C32.0415 60.6228 41.6942 59.8151 41.6942 59.8151Z" fill="#FECF1F"/>
<path d="M57.185 103.033C56.7578 103.483 55.0902 104.424 51.6794 105.123C49.2754 105.617 46.006 105.992 41.6941 105.992C37.3828 105.992 34.1128 105.617 31.7094 105.123C28.2999 104.423 26.6311 103.483 26.2039 103.033C26.9027 101.566 29.8802 98.513 30.485 97.5437C32.2258 94.75 34.0642 74.1378 32.3782 62.8697C32.0414 60.6224 41.6941 59.8154 41.6941 59.8154C41.6941 59.8154 51.3475 60.6224 51.0106 62.8697C49.3258 74.1378 51.1643 94.75 52.905 97.5437C53.5093 98.513 56.4873 101.566 57.185 103.033Z" fill="#FECF1F"/>
<path d="M57.185 103.033C56.7578 103.483 55.0902 104.424 51.6794 105.123C49.2754 105.617 46.006 105.992 41.6941 105.992C37.3828 105.992 34.1128 105.617 31.7094 105.123C28.2999 104.423 26.6311 103.483 26.2039 103.033C26.395 102.633 26.7546 102.114 27.1904 101.553C28.3515 100.055 30.0461 98.2487 30.485 97.5437C30.6719 97.2431 30.8618 96.7336 31.0474 96.0531C31.2239 95.3973 31.3996 94.5828 31.5662 93.6381C31.8354 92.1285 32.0862 90.2888 32.3014 88.2419C32.6112 85.3026 32.8484 81.9348 32.9646 78.5056C33.1189 73.9564 33.0629 69.2972 32.6818 65.3757C32.5983 64.4991 32.4962 63.662 32.3782 62.8697C32.0414 60.6224 41.6941 59.8154 41.6941 59.8154C41.6941 59.8154 51.3475 60.6224 51.0106 62.8697C50.7094 64.8778 50.5214 67.184 50.4249 69.6335C50.3068 72.6232 50.324 75.8256 50.4421 78.9598C50.5914 82.981 50.9043 86.8921 51.3008 90.1031C51.7611 93.8336 52.3352 96.6186 52.8995 97.5351L52.905 97.5437C53.0704 97.808 53.4128 98.2297 53.8387 98.7334C54.8615 99.9386 56.3576 101.61 57.0079 102.707C57.0768 102.823 57.1358 102.931 57.185 103.033Z" fill="#FECF1F"/>
<path d="M57.185 103.033C56.7578 103.483 55.0902 104.424 51.6794 105.123C49.2754 105.617 46.006 105.992 41.6941 105.992C37.3828 105.992 34.1128 105.617 31.7094 105.123C28.2999 104.423 26.6311 103.483 26.2039 103.033C26.395 102.633 26.7546 102.114 27.1904 101.553C28.3515 100.055 30.0461 98.2487 30.485 97.5437C30.6719 97.2431 30.8618 96.7336 31.0474 96.0531C31.2239 95.3973 31.3996 94.5828 31.5662 93.6381C31.8354 92.1285 32.0862 90.2888 32.3014 88.2419C32.6112 85.3026 32.8484 81.9348 32.9646 78.5056C33.0414 76.2498 33.0654 73.9681 33.0242 71.7614C32.9836 69.5167 32.8742 67.3524 32.6818 65.3757C32.5983 64.4991 32.4962 63.662 32.3782 62.8697C32.0414 60.6224 41.6941 59.8154 41.6941 59.8154C41.6941 59.8154 51.3475 60.6224 51.0106 62.8697C50.7094 64.8778 50.5214 67.184 50.4249 69.6335C50.3978 70.333 50.3775 71.0435 50.3646 71.7614C50.3204 74.1162 50.3517 76.5589 50.4421 78.9598C50.5914 82.981 50.9043 86.8921 51.3008 90.1031C51.7611 93.8336 52.3352 96.6186 52.8995 97.5351L52.905 97.5437C53.0704 97.808 53.4128 98.2297 53.8387 98.7334C54.8615 99.9386 56.3576 101.61 57.0079 102.707C57.0768 102.823 57.1358 102.931 57.185 103.033Z" fill="#FECF1F"/>
<path d="M51.0107 62.8673C50.7095 64.8754 50.5214 67.1816 50.4249 69.6311C50.3979 70.3306 50.3776 71.0411 50.3647 71.7591C47.788 73.064 44.8345 73.8047 41.6942 73.8047C38.5538 73.8047 35.6003 73.064 33.0243 71.7591C32.9837 69.5143 32.8743 67.3501 32.6819 65.3733C32.5983 64.4968 32.4963 63.6596 32.3782 62.8673C32.0414 60.6201 41.6942 59.813 41.6942 59.813C41.6942 59.813 51.3475 60.6201 51.0107 62.8673Z" fill="#FC9E22"/>
<path d="M37.8443 69.8107C37.9627 70.1793 37.8675 71.9529 37.6533 73.3828C36.0149 73.0374 34.4608 72.4853 33.0239 71.7573C33.0222 71.6162 33.0199 71.4768 33.0152 71.3369C33.0123 71.1976 33.0094 71.0577 33.0053 70.9201C33.0024 70.7802 32.9978 70.6426 32.9937 70.5038C32.9926 70.4649 32.9908 70.426 32.9891 70.3877C32.9862 70.2681 32.9821 70.1503 32.9781 70.0336C32.9723 69.8478 32.9647 69.6638 32.9577 69.4809C32.9502 69.3189 32.9432 69.1564 32.9363 68.995C32.9351 68.952 32.9322 68.9102 32.9305 68.8672C32.9061 68.3761 32.8782 67.8931 32.8469 67.4164C32.8242 67.0617 32.7981 66.7093 32.7691 66.3622C32.7574 66.2188 32.7464 66.0765 32.7331 65.9337C32.7174 65.745 32.7 65.5569 32.6814 65.3711C34.5055 66.7221 37.6144 69.103 37.8443 69.8107Z" fill="#B25414"/>
<path d="M50.4248 69.6307C50.3976 70.3302 50.3778 71.0404 50.3643 71.7585C47.9275 72.9927 45.1552 73.7222 42.2046 73.7969C42.1446 72.9571 42.1401 72.2446 42.2108 72.0273C42.5373 71.0206 46.9106 67.7622 47.6655 67.7622C48.1177 67.7622 49.3977 68.6093 50.4248 69.6307Z" fill="#B25414"/>
<path d="M38.1238 66.3906C38.1238 66.3906 40.4009 68.8371 41.1679 68.8359C41.6027 68.8359 45.6542 66.6304 45.5092 66.1031C45.3643 65.5753 42.1997 62.7942 41.5281 62.7942C40.8566 62.7942 38.1238 65.1441 38.1238 66.3906Z" fill="#D3691A"/>
<path d="M34.6084 80.8148C34.6084 80.8148 35.5899 83.7416 36.325 83.9622C36.5649 84.0339 38.8111 84.0517 39.7535 83.7823C40.2572 83.6384 41.863 80.5332 41.7435 80.2338C41.4558 79.5145 39.0581 77.1529 38.013 77.218C37.3431 77.2602 34.6084 79.5679 34.6084 80.8148Z" fill="#D3691A"/>
<path d="M57.0078 102.702C56.1952 102.736 55.4294 102.714 55.296 102.673C54.5607 102.452 53.5796 99.5258 53.5796 99.5258C53.5796 99.2894 53.6773 99.0162 53.8387 98.729C54.8614 99.9341 56.3572 101.606 57.0078 102.702Z" fill="#D3691A"/>
<path d="M52.8997 97.5397C51.3272 97.6259 48.8456 97.5867 48.512 97.4619C47.5928 97.121 45.6883 95.5586 45.5259 94.8678C45.2824 93.8293 46.7139 91.3264 47.1987 90.7509C47.5424 90.3423 49.8113 90.0892 51.3015 90.1077C51.7617 93.8377 52.336 96.6233 52.8997 97.5397Z" fill="#D3691A"/>
<path d="M41.6936 85.9044C41.6936 85.9044 42.5971 89.0321 43.3319 89.2529C43.5714 89.3249 46.8377 89.2669 47.7798 88.9972C48.2837 88.8533 49.2032 84.8189 49.0835 84.5197C48.7956 83.8005 45.865 81.7572 44.8197 81.8222C44.1499 81.8641 41.6936 84.6577 41.6936 85.9044Z" fill="#D3691A"/>
<path d="M30.3955 101.277C29.8027 101.447 28.2905 101.531 27.1902 101.555C28.3512 100.057 30.046 98.2504 30.4846 97.5448C30.6719 97.2443 30.8613 96.7355 31.0472 96.0545C31.3852 96.3511 31.6254 96.6171 31.6986 96.7984C31.8182 97.0975 30.8992 101.133 30.3955 101.277Z" fill="#D3691A"/>
<path d="M37.2475 75.0608C37.0361 75.4921 34.664 77.2657 32.9647 78.5C33.1186 73.9513 33.0628 69.2918 32.6814 65.3701C34.5055 66.7211 37.6144 69.102 37.8443 69.8097C38.0231 70.3635 37.7154 74.1081 37.2475 75.0608Z" fill="#D3691A"/>
<path d="M50.4417 78.961C49.7723 79.5178 49.1017 79.9954 48.5646 80.2099C47.5766 80.6055 43.1383 77.9599 42.8061 77.2825C42.3387 76.3301 42.0308 72.5856 42.2108 72.0316C42.5373 71.0249 46.9105 67.7664 47.6654 67.7664C48.1176 67.7664 49.3976 68.6136 50.4247 69.635C50.307 72.6246 50.324 75.827 50.4417 78.961Z" fill="#D3691A"/>
<path d="M38.1238 66.3906C38.1238 66.3906 40.4009 68.8371 41.1679 68.8359C41.6027 68.8359 45.6542 66.6304 45.5092 66.1031C45.3643 65.5753 42.1997 62.7942 41.5281 62.7942C40.8566 62.7942 38.1238 65.1441 38.1238 66.3906Z" fill="#B25414"/>
<path d="M37.6533 73.3828C36.0149 73.0374 34.4608 72.4853 33.0239 71.7573C33.0222 71.6162 33.0199 71.4768 33.0152 71.3369C33.0123 71.1976 33.0094 71.0577 33.0053 70.9201C33.0024 70.7802 32.9978 70.6426 32.9937 70.5038C32.9926 70.4649 32.9908 70.426 32.9891 70.3877C32.9862 70.2681 32.9821 70.1503 32.9781 70.0336C32.9723 69.8478 32.9647 69.6638 32.9577 69.4809C32.9502 69.3189 32.9432 69.1564 32.9363 68.995C32.9351 68.952 32.9322 68.9102 32.9305 68.8672C32.9061 68.3761 32.8782 67.8931 32.8469 67.4164C32.8242 67.0617 32.7981 66.7093 32.7691 66.3622C32.7574 66.2188 32.7464 66.0765 32.7331 65.9337C32.7174 65.745 32.7 65.5569 32.6814 65.3711C34.5055 66.7221 37.6144 69.103 37.8443 69.8107C37.9627 70.1793 37.8675 71.9529 37.6533 73.3828Z" fill="#B25414"/>
<path d="M50.4248 69.6307C50.3976 70.3302 50.3778 71.0404 50.3643 71.7585C47.9275 72.9927 45.1552 73.7222 42.2046 73.7969C42.1446 72.9571 42.1401 72.2446 42.2108 72.0273C42.5373 71.0206 46.9106 67.7622 47.6655 67.7622C48.1177 67.7622 49.3977 68.6093 50.4248 69.6307Z" fill="#B25414"/>
<path d="M39.826 92.8325C39.4936 93.5098 35.8539 95.596 34.7891 95.5541C33.9418 95.5193 32.6344 94.5597 31.5667 93.6377C31.8359 92.1285 32.0863 90.2884 32.3019 88.2418C33.1824 87.0274 34.2728 85.9399 34.723 85.9399C35.478 85.9399 38.8056 86.8996 39.1293 87.2976C39.496 87.7511 40.2931 91.8786 39.826 92.8325Z" fill="#D3691A"/>
<path d="M26.2042 103.648C26.1151 103.648 26.0242 103.629 25.9383 103.588C25.629 103.441 25.4979 103.071 25.6445 102.762C26.1065 101.792 27.3805 100.308 28.5037 98.9988C29.1438 98.2528 29.7481 97.5487 29.9584 97.2116C31.5374 94.6783 33.4874 74.472 31.7649 62.9571C31.7235 62.6806 31.747 62.2582 32.094 61.8197C33.5678 59.9569 40.3074 59.305 41.6433 59.193C41.6773 59.1899 41.712 59.1899 41.7466 59.193C43.0825 59.305 49.8215 59.9569 51.2953 61.8197C51.6423 62.2582 51.6658 62.6806 51.6243 62.9571C49.9025 74.4713 51.8526 94.6783 53.4309 97.211C53.6418 97.5487 54.2455 98.2533 54.8856 98.9988C56.0094 100.308 57.2828 101.792 57.7442 102.762C57.892 103.071 57.7609 103.441 57.4517 103.588C57.1424 103.735 56.7726 103.604 56.6254 103.295C56.2345 102.474 54.9654 100.995 53.9449 99.806C53.2157 98.956 52.6393 98.2844 52.3789 97.8672C50.5006 94.8533 48.7051 74.0922 50.3985 62.774C50.4022 62.7511 50.4096 62.698 50.3237 62.5891C49.4442 61.4777 44.5879 60.6799 41.6946 60.4325C38.8014 60.6799 33.9451 61.4777 33.0662 62.5891C32.9796 62.698 32.9877 62.7511 32.9914 62.774C34.6842 74.0928 32.8887 94.854 31.0104 97.8672C30.75 98.2844 30.1742 98.956 29.445 99.806C28.4245 100.994 27.1554 102.474 26.7645 103.295C26.6582 103.518 26.4361 103.648 26.2042 103.648Z" fill="#1E1E1E"/>
<path d="M21.6278 46.7736C21.6398 47.6267 21.669 48.4658 21.7074 49.2814C21.6874 49.3356 21.6674 49.3911 21.6502 49.4453C21.6238 48.5707 21.6146 47.6767 21.6278 46.7736Z" fill="white"/>
<path d="M61.9696 49.4375C61.9522 49.3833 61.932 49.3277 61.9126 49.2736C61.9508 48.4566 61.98 47.6174 61.9918 46.7637C62.005 47.6674 61.996 48.5629 61.9696 49.4375Z" fill="white"/>
<path d="M21.6555 49.4547C21.6687 49.9011 21.6871 50.344 21.7079 50.7795C21.5863 51.1174 21.4735 51.4579 21.3711 51.7978C21.0555 52.8526 20.8447 53.9244 20.7751 54.9922C20.6691 53.432 20.9087 51.8507 21.3711 50.3027C21.4579 50.013 21.5535 49.722 21.6555 49.4337V49.4547Z" fill="white"/>
<path d="M62.8453 54.9922C62.7822 54.0154 62.5997 53.0365 62.3284 52.0698C62.207 51.635 62.0665 51.2022 61.9119 50.7742C61.9329 50.3326 61.9512 49.8849 61.9648 49.4304C62.0991 49.8089 62.2212 50.1901 62.3284 50.5741C62.7388 52.0352 62.9443 53.5242 62.8453 54.9922Z" fill="white"/>
<path d="M21.6553 47.9546C21.6686 48.4018 21.687 48.8441 21.7078 49.2795C21.6894 49.3288 21.6726 49.3803 21.6553 49.4297C21.6265 48.5179 21.6149 47.5853 21.6277 46.6408C21.6318 47.0825 21.6421 47.5213 21.6553 47.9546Z" fill="white"/>
<path d="M61.9647 49.4297C61.9487 49.3789 61.9306 49.3289 61.9119 49.2781C61.9529 48.4292 61.9828 47.558 61.9932 46.6694C62.0057 47.6032 61.9932 48.5272 61.9647 49.4297Z" fill="white"/>
<path d="M61.9742 58.4556C58.9693 64.9742 49.1225 66.4477 41.81 66.6016C34.4981 66.4477 24.6511 64.9742 21.6464 58.4556C20.4347 55.8275 20.5615 53.0181 21.3711 50.3054C22.7324 48.8495 30.5459 44.9787 41.6717 44.9829C52.7964 44.9787 60.6107 48.8495 61.9706 50.3054C62.068 50.4098 62.1901 50.5015 62.3291 50.5813C63.0652 53.2079 63.1442 55.9164 61.9742 58.4556Z" fill="#FFF3E9"/>
<path d="M61.8923 55.0815C61.7655 55.9396 61.5234 56.7893 61.1404 57.6196C58.2599 63.8681 48.8187 65.281 41.81 65.4297C34.8014 65.281 25.3617 63.8681 22.4806 57.6196C22.0981 56.7893 21.8557 55.9409 21.7285 55.0815C24.8254 61.451 34.5632 62.6386 41.81 62.7924C49.0575 62.6386 58.7961 61.451 61.8923 55.0815Z" fill="#FFB6B8"/>
<path d="M61.8923 55.0815C61.7655 55.9396 61.5234 56.7893 61.1404 57.6196C58.2599 63.8681 48.8187 65.281 41.81 65.4297C34.8014 65.281 25.3617 63.8681 22.4806 57.6196C22.0981 56.7893 21.8557 55.9409 21.7285 55.0815C24.8254 61.451 34.5632 62.6386 41.81 62.7924C49.0575 62.6386 58.7961 61.451 61.8923 55.0815Z" fill="#F9D3B7"/>
<path d="M41.8162 23.9814C34.6613 24.1119 29.421 26.7586 26.239 31.8467C23.6554 35.9789 22.3398 41.8451 22.3278 49.2835C22.3278 49.355 22.3154 49.4266 22.291 49.494C21.0974 52.7934 21.0702 55.7206 22.2094 58.193C25.0442 64.3413 34.4302 65.8209 41.8106 65.9792C49.191 65.8209 58.5772 64.3413 61.4118 58.193C62.5512 55.7206 62.5234 52.7934 61.3301 49.494C61.3023 49.4165 61.2897 49.3348 61.2939 49.2531C61.4817 45.3222 61.2695 35.4989 55.2703 29.2067C51.9658 25.7405 47.4386 23.983 41.8162 23.9814ZM41.8106 67.2188C41.8061 67.2188 41.8018 67.2188 41.7974 67.2188C34.0614 67.0545 24.1882 65.4461 21.0838 58.7117C19.815 55.9589 19.817 52.7504 21.0886 49.1748C21.1446 31.8829 28.1121 22.9893 41.7994 22.7418C41.8029 22.7418 41.807 22.7418 41.8106 22.7418C47.7881 22.7418 52.6184 24.6289 56.1679 28.3519C62.4349 34.9246 62.7221 45.0198 62.5377 49.1891C63.8042 52.7588 63.8042 55.9631 62.5377 58.7117C59.4328 65.4461 49.5591 67.0545 41.8238 67.2188C41.8194 67.2188 41.815 67.2188 41.8106 67.2188Z" fill="#1E1E1E"/>
<path d="M44.8758 48.4198C44.538 47.7833 45.2794 46.0097 45.9634 46.6496C46.9041 47.5301 46.1005 49.3555 44.8758 48.4198Z" fill="#1E1E1E"/>
<path d="M38.2986 48.4198C38.6364 47.7833 37.895 46.0097 37.211 46.6496C36.2704 47.5301 37.074 49.3555 38.2986 48.4198Z" fill="#1E1E1E"/>
<path d="M26.9636 41.4021C28.1036 42.9884 30.1165 43.6821 31.992 43.4118C33.8776 43.1253 35.0665 41.57 35.9534 39.958C36.2045 40.5007 36.2178 41.1178 36.1353 41.7026C35.5911 45.1962 31.3593 46.158 28.7096 44.2926C27.7721 43.6254 26.9781 42.5701 26.9636 41.4021Z" fill="#1E1E1E"/>
<path d="M56.3797 41.4019C56.3649 42.5699 55.5711 43.6245 54.6329 44.2924C51.9832 46.1585 47.7509 45.1953 47.2075 41.7024C47.125 41.1177 47.1382 40.5006 47.3894 39.9578C48.276 41.5699 49.4653 43.1252 51.3506 43.4117C53.2263 43.6827 55.2389 42.9882 56.3797 41.4019Z" fill="#1E1E1E"/>
<path d="M30.2151 32.9375C30.4807 31.9372 32.5267 28.6157 34.4359 30.0713C35.1086 30.5847 34.9651 32.0106 34.0215 32.2492C32.6463 32.5974 32.353 32.4176 30.2151 32.9375Z" fill="#1E1E1E"/>
<path d="M53.1279 32.9609C52.8636 31.9608 50.8213 28.637 48.9104 30.0909C48.2366 30.6035 48.3792 32.0293 49.3222 32.2686C50.6972 32.6184 50.9905 32.4387 53.1279 32.9609Z" fill="#1E1E1E"/>
<path d="M43.4008 59.0617C42.7335 58.9759 42.2522 58.8889 41.6745 58.8895C41.0954 58.8971 40.618 58.9873 39.9487 59.0781C40.2225 57.1966 43.1081 57.1871 43.4008 59.0617Z" fill="#1E1E1E"/>
<path d="M41.6766 132.781V132.724L41.667 132.781C23.6236 132.781 26.8328 119.204 29.6912 113.319C33.1525 106.193 36.352 100.323 41.6718 100.323C46.991 100.323 50.1906 106.193 53.6524 113.319C56.5109 119.204 59.7195 132.781 41.6766 132.781Z" fill="#FFF3E9"/>
<path d="M41.6769 132.781V132.724L41.6676 132.781C29.8955 132.781 27.1702 127.002 27.4908 121.349C28.3072 121.809 29.1393 122.384 29.9668 123.103C34.1417 126.726 38.6257 128.625 41.6954 128.625C44.7652 128.625 49.248 126.726 53.4241 123.103C54.2359 122.398 55.0529 121.83 55.8537 121.375C56.1668 127.018 53.4322 132.781 41.6769 132.781Z" fill="#F9D3B7"/>
<path d="M53.2053 102.603C55.0611 104.827 56.0736 107.626 57.2721 110.183C57.7441 111.021 58.2636 111.829 58.6868 112.694C61.4772 118.021 62.347 124.855 58.1407 129.727C54.2747 134.003 46.977 134.921 41.5017 134.762L41.5264 133.501L41.5517 134.762C40.551 134.805 39.5897 134.796 38.6118 134.745C33.8031 134.427 28.3309 133.454 24.9196 129.721C20.3511 124.395 21.8007 116.984 25.087 111.412C25.3125 111.005 25.5843 110.607 25.8048 110.195C26.1786 109.493 26.6543 108.383 26.9922 107.639C27.7922 105.892 28.6867 104.153 29.8475 102.603C29.5071 103.523 28.704 105.771 28.4013 106.661C27.9417 108.022 27.5068 109.42 26.8878 110.749C26.6802 111.184 26.4096 111.603 26.1829 112.028C23.35 117.098 21.9595 123.947 26.0649 128.711C29.7308 132.623 36.3446 133.4 41.5011 133.502L41.5264 134.762L41.5524 133.502C43.4032 133.504 45.3133 133.343 47.1506 133.055C51.5343 132.354 56.4702 130.788 58.4353 126.483C59.6264 124.023 59.8105 121.228 59.273 118.539C58.7615 115.787 57.5451 113.188 56.1416 110.762C54.9215 108.074 54.1653 105.395 53.2053 102.603Z" fill="#1E1E1E"/>
<path d="M57.4072 122.956C50.9317 125.662 49.8618 128.394 44.5123 130.43C38.2422 129.86 35.4782 131.526 35.8489 135.343C33.6797 142.861 43.4819 143.086 46.153 143.086C49.839 143.086 63.6438 141.825 67.6189 132.337C70.7135 124.951 63.9101 117.246 56.6424 122.437L57.4072 122.956Z" fill="#FECF1F"/>
<path d="M35.54 137.421C35.6044 142.903 43.7541 143.086 46.153 143.086C49.8394 143.086 63.6441 141.825 67.6201 132.337C68.7204 129.712 68.5699 127.045 67.5925 124.933C65.8196 121.102 61.3273 119.091 56.6432 122.436L57.4071 122.955C50.9317 125.661 49.8623 128.393 44.5128 130.429C38.2424 129.859 35.4789 131.526 35.8494 135.341C35.628 136.108 35.5321 136.798 35.54 137.421Z" fill="#FECF1F"/>
<path d="M35.54 137.421C35.6044 142.903 43.7541 143.086 46.153 143.086C46.7665 143.086 47.6586 143.052 48.7417 142.95C54.1622 142.438 64.3056 140.246 67.6201 132.337C68.7204 129.712 68.5699 127.045 67.5925 124.933C65.8196 121.102 61.3273 119.091 56.6432 122.436L57.4071 122.955C51.1176 125.583 49.9274 128.236 44.9628 130.252C44.8169 130.312 44.6665 130.37 44.5128 130.429C38.2424 129.859 35.4789 131.526 35.8494 135.341C35.628 136.108 35.5321 136.798 35.54 137.421Z" fill="#FECF1F"/>
<path d="M35.54 137.421C35.6044 142.903 43.7541 143.086 46.153 143.086C46.7665 143.086 47.6586 143.052 48.7417 142.95C54.1622 142.438 64.3056 140.246 67.6201 132.337C68.7204 129.712 68.5699 127.045 67.5925 124.933C65.8196 121.102 61.3273 119.091 56.6432 122.436L57.4071 122.955C57.348 122.98 57.2909 123.004 57.2337 123.03L57.2271 123.031C57.0925 123.089 56.9605 123.145 56.8324 123.202C51.0401 125.75 49.7724 128.3 44.9628 130.252C44.8169 130.312 44.6665 130.37 44.5128 130.429C38.4558 129.879 35.6714 131.416 35.8231 134.96C35.8277 135.084 35.8369 135.211 35.8494 135.341C35.628 136.108 35.5321 136.798 35.54 137.421Z" fill="#FECF1F"/>
<path d="M35.54 137.421C35.6044 142.903 43.7541 143.086 46.153 143.086C46.7665 143.086 47.6586 143.052 48.7417 142.95C52.9634 142.551 60.0491 141.134 64.5427 136.79C65.7283 135.645 66.7327 134.297 67.4579 132.71C67.513 132.586 67.5676 132.462 67.6201 132.337C68.7204 129.712 68.5699 127.045 67.5925 124.933C65.8196 121.102 61.3273 119.091 56.6432 122.436L57.4071 122.955C57.348 122.98 57.2909 123.004 57.2337 123.03L57.2271 123.031C57.1188 123.078 57.0104 123.123 56.9066 123.17C56.8816 123.18 56.8573 123.191 56.8324 123.202C54.5701 124.197 52.9989 125.193 51.6365 126.152C49.5103 127.651 47.8944 129.062 44.9628 130.252C44.8169 130.312 44.6665 130.37 44.5128 130.429C38.4558 129.879 35.6714 131.416 35.8231 134.96C35.8277 135.084 35.8369 135.211 35.8494 135.341C35.628 136.108 35.5321 136.798 35.54 137.421Z" fill="#FECF1F"/>
<path d="M35.54 137.421C35.6044 142.903 43.7541 143.086 46.153 143.086C46.7665 143.086 47.6586 143.052 48.7417 142.95C52.9634 142.551 60.0491 141.134 64.5427 136.79C65.7283 135.645 66.7327 134.297 67.4579 132.71C67.513 132.586 67.5676 132.462 67.6201 132.337C68.7204 129.712 68.5699 127.045 67.5925 124.933C67.3554 124.421 67.0697 123.943 66.7419 123.504C65.7434 122.168 64.3509 121.214 62.733 120.876C60.9076 120.493 58.7958 120.9 56.6432 122.436L57.4071 122.955C57.348 122.98 57.2909 123.004 57.2337 123.03L57.2271 123.031C57.1188 123.078 57.0104 123.123 56.9066 123.17C56.8816 123.18 56.8573 123.191 56.8324 123.202C54.5701 124.197 52.9989 125.193 51.6365 126.152C49.5103 127.651 47.8944 129.062 44.9628 130.252C44.8169 130.312 44.6665 130.37 44.5128 130.429C38.4558 129.879 35.6714 131.416 35.8231 134.96C35.8277 135.084 35.8369 135.211 35.8494 135.341C35.628 136.108 35.5321 136.798 35.54 137.421Z" fill="#FECF1F"/>
<path d="M35.54 137.421C35.6044 142.903 43.7541 143.086 46.153 143.086C46.7665 143.086 47.6586 143.052 48.7417 142.95C51.4198 142.697 55.2513 142.034 58.8437 140.474C59.7449 140.081 60.633 139.632 61.4823 139.119C62.5813 138.456 63.6158 137.686 64.5427 136.79C65.7283 135.645 66.7327 134.297 67.4579 132.71C67.513 132.586 67.5676 132.462 67.6201 132.337C68.7204 129.712 68.5699 127.045 67.5925 124.933C67.3554 124.421 67.0697 123.943 66.7419 123.504C65.7434 122.168 64.3509 121.214 62.733 120.876C60.9076 120.493 58.7958 120.9 56.6432 122.436L57.4071 122.955C57.348 122.98 57.2909 123.004 57.2337 123.03L57.2271 123.031C57.1188 123.078 57.0104 123.123 56.9066 123.17C56.8816 123.18 56.8573 123.191 56.8324 123.202C54.5701 124.197 52.9989 125.193 51.6365 126.152C49.5103 127.651 47.8944 129.062 44.9628 130.252C44.8169 130.312 44.6665 130.37 44.5128 130.429C38.4558 129.879 35.6714 131.416 35.8231 134.96C35.8277 135.084 35.8369 135.211 35.8494 135.341C35.628 136.108 35.5321 136.798 35.54 137.421Z" fill="#FECF1F"/>
<path d="M35.5398 137.421C35.6044 142.903 43.7536 143.086 46.1526 143.086C46.2098 143.086 46.2701 143.086 46.3321 143.084C46.4256 143.084 46.5245 143.083 46.6297 143.08C46.6639 143.078 46.6992 143.078 46.735 143.077C46.7708 143.075 46.8076 143.075 46.845 143.074C46.9551 143.07 47.0716 143.066 47.1923 143.06C47.2324 143.058 47.273 143.056 47.3147 143.054C47.397 143.049 47.4825 143.044 47.5674 143.04C47.6107 143.038 47.654 143.035 47.6989 143.032C47.9035 143.019 48.1188 143.004 48.3448 142.985C48.3625 142.984 48.379 142.982 48.3977 142.981C48.4832 142.973 48.5714 142.965 48.6601 142.957C48.6873 142.954 48.714 142.951 48.7418 142.95L48.7386 142.948C44.7875 140.469 43.814 137.007 44.0234 134.05C43.371 135.578 44.3889 139.079 42.6845 140.164C41.4171 140.969 36.968 140.414 35.5398 137.421Z" fill="#7A431A"/>
<path d="M56.6431 122.441L57.4068 122.961C58.5747 122.476 59.5988 120.626 64.4433 121.505C62.3004 120.351 59.5086 120.394 56.6431 122.441Z" fill="#FC9E22"/>
<path d="M35.5398 137.421C35.6042 142.903 43.7539 143.086 46.1528 143.086C49.8392 143.086 63.6439 141.825 67.6199 132.337C68.7202 129.712 68.5697 127.045 67.5923 124.933H67.5904C67.4807 130.561 65.2631 135.834 57.8083 138.811C48.9833 142.336 44.4463 137.963 44.2591 133.669C43.1509 134.887 44.552 138.975 42.6845 140.164C41.4168 140.969 36.9678 140.414 35.5398 137.421Z" fill="#FC9E22"/>
<path d="M58.778 140.422C58.7908 140.439 58.8123 140.456 58.8435 140.477C58.9563 140.427 59.0684 140.377 59.1811 140.326C59.2694 140.286 59.3594 140.245 59.4477 140.204C59.8784 140.002 60.3061 139.787 60.7264 139.556C60.7662 139.536 60.8048 139.513 60.8453 139.491C60.9507 139.432 61.056 139.373 61.1614 139.311C61.2699 139.249 61.3771 139.186 61.4819 139.122C61.5144 138.901 61.5242 138.715 61.5052 138.608C61.4727 138.428 60.7907 137.931 60.2607 137.651C59.6738 137.98 59.0445 138.291 58.3687 138.581C58.3368 138.635 58.3147 138.682 58.3055 138.716C58.2406 138.975 58.5439 140.1 58.778 140.422Z" fill="#B25414"/>
<path d="M62.8135 135.89C62.8687 136.175 62.9511 136.374 63.064 136.427C63.2692 136.523 63.8683 136.662 64.5427 136.789C64.5518 136.78 64.5596 136.772 64.5687 136.764C64.6343 136.701 64.6992 136.636 64.7628 136.572C64.8355 136.499 64.9062 136.425 64.9796 136.349C65.0477 136.276 65.1159 136.203 65.1841 136.129L65.1964 136.117C65.2626 136.042 65.3295 135.968 65.3963 135.89C65.4768 135.799 65.5573 135.705 65.6365 135.608C65.6787 135.557 65.7202 135.506 65.7605 135.455C65.9124 135.266 66.0597 135.072 66.2019 134.872C66.2441 134.815 66.2856 134.756 66.3259 134.696C66.396 134.598 66.4622 134.497 66.529 134.395C66.5862 134.307 66.6439 134.217 66.6978 134.127C66.7536 134.037 66.8095 133.947 66.862 133.854C66.8698 133.843 66.8763 133.833 66.8828 133.82C66.9289 133.74 66.975 133.659 67.0198 133.577C67.1645 133.317 67.2995 133.049 67.4261 132.774C67.4372 132.753 67.4462 132.731 67.4573 132.707C67.2775 132.395 67.1133 132.151 67.0126 132.068C66.9088 131.981 66.5232 131.899 66.0266 131.847C65.2866 133.317 64.2422 134.682 62.8135 135.89Z" fill="#B25414"/>
<path d="M66.0402 127.695C66.0408 127.177 64.9002 124.945 64.5326 124.635C64.1644 124.325 60.5376 124.062 60.1117 124.808C59.6865 125.553 59.5289 129.242 60.1117 129.515C60.6945 129.787 64.181 130.388 64.5102 130.233C64.8394 130.078 66.0395 128.213 66.0402 127.695Z" fill="#D3691A"/>
<path d="M63.0643 136.427C63.2694 136.523 63.8685 136.662 64.543 136.789C65.7283 135.644 66.7325 134.296 67.4575 132.709C67.2777 132.396 67.1135 132.151 67.0129 132.068C66.6825 131.792 63.444 131.556 63.0643 132.223C62.6845 132.889 62.5437 136.183 63.0643 136.427Z" fill="#D3691A"/>
<path d="M62.8135 135.89C62.8687 136.175 62.9511 136.374 63.064 136.427C63.2692 136.523 63.8683 136.662 64.5427 136.789C64.5518 136.78 64.5596 136.772 64.5687 136.764C64.6343 136.701 64.6992 136.636 64.7628 136.572C64.8355 136.499 64.9062 136.425 64.9796 136.349C65.0477 136.276 65.1159 136.203 65.1841 136.129L65.1964 136.117C65.2626 136.042 65.3295 135.968 65.3963 135.89C65.4768 135.799 65.5573 135.705 65.6365 135.608C65.6787 135.557 65.7202 135.506 65.7605 135.455C65.9124 135.266 66.0597 135.072 66.2019 134.872C66.2441 134.815 66.2856 134.756 66.3259 134.696C66.396 134.598 66.4622 134.497 66.529 134.395C66.5862 134.307 66.6439 134.217 66.6978 134.127C66.7536 134.037 66.8095 133.947 66.862 133.854C66.8698 133.843 66.8763 133.833 66.8828 133.82C66.9289 133.74 66.975 133.659 67.0198 133.577C67.1645 133.317 67.2995 133.049 67.4261 132.774C67.4372 132.753 67.4482 132.731 67.4573 132.709V132.707C67.2775 132.395 67.1133 132.151 67.0126 132.068C66.9088 131.981 66.5232 131.899 66.0266 131.847C65.2866 133.317 64.2422 134.682 62.8135 135.89Z" fill="#B25414"/>
<path d="M59.456 132.027C59.2883 131.605 57.0866 130.09 56.3353 130.295C55.9277 130.407 54.1702 131.833 54.0657 132.579C53.9617 133.325 55.1596 135.906 56.2042 136.024C57.0505 136.12 58.9854 135.248 59.2029 135.015C59.4205 134.782 59.6243 132.45 59.456 132.027Z" fill="#D3691A"/>
<path d="M58.778 140.422C58.7908 140.439 58.8123 140.456 58.8435 140.477C59.7448 140.084 60.6327 139.635 61.4819 139.122C61.5144 138.901 61.5242 138.715 61.5052 138.608C61.4592 138.352 60.1076 137.458 59.7313 137.455C59.2896 137.453 58.3736 138.443 58.3055 138.716C58.2406 138.975 58.5439 140.1 58.778 140.422Z" fill="#D3691A"/>
<path d="M58.778 140.422C58.7908 140.439 58.8123 140.456 58.8435 140.477C58.9563 140.427 59.0684 140.377 59.1811 140.326C59.2694 140.286 59.3594 140.245 59.4477 140.204C59.8784 140.002 60.3061 139.787 60.7264 139.556C60.7662 139.536 60.8048 139.513 60.8453 139.491C60.9507 139.432 61.056 139.373 61.1614 139.311C61.2699 139.249 61.3771 139.186 61.4819 139.122C61.5144 138.901 61.5242 138.715 61.5052 138.608C61.4727 138.428 60.7907 137.931 60.2607 137.651C59.6738 137.98 59.0445 138.291 58.3687 138.581C58.3368 138.635 58.3147 138.682 58.3055 138.716C58.2406 138.975 58.5439 140.1 58.778 140.422Z" fill="#B25414"/>
<path d="M51.8193 127.192C52.3396 127.436 54.6093 128.316 55.2097 128.246C55.6836 128.19 57.5972 126.428 57.5972 125.965C57.5972 125.429 57.227 123.949 56.9062 123.168C56.8814 123.179 56.8567 123.19 56.832 123.2C54.5699 124.195 52.9983 125.192 51.6362 126.151C51.5944 126.686 51.6344 127.105 51.8193 127.192Z" fill="#D3691A"/>
<path d="M63.0459 122.896C63.5282 123.122 66.3772 123.617 66.7415 123.508C65.7435 122.172 64.3509 121.218 62.7326 120.88C62.6984 121.828 62.7822 122.773 63.0459 122.896Z" fill="#D3691A"/>
<path d="M35.5398 137.421C35.6044 142.903 43.7536 143.086 46.1526 143.086C46.7659 143.086 47.6588 143.052 48.7418 142.95L48.7386 142.948C42.8565 139.257 43.574 133.39 44.9627 130.252C44.8168 130.312 44.6667 130.37 44.5128 130.429C38.2423 129.859 35.4789 131.526 35.8491 135.341C35.6279 136.108 35.5318 136.798 35.5398 137.421Z" fill="#915320"/>
<path d="M35.5398 137.421C35.6044 142.903 43.7536 143.086 46.1526 143.086C46.7659 143.086 47.6588 143.052 48.7418 142.95L48.7386 142.948C42.8565 139.257 43.574 133.39 44.9627 130.252C44.8168 130.312 44.6667 130.37 44.5128 130.429C38.2423 129.859 35.4789 131.526 35.8491 135.341C35.6279 136.108 35.5318 136.798 35.5398 137.421Z" fill="#915320"/>
<path d="M35.5398 137.421C35.6044 142.903 43.7536 143.086 46.1526 143.086C46.2098 143.086 46.2701 143.086 46.3321 143.084C46.4267 143.084 46.5261 143.083 46.6297 143.08C46.6639 143.078 46.6992 143.078 46.735 143.077C46.7708 143.075 46.8076 143.075 46.845 143.074C46.9551 143.07 47.0716 143.066 47.1923 143.06C47.2324 143.058 47.273 143.056 47.3147 143.054C47.397 143.049 47.4825 143.044 47.5674 143.04C47.6107 143.038 47.654 143.035 47.6989 143.032C47.9035 143.019 48.1188 143.002 48.3448 142.985C48.3625 142.984 48.379 142.982 48.3977 142.981C48.4832 142.973 48.5714 142.965 48.6601 142.957C48.6873 142.954 48.714 142.951 48.7418 142.95L48.7386 142.948C44.7875 140.469 43.814 137.007 44.0234 134.05C43.371 135.578 44.3889 139.079 42.6845 140.164C41.4171 140.969 36.968 140.414 35.5398 137.421Z" fill="#7A431A"/>
<path d="M57.4074 122.956C55.5227 124.071 53.7201 125.216 52.0109 126.565C50.7694 127.513 49.5478 128.527 48.2163 129.361C47.1278 130.05 45.9566 130.622 44.7542 131.073C44.6548 131.11 44.5495 131.123 44.4508 131.114C43.4981 131.027 42.5442 130.961 41.6041 130.989C40.6654 131.008 39.7333 131.126 38.8873 131.398C37.0278 131.957 36.25 133.389 36.4667 135.283C36.4739 135.363 36.4667 135.441 36.4448 135.514C35.7008 137.973 36.3732 140.047 38.8005 141.196C39.8665 141.72 41.0722 142.023 42.2924 142.214C44.7628 142.595 47.2881 142.509 49.7731 142.183C56.7939 141.266 65.2888 138.301 67.3829 130.802C68.3037 127.426 66.9688 123.273 63.6492 121.78C61.3975 120.723 58.8198 121.297 56.6429 122.437C57.569 121.536 58.7257 120.825 60.0367 120.467C64.4077 119.252 68.2779 122.859 68.9145 127.054C69.634 131.155 67.5008 135.256 64.4336 137.861C60.3786 141.287 55.0815 142.753 49.9314 143.434C45.8565 143.922 39.7499 144.046 36.517 141.129C34.835 139.61 34.615 137.23 35.2537 135.171L35.2325 135.402C34.8038 131.267 37.9652 129.821 41.5524 129.683C42.57 129.628 43.577 129.664 44.5753 129.745L44.2686 129.787C45.3961 129.352 46.4773 128.832 47.514 128.216C48.8224 127.434 50.0891 126.496 51.3762 125.66C53.2358 124.469 55.2703 123.507 57.4074 122.956Z" fill="#1E1E1E"/>
<path d="M45.0691 138.547C43.2825 137.186 43.0241 134.129 44.7119 132.59C44.6423 133.147 44.5573 133.642 44.5164 134.134C44.391 135.657 44.6899 137.059 45.0691 138.547Z" fill="#512717"/>
<path d="M40.1789 135.213C38.9913 135.133 36.4673 135.095 36.0631 136.477L35.1897 136.158C36.0805 134.373 38.6049 134.821 40.1789 135.213Z" fill="#512717"/>
<path d="M25.8921 122.956C32.3678 125.662 33.4375 128.394 38.7868 130.43C45.0569 129.86 47.8212 131.526 47.4505 135.343C49.62 142.861 39.8171 143.086 37.1462 143.086C33.4607 143.086 19.6554 141.826 15.6806 132.337C12.5856 124.951 19.3894 117.246 26.6574 122.437L25.8921 122.956Z" fill="#FECF1F"/>
<path d="M47.7603 137.421C47.6947 142.903 39.5461 143.086 37.1471 143.086C33.4609 143.086 19.6558 141.825 15.6798 132.337C14.5797 129.712 14.7298 127.045 15.7078 124.933C17.4804 121.102 21.9723 119.091 26.6572 122.436L25.8927 122.956C32.3687 125.661 33.4376 128.393 38.7865 130.429C45.0578 129.859 47.8205 131.526 47.45 135.341C47.672 136.108 47.7682 136.798 47.7603 137.421Z" fill="#FECF1F"/>
<path d="M47.7603 137.421C47.6947 142.903 39.5461 143.086 37.1471 143.086C36.5339 143.086 35.641 143.052 34.5583 142.95C29.1376 142.438 18.9939 140.246 15.6798 132.337C14.5797 129.712 14.7298 127.045 15.7078 124.933C17.4804 121.102 21.9723 119.091 26.6572 122.436L25.8927 122.956C32.1826 125.584 33.3726 128.236 38.3371 130.252C38.483 130.312 38.6332 130.37 38.7865 130.429C45.0578 129.859 47.8205 131.526 47.45 135.341C47.672 136.108 47.7682 136.798 47.7603 137.421Z" fill="#FECF1F"/>
<path d="M47.7603 137.421C47.6948 142.903 39.5464 143.086 37.1473 143.086C36.5339 143.086 35.641 143.052 34.5585 142.95C29.1378 142.438 18.9939 140.246 15.6797 132.337C14.5798 129.711 14.7298 127.045 15.7077 124.933C17.4803 121.102 21.9726 119.091 26.6568 122.436L25.8928 122.955C25.952 122.98 26.0091 123.003 26.0667 123.03L26.0725 123.031C26.2072 123.089 26.3393 123.145 26.4677 123.202C32.2602 125.749 33.5277 128.3 38.3376 130.252C38.4829 130.311 38.6335 130.37 38.7867 130.429C44.844 129.879 47.6288 131.416 47.4766 134.96C47.4724 135.084 47.4629 135.211 47.4502 135.341C47.6721 136.108 47.7682 136.798 47.7603 137.421Z" fill="#FECF1F"/>
<path d="M47.7603 137.421C47.6948 142.903 39.5464 143.086 37.1473 143.086C36.5339 143.086 35.641 143.052 34.5585 142.95C30.3371 142.551 23.2512 141.134 18.7572 136.79C17.5717 135.645 16.5678 134.297 15.8425 132.71C15.7865 132.586 15.7326 132.462 15.6797 132.337C14.5798 129.711 14.7298 127.045 15.7077 124.933C17.4803 121.102 21.9726 119.091 26.6568 122.436L25.8928 122.955C25.952 122.98 26.0091 123.003 26.0667 123.03L26.0725 123.031C26.1808 123.078 26.2896 123.123 26.3932 123.169C26.418 123.18 26.4428 123.191 26.4677 123.202C28.73 124.197 30.3012 125.193 31.6632 126.152C33.7892 127.651 35.4059 129.062 38.3376 130.252C38.4829 130.311 38.6335 130.37 38.7867 130.429C44.844 129.879 47.6288 131.416 47.4766 134.96C47.4724 135.084 47.4629 135.211 47.4502 135.341C47.6721 136.108 47.7682 136.798 47.7603 137.421Z" fill="#FECF1F"/>
<path d="M47.7603 137.421C47.6948 142.903 39.5464 143.086 37.1473 143.086C36.5339 143.086 35.641 143.052 34.5585 142.95C30.3371 142.551 23.2512 141.134 18.7572 136.79C17.5717 135.645 16.5678 134.297 15.8425 132.71C15.7865 132.586 15.7326 132.462 15.6797 132.337C14.5798 129.711 14.7298 127.045 15.7077 124.933C15.9444 124.421 16.2297 123.943 16.5583 123.504C17.5563 122.168 18.9496 121.214 20.5668 120.876C22.3927 120.493 24.5044 120.899 26.6568 122.436L25.8928 122.955C25.952 122.98 26.0091 123.003 26.0667 123.03L26.0725 123.031C26.1808 123.078 26.2896 123.123 26.3932 123.169C26.418 123.18 26.4428 123.191 26.4677 123.202C28.73 124.197 30.3012 125.193 31.6632 126.152C33.7892 127.651 35.4059 129.062 38.3376 130.252C38.4829 130.311 38.6335 130.37 38.7867 130.429C44.844 129.879 47.6288 131.416 47.4766 134.96C47.4724 135.084 47.4629 135.211 47.4502 135.341C47.6721 136.108 47.7682 136.798 47.7603 137.421Z" fill="#FECF1F"/>
<path d="M47.7603 137.421C47.6948 142.903 39.5464 143.086 37.1473 143.086C36.5339 143.086 35.641 143.052 34.5585 142.95C31.8804 142.697 28.0484 142.034 24.4568 140.474C23.5545 140.081 22.6663 139.632 21.8178 139.119C20.7189 138.456 19.6839 137.686 18.7572 136.79C17.5717 135.645 16.5678 134.297 15.8425 132.71C15.7865 132.586 15.7326 132.462 15.6797 132.337C14.5798 129.711 14.7298 127.045 15.7077 124.933C15.9444 124.421 16.2297 123.943 16.5583 123.504C17.5563 122.168 18.9496 121.214 20.5668 120.876C22.3927 120.493 24.5044 120.899 26.6568 122.436L25.8928 122.955C25.952 122.98 26.0091 123.003 26.0667 123.03L26.0725 123.031C26.1808 123.078 26.2896 123.123 26.3932 123.169C26.418 123.18 26.4428 123.191 26.4677 123.202C28.73 124.197 30.3012 125.193 31.6632 126.152C33.7892 127.651 35.4059 129.062 38.3376 130.252C38.4829 130.311 38.6335 130.37 38.7867 130.429C44.844 129.879 47.6288 131.416 47.4766 134.96C47.4724 135.084 47.4629 135.211 47.4502 135.341C47.6721 136.108 47.7682 136.798 47.7603 137.421Z" fill="#FECF1F"/>
<path d="M47.7598 137.421C47.6948 142.903 39.5456 143.086 37.1472 143.086C37.0896 143.086 37.0289 143.086 36.9676 143.084C36.8741 143.084 36.7748 143.083 36.6697 143.08C36.6359 143.078 36.5999 143.078 36.564 143.077C36.5286 143.075 36.4916 143.075 36.4541 143.074C36.3442 143.07 36.228 143.066 36.1076 143.06C36.0669 143.058 36.0268 143.056 35.9845 143.054C35.9026 143.049 35.8176 143.044 35.732 143.04C35.6892 143.038 35.6453 143.035 35.6004 143.032C35.396 143.019 35.1805 143.004 34.9544 142.985C34.9374 142.984 34.92 142.982 34.902 142.981C34.8165 142.973 34.7282 142.965 34.64 142.957C34.612 142.954 34.5856 142.951 34.5576 142.95L34.5608 142.948C38.5123 140.469 39.4854 137.007 39.2762 134.05C39.9286 135.578 38.9101 139.079 40.6148 140.164C41.8827 140.969 46.3308 140.414 47.7598 137.421Z" fill="#7A431A"/>
<path d="M26.6566 122.441L25.8926 122.961C24.7254 122.476 23.7006 120.626 18.8562 121.505C20.999 120.351 23.791 120.394 26.6566 122.441Z" fill="#FC9E22"/>
<path d="M47.7599 137.421C47.6949 142.903 39.5457 143.086 37.1474 143.086C33.4605 143.086 19.6561 141.825 15.6798 132.337C14.5794 129.712 14.7294 127.045 15.7078 124.933H15.7094C15.8193 130.561 18.0364 135.834 25.4915 138.811C34.3158 142.336 38.8532 137.963 39.0407 133.669C40.1485 134.887 38.748 138.975 40.615 140.164C41.8828 140.969 46.3309 140.414 47.7599 137.421Z" fill="#FC9E22"/>
<path d="M24.5212 140.422C24.5088 140.439 24.4872 140.456 24.4564 140.477C24.3432 140.427 24.2316 140.377 24.1184 140.326C24.03 140.286 23.9404 140.245 23.852 140.204C23.4212 140.002 22.9936 139.787 22.5736 139.556C22.5332 139.536 22.4944 139.513 22.4544 139.491C22.3488 139.432 22.2436 139.373 22.138 139.311C22.0296 139.249 21.9228 139.186 21.8176 139.122C21.7848 138.901 21.7756 138.715 21.794 138.608C21.8268 138.428 22.5084 137.931 23.0384 137.651C23.6256 137.98 24.2548 138.291 24.9304 138.581C24.9632 138.635 24.9848 138.682 24.994 138.716C25.0592 138.975 24.7552 140.1 24.5212 140.422Z" fill="#B25414"/>
<path d="M20.4863 135.89C20.4303 136.175 20.3483 136.374 20.2351 136.427C20.0307 136.523 19.4311 136.662 18.7571 136.789C18.7475 136.78 18.7399 136.772 18.7307 136.764C18.6655 136.701 18.6003 136.636 18.5371 136.572C18.4639 136.499 18.3927 136.425 18.3199 136.349C18.2519 136.276 18.1835 136.203 18.1155 136.129L18.1031 136.117C18.0363 136.042 17.9699 135.968 17.9031 135.89C17.8227 135.799 17.7419 135.705 17.6631 135.608C17.6211 135.557 17.5791 135.506 17.5391 135.455C17.3871 135.266 17.2399 135.072 17.0975 134.872C17.0555 134.815 17.0135 134.756 16.9735 134.696C16.9035 134.598 16.8371 134.497 16.7703 134.395C16.7131 134.307 16.6559 134.217 16.6015 134.127C16.5459 134.037 16.4899 133.947 16.4371 133.854C16.4295 133.843 16.4235 133.833 16.4171 133.82C16.3707 133.74 16.3243 133.659 16.2791 133.577C16.1351 133.317 16.0003 133.049 15.8731 132.774C15.8623 132.753 15.8531 132.731 15.8423 132.707C16.0219 132.395 16.1863 132.151 16.2871 132.068C16.3907 131.981 16.7767 131.899 17.2723 131.847C18.0131 133.317 19.0575 134.682 20.4863 135.89Z" fill="#B25414"/>
<path d="M17.2598 127.695C17.259 127.177 18.3998 124.945 18.7678 124.635C19.1358 124.325 22.7622 124.062 23.1882 124.808C23.6138 125.553 23.771 129.242 23.1886 129.515C22.6058 129.787 19.1194 130.388 18.7898 130.233C18.4606 130.078 17.2602 128.213 17.2598 127.695Z" fill="#D3691A"/>
<path d="M20.2351 136.427C20.0307 136.523 19.4311 136.662 18.7571 136.789C17.5715 135.644 16.5675 134.296 15.8423 132.709C16.0219 132.396 16.1863 132.151 16.2871 132.068C16.6171 131.792 19.8555 131.556 20.2351 132.223C20.6147 132.889 20.7559 136.183 20.2351 136.427Z" fill="#D3691A"/>
<path d="M20.4863 135.89C20.4303 136.175 20.3483 136.374 20.2351 136.427C20.0307 136.523 19.4311 136.662 18.7571 136.789C18.7475 136.78 18.7399 136.772 18.7307 136.764C18.6655 136.701 18.6003 136.636 18.5371 136.572C18.4639 136.499 18.3927 136.425 18.3199 136.349C18.2519 136.276 18.1835 136.203 18.1155 136.129L18.1031 136.117C18.0363 136.042 17.9699 135.968 17.9031 135.89C17.8227 135.799 17.7419 135.705 17.6631 135.608C17.6211 135.557 17.5791 135.506 17.5391 135.455C17.3871 135.266 17.2399 135.072 17.0975 134.872C17.0555 134.815 17.0135 134.756 16.9735 134.696C16.9035 134.598 16.8371 134.497 16.7703 134.395C16.7131 134.307 16.6559 134.217 16.6015 134.127C16.5459 134.037 16.4899 133.947 16.4371 133.854C16.4295 133.843 16.4235 133.833 16.4171 133.82C16.3707 133.74 16.3243 133.659 16.2791 133.577C16.1351 133.317 16.0003 133.049 15.8731 132.774C15.8623 132.753 15.8515 132.731 15.8423 132.709V132.707C16.0219 132.395 16.1863 132.151 16.2871 132.068C16.3907 131.981 16.7767 131.899 17.2723 131.847C18.0131 133.317 19.0575 134.682 20.4863 135.89Z" fill="#B25414"/>
<path d="M23.8439 132.027C24.0117 131.605 26.2134 130.09 26.9646 130.295C27.3719 130.407 29.1293 131.833 29.234 132.579C29.3382 133.325 28.1398 135.906 27.0958 136.024C26.2495 136.12 24.3148 135.248 24.0968 135.015C23.8788 134.782 23.6757 132.45 23.8439 132.027Z" fill="#D3691A"/>
<path d="M24.5212 140.422C24.5088 140.439 24.4872 140.456 24.4564 140.477C23.5544 140.084 22.6664 139.635 21.8176 139.122C21.7848 138.901 21.7756 138.715 21.794 138.608C21.8408 138.352 23.192 137.458 23.5684 137.455C24.01 137.453 24.926 138.443 24.994 138.716C25.0592 138.975 24.7552 140.1 24.5212 140.422Z" fill="#D3691A"/>
<path d="M24.5212 140.422C24.5088 140.439 24.4872 140.456 24.4564 140.477C24.3432 140.427 24.2316 140.377 24.1184 140.326C24.03 140.286 23.9404 140.245 23.852 140.204C23.4212 140.002 22.9936 139.787 22.5736 139.556C22.5332 139.536 22.4944 139.513 22.4544 139.491C22.3488 139.432 22.2436 139.373 22.138 139.311C22.0296 139.249 21.9228 139.186 21.8176 139.122C21.7848 138.901 21.7756 138.715 21.794 138.608C21.8268 138.428 22.5084 137.931 23.0384 137.651C23.6256 137.98 24.2548 138.291 24.9304 138.581C24.9632 138.635 24.9848 138.682 24.994 138.716C25.0592 138.975 24.7552 140.1 24.5212 140.422Z" fill="#B25414"/>
<path d="M31.4803 127.192C30.9598 127.436 28.6893 128.316 28.0898 128.246C27.6157 128.19 25.7019 126.428 25.7019 125.965C25.7019 125.429 26.0724 123.949 26.393 123.168C26.4179 123.179 26.4428 123.19 26.4673 123.201C28.7297 124.195 30.301 125.192 31.663 126.151C31.7051 126.686 31.6647 127.105 31.4803 127.192Z" fill="#D3691A"/>
<path d="M20.2539 122.896C19.7719 123.122 16.9223 123.617 16.5583 123.508C17.5559 122.172 18.9491 121.218 20.5667 120.88C20.6011 121.828 20.5171 122.773 20.2539 122.896Z" fill="#D3691A"/>
<path d="M47.76 137.421C47.6945 142.903 39.5459 143.086 37.1469 143.086C36.5337 143.086 35.6408 143.052 34.5581 142.95L34.5607 142.948C40.443 139.257 39.7256 133.39 38.3369 130.252C38.4828 130.312 38.6329 130.37 38.7862 130.429C45.0576 129.859 47.8203 131.526 47.4497 135.341C47.6718 136.108 47.768 136.798 47.76 137.421Z" fill="#915320"/>
<path d="M47.76 137.421C47.6945 142.903 39.5459 143.086 37.1469 143.086C36.5337 143.086 35.6408 143.052 34.5581 142.95L34.5607 142.948C40.443 139.257 39.7256 133.39 38.3369 130.252C38.4828 130.312 38.6329 130.37 38.7862 130.429C45.0576 129.859 47.8203 131.526 47.4497 135.341C47.6718 136.108 47.768 136.798 47.76 137.421Z" fill="#915320"/>
<path d="M38.193 130.195C38.1812 130.191 38.17 130.186 38.1587 130.181C38.17 130.186 38.1812 130.191 38.193 130.195Z" fill="#FFFBEA"/>
<path d="M38.1398 130.172C38.1358 130.17 38.1322 130.168 38.1282 130.167C38.1317 130.168 38.1358 130.17 38.1398 130.172Z" fill="#FFFBEA"/>
<path d="M38.1279 130.164C35.3273 128.992 33.7377 127.612 31.663 126.15C30.4943 125.327 29.1716 124.476 27.3901 123.623C32.3335 125.991 33.7499 128.332 38.1279 130.164Z" fill="#FFFBEA"/>
<path d="M26.4678 123.211C26.443 123.2 26.4182 123.189 26.3934 123.179C26.3774 123.171 26.3614 123.164 26.345 123.157C26.3862 123.175 26.427 123.193 26.4678 123.211Z" fill="#FFFBEA"/>
<path d="M26.2025 123.086C26.1593 123.068 26.1161 123.05 26.0725 123.031C26.1161 123.049 26.1593 123.068 26.2025 123.086Z" fill="#FFFBEA"/>
<path d="M47.7598 137.421C47.6948 142.903 39.5456 143.086 37.1472 143.086C37.0896 143.086 37.0289 143.086 36.9676 143.084C36.8725 143.084 36.7732 143.083 36.6697 143.08C36.6359 143.078 36.5999 143.078 36.564 143.077C36.5286 143.075 36.4916 143.075 36.4541 143.074C36.3442 143.07 36.228 143.066 36.1076 143.06C36.0669 143.058 36.0268 143.056 35.9845 143.054C35.9026 143.049 35.8176 143.044 35.732 143.04C35.6892 143.038 35.6453 143.035 35.6004 143.032C35.396 143.019 35.1805 143.002 34.9544 142.985C34.9374 142.984 34.92 142.982 34.902 142.981C34.8165 142.973 34.7282 142.965 34.64 142.957C34.612 142.954 34.5856 142.951 34.5576 142.95L34.5608 142.948C38.5123 140.469 39.4854 137.007 39.2762 134.05C39.9286 135.578 38.9101 139.079 40.6148 140.164C41.8827 140.969 46.3308 140.414 47.7598 137.421Z" fill="#7A431A"/>
<path d="M25.892 122.956C28.0299 123.507 30.0642 124.469 31.9239 125.66C33.2118 126.497 34.4767 127.434 35.7859 128.216C36.8223 128.832 37.9041 129.352 39.0312 129.787L38.7247 129.745C39.7227 129.665 40.7302 129.628 41.7479 129.683C45.3253 129.818 48.5006 131.269 48.0671 135.402L48.0463 135.171C48.6833 137.227 48.4659 139.611 46.7824 141.129C43.5548 144.045 37.4395 143.922 33.3688 143.434C28.2189 142.753 22.9206 141.287 18.8659 137.861C15.7995 135.256 13.6649 131.155 14.3854 127.054C15.0245 122.86 18.8867 119.252 23.2634 120.467C24.5743 120.825 25.7308 121.536 26.6572 122.437C24.4814 121.298 21.9003 120.723 19.6508 121.78C16.3318 123.273 14.9957 127.425 15.917 130.802C18.0137 138.302 26.5039 141.264 33.5263 142.184C36.0113 142.509 38.5373 142.596 41.0079 142.214C42.2279 142.023 43.433 141.72 44.4993 141.197C46.9223 140.047 47.6004 137.978 46.855 135.514C46.8331 135.437 46.8262 135.357 46.8337 135.283C46.9191 134.391 46.8246 133.504 46.4023 132.825C45.9938 132.138 45.2591 131.665 44.4128 131.398C43.5665 131.126 42.6342 131.008 41.6956 130.989C40.7558 130.961 39.8017 131.027 38.8491 131.114C38.7434 131.124 38.6414 131.109 38.5491 131.075C37.345 130.623 36.173 130.051 35.0838 129.361C33.7527 128.527 32.53 127.512 31.2891 126.565C29.5799 125.217 27.7774 124.071 25.892 122.956Z" fill="#1E1E1E"/>
<path d="M38.231 138.547C38.6096 137.059 38.9087 135.657 38.7837 134.134C38.7423 133.642 38.6574 133.147 38.5879 132.59C40.2757 134.129 40.0167 137.186 38.231 138.547Z" fill="#1E1E1E"/>
<path d="M43.1208 135.213C44.693 134.821 47.22 134.373 48.11 136.158L47.2364 136.477C46.8322 135.095 44.3111 135.133 43.1208 135.213Z" fill="#1E1E1E"/>
</svg>
