<svg width="258" height="265" viewBox="0 0 258 265" fill="none" xmlns="http://www.w3.org/2000/svg">
<path opacity="0.1" d="M464.889 172.552C484.774 214.829 465.962 249.403 438.355 267.967C410.997 286.363 366.119 278.644 334.351 238.373C342.564 249.712 358.69 293.657 334.778 325.71C309.995 358.932 277.586 359.341 251.123 348.296C209.602 330.966 180.953 297.193 158.101 266.546C163.348 292.865 166.461 334.295 140.548 361.907C114.635 389.519 66.6158 388.365 34.9305 330.325C3.24523 272.284 -34.1554 142.773 59.5337 106.03C97.1024 91.2966 135.904 114.705 155.796 130.393C164.408 137.184 189.105 158.217 218.316 192.561C187.258 148.013 153.136 66.7936 196.135 24.7533C282.133 -59.3271 429.31 96.9093 464.889 172.552Z" fill="#7DADFE"/>
</svg>
