<svg width="160" height="160" viewBox="0 0 160 160" fill="none" xmlns="http://www.w3.org/2000/svg">
<g opacity="0.2">
<path d="M41.1919 143.797C59.4945 143.797 74.3316 142.261 74.3316 140.367C74.3316 138.473 59.4945 136.938 41.1919 136.938C22.8894 136.938 8.05225 138.473 8.05225 140.367C8.05225 142.261 22.8894 143.797 41.1919 143.797Z" fill="#1E1E1E"/>
</g>
<path d="M40.6381 43.0351C35.4283 43.0351 31.1899 38.7988 31.1899 33.5917C31.1899 28.3846 35.4283 24.1484 40.6381 24.1484C45.848 24.1484 50.0865 28.3846 50.0865 33.5917C50.0865 38.7988 45.848 43.0351 40.6381 43.0351ZM40.6381 25.5325C36.192 25.5325 32.5747 29.1479 32.5747 33.5917C32.5747 38.0356 36.1921 41.651 40.6381 41.651C45.0844 41.651 48.7017 38.0356 48.7017 33.5917C48.7017 29.1479 45.0845 25.5325 40.6381 25.5325Z" fill="white"/>
<path d="M40.6381 43.9362C34.9322 43.9362 30.29 39.2962 30.29 33.593C30.29 27.8898 34.9322 23.25 40.6381 23.25C46.3439 23.25 50.9861 27.8898 50.9861 33.593C50.9861 39.2962 46.3439 43.9362 40.6381 43.9362ZM40.6381 26.4336C36.6881 26.4336 33.4744 29.6452 33.4744 33.593C33.4744 37.5408 36.6881 40.7526 40.6381 40.7526C44.5881 40.7526 47.8018 37.5408 47.8018 33.593C47.8018 29.6452 44.5881 26.4336 40.6381 26.4336Z" fill="#1E1E1E"/>
<path d="M42.9953 37.483H38.2303C37.5125 37.483 36.9307 36.9011 36.9307 36.1834V34.1433C36.9307 33.4256 37.5125 32.8438 38.2303 32.8438H42.9953C43.713 32.8438 44.2949 33.4256 44.2949 34.1433V36.1834C44.2949 36.9011 43.713 37.483 42.9953 37.483Z" fill="#7DADFE"/>
<path d="M42.9952 38.5731H38.2302C36.9072 38.5731 35.8308 37.4967 35.8308 36.1737V34.1337C35.8308 32.8107 36.9072 31.7344 38.2302 31.7344H42.9952C44.3183 31.7344 45.3947 32.8107 45.3947 34.1337V36.1737C45.3947 37.4967 44.3183 38.5731 42.9952 38.5731ZM38.2302 33.9338C38.1201 33.9338 38.0304 34.0234 38.0304 34.1337V36.1737C38.0304 36.2839 38.1201 36.3736 38.2302 36.3736H42.9952C43.1054 36.3736 43.1951 36.2839 43.1951 36.1737V34.1337C43.1951 34.0234 43.1054 33.9338 42.9952 33.9338H38.2302Z" fill="#1E1E1E"/>
<path d="M43.0008 37.4844H38.136V45.4479H43.0008V37.4844Z" fill="#7DADFE"/>
<path d="M43.0008 46.5379H38.1359C37.5285 46.5379 37.0361 46.0455 37.0361 45.4382V37.4747C37.0361 36.8674 37.5285 36.375 38.1359 36.375H43.0008C43.6082 36.375 44.1006 36.8674 44.1006 37.4747V45.4382C44.1006 46.0455 43.6082 46.5379 43.0008 46.5379ZM39.2357 44.3385H41.901V38.5744H39.2357V44.3385Z" fill="#1E1E1E"/>
<path d="M68.0432 48.9775L73.1943 54.0523C73.7015 54.5519 74.5176 54.5461 75.0175 54.0391L77.5483 51.473C78.0486 50.9657 78.0427 50.1489 77.5352 49.6489L72.3841 44.5741C71.877 44.0744 71.0608 44.0803 70.5609 44.5872L68.0301 47.1533C67.5298 47.6605 67.5357 48.4774 68.0432 48.9775Z" fill="#7DADFE"/>
<path d="M74.0992 55.6548C73.458 55.6548 72.8168 55.4132 72.3254 54.929L67.1744 49.8542V49.8543C66.6932 49.3803 66.4256 48.7473 66.4205 48.0718C66.4156 47.3964 66.6742 46.7596 67.1484 46.2786L69.6792 43.7124C70.6576 42.7205 72.2607 42.7091 73.2531 43.6866L78.404 48.7616C78.8853 49.2355 79.1529 49.8685 79.158 50.544C79.1628 51.2194 78.9042 51.8562 78.43 52.3372L75.8992 54.9033C75.4055 55.4039 74.7524 55.6548 74.0992 55.6548ZM71.4791 45.4362C71.4658 45.4362 71.4526 45.4413 71.4424 45.4515L68.9117 48.0174C68.9072 48.0219 68.8969 48.0325 68.8971 48.0539C68.8971 48.0751 68.9078 48.0856 68.9123 48.0901C68.9123 48.0901 68.9123 48.0901 68.9123 48.0902L74.0633 53.165C74.0834 53.1847 74.116 53.1846 74.1361 53.1643L76.6668 50.5984C76.6713 50.5939 76.6816 50.5833 76.6814 50.562C76.6814 50.5407 76.6707 50.5302 76.6662 50.5257L71.5152 45.4508C71.5053 45.4411 71.4922 45.4362 71.4791 45.4362Z" fill="#1E1E1E"/>
<path d="M63.3208 55.493L66.7856 58.9062L72.3759 53.2316L68.9111 49.8183L63.3208 55.493Z" fill="#7DADFE"/>
<path d="M66.7891 60.1548C66.4753 60.1548 66.1614 60.0364 65.9202 59.7987L62.4555 56.3854C62.2215 56.1549 62.0887 55.8408 62.0862 55.5122C62.0839 55.1837 62.2122 54.8678 62.4429 54.6339L68.0362 48.9625C68.5167 48.4757 69.2999 48.4702 69.7868 48.9499L73.2514 52.3632C73.4854 52.5937 73.6183 52.9078 73.6208 53.2364C73.6231 53.5649 73.4948 53.8808 73.2641 54.1147L67.6708 59.7861C67.4284 60.0318 67.1089 60.1548 66.7891 60.1548ZM65.076 55.4908L66.7764 57.1661L70.6309 53.2579L68.9305 51.5826L65.076 55.4908Z" fill="#1E1E1E"/>
<path d="M12.7568 49.2196L7.60577 54.2944C7.09861 54.7941 6.28249 54.7882 5.78257 54.2813L3.25177 51.7152C2.75149 51.2079 2.75737 50.391 3.26489 49.891L8.41597 44.8162C8.92313 44.3166 9.73925 44.3224 10.2392 44.8294L12.77 47.3955C13.2702 47.9027 13.2643 48.7196 12.7568 49.2196Z" fill="#7DADFE"/>
<path d="M6.70076 55.9125C6.04744 55.9125 5.39472 55.6617 4.90076 55.1611L2.37008 52.595C1.89588 52.1141 1.63728 51.4773 1.64216 50.8018C1.64684 50.1264 1.91463 49.4933 2.39587 49.0193L7.54684 43.9445C8.53904 42.9668 10.1426 42.9785 11.1207 43.9702L13.6515 46.5363C14.1257 47.0172 14.3841 47.654 14.3794 48.3294C14.3746 49.0048 14.107 49.6378 13.6259 50.1119C13.6259 50.112 13.6257 50.1119 13.6257 50.1119L8.47456 55.1867C7.9832 55.6709 7.3418 55.9125 6.70076 55.9125ZM9.32087 45.6939C9.30779 45.6939 9.29472 45.6987 9.28476 45.7086L4.13379 50.7834C4.12931 50.7878 4.11855 50.7984 4.11855 50.8196C4.11835 50.8409 4.12892 50.8515 4.1334 50.856L6.66408 53.4222C6.684 53.4424 6.71679 53.4426 6.73671 53.4227L11.8879 48.3479L11.8877 48.348C11.8924 48.3435 11.9029 48.333 11.9031 48.3117C11.9031 48.2904 11.8928 48.2798 11.8883 48.2752L9.35744 45.7091C9.34744 45.699 9.33415 45.6939 9.32087 45.6939Z" fill="#1E1E1E"/>
<path d="M11.8852 50.0867L8.42041 53.5L14.0107 59.1747L17.4755 55.7614L11.8852 50.0867Z" fill="#7DADFE"/>
<path d="M14.0109 60.4126C13.6912 60.4126 13.3716 60.2896 13.1292 60.0439L7.53587 54.3724C7.30519 54.1385 7.17687 53.8226 7.17923 53.4941C7.18175 53.1656 7.31459 52.8514 7.54855 52.6209L11.0132 49.2076C11.5001 48.7282 12.2835 48.7334 12.7638 49.2202L18.3571 54.8917C18.5878 55.1255 18.7162 55.4415 18.7138 55.77C18.7113 56.0985 18.5784 56.4125 18.3445 56.6431L14.8798 60.0565C14.6388 60.2941 14.3248 60.4126 14.0109 60.4126ZM10.1691 53.5156L14.0234 57.4239L15.7239 55.7485L11.8695 51.8403L10.1691 53.5156Z" fill="#1E1E1E"/>
<path d="M40.6383 122.415C62.3983 122.415 80.0383 104.784 80.0383 83.0355C80.0383 61.287 62.3983 43.6562 40.6383 43.6562C18.8783 43.6562 1.23828 61.287 1.23828 83.0355C1.23828 104.784 18.8783 122.415 40.6383 122.415Z" fill="#7DADFE"/>
<g opacity="0.3">
<path d="M5.2356 100.328C5.3064 100.473 5.37739 100.617 5.45003 100.761C5.37747 100.617 5.3064 100.473 5.2356 100.328Z" fill="#1E1E1E"/>
</g>
<g opacity="0.3">
<path d="M5.59204 101.039C5.7316 101.31 5.87416 101.579 6.01976 101.846C5.87416 101.579 5.73156 101.31 5.59204 101.039Z" fill="#1E1E1E"/>
</g>
<g opacity="0.3">
<path d="M6.56592 102.82C6.646 102.958 6.72668 103.095 6.80832 103.231C6.72668 103.095 6.64592 102.958 6.56592 102.82Z" fill="#1E1E1E"/>
</g>
<g opacity="0.3">
<path d="M12.6716 110.773C12.7707 110.873 12.8697 110.973 12.9697 111.071C12.8697 110.973 12.7706 110.873 12.6716 110.773Z" fill="#1E1E1E"/>
</g>
<g opacity="0.3">
<path d="M37.6592 122.312C37.7311 122.318 37.8034 122.322 37.8754 122.327C37.8034 122.322 37.731 122.318 37.6592 122.312Z" fill="#1E1E1E"/>
</g>
<g opacity="0.3">
<path d="M6.98096 103.523C7.06444 103.66 7.14756 103.797 7.23264 103.933C7.14756 103.797 7.06448 103.66 6.98096 103.523Z" fill="#1E1E1E"/>
</g>
<g opacity="0.3">
<path d="M7.35034 104.117C7.5223 104.388 7.6975 104.657 7.87594 104.923C7.69762 104.657 7.5223 104.388 7.35034 104.117Z" fill="#1E1E1E"/>
</g>
<g opacity="0.3">
<path d="M11.3782 109.406C11.526 109.57 11.6751 109.732 11.8255 109.893C11.6751 109.732 11.5259 109.57 11.3782 109.406Z" fill="#1E1E1E"/>
</g>
<g opacity="0.3">
<path d="M34.7427 121.977C34.8331 121.99 34.9239 122.003 35.0146 122.016C34.924 122.003 34.8331 121.99 34.7427 121.977Z" fill="#1E1E1E"/>
</g>
<g opacity="0.3">
<path d="M8.06592 105.203C8.1536 105.332 8.24228 105.459 8.33156 105.587C8.2424 105.459 8.15364 105.332 8.06592 105.203Z" fill="#1E1E1E"/>
</g>
<g opacity="0.3">
<path d="M8.53198 105.867C8.62182 105.993 8.71166 106.119 8.80286 106.244C8.71166 106.119 8.6217 105.993 8.53198 105.867Z" fill="#1E1E1E"/>
</g>
<g opacity="0.3">
<path d="M10.24 108.094C10.335 108.209 10.4305 108.323 10.5267 108.437C10.4305 108.323 10.335 108.209 10.24 108.094Z" fill="#1E1E1E"/>
</g>
<g opacity="0.3">
<path d="M9.72681 107.453C9.82009 107.571 9.91481 107.688 10.0094 107.804C9.91481 107.688 9.82009 107.571 9.72681 107.453Z" fill="#1E1E1E"/>
</g>
<g opacity="0.3">
<path d="M17.5527 114.945C17.6537 115.018 17.7547 115.092 17.8565 115.164C17.7547 115.092 17.6537 115.018 17.5527 114.945Z" fill="#1E1E1E"/>
</g>
<g opacity="0.3">
<path d="M20.6135 116.961C20.7084 117.017 20.8029 117.073 20.8982 117.129C20.8029 117.074 20.7083 117.017 20.6135 116.961Z" fill="#1E1E1E"/>
</g>
<g opacity="0.3">
<path d="M21.584 117.516C21.6524 117.553 21.7217 117.59 21.7903 117.627C21.7217 117.59 21.6525 117.553 21.584 117.516Z" fill="#1E1E1E"/>
</g>
<g opacity="0.3">
<path d="M33.8855 121.844C33.9062 121.847 33.9271 121.85 33.9478 121.854C33.9271 121.85 33.9062 121.847 33.8855 121.844Z" fill="#1E1E1E"/>
</g>
<g opacity="0.3">
<path d="M22.3176 117.906C22.4152 117.958 22.5134 118.008 22.6116 118.059C22.5134 118.008 22.4152 117.958 22.3176 117.906Z" fill="#1E1E1E"/>
</g>
<g opacity="0.3">
<path d="M13.2781 111.375C13.4187 111.511 13.5602 111.646 13.7029 111.779C13.5602 111.646 13.4187 111.511 13.2781 111.375Z" fill="#1E1E1E"/>
</g>
<g opacity="0.3">
<path d="M14.7109 112.688C14.8126 112.776 14.9145 112.865 15.0171 112.952C14.9145 112.865 14.8126 112.776 14.7109 112.688Z" fill="#1E1E1E"/>
</g>
<g opacity="0.3">
<path d="M14.0972 112.141C14.1953 112.23 14.2946 112.318 14.3936 112.407C14.2946 112.318 14.1953 112.23 14.0972 112.141Z" fill="#1E1E1E"/>
</g>
<g opacity="0.3">
<path d="M30.0393 120.984C30.1065 121.003 30.1732 121.023 30.2405 121.041C30.1732 121.023 30.1065 121.003 30.0393 120.984Z" fill="#1E1E1E"/>
</g>
<g opacity="0.3">
<path d="M29.1299 120.711C29.2263 120.74 29.3226 120.77 29.4193 120.798C29.3226 120.77 29.2262 120.74 29.1299 120.711Z" fill="#1E1E1E"/>
</g>
<g opacity="0.3">
<path d="M28.3037 120.453C28.3974 120.484 28.4914 120.514 28.5854 120.544C28.4914 120.514 28.3974 120.484 28.3037 120.453Z" fill="#1E1E1E"/>
</g>
<g opacity="0.3">
<path d="M32.7773 121.633C32.8655 121.651 32.9534 121.669 33.0417 121.686C32.9534 121.669 32.8654 121.651 32.7773 121.633Z" fill="#1E1E1E"/>
</g>
<g opacity="0.3">
<path d="M26.4587 119.789C26.5484 119.824 26.6379 119.859 26.7278 119.893C26.6378 119.859 26.5484 119.824 26.4587 119.789Z" fill="#1E1E1E"/>
</g>
<g opacity="0.3">
<path d="M25.6411 119.469C25.7393 119.509 25.8376 119.549 25.936 119.589C25.8376 119.549 25.7392 119.509 25.6411 119.469Z" fill="#1E1E1E"/>
</g>
<g opacity="0.3">
<path d="M27.502 120.172C27.5462 120.188 27.5909 120.202 27.6353 120.218C27.5909 120.202 27.5462 120.187 27.502 120.172Z" fill="#1E1E1E"/>
</g>
<path d="M40.6383 123.665C18.2303 123.665 0 105.444 0 83.0472C0 60.6506 18.2303 42.4297 40.6383 42.4297C63.0463 42.4297 81.2766 60.6506 81.2766 83.0472C81.2766 105.444 63.0463 123.665 40.6383 123.665ZM40.6383 44.906C19.5959 44.906 2.47656 62.0161 2.47656 83.0472C2.47656 104.078 19.5959 121.188 40.6383 121.188C61.6807 121.188 78.8 104.078 78.8 83.0472C78.8 62.0161 61.6807 44.906 40.6383 44.906Z" fill="#1E1E1E"/>
<path d="M40.6381 115.574C58.6171 115.574 73.192 101.006 73.192 83.0368C73.192 65.0672 58.6171 50.5 40.6381 50.5C22.6591 50.5 8.08423 65.0672 8.08423 83.0368C8.08423 101.006 22.6591 115.574 40.6381 115.574Z" fill="#7DADFE"/>
<path d="M40.6381 116.679C22.0815 116.679 6.98438 101.59 6.98438 83.0428C6.98438 64.4955 22.0815 49.4062 40.6381 49.4062C59.1947 49.4062 74.2918 64.4955 74.2918 83.0428C74.2918 101.59 59.1947 116.679 40.6381 116.679ZM40.6381 51.6056C23.2941 51.6056 9.18381 65.7083 9.18381 83.0428C9.18381 100.377 23.2942 114.48 40.6381 114.48C57.982 114.48 72.0924 100.377 72.0924 83.0428C72.0924 65.7083 57.9821 51.6056 40.6381 51.6056Z" fill="#1E1E1E"/>
<path d="M40.6382 110.633C55.8817 110.633 68.239 98.2827 68.239 83.0472C68.239 67.8117 55.8817 55.4609 40.6382 55.4609C25.3947 55.4609 13.0374 67.8117 13.0374 83.0472C13.0374 98.2827 25.3947 110.633 40.6382 110.633Z" fill="white"/>
<path d="M40.6383 110.732C25.3641 110.732 12.9375 98.312 12.9375 83.0457C12.9375 67.7794 25.3641 55.3594 40.6383 55.3594C55.9125 55.3594 68.3391 67.7794 68.3391 83.0457C68.3391 98.312 55.9125 110.732 40.6383 110.732ZM40.6383 55.5594C25.4742 55.5594 13.1375 67.8897 13.1375 83.0457C13.1375 98.2017 25.4742 110.532 40.6383 110.532C55.8024 110.532 68.1391 98.2017 68.1391 83.0457C68.1391 67.8897 55.8024 55.5594 40.6383 55.5594Z" fill="#1E1E1E"/>
<path d="M40.6382 110.633C55.8817 110.633 68.239 98.2827 68.239 83.0472C68.239 67.8117 55.8817 55.4609 40.6382 55.4609C25.3947 55.4609 13.0374 67.8117 13.0374 83.0472C13.0374 98.2827 25.3947 110.633 40.6382 110.633Z" fill="white"/>
<path d="M40.6383 110.732C25.3641 110.732 12.9375 98.312 12.9375 83.0457C12.9375 67.7794 25.3641 55.3594 40.6383 55.3594C55.9125 55.3594 68.3391 67.7794 68.3391 83.0457C68.3391 98.312 55.9125 110.732 40.6383 110.732ZM40.6383 55.5594C25.4742 55.5594 13.1375 67.8897 13.1375 83.0457C13.1375 98.2017 25.4742 110.532 40.6383 110.532C55.8024 110.532 68.1391 98.2017 68.1391 83.0457C68.1391 67.8897 55.8024 55.5594 40.6383 55.5594Z" fill="#1E1E1E"/>
<path d="M40.6383 112.561C24.349 112.561 11.0967 99.3153 11.0967 83.0344C11.0967 66.7534 24.349 53.5078 40.6383 53.5078C56.9275 53.5078 70.1799 66.7534 70.1799 83.0344C70.1799 99.3153 56.9275 112.561 40.6383 112.561ZM40.6383 55.3074C25.3412 55.3074 12.8963 67.7457 12.8963 83.0344C12.8963 98.323 25.3412 110.761 40.6383 110.761C55.9354 110.761 68.3803 98.323 68.3803 83.0344C68.3803 67.7457 55.9354 55.3074 40.6383 55.3074Z" fill="#1E1E1E"/>
<path d="M40.638 86.7849C39.6773 86.7849 38.7168 86.4194 37.9853 85.6884C37.2767 84.9802 36.8865 84.0386 36.8865 83.037C36.8865 82.0354 37.2767 81.0939 37.9853 80.3857C39.4482 78.9235 41.8279 78.9235 43.2908 80.3857C43.9994 81.0939 44.3896 82.0354 44.3896 83.037C44.3896 84.0386 43.9994 84.9802 43.2908 85.6884C42.5593 86.4194 41.5988 86.7849 40.638 86.7849ZM40.638 79.489C39.7285 79.489 38.8191 79.835 38.1267 80.527C37.456 81.1974 37.0865 82.0888 37.0865 83.037C37.0865 83.9852 37.456 84.8766 38.1267 85.547C39.5115 86.9311 41.7646 86.9311 43.1494 85.547C43.8201 84.8766 44.1896 83.9852 44.1896 83.037C44.1896 82.0888 43.8201 81.1974 43.1494 80.527C42.457 79.8349 41.5476 79.489 40.638 79.489Z" fill="#1E1E1E"/>
<path d="M40.6381 87.5085C39.4916 87.5085 38.3453 87.0723 37.4725 86.2C36.6267 85.3547 36.1611 84.2309 36.1611 83.0355C36.1611 81.8401 36.6268 80.7162 37.4725 79.8709C39.2182 78.1264 42.058 78.1264 43.8037 79.8709C44.6494 80.7162 45.115 81.8401 45.115 83.0355C45.115 84.2309 44.6494 85.3547 43.8037 86.2C42.9308 87.0723 41.7846 87.5085 40.6381 87.5085ZM40.6381 80.2126C39.9143 80.2126 39.1906 80.4878 38.6396 81.0386C38.1058 81.572 37.8121 82.2811 37.8121 83.0354C37.8121 83.7897 38.1059 84.4988 38.6396 85.0322C39.7416 86.1337 41.5346 86.1337 42.6365 85.0322C43.1703 84.4988 43.464 83.7897 43.464 83.0354C43.464 82.2811 43.1703 81.572 42.6365 81.0386C42.0856 80.4879 41.3619 80.2126 40.6381 80.2126Z" fill="#1E1E1E"/>
<path d="M30.8499 71.5542L36.2607 76.9528L38.9787 79.6395L41.6779 82.345H39.952L53.3217 69.0138C53.7901 68.5467 54.5487 68.5476 55.0161 69.0158C55.4835 69.484 55.4846 70.2403 55.0161 70.7074L41.6779 84.0701C41.2024 84.5464 40.4306 84.5473 39.9539 84.0721L39.9519 84.0701L37.2449 81.3723L34.5568 78.6558L29.1554 73.2478C28.6879 72.7797 28.6885 72.0215 29.1569 71.5543C29.6252 71.0869 30.3824 71.0861 30.8499 71.5542Z" fill="#1E1E1E"/>
<path d="M56.6551 67.8535C56.4438 67.8535 56.2324 67.7729 56.0713 67.6117C55.749 67.2892 55.749 66.7665 56.0715 66.4442L60.3076 62.2103C60.6299 61.888 61.1527 61.8883 61.475 62.2106C61.7973 62.5331 61.7973 63.0558 61.4748 63.3781L57.2387 67.6119C57.0775 67.773 56.8662 67.8535 56.6551 67.8535Z" fill="#1E1E1E"/>
<path d="M62.4146 77.6272C62.0554 77.6272 61.7249 77.391 61.6214 77.0286C61.496 76.5902 61.7495 76.1332 62.188 76.0078L67.9476 74.3603C68.3851 74.2346 68.8427 74.4885 68.9681 74.9269C69.0935 75.3652 68.84 75.8222 68.4015 75.9476L62.6419 77.5952C62.5661 77.6169 62.4898 77.6272 62.4146 77.6272Z" fill="#1E1E1E"/>
<path d="M68.427 90.8056C68.3608 90.8056 68.2935 90.7976 68.2263 90.7808L62.414 89.3297C61.9718 89.2192 61.7027 88.7712 61.8131 88.3288C61.9236 87.8865 62.3711 87.6175 62.814 87.7279L68.6263 89.1791C69.0685 89.2895 69.3377 89.7375 69.2273 90.1799C69.1336 90.555 68.7969 90.8056 68.427 90.8056Z" fill="#1E1E1E"/>
<path d="M60.8912 104.104C60.6801 104.104 60.4689 104.023 60.3076 103.862L56.0715 99.6281C55.749 99.3057 55.749 98.7831 56.0713 98.4606C56.3936 98.1382 56.916 98.1381 57.2387 98.4603L61.4748 102.694C61.7973 103.016 61.7973 103.539 61.475 103.862C61.3139 104.023 61.1025 104.104 60.8912 104.104Z" fill="#1E1E1E"/>
<path d="M47.8521 111.571C47.4853 111.571 47.1506 111.325 47.0539 110.953L45.5449 105.159C45.4301 104.718 45.6945 104.267 46.1357 104.152C46.5762 104.037 47.0277 104.301 47.1426 104.743L48.6516 110.537C48.7664 110.979 48.502 111.429 48.0607 111.544C47.991 111.562 47.9211 111.571 47.8521 111.571Z" fill="#1E1E1E"/>
<path d="M32.9667 111.451C32.8935 111.451 32.8191 111.442 32.745 111.421C32.3059 111.299 32.0489 110.844 32.171 110.405L33.7757 104.636C33.8977 104.196 34.3536 103.94 34.7923 104.062C35.2313 104.184 35.4883 104.639 35.3663 105.078L33.7616 110.847C33.6601 111.212 33.3282 111.451 32.9667 111.451Z" fill="#1E1E1E"/>
<path d="M20.3855 104.104C20.1742 104.104 19.9629 104.023 19.8017 103.862C19.4795 103.539 19.4795 103.016 19.8019 102.694L24.0381 98.4603C24.3603 98.1381 24.8832 98.1382 25.2055 98.4606C25.5277 98.7831 25.5277 99.3057 25.2053 99.6281L20.9691 103.862C20.808 104.023 20.5967 104.104 20.3855 104.104Z" fill="#1E1E1E"/>
<path d="M12.7716 90.4811C12.398 90.4811 12.0593 90.2256 11.9693 89.8461C11.864 89.4025 12.138 88.9576 12.5816 88.8523L18.4101 87.4679C18.8537 87.3624 19.2988 87.6365 19.4041 88.0803C19.5094 88.5239 19.2353 88.9688 18.7918 89.0741L12.9632 90.4585C12.899 90.4737 12.8349 90.4811 12.7716 90.4811Z" fill="#1E1E1E"/>
<path d="M18.8168 77.7958C18.7435 77.7958 18.6691 77.786 18.5951 77.7654L12.8236 76.1602C12.3845 76.038 12.1275 75.5829 12.2496 75.1437C12.3716 74.7044 12.8275 74.4472 13.2662 74.5695L19.0377 76.1748C19.4767 76.297 19.7337 76.7521 19.6117 77.1913C19.5101 77.5566 19.1783 77.7958 18.8168 77.7958Z" fill="#1E1E1E"/>
<path d="M24.6217 67.8536C24.4105 67.8536 24.1994 67.773 24.0381 67.612L19.8019 63.3781C19.4795 63.0558 19.4795 62.5331 19.8017 62.2106C20.124 61.8883 20.6465 61.888 20.9691 62.2103L25.2053 66.4442C25.5277 66.7666 25.5277 67.2892 25.2055 67.6117C25.0443 67.7729 24.833 67.8536 24.6217 67.8536Z" fill="#1E1E1E"/>
<path d="M34.5864 62.0465C34.2247 62.0465 33.8927 61.807 33.7913 61.4414L32.1909 55.6713C32.069 55.2321 32.3265 54.7771 32.7657 54.6553C33.2059 54.5332 33.6602 54.7911 33.7819 55.2301L35.3823 61.0002C35.5042 61.4395 35.2467 61.8945 34.8075 62.0162C34.7337 62.0367 34.6593 62.0465 34.5864 62.0465Z" fill="#1E1E1E"/>
<path d="M46.2322 61.9302C46.1646 61.9302 46.0961 61.9219 46.0277 61.9044C45.5859 61.7918 45.3191 61.3423 45.4318 60.9005L46.9113 55.0983C47.024 54.6566 47.4742 54.3896 47.915 54.5024C48.3568 54.6151 48.6236 55.0645 48.5109 55.5063L47.0314 61.3086C46.9363 61.6818 46.6005 61.9302 46.2322 61.9302Z" fill="#1E1E1E"/>
<path d="M17.218 84.0121C16.7645 84.0121 16.3956 83.6458 16.3928 83.1916C16.3899 82.7358 16.7573 82.364 17.2132 82.3611L47.1688 82.1797C47.1706 82.1797 47.1724 82.1797 47.1741 82.1797C47.6276 82.1797 47.9966 82.546 47.9993 83.0002C48.0022 83.456 47.6349 83.8278 47.179 83.8307L17.2233 84.0121C17.2216 84.0121 17.2198 84.0121 17.218 84.0121Z" fill="#1E1E1E"/>
<path d="M40.6381 43.0351C35.4283 43.0351 31.1899 38.7988 31.1899 33.5917C31.1899 28.3846 35.4283 24.1484 40.6381 24.1484C45.848 24.1484 50.0865 28.3846 50.0865 33.5917C50.0865 38.7988 45.848 43.0351 40.6381 43.0351ZM40.6381 25.5325C36.192 25.5325 32.5747 29.1479 32.5747 33.5917C32.5747 38.0356 36.1921 41.651 40.6381 41.651C45.0844 41.651 48.7017 38.0356 48.7017 33.5917C48.7017 29.1479 45.0845 25.5325 40.6381 25.5325Z" fill="white"/>
<path d="M40.6381 43.9362C34.9322 43.9362 30.29 39.2962 30.29 33.593C30.29 27.8898 34.9322 23.25 40.6381 23.25C46.3439 23.25 50.9861 27.8898 50.9861 33.593C50.9861 39.2962 46.3439 43.9362 40.6381 43.9362ZM40.6381 26.4336C36.6881 26.4336 33.4744 29.6452 33.4744 33.593C33.4744 37.5408 36.6881 40.7526 40.6381 40.7526C44.5881 40.7526 47.8018 37.5408 47.8018 33.593C47.8018 29.6452 44.5881 26.4336 40.6381 26.4336Z" fill="#1E1E1E"/>
<path d="M42.9953 37.483H38.2303C37.5125 37.483 36.9307 36.9011 36.9307 36.1834V34.1433C36.9307 33.4256 37.5125 32.8438 38.2303 32.8438H42.9953C43.713 32.8438 44.2949 33.4256 44.2949 34.1433V36.1834C44.2949 36.9011 43.713 37.483 42.9953 37.483Z" fill="#7DADFE"/>
<path d="M42.9952 38.5731H38.2302C36.9072 38.5731 35.8308 37.4967 35.8308 36.1737V34.1337C35.8308 32.8107 36.9072 31.7344 38.2302 31.7344H42.9952C44.3183 31.7344 45.3947 32.8107 45.3947 34.1337V36.1737C45.3947 37.4967 44.3183 38.5731 42.9952 38.5731ZM38.2302 33.9338C38.1201 33.9338 38.0304 34.0234 38.0304 34.1337V36.1737C38.0304 36.2839 38.1201 36.3736 38.2302 36.3736H42.9952C43.1054 36.3736 43.1951 36.2839 43.1951 36.1737V34.1337C43.1951 34.0234 43.1054 33.9338 42.9952 33.9338H38.2302Z" fill="#1E1E1E"/>
<path d="M43.0008 37.4844H38.136V45.4479H43.0008V37.4844Z" fill="#7DADFE"/>
<path d="M43.0008 46.5379H38.1359C37.5285 46.5379 37.0361 46.0455 37.0361 45.4382V37.4747C37.0361 36.8674 37.5285 36.375 38.1359 36.375H43.0008C43.6082 36.375 44.1006 36.8674 44.1006 37.4747V45.4382C44.1006 46.0455 43.6082 46.5379 43.0008 46.5379ZM39.2357 44.3385H41.901V38.5744H39.2357V44.3385Z" fill="#1E1E1E"/>
<path d="M68.0432 48.9775L73.1943 54.0523C73.7015 54.5519 74.5176 54.5461 75.0175 54.0391L77.5483 51.473C78.0486 50.9657 78.0427 50.1489 77.5352 49.6489L72.3841 44.5741C71.877 44.0744 71.0608 44.0803 70.5609 44.5872L68.0301 47.1533C67.5298 47.6605 67.5357 48.4774 68.0432 48.9775Z" fill="#7DADFE"/>
<path d="M74.0992 55.6548C73.458 55.6548 72.8168 55.4132 72.3254 54.929L67.1744 49.8542V49.8543C66.6932 49.3803 66.4256 48.7473 66.4205 48.0718C66.4156 47.3964 66.6742 46.7596 67.1484 46.2786L69.6792 43.7124C70.6576 42.7205 72.2607 42.7091 73.2531 43.6866L78.404 48.7616C78.8853 49.2355 79.1529 49.8685 79.158 50.544C79.1628 51.2194 78.9042 51.8562 78.43 52.3372L75.8992 54.9033C75.4055 55.4039 74.7524 55.6548 74.0992 55.6548ZM71.4791 45.4362C71.4658 45.4362 71.4526 45.4413 71.4424 45.4515L68.9117 48.0174C68.9072 48.0219 68.8969 48.0325 68.8971 48.0539C68.8971 48.0751 68.9078 48.0856 68.9123 48.0901C68.9123 48.0901 68.9123 48.0901 68.9123 48.0902L74.0633 53.165C74.0834 53.1847 74.116 53.1846 74.1361 53.1643L76.6668 50.5984C76.6713 50.5939 76.6816 50.5833 76.6814 50.562C76.6814 50.5407 76.6707 50.5302 76.6662 50.5257L71.5152 45.4508C71.5053 45.4411 71.4922 45.4362 71.4791 45.4362Z" fill="#1E1E1E"/>
<path d="M63.3208 55.493L66.7856 58.9062L72.3759 53.2316L68.9111 49.8183L63.3208 55.493Z" fill="#7DADFE"/>
<path d="M66.7891 60.1548C66.4753 60.1548 66.1614 60.0364 65.9202 59.7987L62.4555 56.3854C62.2215 56.1549 62.0887 55.8408 62.0862 55.5122C62.0839 55.1837 62.2122 54.8678 62.4429 54.6339L68.0362 48.9625C68.5167 48.4757 69.2999 48.4702 69.7868 48.9499L73.2514 52.3632C73.4854 52.5937 73.6183 52.9078 73.6208 53.2364C73.6231 53.5649 73.4948 53.8808 73.2641 54.1147L67.6708 59.7861C67.4284 60.0318 67.1089 60.1548 66.7891 60.1548ZM65.076 55.4908L66.7764 57.1661L70.6309 53.2579L68.9305 51.5826L65.076 55.4908Z" fill="#1E1E1E"/>
<path d="M12.7568 49.2196L7.60577 54.2944C7.09861 54.7941 6.28249 54.7882 5.78257 54.2813L3.25177 51.7152C2.75149 51.2079 2.75737 50.391 3.26489 49.891L8.41597 44.8162C8.92313 44.3166 9.73925 44.3224 10.2392 44.8294L12.77 47.3955C13.2702 47.9027 13.2643 48.7196 12.7568 49.2196Z" fill="#7DADFE"/>
<path d="M6.70076 55.9125C6.04744 55.9125 5.39472 55.6617 4.90076 55.1611L2.37008 52.595C1.89588 52.1141 1.63728 51.4773 1.64216 50.8018C1.64684 50.1264 1.91463 49.4933 2.39587 49.0193L7.54684 43.9445C8.53904 42.9668 10.1426 42.9785 11.1207 43.9702L13.6515 46.5363C14.1257 47.0172 14.3841 47.654 14.3794 48.3294C14.3746 49.0048 14.107 49.6378 13.6259 50.1119C13.6259 50.112 13.6257 50.1119 13.6257 50.1119L8.47456 55.1867C7.9832 55.6709 7.3418 55.9125 6.70076 55.9125ZM9.32087 45.6939C9.30779 45.6939 9.29472 45.6987 9.28476 45.7086L4.13379 50.7834C4.12931 50.7878 4.11855 50.7984 4.11855 50.8196C4.11835 50.8409 4.12892 50.8515 4.1334 50.856L6.66408 53.4222C6.684 53.4424 6.71679 53.4426 6.73671 53.4227L11.8879 48.3479L11.8877 48.348C11.8924 48.3435 11.9029 48.333 11.9031 48.3117C11.9031 48.2904 11.8928 48.2798 11.8883 48.2752L9.35744 45.7091C9.34744 45.699 9.33415 45.6939 9.32087 45.6939Z" fill="#1E1E1E"/>
<path d="M11.8852 50.0867L8.42041 53.5L14.0107 59.1747L17.4755 55.7614L11.8852 50.0867Z" fill="#7DADFE"/>
<path d="M14.0109 60.4126C13.6912 60.4126 13.3716 60.2896 13.1292 60.0439L7.53587 54.3724C7.30519 54.1385 7.17687 53.8226 7.17923 53.4941C7.18175 53.1656 7.31459 52.8514 7.54855 52.6209L11.0132 49.2076C11.5001 48.7282 12.2835 48.7334 12.7638 49.2202L18.3571 54.8917C18.5878 55.1255 18.7162 55.4415 18.7138 55.77C18.7113 56.0985 18.5784 56.4125 18.3445 56.6431L14.8798 60.0565C14.6388 60.2941 14.3248 60.4126 14.0109 60.4126ZM10.1691 53.5156L14.0234 57.4239L15.7239 55.7485L11.8695 51.8403L10.1691 53.5156Z" fill="#1E1E1E"/>
<path d="M40.6383 122.415C62.3983 122.415 80.0383 104.784 80.0383 83.0355C80.0383 61.287 62.3983 43.6562 40.6383 43.6562C18.8783 43.6562 1.23828 61.287 1.23828 83.0355C1.23828 104.784 18.8783 122.415 40.6383 122.415Z" fill="#7DADFE"/>
<g opacity="0.3">
<path d="M5.2356 100.328C5.3064 100.473 5.37739 100.617 5.45003 100.761C5.37747 100.617 5.3064 100.473 5.2356 100.328Z" fill="#1E1E1E"/>
</g>
<g opacity="0.3">
<path d="M5.59204 101.039C5.7316 101.31 5.87416 101.579 6.01976 101.846C5.87416 101.579 5.73156 101.31 5.59204 101.039Z" fill="#1E1E1E"/>
</g>
<g opacity="0.3">
<path d="M6.56592 102.82C6.646 102.958 6.72668 103.095 6.80832 103.231C6.72668 103.095 6.64592 102.958 6.56592 102.82Z" fill="#1E1E1E"/>
</g>
<g opacity="0.3">
<path d="M12.6716 110.773C12.7707 110.873 12.8697 110.973 12.9697 111.071C12.8697 110.973 12.7706 110.873 12.6716 110.773Z" fill="#1E1E1E"/>
</g>
<g opacity="0.3">
<path d="M37.6592 122.312C37.7311 122.318 37.8034 122.322 37.8754 122.327C37.8034 122.322 37.731 122.318 37.6592 122.312Z" fill="#1E1E1E"/>
</g>
<g opacity="0.3">
<path d="M6.98096 103.523C7.06444 103.66 7.14756 103.797 7.23264 103.933C7.14756 103.797 7.06448 103.66 6.98096 103.523Z" fill="#1E1E1E"/>
</g>
<g opacity="0.3">
<path d="M7.35034 104.117C7.5223 104.388 7.6975 104.657 7.87594 104.923C7.69762 104.657 7.5223 104.388 7.35034 104.117Z" fill="#1E1E1E"/>
</g>
<g opacity="0.3">
<path d="M11.3782 109.406C11.526 109.57 11.6751 109.732 11.8255 109.893C11.6751 109.732 11.5259 109.57 11.3782 109.406Z" fill="#1E1E1E"/>
</g>
<g opacity="0.3">
<path d="M34.7427 121.977C34.8331 121.99 34.9239 122.003 35.0146 122.016C34.924 122.003 34.8331 121.99 34.7427 121.977Z" fill="#1E1E1E"/>
</g>
<g opacity="0.3">
<path d="M8.06592 105.203C8.1536 105.332 8.24228 105.459 8.33156 105.587C8.2424 105.459 8.15364 105.332 8.06592 105.203Z" fill="#1E1E1E"/>
</g>
<g opacity="0.3">
<path d="M8.53198 105.867C8.62182 105.993 8.71166 106.119 8.80286 106.244C8.71166 106.119 8.6217 105.993 8.53198 105.867Z" fill="#1E1E1E"/>
</g>
<g opacity="0.3">
<path d="M10.24 108.094C10.335 108.209 10.4305 108.323 10.5267 108.437C10.4305 108.323 10.335 108.209 10.24 108.094Z" fill="#1E1E1E"/>
</g>
<g opacity="0.3">
<path d="M9.72681 107.453C9.82009 107.571 9.91481 107.688 10.0094 107.804C9.91481 107.688 9.82009 107.571 9.72681 107.453Z" fill="#1E1E1E"/>
</g>
<g opacity="0.3">
<path d="M17.5527 114.945C17.6537 115.018 17.7547 115.092 17.8565 115.164C17.7547 115.092 17.6537 115.018 17.5527 114.945Z" fill="#1E1E1E"/>
</g>
<g opacity="0.3">
<path d="M20.6135 116.961C20.7084 117.017 20.8029 117.073 20.8982 117.129C20.8029 117.074 20.7083 117.017 20.6135 116.961Z" fill="#1E1E1E"/>
</g>
<g opacity="0.3">
<path d="M21.584 117.516C21.6524 117.553 21.7217 117.59 21.7903 117.627C21.7217 117.59 21.6525 117.553 21.584 117.516Z" fill="#1E1E1E"/>
</g>
<g opacity="0.3">
<path d="M33.8855 121.844C33.9062 121.847 33.9271 121.85 33.9478 121.854C33.9271 121.85 33.9062 121.847 33.8855 121.844Z" fill="#1E1E1E"/>
</g>
<g opacity="0.3">
<path d="M22.3176 117.906C22.4152 117.958 22.5134 118.008 22.6116 118.059C22.5134 118.008 22.4152 117.958 22.3176 117.906Z" fill="#1E1E1E"/>
</g>
<g opacity="0.3">
<path d="M13.2781 111.375C13.4187 111.511 13.5602 111.646 13.7029 111.779C13.5602 111.646 13.4187 111.511 13.2781 111.375Z" fill="#1E1E1E"/>
</g>
<g opacity="0.3">
<path d="M14.7109 112.688C14.8126 112.776 14.9145 112.865 15.0171 112.952C14.9145 112.865 14.8126 112.776 14.7109 112.688Z" fill="#1E1E1E"/>
</g>
<g opacity="0.3">
<path d="M14.0972 112.141C14.1953 112.23 14.2946 112.318 14.3936 112.407C14.2946 112.318 14.1953 112.23 14.0972 112.141Z" fill="#1E1E1E"/>
</g>
<g opacity="0.3">
<path d="M30.0393 120.984C30.1065 121.003 30.1732 121.023 30.2405 121.041C30.1732 121.023 30.1065 121.003 30.0393 120.984Z" fill="#1E1E1E"/>
</g>
<g opacity="0.3">
<path d="M29.1299 120.711C29.2263 120.74 29.3226 120.77 29.4193 120.798C29.3226 120.77 29.2262 120.74 29.1299 120.711Z" fill="#1E1E1E"/>
</g>
<g opacity="0.3">
<path d="M28.3037 120.453C28.3974 120.484 28.4914 120.514 28.5854 120.544C28.4914 120.514 28.3974 120.484 28.3037 120.453Z" fill="#1E1E1E"/>
</g>
<g opacity="0.3">
<path d="M32.7773 121.633C32.8655 121.651 32.9534 121.669 33.0417 121.686C32.9534 121.669 32.8654 121.651 32.7773 121.633Z" fill="#1E1E1E"/>
</g>
<g opacity="0.3">
<path d="M26.4587 119.789C26.5484 119.824 26.6379 119.859 26.7278 119.893C26.6378 119.859 26.5484 119.824 26.4587 119.789Z" fill="#1E1E1E"/>
</g>
<g opacity="0.3">
<path d="M25.6411 119.469C25.7393 119.509 25.8376 119.549 25.936 119.589C25.8376 119.549 25.7392 119.509 25.6411 119.469Z" fill="#1E1E1E"/>
</g>
<g opacity="0.3">
<path d="M27.502 120.172C27.5462 120.188 27.5909 120.202 27.6353 120.218C27.5909 120.202 27.5462 120.187 27.502 120.172Z" fill="#1E1E1E"/>
</g>
<path d="M40.6383 123.665C18.2303 123.665 0 105.444 0 83.0472C0 60.6506 18.2303 42.4297 40.6383 42.4297C63.0463 42.4297 81.2766 60.6506 81.2766 83.0472C81.2766 105.444 63.0463 123.665 40.6383 123.665ZM40.6383 44.906C19.5959 44.906 2.47656 62.0161 2.47656 83.0472C2.47656 104.078 19.5959 121.188 40.6383 121.188C61.6807 121.188 78.8 104.078 78.8 83.0472C78.8 62.0161 61.6807 44.906 40.6383 44.906Z" fill="#1E1E1E"/>
<path d="M40.6381 115.574C58.6171 115.574 73.192 101.006 73.192 83.0368C73.192 65.0672 58.6171 50.5 40.6381 50.5C22.6591 50.5 8.08423 65.0672 8.08423 83.0368C8.08423 101.006 22.6591 115.574 40.6381 115.574Z" fill="#7DADFE"/>
<path d="M40.6381 116.679C22.0815 116.679 6.98438 101.59 6.98438 83.0428C6.98438 64.4955 22.0815 49.4062 40.6381 49.4062C59.1947 49.4062 74.2918 64.4955 74.2918 83.0428C74.2918 101.59 59.1947 116.679 40.6381 116.679ZM40.6381 51.6056C23.2941 51.6056 9.18381 65.7083 9.18381 83.0428C9.18381 100.377 23.2942 114.48 40.6381 114.48C57.982 114.48 72.0924 100.377 72.0924 83.0428C72.0924 65.7083 57.9821 51.6056 40.6381 51.6056Z" fill="#1E1E1E"/>
<path d="M40.6382 110.633C55.8817 110.633 68.239 98.2827 68.239 83.0472C68.239 67.8117 55.8817 55.4609 40.6382 55.4609C25.3947 55.4609 13.0374 67.8117 13.0374 83.0472C13.0374 98.2827 25.3947 110.633 40.6382 110.633Z" fill="white"/>
<path d="M40.6383 110.732C25.3641 110.732 12.9375 98.312 12.9375 83.0457C12.9375 67.7794 25.3641 55.3594 40.6383 55.3594C55.9125 55.3594 68.3391 67.7794 68.3391 83.0457C68.3391 98.312 55.9125 110.732 40.6383 110.732ZM40.6383 55.5594C25.4742 55.5594 13.1375 67.8897 13.1375 83.0457C13.1375 98.2017 25.4742 110.532 40.6383 110.532C55.8024 110.532 68.1391 98.2017 68.1391 83.0457C68.1391 67.8897 55.8024 55.5594 40.6383 55.5594Z" fill="#1E1E1E"/>
<path d="M40.6382 110.633C55.8817 110.633 68.239 98.2827 68.239 83.0472C68.239 67.8117 55.8817 55.4609 40.6382 55.4609C25.3947 55.4609 13.0374 67.8117 13.0374 83.0472C13.0374 98.2827 25.3947 110.633 40.6382 110.633Z" fill="white"/>
<path d="M40.6383 110.732C25.3641 110.732 12.9375 98.312 12.9375 83.0457C12.9375 67.7794 25.3641 55.3594 40.6383 55.3594C55.9125 55.3594 68.3391 67.7794 68.3391 83.0457C68.3391 98.312 55.9125 110.732 40.6383 110.732ZM40.6383 55.5594C25.4742 55.5594 13.1375 67.8897 13.1375 83.0457C13.1375 98.2017 25.4742 110.532 40.6383 110.532C55.8024 110.532 68.1391 98.2017 68.1391 83.0457C68.1391 67.8897 55.8024 55.5594 40.6383 55.5594Z" fill="#1E1E1E"/>
<path d="M40.6383 112.561C24.349 112.561 11.0967 99.3153 11.0967 83.0344C11.0967 66.7534 24.349 53.5078 40.6383 53.5078C56.9275 53.5078 70.1799 66.7534 70.1799 83.0344C70.1799 99.3153 56.9275 112.561 40.6383 112.561ZM40.6383 55.3074C25.3412 55.3074 12.8963 67.7457 12.8963 83.0344C12.8963 98.323 25.3412 110.761 40.6383 110.761C55.9354 110.761 68.3803 98.323 68.3803 83.0344C68.3803 67.7457 55.9354 55.3074 40.6383 55.3074Z" fill="#1E1E1E"/>
<path d="M40.638 86.7849C39.6773 86.7849 38.7168 86.4194 37.9853 85.6884C37.2767 84.9802 36.8865 84.0386 36.8865 83.037C36.8865 82.0354 37.2767 81.0939 37.9853 80.3857C39.4482 78.9235 41.8279 78.9235 43.2908 80.3857C43.9994 81.0939 44.3896 82.0354 44.3896 83.037C44.3896 84.0386 43.9994 84.9802 43.2908 85.6884C42.5593 86.4194 41.5988 86.7849 40.638 86.7849ZM40.638 79.489C39.7285 79.489 38.8191 79.835 38.1267 80.527C37.456 81.1974 37.0865 82.0888 37.0865 83.037C37.0865 83.9852 37.456 84.8766 38.1267 85.547C39.5115 86.9311 41.7646 86.9311 43.1494 85.547C43.8201 84.8766 44.1896 83.9852 44.1896 83.037C44.1896 82.0888 43.8201 81.1974 43.1494 80.527C42.457 79.8349 41.5476 79.489 40.638 79.489Z" fill="#1E1E1E"/>
<path d="M40.6381 87.5085C39.4916 87.5085 38.3453 87.0723 37.4725 86.2C36.6267 85.3547 36.1611 84.2309 36.1611 83.0355C36.1611 81.8401 36.6268 80.7162 37.4725 79.8709C39.2182 78.1264 42.058 78.1264 43.8037 79.8709C44.6494 80.7162 45.115 81.8401 45.115 83.0355C45.115 84.2309 44.6494 85.3547 43.8037 86.2C42.9308 87.0723 41.7846 87.5085 40.6381 87.5085ZM40.6381 80.2126C39.9143 80.2126 39.1906 80.4878 38.6396 81.0386C38.1058 81.572 37.8121 82.2811 37.8121 83.0354C37.8121 83.7897 38.1059 84.4988 38.6396 85.0322C39.7416 86.1337 41.5346 86.1337 42.6365 85.0322C43.1703 84.4988 43.464 83.7897 43.464 83.0354C43.464 82.2811 43.1703 81.572 42.6365 81.0386C42.0856 80.4879 41.3619 80.2126 40.6381 80.2126Z" fill="#1E1E1E"/>
<path d="M30.8499 71.5542L36.2607 76.9528L38.9787 79.6395L41.6779 82.345H39.952L53.3217 69.0138C53.7901 68.5467 54.5487 68.5476 55.0161 69.0158C55.4835 69.484 55.4846 70.2403 55.0161 70.7074L41.6779 84.0701C41.2024 84.5464 40.4306 84.5473 39.9539 84.0721L39.9519 84.0701L37.2449 81.3723L34.5568 78.6558L29.1554 73.2478C28.6879 72.7797 28.6885 72.0215 29.1569 71.5543C29.6252 71.0869 30.3824 71.0861 30.8499 71.5542Z" fill="#1E1E1E"/>
<path d="M56.6551 67.8535C56.4438 67.8535 56.2324 67.7729 56.0713 67.6117C55.749 67.2892 55.749 66.7665 56.0715 66.4442L60.3076 62.2103C60.6299 61.888 61.1527 61.8883 61.475 62.2106C61.7973 62.5331 61.7973 63.0558 61.4748 63.3781L57.2387 67.6119C57.0775 67.773 56.8662 67.8535 56.6551 67.8535Z" fill="#1E1E1E"/>
<path d="M62.4146 77.6272C62.0554 77.6272 61.7249 77.391 61.6214 77.0286C61.496 76.5902 61.7495 76.1332 62.188 76.0078L67.9476 74.3603C68.3851 74.2346 68.8427 74.4885 68.9681 74.9269C69.0935 75.3652 68.84 75.8222 68.4015 75.9476L62.6419 77.5952C62.5661 77.6169 62.4898 77.6272 62.4146 77.6272Z" fill="#1E1E1E"/>
<path d="M68.427 90.8056C68.3608 90.8056 68.2935 90.7976 68.2263 90.7808L62.414 89.3297C61.9718 89.2192 61.7027 88.7712 61.8131 88.3288C61.9236 87.8865 62.3711 87.6175 62.814 87.7279L68.6263 89.1791C69.0685 89.2895 69.3377 89.7375 69.2273 90.1799C69.1336 90.555 68.7969 90.8056 68.427 90.8056Z" fill="#1E1E1E"/>
<path d="M60.8912 104.104C60.6801 104.104 60.4689 104.023 60.3076 103.862L56.0715 99.6281C55.749 99.3057 55.749 98.7831 56.0713 98.4606C56.3936 98.1382 56.916 98.1381 57.2387 98.4603L61.4748 102.694C61.7973 103.016 61.7973 103.539 61.475 103.862C61.3139 104.023 61.1025 104.104 60.8912 104.104Z" fill="#1E1E1E"/>
<path d="M47.8521 111.571C47.4853 111.571 47.1506 111.325 47.0539 110.953L45.5449 105.159C45.4301 104.718 45.6945 104.267 46.1357 104.152C46.5762 104.037 47.0277 104.301 47.1426 104.743L48.6516 110.537C48.7664 110.979 48.502 111.429 48.0607 111.544C47.991 111.562 47.9211 111.571 47.8521 111.571Z" fill="#1E1E1E"/>
<path d="M32.9667 111.451C32.8935 111.451 32.8191 111.442 32.745 111.421C32.3059 111.299 32.0489 110.844 32.171 110.405L33.7757 104.636C33.8977 104.196 34.3536 103.94 34.7923 104.062C35.2313 104.184 35.4883 104.639 35.3663 105.078L33.7616 110.847C33.6601 111.212 33.3282 111.451 32.9667 111.451Z" fill="#1E1E1E"/>
<path d="M20.3855 104.104C20.1742 104.104 19.9629 104.023 19.8017 103.862C19.4795 103.539 19.4795 103.016 19.8019 102.694L24.0381 98.4603C24.3603 98.1381 24.8832 98.1382 25.2055 98.4606C25.5277 98.7831 25.5277 99.3057 25.2053 99.6281L20.9691 103.862C20.808 104.023 20.5967 104.104 20.3855 104.104Z" fill="#1E1E1E"/>
<path d="M12.7716 90.4811C12.398 90.4811 12.0593 90.2256 11.9693 89.8461C11.864 89.4025 12.138 88.9576 12.5816 88.8523L18.4101 87.4679C18.8537 87.3624 19.2988 87.6365 19.4041 88.0803C19.5094 88.5239 19.2353 88.9688 18.7918 89.0741L12.9632 90.4585C12.899 90.4737 12.8349 90.4811 12.7716 90.4811Z" fill="#1E1E1E"/>
<path d="M18.8168 77.7958C18.7435 77.7958 18.6691 77.786 18.5951 77.7654L12.8236 76.1602C12.3845 76.038 12.1275 75.5829 12.2496 75.1437C12.3716 74.7044 12.8275 74.4472 13.2662 74.5695L19.0377 76.1748C19.4767 76.297 19.7337 76.7521 19.6117 77.1913C19.5101 77.5566 19.1783 77.7958 18.8168 77.7958Z" fill="#1E1E1E"/>
<path d="M24.6217 67.8536C24.4105 67.8536 24.1994 67.773 24.0381 67.612L19.8019 63.3781C19.4795 63.0558 19.4795 62.5331 19.8017 62.2106C20.124 61.8883 20.6465 61.888 20.9691 62.2103L25.2053 66.4442C25.5277 66.7666 25.5277 67.2892 25.2055 67.6117C25.0443 67.7729 24.833 67.8536 24.6217 67.8536Z" fill="#1E1E1E"/>
<path d="M34.5864 62.0465C34.2247 62.0465 33.8927 61.807 33.7913 61.4414L32.1909 55.6713C32.069 55.2321 32.3265 54.7771 32.7657 54.6553C33.2059 54.5332 33.6602 54.7911 33.7819 55.2301L35.3823 61.0002C35.5042 61.4395 35.2467 61.8945 34.8075 62.0162C34.7337 62.0367 34.6593 62.0465 34.5864 62.0465Z" fill="#1E1E1E"/>
<path d="M46.2322 61.9302C46.1646 61.9302 46.0961 61.9219 46.0277 61.9044C45.5859 61.7918 45.3191 61.3423 45.4318 60.9005L46.9113 55.0983C47.024 54.6566 47.4742 54.3896 47.915 54.5024C48.3568 54.6151 48.6236 55.0645 48.5109 55.5063L47.0314 61.3086C46.9363 61.6818 46.6005 61.9302 46.2322 61.9302Z" fill="#1E1E1E"/>
<path d="M17.218 84.0121C16.7645 84.0121 16.3956 83.6458 16.3928 83.1916C16.3899 82.7358 16.7573 82.364 17.2132 82.3611L47.1688 82.1797C47.1706 82.1797 47.1724 82.1797 47.1741 82.1797C47.6276 82.1797 47.9966 82.546 47.9993 83.0002C48.0022 83.456 47.6349 83.8278 47.179 83.8307L17.2233 84.0121C17.2216 84.0121 17.2198 84.0121 17.218 84.0121Z" fill="#1E1E1E"/>
</svg>
