<svg width="160" height="160" viewBox="0 0 160 160" fill="none" xmlns="http://www.w3.org/2000/svg">
<g opacity="0.2">
<path d="M79.8604 109.399C86.2222 107.483 90.0411 105.034 90.0411 102.364C90.0411 96.2304 69.8847 91.2578 45.0206 91.2578C20.1564 91.2578 0 96.2304 0 102.364C0 108.498 20.1564 113.471 45.0206 113.471C46.6799 113.471 48.3174 113.448 49.9302 113.405C43.9815 115.513 40.3667 118.289 40.3667 121.33C40.3667 127.926 57.3557 133.273 78.3127 133.273C99.2697 133.273 116.259 127.926 116.259 121.33C116.259 114.898 100.099 109.654 79.8604 109.399Z" fill="#1E1E1E"/>
</g>
<path d="M110.921 117.827C110.531 117.827 110.142 117.676 109.848 117.376C106.632 114.086 108.581 108.581 108.665 108.348C108.691 108.278 108.721 108.21 108.757 108.145C109.314 107.117 109.518 106.245 109.378 105.478C109.193 104.46 108.17 103.757 107.1 103.913C106.699 103.97 106.312 104.014 105.948 104.043C103.076 104.271 100.281 102.79 98.8279 100.274C97.549 98.0597 95.7774 96.7239 93.4119 96.1902C92.6038 96.0079 92.0965 95.205 92.2788 94.3969C92.461 93.5889 93.2635 93.081 94.0721 93.2638C97.2548 93.9818 99.7289 95.8355 101.426 98.7736C102.304 100.294 103.988 101.188 105.712 101.052C106.012 101.029 106.334 100.992 106.671 100.943C109.365 100.554 111.851 102.31 112.33 104.941C112.59 106.374 112.304 107.855 111.454 109.464C111.06 110.636 110.463 113.713 111.994 115.278C112.573 115.871 112.562 116.821 111.97 117.4C111.678 117.685 111.299 117.827 110.921 117.827Z" fill="#1E1E1E"/>
<g opacity="0.55">
<path d="M111.992 115.278C112.572 115.87 112.56 116.82 111.968 117.4C111.93 117.436 111.892 117.47 111.85 117.504C111.918 117.054 111.782 116.582 111.44 116.232C109.91 114.666 110.506 111.59 110.9 110.418C111.75 108.808 112.036 107.328 111.776 105.894C111.298 103.262 108.812 101.508 106.116 101.896C105.78 101.946 105.458 101.982 105.158 102.006C103.434 102.142 101.75 101.248 100.872 99.7282C99.1763 96.7882 96.7023 94.9362 93.5183 94.2182C93.0583 94.1142 92.6003 94.2322 92.2583 94.5042C92.2623 94.4682 92.2703 94.4322 92.2783 94.3962C92.4603 93.5882 93.2623 93.0802 94.0703 93.2642C97.2543 93.9822 99.7283 95.8362 101.424 98.7742C102.302 100.294 103.986 101.188 105.712 101.052C106.01 101.028 106.332 100.992 106.67 100.944C109.364 100.554 111.85 102.31 112.328 104.94C112.59 106.374 112.302 107.854 111.452 109.464C111.058 110.636 110.462 113.712 111.992 115.278Z" fill="white"/>
</g>
<path d="M110.921 118.517C110.324 118.517 109.765 118.281 109.348 117.854C105.827 114.252 107.917 108.348 108.008 108.099C108.045 107.996 108.09 107.896 108.142 107.8C108.62 106.918 108.8 106.196 108.69 105.593C108.571 104.94 107.904 104.492 107.201 104.595C106.784 104.655 106.382 104.7 106.003 104.73C102.862 104.979 99.8102 103.363 98.2221 100.614C97.0463 98.5779 95.4225 97.3509 93.2581 96.8625C92.6849 96.7333 92.1964 96.3885 91.8825 95.8917C91.5685 95.3949 91.4669 94.8056 91.5963 94.2324C91.7255 93.6592 92.0702 93.1707 92.5668 92.8567C93.0637 92.5425 93.6531 92.4409 94.2268 92.5707C97.6075 93.3333 100.234 95.299 102.032 98.4131C102.776 99.7011 104.201 100.46 105.657 100.344C105.941 100.322 106.249 100.287 106.571 100.24C109.64 99.7967 112.472 101.801 113.019 104.805C113.306 106.383 113.005 107.994 112.1 109.728C111.771 110.749 111.241 113.496 112.495 114.779C113.342 115.646 113.327 117.042 112.459 117.89C112.046 118.294 111.499 118.517 110.921 118.517ZM107.396 103.181C108.683 103.181 109.838 104.085 110.067 105.342C110.236 106.272 110.009 107.294 109.372 108.468C109.354 108.503 109.337 108.539 109.324 108.577C109.245 108.793 107.437 113.896 110.349 116.876C110.501 117.031 110.704 117.117 110.921 117.117C111.132 117.117 111.33 117.036 111.481 116.889C111.796 116.58 111.802 116.073 111.493 115.757C109.794 114.018 110.252 110.837 110.79 109.231C110.802 109.195 110.817 109.16 110.835 109.127C111.609 107.661 111.873 106.329 111.641 105.055C111.23 102.797 109.092 101.29 106.771 101.626C106.419 101.677 106.081 101.715 105.768 101.74C103.775 101.897 101.832 100.866 100.82 99.1134C99.2247 96.3513 96.9027 94.6095 93.9184 93.9363C93.71 93.8893 93.4954 93.9261 93.315 94.0401C93.1344 94.1543 93.009 94.332 92.9619 94.5406C92.915 94.7491 92.9519 94.9633 93.0661 95.144C93.1802 95.3247 93.3579 95.45 93.5663 95.4971C96.1329 96.0761 98.0524 97.5208 99.4344 99.9136C100.754 102.199 103.292 103.542 105.893 103.335C106.242 103.307 106.614 103.265 107 103.209C107.133 103.19 107.265 103.181 107.396 103.181Z" fill="#1E1E1E"/>
<path d="M108.842 124.405C112.475 132.855 129.825 133.205 126.725 122.955C123.025 111.455 108.615 109.345 107.475 120.052C107.475 120.052 107.454 122.208 108.842 124.405Z" fill="#FFA039"/>
<path d="M126.725 122.955C126.126 121.095 125.246 119.481 124.188 118.127C124.177 118.124 124.165 118.123 124.153 118.12C123.893 118.052 123.655 117.919 123.405 117.82C123.066 117.688 122.706 117.621 122.345 117.58C119.014 117.203 115.733 119.041 113.557 121.592C113.017 122.226 112.524 122.916 112.247 123.701C112.09 124.148 112.006 124.617 111.923 125.084C111.796 125.797 111.602 126.54 111.519 127.268C111.439 127.393 111.365 127.523 111.295 127.657C117.23 132.72 129.359 131.665 126.725 122.955Z" fill="white"/>
<path d="M119.899 131.407C115.315 131.407 110.11 129.056 108.22 124.735C106.769 122.407 106.774 120.144 106.774 120.049C106.775 120.026 106.776 120.004 106.778 119.981C107.239 115.653 109.862 112.827 113.794 112.422C118.615 111.924 125.02 115.374 127.391 122.744C128.533 126.521 127.145 129.523 123.681 130.787C122.54 131.203 121.246 131.407 119.899 131.407ZM108.175 120.09C108.181 120.335 108.263 122.181 109.433 124.034C109.452 124.065 109.469 124.098 109.484 124.131C111.555 128.948 118.757 131.093 123.201 129.472C125.967 128.463 126.98 126.221 126.054 123.161C123.913 116.505 118.213 113.374 113.937 113.815C110.675 114.151 108.577 116.437 108.175 120.09Z" fill="#1E1E1E"/>
<path d="M113.806 114.336C115.306 109.586 119.906 113.386 118.256 117.336L113.806 114.336Z" fill="#FFA039"/>
<path d="M118.256 118.033C118.165 118.033 118.074 118.016 117.986 117.979C117.629 117.83 117.461 117.42 117.61 117.063C118.227 115.587 117.777 114.239 117.204 113.533C116.782 113.012 116.259 112.753 115.808 112.838C115.262 112.942 114.788 113.548 114.473 114.544C114.357 114.912 113.963 115.117 113.595 115C113.226 114.884 113.022 114.491 113.138 114.122C113.782 112.084 114.923 111.581 115.546 111.463C116.513 111.279 117.539 111.723 118.291 112.651C119.146 113.705 119.755 115.559 118.902 117.603C118.789 117.871 118.529 118.033 118.256 118.033Z" fill="#1E1E1E"/>
<path d="M122.897 119.491C126.897 115.136 130.875 121.302 125.775 123.359L122.897 119.491Z" fill="#FFA039"/>
<path d="M125.775 124.061C125.498 124.061 125.236 123.896 125.126 123.623C124.982 123.264 125.155 122.857 125.514 122.712C126.774 122.204 127.493 121.368 127.485 120.419C127.48 119.694 127.034 119.037 126.378 118.784C125.496 118.445 124.416 118.876 123.414 119.967C123.152 120.252 122.709 120.271 122.425 120.009C122.14 119.748 122.121 119.305 122.383 119.02C124.388 116.837 126.196 117.214 126.881 117.477C128.07 117.935 128.875 119.113 128.885 120.408C128.897 121.94 127.832 123.286 126.037 124.01C125.951 124.045 125.863 124.061 125.775 124.061Z" fill="#1E1E1E"/>
<path d="M111.796 128.762C111.497 128.762 111.22 128.569 111.127 128.268C110.073 124.843 112.49 121.127 115.181 119.123C118.189 116.883 121.488 116.551 124.005 118.234C124.326 118.449 124.413 118.884 124.198 119.205C123.983 119.526 123.548 119.613 123.227 119.398C121.224 118.059 118.529 118.376 116.017 120.246C113.634 122.02 111.649 125.204 112.465 127.856C112.579 128.226 112.372 128.617 112.002 128.731C111.933 128.752 111.864 128.762 111.796 128.762Z" fill="#1E1E1E"/>
<path d="M118.609 118.851C118.407 118.851 118.206 118.764 118.068 118.596C115.011 114.885 111.586 114.383 111.551 114.378C111.168 114.326 110.9 113.974 110.952 113.59C111.004 113.207 111.359 112.939 111.739 112.991C111.901 113.013 115.747 113.576 119.149 117.706C119.394 118.005 119.351 118.446 119.053 118.692C118.923 118.799 118.765 118.851 118.609 118.851Z" fill="#1E1E1E"/>
<path d="M121.592 131.262C122.485 131.262 123.208 130.722 123.208 130.057C123.208 129.391 122.485 128.852 121.592 128.852C120.699 128.852 119.975 129.391 119.975 130.057C119.975 130.722 120.699 131.262 121.592 131.262Z" fill="#1E1E1E"/>
<path d="M124.108 127.112C124.606 127.112 125.008 126.71 125.008 126.212C125.008 125.715 124.606 125.312 124.108 125.312C123.611 125.312 123.208 125.715 123.208 126.212C123.208 126.71 123.611 127.112 124.108 127.112Z" fill="#1E1E1E"/>
<path d="M117.725 126.55C118.222 126.55 118.625 126.147 118.625 125.65C118.625 125.153 118.222 124.75 117.725 124.75C117.228 124.75 116.825 125.153 116.825 125.65C116.825 126.147 117.228 126.55 117.725 126.55Z" fill="#1E1E1E"/>
<path d="M114.274 124.113C109.274 121.563 114.524 115.713 117.724 120.06L114.274 124.113Z" fill="#FFA039"/>
<path d="M114.274 124.813C114.167 124.813 114.058 124.789 113.957 124.737C112.256 123.87 111.371 122.505 111.527 120.992C111.674 119.567 112.763 118.304 114.174 117.919C115.68 117.509 117.179 118.139 118.288 119.646C118.518 119.957 118.451 120.395 118.14 120.624C117.828 120.853 117.39 120.787 117.161 120.475C116.402 119.445 115.472 119.017 114.542 119.27C113.689 119.502 113.007 120.287 112.92 121.136C112.825 122.055 113.419 122.891 114.593 123.49C114.937 123.665 115.074 124.087 114.898 124.431C114.774 124.674 114.529 124.813 114.274 124.813Z" fill="#1E1E1E"/>
<path d="M24.0488 82.9688C16.7008 84.1108 12.8788 85.9748 12.6808 88.5088C12.8388 89.4468 13.5988 89.9468 15.3308 90.8848C15.5588 91.0068 15.7888 91.1328 16.0208 91.2628C16.0228 91.2628 16.0248 91.2648 16.0268 91.2648C16.4248 91.4888 16.8268 91.7288 17.2208 91.9968C17.5168 92.1968 17.7868 92.4248 18.0288 92.6728C18.9408 93.5988 19.4848 94.8268 19.5548 96.1628C19.6448 97.8448 18.9688 99.4308 17.6988 100.515C16.1348 101.849 13.7928 102.747 10.9268 103.109C10.8408 103.121 10.7568 103.125 10.6728 103.125C9.67882 103.125 8.81882 102.387 8.69082 101.377C8.55082 100.281 9.32682 99.2808 10.4228 99.1408C11.4128 99.0168 12.3088 98.8148 13.0788 98.5468C13.9168 98.2608 14.6048 97.8948 15.1028 97.4708C15.5328 97.1048 15.5748 96.6268 15.5608 96.3768C15.5368 95.9348 15.3208 95.5408 14.9648 95.2988C14.5108 94.9888 13.9848 94.7028 13.4268 94.4008C11.5708 93.3968 9.03082 92.0208 8.68682 88.8048C8.67682 88.7168 8.67282 88.6288 8.67482 88.5388C8.76282 85.2508 10.9348 83.1008 13.8708 81.6568C13.8728 81.6548 13.8728 81.6548 13.8728 81.6548C16.7428 80.2408 20.3428 79.4968 23.4348 79.0168C24.5248 78.8448 25.5488 79.5928 25.7168 80.6848C25.8869 81.7768 25.1409 82.7988 24.0488 82.9688Z" fill="#8E8EB2"/>
<path d="M10.6722 103.922C9.26705 103.922 8.07389 102.87 7.89693 101.474C7.80289 100.732 8.00349 99.9978 8.46169 99.4067C8.91981 98.8156 9.58073 98.4382 10.3227 98.3442C12.204 98.1057 13.7572 97.5644 14.584 96.8591C14.7119 96.75 14.7718 96.6005 14.7619 96.4151C14.7515 96.2212 14.6634 96.0582 14.5136 95.9559C14.0937 95.6689 13.5845 95.3931 13.0454 95.1011C11.1477 94.0732 8.27997 92.5197 7.89081 88.8868C7.87753 88.7634 7.87245 88.6381 7.87577 88.5144C8.06425 81.4113 16.7753 79.2383 23.3112 78.2217C24.0495 78.1061 24.7893 78.2858 25.3935 78.7275C25.9973 79.1689 26.3931 79.8191 26.5083 80.5582C26.7455 82.0838 25.6974 83.5179 24.1718 83.7553C15.3389 85.1291 13.6623 87.2536 13.4901 88.4649C13.6161 88.9391 14.1019 89.3047 15.7126 90.1771C16.3536 90.5244 17.0153 90.8829 17.6731 91.3323C19.2727 92.4253 20.2498 94.1689 20.3539 96.1159C20.4573 98.0497 19.6789 99.8734 18.2185 101.119C16.5351 102.555 14.0483 103.517 11.0269 103.9C10.9087 103.915 10.7896 103.922 10.6722 103.922ZM23.7452 79.788C23.6831 79.788 23.6205 79.7928 23.5578 79.8026C17.587 80.7313 9.63197 82.649 9.47513 88.5567C9.47377 88.6095 9.47593 88.6633 9.48157 88.7163C9.78129 91.5133 12.0135 92.7226 13.8073 93.6942C14.3837 94.0064 14.9283 94.3013 15.4163 94.6349C15.9787 95.0192 16.3225 95.6369 16.3595 96.3295C16.396 97.0089 16.1272 97.6456 15.6224 98.0763C14.5491 98.9919 12.7383 99.6508 10.5239 99.9314C9.86745 100.015 9.40105 100.616 9.48425 101.273C9.56649 101.921 10.1667 102.395 10.8263 102.312C13.5371 101.969 15.7343 101.135 17.1799 99.9022C18.2582 98.9822 18.8327 97.6334 18.7562 96.2014C18.6789 94.7561 17.9551 93.4628 16.7704 92.6534C16.1807 92.2504 15.5558 91.9118 14.9516 91.5845C13.203 90.6374 12.1204 89.9887 11.8923 88.6383C11.8815 88.5738 11.8786 88.5082 11.8837 88.4429C12.1171 85.4488 16.0561 83.3983 23.9258 82.1743C24.5797 82.0726 25.0289 81.4579 24.9272 80.8041C24.8779 80.4873 24.7082 80.2084 24.4493 80.0192C24.2417 79.8674 23.9971 79.788 23.7452 79.788Z" fill="#1E1E1E"/>
<path d="M28.0989 47.621C28.4829 42.183 29.3649 37.011 31.0109 32.253C31.7489 30.121 34.3829 29.367 36.1329 30.793C39.3689 33.429 42.2069 36.249 44.6349 39.261" fill="#8E8EB2"/>
<path d="M67.3743 38.8372C69.3803 34.6752 71.7363 30.9752 74.8343 28.2612C75.9903 27.2492 77.7683 27.4252 78.7263 28.6272C81.0263 31.5152 82.4943 34.9252 83.1283 38.8512" fill="#8E8EB2"/>
<path d="M92.8227 93.0496C92.4527 97.4636 88.7467 100.852 84.3167 100.852H48.1087C47.7067 100.852 47.3087 100.824 46.9207 100.772C37.6967 100.768 30.3627 96.8816 25.6167 91.7256C22.1587 87.9696 20.2747 83.0276 20.2747 77.9216V60.5776C20.2747 57.0216 21.6907 53.6036 24.2327 51.1176C29.9767 45.4976 37.5827 39.8496 46.9907 38.9216C47.0167 38.9176 47.0427 38.9156 47.0687 38.9136C47.4107 38.8716 47.7567 38.8516 48.1087 38.8516H84.4087C88.8207 38.8516 92.5147 42.2156 92.9107 46.6116C94.2626 61.6316 94.1567 77.1356 92.8227 93.0496Z" fill="#8E8EB2"/>
<path d="M28.4301 91.9586C30.1576 91.0913 30.3527 87.9874 28.8658 85.026C27.379 82.0645 24.7732 80.3669 23.0457 81.2342C21.3182 82.1016 21.1231 85.2054 22.6099 88.1669C24.0968 91.1283 26.7026 92.826 28.4301 91.9586Z" fill="white"/>
<g opacity="0.3">
<path d="M21.4847 84.8947C20.6887 82.6807 20.2747 80.3227 20.2747 77.9287V74.0547C20.2747 75.7367 20.4787 77.4007 20.8787 79.0107V79.9287C20.8787 81.6147 21.0847 83.2827 21.4847 84.8947Z" fill="#1E1E1E"/>
</g>
<path d="M73.5408 38.8517C75.9239 33.2771 78.0131 31.9804 79.5408 38.8517H73.5408Z" fill="#EFA3DD"/>
<path d="M39.7609 40.6137C35.5621 34.6299 33.5793 35.5965 33.8126 43.5134L39.7609 40.6137Z" fill="#EFA3DD"/>
<path d="M84.3166 101.663H48.1086C47.6989 101.663 47.2818 101.636 46.868 101.582C38.2905 101.565 30.5363 98.2624 25.0281 92.2783C21.4469 88.3885 19.4746 83.2937 19.4746 77.9325V60.5885C19.4746 56.8226 21.005 53.1661 23.6732 50.5565C31.4138 42.983 39.0105 38.9207 46.8953 38.1381C46.9265 38.1339 46.9577 38.1309 46.9889 38.1283C47.3508 38.0847 47.7274 38.0625 48.1086 38.0625H84.4086C89.2739 38.0625 93.2715 41.7116 93.7075 46.5507C95.0188 61.1199 94.9893 76.7905 93.6198 93.1274C93.2187 97.9134 89.1322 101.663 84.3166 101.663ZM48.1086 39.6625C47.7861 39.6625 47.469 39.6813 47.166 39.7185C47.1535 39.7201 47.1411 39.7213 47.1285 39.7223L47.1056 39.7241C47.0912 39.7263 47.0837 39.7272 47.0691 39.7286C39.5548 40.4699 32.2678 44.3858 24.7921 51.7003C22.4295 54.0109 21.0746 57.2505 21.0746 60.5885V77.9325C21.0746 82.8911 22.8967 87.6011 26.2052 91.1946C31.4183 96.8581 38.7753 99.979 46.921 99.9825C46.9564 99.9825 46.9917 99.9849 47.0268 99.9897C47.3881 100.038 47.752 100.063 48.1086 100.063H84.3166C88.3071 100.063 91.6932 96.9575 92.0254 92.9938C93.3872 76.7487 93.417 61.1713 92.1139 46.6942C91.7528 42.6855 88.4403 39.6625 84.4086 39.6625H48.1086V39.6625Z" fill="#1E1E1E"/>
<path d="M40.6319 96.0733C41.3331 97.2129 42.2991 98.1639 43.4098 98.8365C44.5198 99.5115 45.7726 99.9044 47.0281 99.9897C47.4699 100.02 47.8037 100.402 47.7737 100.844C47.7437 101.286 47.3612 101.62 46.9195 101.59C46.8883 101.587 46.8577 101.583 46.8277 101.578L46.8141 101.575C45.3289 101.291 43.9351 100.649 42.7799 99.7383C41.6224 98.8297 40.7009 97.6571 40.1025 96.3557C40.0332 96.2049 40.0992 96.0265 40.25 95.9572C40.3896 95.8928 40.5535 95.9455 40.6319 96.0733Z" fill="#1E1E1E"/>
<path d="M39.0781 47.6264C39.0436 46.5411 39.2029 45.4418 39.5577 44.4006C39.9112 43.3592 40.4581 42.3771 41.1651 41.5183C41.8714 40.659 42.7381 39.9227 43.7153 39.3628C44.6915 38.8014 45.7773 38.4164 46.9024 38.2359L46.9052 38.2355C47.2871 38.1742 47.6465 38.4342 47.7077 38.8162C47.7689 39.1982 47.509 39.5575 47.1269 39.6187C47.1115 39.6213 47.0942 39.6233 47.0788 39.6248C46.1119 39.7118 45.1555 39.9754 44.2704 40.4054C43.3848 40.834 42.5724 41.4295 41.8874 42.1545C41.2018 42.8786 40.6435 43.7318 40.2534 44.6633C39.8624 45.5942 39.6416 46.6027 39.603 47.6264L39.603 47.6279C39.5976 47.7728 39.4756 47.8859 39.3307 47.8804C39.1921 47.8753 39.0828 47.7628 39.0781 47.6264Z" fill="#1E1E1E"/>
<g opacity="0.3">
<path d="M92.8267 93.0046C92.4558 97.4364 88.7642 100.852 84.3169 100.852H48.1089C47.7069 100.852 47.3089 100.824 46.9209 100.772C37.6969 100.768 30.3629 96.8816 25.6169 91.7256C25.3789 91.4676 25.1509 91.2056 24.9269 90.9356C24.8269 90.8156 24.7289 90.6916 24.6309 90.5696C24.5489 90.4636 24.4669 90.3596 24.3869 90.2516C24.3129 90.1576 24.2429 90.0616 24.1749 89.9656C24.1129 89.8836 24.0549 89.8016 23.9969 89.7176C23.9089 89.5956 23.8249 89.4736 23.7409 89.3476C23.6609 89.2316 23.5849 89.1136 23.5089 88.9956C23.4729 88.9416 23.4369 88.8856 23.4029 88.8296C23.3509 88.7456 23.2989 88.6616 23.2489 88.5776C23.2169 88.5276 23.1849 88.4776 23.1569 88.4256C23.1069 88.3436 23.0569 88.2616 23.0109 88.1776C22.964 88.1002 22.9226 88.0228 22.8771 87.9455C22.8248 87.8502 22.7725 87.7548 22.7202 87.6595C22.7111 87.6428 22.702 87.6257 22.6929 87.6076C22.6349 87.4996 22.5789 87.3916 22.5229 87.2816C22.4629 87.1676 22.4049 87.0516 22.3489 86.9356C22.3009 86.8376 22.2549 86.7396 22.2089 86.6416C22.2009 86.6276 22.1949 86.6156 22.1909 86.6016C22.0609 86.3256 21.9389 86.0476 21.8229 85.7676C21.7029 85.4776 21.5909 85.1856 21.4849 84.8896V84.8876C21.0849 83.2756 20.8789 81.6076 20.8789 79.9216V62.5776C20.8789 59.0216 22.2949 55.6036 24.8369 53.1176C29.1949 48.8536 34.6249 44.5736 41.0989 42.3516C39.9949 43.8176 39.3409 45.6416 39.3409 47.6176C39.0401 62.1469 38.4437 77.9126 39.7282 90.9933C40.0504 94.275 42.7749 96.8 46.0712 96.8865C46.3526 96.8939 46.6358 96.8976 46.9209 96.8976C47.3089 96.9496 47.7069 96.9776 48.1089 96.9776H84.3169C88.7469 96.9776 92.4529 93.5896 92.8229 89.1756C93.4589 81.6056 93.8129 74.1276 93.8669 66.7496C93.9308 75.365 93.5701 84.12 92.8267 93.0046Z" fill="#1E1E1E"/>
</g>
<path d="M46.9343 101.584H46.9204C46.4786 101.584 46.1204 101.226 46.1204 100.784C46.1204 100.343 46.4786 99.9844 46.9204 99.9844C47.3622 99.9844 47.7273 100.343 47.7273 100.784C47.7273 101.226 47.3762 101.584 46.9343 101.584Z" fill="#1E1E1E"/>
<path d="M47.0678 39.7143C46.6638 39.7143 46.3168 39.4092 46.2733 38.9984C46.2267 38.559 46.5453 38.1652 46.9846 38.1187C47.1246 38.1039 47.2668 38.0911 47.409 38.0804C47.8499 38.0471 48.2336 38.3777 48.2666 38.8183C48.2996 39.259 47.9692 39.6429 47.5287 39.6759C47.4027 39.6854 47.2769 39.6966 47.153 39.7097C47.1244 39.7128 47.096 39.7143 47.0678 39.7143Z" fill="#1E1E1E"/>
<path d="M88.6991 85.6802C88.6331 87.1802 87.881 88.4922 86.753 89.3202C85.955 89.9102 84.9711 90.2562 83.909 90.2562H50.469C47.821 90.2562 45.675 88.1102 45.675 85.4622V50.4502C45.675 49.0322 46.291 47.7582 47.269 46.8802C48.119 46.1182 49.239 45.6562 50.469 45.6562H83.905C86.469 45.6562 88.585 47.6742 88.695 50.2362C89.199 62.1062 89.2051 73.9222 88.6991 85.6802Z" fill="#7DADFE"/>
<path d="M83.9082 91.0676H50.4678C47.3771 91.0676 44.8625 88.553 44.8625 85.4623V50.449C44.8625 47.3583 47.3771 44.8438 50.4678 44.8438H83.904C86.917 44.8438 89.3771 47.1973 89.5046 50.2019C90.0099 62.0953 90.0113 74.0433 89.5087 85.714C89.3795 88.716 86.9194 91.0676 83.9082 91.0676ZM50.4678 46.4676C48.2724 46.4676 46.4863 48.2536 46.4863 50.449V85.4623C46.4863 87.6577 48.2724 89.4437 50.4678 89.4437H83.9081C86.0472 89.4437 87.7946 87.7747 87.8864 85.644C88.3869 74.0194 88.3856 62.1181 87.8823 50.2708C87.7917 48.1381 86.0442 46.4676 83.9039 46.4676L50.4678 46.4676Z" fill="#1E1E1E"/>
<path d="M30.4079 67.8594C30.0765 67.8594 29.8079 67.5907 29.8079 67.2594V58.4594C29.8079 58.128 30.0765 57.8594 30.4079 57.8594C30.7392 57.8594 31.0079 58.128 31.0079 58.4594V67.2594C31.0079 67.5907 30.7392 67.8594 30.4079 67.8594Z" fill="#1E1E1E"/>
<path d="M27.475 67.8516C27.1436 67.8516 26.875 67.5829 26.875 67.2516V59.4516C26.875 59.1202 27.1436 58.8516 27.475 58.8516C27.8064 58.8516 28.075 59.1202 28.075 59.4516V67.2516C28.075 67.5829 27.8064 67.8516 27.475 67.8516Z" fill="#1E1E1E"/>
<path d="M24.5412 67.8563C24.2098 67.8563 23.9412 67.5876 23.9412 67.2563V60.2563C23.9412 59.9249 24.2098 59.6562 24.5412 59.6562C24.8725 59.6562 25.1412 59.9249 25.1412 60.2563V67.2563C25.1412 67.5876 24.8725 67.8563 24.5412 67.8563Z" fill="#1E1E1E"/>
<path d="M28.0996 48.4302C28.0808 48.4302 28.0616 48.4296 28.0425 48.4282C27.6018 48.3971 27.2698 48.0145 27.3008 47.5738C27.7208 41.6267 28.6871 36.5326 30.2548 32.0007C30.6875 30.7509 31.7052 29.7889 32.9773 29.4273C34.247 29.0667 35.6155 29.3485 36.6382 30.1819C39.92 32.8553 42.8201 35.7441 45.2577 38.7682C45.5349 39.1121 45.4809 39.6158 45.1369 39.8931C44.7929 40.1703 44.2894 40.1163 44.012 39.7723C41.6442 36.8349 38.8232 34.0255 35.6276 31.4224C35.0003 30.9112 34.1938 30.745 33.4148 30.9665C32.6333 31.1886 32.0326 31.7563 31.7669 32.524C30.2457 36.9215 29.3069 41.8812 28.897 47.6866C28.8671 48.1081 28.5158 48.4302 28.0996 48.4302Z" fill="#1E1E1E"/>
<path d="M83.1279 39.6626C82.7423 39.6626 82.4026 39.383 82.3392 38.9901C81.7301 35.2183 80.3042 31.9031 78.1011 29.1368C77.7709 28.7226 77.2973 28.468 76.7678 28.4206C76.2485 28.3741 75.7494 28.5352 75.3618 28.8744C72.6559 31.2451 70.3469 34.5249 68.0956 39.1959C67.9038 39.5939 67.4257 39.7609 67.0275 39.5692C66.6296 39.3773 66.4624 38.8992 66.6542 38.5011C69.0022 33.6296 71.4341 30.1882 74.3077 27.6706C75.0277 27.0405 75.9527 26.7412 76.9107 26.8269C77.8658 26.9126 78.7558 27.3912 79.3524 28.1398C81.729 31.1239 83.2653 34.6885 83.9187 38.7349C83.9892 39.1711 83.6926 39.5818 83.2565 39.6522C83.2133 39.6593 83.1703 39.6626 83.1279 39.6626Z" fill="#1E1E1E"/>
<path d="M73.5417 39.5649C73.4499 39.5649 73.3567 39.5468 73.2668 39.5084C72.9113 39.3564 72.7464 38.9451 72.8983 38.5895C74.4606 34.9349 75.778 33.3603 77.1703 33.492C78.5079 33.6162 79.4501 35.2263 80.2253 38.7128C80.3092 39.0902 80.0713 39.4641 79.6939 39.548C79.3167 39.6319 78.9427 39.394 78.8587 39.0167C77.9845 35.0847 77.1349 34.8947 77.0408 34.8859C76.9402 34.8783 75.992 34.9143 74.1857 39.1399C74.0721 39.4057 73.8135 39.5649 73.5417 39.5649Z" fill="#1E1E1E"/>
<path d="M33.8119 44.2137C33.4349 44.2137 33.1238 43.9138 33.1126 43.5344C32.9762 38.9032 33.5661 36.6218 35.0256 36.1371C36.3993 35.6816 38.0362 36.9378 40.3337 40.2121C40.5557 40.5285 40.4792 40.9651 40.1627 41.1872C39.8462 41.409 39.4098 41.3326 39.1876 41.0162C36.5401 37.243 35.5693 37.4317 35.4669 37.4657C35.2796 37.5279 34.3534 38.1108 34.512 43.4931C34.5235 43.8796 34.2194 44.202 33.8329 44.2135C33.8259 44.2136 33.8188 44.2137 33.8119 44.2137Z" fill="#1E1E1E"/>
<path d="M49.6615 100.184C50.8686 92.1094 60.8043 92.1055 62.0199 100.172C62.1908 101.306 61.5763 102.416 60.5279 102.881C57.8661 104.061 53.79 104.118 51.0733 102.854C50.0635 102.385 49.4969 101.285 49.6615 100.184Z" fill="white"/>
<g opacity="0.55">
<path d="M60.9235 102.657C61.0375 102.299 61.0715 101.911 61.0135 101.521C60.7895 100.037 60.2695 98.8253 59.5635 97.8893C57.5875 97.8573 56.2715 97.0693 55.6155 95.5293C53.8435 95.2873 51.9895 95.8713 50.6255 97.2813C53.4655 92.2653 60.9735 93.2273 62.0195 100.171C62.1695 101.153 61.7275 102.119 60.9235 102.657Z" fill="white"/>
</g>
<path d="M55.8055 104.581C53.9811 104.581 52.1659 104.248 50.7356 103.583C49.4194 102.971 48.6522 101.525 48.87 100.068C49.5657 95.4146 52.8706 93.3298 55.8373 93.3281C55.8384 93.3281 55.84 93.3281 55.8411 93.3281C58.8063 93.3281 62.1101 95.4076 62.8106 100.056C63.0344 101.541 62.2288 103.005 60.8517 103.615C59.3988 104.26 57.5977 104.581 55.8055 104.581ZM50.4524 100.305C50.3387 101.065 50.7327 101.817 51.4104 102.132C53.8295 103.257 57.6918 103.266 60.2032 102.153C60.9236 101.833 61.3452 101.069 61.2284 100.294C60.6698 96.587 58.1206 94.9281 55.8411 94.9281C55.8401 94.9281 55.8393 94.9281 55.8383 94.9281C53.5574 94.9294 51.0074 96.5925 50.4524 100.305Z" fill="#1E1E1E"/>
<path d="M51.8269 102.531C52.5307 102.438 53.1671 102.239 53.5799 101.781C53.7882 101.553 53.9401 101.254 54.0304 100.915C54.1215 100.577 54.156 100.207 54.1634 99.8305L54.1636 99.8205C54.1664 99.6752 54.2865 99.5597 54.4319 99.5626C54.5605 99.5651 54.6657 99.6596 54.6861 99.7821C54.7538 100.185 54.7965 100.602 54.7641 101.037C54.7326 101.469 54.6138 101.926 54.366 102.336C54.1217 102.747 53.7583 103.088 53.3681 103.336C52.9764 103.586 52.5613 103.757 52.1532 103.893L52.1416 103.897C51.7727 104.02 51.3743 103.82 51.2515 103.451C51.1288 103.083 51.3282 102.684 51.6971 102.561C51.7388 102.547 51.7847 102.537 51.8269 102.531Z" fill="#1E1E1E"/>
<path d="M78.6615 100.184C79.8686 92.1094 89.8043 92.1055 91.0199 100.172C91.1907 101.306 90.5763 102.416 89.5279 102.881C86.8661 104.061 82.79 104.118 80.0733 102.854C79.0635 102.385 78.4969 101.285 78.6615 100.184Z" fill="white"/>
<g opacity="0.55">
<path d="M89.9223 102.657C90.0363 102.299 90.0703 101.911 90.0123 101.521C89.7883 100.037 89.2683 98.8253 88.5623 97.8893C86.5863 97.8573 85.2703 97.0693 84.6143 95.5293C82.8423 95.2873 80.9883 95.8713 79.6243 97.2813C82.4643 92.2653 89.9723 93.2273 91.0183 100.171C91.1683 101.153 90.7263 102.119 89.9223 102.657Z" fill="white"/>
</g>
<path d="M56.664 102.961C57.2865 102.619 57.8076 102.203 58.0267 101.627C58.1386 101.339 58.172 101.005 58.1335 100.657C58.0959 100.308 57.9941 99.9507 57.8649 99.5973L57.8615 99.5879C57.8116 99.4514 57.8819 99.3003 58.0183 99.2505C58.1391 99.2062 58.2714 99.2563 58.3348 99.3631C58.5438 99.7144 58.7344 100.088 58.8615 100.505C58.9885 100.919 59.0432 101.388 58.9606 101.86C58.8816 102.332 58.666 102.781 58.3918 103.153C58.1171 103.528 57.7922 103.837 57.4609 104.112L57.4514 104.119C57.1521 104.367 56.7084 104.326 56.4605 104.026C56.2127 103.727 56.2544 103.283 56.5538 103.035C56.5877 103.007 56.6269 102.981 56.664 102.961Z" fill="#1E1E1E"/>
<path d="M84.8055 104.581C82.9811 104.581 81.1659 104.248 79.7356 103.583C78.4194 102.971 77.6522 101.525 77.87 100.068C78.5657 95.4146 81.8707 93.3298 84.8374 93.3281C84.8385 93.3281 84.84 93.3281 84.8411 93.3281C87.8063 93.3281 91.1101 95.4076 91.8106 100.056C92.0345 101.541 91.2289 103.005 89.8517 103.615C88.3988 104.26 86.5977 104.581 84.8055 104.581ZM79.4524 100.305C79.3387 101.065 79.7327 101.817 80.4104 102.132C82.8296 103.257 86.6919 103.266 89.2032 102.153C89.9236 101.833 90.3452 101.069 90.2284 100.294C89.6698 96.587 87.1206 94.9281 84.8411 94.9281C84.8401 94.9281 84.8393 94.9281 84.8383 94.9281C82.5574 94.9294 80.0074 96.5925 79.4524 100.305Z" fill="#1E1E1E"/>
<path d="M80.8269 102.531C81.5307 102.438 82.1671 102.239 82.5799 101.781C82.7882 101.553 82.9401 101.254 83.0304 100.915C83.1215 100.577 83.156 100.207 83.1634 99.8305L83.1636 99.8205C83.1664 99.6752 83.2865 99.5597 83.4319 99.5626C83.5605 99.5651 83.6657 99.6596 83.6861 99.7821C83.7538 100.185 83.7965 100.602 83.7641 101.037C83.7326 101.469 83.6138 101.926 83.366 102.336C83.1217 102.747 82.7583 103.088 82.3681 103.336C81.9764 103.586 81.5613 103.757 81.1532 103.893L81.1416 103.897C80.7727 104.02 80.3743 103.82 80.2515 103.451C80.1288 103.083 80.3282 102.684 80.6971 102.561C80.7388 102.547 80.7847 102.537 80.8269 102.531Z" fill="#1E1E1E"/>
<path d="M85.664 102.961C86.2864 102.619 86.8076 102.203 87.0266 101.627C87.1386 101.339 87.172 101.005 87.1335 100.657C87.0959 100.308 86.9941 99.9507 86.8649 99.5973L86.8615 99.5879C86.8116 99.4514 86.8818 99.3003 87.0182 99.2505C87.1391 99.2062 87.2714 99.2563 87.3348 99.3631C87.5438 99.7144 87.7344 100.088 87.8615 100.505C87.9885 100.919 88.0432 101.388 87.9606 101.86C87.8816 102.332 87.666 102.781 87.3918 103.153C87.1171 103.528 86.7922 103.837 86.4608 104.112L86.4514 104.119C86.1521 104.367 85.7084 104.326 85.4605 104.026C85.2127 103.727 85.2544 103.283 85.5538 103.035C85.5877 103.007 85.6268 102.981 85.664 102.961Z" fill="#1E1E1E"/>
<path d="M51.7441 59.7865C51.6751 59.7865 51.605 59.7762 51.5357 59.7546C51.1665 59.6396 50.9606 59.2471 51.0755 58.8781C51.8459 56.4059 54.4769 56.0579 54.5885 56.0443C54.9731 55.9975 55.3213 56.2706 55.368 56.6544C55.4147 57.0372 55.143 57.3854 54.7608 57.4336C54.6783 57.4446 52.9093 57.6992 52.4122 59.2945C52.3188 59.5943 52.0423 59.7865 51.7441 59.7865Z" fill="#1E1E1E"/>
<path d="M84.3223 59.5926C84.0543 59.5926 83.7986 59.4378 83.6824 59.1772C82.9929 57.6291 81.1541 57.6032 81.1357 57.6031C80.7491 57.6014 80.437 57.2866 80.4387 56.9001C80.4404 56.5134 80.7551 56.2051 81.1418 56.2031C81.2543 56.2036 83.9079 56.2424 84.9614 58.6076C85.1187 58.9607 84.9599 59.3745 84.6067 59.5318C84.5142 59.5731 84.4174 59.5926 84.3223 59.5926Z" fill="#1E1E1E"/>
<path d="M52.8854 79.6516C54.3413 79.6516 55.5215 79.0807 55.5215 78.3766C55.5215 77.6724 54.3413 77.1016 52.8854 77.1016C51.4295 77.1016 50.2493 77.6724 50.2493 78.3766C50.2493 79.0807 51.4295 79.6516 52.8854 79.6516Z" fill="#F282BD"/>
<path d="M83.6325 79.6516C85.0883 79.6516 86.2686 79.0807 86.2686 78.3766C86.2686 77.6724 85.0883 77.1016 83.6325 77.1016C82.1766 77.1016 80.9963 77.6724 80.9963 78.3766C80.9963 79.0807 82.1766 79.6516 83.6325 79.6516Z" fill="#F282BD"/>
<path d="M70.7494 71.5802C70.7476 72.2962 69.7595 72.8742 68.5423 72.8713C67.3252 72.8683 66.3398 72.2855 66.3416 71.5695C66.3433 70.8535 67.3302 70.794 68.5474 70.797C69.7646 70.8 70.7512 70.8642 70.7494 71.5802Z" fill="#1E1E1E"/>
<path d="M73.6239 72.3451C73.6478 72.927 73.5333 73.5611 73.1476 74.1123C72.953 74.3823 72.6898 74.6173 72.3852 74.7858C72.08 74.9541 71.7355 75.0433 71.3946 75.0703C70.7069 75.1251 70.0384 74.9172 69.4748 74.5656C69.1922 74.3879 68.9368 74.1669 68.7136 73.9149L68.5556 73.7175L68.4831 73.6136L68.447 73.5616C68.4355 73.5447 68.4178 73.519 68.428 73.5358C68.4636 73.5889 68.5315 73.6211 68.5792 73.6188C68.6267 73.6206 68.6946 73.5888 68.7301 73.5357C68.7403 73.5189 68.7226 73.5445 68.7111 73.5613L68.675 73.6135L68.6024 73.7174C68.5509 73.7841 68.4981 73.8499 68.4441 73.9144C68.2209 74.1663 67.9658 74.3877 67.683 74.5647C67.1195 74.9167 66.4509 75.1233 65.7637 75.0691C65.423 75.0416 65.0786 74.9532 64.7736 74.7845C64.4693 74.6161 64.2058 74.3816 64.0116 74.1115C63.6258 73.5608 63.5111 72.9268 63.5344 72.3451C63.5384 72.2455 63.6222 72.1681 63.7218 72.172C63.7997 72.1751 63.864 72.2272 63.8864 72.2974L63.8881 72.303C64.051 72.8174 64.2724 73.2957 64.6148 73.5995C64.9442 73.9125 65.3645 74.0381 65.7932 74.0156C66.2228 73.9972 66.6572 73.8245 67.019 73.5665C67.1996 73.4359 67.3658 73.2857 67.5043 73.1144L67.6045 72.9839L67.7144 72.8225C67.9071 72.5381 68.253 72.3685 68.5792 72.3724C68.9055 72.3679 69.2514 72.538 69.4442 72.8223L69.554 72.9837L69.6546 73.1139C69.7931 73.285 69.959 73.4357 70.1399 73.5657C70.5015 73.824 70.9361 73.9955 71.3652 74.0144C71.7935 74.0367 72.2134 73.9117 72.5428 73.5987C72.8853 73.2954 73.1067 72.8172 73.2702 72.3029L73.2719 72.2978C73.3021 72.2029 73.4036 72.1504 73.4985 72.1806C73.5726 72.2041 73.6208 72.2715 73.6239 72.3451Z" fill="#1E1E1E"/>
<path d="M84.6305 68.6608C84.6386 65.2894 82.4905 62.5512 79.8327 62.5448C77.1749 62.5384 75.0137 65.2663 75.0056 68.6377C74.9975 72.0091 77.1456 74.7474 79.8034 74.7537C82.4612 74.7601 84.6224 72.0322 84.6305 68.6608Z" fill="white"/>
<path d="M79.8157 75.3932C79.8121 75.3932 79.8086 75.3932 79.805 75.3932C76.8076 75.3857 74.3766 72.3617 74.3855 68.6521C74.3945 64.9469 76.8346 61.9375 79.8269 61.9375C79.8305 61.9375 79.834 61.9375 79.8377 61.9375C82.835 61.9449 85.2661 64.9689 85.2571 68.6786C85.2479 72.3838 82.808 75.3932 79.8157 75.3932ZM79.8268 63.1842C77.5204 63.1842 75.6396 65.6362 75.6322 68.6552C75.6249 71.6775 77.4982 74.1409 79.808 74.1465C79.8106 74.1465 79.8134 74.1465 79.816 74.1465C82.1222 74.1465 84.0031 71.6946 84.0105 68.6755C84.0178 65.6533 82.1446 63.1899 79.8347 63.1842C79.8321 63.1842 79.8293 63.1842 79.8268 63.1842Z" fill="#1E1E1E"/>
<path d="M82.8845 69.2537C82.8911 66.5014 81.1702 64.266 79.0408 64.2609C76.9113 64.2558 75.1797 66.4829 75.1731 69.2352C75.1665 71.9875 76.8874 74.2229 79.0169 74.228C81.1463 74.2331 82.8779 72.006 82.8845 69.2537Z" fill="#1E1E1E"/>
<path d="M80.839 67.549C80.8408 66.8186 80.4378 66.2255 79.939 66.2243C79.4402 66.2231 79.0345 66.8143 79.0327 67.5447C79.031 68.2751 79.4339 68.8682 79.9327 68.8694C80.4315 68.8706 80.8373 68.2794 80.839 67.549Z" fill="white"/>
<path d="M62.257 68.6061C62.2651 65.2347 60.117 62.4965 57.4592 62.4901C54.8013 62.4837 52.6402 65.2116 52.6321 68.583C52.624 71.9544 54.772 74.6927 57.4299 74.699C60.0877 74.7054 62.2489 71.9775 62.257 68.6061Z" fill="white"/>
<path d="M57.4411 75.3306C57.4372 75.3306 57.434 75.3306 57.4301 75.3306C55.9497 75.327 54.5692 74.6043 53.5427 73.2957C52.5505 72.0308 52.0064 70.3594 52.0108 68.5894C52.0198 64.8844 54.4598 61.875 57.4522 61.875C57.4558 61.875 57.4593 61.875 57.4629 61.875C58.9434 61.8786 60.324 62.6013 61.3505 63.9099C62.3427 65.1748 62.8867 66.8461 62.8824 68.6161C62.8732 72.3211 60.4331 75.3306 57.4411 75.3306ZM53.2574 68.5926C53.2538 70.0837 53.7034 71.4808 54.5235 72.5262C55.3094 73.5281 56.3427 74.0812 57.4331 74.0838C57.4356 74.0838 57.4387 74.0838 57.4411 74.0838C59.7475 74.0841 61.6282 71.632 61.6356 68.613C61.6392 67.1218 61.1896 65.7248 60.3695 64.6793C59.5836 63.6775 58.5503 63.1243 57.4599 63.1217C57.4574 63.1217 57.4546 63.1217 57.452 63.1217C55.1456 63.1217 53.2647 65.5736 53.2574 68.5926Z" fill="#1E1E1E"/>
<path d="M62.0869 69.2068C62.0935 66.4545 60.3726 64.2191 58.2432 64.214C56.1137 64.2089 54.3821 66.436 54.3755 69.1883C54.3689 71.9407 56.0898 74.176 58.2192 74.1811C60.3487 74.1862 62.0803 71.9592 62.0869 69.2068Z" fill="#1E1E1E"/>
<path d="M58.2355 67.5021C58.2373 66.7717 57.8343 66.1786 57.3355 66.1774C56.8367 66.1762 56.431 66.7674 56.4292 67.4978C56.4274 68.2282 56.8304 68.8213 57.3292 68.8225C57.828 68.8237 58.2338 68.2325 58.2355 67.5021Z" fill="white"/>
<path d="M65.76 74.5517C65.76 75.3015 65.9809 75.9017 66.3371 76.3523C67.4056 77.7111 69.687 77.7111 70.7556 76.3523C71.1118 75.9017 71.3326 75.3015 71.3326 74.5517C70.2516 74.3345 69.3041 73.9373 68.5454 73.2891C67.76 73.9943 66.8642 74.4823 65.76 74.5517Z" fill="#1E1E1E"/>
<path d="M66.3369 76.3499C67.4055 77.7088 69.6869 77.7088 70.7554 76.3499C69.6887 74.9875 67.4037 74.9875 66.3369 76.3499Z" fill="#F42A48"/>
<path d="M68.5453 77.9889C67.6613 77.9889 66.833 77.6818 66.213 77.1243C65.7216 76.6824 65.1357 75.8766 65.1357 74.5469H66.3824C66.3824 76.0634 67.4687 76.7422 68.5453 76.7422C69.622 76.7422 70.7083 76.0634 70.7083 74.5469H71.955C71.955 76.8066 70.2397 77.9889 68.5453 77.9889Z" fill="#1E1E1E"/>
<path d="M105.241 124.665V127.879C105.241 129.447 103.971 130.717 102.403 130.717H67.0228C66.0868 130.717 65.2128 130.257 64.6828 129.487L56.1628 117.049C55.8368 116.577 55.6628 116.015 55.6628 115.441V112.229C55.6628 110.661 56.9328 109.391 58.5008 109.391H93.8828C94.8168 109.391 95.6908 109.851 96.2208 110.621L104.741 123.057C105.067 123.531 105.241 124.091 105.241 124.665Z" fill="#A469F7"/>
<g opacity="0.3">
<path d="M68.1572 124.54C68.5646 125.036 68.7438 125.681 68.6508 126.316L68.0088 130.701C68.0088 130.701 68.0048 130.707 67.9988 130.717H67.0228C66.0868 130.717 65.2128 130.257 64.6828 129.487L56.1628 117.049C55.8368 116.577 55.6628 116.015 55.6628 115.441V112.229C55.6628 110.661 56.9334 109.391 58.5008 109.391H63.5928L66.4748 122.491L68.1572 124.54Z" fill="#1E1E1E"/>
</g>
<path d="M102.403 131.414H67.0224C65.8569 131.414 64.767 130.841 64.1066 129.881L55.5852 117.442C55.1783 116.85 54.9629 116.157 54.9629 115.438V112.226C54.9629 110.275 56.5503 108.688 58.5016 108.688H93.882C95.0473 108.688 96.1372 109.261 96.7977 110.221L105.319 122.658C105.726 123.249 105.941 123.943 105.941 124.662V127.876C105.941 129.827 104.354 131.414 102.403 131.414ZM58.5016 110.088C57.3223 110.088 56.3629 111.047 56.3629 112.226V115.438C56.3629 115.872 56.493 116.291 56.7394 116.65L65.2608 129.088C65.6593 129.668 66.3181 130.014 67.0224 130.014H102.403C103.582 130.014 104.541 129.055 104.541 127.876V124.662C104.541 124.227 104.411 123.808 104.165 123.45L95.6435 111.013C95.245 110.434 94.5864 110.088 93.882 110.088L58.5016 110.088Z" fill="#1E1E1E"/>
<path d="M65.5026 118.273V122.495L58.8269 112.183V107.961L65.5026 118.273Z" fill="white"/>
<g opacity="0.3">
<path d="M65.5026 118.273V122.495L58.8269 112.183V107.961L65.5026 118.273Z" fill="#1E1E1E"/>
</g>
<path d="M103.674 118.273V122.495H65.5026V118.273L58.8269 107.961H97.0003L103.674 118.273Z" fill="white"/>
<g opacity="0.55">
<path d="M103.675 118.273V122.495H102.739V119.489L100.633 116.195H64.4749L64.0129 115.395L100.015 115.229L98.4909 112.845H62.0409L61.7989 111.837L97.6829 111.677L96.0649 109.177H59.6149L58.8269 107.961H97.0009L103.675 118.273Z" fill="white"/>
</g>
<path d="M65.5025 123.166C65.2765 123.166 65.0598 123.053 64.9324 122.856L58.2567 112.544C58.1855 112.434 58.1477 112.306 58.1477 112.175V107.953C58.1477 107.652 58.3457 107.387 58.6344 107.301C58.923 107.216 59.2333 107.331 59.3969 107.584L66.0726 117.896C66.1438 118.006 66.1816 118.134 66.1816 118.265V122.487C66.1816 122.788 65.9836 123.053 65.6949 123.138C65.6312 123.157 65.5665 123.166 65.5025 123.166ZM59.5059 111.974L64.8234 120.188V118.465L59.5059 110.252V111.974Z" fill="#1E1E1E"/>
<path d="M103.674 123.166H65.5025C65.1275 123.166 64.8234 122.862 64.8234 122.487V118.465L58.2567 108.322C58.1215 108.113 58.1114 107.847 58.2303 107.628C58.3491 107.409 58.578 107.273 58.8269 107.273H97.0003C97.2307 107.273 97.4453 107.39 97.5704 107.583L104.244 117.895C104.315 118.005 104.353 118.134 104.353 118.265V122.486C104.353 122.862 104.049 123.166 103.674 123.166ZM66.1817 121.807H102.995V118.465L96.6309 108.632H60.0756L66.0727 117.896C66.1439 118.005 66.1817 118.134 66.1817 118.265V121.807Z" fill="#1E1E1E"/>
<path d="M103.675 118.944H65.5033C65.1282 118.944 64.8242 118.64 64.8242 118.265C64.8242 117.89 65.1282 117.586 65.5033 117.586H103.675C104.05 117.586 104.354 117.89 104.354 118.265C104.354 118.64 104.05 118.944 103.675 118.944Z" fill="#1E1E1E"/>
<path d="M99.1988 112.25H61.2298C60.9083 112.25 60.6477 111.99 60.6477 111.668C60.6477 111.347 60.9083 111.086 61.2298 111.086H99.1988C99.5203 111.086 99.7809 111.347 99.7809 111.668C99.7809 111.99 99.5203 112.25 99.1988 112.25Z" fill="#1E1E1E"/>
<path d="M101.685 115.649H63.7162C63.3947 115.649 63.134 115.388 63.134 115.066C63.134 114.745 63.3947 114.484 63.7162 114.484H101.685C102.007 114.484 102.267 114.745 102.267 115.066C102.267 115.388 102.007 115.649 101.685 115.649Z" fill="#1E1E1E"/>
<path d="M70.6881 118.851C70.4972 118.851 70.3103 118.757 70.1989 118.585L63.5237 108.273C63.349 108.004 63.4261 107.643 63.6961 107.469C63.9661 107.294 64.3263 107.371 64.5011 107.641L71.1763 117.952C71.351 118.222 71.2738 118.582 71.0039 118.757C70.9061 118.82 70.7965 118.851 70.6881 118.851Z" fill="#1E1E1E"/>
<path d="M75.4721 118.851C75.2812 118.851 75.0942 118.757 74.9828 118.585L68.3076 108.273C68.1329 108.004 68.2101 107.643 68.48 107.469C68.7498 107.294 69.1102 107.371 69.285 107.641L75.9602 117.952C76.1349 118.222 76.0578 118.582 75.7878 118.757C75.69 118.82 75.5805 118.851 75.4721 118.851Z" fill="#1E1E1E"/>
<path d="M80.2241 118.851C80.0332 118.851 79.8463 118.757 79.7349 118.585L73.0596 108.273C72.8849 108.004 72.962 107.643 73.232 107.469C73.502 107.294 73.8622 107.371 74.037 107.641L80.7122 117.952C80.887 118.222 80.8098 118.582 80.5399 118.757C80.4421 118.82 80.3325 118.851 80.2241 118.851Z" fill="#1E1E1E"/>
<path d="M82.9751 115.651C82.7842 115.651 82.5973 115.558 82.4859 115.386L77.8819 108.274C77.7071 108.004 77.7843 107.643 78.0542 107.469C78.3243 107.294 78.6845 107.371 78.8592 107.641L83.4632 114.753C83.6379 115.023 83.5608 115.383 83.2909 115.558C83.1931 115.621 83.0834 115.651 82.9751 115.651Z" fill="#1E1E1E"/>
<path d="M87.7495 115.651C87.5586 115.651 87.3717 115.558 87.2603 115.386L82.6563 108.274C82.4816 108.004 82.5587 107.643 82.8286 107.469C83.0988 107.294 83.4589 107.371 83.6336 107.641L88.2376 114.753C88.4124 115.023 88.3352 115.383 88.0653 115.558C87.9675 115.621 87.8578 115.651 87.7495 115.651Z" fill="#1E1E1E"/>
<path d="M94.5154 118.851C94.3245 118.851 94.1375 118.757 94.0261 118.585L87.3509 108.273C87.1761 108.004 87.2533 107.643 87.5232 107.469C87.7931 107.294 88.1534 107.371 88.3282 107.641L95.0035 117.952C95.1782 118.222 95.1011 118.582 94.8311 118.757C94.7333 118.82 94.6238 118.851 94.5154 118.851Z" fill="#1E1E1E"/>
<path d="M94.4631 118.851C94.2722 118.851 94.0853 118.757 93.9739 118.585L87.2986 108.273C87.1239 108.004 87.201 107.643 87.471 107.469C87.741 107.294 88.1012 107.371 88.276 107.641L94.9512 117.952C95.126 118.222 95.0488 118.582 94.7789 118.757C94.6811 118.82 94.5715 118.851 94.4631 118.851Z" fill="#1E1E1E"/>
<path d="M99.0886 118.851C98.8977 118.851 98.7108 118.757 98.5994 118.585L91.9241 108.273C91.7494 108.004 91.8265 107.643 92.0965 107.469C92.3665 107.294 92.7267 107.371 92.9015 107.641L99.5767 117.952C99.7515 118.222 99.6743 118.582 99.4044 118.757C99.3066 118.82 99.197 118.851 99.0886 118.851Z" fill="#1E1E1E"/>
</svg>
