<svg width="160" height="160" viewBox="0 0 160 160" fill="none" xmlns="http://www.w3.org/2000/svg">
<g opacity="0.2">
<path d="M62 143C87.4051 143 108 140.985 108 138.5C108 136.015 87.4051 134 62 134C36.5949 134 16 136.015 16 138.5C16 140.985 36.5949 143 62 143Z" fill="#1E1E1E"/>
</g>
<path d="M20.048 128.008C23.118 121.348 30.342 119.006 31.506 125.949C31.8338 127.903 33.1446 129.58 35.0233 130.205C38.086 131.225 41.8038 130.124 44.9399 127.638L51.9465 122.1L56.9248 98.8385L51.6974 89.0642L42.3585 87.9141L37.3801 88.6846L27.0546 93.4846L18.3885 102.9L13.4102 120.254L20.048 128.008Z" fill="#A62020"/>
<path d="M37.4308 131.134C36.5322 131.134 35.6645 131.001 34.8492 130.73C32.8229 130.056 31.3329 128.258 30.9609 126.039C30.5888 123.82 29.5711 122.536 28.0178 122.328C25.4699 121.986 22.2612 124.528 20.5507 128.239C20.4718 128.41 20.3111 128.529 20.1246 128.555C19.9377 128.582 19.7512 128.51 19.6284 128.367L12.9905 120.613C12.8695 120.472 12.8275 120.279 12.8789 120.1L17.8573 102.746C17.8811 102.663 17.9239 102.587 17.9823 102.524L26.6484 93.1083C26.6974 93.0551 26.7565 93.0119 26.8222 92.9813L37.1477 88.1814C37.1948 88.1595 37.2448 88.1444 37.2961 88.1364L42.2745 87.3658C42.325 87.3581 42.3761 87.3574 42.4266 87.3634L51.7655 88.5136C51.9439 88.5356 52.1006 88.6431 52.1855 88.8018L57.4129 98.5761C57.4747 98.6916 57.4936 98.8254 57.4662 98.9536L52.4879 122.215C52.4609 122.341 52.3908 122.454 52.2898 122.534L45.2831 128.072C42.7629 130.07 39.9746 131.134 37.4308 131.134ZM27.5529 121.19C27.7589 121.19 27.9628 121.203 28.1646 121.23C29.3535 121.39 31.4395 122.202 32.052 125.856C32.356 127.669 33.5616 129.134 35.1983 129.679C37.9657 130.6 41.4794 129.675 44.597 127.203L51.4479 121.788L56.3419 98.92L51.3456 89.5779L42.3677 88.4723L37.5425 89.2191L27.3875 93.9399L18.8845 103.178L14.0245 120.119L19.9248 127.011C21.7886 123.509 24.83 121.19 27.5529 121.19Z" fill="#1E1E1E"/>
<path d="M53.9748 93.1208L53.2373 98.6592L51.2017 108.088L50.9564 109.219L50.2871 112.321L49.2804 113.541L46.7838 116.567C43.6364 118.348 38.8719 116.766 35.4018 114.099C34.821 113.652 34.4006 113.013 34.2641 112.291C33.9119 110.434 35.6857 109.655 37.0114 110.659C35.8977 109.714 35.0403 108.621 34.4522 107.371C34.8596 106.45 35.3907 105.582 36.0176 104.79C35.6802 104.03 35.3925 103.247 35.1602 102.448C34.7232 100.945 34.4835 99.2777 35.127 97.8506L35.0293 97.6088C37.2511 93.9977 41.5915 91.93 46.1956 90.7466C46.758 90.6026 47.324 90.4716 47.8901 90.3516L53.9748 93.1208Z" fill="#0096F0"/>
<path d="M53.9744 93.1208L53.2369 98.6592L51.2013 108.088C50.567 107.62 49.9567 107.116 49.4902 106.485C48.7951 105.549 48.4632 104.403 47.9985 103.334C47.1079 101.275 45.69 99.4475 43.9199 98.0703L43.9716 97.8488C44.8345 98.1497 45.8062 98.4469 46.6285 98.0518C47.1872 97.7823 47.5634 97.2359 47.8067 96.6654C48.6715 94.6365 47.921 92.0814 46.1952 90.7466C46.7576 90.6026 47.3236 90.4716 47.8897 90.3516L53.9744 93.1208Z" fill="#006DEF"/>
<path d="M50.9564 109.214L50.2871 112.315L49.2804 113.536L46.7838 116.562C43.6364 118.343 38.8719 116.761 35.4018 114.093C34.821 113.646 34.4006 113.008 34.2641 112.286C33.9119 110.429 35.6857 109.65 37.0114 110.654C35.8977 109.709 35.0403 108.616 34.4522 107.366C34.8596 106.445 35.3907 105.577 36.0176 104.785C37.9149 102.389 40.7046 100.685 43.7359 100.258C44.3167 100.177 44.927 100.142 45.471 100.36C46.2085 100.655 46.6916 101.353 47.1304 102.016C48.635 104.281 50.1728 106.646 50.9564 109.214Z" fill="#D84545"/>
<path d="M36.0177 104.783C35.3909 105.575 34.8598 106.443 34.4523 107.364C33.7886 105.955 33.4677 104.347 33.5083 102.529C33.6263 100.629 34.1684 98.9991 35.0295 97.6016L35.1272 97.8434C34.4837 99.2705 34.7234 100.938 35.1604 102.44C35.3927 103.24 35.6803 104.022 36.0177 104.783Z" fill="#006DEF"/>
<path d="M49.2804 113.54L46.7838 116.566C43.6364 118.347 38.8719 116.765 35.4018 114.097C34.821 113.651 34.4006 113.012 34.2641 112.29C33.9119 110.433 35.6857 109.654 37.0114 110.658C35.8977 109.713 35.0403 108.62 34.4522 107.37C34.8596 106.449 35.3907 105.581 36.0176 104.789C37.0077 107.014 38.4385 109.041 40.2474 110.665C41.3684 111.673 42.8509 112.569 44.3057 112.175C45.6867 111.804 46.5109 110.431 47.1913 109.174C47.8735 110.278 48.5594 111.393 49.002 112.615C49.1126 112.918 49.2048 113.226 49.2804 113.54Z" fill="#B02A2A"/>
<path d="M43.6712 117.876C40.7558 117.876 37.515 116.42 35.0651 114.537C34.3565 113.992 33.879 113.231 33.7206 112.394C33.5245 111.358 33.8657 110.455 34.6334 109.978C34.839 109.85 35.0621 109.762 35.2945 109.711C33.6794 107.762 32.8939 105.352 32.9555 102.523C32.9557 102.516 32.956 102.508 32.9564 102.501C33.1756 98.9443 34.8448 96.0077 37.9179 93.7729C40.3416 92.0104 43.6586 90.6767 47.7765 89.8087C47.8918 89.7845 48.012 89.7977 48.1194 89.8464L54.2042 92.6156C54.426 92.7166 54.5557 92.9512 54.5236 93.1931L53.786 98.7315C53.784 98.7462 53.7814 98.7609 53.7783 98.7753L50.8282 112.437C50.8096 112.523 50.7704 112.604 50.714 112.673L47.2107 116.919C47.1676 116.971 47.1154 117.015 47.0565 117.048C46.0377 117.625 44.8825 117.876 43.6712 117.876ZM35.7676 110.769C35.5685 110.769 35.3793 110.818 35.2163 110.92C34.8474 111.149 34.6984 111.611 34.8074 112.187C34.9152 112.757 35.246 113.279 35.7388 113.658C38.8869 116.078 43.3943 117.767 46.4247 116.132L49.7753 112.071L52.6922 98.563L53.3727 93.4539L47.8274 90.9303C39.0568 92.8178 34.4257 96.7293 34.0612 102.558C33.9937 105.781 35.0758 108.292 37.3692 110.235C37.5979 110.429 37.6309 110.77 37.4437 111.004C37.2564 111.239 36.9169 111.281 36.678 111.1C36.3899 110.881 36.0675 110.769 35.7676 110.769Z" fill="#1E1E1E"/>
<path d="M37.1701 110.059C38.0977 111.016 39.1533 111.879 40.2635 112.674C40.3665 112.747 40.3907 112.89 40.3175 112.993C40.2514 113.086 40.1277 113.115 40.0286 113.065C38.7895 112.446 37.5777 111.743 36.4405 110.891C36.1941 110.708 36.1435 110.359 36.3274 110.113C36.5274 109.84 36.9371 109.814 37.1701 110.059Z" fill="#1E1E1E"/>
<path d="M49.5135 112.596C49.4244 108.582 48.2865 104.55 46.0944 101.17C45.3699 100.034 44.5229 98.9807 43.5688 98.0107C43.4703 97.9181 43.5949 97.7428 43.7152 97.8131C44.983 98.4652 46.0266 99.4992 46.8522 100.65C48.5019 102.949 49.6227 105.601 50.2029 108.366C50.5069 109.746 50.6278 111.17 50.6195 112.581C50.6116 113.308 49.5427 113.33 49.5135 112.596Z" fill="#1E1E1E"/>
<path d="M34.5161 108.055C34.4567 108.055 34.3962 108.045 34.3369 108.024C34.0478 107.925 33.8939 107.61 33.9929 107.321C35.7211 102.271 40.3072 99.3911 45.962 99.8049C46.2666 99.8272 46.4955 100.093 46.4733 100.398C46.451 100.703 46.1857 100.931 45.8813 100.91C40.751 100.533 36.5971 103.129 35.0394 107.68C34.9608 107.91 34.746 108.055 34.5161 108.055Z" fill="#1E1E1E"/>
<path d="M78.6787 93.1208L79.4162 98.6592L81.4518 108.088L81.6971 109.219L82.3664 112.321L83.3731 113.541L85.8697 116.567C89.0171 118.348 93.7816 116.766 97.2517 114.099C97.8325 113.652 98.2529 113.013 98.3894 112.291C98.7415 110.434 96.9678 109.655 95.6421 110.659C96.7558 109.714 97.6131 108.621 98.2013 107.371C97.7938 106.45 97.2628 105.582 96.6359 104.79C96.9733 104.03 97.261 103.247 97.4933 102.448C97.9303 100.945 98.17 99.2777 97.5265 97.8506L97.6242 97.6088C95.4024 93.9977 91.062 91.93 86.4579 90.7466C85.8955 90.6026 85.3295 90.4716 84.7634 90.3516L78.6787 93.1208Z" fill="#0096F0"/>
<path d="M78.6787 93.1208L79.4162 98.6592L81.4518 108.088C82.0861 107.62 82.6964 107.116 83.1629 106.485C83.858 105.549 84.1899 104.403 84.6546 103.334C85.5452 101.275 86.9631 99.4475 88.7332 98.0703L88.6816 97.8488C87.8186 98.1497 86.8469 98.4469 86.0246 98.0518C85.4659 97.7823 85.0897 97.2359 84.8463 96.6654C83.9816 94.6365 84.732 92.0814 86.4579 90.7466C85.8955 90.6026 85.3294 90.4716 84.7634 90.3516L78.6787 93.1208Z" fill="#006DEF"/>
<path d="M81.6973 109.214L82.3666 112.315L83.3733 113.536L85.8699 116.562C89.0173 118.343 93.7818 116.761 97.2519 114.093C97.8327 113.646 98.2531 113.008 98.3896 112.286C98.7417 110.429 96.968 109.65 95.6423 110.654C96.7559 109.709 97.6133 108.616 98.2015 107.366C97.794 106.445 97.263 105.577 96.6361 104.785C94.7388 102.389 91.949 100.685 88.9178 100.258C88.3369 100.177 87.7267 100.142 87.1827 100.36C86.4452 100.655 85.9621 101.353 85.5233 102.016C84.0187 104.281 82.4809 106.646 81.6973 109.214Z" fill="#D84545"/>
<path d="M96.6357 104.783C97.2626 105.575 97.7937 106.443 98.2011 107.364C98.8649 105.955 99.1857 104.347 99.1452 102.529C99.0272 100.629 98.4851 98.9991 97.624 97.6016L97.5263 97.8434C98.1698 99.2705 97.9301 100.938 97.4931 102.44C97.2608 103.24 96.9732 104.022 96.6357 104.783Z" fill="#006DEF"/>
<path d="M83.373 113.54L85.8696 116.566C89.017 118.347 93.7815 116.765 97.2516 114.097C97.8325 113.651 98.2528 113.012 98.3893 112.29C98.7415 110.433 96.9677 109.654 95.642 110.658C96.7557 109.713 97.6131 108.62 98.2013 107.37C97.7938 106.449 97.2627 105.581 96.6358 104.789C95.6457 107.014 94.2149 109.041 92.4061 110.665C91.285 111.673 89.8026 112.569 88.3477 112.175C86.9667 111.804 86.1425 110.431 85.4621 109.174C84.7799 110.278 84.094 111.393 83.6515 112.615C83.5408 112.918 83.4486 113.226 83.373 113.54Z" fill="#B02A2A"/>
<path d="M88.9831 117.876C87.7716 117.876 86.6168 117.625 85.5978 117.048C85.539 117.015 85.4867 116.971 85.4436 116.919L81.9403 112.673C81.884 112.604 81.8448 112.523 81.8262 112.437L78.8761 98.7753C78.8729 98.7608 78.8703 98.7462 78.8683 98.7315L78.1308 93.1931C78.0987 92.9511 78.2284 92.7166 78.4503 92.6156L84.535 89.8464C84.6423 89.7977 84.7625 89.7845 84.8778 89.8086C88.9958 90.6766 92.3128 92.0104 94.7364 93.7729C97.8096 96.0077 99.4788 98.9443 99.6979 102.501C99.6983 102.508 99.6986 102.516 99.6988 102.523C99.7605 105.352 98.9749 107.762 97.3599 109.711C97.5923 109.762 97.8153 109.85 98.021 109.978C98.7887 110.455 99.1299 111.358 98.9339 112.394C98.7753 113.231 98.2978 113.992 97.5893 114.537C95.1395 116.42 91.8983 117.876 88.9831 117.876ZM86.2296 116.132C89.2597 117.767 93.7671 116.078 96.9156 113.658C97.4083 113.279 97.739 112.757 97.847 112.187C97.956 111.611 97.807 111.149 97.4379 110.92C97.0293 110.666 96.4555 110.737 95.9762 111.1C95.7375 111.281 95.3977 111.239 95.2106 111.004C95.0234 110.77 95.0564 110.429 95.2851 110.235C97.5785 108.292 98.6606 105.78 98.5929 102.558C98.2285 96.7292 93.5975 92.8178 84.8269 90.9303L79.2817 93.454L79.9621 98.5631L82.8789 112.071L86.2296 116.132Z" fill="#1E1E1E"/>
<path d="M96.2131 110.896C95.0759 111.748 93.8641 112.45 92.6251 113.07C92.512 113.127 92.3745 113.081 92.318 112.968C92.2669 112.865 92.3001 112.743 92.3902 112.678C93.5003 111.884 94.5559 111.021 95.4835 110.064C96.0536 109.516 96.8303 110.4 96.2131 110.896Z" fill="#1E1E1E"/>
<path d="M82.034 112.572C81.9771 109.749 82.5678 106.913 83.682 104.321C84.5391 102.393 85.6068 100.482 87.1678 99.0306C87.6907 98.5417 88.2917 98.1281 88.9375 97.8177C89.055 97.7582 89.1784 97.9168 89.0846 98.0143C88.1668 99.0248 87.3283 100.072 86.6111 101.21C85.1508 103.458 84.1717 106.01 83.6169 108.626C83.3512 109.936 83.1706 111.265 83.14 112.6C83.1068 113.326 82.0338 113.308 82.034 112.572Z" fill="#1E1E1E"/>
<path d="M98.1383 108.055C97.9084 108.055 97.6937 107.91 97.6151 107.68C96.0573 103.129 91.9031 100.535 86.7732 100.91C86.468 100.932 86.2035 100.703 86.1812 100.398C86.1589 100.093 86.3878 99.8273 86.6925 99.805C92.3475 99.3907 96.9332 102.271 98.6615 107.321C98.7605 107.61 98.6067 107.925 98.3176 108.024C98.2582 108.045 98.1977 108.055 98.1383 108.055Z" fill="#1E1E1E"/>
<path d="M94.1777 138.925C93.7776 139.279 93.2466 139.453 92.7119 139.453H74.6109C74.5758 139.453 74.5426 139.453 74.5076 139.449C73.0952 139.39 71.8764 138.406 71.5464 137.019C70.984 134.671 70.8162 131.219 70.2594 128.424C69.8998 126.624 69.378 125.097 68.4856 124.314C67.2484 124.416 65.9651 124.417 64.6412 124.336C64.5287 124.329 64.4144 124.321 64.3001 124.314C63.4095 125.095 62.8877 126.614 62.53 128.409C61.9695 131.206 61.8017 134.665 61.2393 137.019C60.8982 138.45 59.6112 139.452 58.1416 139.452H40.0738C39.5391 139.452 39.0081 139.279 38.6079 138.924C38.0105 138.395 37.8022 137.612 37.9017 136.755C38.147 134.632 40.2877 132.049 43.0959 131.699C43.1051 131.636 43.1143 131.573 43.1235 131.512C43.1309 131.466 43.1383 131.42 43.1438 131.376C43.4259 129.522 43.7228 127.729 44.0381 126.007C44.6779 122.516 45.3989 119.322 46.2304 116.56C44.7553 108.806 48.9962 103.822 51.9463 92.3756L55.0809 85.9141L78.3852 86.9017L80.8394 92.3756C83.7895 103.822 88.0304 108.806 86.5553 116.56C87.3905 119.329 88.1097 122.529 88.7532 126.031C89.0851 127.846 89.3948 129.74 89.6899 131.699C93.6301 132.192 96.2557 137.078 94.1777 138.925Z" fill="#0096F0"/>
<path d="M52.6222 119.608C52.6924 119.443 54.4715 120.234 57.34 120.903C59.7828 121.473 61.691 121.646 62.6404 121.728C66.0324 122.023 68.594 121.76 71.3041 121.468C73.6915 121.21 76.8005 120.741 80.3963 119.83C79.417 120.515 77.971 121.431 76.1005 122.282C75.9902 122.333 74.9627 122.798 73.9435 123.154C68.7501 124.967 63.4022 124.071 63.4022 124.071C61.0175 123.671 59.3399 122.957 57.0736 121.993C54.7264 120.995 52.543 119.794 52.6222 119.608Z" fill="#006DEF"/>
<path d="M62.53 128.41C61.9695 131.207 61.8017 134.666 61.2393 137.02C60.8982 138.451 59.6112 139.453 58.1416 139.453H40.0738C39.5391 139.453 39.0081 139.28 38.6079 138.925C38.0105 138.396 37.8022 137.613 37.9017 136.756C38.147 134.633 40.2877 132.05 43.0959 131.7C43.1051 131.637 43.1143 131.574 43.1235 131.513C43.1309 131.467 43.1383 131.421 43.1438 131.376C43.4259 129.523 43.7228 127.73 44.0381 126.008C47.9876 128.674 52.505 129.776 57.5885 129.307C59.1797 129.163 60.8281 128.862 62.53 128.41Z" fill="#D84545"/>
<path d="M94.2482 138.925C93.8463 139.28 93.3115 139.453 92.775 139.453H74.6113C74.5762 139.453 74.543 139.453 74.508 139.45C73.0956 139.391 71.8768 138.407 71.5468 137.02C70.9844 134.672 70.8166 131.219 70.2598 128.424C77.3973 130.302 83.5631 129.503 88.7535 126.032C88.7646 126.023 88.7775 126.015 88.7886 126.008C89.1242 127.83 89.4395 129.732 89.7363 131.699C93.6987 132.192 96.3373 137.079 94.2482 138.925Z" fill="#D84545"/>
<path d="M66.3284 113.977C71.0127 113.977 74.81 110.175 74.81 105.484C74.81 100.794 71.0127 96.9922 66.3284 96.9922C61.6441 96.9922 57.8467 100.794 57.8467 105.484C57.8467 110.175 61.6441 113.977 66.3284 113.977Z" fill="white"/>
<path d="M63.3451 116.56C63.2451 116.56 63.1443 116.533 63.0541 116.477C62.8207 116.333 62.7287 116.038 62.838 115.786L62.9165 115.605L64.5459 108.694L59.6972 107.761C59.5402 107.73 59.4096 107.635 59.3306 107.507C59.2994 107.469 59.2731 107.427 59.2524 107.381C59.1633 107.182 59.1995 106.949 59.3446 106.786L69.6764 95.2006C69.7848 95.0789 69.9363 95.0156 70.0892 95.0156C70.1974 95.0156 70.3061 95.0472 70.4012 95.1123C70.6306 95.2693 70.708 95.5723 70.5822 95.8204L70.5348 95.9136C70.5334 95.9183 67.5004 104.722 67.5004 104.722H72.3718C72.587 104.722 72.7825 104.847 72.8733 105.042C72.964 105.238 72.9334 105.468 72.795 105.633L63.7686 116.363C63.66 116.492 63.5037 116.56 63.3451 116.56Z" fill="white"/>
<path d="M59.8018 107.223L65.217 108.266L63.4438 115.787L67.9246 107.014L66.8994 106.289L59.8018 107.223Z" fill="#D37416"/>
<path d="M70.008 95.75L66.7254 105.279L63.9951 105.47L65.0094 103.257L70.008 95.75Z" fill="#D37416"/>
<path d="M63.4439 116.059C63.4122 116.059 63.38 116.054 63.3486 116.042C63.2172 115.994 63.1426 115.855 63.1749 115.718L64.8818 108.479L59.7498 107.49C59.6166 107.465 59.5215 107.346 59.5255 107.21C59.5295 107.074 59.6314 106.962 59.766 106.944L66.8635 106.01C66.9327 106.001 67.0024 106.018 67.0591 106.058L68.0844 106.784C68.1968 106.863 68.2337 107.013 68.171 107.136L63.6902 115.908C63.6418 116.003 63.5452 116.059 63.4439 116.059ZM61.5337 107.27L65.2695 107.989C65.3436 108.004 65.4085 108.047 65.4494 108.111C65.4904 108.174 65.5038 108.251 65.4864 108.325L64.2382 113.619L67.5695 107.098L66.8283 106.573L61.5337 107.27Z" fill="#1E1E1E"/>
<path d="M63.9943 105.75C63.9039 105.75 63.8187 105.706 63.7669 105.631C63.7113 105.55 63.7023 105.446 63.743 105.358L64.7573 103.145C64.7633 103.132 64.7705 103.119 64.7785 103.107L69.7772 95.5999C69.8544 95.4839 70.0053 95.4436 70.1301 95.5053C70.2547 95.5672 70.3141 95.7121 70.2687 95.8437L66.9861 105.373C66.9499 105.478 66.8546 105.551 66.7439 105.559L64.0136 105.749C64.0071 105.75 64.0007 105.75 63.9943 105.75ZM65.2509 103.396L64.4402 105.164L66.5228 105.019L69.0446 97.6984L65.2509 103.396Z" fill="#1E1E1E"/>
<path d="M72.3723 105.277L69.6007 108.572L63.3458 116.007L67.1883 107.155H59.7578L60.0292 106.851L69.9255 95.7542L70.0895 95.5703L69.8299 96.082L69.3689 96.9899L65.218 105.17L65.164 105.277H72.3723Z" fill="url(#paint0_radial_16216_7339)"/>
<path d="M63.3459 116.288C63.2959 116.288 63.2455 116.274 63.2004 116.246C63.0837 116.174 63.0377 116.027 63.0925 115.9L66.7668 107.436H59.758C59.649 107.436 59.5501 107.372 59.5056 107.272C59.461 107.172 59.4791 107.056 59.5518 106.975L69.8835 95.3893C69.9762 95.2855 70.1313 95.2667 70.2458 95.3452C70.3606 95.4237 70.3992 95.5752 70.3363 95.6992L65.6148 105.003H72.3726C72.4802 105.003 72.5779 105.066 72.6234 105.163C72.6688 105.261 72.6534 105.376 72.5841 105.459L63.5576 116.189C63.5034 116.254 63.4252 116.288 63.3459 116.288ZM60.3758 106.882H67.1886C67.2819 106.882 67.3688 106.929 67.4198 107.007C67.471 107.085 67.4794 107.184 67.4422 107.269L64.3548 114.382L71.778 105.557H65.1642C65.0681 105.557 64.9788 105.507 64.9285 105.425C64.8781 105.343 64.874 105.241 64.9175 105.155L68.88 97.3459L60.3758 106.882Z" fill="#1E1E1E"/>
<path d="M66.768 100.461L61.7568 106.232H68.5083L66.0645 111.559L70.0759 105.793H63.5712L66.768 100.461Z" fill="url(#paint1_linear_16216_7339)"/>
<path d="M65.2022 108.513C65.1376 108.513 65.075 108.479 65.0412 108.419C64.9914 108.33 65.023 108.217 65.1118 108.167L66.8973 107.164C66.9865 107.114 67.0985 107.146 67.1484 107.235C67.1982 107.324 67.1666 107.436 67.0778 107.486L65.2922 108.489C65.2637 108.506 65.2326 108.513 65.2022 108.513Z" fill="#1E1E1E"/>
<path d="M64.6416 124.342C64.5291 124.334 64.4148 124.327 64.3004 124.319C63.4098 125.1 62.888 126.62 62.5304 128.414C60.8285 128.867 59.1801 129.167 57.5888 129.311C57.6478 127.925 57.4708 126.562 56.8181 125.348C56.4272 124.619 55.8814 123.985 55.343 123.359C54.3566 122.213 53.3701 121.068 52.3818 119.922L52.9018 120.125C56.5213 122.219 60.5187 123.655 64.6416 124.342Z" fill="#006DEF"/>
<path d="M62.53 128.414C61.9695 131.211 61.8017 134.671 61.2393 137.025C60.8982 138.455 59.6112 139.458 58.1416 139.458H40.0738C39.5391 139.458 39.0081 139.284 38.6079 138.93C38.0105 138.4 37.8022 137.617 37.9017 136.761C38.0917 137.073 38.3867 137.337 38.7167 137.495C39.3713 137.811 40.1254 137.815 40.8537 137.813C42.7012 137.807 44.5469 137.8 46.3945 137.794C47.6778 137.789 49.2745 137.575 49.6913 136.36C49.9402 135.633 49.6212 134.822 49.1529 134.213C47.7773 132.418 45.373 131.879 43.1235 131.517C43.0073 131.499 42.8912 131.48 42.775 131.462C42.8967 131.431 43.0203 131.405 43.1438 131.381C44.9305 131.037 46.8536 131.44 48.3471 132.483C48.9795 132.924 49.5401 133.474 50.226 133.827C50.9727 134.211 51.8264 134.336 52.6654 134.392C53.5836 134.453 54.5055 134.438 55.4201 134.346C55.7907 134.307 56.1798 134.25 56.4748 134.021C56.8601 133.72 56.9911 133.201 57.0925 132.723C57.3285 131.613 57.5387 130.454 57.5885 129.311C59.1797 129.167 60.8281 128.866 62.53 128.414Z" fill="#B02A2A"/>
<path d="M68.3018 124.342C68.4142 124.334 68.5286 124.327 68.6429 124.319C69.5334 125.1 70.0552 126.62 70.413 128.414C72.1148 128.867 73.7632 129.167 75.3545 129.311C75.2955 127.925 75.4725 126.562 76.1252 125.348C76.5161 124.619 77.0619 123.985 77.6003 123.359C78.5867 122.213 79.5732 121.068 80.5615 119.922L80.0415 120.125C76.422 122.219 72.4246 123.655 68.3018 124.342Z" fill="#006DEF"/>
<path d="M70.4131 128.414C70.9736 131.211 71.1414 134.671 71.7038 137.025C72.0449 138.455 73.3319 139.458 74.8014 139.458H92.8693C93.404 139.458 93.935 139.284 94.3351 138.93C94.9325 138.4 95.1409 137.617 95.0413 136.761C94.8514 137.073 94.5564 137.337 94.2264 137.495C93.5718 137.811 92.8176 137.815 92.0893 137.813C90.2418 137.807 88.3961 137.8 86.5486 137.794C85.2652 137.789 83.6685 137.575 83.2518 136.36C83.0028 135.633 83.3218 134.822 83.7902 134.213C85.1657 132.418 87.5701 131.879 89.8195 131.517C89.9357 131.499 90.0518 131.48 90.168 131.462C90.0463 131.431 89.9228 131.405 89.7992 131.381C88.0126 131.037 86.0894 131.44 84.5959 132.483C83.9635 132.924 83.403 133.474 82.7171 133.827C81.9703 134.211 81.1166 134.336 80.2776 134.392C79.3594 134.453 78.4375 134.438 77.5229 134.346C77.1523 134.307 76.7633 134.25 76.4682 134.021C76.0829 133.72 75.952 133.201 75.8506 132.723C75.6146 131.613 75.4043 130.454 75.3546 129.311C73.7634 129.167 72.115 128.866 70.4131 128.414Z" fill="#B02A2A"/>
<path d="M92.7125 140.005H74.6114C74.5635 140.005 74.5177 140.005 74.4701 140.001C72.8133 139.925 71.3913 138.753 71.0089 137.147C70.7036 135.872 70.5171 134.324 70.3196 132.684C70.1503 131.278 69.9752 129.824 69.7175 128.531C69.3571 126.727 68.8862 125.53 68.2811 124.884C67.1033 124.968 65.8364 124.968 64.5076 124.882C63.9017 125.527 63.4312 126.72 63.0731 128.516C62.8123 129.817 62.636 131.28 62.4653 132.696C62.2682 134.33 62.082 135.874 61.778 137.147C61.3768 138.83 59.8817 140.005 58.1423 140.005H40.0744C39.3782 140.005 38.7275 139.768 38.242 139.338C37.3482 138.544 37.0925 137.261 37.5398 135.817C38.145 133.863 40.0575 131.724 42.6098 131.216C42.8926 129.355 43.1898 127.57 43.4946 125.906C44.1698 122.222 44.8794 119.153 45.6627 116.529C44.7318 111.43 46.2301 107.402 48.1227 102.313C49.1782 99.4752 50.3747 96.2584 51.4114 92.2364C51.4206 92.2006 51.4333 92.166 51.4494 92.1328L54.5839 85.6712C54.6801 85.4729 54.8853 85.3507 55.1049 85.3599L78.4093 86.3476C78.6185 86.3564 78.8047 86.4829 78.8906 86.6741L81.3447 92.1479C81.3575 92.1765 81.3678 92.2061 81.3756 92.2364C82.4123 96.2585 83.6088 99.4753 84.6643 102.313C86.5569 107.402 88.0552 111.43 87.1244 116.529C87.9033 119.134 88.6146 122.212 89.2978 125.93C89.5952 127.556 89.8834 129.288 90.177 131.216C92.7292 131.724 94.6416 133.864 95.2469 135.818C95.6941 137.262 95.4384 138.544 94.5454 139.338C94.5453 139.338 94.5452 139.338 94.545 139.338C94.0595 139.769 93.4087 140.005 92.7125 140.005ZM68.4862 123.759C68.6198 123.759 68.7495 123.808 68.8508 123.897C69.7352 124.672 70.3553 126.076 70.8024 128.314C71.0684 129.649 71.2461 131.125 71.418 132.552C71.6116 134.159 71.7944 135.676 72.0849 136.889C72.3544 138.021 73.3603 138.846 74.5313 138.895C74.5431 138.895 74.5548 138.896 74.5664 138.897C74.5816 138.898 74.5961 138.898 74.6114 138.898H92.7125C93.1383 138.898 93.5287 138.76 93.8117 138.509C94.365 138.017 94.503 137.156 94.1902 136.146C93.6705 134.468 91.8928 132.531 89.6219 132.247C89.3759 132.217 89.1805 132.026 89.1435 131.78C88.8307 129.703 88.5252 127.855 88.2096 126.13C87.5227 122.391 86.8085 119.313 86.0264 116.719C86.0006 116.634 85.9958 116.544 86.0125 116.456C86.9367 111.597 85.5486 107.865 83.6276 102.7C82.5665 99.8472 81.3644 96.6154 80.3161 92.5588L78.0211 87.4398L55.4205 86.4819L52.4687 92.5671C51.4209 96.6197 50.2198 99.8492 49.1594 102.7C47.2383 107.865 45.8502 111.597 46.7744 116.456C46.7912 116.543 46.7864 116.634 46.7607 116.719C45.974 119.332 45.2617 122.402 44.5828 126.106C44.2584 127.877 43.9424 129.786 43.6436 131.78C43.6068 132.026 43.4112 132.217 43.1651 132.247C40.894 132.531 39.1162 134.467 38.5965 136.145C38.2835 137.155 38.4217 138.017 38.9757 138.509C39.2582 138.76 39.6487 138.898 40.0744 138.898H58.1423C59.3675 138.898 60.42 138.072 60.7019 136.89C60.9912 135.679 61.1738 134.165 61.3669 132.563C61.5402 131.127 61.7192 129.642 61.9882 128.299C62.4322 126.072 63.0513 124.673 63.9362 123.897C64.0473 123.799 64.1927 123.751 64.3402 123.761C65.7978 123.865 67.1774 123.865 68.4408 123.761C68.456 123.76 68.4712 123.759 68.4862 123.759Z" fill="#1E1E1E"/>
<path d="M42.0133 131.376C44.2556 130.75 47.4887 132.079 48.9302 133.815C49.0536 133.969 48.8322 134.168 48.6933 134.026C47.8371 133.245 46.7312 132.772 45.6222 132.487C44.5573 132.217 43.3296 132.15 42.312 132.437C41.6185 132.604 41.3334 131.598 42.0133 131.376Z" fill="#1E1E1E"/>
<path d="M90.3825 132.407C88.8173 132.037 87.0036 132.368 85.5386 133.07C85.0223 133.327 84.5155 133.621 84.0923 134.02C84.029 134.082 83.9262 134.08 83.8654 134.015C83.8111 133.958 83.8084 133.87 83.8555 133.809C84.2393 133.313 84.7163 132.89 85.2385 132.546C85.7623 132.203 86.3237 131.92 86.9097 131.691C88.1386 131.248 89.4503 130.87 90.7723 131.37C91.4237 131.657 91.0591 132.617 90.3825 132.407Z" fill="#1E1E1E"/>
<path d="M52.4153 119.55C60.7028 124.096 68.2866 125.149 77.0759 121.219C78.0968 120.809 79.4536 120.08 80.4416 119.573C80.5166 119.528 80.6164 119.556 80.656 119.634C80.691 119.702 80.6705 119.784 80.6111 119.828C80.1516 120.181 79.5363 120.618 79.0618 120.929C71.6895 125.851 63.1402 126.329 55.3938 121.947C54.3029 121.325 53.217 120.611 52.2157 119.851C52.0494 119.718 52.2039 119.436 52.4153 119.55Z" fill="#1E1E1E"/>
<path d="M46.628 115.579C46.8181 116.658 47.0367 117.747 47.641 118.682C47.6868 118.755 47.6649 118.852 47.5921 118.897C47.5321 118.935 47.4563 118.927 47.4058 118.882C46.9604 118.487 46.5838 118.002 46.2796 117.476C45.9743 116.95 45.7379 116.386 45.5464 115.812C45.4491 115.52 45.6062 115.205 45.8973 115.108C46.2313 114.992 46.5907 115.23 46.628 115.579Z" fill="#1E1E1E"/>
<path d="M87.1858 115.873C86.8931 116.899 86.2559 117.851 85.4296 118.51C85.3641 118.562 85.269 118.551 85.2172 118.486C85.1751 118.432 85.1746 118.36 85.2108 118.306C85.7487 117.497 86.0431 116.599 86.1476 115.648C86.2771 114.896 87.3772 115.132 87.1858 115.873Z" fill="#1E1E1E"/>
<path d="M58.1423 140.006H40.0744C39.3782 140.006 38.7275 139.769 38.242 139.339C37.3482 138.545 37.0925 137.262 37.5398 135.818C38.145 133.864 40.0575 131.725 42.6098 131.217C42.8925 129.356 43.1898 127.571 43.4946 125.907C43.5282 125.723 43.6522 125.569 43.8242 125.497C43.9959 125.424 44.1929 125.443 44.3479 125.548C49.3748 128.94 55.4447 129.723 62.3884 127.874C62.5731 127.824 62.7702 127.874 62.9094 128.005C63.0488 128.136 63.1106 128.33 63.073 128.518C62.8123 129.818 62.636 131.281 62.4652 132.697C62.2682 134.331 62.0819 135.875 61.7779 137.148C61.3768 138.831 59.8817 140.006 58.1423 140.006ZM44.4357 126.923C44.1629 128.459 43.8971 130.09 43.6436 131.781C43.6068 132.026 43.4112 132.217 43.1651 132.248C40.894 132.532 39.1162 134.468 38.5965 136.146C38.2835 137.156 38.4217 138.018 38.9757 138.51C39.2582 138.761 39.6486 138.899 40.0744 138.899H58.1423C59.3675 138.899 60.42 138.073 60.7019 136.891C60.9912 135.68 61.1738 134.166 61.3669 132.564C61.504 131.427 61.6448 130.26 61.8309 129.157C55.2298 130.734 49.3859 129.984 44.4357 126.923Z" fill="#1E1E1E"/>
<path d="M92.7749 140.013H74.6111C74.5632 140.013 74.5174 140.012 74.4698 140.008C72.8124 139.932 71.3897 138.76 71.0072 137.153C70.7019 135.878 70.5154 134.33 70.318 132.69C70.1485 131.284 69.9734 129.83 69.7158 128.537C69.6784 128.349 69.7402 128.155 69.8795 128.024C70.0186 127.893 70.2158 127.843 70.4006 127.891C77.3373 129.716 83.404 128.939 88.432 125.583C88.4478 125.571 88.4639 125.561 88.4798 125.55C88.6353 125.451 88.835 125.432 89.0046 125.506C89.1738 125.58 89.3004 125.729 89.3338 125.911C89.6402 127.575 89.9392 129.359 90.2237 131.22C92.7966 131.729 94.7198 133.875 95.3246 135.835C95.7692 137.275 95.5106 138.554 94.6151 139.346C94.615 139.346 94.6148 139.346 94.6146 139.346C94.1272 139.776 93.4738 140.013 92.7749 140.013ZM70.9598 129.175C71.1437 130.271 71.2833 131.429 71.4191 132.557C71.6127 134.164 71.7955 135.682 72.086 136.895C72.3553 138.026 73.3607 138.85 74.531 138.899C74.5427 138.899 74.5545 138.9 74.5662 138.901C74.5813 138.903 74.5958 138.902 74.6111 138.902H92.7748C93.2036 138.902 93.5963 138.764 93.8811 138.513C94.4351 138.024 94.5749 137.167 94.265 136.163C93.7458 134.481 91.9581 132.54 89.6678 132.255C89.4211 132.224 89.2249 132.033 89.1878 131.786C88.9326 130.095 88.6652 128.465 88.3908 126.928C83.4304 129.982 77.5746 130.737 70.9598 129.175Z" fill="#1E1E1E"/>
<path d="M74.8103 89.6118C74.6548 91.7925 75.3501 93.7267 76.9576 94.5968C77.4711 94.8748 78.0531 94.9963 78.6366 95.0122C83.3907 95.1417 86.3427 91.2649 88.4548 91.0887C87.2129 89.129 85.1359 88.0085 82.1857 87.7656L74.8103 89.4271" fill="#D84545"/>
<path d="M87.6085 90.0169C85.6017 91.0445 82.9124 93.6423 79.0054 93.5359C78.4219 93.52 77.8399 93.3985 77.3264 93.1205C76.0237 92.4153 75.3204 91.0113 75.1831 89.3438L74.8103 89.4277V89.6123C74.6548 91.7931 75.3501 93.7272 76.9576 94.5974C77.4711 94.8753 78.0531 94.9969 78.6366 95.0128C83.3907 95.1423 86.3427 91.2655 88.4548 91.0893C88.2067 90.6977 87.9236 90.3412 87.6085 90.0169Z" fill="#B02A2A"/>
<path d="M78.8743 95.5684C78.7906 95.5684 78.7067 95.5674 78.6218 95.565C77.8973 95.5453 77.249 95.3832 76.6948 95.0832C74.9891 94.1599 74.0785 92.0994 74.2589 89.5714C74.2601 89.5536 74.2623 89.536 74.2652 89.5185C74.2163 89.2303 74.401 88.9509 74.6893 88.886L82.0647 87.2244C82.1193 87.2121 82.1756 87.2082 82.2313 87.2128C85.3279 87.4677 87.5791 88.6716 88.9223 90.7911C89.026 90.9548 89.0367 91.1607 88.9506 91.3343C88.8645 91.5078 88.6939 91.6237 88.5011 91.6398C87.8397 91.695 86.9607 92.2656 85.9429 92.9264C84.1243 94.107 81.8729 95.5684 78.8743 95.5684ZM75.3496 89.8726C75.2644 91.85 75.9557 93.4239 77.2209 94.1087C77.621 94.3253 78.1025 94.4427 78.6519 94.4578C81.4321 94.5326 83.6001 93.1271 85.3409 91.997C86.1341 91.4821 86.8522 91.0159 87.531 90.7526C86.361 89.3326 84.6157 88.5355 82.2241 88.3238L75.3496 89.8726Z" fill="#1E1E1E"/>
<path d="M40.7859 88.7891C45.3882 88.8592 47.5805 92.2802 50.0254 94.0709C50.5528 94.4586 51.1391 94.7651 51.7697 94.946C53.8772 95.546 55.6547 94.682 57.3049 93.2402C57.8249 92.786 58.0812 92.0882 57.9613 91.4069C57.8341 90.6851 57.5502 89.9614 57.1095 89.2395L53.053 86.6549L46.784 84.0703L43.6494 84.9934L42.1744 86.8396C22.6573 89.0032 3.69705 109.257 3.62697 129.606C3.62513 130.28 3.83349 130.94 4.23361 131.481C9.03129 137.95 20.8632 140.001 24.3665 137.513C25.0377 137.036 25.3014 136.158 25.0156 135.386C23.3782 130.961 13.4565 116.729 24.2356 99.5392C25.5502 97.4438 27.1526 95.5534 28.9964 93.9472C32.1209 91.4708 36.174 89.8673 40.7859 88.7891Z" fill="#D84545"/>
<g opacity="0.4">
<path d="M4.97109 132.22C4.57097 131.679 4.3626 131.018 4.36448 130.344C4.43456 109.996 23.3948 89.7417 42.9119 87.578L44.387 85.7318L47.5215 84.8087L53.7906 87.3933L57.3458 89.6586C57.2723 89.5189 57.1947 89.3792 57.1095 89.2395L53.053 86.6549L46.784 84.0703L43.6494 84.9934L42.1744 86.8396C22.6573 89.0032 3.69705 109.257 3.62697 129.606C3.62513 130.28 3.83349 130.94 4.23357 131.481C4.70417 132.116 5.24329 132.707 5.83477 133.257C5.52725 132.924 5.23777 132.579 4.97109 132.22Z" fill="white"/>
</g>
<path d="M25.104 136.219C21.6007 138.707 9.76877 136.656 4.97109 130.187C4.57097 129.647 4.3626 128.986 4.36448 128.312C4.3866 121.893 6.28997 115.484 9.49621 109.648C5.84637 115.823 3.65073 122.707 3.62697 129.604C3.62513 130.278 3.83349 130.939 4.23357 131.48C9.03125 137.949 20.8632 140 24.3665 137.511C24.804 137.201 25.067 136.719 25.1188 136.207C25.1137 136.211 25.1091 136.215 25.104 136.219Z" fill="#B02A2A"/>
<path d="M52.5075 93.6569C51.8769 93.476 51.2906 93.1695 50.7632 92.7818C48.3182 90.991 46.1259 87.5701 41.5237 87.5C36.9118 88.5782 32.8586 90.1818 29.7342 92.6581C27.8903 94.2643 26.288 96.1547 24.9734 98.2501C24.5606 98.9083 24.1818 99.5616 23.8281 100.211C23.9613 99.9884 24.0958 99.7658 24.2358 99.5424C25.5504 97.447 27.1528 95.5566 28.9966 93.9504C32.1211 91.4741 36.1742 89.8706 40.7862 88.7923C45.3884 88.8624 47.5807 92.2834 50.0256 94.0741C50.553 94.4618 51.1393 94.7683 51.7699 94.9492C53.8774 95.5492 55.6549 94.6852 57.3051 93.2434C57.6706 92.9242 57.902 92.484 57.9679 92.0144C56.3387 93.4172 54.5834 94.2479 52.5075 93.6569Z" fill="#B02A2A"/>
<path d="M40.7879 88.6698C42.8041 88.1866 44.8494 89.2352 46.4501 90.3725C48.0422 91.4956 49.2528 93.0052 50.9112 93.9963C53.0697 95.2129 55.1911 94.3653 56.9251 92.8067C57.9273 91.9284 57.1484 90.4796 56.6377 89.5275L56.8126 89.7059L52.7562 87.1214C53.247 87.3356 46.4448 84.53 46.5736 84.5816L46.9402 84.6009L43.8057 85.5239L44.0816 85.3386L42.6082 87.1826C42.5127 87.3037 42.3775 87.3733 42.2354 87.3892C39.5067 87.7112 36.8212 88.3829 34.2373 89.3303C18.7896 95.0798 5.78779 110.521 4.36527 127.165C4.29119 127.786 4.29407 128.602 4.26687 129.222L4.25847 129.479L4.25431 129.607L4.25627 129.713C4.27731 130.286 4.49391 130.84 4.86991 131.273L5.17819 131.663C6.48727 133.201 8.14787 134.406 9.92887 135.346C13.5066 137.158 17.6791 138.273 21.692 137.807C22.4987 137.685 23.2562 137.5 23.9179 137.083C24.3402 136.851 24.5816 136.354 24.5232 135.876C24.4445 135.428 24.2082 135.015 24.0294 134.584C22.5183 131.414 20.9806 128.23 20.0265 124.809C18.4317 119.346 18.2464 113.423 19.8629 107.942C20.5268 105.558 21.543 103.238 22.7319 101.069C23.5962 99.519 24.5514 98.0114 25.6886 96.6347C26.5837 95.5272 27.6308 94.5229 28.9014 93.8368C28.9737 93.7978 29.0639 93.8248 29.1029 93.8971C29.1308 93.9491 29.1242 94.0111 29.0919 94.0559C28.257 95.2095 27.3538 96.223 26.4819 97.2832C25.6203 98.3515 24.841 99.4739 24.164 100.68C23.8391 101.175 23.451 101.96 23.1673 102.491C23.0413 102.717 22.8144 103.18 22.711 103.417C21.86 105.193 21.1877 107.077 20.6888 108.98C18.4049 118.188 20.9693 125.906 25.109 134.087C25.3329 134.614 25.6307 135.144 25.7093 135.734C25.9476 137.954 23.645 138.753 21.8677 139.01C16.4158 139.669 9.93155 137.604 5.76111 134.029C5.20675 133.557 4.70263 133.024 4.21963 132.473L3.87691 132.04C3.34307 131.406 3.03111 130.588 3.00299 129.761C2.99311 129.613 3.01071 129.355 3.01275 129.203C3.04231 128.559 3.04047 127.695 3.11471 127.068C4.74371 107.419 22.495 88.6176 42.1136 86.2882C42.1146 86.2878 41.7354 86.4981 41.7444 86.4907L43.2178 84.6467C43.2914 84.5544 43.3885 84.4921 43.4937 84.4613L46.6282 83.5382C46.7538 83.5012 46.8826 83.5111 46.9949 83.5574L53.264 86.142C53.2936 86.1543 53.3241 86.1705 53.3503 86.1869L57.4068 88.7715C57.4803 88.8186 57.5417 88.8819 57.5835 88.9529C58.4656 90.3697 59.1672 92.3947 57.6815 93.6751C56.5056 94.7061 55.1197 95.5687 53.4832 95.6816C51.8612 95.8046 50.3049 95.1018 49.1239 94.032C47.3268 92.4757 45.7385 90.585 43.4881 89.7207C42.607 89.3729 41.6857 89.2135 40.7844 88.9068C40.6626 88.8797 40.6709 88.6926 40.7879 88.6698Z" fill="#1E1E1E"/>
<path d="M82.845 88.3189C80.0259 89.7822 76.0343 90.8676 71.4306 91.3538C69.93 89.335 68.4369 86.0201 75.0091 86.1857C78.138 86.1796 80.9494 87.3207 82.845 88.3189Z" fill="#FC7D27"/>
<path d="M60.5193 91.3523C55.9156 90.8676 51.9255 89.7822 49.1064 88.3189C51.002 87.3207 53.8134 86.1796 56.9423 86.1857C63.513 86.02 62.023 89.3335 60.5193 91.3523Z" fill="#B25B36"/>
<path d="M78.5167 90.0049C75.0005 91.0301 70.6672 91.6353 65.9769 91.6353C61.2866 91.6353 56.9517 91.0301 53.4355 90.0049C54.2937 88.6379 57.216 85.5156 65.9769 85.5156C74.7363 85.5156 77.6586 88.6379 78.5167 90.0049Z" fill="#B25B36"/>
<path d="M60.5193 91.3523C55.9156 90.8676 51.9255 89.7822 49.1064 88.3189C51.002 87.3207 53.8134 86.1796 56.9423 86.1857C63.513 86.02 62.023 89.3335 60.5193 91.3523Z" fill="#FC7D27"/>
<path d="M70.6097 90.0607C69.1155 90.2244 67.5493 90.3103 65.9341 90.3103C64.3188 90.3103 62.751 90.2244 61.2568 90.0607C62.6742 89.5633 64.2306 89.2829 65.9325 89.2829V89.2812C67.636 89.2813 69.1923 89.5617 70.6097 90.0607Z" fill="#93B3C1"/>
<path d="M78.5167 90.0049C75.0005 91.0301 70.6672 91.6353 65.9769 91.6353C61.2866 91.6353 56.9517 91.0301 53.4355 90.0049C54.2937 88.6379 57.216 85.5156 65.9769 85.5156C74.7363 85.5156 77.6586 88.6379 78.5167 90.0049Z" fill="#FC7D27"/>
<path d="M26.92 70.8872C26.929 70.9228 29.0752 70.347 29.8004 69.0382C29.8166 69.0382 29.719 77.2296 34.8868 82.3944C37.3161 84.8201 40.7075 85.2142 44.2836 89.5427C44.316 89.5605 45.7579 88.287 45.599 85.9477C50.0248 90.6463 63.2052 89.8405 65.9893 94.6055L65.9892 94.3563L65.9911 94.6055C68.7718 89.8386 81.9528 90.6351 86.377 85.9334C86.218 88.2729 87.6608 89.5453 87.6931 89.5275C91.266 85.1965 94.6572 84.8 97.0848 82.3726C102.249 77.2042 102.145 69.0129 102.162 69.0129C102.888 70.3212 105.034 70.8955 105.043 70.8599C104.928 65.9123 106.789 63.7076 106.493 60.0918C105.928 53.1807 100.472 49.6789 100.362 49.2998C104.878 50.1652 106.222 47.7346 106.194 47.7186C102.857 45.0207 101.072 40.3515 100.119 38.057C98.8948 35.1163 98.79 28.5825 89.2138 27.1028C88.3462 26.9678 92.0262 25.5494 91.4597 23.7283C86.3549 24.022 78.1841 19.7806 73.4762 19.8285C67.9367 19.8839 65.9658 23.7176 65.9658 23.7176C65.9658 23.7176 63.9904 19.8852 58.4508 19.8338C53.7428 19.7892 45.5769 24.0364 40.4719 23.7462C39.905 25.5676 43.5877 26.9835 42.7184 27.1191C33.145 28.6055 33.0432 35.1394 31.8228 38.081C30.8698 40.3762 29.0896 45.0466 25.755 47.7468C25.7262 47.7628 27.0707 50.1925 31.5861 49.3239C31.4767 49.7032 26.0246 53.2088 25.463 60.1203C25.1697 63.7362 27.0314 65.9396 26.92 70.8872Z" fill="#C1612B"/>
<path d="M26.4226 66.2265C26.7212 67.5367 26.9625 69.0161 26.92 70.8873C26.929 70.9229 29.0753 70.3471 29.8005 69.0383C29.8167 69.0383 29.7191 77.2297 34.8869 82.3945C37.3162 84.8202 40.7076 85.2142 44.2837 89.5428C44.3161 89.5606 45.758 88.2872 45.599 85.9478C50.0248 90.6464 63.2053 89.8406 65.9893 94.6056L65.9893 94.3564L65.9911 94.6056C68.7718 89.8387 81.9528 90.6352 86.377 85.9335C86.218 88.273 87.6608 89.5454 87.6932 89.5276C91.2661 85.1965 94.6573 84.8001 97.0849 82.3727C102.249 77.2043 102.146 69.0129 102.162 69.0129C102.888 70.3213 105.035 70.8955 105.043 70.8599C105 68.9888 105.238 67.5111 105.538 66.2006C106.027 64.0445 106.677 62.3404 106.493 60.0919C105.928 53.1808 100.472 49.679 100.362 49.2998C104.878 50.1653 106.223 47.7347 106.194 47.7187C102.857 45.0208 101.072 40.3516 100.119 38.0571C98.8948 35.1164 98.7901 28.5825 89.2139 27.1029C88.3463 26.9679 92.0263 25.5494 91.4598 23.7283C86.355 24.022 78.1842 19.7806 73.4763 19.8285C67.9368 19.8839 65.9659 23.7177 65.9659 23.7177C65.9659 23.7177 63.9904 19.8852 58.4509 19.8338C53.7429 19.7891 45.577 24.0363 40.472 23.7461C39.905 25.5676 43.5878 26.9835 42.7185 27.1191C33.1451 28.6055 33.0432 35.1394 31.8228 38.0809C30.8699 40.3761 29.0897 45.0466 25.755 47.7468C25.7263 47.7628 27.0708 50.1925 31.5862 49.3239C31.4767 49.7031 26.0246 53.2088 25.463 60.1203C25.2806 62.3689 25.9315 64.0707 26.4226 66.2265Z" fill="#C1612B"/>
<path d="M65.8588 56.064L65.8726 94.7224L65.8709 94.4738V94.7224C63.0876 89.9578 49.9066 90.7637 45.4801 86.0642C45.6392 88.4045 44.1984 89.6767 44.1655 89.6595C40.59 85.3304 37.1979 84.9361 34.7693 82.5118C29.6006 77.346 29.6992 69.1542 29.682 69.1542C28.9572 70.4641 26.8105 71.0402 26.8019 71.0041C26.8451 69.1336 26.603 67.654 26.3037 66.3424C41.0087 73.4901 35.3003 55.488 42.2904 46.5743C49.8167 36.9749 65.8588 56.064 65.8588 56.064Z" fill="#A54D21"/>
<path d="M104.985 71.0041C104.976 71.0401 102.83 70.464 102.105 69.1542C102.088 69.1542 102.186 77.346 97.0175 82.5118C94.5889 84.9361 91.1968 85.3304 87.6212 89.6595C87.5884 89.6767 86.1475 88.4045 86.3066 86.0642C81.88 90.7636 68.699 89.9578 65.9158 94.7224V94.4738L65.9141 94.7224L65.9279 56.064C65.9279 56.064 81.97 36.9749 89.4963 46.5743C96.4864 55.4879 90.7781 73.4901 105.481 66.3424C105.184 67.654 104.942 69.1336 104.985 71.0041Z" fill="#A54D21"/>
<g opacity="0.4">
<path d="M89.214 28.7183C98.7902 30.1979 97.7733 37.3376 98.5143 39.9205C99.0368 41.7419 102.079 47.8802 105.366 48.5937C105.974 48.1573 106.206 47.7229 106.193 47.7157C102.857 45.0179 101.071 40.3487 100.119 38.0541C98.9555 35.2612 98.8024 29.2241 90.5786 27.3594C89.7383 28.1306 88.711 28.6401 89.214 28.7183Z" fill="white"/>
</g>
<g opacity="0.4">
<path d="M42.7192 28.7329C33.144 30.2193 34.166 37.3582 33.4268 39.9417C32.9056 41.7634 29.8675 47.9039 26.5818 48.6197C25.9727 48.1838 25.7409 47.7494 25.7534 47.7423C29.0881 45.0421 30.87 40.3716 31.8212 38.0764C32.9824 35.2827 33.1311 29.2455 41.3536 27.375C42.1945 28.1456 43.2221 28.6544 42.7192 28.7329Z" fill="white"/>
</g>
<g opacity="0.4">
<path d="M40.9772 25.3785C46.1018 25.3838 53.896 21.4092 58.4513 21.4521C63.9909 21.5036 64.3486 25.3365 65.9663 25.336C67.584 25.3354 67.9372 21.5022 73.4767 21.4468C78.032 21.4007 85.8308 25.37 90.9554 25.361C91.3738 24.8802 91.6448 24.3264 91.4596 23.7283C86.3548 24.022 78.184 19.7806 73.4762 19.8285C67.9366 19.8839 65.9657 23.7176 65.9657 23.7176C65.9657 23.7176 63.9903 19.8852 58.4507 19.8338C53.7428 19.7891 45.5768 24.0363 40.4718 23.7461C40.2852 24.3444 40.5585 24.8998 40.9772 25.3785Z" fill="white"/>
</g>
<path d="M65.9904 95.1589C65.9899 95.159 65.9891 95.159 65.9886 95.1589C65.7956 95.1589 65.6121 95.0575 65.5111 94.8846C64.1991 92.6387 60.177 91.6996 55.9189 90.7052C52.2617 89.8512 48.4949 88.9716 46.1003 87.1381C45.8367 88.847 44.8303 89.852 44.5932 90.0036C44.4227 90.1125 44.1937 90.125 44.0165 90.0273C43.9554 89.9938 43.9012 89.9488 43.8567 89.895C41.785 87.3873 39.7549 86.2286 37.9638 85.2063C36.7102 84.4907 35.5261 83.8149 34.4955 82.7859C30.5274 78.8202 29.5508 73.2167 29.3167 70.3668C28.3421 71.1036 27.1113 71.4698 26.8508 71.4372C26.6259 71.4079 26.4387 71.2426 26.383 71.0224C26.3708 70.974 26.3653 70.9241 26.3663 70.8741C26.4221 68.4007 25.9781 66.6682 25.5488 64.9926C25.1439 63.4124 24.7614 61.9198 24.9111 60.0747C25.3262 54.9658 28.2584 51.6976 29.9982 50.058C26.7959 50.1442 25.4198 48.4494 25.236 47.944C25.154 47.7186 25.2258 47.4635 25.4067 47.3155L25.4065 47.3154C28.4326 44.8652 30.1881 40.5972 31.1313 38.3042L31.3115 37.8676C31.5017 37.409 31.6646 36.8528 31.8531 36.2089C32.7875 33.0176 34.1803 28.2595 41.6766 26.7417C40.7959 26.0724 39.5126 24.9641 39.9432 23.5806C40.0187 23.3381 40.2518 23.1772 40.5027 23.1925C43.094 23.3399 46.5935 22.2448 49.9779 21.186C53.1481 20.1941 56.1405 19.2514 58.4554 19.2792C62.7757 19.3193 65.0485 21.5227 65.9647 22.7172C66.8796 21.5219 69.15 19.3171 73.4701 19.274C75.7781 19.2482 78.7783 20.185 81.9494 21.1747C85.3353 22.2313 88.8371 23.3234 91.4273 23.1746C91.6824 23.1599 91.9117 23.3202 91.9872 23.5629C92.4173 24.9458 91.1351 26.0549 90.2548 26.7247C97.75 28.2372 99.1477 32.9928 100.085 36.1823C100.274 36.8271 100.438 37.384 100.629 37.8432L100.804 38.2662C101.748 40.5616 103.507 44.834 106.541 47.287L106.54 47.2872C106.721 47.4348 106.793 47.6892 106.712 47.9144C106.529 48.4205 105.158 50.1171 101.95 50.0331C103.691 51.6714 106.626 54.9375 107.043 60.046C107.194 61.8909 106.813 63.3838 106.409 64.9643C105.981 66.64 105.538 68.3729 105.596 70.8464C105.597 70.8964 105.591 70.9464 105.579 70.995C105.523 71.2152 105.336 71.3804 105.112 71.4099C104.851 71.4432 103.62 71.0766 102.645 70.3412C102.413 73.191 101.441 78.7947 97.4752 82.7637C96.4453 83.7936 95.2616 84.4702 94.0086 85.1867C92.2181 86.2103 90.1889 87.3704 88.1189 89.8796C88.0747 89.9332 88.0209 89.9779 87.9602 90.0116C87.7831 90.1099 87.5538 90.0976 87.3829 89.9888C87.1455 89.8375 86.1383 88.8334 85.8745 87.1246C83.4805 88.9595 79.7146 89.8417 76.0581 90.6982C71.8003 91.6955 67.7787 92.6375 66.4681 94.8844C66.3672 95.0573 66.1836 95.1589 65.9904 95.1589ZM45.5981 85.3932C45.7475 85.3932 45.8939 85.4537 46.0008 85.5671C48.0353 87.727 52.1707 88.6927 56.1701 89.6266C60.2664 90.5831 64.1557 91.4911 65.9891 93.6542C67.8213 91.4898 71.7101 90.579 75.806 89.6196C79.805 88.6829 83.94 87.7144 85.9737 85.553C86.1339 85.3829 86.3839 85.3317 86.5977 85.4252C86.8118 85.5189 86.9441 85.737 86.9282 85.9704C86.8383 87.2934 87.3282 88.2157 87.6756 88.6931C89.728 86.3585 91.7039 85.2287 93.4601 84.2247C94.6985 83.5167 95.7682 82.9052 96.6933 81.9801C101.196 77.4737 101.575 70.434 101.606 69.0685C101.619 68.4654 102.139 68.4584 102.161 68.4584C102.362 68.4584 102.547 68.5675 102.644 68.7432C103.012 69.4059 103.881 69.8629 104.487 70.1068C104.525 67.871 104.954 66.1902 105.337 64.6897C105.734 63.1372 106.077 61.7962 105.941 60.1365C105.492 54.6448 101.851 51.4109 100.48 50.1936C100.041 49.804 99.8935 49.6728 99.8299 49.4532C99.7764 49.2681 99.8228 49.0684 99.9524 48.9261C100.082 48.7836 100.277 48.7192 100.465 48.7552C103.49 49.3348 104.914 48.3408 105.439 47.8044C102.438 45.1445 100.721 40.9738 99.7807 38.6883L99.6076 38.269C99.3935 37.7545 99.2137 37.1427 99.0233 36.4949C98.0731 33.2603 96.7716 28.8304 89.1288 27.6495C88.6934 27.5817 88.5754 27.2874 88.5448 27.164C88.4311 26.7044 88.7953 26.4329 89.3467 26.022C89.9111 25.6013 90.7904 24.9461 90.9411 24.296C90.9404 24.296 90.9395 24.296 90.9387 24.296C88.2336 24.296 84.8752 23.248 81.6202 22.2322C78.5343 21.2692 75.6145 20.3573 73.4812 20.3816C68.3663 20.4328 66.5316 23.8276 66.456 23.9721C66.3605 24.1547 66.1713 24.2698 65.9656 24.2698C65.965 24.2698 65.9644 24.2698 65.9638 24.2698C65.7575 24.2692 65.5682 24.1546 65.4736 23.9709C65.3987 23.8282 63.5599 20.4344 58.445 20.3868C56.3059 20.3648 53.3925 21.278 50.3078 22.2432C47.0532 23.2614 43.6945 24.3122 40.9891 24.3134C41.1396 24.9632 42.0191 25.6178 42.5839 26.038C43.1356 26.4486 43.5001 26.72 43.3866 27.1798C43.356 27.3033 43.2381 27.5977 42.8029 27.6657C35.1599 28.8522 33.8622 33.2843 32.9147 36.5205C32.7253 37.1673 32.5463 37.7783 32.3329 38.2927L32.1541 38.7261C31.2151 41.0091 29.5016 45.175 26.5083 47.8321C27.0327 48.368 28.457 49.3615 31.481 48.7793C31.6703 48.7433 31.8644 48.8075 31.994 48.9499C32.1238 49.0923 32.1703 49.292 32.1167 49.477C32.0534 49.6966 31.9058 49.8279 31.4677 50.2176C30.0981 51.4359 26.4599 54.6723 26.0137 60.1644C25.8791 61.8244 26.2225 63.165 26.6203 64.7174C27.0047 66.2175 27.4353 67.8981 27.4744 70.1337C28.0802 69.8894 28.9487 69.4318 29.3161 68.7689C29.4135 68.5929 29.5988 68.4838 29.7997 68.4838C29.8218 68.4838 30.3413 68.4907 30.3552 69.0938C30.3867 70.4593 30.7715 77.499 35.2768 82.0016C36.2025 82.9258 37.2725 83.5366 38.5115 84.2439C40.2684 85.2467 42.2452 86.3751 44.2992 88.7082C44.6465 88.2306 45.1362 87.3078 45.0464 85.9845C45.0305 85.7512 45.1627 85.5331 45.3767 85.4395C45.4481 85.4083 45.5235 85.3932 45.5981 85.3932ZM26.0261 48.2284C26.0259 48.2286 26.0255 48.2287 26.0253 48.2289C26.0256 48.2288 26.0259 48.2286 26.0261 48.2284ZM26.1235 48.1593C26.1164 48.1652 26.1093 48.171 26.1021 48.1767C26.0783 48.196 26.053 48.2132 26.0264 48.2282C26.0627 48.2078 26.095 48.1846 26.1235 48.1593ZM105.823 48.1306C105.853 48.1568 105.886 48.1808 105.924 48.2018C105.896 48.1865 105.87 48.1687 105.846 48.1488C105.838 48.1427 105.831 48.1366 105.823 48.1306Z" fill="#1E1E1E"/>
<path d="M81.248 36.4511C83.1993 39.1945 88.5667 44.5957 88.5667 44.5957C88.5667 44.5957 92.6203 44.5887 95.7781 42.1737C96.7488 41.4328 97.6332 40.4649 98.2921 39.2005C101.156 33.7001 95.7005 26.1841 88.2779 27.1935C86.4828 27.4369 85.0989 28.5797 84.0521 29.9831C82.0074 32.7214 81.248 36.4511 81.248 36.4511Z" fill="#FD9D24"/>
<path d="M81.248 36.4524C83.1993 39.1957 88.5667 44.597 88.5667 44.597C88.5667 44.597 92.6203 44.5899 95.7781 42.175C94.539 42.0884 93.3778 41.5739 93.5707 39.8969L86.7393 32.4357C86.7393 32.4357 83.878 32.9699 84.0521 29.9844C82.0074 32.7227 81.248 36.4524 81.248 36.4524Z" fill="#FC7D27"/>
<g opacity="0.4">
<path d="M81.248 36.4512C81.2525 36.4575 81.2555 36.4617 81.2599 36.4679C82.0823 33.9297 84.0494 29.4666 87.8098 28.9556C94.2376 28.0807 99.1908 33.6018 98.541 38.6701C100.807 33.2308 95.4643 26.2154 88.2778 27.1937C82.9871 27.9126 81.248 36.4512 81.248 36.4512Z" fill="white"/>
</g>
<path d="M83.1025 38.7526C84.2293 40.052 85.5326 41.4512 86.5843 42.5548C87.8138 42.5263 90.4975 42.3024 92.4067 40.9854C93.3986 40.3032 94.1799 39.3232 94.4411 37.9233C94.9497 35.1815 93.6265 33.3964 91.8801 32.4966C90.442 31.7574 88.7189 31.6176 87.4981 32.0431C85.3655 32.7856 83.7475 36.3434 83.1025 38.7526Z" fill="#FF9878"/>
<path d="M88.5672 45.1453C88.4201 45.1453 88.279 45.0866 88.1752 44.9821C87.9548 44.7603 82.7537 39.5181 80.798 36.7695C80.7089 36.6443 80.6758 36.4879 80.7065 36.3374C80.7807 35.9731 82.589 27.4052 88.2043 26.6413C92.0039 26.1256 95.7297 27.7481 97.9273 30.8786C99.8401 33.6036 100.16 36.8088 98.7838 39.4526C95.8605 45.0676 88.8646 45.1448 88.5682 45.1453C88.5679 45.1453 88.5675 45.1453 88.5672 45.1453ZM81.8437 36.3264C83.6473 38.774 87.8893 43.1148 88.7898 44.0292C89.9665 43.9655 95.4668 43.4276 97.8028 38.9407C98.9844 36.671 98.6926 33.8953 97.0222 31.5157C95.0634 28.7252 91.7417 27.2782 88.3532 27.739C83.9815 28.3336 82.1653 34.9889 81.8437 36.3264Z" fill="#1E1E1E"/>
<path d="M86.5847 43.1047C86.4336 43.1047 86.2889 43.0429 86.1845 42.9332C85.2438 41.9461 83.8733 40.482 82.6853 39.1117C82.5647 38.9727 82.5211 38.783 82.5687 38.6053C83.1647 36.3786 84.8356 32.3799 87.3169 31.5161C89.1788 30.8679 91.6966 31.4017 93.3042 32.7849C94.7793 34.0541 95.3764 35.9135 94.9854 38.0205C94.1385 42.5731 88.3514 43.0628 86.5978 43.1046C86.5934 43.1047 86.5891 43.1047 86.5847 43.1047ZM83.7157 38.6096C84.7719 39.8167 85.9458 41.075 86.8145 41.9894C88.9072 41.9064 93.2486 41.3074 93.8977 37.8179C94.3027 35.6358 93.4063 34.3333 92.5832 33.625C91.0947 32.3442 88.9459 32.1216 87.6803 32.5623C86.0391 33.1336 84.4721 35.9862 83.7157 38.6096Z" fill="#1E1E1E"/>
<path d="M79.9542 35.2076C79.9542 35.2076 86.0208 35.0267 88.5579 36.9579C90.9052 38.7445 86.5591 38.8794 86.5591 38.8794C86.5591 38.8794 93.08 40.5339 92.8727 42.5785C92.7297 43.9897 90.6458 43.9253 90.5572 44.1131C90.4685 44.3009 92.2434 46.3222 92.2434 46.3222C92.2434 46.3222 86.0157 48.0285 81.9242 42.9846C77.8326 37.9408 79.9542 35.2076 79.9542 35.2076Z" fill="#C1612B"/>
<path d="M79.9541 35.2048C82.7195 34.8763 86.6782 34.8941 89.0168 36.6065C89.826 37.1821 90.2315 38.1949 89.2716 38.845C88.4077 39.362 87.52 39.4093 86.5778 39.4809L86.7074 38.2907C88.4724 38.7869 93.7297 40.3663 93.2566 42.7587C93.0086 43.9361 91.6691 44.1683 90.6907 44.2619C90.7123 44.2406 90.7393 44.2208 90.7533 44.1608C90.7605 44.0913 90.7496 44.107 90.752 44.1054C90.7571 44.1336 90.7901 44.1994 90.8192 44.2541C91.2357 44.9688 91.7613 45.64 92.2433 46.3193C91.6324 45.7225 91.0315 45.1347 90.5029 44.4551C90.4328 44.3401 90.3394 44.2621 90.3569 44.0745C90.3889 43.9283 90.5287 43.8733 90.6315 43.8371C91.2209 43.6495 91.936 43.5096 92.31 43.0124C92.8762 42.1375 91.692 41.5196 91.0022 41.123C88.6221 39.8814 85.1944 39.1738 82.6009 38.4593C83.7175 38.3706 87.0053 38.3524 88.039 38.0779C88.2687 38.0233 88.4964 37.945 88.6214 37.8649C88.6835 37.8279 88.6997 37.794 88.682 37.8311C88.6751 37.848 88.6717 37.8788 88.6742 37.8927C88.6759 37.9074 88.6788 37.9032 88.673 37.8865C88.663 37.8521 88.6159 37.7769 88.5506 37.7033C86.7659 35.9156 82.4429 35.5101 79.9541 35.2048Z" fill="#1E1E1E"/>
<path d="M50.6781 36.4609C48.7288 39.2056 43.3652 44.6106 43.3652 44.6106C43.3652 44.6106 39.3117 44.6064 36.1521 42.1936C35.1809 41.4534 34.2958 40.4862 33.636 39.2222C30.7686 33.7238 36.2183 26.204 43.6417 27.2082C45.4369 27.4504 46.8216 28.5922 47.8694 29.9948C49.9161 32.7317 50.6781 36.4609 50.6781 36.4609Z" fill="#FD9D24"/>
<path d="M50.6783 36.4582C48.729 39.2029 43.3655 44.6079 43.3655 44.6079C43.3655 44.6079 39.3119 44.6037 36.1523 42.191C37.3914 42.1035 38.5523 41.5882 38.3582 39.9113L45.1842 32.4454C45.1842 32.4454 48.0459 32.9776 47.8697 29.9922C49.9163 32.729 50.6783 36.4582 50.6783 36.4582Z" fill="#FC7D27"/>
<g opacity="0.4">
<path d="M50.6776 36.461C50.6732 36.4673 50.6702 36.4715 50.6657 36.4777C49.8415 33.9401 47.8713 29.4783 44.1105 28.97C37.682 28.0995 32.7328 33.6241 33.3862 38.692C31.1167 33.2542 36.4541 26.2352 43.6412 27.2084C48.9325 27.9236 50.6776 36.461 50.6776 36.461Z" fill="white"/>
</g>
<path d="M48.825 38.764C47.6992 40.0643 46.3969 41.4643 45.3459 42.5687C44.1164 42.541 41.4325 42.3189 39.5225 41.0034C38.53 40.3218 37.7481 39.3423 37.4859 37.9427C36.9753 35.2012 38.2973 33.4151 40.043 32.5142C41.4806 31.774 43.2035 31.633 44.4246 32.0577C46.5578 32.7985 48.1783 36.3553 48.825 38.764Z" fill="#FF9878"/>
<path d="M43.3652 45.1681C43.365 45.1681 43.3648 45.1681 43.3646 45.1681C43.0682 45.1678 36.0722 45.0956 33.145 39.4827C31.7666 36.8398 32.0844 33.6344 33.9953 30.9081C36.1906 27.7761 39.9158 26.1503 43.7153 26.6639C49.3312 27.4238 51.1454 35.9904 51.22 36.3548C51.2507 36.5052 51.2177 36.6617 51.1288 36.7868C49.1751 39.5368 43.9779 44.7827 43.7576 45.0047C43.6538 45.1094 43.5125 45.1681 43.3652 45.1681ZM42.3287 27.678C39.386 27.678 36.6184 29.0941 34.9009 31.5444C33.2322 33.9252 32.9424 36.7012 34.1257 38.9699C36.4708 43.4666 41.965 43.9917 43.1419 44.0526C44.0409 43.1384 48.2808 38.7936 50.0828 36.3446C49.7602 35.0073 47.9393 28.3532 43.5672 27.7616C43.1528 27.7056 42.7388 27.678 42.3287 27.678Z" fill="#1E1E1E"/>
<path d="M45.3458 43.1187C45.3416 43.1187 45.3374 43.1187 45.3332 43.1186C43.5796 43.0782 37.7922 42.5926 36.942 38.0406C36.5495 35.9337 37.1452 34.0739 38.6193 32.8036C40.2261 31.4191 42.7437 30.8836 44.6058 31.5306C47.0879 32.3927 48.7615 36.3902 49.359 38.6165C49.4068 38.7942 49.3632 38.9839 49.2428 39.123C48.055 40.4948 46.6858 41.9596 45.7464 42.9469C45.6418 43.0568 45.497 43.1187 45.3458 43.1187ZM42.8879 32.3711C41.7324 32.3711 40.3766 32.7508 39.341 33.6432C38.5183 34.3522 37.623 35.6552 38.0295 37.8372C38.6812 41.3263 43.0229 41.922 45.1156 42.0036C45.9833 41.0889 47.1563 39.8299 48.212 38.6215C47.4538 35.9987 45.8848 33.1472 44.2432 32.577C43.8584 32.4434 43.3922 32.3711 42.8879 32.3711Z" fill="#1E1E1E"/>
<path d="M51.9719 35.2152C51.9719 35.2152 45.9052 35.0385 43.3694 36.9715C41.0234 38.7598 45.3696 38.8916 45.3696 38.8916C45.3696 38.8916 38.8499 40.5507 39.0586 42.595C39.2027 44.0062 41.2865 43.9404 41.3753 44.1281C41.464 44.3158 39.6907 46.3383 39.6907 46.3383C39.6907 46.3383 45.9195 48.0402 50.0075 42.9935C54.0954 37.9468 51.9719 35.2152 51.9719 35.2152Z" fill="#C1612B"/>
<path d="M51.9718 35.2185C50.875 35.3372 49.7892 35.4685 48.7197 35.663C47.154 35.9544 45.5727 36.2885 44.2046 37.0727C43.863 37.2922 43.442 37.5564 43.2549 37.9063C43.2492 37.923 43.252 37.9271 43.2537 37.9124C43.2562 37.8986 43.2528 37.8678 43.2459 37.8508C43.7574 38.1644 44.7055 38.2537 45.3878 38.2906L49.3274 38.4748C46.7224 39.1948 43.3165 39.8982 40.928 41.1444C40.2379 41.5417 39.0551 42.1603 39.6216 43.0346C39.9966 43.5317 40.7108 43.6703 41.3007 43.8582C41.4038 43.8933 41.5432 43.9492 41.5753 44.0954C41.5921 44.2873 41.5001 44.359 41.4297 44.4761C40.9015 45.1562 40.301 45.7443 39.6905 46.3416C40.1721 45.662 40.6972 44.9904 41.1132 44.2753C41.1422 44.2206 41.1753 44.1548 41.1803 44.1266C41.1827 44.1282 41.1719 44.1125 41.1791 44.182C41.1933 44.2412 41.2199 44.2629 41.2417 44.2831C40.264 44.1903 38.9225 43.9591 38.6748 42.7816C38.1994 40.3917 43.4511 38.8076 45.2208 38.309L45.3512 39.4991C44.4086 39.428 43.5214 39.382 42.657 38.8652C41.6962 38.2188 42.1034 37.1984 42.9102 36.6266C45.246 34.9128 49.2046 34.8919 51.9718 35.2185Z" fill="#1E1E1E"/>
<g opacity="0.4">
<path d="M92.0125 59.7031C91.9978 60.2252 91.9746 60.5167 91.9746 60.5167C91.9746 60.5167 91.9913 60.5727 92.0195 60.678C92.0211 60.3915 92.0193 60.0654 92.0125 59.7031Z" fill="white"/>
</g>
<g opacity="0.4">
<path d="M39.9372 60.6937C39.9654 60.5883 39.982 60.5323 39.982 60.5323C39.982 60.5323 39.9586 60.2408 39.9435 59.7188C39.937 60.0811 39.9354 60.4071 39.9372 60.6937Z" fill="white"/>
</g>
<path d="M65.9693 36.6024C72.2545 34.6078 81.5993 35.1334 86.8016 41.7313C93.3945 50.5367 91.9575 64.6871 91.9575 64.6871C92.8127 76.6619 81.2609 85.0541 65.9693 85.0541C50.6776 85.0541 39.1258 76.6619 39.9811 64.6871C39.9811 64.6871 38.5441 50.5367 45.137 41.7313C50.3392 35.1334 59.6841 34.6079 65.9693 36.6024Z" fill="#FD9D24"/>
<g opacity="0.4">
<path d="M92.0874 61.9144C92.0254 57.0712 91.2001 48.8177 86.8024 42.9428C81.5995 36.3438 72.2548 35.8179 65.9691 37.8136C59.6851 35.8179 50.3403 36.3438 45.1375 42.9428C40.7397 48.8162 39.9144 57.0696 39.8524 61.9144C39.795 57.3525 40.3457 48.1305 45.1375 41.7312C50.3403 35.1337 59.685 34.6079 65.9691 36.6021C72.2548 34.6079 81.5995 35.1337 86.8024 41.7312C91.5941 48.1304 92.1448 57.3525 92.0874 61.9144Z" fill="white"/>
</g>
<path d="M65.9692 85.6076C56.8227 85.6076 48.8187 82.6413 44.0095 77.4693C40.6818 73.8905 39.0978 69.4742 39.4271 64.6944C39.4032 64.441 39.3011 63.2494 39.2962 61.4523C39.2918 60.2954 39.3301 59.1161 39.4099 57.9478C39.5934 55.2627 39.9922 52.7157 40.5953 50.3776C40.847 49.3961 41.1438 48.4299 41.4772 47.5068C42.3168 45.1828 43.3995 43.1275 44.695 41.3979C49.9078 34.7851 59.3339 33.9789 65.9692 36.0213C72.6046 33.9797 82.0311 34.7855 87.2369 41.387C88.5284 43.1108 89.6041 45.1484 90.4424 47.4539C90.7715 48.3572 91.0708 49.3245 91.3318 50.3285C91.9449 52.689 92.3493 55.2718 92.534 58.0055C92.6114 59.1585 92.6484 60.3313 92.644 61.4916C92.6374 63.2673 92.5366 64.443 92.5132 64.6944C92.8424 69.4741 91.2584 73.8904 87.9308 77.469C83.1214 82.6412 75.1167 85.6076 65.9692 85.6076ZM59.206 36.1334C54.1992 36.1334 48.9325 37.8101 45.5716 42.0733C44.3502 43.7043 43.3199 45.6627 42.5176 47.8835C42.1962 48.7736 41.9098 49.7056 41.6666 50.6538C41.0803 52.9268 40.6925 55.4061 40.5136 58.0233C40.4357 59.1652 40.3983 60.3177 40.4025 61.4487C40.4079 63.3803 40.5311 64.6187 40.5324 64.631C40.5356 64.6626 40.5361 64.6947 40.5339 64.7265C40.2136 69.2095 41.6954 73.355 44.8192 76.7144C49.4199 81.6622 57.1288 84.4999 65.9692 84.4999C74.8108 84.4999 82.5203 81.6621 87.1212 76.7141C90.2449 73.3548 91.7268 69.2095 91.4064 64.7265C91.4042 64.6947 91.4047 64.6627 91.4079 64.631C91.4091 64.6189 91.5307 63.397 91.5379 61.4874C91.5422 60.3531 91.506 59.2067 91.4303 58.0799C91.2503 55.4152 90.857 52.901 90.2612 50.6074C90.0091 49.6373 89.7203 48.7039 89.403 47.8332C88.6019 45.6297 87.5781 43.6882 86.3604 42.0625C81.4444 35.8291 72.429 35.1334 66.1363 37.1295C66.0275 37.1639 65.9109 37.1639 65.8022 37.1295C63.8053 36.4959 61.5332 36.1334 59.206 36.1334Z" fill="#1E1E1E"/>
<path d="M66.1445 74.0152C73.2881 74.0156 76.8089 68.5507 76.1566 64.8113C75.5728 61.4652 69.8684 59.9466 66.1436 59.9453C62.4189 59.9462 56.8907 61.4642 56.3074 64.8102C55.6555 68.5496 59.0009 74.0149 66.1445 74.0152Z" fill="#FFF3E9"/>
<path d="M72.5802 64.3892C72.8684 67.9189 67.0383 68.2412 66.1132 65.1547C66.113 64.7804 66.112 64.1096 66.112 63.8377H66.1112C66.1116 64.1096 66.1115 64.7804 66.1118 65.1547C65.1907 68.2421 59.3602 67.9258 59.6438 64.3958C59.6438 64.3958 61.6344 62.3226 66.1094 62.3203C70.5845 62.318 72.5802 64.3892 72.5802 64.3892Z" fill="#FFF2E8"/>
<path d="M60.1075 64.8539C60.0589 65.0735 60.8768 66.3867 62.5885 66.4326C64.2482 66.4772 65.0888 65.4376 64.9931 64.9533C64.8871 64.4166 64.0816 64.7968 63.548 65.0201C61.078 66.0536 60.142 64.6981 60.1075 64.8539Z" fill="#F8D2B6"/>
<path d="M72.1134 64.8493C72.1623 65.0688 71.3461 66.3828 69.6346 66.4305C67.9748 66.4768 67.1329 65.438 67.2279 64.9536C67.3333 64.4168 68.1392 64.7962 68.6731 65.0189C71.1445 66.0498 72.0787 64.6934 72.1134 64.8493Z" fill="#F8D2B6"/>
<path d="M66.6303 63.8381C66.6658 64.3309 66.7552 64.8402 66.6935 65.3299C65.9367 68.0197 61.9708 68.6679 60.1267 66.7573C59.5375 66.1398 59.3278 65.1711 59.6437 64.3969C59.9813 66.6023 62.6499 67.2223 64.3931 66.2857C64.9455 65.9949 65.3506 65.5402 65.5299 64.9819L65.5045 65.1562C65.521 64.7164 65.5409 64.2775 65.5919 63.8395C65.6719 63.2288 66.5504 63.2329 66.6303 63.8381Z" fill="#1E1E1E"/>
<path d="M66.6309 63.8391C66.6825 64.2769 66.7031 64.7159 66.72 65.1557L66.6944 64.9813C66.8745 65.5395 67.2801 65.9937 67.8329 66.2841C69.5766 67.219 72.2456 66.5964 72.5798 64.3905C73.0963 65.6488 72.2376 67.0285 71.0302 67.4984C69.0473 68.3677 66.1635 67.5957 65.5314 65.3308C65.4691 64.8398 65.5578 64.3329 65.5926 63.839C65.6753 63.2275 66.551 63.234 66.6309 63.8391Z" fill="#1E1E1E"/>
<path d="M69.2416 62.4471C68.6501 63.9161 66.1125 64.7454 66.1125 64.7454C66.1125 64.7454 63.5739 63.9187 62.9804 62.4503C62.557 61.3998 65.543 61.2268 66.1102 61.2266C66.6774 61.2263 69.6637 61.3962 69.2416 62.4471Z" fill="#1E1E1E"/>
<g opacity="0.5">
<path d="M67.4087 61.7611C67.1633 62.1322 66.111 62.1259 66.111 62.1259C66.111 62.1259 65.0587 62.1332 64.8129 61.7624C64.6374 61.4972 65.8755 61.4532 66.1106 61.4531C66.3457 61.453 67.5838 61.4957 67.4087 61.7611Z" fill="white"/>
</g>
<path d="M80.065 43.8969C80.065 43.8969 76.0236 41.9201 74.5597 44.2304C74.0436 45.0448 74.7579 46.4267 75.8673 46.3725C78.153 46.2607 80.065 43.8969 80.065 43.8969Z" fill="#1E1E1E"/>
<path d="M52.2627 43.7172C52.2627 43.7172 56.3041 41.7404 57.7681 44.0507C58.2841 44.8651 57.5699 46.247 56.4605 46.1927C54.1747 46.081 52.2627 43.7172 52.2627 43.7172Z" fill="#1E1E1E"/>
<path d="M92.0905 61.4875C87.7999 63.2118 83.2051 64.0167 78.2728 63.786C75.885 63.6752 73.6023 62.7669 71.8617 61.1995C70.3424 59.8297 69.1716 58.301 67.3333 57.5792C66.4464 57.2986 65.5705 57.3152 64.7021 57.5792C62.8656 58.301 61.6929 59.8296 60.1736 61.1995C58.433 62.7669 56.1522 63.6752 53.7644 63.786C48.7934 64.0186 44.1672 63.2007 39.849 61.4487C39.8453 60.4555 39.8729 59.2795 39.9614 57.9835C40.1145 55.7441 40.4519 53.1447 41.1304 50.514C48.7437 47.1706 55.9605 47.1577 62.7679 50.5638C64.9787 51.7933 67.1471 51.845 69.2675 50.5638C76.0436 47.1761 83.2199 47.1706 90.7962 50.466C91.4895 53.1355 91.8288 55.7755 91.9818 58.0407C92.0684 59.3312 92.0943 60.5016 92.0905 61.4875Z" fill="#D84545"/>
<path d="M58.2155 56.4022C58.217 58.9895 56.4027 61.0875 54.1621 61.0891C51.9216 61.0906 50.1041 58.9942 50.1025 56.4069C50.101 54.5997 50.9863 53.0316 52.2822 52.25L57.4285 53.6336C57.9235 54.409 58.2155 55.3658 58.2155 56.4022Z" fill="#1E1E1E"/>
<path d="M55.2612 57.5051C55.9917 57.5051 56.5838 56.7555 56.5838 55.8307C56.5838 54.9059 55.9917 54.1562 55.2612 54.1562C54.5307 54.1562 53.9385 54.9059 53.9385 55.8307C53.9385 56.7555 54.5307 57.5051 55.2612 57.5051Z" fill="white"/>
<g opacity="0.2">
<path d="M52.6466 59.1101C53.0512 59.1101 53.3792 58.6027 53.3792 57.9769C53.3792 57.3511 53.0512 56.8438 52.6466 56.8438C52.242 56.8438 51.9141 57.3511 51.9141 57.9769C51.9141 58.6027 52.242 59.1101 52.6466 59.1101Z" fill="white"/>
</g>
<path d="M57.7133 53.8469C56.374 53.8227 55.0892 53.5341 53.8137 53.1763C52.547 52.8074 51.3017 52.3854 50.1295 51.7605C49.9888 51.6898 50.0337 51.461 50.1898 51.4493C50.9065 51.3666 51.5902 51.4163 52.2613 51.4872C53.7325 51.6809 55.1697 52.0517 56.4953 52.7291C56.9471 52.9793 57.4142 53.2422 57.8089 53.5998C57.9059 53.6815 57.839 53.8526 57.7133 53.8469Z" fill="#1E1E1E"/>
<path d="M74.626 56.4034C74.6243 59.1083 76.5211 61.3017 78.8635 61.3033C81.206 61.3049 83.106 59.1133 83.1077 56.4083C83.1093 54.519 82.1837 52.8797 80.8289 52.0625L75.4487 53.5089C74.9312 54.3195 74.626 55.3198 74.626 56.4034Z" fill="#1E1E1E"/>
<path d="M77.7148 57.5557C78.4785 57.5557 79.0976 56.772 79.0976 55.8052C79.0976 54.8384 78.4785 54.0547 77.7148 54.0547C76.9511 54.0547 76.332 54.8384 76.332 55.8052C76.332 56.772 76.9511 57.5557 77.7148 57.5557Z" fill="white"/>
<g opacity="0.2">
<path d="M80.4485 59.2365C80.8714 59.2365 81.2143 58.7062 81.2143 58.0519C81.2143 57.3976 80.8714 56.8672 80.4485 56.8672C80.0255 56.8672 79.6826 57.3976 79.6826 58.0519C79.6826 58.7062 80.0255 59.2365 80.4485 59.2365Z" fill="white"/>
</g>
<path d="M83.0716 51.5279C81.8645 52.2298 80.56 52.6653 79.228 53.0344C77.8928 53.39 76.5488 53.6858 75.1584 53.7619C74.9932 53.775 74.9089 53.5445 75.043 53.4485C75.6332 52.9901 76.2663 52.6672 76.9012 52.3691C78.1651 51.8142 79.4688 51.4088 80.8423 51.2399C81.5525 51.1634 82.268 51.1318 82.9875 51.2511C83.1369 51.2544 83.2052 51.4455 83.0716 51.5279Z" fill="#1E1E1E"/>
<path d="M52.1385 64.3756C47.795 64.3757 43.5989 63.5652 39.6416 61.9597C39.4335 61.8752 39.297 61.6732 39.2962 61.4484C39.2918 60.291 39.3301 59.1117 39.4099 57.9433C39.5934 55.2583 39.9922 52.7113 40.5953 50.3731C40.6377 50.2086 40.7532 50.0727 40.9087 50.0044C48.6772 46.5925 56.1153 46.6134 63.0156 50.066C63.0228 50.0697 63.03 50.0733 63.037 50.0773C65.1258 51.2392 67.0706 51.2423 68.982 50.0872C68.9946 50.0796 69.0076 50.0725 69.0208 50.0659C75.8895 46.6318 83.29 46.5949 91.017 49.9556C91.1729 50.0235 91.2891 50.1594 91.3319 50.3241C91.945 52.6845 92.3494 55.2673 92.5341 58.001C92.6115 59.154 92.6485 60.3269 92.6441 61.4871C92.6433 61.7126 92.506 61.9151 92.297 61.9991C87.8672 63.7793 83.1387 64.5661 78.2474 64.3367C75.7144 64.2193 73.3153 63.2505 71.4923 61.6088C71.0949 61.2505 70.7221 60.8829 70.3615 60.5274C69.355 59.5349 68.404 58.5972 67.1493 58.0993C66.4044 57.8674 65.663 57.8676 64.8842 58.1005C63.6317 58.5989 62.6806 59.5363 61.674 60.5284C61.3136 60.8837 60.941 61.2509 60.5442 61.6086C58.7208 63.2506 56.3224 64.2194 53.7904 64.3367C53.2377 64.3627 52.6866 64.3756 52.1385 64.3756ZM40.4026 61.0709C44.6104 62.7212 49.094 63.4476 53.739 63.2303C56.0165 63.1247 58.1704 62.2565 59.804 60.7854C60.1823 60.4443 60.546 60.0859 60.8978 59.7391C61.9928 58.6599 63.0271 57.6404 64.5003 57.0613C64.514 57.056 64.5278 57.0512 64.5417 57.0469C65.541 56.7432 66.5362 56.7437 67.5003 57.0487C67.5122 57.0525 67.524 57.0567 67.5356 57.0613C69.01 57.6401 70.0435 58.6593 71.1378 59.7381C71.4896 60.0851 71.8536 60.444 72.2323 60.7855C73.8656 62.2563 76.0202 63.1247 78.2988 63.2303C82.9048 63.4464 87.3567 62.732 91.5378 61.1082C91.5336 60.0967 91.4976 59.0783 91.4302 58.0755C91.2571 55.5119 90.8865 53.0876 90.3281 50.8649C83.0126 47.7515 76.0178 47.8125 69.5342 51.0473C67.2942 52.3926 64.9311 52.3941 62.5104 51.0515C55.9936 47.7948 48.9598 47.7479 41.6 50.9114C41.051 53.1121 40.6857 55.5017 40.5136 58.0189C40.4442 59.0353 40.407 60.0603 40.4026 61.0709Z" fill="#1E1E1E"/>
<defs>
<radialGradient id="paint0_radial_16216_7339" cx="0" cy="0" r="1" gradientUnits="userSpaceOnUse" gradientTransform="translate(66.0651 105.789) scale(8.4832 8.49422)">
<stop stop-color="#EBC52B"/>
<stop offset="0.0048" stop-color="#EBC52B"/>
<stop offset="0.4264" stop-color="#E7A231"/>
<stop offset="0.7732" stop-color="#E48D35"/>
<stop offset="1" stop-color="#E38536"/>
</radialGradient>
<linearGradient id="paint1_linear_16216_7339" x1="64.8234" y1="109.602" x2="66.9985" y2="102.459" gradientUnits="userSpaceOnUse">
<stop stop-color="#EBC62B"/>
<stop offset="1" stop-color="#ECE1B0"/>
</linearGradient>
</defs>
</svg>
