<svg width="277" height="171" viewBox="0 0 277 171" fill="none" xmlns="http://www.w3.org/2000/svg">
<path opacity="0.1" d="M62.227 96.1694C26.9083 42.4101 4.48218 -27.8211 1.09373 -69.3894C-0.794118 -92.5495 5.65705 -110.505 16.5745 -123.627C27.4994 -136.757 42.9236 -145.081 59.021 -148.912C90.763 -156.467 129.875 -133.744 145.449 -85.0578C145.453 -85.046 145.456 -85.034 145.46 -85.0222C145.594 -84.5416 145.732 -84.0996 145.876 -83.7002L146.825 -84.0177C146.686 -84.4681 146.545 -84.9164 146.402 -85.3625L146.402 -85.3634C144.575 -92.0278 143.723 -107.004 147.52 -123.015C151.319 -139.031 159.753 -156.007 176.426 -166.73C193.762 -177.879 209.976 -180.704 224.437 -178.33C238.909 -175.954 251.673 -168.363 262.076 -158.599C294.777 -127.908 309.733 -86.3485 320.382 -49.6447L321.356 -49.7033C325.67 -76.1801 337.256 -115.832 370.964 -132.483C387.794 -140.797 407.236 -140.507 423.628 -130.041C440.022 -119.573 453.437 -98.8773 458.082 -66.245C462.734 -33.5642 462.461 16.3205 448.481 58.2043C441.492 79.1424 431.088 98.0509 416.19 111.817C401.301 125.575 381.902 134.219 356.869 134.606C336.852 134.914 319.845 126.257 306.188 114.794C292.528 103.329 282.247 89.0791 275.7 78.2717C270.032 68.917 254.295 40.5886 238.996 -1.78414L238.041 -1.49022C244.761 24.7717 248.984 59.8641 244.669 91.4024C240.353 122.952 227.517 150.815 200.246 162.857C172.901 174.931 147.246 171.694 124.003 158.735C100.738 145.764 79.885 123.047 62.227 96.1694Z" fill="#7DADFE" stroke="black"/>
</svg>
