<svg width="209" height="32" viewBox="0 0 209 32" fill="none" xmlns="http://www.w3.org/2000/svg">
<path d="M192.22 29.3797C192.916 30.1421 191.151 29.9511 192.544 31.0066C192.338 31.149 192.132 31.2937 191.925 31.4352C191.754 30.9628 191.583 30.4918 191.413 30.0189C191.683 29.8057 191.951 29.5922 192.22 29.3773C192.22 29.3781 192.22 29.3789 192.22 29.3797ZM191.172 23.2072C191.24 24.6543 190.469 25.2265 191.697 26.2844C191.658 25.7918 191.62 25.299 191.579 24.8067C191.985 25.0985 192.396 25.388 192.808 25.6742C192.879 25.465 192.948 25.2559 193.019 25.0484C193.371 25.8352 193.723 26.6242 194.08 27.4114C193.917 27.3244 193.754 27.2349 193.592 27.1474C193.239 27.9455 192.816 28.2437 192.133 28.5385C192.241 28.719 192.351 28.8975 192.461 29.0776C192.018 28.8325 191.578 28.5846 191.14 28.3357C191.377 27.9364 191.64 27.4915 191.854 27.1192C191.087 25.9349 190.452 26.8427 190.089 27.2093C189.608 27.695 189.589 27.0985 189.248 27.3877C189.238 27.3963 189.227 27.4056 189.217 27.4158C189.157 27.4713 189.256 27.9573 189.123 27.9952C188.446 28.1855 187.064 28.2053 187.601 26.9105C188.131 26.869 188.579 26.6074 189.018 26.3468C189.532 26.042 190.035 25.7382 190.662 25.7799C190.072 24.5432 190.542 23.9686 191.172 23.2072ZM171.312 30.9035C171.592 30.2218 172.323 30.4076 172.852 30.8016C172.852 30.8016 172.853 30.8015 172.853 30.8014C172.97 30.8883 173.308 31.7191 172.957 31.7233C172.385 31.7267 171.97 30.4038 171.772 31.3526C171.621 31.1958 171.468 31.0581 171.312 30.9035ZM170.102 31.1044C169.727 30.8051 169.787 29.771 170.24 30.0058C170.24 30.005 170.24 30.0042 170.24 30.0034C170.43 30.1013 170.158 30.9417 170.718 30.0606C170.805 30.3375 170.89 30.6031 170.975 30.8655C171.081 31.1936 171.187 31.5168 171.295 31.8513C171.221 31.8638 171.15 31.8773 171.078 31.8907C170.997 31.9058 170.916 31.9207 170.828 31.9339C170.836 30.8771 170.477 31.4008 170.102 31.1044ZM187.151 27.5957C187.289 28.5323 187.511 28.4808 188.027 29.0424C187.66 29.088 187.293 29.1302 186.928 29.173C187.005 28.6463 187.077 28.1222 187.151 27.5957ZM195.518 25.775C195.518 25.7749 195.519 25.7747 195.519 25.7746C195.596 25.6001 195.675 25.4247 195.75 25.2526C195.905 25.5605 196.059 25.8672 196.216 26.1744C196.542 25.7595 196.869 25.3425 197.189 24.9241C197.415 25.9309 196.637 25.9699 196.42 26.7731C195.737 26.6342 195.296 26.1304 195.036 25.2957C195.196 25.4549 195.356 25.6164 195.518 25.775ZM97.2785 17.0347C97.0841 17.2846 96.8915 17.5351 96.6973 17.7851C96.8469 17.951 97.0018 18.0866 97.1487 18.2732C97.8802 17.1617 97.6896 18.2444 98.3181 18.3033C100.246 18.4825 100.159 16.4894 101.251 19.6198C99.9189 19.1911 100.158 20.6021 99.1202 21.4219C99.1163 20.6245 100.304 19.0871 99.8305 18.611C98.7066 19.2086 97.6293 19.7587 96.4635 20.049C96.4657 20.1872 96.4676 20.3258 96.4697 20.4639C96.6552 20.4175 96.839 20.3701 97.0236 20.3235C96.7672 20.6362 96.5149 20.9467 96.2539 21.2626C96.6597 20.5144 95.9719 20.832 96.2509 19.9315C96.3751 19.5306 96.7595 19.0208 96.9988 18.664C96.6473 18.365 96.2823 18.0818 95.9264 17.7883C96.205 17.508 96.4836 17.2274 96.7612 16.947C96.9334 16.9739 97.1037 17.0035 97.2762 17.0304C97.2769 17.0319 97.2777 17.0333 97.2785 17.0347ZM13.6887 21.7545C13.8587 20.6682 14.6895 20.2157 15.4987 21.0851C14.8954 21.3065 14.2931 21.5305 13.6887 21.7545ZM194.815 24.6092C194.915 24.754 195.012 24.8975 195.113 25.0422C194.932 25.4061 194.751 25.7673 194.569 26.1305C194.401 25.6803 194.232 25.2302 194.063 24.7822C194.312 24.7248 194.566 24.6677 194.815 24.6092ZM178.308 28.5309C178.496 28.4735 178.514 28.4867 178.764 28.5178C178.764 28.5174 178.764 28.517 178.763 28.5167C178.862 28.528 179.699 28.6806 179.668 29.0575C179.273 29.1259 178.849 29.1844 178.445 29.2447C178.397 29.0071 178.359 28.77 178.308 28.5309ZM182.975 27.9825C182.976 27.9832 182.977 27.9839 182.977 27.9846C183.13 28.014 183.286 28.1014 183.437 28.0948C183.008 28.7614 182.74 27.7537 182.309 28.1278C181.878 28.5036 181.67 29.1204 181.026 27.7852C181.143 27.5494 181.255 27.2212 181.369 26.9498C182.146 27.3943 182.24 26.8336 182.685 26.1843C182.782 26.785 182.878 27.3817 182.975 27.9825ZM105.019 21.6737C105.295 21.0139 105.288 21.7192 105.301 21.7305C105.3 21.7312 105.3 21.732 105.299 21.7327C106.553 21.3402 105.071 22.0814 106.1 22.419C105.904 22.5563 105.712 22.7042 105.518 22.8441C105.351 22.4601 105.186 22.0302 105.019 21.6737ZM141.467 29.5191C141.442 29.7228 141.419 29.9273 141.394 30.1309C140.734 29.9644 140.417 30.7252 140.007 29.9002C140.491 29.773 140.976 29.6456 141.468 29.5167C141.468 29.5175 141.468 29.5183 141.467 29.5191ZM174.788 27.5122C175.466 27.0313 175.974 26.7893 176.757 27.3069C176.758 27.3077 176.758 27.3084 176.759 27.3091C176.805 27.3414 176.669 27.7932 176.737 27.8928C176.872 27.8091 177.008 27.6905 177.142 27.594C177.211 27.9311 177.278 28.2682 177.346 28.6032C176.92 28.5658 176.493 28.5267 176.067 28.486C176.154 28.6768 176.244 28.8655 176.332 29.0562C175.994 29.2065 175.655 29.3553 175.315 29.5035C175.366 28.9294 175.416 28.3553 175.462 27.7795C175.237 27.6901 175.012 27.6047 174.788 27.5122ZM131.225 25.1578C131.287 25.3997 131.007 25.7233 131.136 25.9477C131.267 26.1698 131.684 25.8321 131.475 26.433C131.218 26.465 130.955 26.5083 130.702 26.5453C131.227 27.8211 132.205 26.9754 131.927 28.3531C131.277 27.843 130.629 27.8782 129.834 28.1061C130.1 27.0223 131.012 26.2306 130.783 25.111C130.93 25.1276 131.084 25.1388 131.223 25.1599C131.223 25.1592 131.224 25.1585 131.225 25.1578ZM200.623 8.30351C201.022 8.25786 201.652 7.54878 202.326 7.98617C202.488 8.09655 203.62 9.88357 203.72 10.1375C204.043 11.0005 203.598 11.3067 204.34 11.6635C204.164 11.7386 204.006 11.8362 203.84 11.9173C204.09 12.4841 204.342 13.0489 204.592 13.6135C204.775 13.4439 204.96 13.272 205.147 13.0967C205.232 13.2833 205.318 13.4703 205.403 13.6568C204.609 13.9702 205.367 14.5245 205.215 15.3721C205.73 15.5747 206.256 15.7666 206.781 15.9602C206.54 16.0061 206.263 16.0784 206.047 16.1047C206.4 17.0935 206.784 16.6752 206.935 16.8242C207.799 17.6697 205.258 18.0597 205.564 19.5593C206.011 19.5789 206.479 19.5816 206.935 19.5864C206.889 19.8056 206.84 20.026 206.791 20.2456C205.507 19.6045 204.378 19.6031 203.133 19.3202C203.053 19.392 202.973 19.465 202.892 19.5346C203.065 19.9766 203.238 20.4166 203.413 20.8581C203.287 20.9579 203.156 21.0584 203.032 21.157C202.975 19.5356 202.395 19.7467 201.418 19.055C201.623 18.4163 202.174 18.589 201.833 17.6253C201.599 17.8913 201.32 18.0636 201.018 18.1862C200.02 18.592 198.786 18.4418 198.03 19.3714C197.784 19.6707 198.15 20.9383 197.388 21.0284C197.373 20.882 197.306 20.6292 197.27 20.4414C196.188 21.4029 195.511 21.9791 194.033 21.7011C194.229 22.1395 194.424 22.5801 194.621 23.0183C194.841 22.7165 195.061 22.4103 195.279 22.1074C195.672 22.8115 195.479 23.2224 196.317 22.9861C197.001 22.792 196.502 22.5707 196.627 22.2959C196.793 21.9215 197.183 22.4594 197.357 22.0428C197.494 21.7225 197.092 21.1659 197.68 21.1688C197.689 22.0357 197.701 22.9295 197.706 23.8075C197.521 23.6636 197.335 23.5171 197.15 23.3707C197.225 23.1178 197.301 22.8677 197.375 22.6149C197.006 23.1351 196.657 23.6243 196.269 24.1605C196.113 22.9503 195.722 23.5258 195.479 23.7382C195.104 24.0689 195.261 23.1664 195.013 23.3757C194.767 23.5864 194.695 24.5665 194.128 24.5071C194.269 23.9153 193.775 23.5441 193.724 23.0445C193.672 22.5452 194.183 22.2994 193.53 21.9082C192.638 22.5617 194.188 24.1179 193.587 24.5874C192.854 25.1524 191.923 22.2048 192.002 21.5027C192.066 20.9499 192.736 20.8893 192.796 20.3375C191.417 19.7202 191.855 21.515 191.741 21.9169C191.33 23.3745 190.984 19.8379 190.432 21.2795C190.295 20.6355 190.17 20.0568 190.04 19.4391C189.923 19.5904 189.863 19.7685 189.709 19.9028C190.525 21.0273 190.086 21.0748 189.866 21.1286C189.521 21.2137 190.198 21.6973 190.144 21.8757C189.995 22.3547 189.554 22.2556 189.925 22.7494C189.756 22.5188 189.58 22.289 189.41 22.0605C189.081 22.4729 188.708 25.3713 189.514 24.6211C189.654 25.6359 189.243 25.2259 188.975 25.1264C188.851 25.0809 188.815 25.19 188.789 25.3144C188.76 25.4606 188.744 25.6278 188.618 25.589C187.693 25.2994 187.997 24.0954 187.938 23.2163C186.993 24.0343 188.131 24.1991 186.656 24.9195C186.648 25.6464 187.53 26.2366 187.007 26.7641C186.644 25.5794 186.023 24.8047 185.085 24.5727C185.057 24.8674 185.028 25.1645 184.999 25.4593C184.309 24.4336 184.33 23.225 183.725 24.7765C183.709 22.1356 183.695 23.8315 182.732 22.9338C182.538 22.7528 182.799 22.1567 182.533 21.9279C182.414 21.8246 182.247 22.2688 181.952 22.0026C181.806 21.8713 181.087 20.982 180.791 21.5155C181.286 22.7072 180.739 23.8881 181.543 24.8056C180.336 24.7539 179.627 25.4802 180.641 23.5721C180.285 23.2461 179.93 22.9206 179.578 22.5943C179.423 22.9237 179.266 23.2506 179.107 23.5777C178.913 22.5609 178.9 22.2709 178.129 22.5742C178.438 22.2797 178.744 21.9805 179.051 21.6817C179.03 21.4736 179.043 21.2516 179 21.0533C178.641 21.5148 177.473 21.8672 177.223 22.1813C176.972 22.4966 177.545 22.488 177.5 22.7644C177.122 25.0463 176.938 23.4315 176.489 23.8772C176.223 24.1406 176.966 24.2803 176.821 24.3971C176.279 24.8268 175.843 23.7055 175.322 23.7605C175.595 24.3941 175.871 25.0375 176.145 25.6764C175.587 25.7179 174.97 25.7931 174.481 26.0697C174.289 26.1778 174.503 26.6487 174.474 26.6857C174.331 26.8753 173.692 27.2243 173.621 27.2346C173.085 27.3024 172.99 26.6245 172.467 26.6463C172.665 26.5657 172.85 26.4919 173.042 26.4132C173.004 25.3008 172.966 24.1884 172.923 23.0743C172.416 23.0532 171.911 23.031 171.404 23.005C171.808 23.3336 172.216 23.6588 172.625 23.9844C172.155 24.941 171.676 25.8976 171.186 26.8521C170.945 26.5067 170.705 26.1607 170.466 25.8143C170.348 25.6434 170.231 25.4723 170.114 25.3012C169.313 25.5254 169.684 27.734 169.113 25.8213C168.887 26.0085 168.66 26.1951 168.432 26.3794C168.442 26.0981 168.451 25.8163 168.461 25.535C168.186 25.732 167.91 25.9273 167.633 26.1252C168.023 27.085 168.415 28.0958 168.809 29.0247C168.245 29.2907 168.162 28.4548 168.057 28.2537C167.781 27.7208 167.389 28.5043 167.165 28.0075C167.09 27.8369 167.61 27.2396 167.362 26.6207C167.312 26.5012 166.374 24.2279 165.941 24.8032C165.983 25.2256 166.06 25.7415 166.115 26.2002C165.487 26.5069 164.997 24.3211 165.037 23.6958C164.729 24.1543 164.234 24.2253 164.21 24.9074C164.036 24.936 163.864 24.9634 163.69 24.9916C163.761 23.3299 163.057 23.6795 163.1 25.1013C163.402 25.1171 163.707 25.1341 164.009 25.1488C163.899 26.9022 164.887 27.8932 162.869 26.4065C162.447 25.5248 163.526 26.4883 163.185 25.8297C162.643 25.4687 162.182 25.8283 161.654 25.2269C161.002 24.4745 161.705 23.6762 160.347 24.7564C163.617 27.0895 160.014 26.484 158.569 27.3283C158.045 24.8661 156.778 24.1386 155.103 24.9372C155.304 25.622 155.829 25.2464 156.148 25.4615C156.466 25.6769 156.146 26.1 156.547 26.4072C156.946 26.7145 157.789 27.1176 158.207 27.587C157.891 27.9942 156.279 28.9872 157.323 27.8313C156.481 27.1811 156.075 26.4931 155.067 26.4005C154.804 27.4884 154.849 28.16 153.866 28.2217C154.399 26.7063 153.256 25.6992 153.456 24.1443C154.158 24.4839 153.813 25.9996 154.24 26.7067C154.284 26.7775 154.916 26.3791 155.067 26.4005C154.369 25.0723 154.133 24.5761 154.476 22.9557C154.027 23.1115 153.737 22.9182 153.718 23.687C153.611 23.357 153.506 23.0266 153.404 22.6963C153.257 22.7089 153.121 22.7436 152.968 22.7417C153.073 23.2361 153.053 23.3891 152.974 23.4449C152.864 23.5193 152.657 23.4211 152.491 23.7252C152.205 24.2581 152.633 25.163 151.807 25.1945C152.088 25.4595 152.343 25.686 152.619 25.9356C152.093 26.2474 151.562 26.5594 151.031 26.8664C151.419 27.5684 152.265 28.6006 152.266 29.5318C152.011 29.1868 151.16 29.8219 151.066 29.8483C150.698 29.9494 150.891 29.3589 150.863 29.3449C150.287 29.0684 149.804 29.271 149.584 28.3817C149.148 28.7841 148.818 28.554 148.348 28.5693C148.091 28.5772 148.124 29.2313 147.975 29.1038C146.966 28.2393 148.008 27.4568 145.941 28.9415C146.146 29.4127 146.357 29.8932 146.581 30.3658C146.338 30.5244 146.095 30.6819 145.853 30.8368C145.704 30.7433 145.56 30.6487 145.417 30.5543C145.498 29.5705 145.58 28.5845 145.661 27.6006C145.632 27.5884 145.604 27.5761 145.576 27.5639C145.452 27.5104 145.325 27.4569 145.198 27.4014C145.333 27.3673 145.467 27.3321 145.597 27.2962C145.742 27.2566 145.887 27.2165 146.032 27.1759C146.069 27.0044 146.104 26.8327 146.141 26.6612C145.985 26.5383 145.831 26.4143 145.678 26.2895C145.462 26.1132 145.246 25.935 145.036 25.7535C144.993 26.0944 144.95 26.4376 144.907 26.7783C144.049 26.2 144.1 25.9076 143.108 26.7107C142.462 26.5957 141.688 27.9146 141.204 28.4408C141.103 28.2267 141 28.0096 140.904 27.796C140.767 28.061 140.627 28.3241 140.485 28.5881C140.389 28.1657 140.297 27.7437 140.196 27.3219C139.926 28.1883 139.838 28.4591 140.435 28.8942C140.004 29.9556 138.922 29.243 138.522 28.7789C138.225 28.4285 138.799 27.5885 138.776 27.4679C138.708 27.0604 138.05 27.2691 137.944 27.1821C137.465 26.8135 137.098 26.7865 136.677 26.4889C136.596 26.4301 136.458 25.7964 136.44 25.7735C136.28 25.6371 135.944 25.2734 135.893 25.2545C133.554 24.3154 135.621 27.3752 133.417 26.6365C133.416 26.9831 133.41 27.3262 133.407 27.6723C133.231 27.6564 133.045 27.6374 132.878 27.6232C132.722 27.3006 133.09 26.8512 132.575 27.1676C132.689 26.7645 132.804 26.3612 132.919 25.9604C132.687 26.1418 132.456 26.3217 132.214 26.5011C132.231 25.0218 131.185 24.4623 131.628 22.815C131.768 22.2523 132.677 21.8378 132.39 21.144C132.078 20.9529 132.163 21.6787 132.021 21.6856C131.006 21.7273 131.237 20.7844 130.799 20.9552C130.65 21.3485 130.495 21.749 130.343 22.1459C130.219 21.9944 130.092 21.8424 129.963 21.6898C129.869 21.9554 129.773 22.2208 129.678 22.4863C129.819 22.5357 129.977 22.5889 130.104 22.6351C129.687 23.6528 127.923 23.7704 128.753 23.0051C129.092 22.695 129.521 22.9501 129.497 21.637C129.13 21.7031 128.719 21.7621 128.307 21.8194C128.19 21.8378 128.073 21.8561 127.957 21.8745C128.001 21.6023 128.045 21.3298 128.089 21.0576C127.421 21.0955 127.762 22.2954 127.636 22.8717C127.489 22.8568 127.339 22.8393 127.19 22.8239C127.184 22.5497 127.184 22.2641 127.174 21.9973C127.081 22.4116 126.777 23.3554 126.432 22.9057C126.207 22.6132 126.868 21.6606 126.311 21.6917C126.209 22.3473 126.232 23.1776 125.594 23.2574C125.681 22.5692 125.734 21.9326 125.842 21.2128C124.963 21.7014 124.864 20.5877 123.832 21.1532C123.194 21.5141 122.052 23.0399 122.281 20.3553C121.899 20.2 121.883 20.8774 121.733 20.9978C121.024 21.5677 120.87 20.2373 120.787 20.1429C120.232 19.5327 119.835 19.8948 119.421 19.1919C119.344 19.6815 119.26 20.1425 119.18 20.6187C119.838 20.004 120.085 20.0937 120.739 20.3998C120.488 20.4464 120.234 20.495 119.979 20.5411C119.932 20.9416 119.884 21.3421 119.835 21.7403C122.32 20.6645 121.279 22.9945 119.369 23.1364C119.372 22.3766 119.368 21.6173 119.372 20.8555C118.098 21.7295 117.802 20.6641 116.686 20.1803C116.552 20.1237 115.949 20.4296 115.723 20.4018C115.726 20.4054 115.729 20.4089 115.732 20.4125C115.447 21.0682 115.561 21.4237 115.45 22.0413C115.313 22.0918 115.18 22.1429 115.045 22.1938C114.883 21.6691 115.061 21.3061 114.515 21.303C114.483 21.7834 114.451 22.2637 114.419 22.7441C113.845 22.6353 113.575 22.0466 113 22.1495C113.128 21.9931 113.255 21.836 113.382 21.6795C112.326 20.9777 113.845 18.4456 112.671 19.6143C112.667 19.3636 112.666 19.1108 112.662 18.8601C113.037 18.8809 113.411 18.9031 113.781 18.9228C113.862 18.5869 113.944 18.2526 114.024 17.9163C113.618 17.9333 113.207 17.9526 112.797 17.9687C113.13 17.8043 113.463 17.6398 113.794 17.4749C113.385 17.2157 112.965 16.954 112.558 16.6955C112.758 18.0401 112.113 18.0577 111.959 19.312C111.395 18.1162 111.064 16.6303 109.651 17.2254C109.37 17.344 109.313 18.2316 108.852 17.0352C108.719 18.4383 107.716 18.8906 107.542 20.2146C107.796 20.2045 108.053 20.2195 108.301 20.1936C108.136 19.6849 108.364 18.4349 108.846 18.1549C109.466 17.7992 110.027 18.8229 110.298 17.4396C110.488 17.5492 110.669 17.6287 110.856 17.727C110.699 18.0503 110.544 18.3766 110.389 18.7005C111.073 18.2893 111.394 18.5421 111.477 19.4625C110.757 19.5124 110.04 19.5606 109.323 19.6089C109.409 19.6893 109.497 19.7704 109.584 19.8487C108.88 20.6161 109.226 21.565 108.229 21.5435C108.323 21.1425 108.416 20.741 108.51 20.338C107.926 21.3374 106.98 21.1239 107.011 22.4275C106.807 21.9846 106.801 21.7313 106.492 22.3626C105.938 21.2558 105.716 19.9613 106.295 18.6007C105.964 18.7676 105.633 18.9347 105.303 19.1018C105.381 19.5256 105.459 19.9476 105.536 20.3713C105.053 20.24 104.563 20.1077 104.081 19.979C104.286 18.8204 105.099 19.8367 105.039 18.7478C105.026 18.5292 104.666 18.9129 104.623 18.7818C104.169 17.3667 105.114 18.5242 105.11 17.5152C104.089 16.9802 105.312 15.5586 103.517 16.5855C103.55 16.2453 103.581 15.8978 103.617 15.5602C103.102 15.4267 102.98 16.1848 102.502 16.2286C102.203 16.2554 102.139 14.8636 101.634 15.6915C101.543 15.8446 101.712 17.5655 100.634 17.256C99.7985 17.016 100.399 15.9571 100.029 15.4546C99.6584 14.952 98.2642 16.298 98.3453 14.4451C98.5337 14.7339 98.8118 14.9282 99.0362 15.1804C99.2206 14.8563 99.4013 14.5354 99.5838 14.213C98.8752 14.5286 98.3624 13.8625 97.7701 14.602C97.2309 13.1562 96.0676 14.1356 96.0016 15.621C96.3136 15.4727 96.1588 14.785 96.4434 15.2637C96.4088 15.6057 96.3766 15.9465 96.342 16.2885C95.7197 16.1107 95.2757 16.0239 95.7867 15.0696C95.6935 15.0239 95.6013 14.9785 95.5082 14.9328C95.3304 15.6652 95.1541 16.4007 94.9763 17.1331C94.8409 17.1905 94.7052 17.2471 94.57 17.3046C94.4748 17.1145 94.3799 16.9225 94.2839 16.7302C94.7144 15.6037 95.0234 15.6305 94.1683 14.7627C94.078 15.1646 93.9866 15.5646 93.8963 15.9665C93.1676 15.2724 93.3571 14.2925 92.301 14.1015C93.408 12.8781 93.3123 15.4515 93.9178 12.6473C94.0806 12.8754 94.2447 13.1064 94.4081 13.3346C94.5274 12.9348 94.6462 12.5342 94.7637 12.134C93.6267 12.1115 91.2414 14.3943 90.9027 12.465C90.768 12.6624 90.638 12.8312 90.4979 13.0443C90.0118 11.8191 89.1912 14.1568 88.7653 12.6167C88.7222 12.4554 89.3628 10.2308 88.4032 10.1089C88.3635 10.4074 88.2694 10.9039 88.2088 11.2782C88.044 11.0543 87.8826 10.8225 87.7213 10.5952C87.6266 10.8584 87.5307 11.1213 87.435 11.3864C87.7575 11.5658 88.0795 11.747 88.4053 11.9273C88.0959 11.958 87.7858 11.9888 87.4791 12.0202C87.7581 12.5436 87.9272 12.585 87.548 13.2461C87.2144 13.2188 86.8765 13.1933 86.538 13.1651C86.4651 13.3397 86.3921 13.5165 86.3192 13.6912C86.3616 14.2676 86.4085 14.8325 86.4499 15.4171C85.6847 14.7891 84.9642 14.6095 84.5296 13.4013C84.4569 13.1974 85.0009 12.5747 84.1068 13.0501C84.1751 12.6733 84.2197 12.365 84.2805 12.0162C83.1339 12.8678 82.8819 12.4869 82.0811 11.5254C82.5577 12.3651 82.1005 11.7877 81.855 12.1313C81.6885 12.3685 82.1305 12.4221 82.0216 12.6845C81.9174 12.9459 81.1213 13.9217 81.5741 14.1555C83.2052 12.1554 82.9616 14.9094 84.6838 14.1496C84.3903 14.3894 84.0961 14.6299 83.805 14.8704C83.8711 15.0896 83.9299 15.2883 84.0026 15.5217C83.2644 14.9047 83.6084 15.2766 83.1945 15.5501C82.7795 15.8234 82.0852 15.9829 81.6528 15.9904C81.5161 15.9926 81.7602 15.5182 81.4768 15.4089C81.2825 15.3338 80.5647 15.9618 80.6252 15.0549C80.6634 14.4643 81.8842 13.0742 80.6583 12.8185C80.5476 12.2082 81.0955 12.5064 81.1233 12.4416C81.3683 11.7952 80.7342 11.136 80.2673 11.5706C80.2294 11.6086 80.3984 12.1883 80.052 12.3286C79.2284 12.6647 78.9653 11.9857 78.66 11.0778C78.4066 12.0145 77.5815 13.0234 76.9041 12.5165C76.809 12.7799 76.7154 13.046 76.62 13.3114C76.7665 13.1921 76.9132 13.0747 77.061 12.9557C77.1558 13.1531 77.2565 13.3034 77.3374 13.5296C76.5464 13.6078 76.1556 14.8903 75.7027 15.2951C74.1472 16.6767 75.6073 13.3747 75.9449 12.8234C76.0524 13.0972 76.1498 13.3982 76.2554 13.6844C76.3064 13.3504 76.3578 13.0139 76.4107 12.6782C74.5758 12.3085 76.5798 10.4764 75.7653 9.66759C75.44 10.5552 75.0695 10.9476 74.6988 10.9066C74.3968 10.8719 74.0926 10.5763 73.8074 10.0489C73.7096 10.0374 73.6159 10.0206 73.5163 10.0109C73.4516 10.2447 73.3782 10.6073 73.3195 10.7581C72.193 10.817 72.5308 8.27847 72.4681 8.01874C72.2245 6.87448 71.5939 8.26442 71.4636 8.25155C70.8886 8.19035 70.8618 7.51254 70.281 7.68771C69.6456 7.87584 69.9431 8.44971 69.6823 8.86064C69.4706 9.18609 69.0311 9.16635 68.7642 9.49503C68.8956 9.20957 69.0385 8.93237 69.1679 8.64542C68.646 8.12127 68.2499 7.63299 67.5958 7.4075C66.4289 9.46055 66.4711 5.64166 66.1845 8.6938C66.7674 9.01243 67.075 9.42412 67.2582 10.2502C66.84 10.2728 66.3872 10.2874 65.9718 10.3127C65.9108 9.9608 65.8796 9.6231 65.7967 9.26117C65.3653 9.90631 64.6946 9.47743 64.386 9.63637C62.9029 10.3769 63.1269 11.6444 62.2492 9.4386C63.1399 9.37768 63.3055 8.40095 64.1457 8.68111C64.0836 7.95227 63.6092 8.0217 64.0416 7.23365C63.1527 7.29767 63.3161 8.09351 62.8757 8.70342C62.5064 9.23096 61.9353 9.17601 61.8563 9.9265C61.8622 9.50833 61.8787 9.10516 61.8841 8.68756C61.3349 8.60923 60.7983 8.53392 60.2567 8.46944C60.5329 8.0684 60.839 7.6719 61.1241 7.27672C60.9737 7.09105 60.8093 6.9048 60.6521 6.71971C59.1674 7.85578 56.8896 5.26114 57.1299 8.66563C56.4917 8.74954 56.4252 8.32891 56.0722 7.68598C56.0317 7.94237 55.9933 8.15568 55.9545 8.44119C55.6201 8.22551 55.3542 8.80512 55.0724 8.91742C55.0028 8.94523 54.9319 8.94444 54.8579 8.89597C54.4869 8.65375 54.3748 7.7464 54.3535 9.27656C54.1064 8.84291 53.8614 8.48424 53.6115 8.0832C53.4779 8.43443 53.3437 8.78196 53.2144 9.13156C52.9859 8.95646 52.7556 8.78287 52.5259 8.60921C52.4337 9.34247 51.5459 9.06449 51.1854 9.57483C50.7824 8.8081 50.6541 6.331 49.7977 6.82809C49.8589 7.44004 49.9192 8.05027 49.9796 8.66228C49.7728 8.54655 49.5663 8.43178 49.3572 8.31735C49.3317 8.11803 49.3077 7.9186 49.2821 7.71929C49.388 7.7743 49.4936 7.82915 49.5997 7.88652C49.4893 7.55354 49.3786 7.22227 49.2685 6.88949C48.9946 7.41207 48.7253 7.93575 48.459 8.46048C48.8982 8.80875 49.3341 9.15995 49.765 9.51367C49.286 9.99698 48.8998 9.57362 48.4961 10.1091C48.0468 9.29323 48.1462 8.79508 48.2341 7.86451C48.0947 7.95427 47.9534 8.04177 47.8149 8.13207C47.8362 7.20682 47.5413 6.67813 48.4089 6.68557C48.33 6.42813 48.2495 6.18313 48.1708 5.91541C48.0326 5.96763 47.9217 5.75367 47.7742 5.86723C47.3688 6.17833 47.188 7.8185 47.2673 8.38078C47.3078 8.67525 47.6698 8.07405 47.6881 8.49414C47.7319 9.51843 46.7691 9.13754 48.1903 10.0512C47.8018 10.7369 47.6634 10.2551 47.1585 10.111C47.2275 10.4474 47.2948 10.7819 47.3615 11.1186C47.1226 10.982 46.8834 10.8468 46.644 10.7117C46.8014 8.93473 45.0292 8.44614 46.4209 6.77002C45.9557 6.73484 45.4917 6.70202 45.0265 6.66835C45.1017 6.47927 45.1762 6.29222 45.2527 6.10325C45.4705 6.1763 45.6854 6.24865 45.9016 6.32095C45.6257 6.01752 45.3481 5.71702 45.068 5.41564C44.5306 5.88244 44.3759 6.53169 44.2021 7.33048C44.9279 7.81705 44.6246 7.07457 45.1284 6.86621C45.1619 7.35563 45.2331 7.80154 45.2426 8.31848C44.986 7.64478 44.5341 7.82409 44.2133 8.02805C44.0678 8.12106 43.9491 8.21901 43.8878 8.24191C43.2964 8.46427 43.6557 7.41638 43.2432 7.4452C42.828 7.47498 42.4239 8.1253 41.9595 7.18857C42.0378 7.73758 42.1393 8.30293 42.2286 8.80046C41.6203 9.06453 41.6594 8.39923 41.5823 8.32378C40.3421 7.08507 39.9296 8.33381 38.7586 8.65745C38.9365 8.80382 39.1134 8.93368 39.2904 9.07019C38.5694 10.3717 39.1221 9.92046 39.9547 10.1903C39.2091 10.1816 38.9455 11.2376 38.4844 11.6124C38.0231 11.9862 37.0698 11.6221 36.6822 11.2813C37.3065 10.5202 38.1687 10.8111 38.9556 10.5093C38.7765 9.96539 38.6125 9.50706 38.4199 8.90892C38.1038 10.1586 37.6926 9.42237 37.5016 9.29398C36.9429 8.91773 37.125 9.91946 36.6525 8.88853C36.7266 9.25792 36.7875 9.56874 36.8573 9.91364C35.8394 9.92383 34.6415 9.46189 34.25 10.9491C34.0266 10.0707 33.8229 9.22222 33.5854 8.32755C33.2851 9.07606 32.7931 8.46025 32.4643 8.6863C32.1385 8.9123 32.4145 9.60283 32.0536 9.9614C31.9868 10.0275 31.7373 9.61076 31.614 9.97995C31.5432 10.192 31.4479 11.1363 31.2864 11.5074C31.1632 11.7861 31.001 11.7424 30.7706 10.8259C30.4138 10.8904 30.0638 10.8832 29.7086 10.9231C30.0203 10.7275 30.3318 10.5375 30.6448 10.3446C30.245 9.88322 29.8453 9.42443 29.4387 8.96668C29.5029 9.43995 29.5693 9.92156 29.6346 10.3883C28.9841 11.1249 28.2484 10.495 27.5059 10.863C27.3829 10.9249 27.9102 11.7648 27.2784 11.6721C26.6502 11.5802 25.7785 9.98604 24.9603 10.9062C24.9177 10.9541 24.9798 12.3301 24.3842 11.528C24.2479 11.3464 24.5032 10.9525 24.2455 10.7357C23.9864 10.5181 23.0989 10.5304 22.8522 9.91489C22.9252 10.1372 23.0431 10.3556 23.133 10.5774C23.0233 10.7247 22.9112 10.8731 22.7998 11.0194C22.6726 10.6274 22.5441 10.2352 22.4172 9.84536C21.8668 11.003 21.9069 12.62 20.5767 12.4872C21.0852 12.9564 21.5905 13.4302 22.0896 13.9047C22.0589 13.4752 22.0279 13.0429 21.9966 12.6137C22.5882 12.612 23.1802 12.6127 23.77 12.6197C23.7293 12.1342 23.6882 11.6504 23.6493 11.1647C23.8119 11.1835 23.9738 11.2008 24.1358 11.2204C24.1915 11.5636 24.2467 11.9051 24.3016 12.2486C24.5653 12.0873 24.8307 11.9249 25.0947 11.7662C25.0488 13.8894 23.4264 12.0477 23.9642 13.6697C23.7652 13.451 23.5631 13.2316 23.3616 13.0119C23.535 13.8233 23.2113 13.6683 22.7176 13.678C22.937 14.0384 23.1664 14.3902 23.3766 14.7579C22.7753 14.3337 22.0079 14.6222 21.487 14.5507C21.2572 14.5195 21.2823 13.8842 21.2017 13.8352C20.7852 13.5772 20.509 14.7599 20.3627 14.7193C19.7993 14.5655 19.1569 13.7971 18.6551 13.6608C18.3767 13.5832 18.1409 13.7058 17.9987 14.2467C18.9239 14.2868 18.4339 14.302 18.949 14.8993C18.9729 14.9272 19.0199 14.9534 19.0778 14.9787C19.3832 15.1086 19.9849 15.2123 19.2044 15.3733C19.1259 15.3895 19.0329 15.4064 18.9234 15.4243C18.7621 15.4455 15.9156 14.9364 16.3817 13.6773C16.092 14.1258 15.9077 14.5954 15.6621 15.0523C13.9076 12.718 15.0364 15.0843 15.7438 16.3581C15.6031 16.4116 15.4703 16.4713 15.3231 16.5207C15.1605 14.9877 13.5273 15.4375 13.2293 16.3417C13.1286 16.6425 13.7917 16.9262 13.4445 17.2844C13.211 17.2523 12.9405 17.1999 12.6911 17.1603C13.3035 17.9575 12.8227 18.5089 13.1438 19.4228C12.4821 18.7366 11.5961 17.1065 11.4865 16.096C11.2973 16.585 11.1088 17.0735 10.9227 17.5641C11.1443 17.731 11.368 17.895 11.5897 18.0618C10.3538 17.842 9.47489 19.6111 8.59249 17.7635C8.45996 17.8247 8.32487 17.8847 8.19207 17.9461C8.26214 18.2854 8.33386 18.6249 8.40396 18.9643C7.68476 18.8981 6.96641 18.8302 6.24696 18.765C6.72997 18.3712 6.7013 17.8634 7.41263 18.0368C7.05932 17.7411 6.70079 17.445 6.35154 17.1481C5.8264 18.4571 5.93758 19.1587 4.51793 19.3183C4.45352 19.3254 3.16589 18.8298 3.10317 18.7597C2.81646 18.4389 2.86261 17.8113 2.72708 17.6459C2.34879 17.1816 0.712448 16.2557 0.664841 16.0465C0.0868726 13.4769 4.01838 12.0677 5.04704 11.5693C8.75993 9.7672 12.5884 8.35145 16.5669 7.15139C20.7605 5.8784 25.3262 4.87231 29.7607 4.15357C33.1564 3.5907 36.503 3.10234 39.8884 2.53102C40.0113 2.50871 39.9035 2.13387 39.954 2.11007C40.2693 1.96779 40.6735 2.52026 40.7978 2.52854C41.0634 2.54438 40.8464 2.01243 41.0367 1.98661C41.8627 1.8793 42.6806 1.8372 43.4979 1.80444C44.6275 1.75901 45.753 1.73201 46.908 1.57765C47.0377 1.56037 46.9426 2.01492 47.1638 1.91737C47.2781 1.86449 47.5933 1.15381 47.8607 1.12305C48.795 1.01651 49.5976 1.18334 50.5843 1.12086C51.1242 1.08594 51.9374 1.10813 52.5405 1.0773C52.8057 1.06365 53.0747 0.74279 53.3378 0.72503C53.712 0.700357 53.6508 1.33561 53.709 1.37339C53.9644 1.53897 53.9822 0.843551 54.2222 0.855041C54.5707 0.874025 54.666 1.16331 54.9592 1.26428C55.0406 1.29214 55.138 1.30573 55.2636 1.29579C55.6651 1.25961 56.7259 0.895457 57.3414 0.815449C58.7322 1.40187 60.3867 1.36751 61.5477 1.34399C62.2379 1.33017 62.2141 1.98513 62.4776 2.0208C63.4245 2.1469 64.2594 1.44164 65.1349 1.56158C66.2864 1.72084 67.1888 2.44105 68.2674 2.68149C68.4371 2.71941 68.5068 2.12698 68.6797 2.14377C69.3314 2.20872 70.1682 2.2585 70.7066 2.44942C71.3199 2.6635 71.3793 3.55547 72.0264 3.50383C72.2155 3.48796 72.427 2.75766 72.7363 2.71996C73.2345 2.66303 73.6515 3.42796 73.9559 3.56539C74.3916 3.75467 74.1442 2.91735 74.7472 3.14502C74.771 3.1544 74.7603 3.71506 74.894 3.71536C75.2869 3.71925 75.3332 3.28525 75.8926 3.44187C75.9144 3.4487 76.0349 3.56342 76.1772 3.69883C76.3729 3.89404 76.6139 4.13317 76.6576 4.14344C77.094 4.24162 77.9325 4.60329 78.2112 4.54722C79.2162 4.35051 78.6703 3.38928 79.0743 5.31315C79.5048 4.95282 79.9384 4.58719 80.3971 4.24582C80.0746 4.58623 80.9347 5.356 81.0126 5.33445C81.6483 5.16165 81.4537 4.40447 82.159 4.67189C80.8683 6.05353 83.0424 5.07177 83.4858 5.12393C85.5625 5.35974 87.3241 6.15013 89.369 6.57971C90.0576 6.72358 91.0393 6.58531 91.7643 6.75047C91.9335 6.78756 91.7246 7.1343 91.872 7.17464C92.0197 7.21236 91.9455 6.75637 92.1105 6.81532C93.1226 7.1867 93.781 8.1596 94.9544 7.37645C94.9702 7.52992 94.9441 7.64282 94.9876 7.81707C95.9713 7.10079 97.2243 8.62366 97.7577 8.91143C98.5912 9.35965 98.9526 8.80988 99.5716 9.07175C100.391 9.41979 101.42 10.8726 101.269 8.81237C101.868 8.8797 102.437 8.98634 102.99 9.29578C103.052 9.33059 102.899 9.81246 102.923 9.82834C103.075 9.93549 103.225 9.50705 103.343 9.51152C103.661 9.52407 103.046 9.94207 103.515 9.89021C103.762 9.86168 103.977 9.50623 104.618 9.63788C108.483 10.4387 112.63 11.4927 116.565 12.4228C116.835 12.4861 116.762 11.9716 117.094 12.0761C118.253 12.4405 120.187 13.7025 121.23 13.8163C122.275 13.9303 122.183 13.1814 122.893 13.0313C123.029 13.0017 122.841 13.3759 122.952 13.4065C123.692 13.6062 124.451 14.4194 125.033 14.6437C125.416 14.7924 125.518 14.1613 125.81 14.1782C126.243 14.2048 126.529 14.9268 126.742 14.9942C127.769 15.3103 128.59 14.9568 129.496 15.4236C129.489 15.2782 129.492 15.1458 129.489 15.0037C129.581 15.0255 129.673 15.0472 129.764 15.0688C130.833 15.3209 131.848 15.5603 132.91 15.8084C132.884 15.6714 132.859 15.5337 132.832 15.3947C134.146 15.747 133.72 17.0778 134.208 14.179C134.328 14.0986 134.455 14.0031 134.567 13.9295C134.211 15.4005 134.794 16.6566 135.749 17.2505C135.822 17.2955 136.616 15.9545 136.21 17.6502C136.434 17.2613 136.573 16.9902 136.762 16.6469C136.876 17.2097 136.973 17.7624 137.095 18.3244C137.231 18.2724 137.366 18.223 137.499 18.1701C137.586 17.8392 137.644 17.4892 137.749 17.1685C138.304 17.2307 139.329 17.8708 139.77 17.915C140.855 18.0216 142.098 17.3233 142.709 18.4511C143.112 18.4219 142.859 17.6945 143.408 17.8801C143.413 18.226 143.417 18.557 143.421 18.913C144.146 17.5005 144.074 18.4258 144.622 18.8335C144.983 19.107 145.271 18.7729 145.576 18.8811C145.651 18.9084 145.593 19.3497 145.65 19.3412C145.764 19.3264 146.003 19.1231 146.266 18.9604C146.448 18.848 146.6 18.7525 146.664 18.7503C148.019 18.6884 149.206 18.7546 150.73 18.897C150.893 18.911 150.675 18.4752 150.844 18.4911C151.111 18.5158 150.966 19.1933 151.124 19.2236C151.565 19.3036 151.555 18.5923 152.17 18.5402C152.388 18.5218 152.608 18.5105 152.838 18.5047C154.718 18.4579 156.837 18.8073 158.758 18.7551C158.825 18.7517 158.801 18.3354 158.873 18.3277C159.346 18.2838 159.859 18.8214 160.29 18.7915C161.006 18.7438 161.51 18.1275 162.214 18.0856C163.591 18.0011 164.839 18.2138 166.248 18.1168C167.4 18.0376 168.392 17.894 169.64 17.7711C169.645 17.7706 169.65 17.7701 169.655 17.7696C175.116 17.2256 180.37 15.0628 185.84 14.5936C185.98 14.5823 186.003 14.9543 186.041 14.9296C186.266 14.7794 186.323 14.5324 186.421 14.6019C186.482 14.6443 186.557 14.8053 186.696 15.1792C187.156 14.8666 187.142 14.0681 187.758 13.9832C188.088 13.9365 188.122 15.1737 188.528 14.4362C188.891 13.768 188.19 13.2569 189.814 13.5589C189.857 13.5675 190.226 14.2376 190.485 13.9743C190.744 13.7128 190.263 13.2892 190.957 12.9482C192.583 12.1494 194.926 12.1696 196.856 11.388C196.979 11.3399 198.056 10.6005 198.234 10.3533C198.347 10.198 198.396 10.0408 198.428 9.88943C198.498 9.57264 198.499 9.27943 198.859 9.06976C199.268 8.831 199.821 9.30571 200.284 9.02046C200.337 8.98655 200.231 8.3482 200.623 8.30351ZM94.8897 17.7838C94.6361 18.371 93.9272 20.5812 93.3525 19.7368C93.2979 19.6572 94.0058 18.1851 93.6595 17.8512C94.0863 17.7723 94.4799 17.8023 94.8902 17.7814C94.89 17.7822 94.8898 17.783 94.8897 17.7838ZM208.625 21.0442C208.06 21.1418 207.461 21.2519 206.86 21.3509C207.15 20.9455 207.431 20.539 207.697 20.1334C208.008 20.4365 208.317 20.7405 208.625 21.0442ZM138.052 28.3604C138.053 28.3605 138.053 28.3606 138.054 28.3607C137.428 28.5396 136.772 28.7113 136.143 28.8864C136.247 28.6838 136.351 28.4803 136.455 28.2775C136.985 28.0331 137.505 27.7865 138.031 27.5396C138.038 27.8133 138.045 28.0869 138.052 28.3604ZM143.105 26.9377C143.445 27.2559 143.278 27.6745 143.434 28.1316C143.434 28.1308 143.435 28.13 143.435 28.1292C143.475 28.2481 143.732 28.3841 143.832 28.4144C143.832 28.1365 143.821 27.8605 143.818 27.5842C144.757 27.0516 146.549 29.5913 143.867 30.271C143.95 29.9312 144.031 29.5928 144.112 29.2524C142.844 29.1892 141.772 28.2229 143.105 26.9377ZM86.0695 16.8998C84.908 17.8147 84.5818 17.9902 83.6262 16.9878C83.8503 16.7057 84.0749 16.4239 84.3002 16.1421C84.4155 16.5033 84.5317 16.8625 84.6428 17.2229C84.6433 17.223 84.6439 17.2231 84.6444 17.2232C84.7531 16.893 84.8621 16.5622 84.9694 16.2318C85.3327 16.4535 85.7006 16.6766 86.0695 16.8998ZM179.359 25.9551C179.977 28.1588 179.697 26.8667 179.022 27.4904C178.788 27.7065 179.103 28.0605 178.951 28.151C178.122 28.6432 177.83 27.1444 177.909 26.3318C178.393 26.2056 178.883 26.0807 179.358 25.9554C179.358 25.9553 179.359 25.9552 179.359 25.9551ZM201.402 20.3104C201.402 20.3102 201.403 20.3101 201.403 20.3099C201.589 20.833 201.295 21.0805 201.834 21.4634C201.541 21.5521 201.247 21.6379 200.954 21.7251C201.025 21.6496 201.097 21.5758 201.169 21.4998C201.037 21.3412 200.905 21.18 200.774 21.0207C200.856 21.6619 200.652 21.337 200.284 21.2252C200.566 21.8516 200.847 22.4783 201.129 23.1044C200.71 23.0195 200.293 22.9318 199.876 22.8436C199.823 22.6804 199.77 22.5168 199.717 22.3535C199.645 22.6035 199.571 22.8562 199.499 23.1059C199.405 22.92 199.312 22.7355 199.218 22.5496C199.096 22.7468 198.98 22.942 198.858 23.141C198.671 22.6782 198.97 22.3693 198.369 22.6732C198.425 22.1275 198.477 21.5841 198.531 21.0386C199.489 20.8033 200.446 20.5616 201.402 20.3104ZM172.626 27.5743C173.702 27.3548 173.441 27.7458 173.317 28.8943C173.085 28.4547 172.854 28.0149 172.626 27.5743ZM117.121 22.0386C116.655 22.7228 116.188 23.3987 115.716 24.0541C114.999 24.3357 114.68 22.8329 115.262 22.3989C115.97 21.8802 116.402 22.7287 117.121 22.0386ZM102.9 19.2732C103.585 19.7875 102.674 20.5223 102.389 21.0044C102.362 20.1234 102.053 20.1329 101.603 19.9329C102.057 19.9754 102.787 19.1866 102.901 19.2709C102.901 19.2716 102.901 19.2724 102.9 19.2732ZM129.188 25.5458C129.502 25.5898 129.848 25.4446 130.059 25.7563C129.826 26.4575 129.426 25.6886 129.584 26.8356C129.388 26.8126 129.189 26.7884 128.988 26.7665C129.208 26.3523 129.111 25.9868 129.188 25.5484C129.188 25.5475 129.188 25.5467 129.188 25.5458ZM162.141 29.3213C161.47 28.4901 161.378 28.868 160.785 29.5038C160.66 28.8019 161.336 27.5774 161.782 27.2895C161.9 27.9668 162.02 28.6443 162.141 29.3213ZM20.6533 17.1322C20.5189 16.2279 21.5058 15.7951 22.0896 15.8969C22.0687 16.0432 22.0481 16.1913 22.0277 16.3396C21.5697 16.6012 21.1106 16.866 20.6533 17.1322ZM101.392 19.8243C101.465 19.8673 101.536 19.9029 101.603 19.9329C101.523 19.9253 101.45 19.8938 101.392 19.8243ZM70.3403 9.22176C70.7541 8.43623 70.0641 8.00925 70.906 8.51451C70.9062 8.51372 70.9063 8.51292 70.9065 8.51212C71.4819 8.84947 71.5804 8.92888 72.1331 9.10689C71.7148 10.1375 70.5108 10.2954 72.028 10.8287C72.0468 10.8335 72.1416 10.1893 72.3649 10.3249C72.4349 10.3672 72.5691 10.9385 72.9143 11.1667C73.0261 11.24 73.913 11.5877 72.6606 11.3445C72.5464 12.0986 72.3276 12.8409 72.1843 13.5658C71.6692 13.6809 71.587 12.1431 71.0729 12.078C70.3185 11.9868 69.6272 13.3885 69.8713 11.4198C70.5972 11.0664 71.689 11.2724 71.6035 12.4691C72.2154 12.6066 72.5754 11.6849 72.1839 11.114C69.9359 11.2896 71.8759 9.57478 69.8687 9.97272C69.7932 10.2384 69.6583 10.5138 69.6207 10.77C69.2277 9.70668 70.2026 9.50455 70.3403 9.22176ZM74.3767 12.1797C73.8845 12.6725 73.4019 13.1724 72.929 13.6719C73.119 12.7432 73.4795 11.9482 74.1696 11.5442C74.2373 11.7565 74.3073 11.9691 74.3767 12.1797ZM43.5726 10.3477C43.5823 10.8657 43.4996 11.3517 43.4583 11.8512C43.2982 11.4273 40.6065 11.3714 41.8903 10.7666C42.0797 10.677 43.3811 11.4268 43.5726 10.3477ZM166.388 28.253C166.039 27.9334 165.694 27.6122 165.35 27.2908C165.825 27.0361 166.297 26.7743 166.768 26.5124C166.642 27.0926 166.516 27.673 166.388 28.253ZM112.259 20.0475C112.386 20.0953 111.796 20.6916 112.34 20.6964C111.853 21.0537 111.417 21.3509 110.948 21.6846C110.907 21.3324 110.865 20.9812 110.823 20.6289C110.689 20.8198 110.553 21.0091 110.419 21.2001C110.577 20.7345 110.726 20.2788 110.888 19.8058C111.3 20.9682 111.697 19.8396 112.259 20.0475ZM131.538 22.2877C131.431 23.3506 130.378 23.7713 131.247 24.1304C130.935 24.777 130.571 25.0735 130.031 25.0214C130.004 24.7427 129.975 24.4658 129.947 24.1869C129.785 24.8823 129.596 25.1131 129.188 25.5458C129.187 25.545 129.187 25.5441 129.187 25.5433C128.361 25.4185 128.474 25.1992 128.524 24.0097C129.222 24.8375 129.493 23.7991 130.201 23.2989C130.677 22.9525 131.178 23.2626 131.538 22.2877ZM46.392 10.0247C45.876 10.9769 46.505 11.7513 45.341 10.9166C45.3856 10.6828 45.4309 10.4509 45.476 10.2172C45.7803 10.1496 46.0869 10.0856 46.392 10.0247ZM133.761 26.4782C134.029 24.8553 133.719 23.4827 133.076 26.0794C133.504 26.7261 133.559 25.19 133.761 26.4782ZM103.71 16.8163C104.756 17.1238 104.158 18.8917 103.524 19.702C103.528 19.3577 103.533 19.0128 103.539 18.6708C103.32 18.7796 103.101 18.8888 102.882 18.9957C103.158 18.2699 103.434 17.5421 103.71 16.8163ZM153.312 26.8582C152.513 28.0551 154.232 27.4844 153.671 28.2338C153.496 28.4719 153.278 28.4315 153.107 28.2489C152.837 27.9724 152.66 27.3702 152.785 26.9203C152.874 26.9065 152.969 26.8943 153.07 26.8832C153.147 26.8743 153.227 26.8661 153.31 26.8583C153.311 26.8582 153.311 26.8582 153.312 26.8582ZM148.461 27.2563C148.582 28.5114 148.389 28.1459 149.067 27.9248C149.262 27.8651 150.784 28.323 150.139 27.2895C149.597 27.2944 149.029 27.2771 148.461 27.2563ZM91.0383 15.9337C91.1425 15.3975 92.5237 14.4699 92.6006 14.7935C92.6008 14.7927 92.601 14.7919 92.6011 14.7911C92.8152 15.674 91.6113 15.5319 91.8857 16.7393C90.9542 15.5274 90.1135 17.7886 90.8571 14.7306C91.5541 14.7402 91.1009 15.3057 91.0383 15.9337ZM6.41573 19.2233C6.41523 19.2234 6.41473 19.2236 6.41423 19.2238C6.49546 19.2227 7.35776 19.7713 7.37603 20.0589C6.57768 20.0845 6.53227 19.5418 6.14694 20.5938C6.01831 20.343 5.89767 20.0983 5.76552 19.8465C5.9776 19.5972 6.01413 19.2293 6.41573 19.2233ZM40.5548 9.63903C40.8119 9.45768 41.399 9.97305 41.7082 9.89574C41.0228 12.2818 39.5365 10.3608 40.5548 9.63903ZM191.173 23.2042C191.173 23.2052 191.172 23.2062 191.172 23.2072C191.172 23.2059 191.172 23.2047 191.172 23.2034C191.172 23.2037 191.173 23.204 191.173 23.2042ZM61.8542 10.3534C61.8416 10.2022 61.8413 10.0726 61.8511 9.96029C61.8527 9.94983 61.8543 9.93937 61.8559 9.92891C61.8539 10.0683 61.8529 10.2095 61.8542 10.3534ZM88.6753 15.5917C88.3699 14.7467 90.1779 13.8982 90.6235 14.2904C90.515 14.6225 90.443 14.9294 90.2772 15.302C90.0573 14.3335 88.7244 15.7335 88.6753 15.5917ZM124.197 23.0601C122.957 22.7692 125.217 20.1836 124.767 22.5407C124.755 22.5857 124.23 23.0631 124.197 23.0601ZM98.4367 17.3884C98.9441 16.5674 98.3657 16.1937 99.3395 16.5672C99.3479 16.8104 99.3561 17.0541 99.3644 17.2973C99.0552 17.3272 98.7456 17.3584 98.4367 17.3884ZM116.984 17.444C115.33 17.6008 113.65 18.1486 114.126 20.8228C114.261 20.7699 114.397 20.7198 114.531 20.6668C114.811 19.4742 115.102 20.2225 115.72 20.3987C115.915 19.9436 116.293 19.9112 116.447 19.522C116.746 18.7697 116.461 18.1325 116.984 17.444ZM182.426 22.6251C182.439 22.8353 182.452 23.0465 182.464 23.2547C182.259 23.5317 182.053 23.8072 181.846 24.0834C181.816 23.6813 181.786 23.2792 181.756 22.8771C181.98 22.7932 182.2 22.7091 182.424 22.6241C182.425 22.6244 182.425 22.6247 182.426 22.6251ZM76.409 9.96016C75.8063 12.1853 76.3631 11.8673 77.616 10.9405C77.2089 10.6124 76.8018 10.2846 76.409 9.96016ZM141.628 23.6261C141.54 24.2747 141.453 24.9213 141.367 25.5702C142.024 24.9991 142.059 24.2438 141.959 23.346C141.844 23.4384 141.741 23.5336 141.628 23.6261ZM149.08 24.103C148.862 23.9655 148.971 24.4938 148.948 24.4831C148.395 24.2004 148.33 23.9592 147.65 24.3355C147.564 24.4712 147.476 24.6138 147.389 24.753C147.649 26.1339 147.906 25.3982 148.573 26.2129C148.457 25.7415 148.342 25.269 148.232 24.7947C148.6 24.9016 148.969 25.0026 149.345 25.1021C149.389 24.9572 149.433 24.8137 149.477 24.6687C149.346 24.4827 149.208 24.2732 149.08 24.103ZM185.378 22.6633C185.75 22.643 186.125 22.6229 186.497 22.5998C186.441 22.2669 186.384 21.9318 186.328 21.5989C186.014 21.9544 185.696 22.3097 185.378 22.6633ZM68.7642 9.49503C68.7124 9.60694 68.6612 9.71972 68.613 9.83515C68.6436 9.68906 68.6972 9.58073 68.7642 9.49503ZM4.8878 17.7959C4.41486 17.7108 3.8964 18.0557 3.44674 18.1601C3.75967 18.9473 4.78416 18.3421 5.33959 18.6919C5.35172 18.5269 5.08742 17.8314 4.8878 17.7959ZM105.163 17.2106C105.356 16.8206 105.548 16.4327 105.74 16.0424C105.978 16.1412 106.216 16.2426 106.456 16.3416C106.537 16.0055 106.619 15.6665 106.7 15.3305C105.507 15.5288 105.971 14.6101 105.639 13.5312C105.481 14.7571 105.321 15.9827 105.163 17.2106ZM196.193 17.7903C195.485 18.2321 195.324 18.7279 196.039 19.6063C196.25 19.3008 196.463 18.994 196.671 18.6878C196.511 18.3889 196.351 18.0897 196.193 17.7903ZM54.0592 7.00843C53.386 7.41255 53.3324 6.02189 52.6854 6.82132C53.0533 7.06508 53.4196 7.31355 53.7813 7.56098C53.8721 7.37716 53.9672 7.19205 54.0592 7.00843ZM87.8766 8.75457C87.6951 8.22041 86.6844 10.357 86.2586 8.52855C85.9623 8.98359 85.7422 9.43174 85.4759 9.88268C85.4945 9.33419 85.5018 8.77625 85.5241 8.23282C85.5236 8.23271 85.5231 8.2326 85.5226 8.23248C84.7698 8.25787 85.0917 9.01951 84.9555 9.5767C84.8979 9.8074 84.4537 9.3063 84.5104 9.84735C84.6065 10.7758 85.788 10.5063 85.5659 11.5659C85.259 11.1383 84.4648 11.2709 84.5306 12.0235C84.5992 12.8487 85.5817 11.7004 85.8756 12.4362C85.611 10.61 86.7951 11.4104 86.6674 12.7422C87.6521 11.91 87.0277 11.35 86.237 11.2291C86.9276 10.3357 86.1098 10.723 86.1728 9.87084C86.7654 9.47507 88.3835 10.2585 87.8766 8.75457ZM123.514 18.4491C122.958 18.3952 122.281 17.6515 121.727 18.4103C121.409 18.8533 122.157 19.4136 121.416 20.0566C121.95 20.0947 122.13 19.8196 122.19 19.1273C122.325 19.072 122.46 19.0189 122.593 18.9654C122.618 19.1084 122.645 19.25 122.669 19.3931C122.791 19.1294 122.91 18.8675 123.032 18.6039C123.147 18.686 123.262 18.7684 123.375 18.8523C123.42 18.7163 123.472 18.6005 123.514 18.4491ZM34.5487 9.17324C34.6957 9.13821 34.841 9.10375 34.988 9.06706C34.9422 8.90474 34.892 8.73616 34.8428 8.56971C34.8054 8.43794 34.7679 8.30617 34.7303 8.17442C34.9041 8.6377 35.7504 9.31032 35.9604 8.74711C36.0671 8.46426 35.5661 7.60972 36.1811 7.34135C35.7234 7.46692 35.3147 7.66597 34.8776 7.82336C34.8699 7.54513 34.8603 7.26426 34.8531 6.98599C34.8528 6.98564 34.8524 6.98528 34.8521 6.98493C34.6909 6.95036 34.527 6.91348 34.3654 6.87943C34.4251 7.64471 34.4871 8.4082 34.5487 9.17324ZM141.442 22.2757C140.836 22.7103 140.632 22.956 140.695 23.8579C140.695 23.8584 140.696 23.8589 140.696 23.8594C140.947 23.5136 141.22 23.1717 141.467 22.8247C141.46 22.642 141.452 22.4588 141.442 22.2757ZM64.9169 5.85834C63.2682 8.94074 66.0502 7.3587 65.7902 6.1673C65.7691 6.11061 64.9671 6.23826 64.9169 5.85834ZM103.732 15.7767C104.03 15.8143 104.328 15.8546 104.627 15.8924C104.646 15.4793 104.664 15.0673 104.684 14.6542C104.367 15.0277 104.049 15.4032 103.732 15.7767ZM192.45 17.2402C191.925 16.4358 191.09 16.3072 190.955 17.3607C191.18 17.4244 191.403 17.4881 191.628 17.5509C191.286 17.7547 190.948 17.9676 190.598 18.1639C190.879 19.4013 191.139 18.5811 191.876 18.756C191.99 18.7858 193.03 20.1462 192.958 18.9382C192.941 18.691 192.215 18.7063 192.514 17.897C192.293 17.8962 192.115 17.9546 191.912 17.9741C191.823 17.6847 191.735 17.395 191.645 17.106C191.912 17.1512 192.182 17.1966 192.45 17.2402ZM120.423 17.8754C119.706 17.6471 119.514 18.124 119.172 18.9663C119.525 18.9397 119.89 18.9172 120.249 18.8919C120.306 18.5536 120.365 18.2157 120.423 17.8754ZM186.09 18.4414C185.673 18.3801 185.99 19.0585 185.862 19.2272C185.376 19.8619 184.866 19.4341 184.344 19.8714C184.355 19.7257 184.365 19.5896 184.376 19.4481C184.375 19.4482 184.375 19.4483 184.374 19.4484C181.486 19.3828 183.25 20.7329 184.87 20.1345C184.962 20.3924 185.054 20.6509 185.146 20.9067C185.802 20.2903 186.394 19.6973 186.09 18.4414ZM74.516 7.5822C74.5181 7.40943 75.0058 6.40799 74.393 6.79853C73.6772 8.26004 74.4915 7.62791 74.5409 8.25626C74.3706 8.37573 74.1994 8.49086 74.0331 8.61124C74.7713 9.21569 74.9817 8.87699 74.9008 7.68568C74.8937 7.60526 74.5139 7.75443 74.516 7.5822ZM69.1319 5.72385C68.5796 7.98027 69.8446 7.16104 69.9393 6.44608C69.7981 6.38946 69.6149 6.75418 69.4913 6.55345C69.3631 6.35176 69.4229 5.81127 69.1319 5.72385ZM99.2565 12.6511C99.2279 12.6343 99.1266 11.614 98.9946 12.3666C98.9918 14.2154 100.011 13.2474 100.01 12.6032C99.7486 12.5779 99.5206 12.8057 99.257 12.6487C99.2569 12.6495 99.2567 12.6503 99.2565 12.6511ZM196.911 15.4496C196.879 15.392 196.032 15.2279 196.037 15.6043C196.071 16.0208 196.15 16.4547 196.207 16.8796C196.51 16.3857 197.422 16.4331 196.91 15.4501C196.91 15.4499 196.911 15.4498 196.911 15.4496Z" fill="#FEEA94"/>
</svg>
