<svg width="16" height="16" viewBox="0 0 16 16" fill="none" xmlns="http://www.w3.org/2000/svg">
<path d="M15.0007 8.15766C15.0007 7.58211 14.953 7.16211 14.8499 6.72656H8.14355V9.32431H12.08C12.0007 9.96989 11.5721 10.9421 10.6197 11.5954L10.6064 11.6824L12.7268 13.2922L12.8737 13.3066C14.2229 12.0854 15.0007 10.2888 15.0007 8.15766" fill="#4285F4"/>
<path d="M8.14315 14.9984C10.0717 14.9984 11.6907 14.3762 12.8733 13.3029L10.6193 11.5917C10.0162 12.0039 9.20662 12.2917 8.14315 12.2917C6.25428 12.2917 4.65113 11.0706 4.07965 9.38281L3.99588 9.38978L1.79104 11.062L1.76221 11.1406C2.93679 13.4273 5.34949 14.9984 8.14315 14.9984Z" fill="#34A853"/>
<path d="M4.07982 9.38106C3.92903 8.94551 3.84176 8.47881 3.84176 7.99661C3.84176 7.51436 3.92903 7.04771 4.07189 6.61216L4.06789 6.5194L1.83542 4.82031L1.76237 4.85436C1.27827 5.80326 1.00049 6.86884 1.00049 7.99661C1.00049 9.12439 1.27827 10.1899 1.76237 11.1388L4.07982 9.38106" fill="#FBBC05"/>
<path d="M8.14319 3.70665C9.48444 3.70665 10.3892 4.27442 10.9051 4.7489L12.9209 2.82C11.6829 1.69223 10.0717 1 8.14319 1C5.34951 1 2.9368 2.5711 1.76221 4.85775L4.07173 6.61555C4.65114 4.92777 6.25431 3.70665 8.14319 3.70665" fill="#EB4335"/>
</svg>
