<svg width="24" height="24" viewBox="0 0 24 24" fill="none" xmlns="http://www.w3.org/2000/svg">
<rect width="24" height="24" rx="12" fill="#7DADFE"/>
<g clip-path="url(#clip0_16645_4138)">
<path d="M12 18.6693C12 18.6693 17 14.6693 17 10.3359C17 7.5745 14.7614 5.33594 12 5.33594C9.23857 5.33594 7 7.5745 7 10.3359C7 14.6693 12 18.6693 12 18.6693Z" fill="white"/>
<path d="M12 12.3359C13.1046 12.3359 14 11.4405 14 10.3359C14 9.23137 13.1046 8.33594 12 8.33594C10.8954 8.33594 10 9.23137 10 10.3359C10 11.4405 10.8954 12.3359 12 12.3359Z" fill="#7DADFE"/>
</g>
<defs>
<clipPath id="clip0_16645_4138">
<rect width="16" height="16" fill="white" transform="translate(4 4)"/>
</clipPath>
</defs>
</svg>
