<svg width="105" height="222" viewBox="0 0 105 222" fill="none" xmlns="http://www.w3.org/2000/svg">
<g opacity="0.4">
<path d="M33.7755 99.0192C34.5056 98.1072 35.2586 97.182 35.4849 96.99C35.6882 96.8114 36.102 96.5725 36.4044 96.4592C36.697 96.3822 37.3028 96.3697 37.7609 96.4731C38.219 96.5764 38.6913 96.9168 38.9037 97.2847C39.1161 97.6525 39.3029 98.1884 39.311 98.521C39.3421 98.8402 39.0523 99.5593 38.6927 100.104C38.333 100.649 36.8269 102.5 35.3235 104.195C33.8103 105.927 32.3324 107.455 32.0106 107.641C31.6888 107.826 31.0762 108.517 30.6185 109.211C30.1837 109.891 29.2963 110.955 28.6899 111.55C27.6115 112.602 27.4966 112.669 26.4859 112.67C25.6069 112.687 25.3362 112.536 24.9778 111.916C24.7159 111.515 24.621 110.926 24.7314 110.586C24.8418 110.247 25.5091 109.279 26.1967 108.453C26.9073 107.613 27.8539 106.546 28.349 106.076C28.8307 105.583 29.5643 104.731 29.9929 104.146C30.4216 103.561 31.1578 102.554 31.6058 101.897C32.0769 101.226 33.0455 99.9312 33.7755 99.0192Z" fill="#FFA9CF"/>
<path d="M6.39287 99.8998C6.28668 99.7158 6.28117 99.2285 6.388 98.8296C6.50454 98.3945 6.88106 97.9319 7.38675 97.6399C8.03036 97.2683 8.3036 97.2638 8.75297 97.6175C9.1528 97.9384 9.31565 98.2736 9.36455 98.8891C9.37977 99.3402 9.73332 101.067 10.1885 102.705C10.6075 104.333 10.9575 106.001 10.9462 106.406C10.9216 106.788 10.6548 107.494 10.3278 107.989C9.98756 108.462 9.40417 109.044 9.03639 109.256C8.59966 109.508 8.02047 109.567 7.44031 109.411C6.93267 109.275 6.45417 109.03 6.37453 108.892C6.25862 108.745 6.26185 108.007 6.38357 107.262C6.48231 106.531 6.52858 105.125 6.45832 104.154C6.41104 103.169 6.40519 101.885 6.47835 101.322C6.53824 100.735 6.49906 100.084 6.39287 99.8998Z" fill="#FFA9CF"/>
<path d="M21.1199 97.804C21.611 96.4782 22.59 94.5642 23.2669 93.5602C23.9439 92.5563 24.6509 91.6576 24.7888 91.578C24.9497 91.4851 25.4865 91.5124 25.9941 91.6484C26.5018 91.7845 27.0068 92.0754 27.1396 92.3053C27.259 92.5122 27.3973 93.2294 27.4365 93.8812C27.4792 94.5923 27.2435 95.6173 26.8521 96.4257C26.4704 97.1979 25.7741 98.2744 25.2499 98.8529C24.7621 99.4411 24.1505 100.346 23.9686 100.88C23.7733 101.391 23.3227 102.203 22.9922 102.639C22.6616 103.076 22.0378 104.171 21.6402 105.075C21.2427 105.979 20.8247 106.742 20.7328 106.795C20.6178 106.861 20.3041 107.379 20.0302 107.967C19.5929 108.802 19.3242 109.08 18.6929 109.26C18.2587 109.357 17.7679 109.304 17.6255 109.11C17.46 108.93 17.5092 108.165 17.7035 107.44C17.9207 106.702 18.3357 105.297 18.6112 104.341C18.8867 103.385 19.3778 102.059 19.6711 101.399C19.9777 100.763 20.6287 99.1298 21.1199 97.804Z" fill="#FFA9CF"/>
<path d="M5.16216 115.233C5.11522 115.045 5.60213 114.243 6.25706 113.466C6.912 112.69 7.75438 111.866 8.12216 111.654C8.47666 111.418 9.25559 111.122 9.78168 110.972C10.367 110.818 11.1541 110.854 11.6193 111.076C12.0942 111.261 12.5931 111.648 12.7427 111.96C12.9153 112.259 13.2947 112.438 13.6962 112.39C14.0384 112.346 15.0925 112.473 15.9954 112.657C17.3795 112.931 17.7359 113.123 17.9094 113.636C18.0263 113.998 18.1804 114.583 18.2381 114.949C18.3595 115.584 18.3957 115.593 19.0578 114.935C19.4282 114.568 20.0646 114.078 20.4784 113.839C20.9381 113.574 21.5173 113.515 22.1204 113.657C22.6873 113.79 23.4073 114.294 23.9665 114.891C24.4761 115.455 24.8937 116.072 24.9177 116.273C24.9284 116.451 25.3716 116.9 26.854 117.822L28.3012 116.772C29.1348 116.198 30.2744 115.571 30.8695 115.381C31.4875 115.177 32.2276 115.026 32.5141 115.044C32.9554 115.066 33.3788 114.79 34.3688 113.851C35.0901 113.189 36.379 112.077 37.2285 111.372C38.0913 110.69 39.1768 109.757 39.6391 109.337C40.1244 108.903 40.8528 108.36 41.2436 108.135C41.6441 107.873 42.3612 107.735 42.8157 107.779C43.2702 107.823 43.8973 108.166 44.215 108.504C44.6086 108.92 44.868 109.475 44.9434 110.137C45.0321 110.821 44.8573 111.474 44.3536 112.194C43.7456 113.158 43.3221 113.433 39.5161 115.6C37.2273 116.891 34.9578 118.109 34.4812 118.292C33.8305 118.545 33.5485 118.8 33.4126 119.308C33.2863 119.779 32.847 120.186 31.7242 120.896C30.8967 121.374 29.6662 122.268 28.9873 122.844C28.3084 123.42 26.5006 124.801 22.2016 127.865L22.344 130.235C22.4454 131.526 22.5626 132.684 22.6422 132.822C22.7219 132.96 23.2525 133.083 23.8255 133.12C24.3756 133.17 25.9047 133.483 27.21 133.833C28.7692 134.251 29.8233 134.378 30.3229 134.181C30.7305 134.038 31.9384 133.954 32.9757 133.999C34.0722 134.04 35.1564 134.272 35.543 134.57C35.9526 134.855 36.3534 135.39 36.4968 135.798C36.6269 136.182 36.6007 136.933 36.455 137.477C36.1893 138.397 36.0646 138.5 34.4812 139.26C33.5582 139.732 32.3318 140.103 31.7623 140.125C31.1929 140.147 30.1786 140.089 29.5294 139.973L29.4739 139.964C28.8324 139.849 28.0156 139.704 27.6281 139.6C27.2292 139.493 26.696 139.525 26.4431 139.671C26.1903 139.817 24.9303 140.023 23.6269 140.101C21.7575 140.261 20.5221 140.085 17.6249 139.367C15.6076 138.845 13.2542 138.273 12.361 138.053C11.168 137.791 9.98986 137.184 7.77054 135.676C6.10937 134.55 4.26431 133.531 3.64789 133.366C3.03147 133.2 2.23278 132.773 1.86564 132.402C1.47552 132.045 0.905712 131.27 0.573862 130.696C0.225176 130.039 -0.015704 129.197 0.000798563 128.482C0.00661489 127.59 0.263664 126.92 1.05198 125.791C1.6441 124.958 2.09475 124.146 2.09734 123.992C2.06367 123.827 2.49489 123.088 3.00835 122.331C3.53152 121.539 4.06958 120.4 4.20813 119.738C4.33698 119.112 4.62121 117.905 4.84459 117.071C5.05825 116.274 5.20911 115.42 5.16216 115.233Z" fill="#FFA9CF"/>
</g>
<g opacity="0.4">
<path d="M66.1977 180.833C65.328 180.053 64.4334 179.263 64.1787 179.111C63.9488 178.968 63.5015 178.801 63.1846 178.738C62.8833 178.71 62.2837 178.797 61.8487 178.975C61.4138 179.152 61.0037 179.565 60.8545 179.963C60.7053 180.36 60.6089 180.92 60.6555 181.249C60.6772 181.569 61.0809 182.231 61.5251 182.709C61.9693 183.188 63.7584 184.766 65.5196 186.192C67.2964 187.653 69.0048 188.917 69.3527 189.048C69.7006 189.178 70.4182 189.759 70.9835 190.368C71.5239 190.968 72.5738 191.872 73.2696 192.36C74.5059 193.221 74.6302 193.267 75.6274 193.103C76.4973 192.975 76.7396 192.783 76.9914 192.111C77.184 191.673 77.181 191.077 77.0164 190.76C76.8518 190.443 76.0349 189.598 75.2211 188.896C74.3824 188.184 73.2735 187.286 72.7082 186.904C72.1522 186.497 71.2886 185.776 70.7699 185.27C70.2512 184.763 69.3597 183.89 68.8099 183.315C68.2353 182.731 67.0674 181.612 66.1977 180.833Z" fill="#FFA9CF"/>
<path d="M93.354 177.21C93.4286 177.011 93.3541 176.53 93.1833 176.154C92.997 175.744 92.5497 175.349 92.003 175.144C91.3071 174.883 91.0368 174.923 90.6516 175.346C90.3098 175.728 90.2041 176.085 90.2568 176.701C90.3158 177.148 90.2503 178.91 90.0698 180.6C89.9236 182.275 89.8518 183.978 89.9295 184.375C90.0164 184.748 90.3953 185.401 90.7991 185.836C91.2122 186.246 91.8831 186.724 92.2808 186.873C92.7529 187.051 93.3339 187.013 93.8807 186.765C94.3591 186.547 94.791 186.227 94.8469 186.078C94.937 185.913 94.8129 185.186 94.5707 184.472C94.3533 183.766 94.0771 182.387 93.9871 181.417C93.8723 180.439 93.6675 179.171 93.5029 178.627C93.3477 178.059 93.2794 177.409 93.354 177.21Z" fill="#FFA9CF"/>
<path d="M78.4827 177.558C77.7808 176.331 76.5012 174.603 75.6687 173.724C74.8363 172.845 73.9914 172.074 73.8423 172.018C73.6684 171.953 73.1433 172.068 72.6649 172.285C72.1864 172.503 71.7359 172.873 71.6427 173.121C71.5588 173.345 71.54 174.075 71.6083 174.725C71.6827 175.433 72.0833 176.405 72.602 177.139C73.1052 177.838 73.9687 178.786 74.5806 179.27C75.1583 179.77 75.91 180.563 76.1771 181.06C76.4535 181.532 77.0312 182.259 77.4288 182.635C77.8264 183.011 78.6215 183.99 79.1619 184.816C79.7024 185.643 80.2397 186.327 80.3391 186.364C80.4634 186.41 80.8578 186.87 81.2243 187.405C81.7927 188.157 82.1033 188.387 82.7557 188.461C83.1999 188.486 83.6753 188.352 83.784 188.138C83.9177 187.933 83.7438 187.187 83.4332 186.504C83.0978 185.811 82.4581 184.493 82.0295 183.595C81.6009 182.697 80.899 181.47 80.5015 180.867C80.0946 180.289 79.1846 178.786 78.4827 177.558Z" fill="#FFA9CF"/>
<path d="M97.0827 192.134C97.0983 191.941 96.4864 191.23 95.713 190.571C94.9395 189.912 93.9735 189.238 93.5759 189.089C93.1876 188.915 92.3706 188.75 91.8269 188.688C91.2242 188.632 90.4538 188.797 90.0312 189.092C89.5932 189.353 89.1644 189.816 89.068 190.148C88.9468 190.471 88.602 190.711 88.1981 190.729C87.8533 190.742 86.8343 191.04 85.9737 191.369C84.6533 191.867 84.3333 192.115 84.2462 192.65C84.1903 193.025 84.1342 193.628 84.1373 193.998C84.1217 194.644 84.0875 194.66 83.3265 194.119C82.9009 193.818 82.1927 193.439 81.7453 193.271C81.2483 193.085 80.6674 193.122 80.0957 193.361C79.5582 193.585 78.9306 194.2 78.477 194.88C78.0668 195.52 77.756 196.198 77.7653 196.4C77.7839 196.577 77.4204 197.093 76.1092 198.245L74.5095 197.447C73.5931 197.018 72.366 196.586 71.7478 196.496C71.1048 196.397 70.3499 196.369 70.0703 196.434C69.6385 196.527 69.1756 196.325 68.0449 195.561C67.2249 195.026 65.7711 194.141 64.8175 193.585C63.8545 193.053 62.6306 192.311 62.1057 191.972C61.5559 191.624 60.7482 191.208 60.3257 191.049C59.8877 190.857 59.1577 190.838 58.7165 190.956C58.2754 191.074 57.713 191.515 57.4551 191.901C57.1351 192.376 56.9703 192.966 57.0044 193.631C57.0292 194.321 57.3087 194.936 57.9237 195.564C58.6815 196.415 59.1444 196.617 63.2542 198.13C65.7238 199.028 68.1623 199.858 68.6625 199.961C69.3459 200.103 69.6658 200.309 69.8832 200.787C70.0851 201.231 70.5852 201.561 71.8091 202.076C72.7038 202.412 74.0643 203.093 74.8285 203.549C75.5926 204.006 77.6024 205.072 82.3459 207.39L82.594 209.751C82.7057 211.041 82.78 212.203 82.7241 212.352C82.6682 212.501 82.1649 212.709 81.6056 212.84C81.0713 212.979 79.6142 213.539 78.3839 214.098C76.9144 214.766 75.8954 215.064 75.3704 214.952C74.9448 214.878 73.7394 214.993 72.7235 215.207C71.6486 215.428 70.6172 215.835 70.2847 216.192C69.9274 216.54 69.6198 217.134 69.5452 217.559C69.4799 217.96 69.6289 218.696 69.8618 219.209C70.2748 220.073 70.4146 220.154 72.1014 220.645C73.0892 220.958 74.3598 221.123 74.9252 221.052C75.4906 220.98 76.4817 220.756 77.103 220.536L77.1562 220.517C77.7702 220.299 78.5521 220.022 78.9174 219.855C79.2933 219.685 79.8245 219.629 80.0979 219.731C80.3713 219.834 81.6481 219.831 82.9466 219.694C84.8168 219.545 86.0067 219.169 88.7469 217.985C90.6514 217.14 92.8789 216.189 93.724 215.826C94.858 215.372 95.9205 214.58 97.8624 212.728C99.3165 211.345 100.969 210.037 101.55 209.773C102.131 209.509 102.849 208.956 103.151 208.53C103.477 208.114 103.912 207.256 104.145 206.635C104.381 205.929 104.481 205.059 104.347 204.357C104.195 203.478 103.832 202.86 102.869 201.875C102.148 201.151 101.57 200.424 101.543 200.271C101.549 200.104 101.002 199.445 100.372 198.783C99.7255 198.087 99.0081 197.052 98.7627 196.422C98.5329 195.825 98.0547 194.682 97.6976 193.896C97.356 193.144 97.0672 192.326 97.0827 192.134Z" fill="#FFA9CF"/>
</g>
<g opacity="0.7">
<path d="M54.466 6.7485C53.8154 5.77822 53.1431 4.79279 52.9338 4.58243C52.7463 4.38723 52.3541 4.11432 52.0624 3.97596C51.7772 3.87455 51.1747 3.81101 50.7095 3.87539C50.2443 3.93976 49.745 4.23911 49.5023 4.58776C49.2597 4.9364 49.0284 5.45464 48.9922 5.7853C48.9344 6.1008 49.1624 6.84175 49.4749 7.415C49.7874 7.98825 51.132 9.95912 52.4872 11.7756C53.8489 13.629 55.1928 15.2758 55.4978 15.4881C55.8028 15.7003 56.3549 16.4403 56.7525 17.1699C57.1284 17.8844 57.9229 19.0195 58.4769 19.6639C59.4628 20.8028 59.5718 20.8786 60.5788 20.9649C61.4532 21.056 61.7356 20.9291 62.145 20.3407C62.4398 19.9637 62.584 19.3848 62.5026 19.0371C62.4213 18.6893 61.838 17.6688 61.2225 16.7876C60.5851 15.8913 59.7319 14.7476 59.2783 14.2378C58.8398 13.7062 58.1807 12.7947 57.8029 12.1759C57.4251 11.5572 56.7764 10.4912 56.3854 9.7986C55.9725 9.0908 55.1165 7.71877 54.466 6.7485Z" fill="#FFA9CF"/>
<path d="M81.6769 9.93462C81.7982 9.7603 81.8448 9.2752 81.772 8.86873C81.6926 8.42531 81.3564 7.93259 80.8771 7.59903C80.2671 7.1745 79.9952 7.147 79.5177 7.46151C79.0922 7.7476 78.9017 8.06782 78.801 8.67704C78.7478 9.12518 78.2499 10.8164 77.6582 12.4099C77.1035 13.9969 76.6141 15.6293 76.5913 16.0339C76.5836 16.4167 76.7899 17.1425 77.0739 17.6636C77.3732 18.1629 77.9054 18.7921 78.254 19.0347C78.6679 19.3228 79.2401 19.4299 79.8313 19.3238C80.3486 19.231 80.846 19.0274 80.937 18.8966C81.065 18.7593 81.1239 18.024 81.0654 17.2718C81.0287 16.5346 81.1012 15.1295 81.253 14.1679C81.3831 13.191 81.4972 11.912 81.4718 11.3444C81.4616 10.7551 81.5556 10.1089 81.6769 9.93462Z" fill="#FFA9CF"/>
<path d="M67.1791 6.60466C66.8015 5.24216 65.9874 3.2524 65.3975 2.19496C64.8076 1.13753 64.1788 0.182411 64.0481 0.0914427C63.8956 -0.0146902 63.3584 -0.0327481 62.8411 0.0600487C62.3238 0.152848 61.7961 0.400082 61.6444 0.617984C61.5079 0.814095 61.3097 1.5171 61.2157 2.16326C61.1131 2.86817 61.2616 3.90945 61.5834 4.74799C61.8986 5.54958 62.5018 6.68092 62.9753 7.30156C63.4118 7.92883 63.9449 8.88204 64.0811 9.42969C64.2326 9.95555 64.6131 10.8026 64.9057 11.265C65.1983 11.7274 65.7276 12.872 66.0475 13.8063C66.3674 14.7405 66.7196 15.5354 66.8067 15.5961C66.9157 15.6719 67.1846 16.2148 67.4079 16.8231C67.7734 17.692 68.0177 17.9914 68.6315 18.2246C69.0559 18.3582 69.5495 18.3459 69.7078 18.165C69.8878 17.9992 69.9033 17.2336 69.7709 16.4946C69.6167 15.7404 69.3215 14.3059 69.1276 13.33C68.9337 12.3541 68.5561 10.9916 68.3195 10.3094C68.0677 9.64897 67.5566 7.96716 67.1791 6.60466Z" fill="#FFA9CF"/>
<path d="M81.6105 25.3168C81.6731 25.1339 81.2555 24.2935 80.6684 23.4644C80.0813 22.6353 79.3113 21.7436 78.9628 21.501C78.6294 21.2367 77.8782 20.8756 77.3667 20.6813C76.7964 20.4785 76.0091 20.4481 75.5268 20.63C75.0379 20.7749 74.5082 21.1178 74.3329 21.4162C74.1357 21.6995 73.7425 21.8463 73.3465 21.7648C73.0093 21.6918 71.9482 21.7296 71.033 21.8366C69.6308 21.9927 69.2594 22.1547 69.0432 22.6512C68.8962 23.0017 68.6933 23.5721 68.6051 23.9312C68.4306 24.5536 68.3936 24.5603 67.7894 23.8486C67.4513 23.4516 66.8584 22.9096 66.4663 22.6367C66.0306 22.3335 65.4584 22.2263 64.8454 22.3172C64.2694 22.4015 63.5094 22.8429 62.902 23.3905C62.3466 23.9097 61.8784 24.4895 61.8376 24.6875C61.812 24.8637 61.3325 25.2739 59.7776 26.0677L58.4241 24.8994C57.6418 24.2578 56.5591 23.5367 55.9822 23.2969C55.3836 23.042 54.6589 22.8288 54.3718 22.823C53.9303 22.8069 53.5316 22.497 52.6243 21.4775C51.9613 20.7573 50.7709 19.5406 49.9838 18.7665C49.1816 18.0141 48.1786 16.9926 47.7534 16.535C47.3064 16.0621 46.6264 15.4595 46.256 15.2017C45.879 14.907 45.1761 14.7089 44.7195 14.7145C44.2628 14.7202 43.6091 15.0091 43.2641 15.3189C42.8367 15.7007 42.5315 16.2322 42.4005 16.885C42.2544 17.5595 42.3736 18.2247 42.8148 18.9846C43.3394 19.9965 43.7381 20.3064 47.3478 22.7863C49.5197 24.2655 51.6784 25.6708 52.1378 25.8935C52.7649 26.2006 53.0244 26.4782 53.1171 26.9956C53.2031 27.4759 53.6066 27.9184 54.6655 28.7201C55.4498 29.2659 56.6006 30.2609 57.2285 30.892C57.8564 31.5231 59.5413 33.0515 63.5667 36.4675L63.2249 38.8172C63.0151 40.0944 62.8006 41.2389 62.7096 41.3696C62.6186 41.5004 62.0795 41.578 61.5054 41.5666C60.9531 41.5703 59.4031 41.753 58.0729 41.9916C56.484 42.2767 55.4229 42.3145 54.9417 42.0766C54.5477 41.8994 53.3512 41.7136 52.3138 41.6708C51.2177 41.6195 50.1177 41.7596 49.7074 42.0239C49.2753 42.2731 48.8308 42.7724 48.6535 43.1665C48.4914 43.5388 48.4542 44.2892 48.5535 44.8435C48.7408 45.7824 48.8564 45.8952 50.37 46.7869C51.25 47.3347 52.4407 47.8076 53.0063 47.8777C53.5718 47.9479 54.5874 47.9755 55.244 47.9149L55.3001 47.9097C55.949 47.8499 56.7751 47.7737 57.1701 47.7029C57.5766 47.63 58.1052 47.7068 58.3448 47.8736C58.5845 48.0403 59.8226 48.3522 61.1148 48.5399C62.964 48.8566 64.2098 48.7856 67.1573 48.3141C69.2114 47.9647 71.6046 47.5926 72.5132 47.4487C73.724 47.2887 74.9492 46.7829 77.2878 45.4671C79.0379 44.4857 80.9623 43.6256 81.5905 43.5129C82.2187 43.4002 83.0506 43.0412 83.4476 42.703C83.8665 42.3799 84.4996 41.6562 84.8787 41.1114C85.2816 40.4861 85.5926 39.6675 85.6364 38.9541C85.7058 38.0644 85.5061 37.3756 84.8159 36.1836C84.296 35.3043 83.9154 34.4572 83.9259 34.3028C83.9733 34.1417 83.606 33.3686 83.1581 32.5717C82.7036 31.7379 82.2635 30.5582 82.1813 29.8865C82.1057 29.2516 81.9241 28.0256 81.7719 27.1757C81.6262 26.3628 81.5479 25.4996 81.6105 25.3168Z" fill="#FFA9CF"/>
</g>
</svg>
