<svg width="353" height="32" viewBox="0 0 353 32" fill="none" xmlns="http://www.w3.org/2000/svg">
<path d="M320.807 30.1307C321.51 31.1378 318.835 30.1729 320.482 31.7594C320.08 31.7963 319.693 31.8374 319.297 31.8735C319.27 31.3659 319.24 30.8591 319.213 30.3515C319.749 30.2791 320.265 30.2027 320.807 30.1283C320.807 30.1291 320.807 30.1299 320.807 30.1307ZM322.331 24.0326C321.693 25.3833 320.158 25.5555 321.575 27.0741C321.766 26.6072 321.96 26.1406 322.149 25.6733C322.639 26.1207 323.158 26.5703 323.654 27.0129C323.871 26.8529 324.098 26.6937 324.319 26.5357C324.468 27.4093 324.615 28.2846 324.765 29.1597C324.556 29.0092 324.342 28.8556 324.131 28.7042C323.15 29.2762 322.324 29.3604 321.102 29.3246C321.182 29.538 321.262 29.7496 321.341 29.9629C320.77 29.5415 320.2 29.1174 319.639 28.6933C320.216 28.4363 320.857 28.1484 321.393 27.9055C320.779 26.4808 319.303 27.0205 318.551 27.1905C317.519 27.422 317.823 26.8271 317.068 26.9815C316.946 27.005 316.859 27.4934 316.629 27.4669C315.462 27.3313 313.264 26.7111 314.76 25.7788C316.621 26.2252 318.382 25.5502 320.19 26.1476C319.887 24.7534 320.921 24.4425 322.331 24.0326ZM287.149 21.4598C287.865 20.9666 288.922 21.4962 289.585 22.1235C289.586 22.1237 289.587 22.1239 289.588 22.1242C289.733 22.2623 289.912 23.1953 289.366 23.0251C288.478 22.7449 288.381 21.3212 287.686 22.1008C287.515 21.8818 287.329 21.6788 287.149 21.4598ZM285.182 21.0602C284.712 20.6017 285.203 19.6675 285.829 20.1066C285.83 20.1059 285.83 20.1051 285.83 20.1043C286.09 20.2873 285.338 20.9366 286.558 20.3898C286.615 21.062 286.683 21.6775 286.743 22.3293C286.488 22.2774 286.255 22.2375 285.991 22.1811C286.419 21.2042 285.657 21.5171 285.182 21.0602ZM313.709 26.1961C313.471 27.1151 313.835 27.1687 314.38 27.9196C313.772 27.7915 313.188 27.6632 312.584 27.5322C312.963 27.0873 313.336 26.6429 313.709 26.1961ZM327.914 28.289C327.915 28.2891 327.916 28.2892 327.916 28.2893C328.131 28.1628 328.352 28.0361 328.565 27.9108C328.649 28.259 328.732 28.6055 328.816 28.9536C329.551 28.7119 330.301 28.4684 331.039 28.218C330.851 29.2361 329.597 28.9463 328.821 29.5886C327.806 29.1702 327.375 28.5187 327.404 27.6434C327.574 27.858 327.742 28.0747 327.914 28.289ZM164.864 24.998C164.668 25.3108 164.472 25.6229 164.272 25.9347C164.6 26.0265 164.92 26.0867 165.256 26.1957C165.92 24.8562 166.138 25.9366 167.205 25.705C170.473 24.9623 169.233 23.2088 172.701 25.4472C170.297 25.7558 171.452 26.8915 170.162 28.1513C169.736 27.4343 170.872 25.4611 169.845 25.2662C168.321 26.3576 166.817 27.3611 164.987 28.1259C165.058 28.2525 165.13 28.3796 165.202 28.5061C165.492 28.3841 165.781 28.2604 166.07 28.1361C165.794 28.5364 165.519 28.9321 165.233 29.3351C165.55 28.4718 164.54 29.0575 164.57 28.1069C164.584 27.6842 164.978 27.0515 165.2 26.6202C164.47 26.4946 163.725 26.3824 162.99 26.2493C163.323 25.8784 163.652 25.5054 163.974 25.1318C164.27 25.0863 164.564 25.0429 164.858 24.9951C164.86 24.9961 164.862 24.997 164.864 24.998ZM20.7548 22.665C21.1077 21.4524 22.4854 20.7265 23.5974 21.4657C22.6453 21.8451 21.6806 22.2517 20.7548 22.665ZM327.416 26.9202C327.498 27.0957 327.577 27.2691 327.66 27.4446C327.186 27.7005 326.69 27.9504 326.217 28.2039C326.187 27.7193 326.156 27.2343 326.124 26.7514C326.551 26.8077 326.984 26.8657 327.416 26.9202ZM299.07 22.8568C299.239 22.8825 299.326 22.9008 299.426 22.9362C299.462 22.9471 299.572 22.9674 299.609 22.9769C299.7 23.005 299.802 23.0464 299.984 23.1157C299.984 23.1152 299.983 23.1147 299.983 23.1142C300.138 23.1718 301.395 23.7054 301.177 24.0371C300.627 23.9341 300.042 23.814 299.464 23.6964C299.422 23.6855 299.293 23.6619 299.252 23.6493C299.15 23.6241 299.048 23.5991 298.947 23.5744C298.984 23.3344 299.037 23.1 299.07 22.8568ZM306.908 24.6043C306.909 24.6053 306.91 24.6063 306.91 24.6072C307.137 24.7053 307.342 24.8581 307.588 24.9236C306.592 25.3319 306.649 24.286 305.785 24.425C304.921 24.5656 304.327 25.037 303.904 23.5075C304.199 23.3467 304.529 23.0989 304.836 22.9039C305.857 23.6751 306.283 23.2087 307.287 22.8222C307.161 23.4176 307.035 24.009 306.908 24.6043ZM179.947 25.1364C180.005 24.4005 180.404 25.0162 180.431 25.0183C180.431 25.0192 180.431 25.0201 180.431 25.021C182.205 23.9304 180.27 25.4622 182.114 25.1329C181.885 25.3691 181.662 25.6137 181.434 25.851C180.936 25.6208 180.424 25.3464 179.947 25.1364ZM241.253 12.8865C241.289 13.0889 241.33 13.2913 241.366 13.4937C240.292 13.5492 240.104 14.3801 239.139 13.7436C239.841 13.452 240.546 13.1656 241.252 12.8841C241.252 12.8849 241.252 12.8857 241.253 12.8865ZM294.02 20.0866C295.309 19.9998 296.215 20.0444 297.217 20.9289C297.218 20.9299 297.218 20.9309 297.219 20.9319C297.276 20.9852 296.854 21.3233 296.915 21.4493C297.167 21.4451 297.436 21.4093 297.689 21.3924C297.639 21.7337 297.588 22.0746 297.539 22.4139C296.9 22.1574 296.239 21.8956 295.595 21.6378C295.646 21.857 295.7 22.0751 295.752 22.2944C295.158 22.2556 294.569 22.2172 293.969 22.1767C294.302 21.6789 294.635 21.1809 294.967 20.6807C294.65 20.4816 294.334 20.287 294.02 20.0866ZM223.019 13.1488C223.248 13.3358 222.96 13.7666 223.288 13.9047C223.616 14.0403 224.084 13.5365 224.065 14.1802C223.686 14.3315 223.286 14.4998 222.898 14.6584C224.39 15.5507 225.505 14.3205 225.756 15.7034C224.459 15.5512 223.464 15.8957 222.34 16.4919C222.191 15.3849 223.226 14.2221 222.285 13.3251C222.527 13.2676 222.78 13.2015 223.017 13.1517C223.017 13.1508 223.018 13.1498 223.019 13.1488ZM345.483 14.1024C346.151 14.1799 347.47 13.6622 347.965 14.2458C348.088 14.3954 348.774 16.3872 348.843 16.651C349.01 17.5584 348.411 17.7838 349.163 18.2663C348.944 18.3127 348.733 18.3794 348.491 18.4254C348.607 19.0347 348.732 19.6411 348.858 20.2467C349.179 20.1107 349.465 19.9675 349.765 19.8075C349.823 20.0048 349.881 20.2024 349.94 20.3994C348.756 20.6274 349.607 21.2754 349.03 22.1052C349.719 22.396 350.431 22.6302 351.214 22.8249C350.803 22.8757 350.341 22.9446 349.991 22.9518C350.127 23.9986 350.94 23.5779 351.124 23.7297C352.249 24.6778 347.742 24.8702 347.466 26.2976C348.194 26.4289 348.98 26.5359 349.802 26.5933C349.599 26.8111 349.389 27.026 349.178 27.2374C347.812 26.6214 346.544 26.2567 345.225 25.8651C345.215 25.8646 345.185 25.8657 345.175 25.865C344.67 25.6945 344.145 25.5204 343.625 25.3206C343.456 25.3599 343.284 25.4 343.122 25.4368C343.157 25.9118 343.19 26.3848 343.226 26.8598C342.973 26.9089 342.714 26.9567 342.455 27.0044C343.256 25.4669 342.212 25.4612 341.015 24.4585C341.693 23.9383 342.487 24.2969 342.466 23.2737C340.198 23.9886 337.622 22.7324 335.393 23.4542C334.83 23.6312 334.739 24.9492 333.459 24.7211C333.514 24.5803 333.543 24.3203 333.587 24.1328C331.331 24.5742 329.935 24.8163 327.713 23.9233C327.793 24.409 327.871 24.8963 327.952 25.3817C328.458 25.2 328.989 25.0157 329.492 24.8304C329.741 25.6417 329.219 25.9385 330.684 26.0748C331.889 26.1841 331.205 25.7714 331.554 25.5716C332.023 25.2974 332.354 25.9524 332.863 25.6416C333.254 25.4029 332.907 24.7267 333.853 24.9694C333.392 25.7706 332.936 26.5985 332.467 27.407C332.246 27.1985 332.027 26.9868 331.812 26.7759C332.067 26.5748 332.323 26.3762 332.581 26.1745C331.709 26.5008 330.881 26.8034 329.977 27.1312C330.38 25.9567 329.436 26.3179 328.942 26.409C328.162 26.551 328.899 25.7927 328.387 25.8773C327.883 25.9644 327.241 26.8293 326.373 26.5286C326.91 26.0492 326.32 25.495 326.502 25.0161C326.684 24.5376 327.627 24.535 326.795 23.8939C325.018 24.0998 326.681 26.2007 325.463 26.3646C324.011 26.5599 324.05 23.4537 324.556 22.8503C324.955 22.3753 326.055 22.615 326.451 22.138C324.56 20.9674 324.306 22.7944 323.919 23.1115C322.498 24.2567 323.785 20.8775 322.15 21.9427C322.266 21.2944 322.368 20.7109 322.48 20.0892C322.21 20.1739 322.02 20.309 321.697 20.3605C322.436 21.756 321.692 21.599 321.315 21.5486C320.718 21.4697 321.553 22.2172 321.373 22.3551C320.889 22.7247 320.232 22.4336 320.572 23.052C320.421 22.7653 320.254 22.4754 320.097 22.1895C319.357 22.4154 317.285 24.8849 318.954 24.5699C318.66 25.5584 318.214 24.9973 317.834 24.7834C317.461 24.5707 317.371 25.2143 317.037 25.0423C315.702 24.352 316.795 23.3949 317.146 22.5672C315.214 22.8747 316.961 23.5533 314.242 23.5261C313.873 24.1857 314.974 25.1306 313.89 25.371C313.901 24.123 313.283 23.1271 311.898 22.4771C311.708 22.7325 311.517 22.9903 311.326 23.2453C310.722 21.9864 311.343 20.8938 309.617 22.0245C310.863 19.6056 310.021 21.1474 308.903 19.873C308.674 19.6154 309.384 19.1952 309.061 18.8597C308.917 18.7087 308.424 19.0334 308.079 18.6511C307.91 18.4628 307.152 17.3057 306.42 17.6524C306.661 18.9777 305.238 19.8008 306.101 21.0211C304.196 20.4041 302.699 20.7286 305.223 19.464C304.795 18.9955 304.367 18.5276 303.949 18.061C303.548 18.2894 303.143 18.5138 302.734 18.7376C302.879 17.7117 302.989 17.4393 301.601 17.3492C302.239 17.2274 302.862 17.0971 303.507 16.972C303.567 16.7709 303.691 16.5738 303.71 16.371C303.094 16.5587 301.776 16.4734 300.914 16.4885L300.994 16.5065C300.721 16.5005 300.499 16.5082 300.364 16.5436C299.806 16.6908 300.74 16.9963 300.535 17.2211C298.83 19.0714 299.311 17.517 298.382 17.6789C297.836 17.7757 298.954 18.2988 298.668 18.3269C297.61 18.4275 297.417 17.1755 296.556 16.9492C296.706 17.6697 296.852 18.4001 296.996 19.1254C296.09 18.8676 295.071 18.6117 294.17 18.6101C293.818 18.6093 293.951 19.1508 293.889 19.1696C293.582 19.2691 292.414 19.2591 292.296 19.2323C291.415 19.0201 291.566 18.3524 290.716 18.1051C291.068 18.132 291.391 18.1576 291.73 18.1833C292.143 17.1423 292.558 16.1023 292.972 15.0594C292.162 14.7775 291.338 14.4935 290.523 14.2102C291.041 14.7191 291.581 15.2314 292.098 15.7397C290.927 16.375 289.758 17.0126 288.586 17.6499C288.216 16.9921 287.852 16.3359 287.489 15.6801C286.098 15.4881 285.837 17.7255 285.664 15.6674C285.231 15.7317 284.789 15.7936 284.35 15.8544C284.473 15.597 284.596 15.339 284.72 15.0817C284.196 15.1302 283.676 15.1788 283.16 15.2317C283.425 16.3147 283.671 17.4467 283.946 18.5027C282.946 18.4791 283.131 17.6607 283.04 17.4228C282.807 16.7946 281.874 17.337 281.701 16.7666C281.641 16.5705 282.703 16.2609 282.533 15.5636C282.493 15.4266 281.828 12.8533 280.892 13.1825C280.806 13.5985 280.745 14.119 280.668 14.5754C279.539 14.5662 279.527 12.2847 279.811 11.7147C279.132 11.9974 278.298 11.8336 278.025 12.466C277.737 12.4138 277.434 12.3571 277.141 12.3036C277.83 10.7685 276.546 10.7716 276.141 12.1367C276.625 12.2888 277.116 12.4446 277.612 12.6002C276.829 14.2048 278.09 15.5877 275.32 13.2648C274.925 12.2384 276.366 13.6415 276.032 12.8637C275.261 12.2731 274.402 12.4087 273.722 11.5995C272.887 10.5931 274.319 10.1487 271.722 10.5725C276.341 14.2416 270.629 12.0501 268.014 12.2656C267.901 9.69562 265.992 8.45034 262.964 8.58268C263.125 9.32075 264.094 9.15848 264.566 9.49207C265.04 9.82594 264.397 10.1077 264.969 10.5606C265.537 11.0123 266.8 11.7395 267.352 12.3643C266.705 12.6175 263.81 12.9331 265.844 12.2398C264.641 11.2762 264.178 10.4545 262.528 9.98509C261.828 10.9447 261.715 11.6003 260.108 11.3228C261.353 10.0347 259.697 8.65995 260.387 7.21561C261.484 7.7895 260.565 9.14686 261.086 9.98107C261.13 10.0621 262.298 9.9097 262.528 9.98509C261.718 8.44159 261.418 7.87246 262.413 6.42936C261.608 6.41258 261.154 6.12162 260.938 6.86219C260.837 6.50381 260.735 6.14537 260.637 5.78822C260.39 5.75074 260.135 5.73523 259.865 5.68047C260.032 6.88786 259.445 6.05593 258.827 6.48369C258.218 6.91512 258.764 7.92775 257.352 7.71409C257.794 8.05749 258.158 8.35352 258.574 8.68565C257.626 8.82468 256.686 8.9795 255.761 9.15697C256.286 9.93647 257.459 11.1885 257.26 12.1011C256.913 11.684 255.475 12.0973 255.345 12.1099C254.773 12.1318 255.15 11.5888 255.11 11.5689C254.274 11.1748 253.546 11.3179 253.296 10.4124C252.834 10.6615 252.49 10.631 252.151 10.6055C251.948 10.5955 251.736 10.5839 251.504 10.5979C251.093 10.6228 251.194 11.2737 250.951 11.1577C249.33 10.3926 250.799 9.4732 247.8 11.2335C248.197 11.6676 248.587 12.1139 248.977 12.5552C248.642 12.7433 248.309 12.9333 247.975 13.1236C247.741 13.0535 247.509 12.9832 247.274 12.9141C247.221 11.9283 247.169 10.9404 247.115 9.95464C246.855 9.91612 246.594 9.87985 246.333 9.84261C246.768 9.71728 247.205 9.59375 247.642 9.47206C247.673 9.29637 247.701 9.12076 247.732 8.94509C247.059 8.71251 246.383 8.48185 245.703 8.2558C245.713 8.5993 245.724 8.94519 245.734 9.28868C244.219 8.91501 244.153 8.62922 242.823 9.68833C241.736 9.77025 240.99 11.2845 240.433 11.9472C240.191 11.7778 239.949 11.6064 239.704 11.4382C239.591 11.737 239.476 12.0349 239.364 12.3339C239.042 11.9682 238.712 11.604 238.385 11.2422C238.326 12.1566 238.278 12.4429 239.409 12.6409C239.15 13.7938 237.178 13.5157 236.346 13.2398C235.716 13.0284 236.263 12.0191 236.176 11.9152C235.88 11.5608 234.929 12.0159 234.715 11.9792C233.804 11.8271 233.193 11.9563 232.372 11.861C232.211 11.8413 231.696 11.3148 231.657 11.3017C231.357 11.2413 230.609 11.0581 230.527 11.0621C226.315 11.2484 231.121 13.1148 227.25 13.4451C227.418 13.7617 227.577 14.0777 227.742 14.395C227.457 14.4613 227.169 14.5274 226.886 14.5944C226.476 14.3739 226.835 13.7925 226.175 14.3224C226.154 13.9021 226.134 13.4815 226.116 13.0628C225.835 13.3377 225.566 13.6091 225.281 13.8857C224.533 12.5382 222.612 12.5367 222.448 10.8372C222.394 10.2577 223.624 9.44125 222.815 8.95316C222.222 8.93257 222.728 9.54718 222.5 9.62374C220.857 10.1688 220.783 9.19927 220.14 9.57816C220.106 10.007 220.068 10.4447 220.033 10.878C219.755 10.8047 219.469 10.7332 219.186 10.6615C219.176 10.9475 219.164 11.2342 219.155 11.5201C219.402 11.4932 219.68 11.4611 219.908 11.4382C219.786 12.5581 217.03 13.5725 217.945 12.4609C218.321 12.0084 219.162 12.0134 218.414 10.8523C217.677 11.1776 216.848 11.5271 216.075 11.8643C215.998 11.5989 215.922 11.3326 215.845 11.0672C214.797 11.4522 215.99 12.3415 216.1 12.9212C215.857 12.9852 215.61 13.0482 215.364 13.1131C215.208 12.8719 215.054 12.6175 214.894 12.3855C214.965 12.8042 215.018 13.7988 214.211 13.5852C213.689 13.4459 214.229 12.2465 213.351 12.5726C213.549 13.2085 214.029 13.9347 213.071 14.3441C212.834 13.6866 212.57 13.0938 212.349 12.3974C211.227 13.3009 210.448 12.3703 209.128 13.4298C208.294 14.1 207.367 16.0633 206.226 13.5716C205.529 13.6446 205.88 14.2512 205.709 14.4396C204.909 15.3289 203.932 14.2378 203.746 14.2002C203.718 14.1949 203.691 14.1899 203.664 14.1853C202.497 13.9926 202.068 14.5032 201.039 14.1367C201.199 14.6076 201.33 15.0581 201.476 15.5194C202.132 14.6318 202.577 14.5467 203.721 14.4599C203.75 14.4577 203.781 14.4555 203.812 14.4533C203.784 14.4668 203.756 14.4802 203.728 14.4937C203.38 14.6598 203.033 14.8295 202.684 14.999C202.834 15.3772 202.983 15.7558 203.129 16.1329C203.437 15.9155 203.714 15.7428 203.959 15.6088C205.992 14.5067 205.93 15.9353 204.257 17.0475C203.953 17.2534 203.594 17.4496 203.18 17.6194C202.761 16.95 202.33 16.2864 201.908 15.6174C200.392 17.1143 199.361 16.3563 197.309 16.6254C197.068 16.6577 196.314 17.2894 195.948 17.405C195.955 17.4062 195.962 17.4074 195.969 17.4085C195.912 18.1472 196.304 18.3802 196.496 18.9785C196.315 19.1058 196.136 19.2324 195.958 19.3594C195.396 19.0106 195.455 18.5893 194.605 18.9273C194.843 19.3572 195.079 19.7878 195.316 20.2181C194.361 20.4829 193.606 20.146 192.767 20.5973C192.871 20.3839 192.973 20.1705 193.078 19.9566C191.018 20.023 191.855 16.909 190.734 18.6447C190.578 18.4333 190.424 18.2188 190.269 18.0073C190.859 17.7898 191.456 17.5724 192.042 17.3564C191.966 17.019 191.892 16.6827 191.814 16.346C191.195 16.6156 190.564 16.8923 189.944 17.1626C190.355 16.8147 190.779 16.4629 191.192 16.1145C190.396 16.1527 189.602 16.1908 188.808 16.2285C189.93 17.2469 188.934 17.6699 189.449 18.8355C187.847 18.173 186.459 17.1126 184.616 18.4972C184.251 18.7717 184.69 19.5685 183.263 18.8252C183.887 20.1114 182.587 21.1133 183.094 22.3578C183.488 22.1939 183.898 22.0496 184.276 21.873C183.711 21.5393 183.329 20.3264 183.919 19.789C184.669 19.1046 186.151 19.6308 185.748 18.2793C186.11 18.2542 186.44 18.2089 186.788 18.176C186.738 18.5501 186.692 18.9256 186.644 19.2992C187.459 18.5213 188.108 18.5352 188.788 19.2679C187.703 19.7623 186.617 20.253 185.522 20.7411C185.704 20.7563 185.892 20.7704 186.074 20.7831C185.429 21.8782 186.541 22.475 184.965 23.0749C184.874 22.6732 184.781 22.2717 184.689 21.8681C184.367 23.087 182.744 23.4837 183.566 24.5847C182.98 24.3291 182.82 24.1147 182.703 24.8463C181.174 24.2292 180.058 23.239 180.185 21.7165C179.761 22.0573 179.336 22.3973 178.909 22.7355C179.277 23.0586 179.645 23.379 180.015 23.7005C179.169 23.8731 178.315 24.0431 177.468 24.2067C177.136 23.078 179.008 23.4957 178.287 22.581C178.143 22.3975 177.793 22.9395 177.649 22.85C176.123 21.8728 178.281 22.3435 177.697 21.4643C175.781 21.5769 176.913 19.6467 174.662 21.5415C174.526 21.2232 174.383 20.8991 174.253 20.5816C173.371 20.7415 173.596 21.4779 172.862 21.7702C172.399 21.9528 171.558 20.7426 171.2 21.7402C171.134 21.9227 172.331 23.3818 170.432 23.6478C168.96 23.8449 169.375 22.5931 168.524 22.3161C167.688 22.0385 166.111 23.899 165.335 22.1556C165.777 22.3405 166.315 22.3968 166.801 22.5259C166.934 22.1464 167.062 21.7713 167.19 21.3939C166.22 22.0067 165.083 21.6143 164.489 22.5441C162.951 21.4333 161.542 22.78 162.104 24.1968C162.546 23.9388 161.977 23.356 162.66 23.6932C162.762 24.0258 162.868 24.3561 162.972 24.6883C161.865 24.7674 161.099 24.8434 161.503 23.7605C161.331 23.7521 161.16 23.7431 160.988 23.7337C161.026 24.4868 161.066 25.2425 161.102 25.9957C160.902 26.0988 160.702 26.2006 160.502 26.3025C160.257 26.1568 160.013 26.0084 159.767 25.859C159.991 24.6441 160.503 24.5729 158.722 24.0308C158.744 24.4421 158.764 24.852 158.786 25.2633C157.286 24.8309 157.2 23.8419 155.388 23.9406C156.722 22.4697 157.599 24.953 157.445 22.0899C157.798 22.2596 158.155 22.4295 158.511 22.595C158.537 22.1765 158.561 21.7573 158.582 21.3389C156.809 21.6929 153.757 24.5059 152.5 22.6726C152.349 22.8932 152.197 23.0845 152.042 23.3208C150.848 22.21 150.246 24.6521 149.057 23.1808C148.939 23.0237 149.302 20.7411 147.749 20.7259C147.767 21.028 147.754 21.5334 147.761 21.9133C147.43 21.7069 147.104 21.4898 146.781 21.275C146.697 21.5465 146.611 21.8175 146.527 22.0908C147.103 22.2464 147.684 22.3972 148.265 22.5393C147.771 22.6055 147.271 22.6667 146.771 22.7228C147.378 23.2245 147.674 23.2473 147.231 23.9447C146.661 23.9475 146.095 23.9471 145.526 23.9374C145.45 24.1172 145.375 24.299 145.298 24.4786C145.521 25.0572 145.753 25.6229 145.986 26.2077C145.377 25.9676 144.797 25.7961 144.252 25.5895C143.498 25.2988 142.807 24.9426 142.216 24.2254C142.045 24.018 142.817 23.388 141.426 23.8687C141.455 23.4865 141.459 23.1737 141.482 22.8199C139.748 23.6741 139.249 23.2809 137.701 22.2703C138.679 23.1449 137.78 22.5378 137.449 22.8794C137.221 23.115 137.964 23.1858 137.84 23.4496C137.715 23.7118 136.59 24.6759 137.391 24.9318C139.739 22.9541 139.897 25.755 142.654 24.9834C142.216 25.2289 141.777 25.4733 141.338 25.7156C141.502 25.9388 141.648 26.1407 141.826 26.3775C140.426 25.7478 141.09 26.1255 140.45 26.399C139.804 26.6711 138.666 26.8174 137.922 26.8071C137.688 26.8039 138.005 26.3301 137.492 26.2065C137.138 26.1214 136.068 26.7315 135.977 25.8066C135.926 25.2057 137.701 23.8485 135.583 23.5242C135.275 22.8946 136.259 23.2293 136.29 23.1636C136.579 22.5175 135.362 21.8086 134.685 22.2266C134.629 22.2632 135.017 22.8648 134.47 22.9882C133.163 23.2815 132.554 22.559 131.91 21.6109C131.662 22.5511 130.434 23.5151 129.215 22.9327C129.1 23.1939 128.989 23.458 128.874 23.7211C129.099 23.6124 129.322 23.5053 129.546 23.3961C129.734 23.6062 129.943 23.7716 130.12 24.0108C128.783 24.0166 128.37 25.2972 127.656 25.6641C125.227 26.9146 127.16 23.6812 127.649 23.1525C127.879 23.4451 128.093 23.7637 128.323 24.0682C128.352 23.7307 128.382 23.3906 128.415 23.0515C125.253 22.4816 128.326 20.8102 126.848 19.898C126.135 21.4532 124.923 21.3886 123.635 20.0639C123.469 20.0398 123.302 20.0094 123.135 19.987C123.061 20.2191 122.99 20.5822 122.914 20.7298C121.061 20.6512 121.246 18.0776 121.126 17.8069C120.586 16.6021 119.708 17.9389 119.483 17.9056C118.535 17.7632 118.404 17.062 117.456 17.1528C116.44 17.252 116.987 17.8845 116.603 18.2667C116.296 18.5698 115.525 18.4716 115.137 18.7698C115.324 18.498 115.524 18.2347 115.711 17.9614C114.809 17.3435 114.086 16.7729 112.984 16.428C111.238 18.3311 110.974 14.4124 110.748 17.4917C111.768 17.9327 112.288 18.4029 112.694 19.2884C111.971 19.2322 111.249 19.172 110.527 19.113C110.395 18.7403 110.321 18.3891 110.154 18.0019C109.474 18.5798 108.33 18.0082 107.807 18.103C105.361 18.5476 105.771 19.888 104.201 17.4266C105.711 17.5752 105.931 16.6088 107.353 17.0753C107.197 16.3137 106.428 16.2869 107.095 15.5696C105.647 15.4504 105.929 16.2925 105.231 16.821C104.628 17.2763 103.67 17.0849 103.551 17.831C103.549 17.4048 103.566 16.9967 103.564 16.5711C102.654 16.361 101.745 16.1449 100.837 15.9305C101.325 15.6031 101.812 15.2743 102.299 14.9477C102.044 14.7191 101.79 14.4909 101.536 14.2621C101.296 14.3353 101.048 14.3718 100.798 14.3805C98.4266 14.4695 95.7789 11.951 95.5483 15.0605C94.4503 14.8798 94.4263 14.435 94.0068 13.6631C93.8771 13.8942 93.76 14.0841 93.6228 14.3433C93.0032 13.9029 92.2308 14.6976 91.6845 14.2997C91.1415 13.9049 91.2043 12.9833 90.7466 14.4452C90.4629 13.9219 90.1529 13.4699 89.8581 12.9788C89.5389 13.2588 89.218 13.5349 88.9069 13.8159C88.581 13.5512 88.2477 13.287 87.9191 13.0248C87.5552 13.6886 86.1715 13.0572 85.4247 13.4047C84.9802 12.5099 85.4873 10.0775 83.9235 10.2285C83.8468 10.8395 83.77 11.4487 83.6923 12.0595C83.3844 11.8701 83.0773 11.6829 82.7614 11.4953C82.7769 11.2943 82.795 11.0937 82.8103 10.8926C82.9721 10.9849 83.1305 11.0767 83.2898 11.1715C83.2033 10.8102 83.1177 10.451 83.0298 10.0901C82.427 10.4919 81.8201 10.8971 81.2304 11.3093C81.8575 11.799 82.4777 12.2953 83.0905 12.7969C82.1535 13.0817 81.6347 12.535 80.8128 12.9093C80.3014 11.9668 80.6119 11.522 81.0297 10.6567C80.7707 10.6942 80.5105 10.7298 80.2548 10.7698C80.5592 9.88672 80.2205 9.27162 81.6627 9.58322C81.6067 9.30757 81.5457 9.04365 81.492 8.7582C81.2464 8.75994 81.1222 8.51506 80.8446 8.57385C80.083 8.7348 79.3009 10.2576 79.2714 10.8262C79.2522 11.1229 80.0305 10.6643 79.9396 11.0759C79.7123 12.0779 78.2227 11.3858 80.32 12.747C79.4794 13.2752 79.3858 12.7634 78.5899 12.4602C78.6072 12.8072 78.6222 13.1518 78.6355 13.4984C78.279 13.289 77.9201 13.0821 77.5609 12.877C78.3378 11.2071 75.517 10.1891 78.327 8.99848C77.5594 8.81757 76.7913 8.64572 76.0224 8.47967C76.2022 8.31796 76.3793 8.15816 76.5628 7.99767C76.9083 8.13245 77.2478 8.26695 77.586 8.40269C77.2157 8.02529 76.8342 7.65116 76.4501 7.27761C75.4179 7.57471 74.9678 8.16433 74.4518 8.89359C75.5267 9.56281 75.2356 8.7596 76.1359 8.7007C76.0521 9.18471 76.0434 9.63735 75.9118 10.1411C75.5696 9.0793 74.008 9.6728 73.6664 9.69712C72.6128 9.76308 73.5113 8.83369 72.8065 8.75868C72.1048 8.68551 71.2411 9.22783 70.7161 8.21066C70.6981 8.765 70.7146 9.34037 70.729 9.84675C70.5234 9.87019 70.3645 9.86719 70.2415 9.84589C69.7135 9.75314 69.8634 9.31397 69.7763 9.24059C68.0894 7.7503 67.0615 8.84674 65.0031 8.82703C65.2483 9.01885 65.4982 9.19435 65.7474 9.376C64.1143 10.4269 65.178 10.1515 66.4888 10.6437C65.242 10.4287 64.4411 11.3683 63.5412 11.5979C62.6402 11.8249 61.1801 11.2083 60.6581 10.7781C61.9526 10.2061 63.287 10.7348 64.7066 10.6696C64.5913 10.0937 64.4734 9.60475 64.3562 8.97286C63.4079 10.0874 62.9727 9.26041 62.7005 9.08289C61.8974 8.56288 61.8621 9.58147 61.4259 8.45615C61.4226 8.83326 61.4175 9.15019 61.4154 9.50248C59.7208 9.23231 57.8676 8.50236 56.7354 9.88369C56.6453 8.97818 56.5766 8.10611 56.4633 7.18219C55.7093 7.85771 55.0815 7.16606 54.4474 7.338C53.83 7.51181 54.0857 8.23514 53.3653 8.541C53.2362 8.59747 52.9406 8.15083 52.6244 8.5035C52.2836 8.85621 51.2675 11.4455 50.9616 9.26123C50.3577 9.29408 49.7518 9.26461 49.1587 9.28471C49.72 9.1054 50.3185 8.93395 50.8845 8.76869C50.3511 8.27185 49.7973 7.78341 49.2333 7.29982C49.2131 7.77984 49.1946 8.26843 49.1785 8.74199C47.881 9.45109 46.8223 8.79598 45.4835 9.17348C45.2629 9.23764 45.9203 10.0899 44.8981 10.0012C43.8749 9.91816 42.816 8.30677 41.2282 9.30137C41.1493 9.35249 40.899 10.7711 40.1122 9.9826C39.9329 9.80384 40.4445 9.3801 40.0756 9.17262C39.7156 8.96024 38.2121 9.05203 37.9667 8.43283C38.0329 8.65761 38.1737 8.87442 38.2676 9.09732C38.0527 9.25959 37.8342 9.42357 37.6141 9.58659C37.4993 9.19038 37.3823 8.79407 37.2674 8.40002C36.0545 9.66701 35.7317 11.3494 33.5831 11.3828C34.3186 11.8055 35.0119 12.2457 35.7357 12.6799C35.7898 12.2328 35.8444 11.7831 35.8977 11.337C36.8625 11.2701 37.8668 11.2046 38.8204 11.1652C38.8747 10.6635 38.9278 10.1638 38.9847 9.6622C39.253 9.66757 39.5159 9.67311 39.7792 9.68149C39.7872 10.0329 39.7949 10.3826 39.8015 10.7345C40.2726 10.5484 40.7566 10.3615 41.2386 10.181C40.62 12.3754 38.3925 10.5995 38.8878 12.2394C38.6145 12.0291 38.3373 11.8184 38.0572 11.6089C38.1502 12.4369 37.6331 12.3099 36.8278 12.3707C37.1028 12.7236 37.385 13.0695 37.6504 13.4299C36.7736 13.0446 35.4168 13.4423 34.5925 13.4324C34.2226 13.4294 34.4142 12.7582 34.2934 12.7172C33.6609 12.5021 32.9341 13.787 32.7061 13.7655C31.3096 13.6449 29.9446 11.9749 28.9324 13.6489C30.4454 13.529 29.6367 13.6313 30.3474 14.1771C30.5722 14.3476 32.5114 14.2736 30.1842 14.7389C29.9967 14.7759 28.2171 14.7534 27.0852 14.4257C26.4094 14.2229 26.0015 13.8912 26.3995 13.3464C25.8228 13.8837 25.4259 14.4232 24.9271 14.9681C22.5332 12.8617 23.8988 15.1457 24.8038 16.3469C24.561 16.4373 24.3355 16.5315 24.089 16.6186C24.1255 15.0045 21.3636 15.8968 20.7461 16.9713C20.5351 17.3258 21.5592 17.44 20.9432 17.9276C20.5724 17.9611 20.1585 17.9808 19.7592 18.0181C20.6244 18.6912 19.7804 19.4365 20.1772 20.322C19.2369 19.7811 18.0176 18.3203 17.9702 17.2589C17.6114 17.8521 17.2404 18.4576 16.9024 19.0592C17.2423 19.1549 17.5676 19.2569 17.9013 19.3588C15.9575 19.5513 14.5267 21.8674 13.2256 20.2703C13.0134 20.4032 12.8026 20.5352 12.5996 20.6672C12.7023 21.004 12.8086 21.3398 12.9146 21.6751C11.8218 21.9596 10.7329 22.2839 9.65167 22.669C10.3441 21.9382 10.2902 21.3906 11.3894 21.1811C10.8469 21.0481 10.2733 20.9387 9.72285 20.8249C8.9559 22.623 9.20773 23.2419 7.20283 24.4885C7.11268 24.5241 5.1898 25.0976 5.08001 25.1111C4.59286 25.0415 4.49024 24.3201 4.25573 24.2728C3.60128 24.0752 0.897705 25.1035 0.752065 25.0036C-1.19551 22.5555 5.77526 16.3231 7.62492 15.4119C13.1895 11.5635 19.0187 9.22392 24.8433 7.36507C38.3339 2.78778 55.0413 1.5231 68.7206 3.19588C68.9127 3.20374 68.8544 2.81276 68.9369 2.80162C69.4475 2.73805 69.9011 3.36619 70.0846 3.40063C70.4737 3.4718 70.2885 2.91032 70.5685 2.91896C70.5699 2.919 70.5713 2.91905 70.5727 2.91912C74.0279 3.09078 77.2354 3.73724 80.6462 4.14626C80.8694 4.17339 80.5775 4.57925 80.9771 4.56025C81.1823 4.54761 81.9145 3.97094 82.371 4.03624C83.9576 4.2638 85.2373 4.72459 86.876 5.05148C87.7756 5.22989 89.0977 5.57996 90.0834 5.80017C90.5247 5.8984 91.0418 5.70037 91.4772 5.79507C92.0875 5.92844 91.8101 6.51306 91.8941 6.57402C92.2622 6.84162 92.4856 6.18123 92.8653 6.29332C93.5768 6.5068 93.498 6.96508 94.4064 7.15901C95.0579 7.29693 96.6046 7.32685 97.4181 7.43237C98.8205 8.2639 100.643 8.68198 102.121 8.89667C102.46 8.94837 102.788 8.9936 103.096 9.0352C104.131 9.17424 104.075 9.8278 104.488 9.9237C105.945 10.2555 107.237 9.70459 108.608 9.99189C110.427 10.3733 111.913 11.2694 113.666 11.695C113.949 11.7636 114.011 11.1677 114.294 11.2142C115.343 11.3865 116.687 11.565 117.593 11.8436C118.6 12.152 118.806 13.0778 119.847 13.1139C120.154 13.124 120.394 12.4002 120.908 12.4062C121.725 12.4176 122.461 13.2475 122.998 13.4307C123.736 13.6789 123.23 12.792 124.225 13.0944C124.266 13.1069 124.313 13.6784 124.537 13.6956C125.192 13.7476 125.206 13.3083 126.134 13.5293C126.223 13.5527 127.359 14.304 127.483 14.3291C128.205 14.4742 129.627 14.9228 130.078 14.8901C131.679 14.7737 130.614 13.7409 131.607 15.7454C132.253 15.4115 132.904 15.0707 133.577 14.7505C133.104 15.0759 134.656 15.9222 134.774 15.9026C135.781 15.7633 135.323 14.9799 136.511 15.2872C134.657 16.631 138.043 15.7431 138.739 15.7989C141.014 16.0009 143.101 16.4151 145.209 16.7467C146.219 16.9068 147.237 17.037 148.304 17.101C149.378 17.1665 150.831 16.8798 151.969 16.9002C152.235 16.9037 152.03 17.2847 152.264 17.2952C152.498 17.3026 152.242 16.8708 152.508 16.8952C154.157 17.0512 155.51 17.8257 156.994 16.7354C157.076 16.878 157.079 16.9938 157.212 17.148C158.403 16.1829 160.914 17.1947 161.861 17.2551C163.333 17.357 163.623 16.6979 164.685 16.6822C166.081 16.6657 168.364 17.5066 167.12 15.7012C168.057 15.4891 168.959 15.3168 169.954 15.3219C170.064 15.3229 170.082 15.8315 170.126 15.8338C170.411 15.8548 170.417 15.3951 170.596 15.3405C171.081 15.192 170.372 15.8758 171.052 15.5932C171.411 15.4416 171.55 15.0169 172.584 14.7995C178.834 13.4972 185.719 11.7576 192.486 10.062C192.952 9.94555 192.524 9.55327 193.115 9.43289C195.166 9.00941 199.057 8.89959 200.86 8.39933C201.762 8.14475 202.074 7.87206 202.297 7.59197C202.503 7.31481 202.621 7.03163 203.137 6.77188C203.336 6.67127 203.245 7.10453 203.438 7.07082C204.717 6.84318 206.371 7.14568 207.437 7.02333C208.134 6.9449 207.952 6.33079 208.423 6.18747C209.12 5.97691 209.992 6.45771 210.373 6.40177C212.187 6.12792 213.324 5.37303 215.062 5.30679C214.97 5.18161 214.901 5.06236 214.819 4.93727C216.824 4.57295 218.835 4.22171 220.857 3.8878C220.74 3.77821 220.626 3.66703 220.508 3.55548C222.894 3.20715 222.856 4.63139 222.152 1.77072C222.308 1.63899 222.472 1.4893 222.623 1.36719C222.812 2.8702 224.433 3.71477 226.322 3.8061C226.462 3.81291 227.136 2.21503 227.304 3.95272C227.474 3.49504 227.571 3.18297 227.714 2.7821C228.186 3.24408 228.653 3.70119 229.118 4.16383C229.316 4.05514 229.518 3.94893 229.717 3.84063C229.699 3.49812 229.624 3.15066 229.644 2.80899C230.611 2.61434 232.68 2.75913 233.449 2.6189C235.358 2.26225 237.235 1.12012 238.851 1.95842C239.576 1.78292 238.777 1.18839 239.885 1.1649C240.041 1.49071 240.189 1.80335 240.35 2.1393C241.104 0.546077 241.383 1.44554 242.637 1.65873C243.488 1.80521 244.003 1.39453 244.805 1.41064C245.008 1.41519 245.01 1.86122 245.147 1.83738C245.602 1.75893 246.885 1.06694 247.213 1.03359C248.857 0.852974 250.383 0.773735 251.904 0.764579C253.757 0.756442 255.094 0.969954 256.471 1.20902C256.808 1.26902 256.426 0.776777 256.772 0.840508C257.304 0.941163 256.898 1.5675 257.204 1.64317C258.067 1.85719 258.169 1.15076 259.347 1.30647C263.217 1.83435 267.208 3.25999 270.925 4.15432C271.039 4.18043 271.125 3.77236 271.251 3.79688C272.073 3.9641 272.782 4.70681 273.525 4.87399C274.762 5.15451 275.825 4.80379 277.033 5.09362C279.404 5.66113 281.443 6.46369 283.865 7.07083C285.854 7.57074 287.576 7.93551 289.75 8.47119C293.884 9.48986 298.09 10.2682 302.321 11.0693L302.017 11.0017C307.44 11.7958 312.857 12.5277 318.124 13.7417C318.363 13.7975 318.209 14.1464 318.285 14.142C319.011 14.0918 319.143 13.6084 319.236 14.675C320.164 14.606 320.545 13.8719 321.617 14.0809C322.185 14.1903 321.589 15.3316 322.642 14.8462C323.6 14.4046 322.713 13.6224 325.222 14.632C325.284 14.6587 325.537 15.4358 326.101 15.3115C326.667 15.1885 326.095 14.5878 327.425 14.5857C330.518 14.5776 334.315 15.5905 337.858 15.6153C338.084 15.6206 340.23 15.3454 340.651 15.1786C341.48 14.8613 341.323 14.3064 342.376 14.2107C343.181 14.1351 343.829 14.776 344.777 14.6698C344.86 14.6599 344.992 14.2999 345.345 14.1603L345.078 14.16C345.191 14.1103 345.318 14.0844 345.483 14.1024ZM161.254 26.6389C161.098 27.2819 160.906 29.6254 159.519 29.0216C159.392 28.9644 159.946 27.3319 159.207 27.131C159.9 26.9148 160.575 26.806 161.254 26.6365C161.254 26.6373 161.254 26.6381 161.254 26.6389ZM352.203 28.1459C351.126 28.2903 349.757 28.3829 348.681 28.3482C349.414 28.0072 350.19 27.6326 350.924 27.2059C351.354 27.527 351.797 27.8345 352.203 28.1459ZM235.424 13.0324C235.425 13.0323 235.426 13.0322 235.427 13.0321C234.494 13.4494 233.564 13.8739 232.639 14.3034C232.71 14.0719 232.782 13.8395 232.855 13.6081C233.57 13.1608 234.296 12.7165 235.017 12.2767C235.153 12.5285 235.289 12.7803 235.424 13.0324ZM242.897 9.90745C243.547 10.1148 243.429 10.5662 243.807 10.9655C243.807 10.9647 243.807 10.9639 243.807 10.9631C243.907 11.0669 244.335 11.1313 244.5 11.1357C244.419 10.8657 244.32 10.6007 244.234 10.3333C245.663 9.55343 248.631 11.7384 245.047 12.9358C245.076 12.5851 245.103 12.2363 245.133 11.8856C243.325 12.1124 241.215 11.552 242.897 9.90745ZM145.75 27.7226C145.002 28.1452 144.459 28.4141 143.935 28.5076C143.259 28.6353 142.607 28.4496 141.533 27.8651C141.845 27.5789 142.171 27.2938 142.484 27.0063C142.766 27.3715 143.05 27.7336 143.342 28.0978C143.343 28.0979 143.344 28.098 143.345 28.0981C143.449 27.7621 143.553 27.4253 143.653 27.0887C143.794 27.1337 143.935 27.1784 144.075 27.2228C144.632 27.3956 145.192 27.5622 145.75 27.7226ZM302.068 21.0401C302.075 23.358 302.194 22.0362 300.85 22.2926C300.381 22.3808 300.727 22.8553 300.443 22.8663C300.107 22.8802 299.852 22.8175 299.664 22.704C299.629 22.6951 299.526 22.676 299.492 22.6658C298.847 22.2363 299.086 21.1987 299.484 20.6585C299.642 20.6866 299.801 20.715 299.961 20.7436C299.979 20.7492 300.035 20.7595 300.054 20.7643C300.736 20.8585 301.412 20.9522 302.066 21.0395C302.066 21.0397 302.067 21.0399 302.068 21.0401ZM340.301 25.6223C340.302 25.6224 340.303 25.6224 340.304 25.6224C340.318 26.1783 339.71 26.2996 340.366 26.8557C339.851 26.8305 339.323 26.8 338.81 26.7701C338.966 26.7268 339.118 26.6855 339.277 26.642C339.149 26.4447 339.029 26.2453 338.905 26.0479C338.689 26.6745 338.536 26.2956 338.005 26.051C338.111 26.7394 338.227 27.4286 338.34 28.1171C337.713 27.8786 337.084 27.6357 336.469 27.3912C336.473 27.2195 336.477 27.0474 336.481 26.8757C336.228 27.0785 335.975 27.2833 335.718 27.4848C335.668 27.2759 335.621 27.069 335.572 26.86C335.276 26.9942 334.976 27.1274 334.673 27.2618C334.625 26.7602 335.268 26.5957 334.144 26.6339C334.525 26.1536 334.908 25.6741 335.291 25.192C336.958 25.3576 338.629 25.5026 340.301 25.6223ZM290.578 19.0391C292.374 19.3822 291.788 19.6085 291.11 20.6013C290.934 20.0809 290.759 19.5609 290.578 19.0391ZM199.082 17.9613C198.756 18.8313 198.422 19.6972 198.086 20.5455C197.162 21.219 195.772 20.1324 196.417 19.4004C197.203 18.5205 198.362 18.989 199.082 17.9613ZM175.176 24.2511C176.564 24.3241 175.516 25.477 175.32 26.0598C174.779 25.2982 174.288 25.4761 173.445 25.5392C174.211 25.3344 174.945 24.2375 175.175 24.2487C175.175 24.2495 175.176 24.2503 175.176 24.2511ZM219.985 14.5133C220.502 14.3945 220.974 14.0904 221.485 14.2631C221.474 15.0108 220.433 14.5213 221.287 15.4723C220.961 15.5504 220.636 15.6283 220.31 15.7095C220.437 15.2274 220.095 14.9478 219.987 14.5155C219.986 14.5148 219.985 14.5141 219.985 14.5133ZM273.18 15.7009C272.357 14.6131 272.107 14.9362 270.938 15.2817C270.956 14.5589 272.438 13.6875 273.259 13.6136C273.232 14.3089 273.205 15.0048 273.18 15.7009ZM32.6195 16.2716C32.6138 15.3327 34.3222 14.7356 35.2629 14.7696C35.194 14.9259 35.1253 15.0841 35.057 15.2426C34.2307 15.5802 33.4384 15.9182 32.6195 16.2716ZM173.041 25.555C173.184 25.5545 173.319 25.5486 173.445 25.5392C173.31 25.5755 173.174 25.5861 173.041 25.555ZM117.738 18.7384C118.338 17.9944 117.132 17.4514 118.598 18.097C118.599 18.0962 118.599 18.0954 118.599 18.0946C119.573 18.52 119.781 18.6225 120.714 18.8793C120.156 19.8813 118.16 19.8739 120.76 20.6321C120.795 20.64 120.854 19.9889 121.258 20.1607C121.381 20.2134 121.698 20.8215 122.302 21.0993C122.496 21.1883 124.011 21.6549 121.903 21.2492C121.818 22.0088 121.554 22.7425 121.415 23.4682C120.542 23.5135 120.208 21.9246 119.329 21.7827C118.027 21.5757 117.06 22.9138 117.216 20.9251C118.398 20.6764 120.263 21.0444 120.272 22.2595C121.319 22.4853 121.815 21.5892 121.062 20.9467C117.317 20.8114 120.355 19.3317 117.033 19.4363C116.939 19.6977 116.748 19.9603 116.715 20.2176C115.95 19.0668 117.523 19.0048 117.738 18.7384ZM124.9 22.3185C124.162 22.7696 123.424 23.2239 122.683 23.6737C122.866 22.7434 123.374 21.9769 124.465 21.6433C124.609 21.8691 124.756 22.0951 124.9 22.3185ZM72.5483 11.6686C72.421 12.1759 72.1503 12.63 71.9449 13.1078C71.8729 12.9053 70.9333 12.6495 70.12 12.4202C69.0839 12.1371 68.2959 11.8552 69.6072 11.6971C69.6951 11.6861 69.8915 11.7428 70.1485 11.8161C70.8832 12.0299 72.0869 12.4198 72.5483 11.6686ZM280.367 16.6302C279.919 16.1655 279.481 15.7029 279.045 15.2416C279.888 15.2202 280.766 15.2019 281.613 15.1784C281.198 15.6623 280.788 16.1476 280.367 16.6302ZM190.358 19.2726C190.583 19.2332 190.032 20.1114 190.872 19.7748C190.342 20.3831 189.827 20.9156 189.301 21.4944C189.026 21.2199 188.749 20.9473 188.473 20.6728C188.379 20.9199 188.282 21.1665 188.187 21.4137C188.153 20.9177 188.112 20.4354 188.08 19.9302C189.415 20.6636 189.361 19.4495 190.358 19.2726ZM222.025 10.4073C222.403 11.4183 220.946 12.3178 222.519 12.2117C222.345 12.9506 221.943 13.3925 221.051 13.6171C220.859 13.3809 220.667 13.1466 220.475 12.9105C220.583 13.6164 220.4 13.9193 219.985 14.5133C219.984 14.5126 219.984 14.5119 219.983 14.5112C218.629 14.815 218.664 14.5682 218.117 13.4769C219.693 13.854 219.536 12.7938 220.415 11.9847C221.017 11.429 221.946 11.4654 222.025 10.4073ZM77.3393 12.1349C76.2065 12.9003 77.0315 13.8328 75.3361 12.6883C75.4762 12.4741 75.6173 12.2621 75.7586 12.0485C76.2846 12.0704 76.8123 12.0996 77.3393 12.1349ZM227.713 13.1426C227.34 11.5374 226.16 10.4313 226.427 13.0972C227.452 13.4824 226.754 12.0611 227.713 13.1426ZM175.095 21.6394C176.911 21.3311 176.976 23.2103 176.417 24.281C176.23 23.9761 176.043 23.6703 175.86 23.3664C175.572 23.5842 175.283 23.8017 174.992 24.0162C175.029 23.2244 175.063 22.4307 175.095 21.6394ZM259.523 9.81035C257.932 10.7123 260.882 10.7258 259.79 11.2689C258.926 11.7013 258.141 10.3658 258.642 9.70089C258.905 9.72592 259.203 9.76435 259.52 9.80986C259.521 9.81002 259.522 9.81019 259.523 9.81035ZM251.614 9.27945C251.827 10.2811 251.649 10.248 252.138 10.0645C252.231 10.0204 252.361 9.96836 252.56 9.9267C252.814 9.83237 255.146 10.524 254.247 9.39581C253.535 9.32841 252.807 9.26813 252.118 9.27301C251.95 9.27477 251.782 9.27688 251.614 9.27945ZM153.988 26.0284C153.972 25.4875 155.901 24.2435 156.156 24.528C156.156 24.5272 156.156 24.5263 156.156 24.5255C156.87 25.3186 154.791 25.5057 155.733 26.5972C153.693 25.67 153.109 28.0394 153.235 24.897C154.404 24.7507 153.857 25.4019 153.988 26.0284ZM9.94138 23.0623C9.94065 23.0628 9.93992 23.0633 9.9392 23.0638C10.0649 23.0032 11.3733 23.0984 11.4191 23.4027C10.2682 23.8786 10.1196 23.3408 9.71446 24.7093C9.49725 24.523 9.29137 24.3389 9.06708 24.1559C9.33984 23.7439 9.35219 23.318 9.94138 23.0623ZM67.6734 10.2715C68.1595 10.1635 68.9946 10.811 69.545 10.8051C67.6528 12.9774 65.7191 10.693 67.6734 10.2715ZM322.335 24.0307C322.334 24.0313 322.332 24.032 322.331 24.0326C322.332 24.0314 322.332 24.0303 322.333 24.0292C322.334 24.0297 322.335 24.0302 322.335 24.0307ZM103.561 18.2671C103.535 18.1093 103.53 17.9766 103.544 17.8642C103.546 17.8539 103.549 17.8436 103.551 17.8333C103.552 17.9754 103.554 18.1196 103.561 18.2671ZM149.853 26.1443C149.066 25.3565 151.824 24.2389 152.683 24.5165C152.621 24.8639 152.61 25.179 152.464 25.5776C151.766 24.6794 149.994 26.2818 149.853 26.1443ZM210.749 14.9203C208.649 15.3294 210.773 11.8246 211.367 14.1527C211.371 14.1992 210.801 14.9054 210.749 14.9203ZM166.937 24.8154C167.35 23.8334 166.225 23.7603 167.987 23.651C168.124 23.8683 168.262 24.0859 168.401 24.3027C167.916 24.4759 167.428 24.6478 166.937 24.8154ZM196.157 14.093C193.645 15.2503 191.388 16.7765 193.719 18.7594C193.895 18.6301 194.074 18.5027 194.25 18.3738C193.97 17.1811 194.872 17.6364 195.943 17.404C195.975 16.8936 196.54 16.6341 196.55 16.2056C196.571 15.3766 195.749 15.005 196.157 14.093ZM308.552 19.4454C308.472 19.6433 308.393 19.8425 308.313 20.0384C307.849 20.1943 307.394 20.35 306.929 20.5043C307.07 20.1222 307.211 19.7402 307.351 19.358C307.754 19.3879 308.14 19.4139 308.55 19.4437C308.551 19.4442 308.552 19.4448 308.552 19.4454ZM127.957 20.2629C127.299 22.4806 128.224 22.2238 130.132 21.3814C129.407 21.0113 128.676 20.6372 127.957 20.2629ZM239.182 7.23765C239.305 7.88207 239.427 8.52467 239.552 9.169C240.398 8.39874 240.16 7.67106 239.628 6.8546C239.478 6.982 239.331 7.10993 239.182 7.23765ZM252.607 6.10514C252.164 5.9655 252.392 6.49567 252.345 6.48452C252.236 6.45653 252.137 6.4301 252.046 6.40542C251.299 6.1883 251.069 6.03485 250.006 6.43213C249.864 6.57642 249.726 6.72795 249.585 6.87676C250.192 8.2231 250.563 7.45902 251.748 8.23039C251.527 7.76646 251.304 7.30238 251.078 6.83742C251.406 6.87684 251.733 6.91704 252.06 6.95838C252.391 6.99894 252.755 7.05409 253.077 7.11714C253.164 6.9757 253.253 6.83623 253.345 6.69604C253.098 6.49651 252.869 6.27856 252.607 6.10514ZM313.301 20.872C313.914 21.0283 314.53 21.1855 315.135 21.3369C315.212 21.0075 315.287 20.6756 315.363 20.3462C314.682 20.5243 313.992 20.6994 313.301 20.872ZM115.137 18.7698C115.063 18.8765 114.99 18.984 114.923 19.0947C114.958 18.9497 115.036 18.8472 115.137 18.7698ZM7.51103 22.5442C6.77812 22.8069 6.05475 23.612 5.42643 24.1389C6.04019 24.6985 7.41269 23.194 8.29467 23.1974C8.29253 23.009 7.81632 22.4352 7.51103 22.5442ZM177.606 21.1681C177.687 20.7171 177.766 20.2683 177.843 19.8177C178.272 19.7666 178.701 19.7166 179.131 19.6626C179.064 19.3232 178.996 18.9809 178.93 18.6415C177.19 19.5074 177.388 18.4356 176.271 17.6795C176.713 18.8425 177.157 20.0051 177.606 21.1681ZM333.295 21.2536C331.91 21.3672 331.388 21.753 332.062 22.858C332.559 22.6648 333.081 22.4718 333.576 22.2749C333.481 21.9346 333.387 21.5939 333.295 21.2536ZM90.8942 12.1384C89.6751 12.2373 89.9814 10.8794 88.69 11.375C89.2286 11.7635 89.7588 12.1571 90.2826 12.5496C90.4817 12.4115 90.6921 12.2752 90.8942 12.1384ZM146.556 19.418C146.261 19.0411 145.624 20.097 144.856 20.0105C144.562 19.9774 144.249 19.7776 143.934 19.268C143.564 19.7354 143.311 20.1929 142.977 20.6527C142.883 20.0971 142.766 19.5314 142.686 18.9812C142.685 18.9811 142.684 18.981 142.683 18.9809C141.467 19.0105 142.154 19.7803 142.056 20.3461C142.013 20.5808 141.165 20.0694 141.378 20.619C141.752 21.5668 143.632 21.2816 143.507 22.3544C142.915 21.9308 141.622 22.0649 141.903 22.8282C142.206 23.6665 143.559 22.493 144.238 23.2285C143.773 22.2645 144.151 22.0209 144.619 22.1977C145.048 22.3592 145.566 22.8636 145.63 23.5046C146.99 22.6237 145.919 22.12 144.64 22.0062C144.607 22.0033 144.575 22.0006 144.542 21.9982C144.583 21.9562 144.62 21.9169 144.653 21.8801C144.977 21.5187 144.899 21.4019 144.717 21.2958C144.51 21.1751 144.162 21.0661 144.111 20.6275C144.286 20.5467 144.532 20.5099 144.804 20.4903C145.921 20.4142 147.496 20.5945 146.556 19.418ZM207.124 11.215C206.233 11.4666 204.71 11.1887 204.271 12.1577C204.014 12.7224 205.501 12.8095 204.691 13.781C205.548 13.5245 205.688 13.1817 205.397 12.5383C205.58 12.4159 205.772 12.2935 205.951 12.1738C206.07 12.2865 206.191 12.3968 206.311 12.5093C206.358 12.21 206.406 11.9126 206.451 11.6137C206.675 11.6244 206.906 11.6335 207.128 11.6467C207.124 11.502 207.141 11.3717 207.124 11.215ZM57.811 8.21011C58.0653 8.20821 58.3262 8.20779 58.5842 8.20638C58.5616 8.03766 58.5335 7.86182 58.5064 7.68832C58.4874 7.5513 58.4682 7.41429 58.4489 7.27728C58.5892 7.76712 59.7808 8.62507 60.3186 8.13554C60.5946 7.88985 60.0485 6.92972 61.171 6.83328C60.3623 6.83203 59.6027 6.92043 58.8154 6.97002C58.896 6.69751 58.9745 6.42206 59.0561 6.14975C59.0556 6.14933 59.0552 6.1489 59.0547 6.14848C58.795 6.07617 58.5293 6.00183 58.2635 5.93178C58.1054 6.69117 57.959 7.44981 57.811 8.21011ZM238.294 6.0314C237.473 6.66343 237.217 6.97619 237.724 7.79805C237.725 7.79836 237.726 7.79866 237.727 7.79896C238.008 7.37834 238.292 6.95836 238.577 6.53884C238.484 6.36974 238.391 6.20008 238.294 6.0314ZM108.463 14.3413C105.926 17.1663 110.431 16.1052 109.906 14.8262C109.883 14.7684 108.549 14.7371 108.463 14.3413ZM174.554 20.7099C175.043 20.5807 175.53 20.4521 176.018 20.3183C175.817 19.9448 175.616 19.5725 175.418 19.1982C175.134 19.7019 174.846 20.2074 174.554 20.7099ZM327.545 19.1587C327.131 18.1954 325.84 17.7085 325.058 18.6074C325.391 18.7661 325.721 18.9238 326.048 19.0803C325.389 19.115 324.72 19.1573 324.055 19.1797C323.858 20.4332 324.708 19.8029 325.809 20.2894C325.968 20.3663 326.937 22.0676 327.456 20.9313C327.562 20.6983 326.384 20.3944 327.298 19.7864C326.942 19.689 326.625 19.6641 326.28 19.5914C326.29 19.2883 326.301 18.9849 326.31 18.6816C326.727 18.842 327.137 19.0017 327.545 19.1587ZM201.881 12.4119C200.608 12.6206 200.567 13.1547 200.508 14.0868C201.067 13.8537 201.616 13.6278 202.181 13.4009C202.08 13.0722 201.982 12.7426 201.881 12.4119ZM316.572 17.3604C315.92 17.109 316.094 17.8748 315.799 17.9682C314.696 18.3198 314.065 17.688 313.006 17.8412C313.096 17.7138 313.18 17.5944 313.267 17.4706C313.266 17.4704 313.266 17.4703 313.265 17.4701C308.568 16.0385 310.805 18.1112 313.728 18.3284C313.751 18.607 313.77 18.8854 313.795 19.1623C315.173 18.9102 316.427 18.645 316.572 17.3604ZM124.463 17.6186C124.441 17.4412 125.11 16.473 124.144 16.7989C123.149 18.2089 124.435 17.6643 124.601 18.3131C124.337 18.4158 124.067 18.513 123.804 18.6155C125.13 19.3274 125.414 18.9987 125.114 17.7694C125.091 17.6863 124.485 17.7953 124.463 17.6186ZM115.359 14.9586C114.677 17.186 116.676 16.5463 116.761 15.8272C116.522 15.7472 116.247 16.0904 116.024 15.8652C115.798 15.6392 115.845 15.095 115.359 14.9586ZM165.905 20.1111C165.851 20.1087 165.203 19.2144 165.358 19.9633C166.246 21.6676 167.387 20.3179 167.06 19.7307C166.64 19.8263 166.392 20.1373 165.905 20.1087C165.905 20.1095 165.905 20.1103 165.905 20.1111ZM335.728 19.3897C335.705 19.3241 334.433 18.8319 334.231 19.1792C334.057 19.576 333.949 20.0076 333.81 20.4216C334.574 20.0931 336.013 20.5009 335.725 19.3895C335.726 19.3895 335.727 19.3896 335.728 19.3897Z" fill="#FEEA94"/>
</svg>
