<svg width="160" height="160" viewBox="0 0 160 160" fill="none" xmlns="http://www.w3.org/2000/svg">
<g opacity="0.2">
<path d="M49.4628 143.273C32.7183 143.273 19.1445 141.328 19.1445 138.928C19.1445 137.292 25.4556 135.866 34.78 135.125C34.7576 135.499 34.7476 135.875 34.7556 136.258C34.774 137.128 34.901 138.157 35.4301 138.928C36.2685 140.371 37.9879 140.715 39.4945 140.715C39.5084 140.715 39.5224 140.715 39.5363 140.715C40.1605 140.717 41.0282 140.717 41.9511 140.717C42.3616 140.717 42.7826 140.717 43.1986 140.717C43.6224 140.717 44.0406 140.717 44.4364 140.717C45.0619 140.717 45.6322 140.717 46.0783 140.717C46.1754 140.72 46.2696 140.721 46.3632 140.721C50.644 140.721 51.6521 138.127 51.1564 134.589C51.3665 134.591 51.5746 134.593 51.7826 134.595C51.8056 135.166 51.8482 135.661 51.9146 136.06C52.4256 139.131 54.5967 140.755 58.1934 140.755H66.288C67.7337 140.755 68.8291 140.304 69.5439 139.414C70.4298 138.311 70.4927 136.764 70.2763 135.768C76.1292 136.56 79.781 137.683 79.781 138.928C79.781 141.328 66.207 143.273 49.4628 143.273Z" fill="#1E1E1E"/>
</g>
<path d="M93.5912 83.1038C93.3146 83.5588 92.9974 84.0125 92.6404 84.4659C87.9812 90.3833 73.4793 98.8735 57.942 96.0139C56.9099 95.8245 55.8738 95.5834 54.8346 95.2898L53.2031 79.7984C74.2284 83.0197 79.8097 74.9375 83.6615 72.7267C87.1882 70.3788 90.887 71.0769 93.2405 73.3715C95.5064 75.5831 95.8969 79.3313 93.5912 83.1038Z" fill="#FFAD40"/>
<path d="M53.2031 79.797L54.8346 95.2889C55.8746 95.5829 56.9099 95.8228 57.9428 96.0142C70.1838 98.2662 81.7816 93.4754 88.4293 88.4459C90.2201 87.0922 91.6531 85.7206 92.6406 84.4646C92.9976 84.0116 93.314 83.5574 93.5922 83.1025C95.8979 79.33 95.5058 75.5825 93.2399 73.3701C90.8888 71.0755 87.1892 70.379 83.6617 72.7253C82.9062 73.1605 82.0837 73.8188 81.0922 74.5759C77.0252 77.673 70.1033 82.3872 53.2031 79.797Z" fill="#FFAD40"/>
<path d="M53.2021 79.7976L53.5927 83.507L54.8344 95.2901C55.8744 95.5828 56.9097 95.8227 57.9434 96.0141C70.1843 98.2662 81.7821 93.4762 88.4289 88.446C90.2198 87.0922 91.6528 85.7205 92.641 84.4645C92.9973 84.0112 93.3145 83.5587 93.5926 83.1029C95.8975 79.3298 95.5062 75.5824 93.2395 73.3707C90.8884 71.0754 87.1888 70.3796 83.6622 72.7268C82.9066 73.1603 82.0849 73.8186 81.0919 74.5758C79.1289 76.0717 76.4989 77.9422 72.4015 79.1887C68.0141 80.5221 61.9427 81.1368 53.2021 79.7976Z" fill="#FF7F00"/>
<path d="M88.429 88.4453C90.2199 87.0916 91.6529 85.7199 92.6403 84.4639C92.9974 84.011 93.3138 83.5568 93.5919 83.1019C95.8976 79.3293 95.5055 75.5819 93.2397 73.3694C90.8885 71.0749 87.1889 70.3783 83.6614 72.7247C82.9059 73.1598 82.0834 73.8182 81.0919 74.5753C77.3564 81.2968 83.8798 88.1389 88.429 88.4453Z" fill="#8E3410"/>
<path d="M63.2833 83.6641C62.9078 83.1677 62.4337 82.5617 61.8877 81.9125C62.578 81.6814 63.265 81.4254 63.9501 81.1458C67.329 81.0257 70.1124 80.5339 72.438 79.841C69.8342 81.9791 66.6727 83.1625 63.2833 83.6641Z" fill="#D9640C"/>
<path d="M69.5666 95.5703C69.3264 94.9448 69.0699 94.3128 68.7999 93.6792C68.6948 93.4325 68.5874 93.1857 68.4785 92.939C68.9081 92.9795 69.3563 93.0103 69.8246 93.0292C70.0909 93.04 70.3623 93.0456 70.6383 93.0456C75.7281 93.0456 82.2193 91.2129 87.333 88.2528C87.4053 88.272 87.4769 88.2901 87.5485 88.3068C85.0591 90.122 81.8091 91.975 77.9102 93.4241C75.6103 94.2791 72.7741 95.105 69.5666 95.5703Z" fill="#D9640C"/>
<path d="M87.5485 88.3125C87.4769 88.2957 87.4053 88.2777 87.333 88.2585C87.8386 87.9657 88.3314 87.6617 88.8076 87.3477C88.412 87.6665 87.9923 87.9889 87.5485 88.3125Z" fill="#842C18"/>
<path d="M64.3045 97.2188C61.1703 97.2188 57.9333 96.8175 54.6644 95.8911C54.3322 95.7974 54.1395 95.4518 54.2335 95.1197C54.3275 94.7873 54.6724 94.5947 55.0053 94.6888C64.1604 97.2829 72.5142 95.4362 77.9097 93.4305C85.0871 90.7627 90.0668 86.7256 92.1497 84.0791C95.057 80.3973 95.319 76.2753 92.8029 73.8197C90.4245 71.4987 86.9716 71.2748 84.0078 73.2478C83.9959 73.2558 83.9847 73.2629 83.9728 73.2693C83.3762 73.6118 82.7135 74.1208 81.9448 74.7102C77.8317 77.866 70.9474 83.1496 53.108 80.4165C52.7671 80.3645 52.5329 80.0452 52.5855 79.7043C52.6381 79.3634 52.9551 79.1284 53.2976 79.181C70.6081 81.8327 77.2295 76.7532 81.1842 73.7185C81.9807 73.1076 82.6697 72.5787 83.3324 72.1964C86.8051 69.8953 90.8626 70.1804 93.6758 72.9252C95.0777 74.2928 95.8192 76.1973 95.7635 78.2873C95.7045 80.4762 94.7941 82.7463 93.131 84.8529C89.1445 89.9184 77.666 97.218 64.3045 97.2188Z" fill="#512717"/>
<path d="M7.9387 90.9754C7.93474 92.1842 7.64358 93.3756 7.14575 94.4771C6.70241 95.4591 6.29831 96.4222 5.94078 97.3752C4.81983 100.371 4.15775 103.277 4.16947 106.431C4.18315 109.926 5.11277 113.379 7.05603 116.287C14.5942 127.565 32.5997 126.268 40.7263 114.303C34.9161 110.911 31.7539 105.486 30.4475 98.8324C29.8875 95.9828 29.6664 92.9066 29.725 89.6707C29.9813 75.442 11.8091 68.9953 3.36876 80.4532C1.64631 82.7931 0.585938 85.6711 0.585938 88.9678C3.14813 84.3546 7.95433 85.7224 7.9387 90.9754Z" fill="#FFDAB6"/>
<path d="M30.0568 100.392C29.4963 97.5428 29.2757 94.4672 29.3343 91.2307C29.59 77.0025 11.4182 70.5553 2.97778 82.0132C2.05531 83.2661 1.32522 84.6752 0.84375 86.2189C1.25566 84.0527 2.1433 82.1154 3.36831 80.4511C11.8087 68.9932 29.9809 75.4399 29.7246 89.6686C29.666 92.9045 29.8871 95.9807 30.447 98.8303C31.7534 105.484 34.9156 110.909 40.7258 114.301C40.4338 114.731 40.1279 115.145 39.8113 115.547C34.3339 112.139 31.3236 106.843 30.0568 100.392Z" fill="white"/>
<path d="M7.14573 94.4739C7.2596 94.2205 7.3621 93.9627 7.4532 93.7011C7.33078 94.5052 7.09163 95.2914 6.75529 96.0361C6.31177 97.0183 5.90751 97.9809 5.55009 98.9343C5.22627 99.7993 4.94219 100.657 4.7002 101.516C5.0012 100.131 5.42076 98.761 5.94065 97.3717C6.29819 96.4184 6.70241 95.4557 7.14573 94.4739Z" fill="white"/>
<mask id="mask0_16216_7611" style="mask-type:luminance" maskUnits="userSpaceOnUse" x="4" y="93" width="25" height="27">
<path d="M22.2005 119.367C16.4085 119.367 10.8275 117.019 7.43529 112.145C5.97972 110.052 5.11151 107.656 4.78711 105.172C4.94695 102.203 5.72684 99.2321 7.29231 95.5975C7.87704 94.9619 8.50423 94.4393 9.17827 94.046C9.06893 96.7666 9.4458 99.1628 10.5452 101.076C11.2505 97.284 12.8144 94.7473 15.2322 93.4601C15.2126 95.821 15.5174 97.9224 16.2086 99.7095C16.4333 96.954 17.4334 94.9579 18.9428 93.4601C18.9156 95.821 19.1499 98.1079 19.7238 100.295C21.8333 98.6938 23.2783 96.4266 24.4109 93.8506C25.2595 96.1991 25.6264 99.3158 25.6901 102.917C25.0813 105.709 24.8406 108.559 25.0521 111.399C25.2455 114.385 26.2584 117.065 28.6826 118.392C26.5616 119.039 24.366 119.367 22.2005 119.367Z" fill="white"/>
</mask>
<g mask="url(#mask0_16216_7611)">
<path d="M22.2005 119.367C16.4084 119.367 10.8274 117.019 7.43516 112.145C5.97969 110.052 5.11151 107.656 4.78711 105.172C4.94696 102.203 5.72685 99.2322 7.29229 95.5975C7.87685 94.9619 8.50426 94.4394 9.17822 94.0459C9.06882 96.7666 9.4456 99.1628 10.5453 101.076C11.2503 97.2842 12.8145 94.7472 15.2324 93.4601C15.2128 95.8212 15.5173 97.9227 16.2088 99.7094C16.4333 96.954 17.4334 94.9578 18.943 93.4601C18.9156 95.8212 19.15 98.108 19.7239 100.296C21.8331 98.6938 23.2782 96.4266 24.411 93.8508C25.2596 96.1992 25.6262 99.3159 25.6899 102.917C25.0812 105.709 24.8404 108.559 25.0518 111.399C25.2453 114.385 26.2585 117.065 28.6825 118.392C26.5614 119.039 24.3661 119.367 22.2005 119.367Z" fill="#FF7F00"/>
</g>
<path d="M8.27801 88.9844C7.82304 87.2874 6.76612 86.0647 5.33298 85.6909C5.05642 85.6183 4.75797 85.5787 4.44548 85.5787C3.45972 85.5787 2.33303 85.9753 1.30762 87.0058C1.33908 86.7819 1.37599 86.5585 1.41821 86.3379C2.42105 84.8285 3.71157 84.1289 4.90264 84.1289C6.71567 84.1289 8.29881 85.7491 8.29002 88.6022C8.28964 88.7302 8.28564 88.8578 8.27801 88.9844Z" fill="#D19E8D"/>
<mask id="mask1_16216_7611" style="mask-type:luminance" maskUnits="userSpaceOnUse" x="4" y="105" width="31" height="19">
<path d="M22.3079 123.469C16.1125 123.469 10.7342 120.735 7.54346 115.961C5.73292 113.253 4.76908 109.956 4.75602 106.427C4.75442 106.007 4.76463 105.589 4.78714 105.171C5.11155 107.655 5.97975 110.051 7.43533 112.143C10.8276 117.018 16.4085 119.366 22.2005 119.366C24.366 119.366 26.5616 119.038 28.6826 118.391C29.3326 118.746 30.0836 119.005 30.9479 119.146C31.6047 119.26 32.2603 119.306 32.9107 119.306C33.3757 119.306 33.8379 119.282 34.296 119.245C34.5223 119.28 34.7538 119.312 34.9885 119.338C34.9885 119.339 34.9885 119.34 34.9885 119.342C31.3492 121.954 26.9228 123.452 22.3872 123.468C22.3603 123.468 22.3343 123.469 22.3079 123.469Z" fill="white"/>
</mask>
<g mask="url(#mask1_16216_7611)">
<path d="M22.3076 123.469C16.1125 123.469 10.7343 120.735 7.54341 115.962C5.7329 113.253 4.76906 109.956 4.75602 106.427C4.75441 106.007 4.76462 105.589 4.78714 105.171C5.11152 107.654 5.97974 110.051 7.4353 112.143C10.8274 117.018 16.4084 119.366 22.2005 119.366C24.3658 119.366 26.5615 119.038 28.6827 118.391C29.3325 118.746 30.0835 119.005 30.9479 119.146C31.6044 119.26 32.2601 119.306 32.9108 119.306C33.3756 119.306 33.8378 119.282 34.2958 119.245C34.5223 119.28 34.7539 119.312 34.9884 119.338C34.9884 119.339 34.9884 119.34 34.9884 119.342C31.3492 121.954 26.9226 123.452 22.3872 123.468C22.3601 123.468 22.3343 123.469 22.3076 123.469Z" fill="#D15F0E"/>
</g>
<path d="M4.44587 85.5803C4.75837 85.5803 5.05679 85.62 5.33335 85.6923C7.28034 86.2002 8.5331 88.2747 8.52511 90.9776C8.5211 92.2275 8.23714 93.486 7.68044 94.7182C5.61697 99.2866 4.74251 102.789 4.75644 106.428C4.76952 109.957 5.73334 113.254 7.54388 115.962C10.7346 120.735 16.1129 123.469 22.3082 123.469C22.3344 123.469 22.3607 123.469 22.3875 123.469C29.2548 123.443 35.873 120.022 39.8853 114.48C32.5401 109.903 28.9264 101.558 29.1402 89.6601C29.2537 83.3479 25.4499 77.9565 19.4487 75.9249C14.7993 74.3504 8.25756 74.8047 3.84057 80.8003C2.48334 82.6423 1.62356 84.7596 1.308 87.0076C2.33338 85.9768 3.46008 85.5803 4.44587 85.5803ZM22.3082 124.641C15.7144 124.641 9.98168 121.718 6.56944 116.613C4.63081 113.713 3.59857 110.192 3.58453 106.432C3.57007 102.615 4.47571 98.9673 6.61273 94.2355C7.10054 93.1549 7.34961 92.0576 7.3532 90.9738C7.35963 88.8227 6.45088 87.1946 5.03761 86.8265C3.64137 86.4611 2.13161 87.3917 1.09803 89.2524C0.968541 89.4855 0.697288 89.6017 0.439053 89.5348C0.180444 89.4678 0 89.2347 0 88.9679C0 85.7427 1.00192 82.6782 2.89726 80.1055C6.84498 74.7463 13.4893 72.6692 19.8244 74.8149C26.3178 77.0136 30.4345 82.8491 30.3119 89.681C30.1024 101.346 33.4659 109.158 40.5893 113.539C40.7779 113.417 41.0286 113.41 41.229 113.542C41.4963 113.718 41.5729 114.076 41.4015 114.345C41.4031 114.448 41.3779 114.553 41.3233 114.649C41.2525 114.77 41.1448 114.858 41.0222 114.904C36.8143 120.899 29.7381 124.613 22.3918 124.641C22.3639 124.641 22.3361 124.641 22.3082 124.641Z" fill="#1E1E1E"/>
<path d="M44.1748 80.2782C45.0565 82.0069 45.572 83.6108 45.8234 85.1346C48.2797 85.7217 51.0519 86.0025 54.2285 85.8633C58.0736 85.6961 61.1206 84.7899 63.3534 83.7553C61.6068 81.4305 57.5174 76.4738 54.2076 76.2259C49.632 75.8849 46.3652 77.9552 44.1748 80.2782Z" fill="#F9D3B7"/>
<path d="M41.6357 83.7374C45.031 85.2199 49.1024 86.0879 54.2293 85.8633C58.0744 85.696 61.1213 84.7899 63.3542 83.7553C61.6076 81.4305 57.5182 76.4738 54.2084 76.2259C49.6328 75.8848 46.366 77.9552 44.1756 80.2782C43.061 81.4603 42.2241 82.7094 41.6357 83.7374Z" fill="#FF9343"/>
<path d="M35.6294 107.819C35.6841 113.194 35.5201 126.923 35.6294 132.99C35.548 133.833 34.9999 136.962 35.8312 138.388C36.4439 139.441 37.2269 140.094 39.7188 140.094C41.4182 140.094 43.6841 140.094 46.3998 140.094C50.186 140.094 50.5244 137.845 50.6111 136.803C50.7493 135.135 50.2989 133.381 50.2989 133.381L51.6431 120.239L35.6294 107.819Z" fill="#FFAD40"/>
<path d="M35.8309 138.39C36.4446 139.442 37.2266 140.094 39.7185 140.094H46.4001C50.1862 140.094 50.5241 137.845 50.6108 136.804C50.749 135.136 50.2992 133.383 50.2992 133.383L50.3176 133.199L51.644 120.239L35.6286 107.819C35.6848 113.165 35.5224 126.775 35.627 132.89C35.627 132.923 35.6286 132.957 35.6286 132.99C35.5482 133.834 35.0001 136.963 35.8309 138.39Z" fill="#FFAD40"/>
<path d="M35.8309 138.39C36.4446 139.442 37.2266 140.094 39.7185 140.094H46.4001C50.1862 140.094 50.5241 137.845 50.6108 136.804C50.749 135.136 50.2992 133.383 50.2992 133.383L50.3176 133.199L51.644 120.239L35.6286 107.819C35.6848 113.165 35.5224 126.775 35.627 132.89C35.627 132.923 35.6286 132.957 35.6286 132.99C35.5482 133.834 35.0001 136.963 35.8309 138.39Z" fill="#FFAD40"/>
<mask id="mask2_16216_7611" style="mask-type:luminance" maskUnits="userSpaceOnUse" x="36" y="122" width="15" height="12">
<path d="M48.9627 133.367C48.6026 133.367 48.2394 133.333 47.9206 133.252C45.5468 132.66 43.8799 132.47 42.6103 132.47C40.9719 132.47 39.9939 132.786 39.0058 132.96C38.5897 133.034 38.1247 133.063 37.663 133.063C37.1667 133.063 36.6745 133.03 36.2504 132.981C36.212 129.751 36.212 126.394 36.2236 123.012C38.2169 122.369 40.2935 122.126 42.2955 122.126C45.4955 122.126 48.5069 122.748 50.696 123.357L49.6772 133.319C49.6772 133.32 49.6772 133.322 49.6768 133.323C49.4501 133.351 49.207 133.367 48.9627 133.367Z" fill="white"/>
</mask>
<g mask="url(#mask2_16216_7611)">
<path d="M48.9628 133.367C48.6027 133.367 48.2394 133.333 47.9203 133.252C45.5464 132.66 43.8798 132.47 42.6103 132.47C40.9717 132.47 39.9937 132.786 39.0058 132.96C38.5895 133.034 38.1244 133.063 37.6629 133.063C37.1667 133.063 36.6745 133.03 36.2505 132.981C36.212 129.751 36.212 126.394 36.2234 123.012C38.2169 122.369 40.2935 122.126 42.2953 122.126C45.4955 122.126 48.5065 122.748 50.6959 123.357L49.6768 133.319C49.6768 133.32 49.6768 133.322 49.6768 133.323C49.4497 133.351 49.207 133.367 48.9628 133.367Z" fill="#FF7F00"/>
</g>
<mask id="mask3_16216_7611" style="mask-type:luminance" maskUnits="userSpaceOnUse" x="36" y="117" width="15" height="7">
<path d="M50.6961 123.352C48.507 122.742 45.4956 122.12 42.2956 122.12C40.2935 122.12 38.2169 122.364 36.2236 123.006C36.2276 121.813 36.2328 120.616 36.2384 119.421C36.339 119.423 36.4399 119.425 36.5408 119.425C38.2061 119.425 39.8954 119.079 41.1522 118.025C41.318 117.875 41.4698 117.711 41.6071 117.537L49.8783 121.208C50.1971 121.255 50.5395 121.299 50.9023 121.338L50.6961 123.352Z" fill="white"/>
</mask>
<g mask="url(#mask3_16216_7611)">
<path d="M50.6959 123.352C48.5069 122.742 45.4954 122.12 42.2957 122.12C40.2932 122.12 38.2168 122.364 36.2236 123.006C36.2273 121.813 36.2325 120.616 36.2382 119.421C36.3388 119.423 36.4398 119.425 36.5409 119.425C38.2058 119.425 39.8952 119.079 41.1523 118.025C41.3179 117.875 41.4695 117.711 41.607 117.537L49.878 121.208C50.1969 121.255 50.5391 121.299 50.9022 121.338L50.6959 123.352Z" fill="#D9640C"/>
</g>
<path d="M53.4112 114.825C53.9355 118.63 52.3186 132.265 52.6965 136.012C53.0352 139.367 55.23 140.133 58.1936 140.133C60.193 140.133 62.0067 140.133 66.288 140.133C69.8759 140.133 69.9172 137.043 69.6624 135.891C69.2884 134.197 67.614 133.143 66.6014 132.853C70.2526 117.527 71.1188 106.448 71.1188 106.448L53.4112 114.825Z" fill="#FFAD40"/>
<path d="M52.696 136.013C53.0347 139.367 55.2295 140.133 58.1931 140.133H66.288C69.8753 140.133 69.916 137.043 69.6631 135.891C69.2878 134.199 67.6141 133.144 66.6021 132.854H66.6008C70.2513 117.528 71.1175 106.449 71.1175 106.449L53.4107 114.825C53.846 117.985 52.8044 127.922 52.6567 133.347C52.6238 134.457 52.6316 135.377 52.696 136.013Z" fill="#D9640C"/>
<mask id="mask4_16216_7611" style="mask-type:luminance" maskUnits="userSpaceOnUse" x="54" y="116" width="16" height="18">
<path d="M55.0957 133.664C54.9387 133.664 54.7829 133.662 54.6291 133.656C54.4981 131.839 54.7316 127.033 55.7028 125.479C56.4193 124.333 57.7626 123.652 62.6787 121.515C65.7289 120.189 67.8195 118.205 69.2341 116.288C68.542 120.705 67.5064 126.352 65.9929 132.705L65.9592 132.846C65.944 132.846 65.9288 132.846 65.9132 132.846C64.525 132.846 61.3078 132.895 58.8504 133.306C58.111 133.431 57.0545 133.582 55.966 133.64C55.6764 133.655 55.3844 133.664 55.0957 133.664Z" fill="white"/>
</mask>
<g mask="url(#mask4_16216_7611)">
<path d="M55.0957 133.664C54.9387 133.664 54.7828 133.662 54.6289 133.656C54.4984 131.839 54.7315 127.033 55.7025 125.479C56.4196 124.333 57.7624 123.652 62.6789 121.515C65.7288 120.189 67.8197 118.205 69.2341 116.288C68.5418 120.705 67.5061 126.352 65.9929 132.705L65.9594 132.846C65.9442 132.846 65.929 132.846 65.9131 132.846C64.5253 132.846 61.3076 132.895 58.8506 133.306C58.1108 133.431 57.0542 133.582 55.966 133.64C55.6766 133.655 55.3846 133.664 55.0957 133.664Z" fill="#FF7F00"/>
</g>
<path d="M52.6958 136.013C53.0344 139.367 55.229 140.133 58.1931 140.133H66.288C69.8757 140.133 69.9159 137.043 69.6628 135.891C69.2879 134.199 67.6136 133.145 66.6023 132.854H66.6004C66.6004 132.854 62.0729 132.77 58.8505 133.31C57.3043 133.569 54.3727 133.947 52.6569 133.347C52.6238 134.457 52.6314 135.377 52.6958 136.013Z" fill="#FFF3E9"/>
<path d="M52.6954 136.012C53.0339 139.367 55.2291 140.133 58.1931 140.133H66.2882C69.7865 140.133 69.9109 137.192 69.6807 135.98H69.6794C69.675 135.949 69.6686 135.919 69.6629 135.891C69.288 134.199 67.6137 133.144 66.6019 132.854H66.6006C66.6006 132.854 62.0727 132.77 58.8504 133.309C57.8074 133.485 56.1331 133.714 54.6291 133.659C53.9029 133.633 53.2163 133.543 52.6565 133.347C52.624 134.457 52.6316 135.376 52.6954 136.012Z" fill="#8E3410"/>
<path d="M66.2879 139.508H58.1933C55.2065 139.508 53.5554 138.314 53.1471 135.858C53.0502 135.273 53.0091 134.444 53.0078 133.452C53.4934 133.576 54.0486 133.638 54.6298 133.659C54.7146 137.229 58.2085 137.315 62.8471 137.335C62.8927 137.335 62.937 137.335 62.9826 137.335C66.2917 137.335 68.0187 136.818 69.0981 136.293C69.1804 136.928 69.1367 137.927 68.5695 138.634C68.1035 139.214 67.3356 139.508 66.2879 139.508Z" fill="#842C18"/>
<path d="M66.2872 140.758H58.1929C54.596 140.758 52.4245 139.134 51.9139 136.063C51.5701 133.994 51.8685 129.365 52.1572 124.889C52.4161 120.877 52.684 116.729 52.4394 114.958L53.6773 114.787C53.9394 116.684 53.6799 120.708 53.4042 124.969C53.1207 129.375 52.8268 133.93 53.1466 135.858C53.5554 138.314 55.2059 139.508 58.1929 139.508H66.2872C67.3356 139.508 68.1032 139.214 68.569 138.634C69.2243 137.818 69.1808 136.611 69.0517 136.026C68.739 134.61 67.2773 133.697 66.4286 133.454L65.8545 133.289L65.9927 132.708C69.5889 117.613 70.4862 106.51 70.4952 106.399L71.7409 106.497C71.7325 106.607 70.8501 117.537 67.3363 132.46C68.4743 132.964 69.9036 134.089 70.2721 135.757C70.4927 136.752 70.4336 138.309 69.5435 139.417C68.8285 140.306 67.7334 140.758 66.2872 140.758Z" fill="#1E1E1E"/>
<path d="M58.8506 133.305C61.3087 132.577 63.8879 132 66.469 132.204C66.5624 132.214 66.6396 132.222 66.7596 132.244L66.4424 133.453C66.1797 133.364 65.8631 133.3 65.5837 133.249C63.3704 132.87 61.0719 133.011 58.8506 133.305Z" fill="#1E1E1E"/>
<path d="M66.11 134.574C68.0721 136.052 67.8636 139.927 65.3441 140.742L65.0479 139.528C67.0883 139.206 67.4271 135.895 66.11 134.574Z" fill="#1E1E1E"/>
<path d="M61.8233 134.574C63.7852 136.052 63.5764 139.927 61.0571 140.742L60.7607 139.528C62.8007 139.206 63.1397 135.895 61.8233 134.574Z" fill="#1E1E1E"/>
<path d="M35.8308 138.39C36.4444 139.442 37.2265 140.094 39.7184 140.094H46.4004C50.1861 140.094 50.5241 137.845 50.6109 136.804C50.7492 135.136 50.2994 133.383 50.2994 133.383L50.3176 133.199C49.6952 133.373 48.6822 133.443 47.9204 133.251C42.4827 131.895 40.7589 132.65 39.006 132.959C37.8973 133.156 36.4429 133.036 35.627 132.89C35.627 132.923 35.6285 132.957 35.6285 132.99C35.5485 133.834 34.9999 136.963 35.8308 138.39Z" fill="#8E3410"/>
<path d="M46.3204 139.469C46.241 139.469 46.1595 139.468 46.0776 139.466C45.792 139.466 45.4565 139.467 45.0874 139.467C44.2962 139.467 43.3535 139.466 42.4345 139.465C41.5237 139.464 40.6366 139.463 39.9444 139.463C39.8057 139.463 39.6743 139.463 39.5521 139.463C38.5243 139.448 37.4832 139.319 36.8956 138.759C36.3038 138.219 36.0843 137.477 36.0234 136.686C36.6997 137.095 37.677 137.324 39.2547 137.324H46.877C48.3069 137.324 49.3053 137.043 50.0047 136.624C49.8702 138.596 48.8012 139.469 46.3204 139.469Z" fill="#842C18"/>
<path d="M36.2539 107.81C36.3015 115.955 36.1517 124.905 36.2507 133.047C36.1241 134.114 35.9785 135.165 36.0039 136.227C36.014 137.184 36.1903 138.115 36.8956 138.758C37.4834 139.318 38.5244 139.448 39.5522 139.463C40.2808 139.462 41.3404 139.463 42.4344 139.464C43.7815 139.465 45.1805 139.467 46.0775 139.465C49.334 139.536 50.303 138.219 49.9514 135.053C49.8953 134.544 49.8079 134.011 49.693 133.533C49.6745 133.461 49.6697 133.385 49.6766 133.314L51.021 120.171C51.056 119.828 51.3626 119.578 51.7062 119.614C52.0493 119.649 52.2993 119.956 52.2638 120.299L50.9199 133.441L50.9035 133.223C51.8704 137.52 51.1508 140.846 46.0769 140.715C45.3488 140.714 44.2909 140.714 43.1979 140.714C41.8445 140.715 40.437 140.715 39.5347 140.712C38.0187 140.719 36.275 140.381 35.4289 138.926C34.8999 138.155 34.7728 137.125 34.7548 136.255C34.7363 135.395 34.8104 134.565 34.9105 133.723L35.0069 132.927L35.0037 132.998C34.9184 127.174 34.9978 119.96 35.0084 114.107C35.0143 112.01 35.0212 109.911 35.0037 107.82C35.0169 107.013 36.2152 106.967 36.2539 107.81Z" fill="#1E1E1E"/>
<path d="M38.2285 133.508C41.0283 131.279 45.6065 131.807 48.4098 133.781C45.0341 133.076 41.6088 132.548 38.2285 133.508Z" fill="#1E1E1E"/>
<path d="M46.2576 134.572C46.8789 135.448 47.1363 136.54 47.1288 137.62C47.1224 138.784 46.4826 139.966 45.5069 140.633L44.8701 139.557C46.744 138.781 46.9815 136.252 46.2576 134.572Z" fill="#1E1E1E"/>
<path d="M40.7887 134.571C40.0467 135.817 40.1058 138.089 40.9546 139.248C41.0719 139.389 41.2027 139.467 41.3002 139.49L40.7429 140.609C39.0163 139.534 39.568 135.841 40.7887 134.571Z" fill="#1E1E1E"/>
<path d="M40.5403 86.0152C39.7195 92.0599 36.6312 99.2158 35.8203 103.401C34.8899 108.203 35.7047 112.759 37.1475 115.564L49.8774 121.214C56.5639 122.199 73.6223 121.923 71.638 103.224C71.1177 98.3259 67.7929 90.514 64.2086 84.9454C64.2086 84.9454 58.5377 76.5546 54.2079 76.231C44.3227 75.4921 40.5403 86.0152 40.5403 86.0152Z" fill="#FFAD40"/>
<path d="M37.1473 115.564L49.8788 121.214C55.664 122.066 69.2213 121.974 71.4755 109.811C71.827 107.921 71.9057 105.739 71.6379 103.224C71.1181 98.3253 67.7931 90.5141 64.2094 84.9453C64.2094 84.9453 58.5387 76.5544 54.2078 76.2308C49.6325 75.8897 46.3653 77.9599 44.1755 80.283C41.6322 82.9783 40.5405 86.0161 40.5405 86.0161C39.7198 92.0606 36.632 99.2152 35.8204 103.402C34.8892 108.204 35.706 112.76 37.1473 115.564Z" fill="#FFAD40"/>
<path d="M37.1473 115.564L49.8788 121.214C55.664 122.066 69.2213 121.974 71.4755 109.811C71.827 107.921 71.9057 105.739 71.6379 103.224C71.1181 98.3253 67.7931 90.5141 64.2094 84.9453C64.2094 84.9453 58.5387 76.5544 54.2078 76.2308C49.6325 75.8897 46.3653 77.9599 44.1755 80.283C41.6322 82.9783 40.5405 86.0161 40.5405 86.0161C39.7198 92.0606 36.632 99.2152 35.8204 103.402C34.8892 108.204 35.706 112.76 37.1473 115.564Z" fill="#FFAD40"/>
<path d="M37.1473 115.564L49.8788 121.214C55.4866 122.04 68.4007 121.98 71.2357 110.891C71.328 110.542 71.4066 110.182 71.4755 109.811C71.827 107.921 71.9057 105.739 71.6379 103.224C71.1181 98.3254 67.7931 90.5141 64.2094 84.9454C64.2094 84.9454 58.5387 76.5545 54.2078 76.2309C49.6325 75.8898 46.3653 77.96 44.1755 80.2831C41.6322 82.9784 40.5405 86.0162 40.5405 86.0162C40.3209 87.631 39.9401 89.3257 39.4833 91.0216C38.2318 95.6725 36.415 100.334 35.8204 103.402C34.8892 108.204 35.706 112.76 37.1473 115.564Z" fill="#FF7F00"/>
<path d="M54.2416 121.523C52.5712 121.523 51.0622 121.389 49.8787 121.214L41.6068 117.543C42.831 115.989 42.9195 113.558 41.7385 111.985C41.765 111.974 41.7908 111.962 41.8173 111.951C42.4565 111.688 42.9175 111.219 43.1939 110.658C45.3931 115.114 50.8337 117.308 56.8922 117.308C57.2925 117.308 57.6948 117.298 58.0996 117.279C60.4532 117.168 62.8719 116.735 65.2074 115.982C66.0539 115.709 67.0954 115.183 68.0988 114.423C68.1013 114.421 68.1033 114.42 68.1052 114.418C69.1577 113.619 70.1682 112.561 70.8662 111.266C70.9953 111.142 71.118 111.018 71.2362 110.891C68.9989 119.64 60.4887 121.523 54.2416 121.523ZM42.113 106.653C41.5332 106.195 40.8558 105.875 40.1533 105.65C40.1604 105.474 40.1714 105.294 40.1869 105.114C40.5846 100.005 41.3769 94.8521 43.3372 90.083C43.3359 90.0837 43.3353 90.0849 43.3346 90.0862C43.3353 90.0849 43.3359 90.0837 43.3366 90.0824L43.3572 89.6278C43.5923 89.8712 43.6601 90.3432 43.5103 91.0987C42.1485 97.9817 41.4705 102.999 42.113 106.653Z" fill="#FF7F00"/>
<path d="M42.2217 107.194C43.1578 116.455 54.9799 119.274 65.2077 115.979C66.943 115.419 69.5012 113.796 70.8652 111.264C67.4062 114.592 60.171 116.953 50.9657 114.714C45.709 113.435 43.1006 111.169 42.2217 107.194Z" fill="#F9D3B7"/>
<path d="M45.8223 85.1406C45.046 84.9555 44.302 84.74 43.5859 84.4971L43.5874 84.4589C43.5908 84.4598 43.5933 84.4603 43.5967 84.4618L43.6834 82.5242C44.2124 82.6545 44.7394 82.7725 45.2654 82.8788C45.5201 83.6541 45.7023 84.4069 45.8223 85.1406Z" fill="#D9640C"/>
<path d="M65.2081 115.978C67.2569 115.318 70.45 113.176 71.476 109.808C71.8275 107.918 71.9062 105.736 71.6385 103.221C71.1186 98.3223 67.7936 90.511 64.21 84.9423C64.21 84.9423 58.5392 76.5514 54.2083 76.2278C49.633 75.8867 46.3658 77.9569 44.176 80.28C49.0372 89.8132 42.7725 95.548 42.1857 105.196C41.5261 116.04 54.2771 119.501 65.2081 115.978Z" fill="#FFDAB6"/>
<path d="M58.0996 117.273C60.4532 117.162 62.8719 116.728 65.2073 115.975C66.0542 115.703 67.096 115.177 68.0989 114.417C67.0954 115.177 66.0536 115.703 65.2073 115.976C62.8719 116.729 60.4532 117.162 58.0996 117.273Z" fill="#D4A395"/>
<path d="M68.0986 114.422C68.1011 114.42 68.103 114.419 68.1049 114.417C68.103 114.419 68.1011 114.42 68.0986 114.422Z" fill="#D4A395"/>
<path d="M56.8955 117.305C50.8359 117.305 45.3939 115.111 43.1953 110.654C43.2745 110.492 43.3388 110.322 43.3877 110.148C44.7698 112.361 47.1819 113.793 50.9658 114.713C53.4777 115.324 55.841 115.593 58.0228 115.593C63.8367 115.593 68.3503 113.684 70.8654 111.264C70.1679 112.559 69.1577 113.616 68.1058 114.415C68.1038 114.416 68.1012 114.418 68.0993 114.419C67.0962 115.18 66.0546 115.705 65.2078 115.978C62.8722 116.731 60.4536 117.165 58.1 117.276C57.6959 117.295 57.2945 117.305 56.8955 117.305Z" fill="#D9A894"/>
<path d="M52.6439 85.8984C50.119 85.8984 47.8622 85.6219 45.8235 85.1345C45.7023 84.4009 45.5207 83.6489 45.2656 82.8735C47.4859 83.3204 49.6811 83.5473 51.8446 83.5515L54.9717 85.8214C54.7274 85.8381 54.4795 85.8518 54.2286 85.8632C53.6892 85.8871 53.1612 85.8984 52.6439 85.8984ZM58.4966 85.3387C58.6805 84.466 58.8639 83.5927 59.0479 82.72C59.9988 82.4948 60.945 82.2248 61.887 81.9089C62.4682 82.6 62.9676 83.2415 63.3535 83.7552C62.0226 84.3717 60.4026 84.9427 58.4966 85.3387Z" fill="#D9A894"/>
<path d="M49.8779 121.212C56.2303 121.113 63.5551 120.795 68.0507 115.752C71.6289 111.594 71.6936 105.466 70.3983 100.368C68.9457 94.9989 66.5368 89.9968 64.209 84.943C67.8142 89.3066 70.2721 94.572 71.7372 100.026C73.6567 108.214 72.0173 117.293 63.3681 120.638C59.0951 122.26 54.256 122.485 49.8779 121.212Z" fill="#1E1E1E"/>
<path d="M40.5401 86.0139C40.364 91.7622 38.1691 97.2063 36.6959 102.693C35.9275 105.685 35.7665 108.846 36.2216 111.902C36.4032 113.15 36.7087 114.373 37.1473 115.562C36.7979 115.028 36.496 114.458 36.234 113.868C34.5691 109.966 34.4845 105.496 35.5552 101.419C36.9863 96.2669 39.2014 91.2001 40.5401 86.0139Z" fill="#1E1E1E"/>
<path d="M38.502 82.5023C39.9866 83.3528 41.6053 84.0882 43.4013 84.6562L43.6511 79.0627C42.1043 79.6869 40.3282 80.8756 38.502 82.5023Z" fill="#FF9343"/>
<path d="M39.869 86.0136C39.6929 91.7621 37.4983 97.2065 36.025 102.693C35.2566 105.685 35.0955 108.846 35.5507 111.902C35.7323 113.15 36.0377 114.373 36.4762 115.562C36.1271 115.028 35.8249 114.458 35.563 113.868C33.8981 109.965 33.8137 105.495 34.8844 101.419C36.3155 96.2669 38.5305 91.2002 39.869 86.0136Z" fill="#1E1E1E"/>
<path d="M43.3362 90.082C40.5106 95.6637 39.3875 103.987 39.5162 106.118C39.9967 106.23 40.7197 106.479 41.3718 106.894C41.4052 106.916 41.4382 106.938 41.4691 106.959C42.1746 107.43 42.7738 108.104 42.8637 109.025C43.0982 111.494 40.5106 111.666 40.5106 111.666C42.2993 112.851 42.3228 115.681 41.0964 117.192C39.5577 119.086 35.8979 118.923 34.3178 118.618C28.9826 119.1 26.3362 116.966 25.7544 112.136C25.6861 111.566 25.6392 110.996 25.6117 110.423C25.5533 109.19 25.5883 107.951 25.7055 106.721C26.9434 93.7008 37.3977 81.2727 43.8461 78.6712L43.3362 90.082Z" fill="#FF7F00"/>
<path d="M40.5111 111.666C42.3002 112.851 42.3234 115.681 41.0972 117.192C39.5583 119.086 35.8987 118.923 34.3186 118.618C28.9829 119.1 26.337 116.966 25.7552 112.136C25.6866 111.566 25.6397 110.996 25.6123 110.423C27.6593 108.408 30.5942 107.363 33.4397 106.691C35.7634 106.143 38.2479 105.775 40.5092 106.545C40.8412 106.658 41.1615 106.797 41.47 106.959C42.1753 107.43 42.7747 108.103 42.8646 109.025C43.0987 111.494 40.5111 111.666 40.5111 111.666Z" fill="#8E3410"/>
<path d="M43.5974 84.4609C43.5941 84.46 43.5912 84.459 43.5879 84.4586L43.6746 82.521C43.6775 82.5219 43.6808 82.5229 43.6837 82.5233L43.5974 84.4609Z" fill="#BC5015"/>
<path d="M43.5872 84.4531C41.9723 83.9415 40.5004 83.2946 39.1416 82.5509C39.5329 82.2043 39.9344 81.864 40.3473 81.5363C41.4611 81.9165 42.5711 82.2433 43.6738 82.5158L43.5872 84.4531Z" fill="#D9640C"/>
<path d="M36.5131 118.18C35.757 118.18 34.9958 118.095 34.2618 117.995C33.8099 118.038 33.3593 118.062 32.9158 118.062C30.7029 118.062 28.6678 117.458 27.4902 115.617C28.89 116.467 30.7104 116.672 32.1401 116.672C33.4707 116.672 34.4625 116.494 34.4625 116.494C35.0908 116.641 35.6808 116.711 36.2136 116.711C37.7861 116.711 38.8602 116.107 38.9398 115.118C39.038 113.874 37.9578 113.108 38.0944 112.122C38.2993 110.645 39.6949 110.891 40.995 110.426C41.5307 110.234 41.9386 109.907 42.2474 109.545C42.1571 110.322 41.5588 110.862 40.6642 111.013C40.6156 111.02 40.5183 111.039 40.4692 111.042C39.8825 111.072 39.6607 111.863 40.1655 112.186C40.9038 112.666 41.3113 113.597 41.3197 114.558C41.3379 116.911 39.7126 117.897 37.5835 118.116C37.2298 118.16 36.8724 118.18 36.5131 118.18Z" fill="#842C18"/>
<path d="M44.0797 79.2507C42.1541 80.0522 40.4336 81.3883 38.8774 82.7902C37.2961 84.2309 35.8554 85.8368 34.5324 87.5302C29.0542 94.5279 24.3886 105.422 26.8844 114.337C28.0105 117.662 31.0948 118.298 34.261 117.994C35.3439 118.142 36.484 118.255 37.583 118.114C39.712 117.895 41.3371 116.91 41.319 114.557C41.3105 113.596 40.9029 112.665 40.1648 112.185C39.6598 111.861 39.8819 111.071 40.4683 111.04C40.5175 111.038 40.6145 111.019 40.6632 111.012C41.8139 110.817 42.4757 109.98 42.1938 108.82C41.8858 107.674 40.4844 107.006 39.3718 106.723C39.096 106.664 38.903 106.423 38.8925 106.153C38.8241 105.382 38.8704 104.689 38.9397 103.98C39.3568 100.507 40.2824 97.0997 41.5315 93.8395C42.0381 92.5446 42.632 91.2788 43.3365 90.0814C41.3763 94.8505 40.5844 100.004 40.1864 105.112C40.1562 105.443 40.1462 105.776 40.1402 106.077L39.6608 105.507C40.8371 105.809 41.9913 106.348 42.7938 107.312C44.0123 108.76 43.644 111.199 41.8165 111.949C41.4069 112.133 40.9989 112.246 40.5507 112.288L40.8547 111.143C43.0988 112.656 43.0963 116.272 41.1512 118.03C39.2884 119.593 36.475 119.598 34.1992 119.23L34.3736 119.239C33.2505 119.335 32.1003 119.347 30.9476 119.146C26.8593 118.479 25.2966 115.184 25.0519 111.399C24.2328 100.401 30.1964 89.2573 38.0357 81.8661C39.712 80.3617 41.4979 78.9723 43.6124 78.0914L44.0797 79.2507Z" fill="#1E1E1E"/>
<path d="M40.3185 112.254C40.3291 112.244 40.2777 112.218 40.2507 112.202C40.1618 112.155 40.0444 112.114 39.9514 112.108C39.4563 112.076 39.3239 112.838 39.2734 113.226L39.2432 113.594L39.1181 113.241C38.9494 112.704 38.854 112.075 39.2139 111.582C39.5558 111.128 40.1576 110.982 40.7026 111.064L40.3185 112.254Z" fill="#1E1E1E"/>
<path d="M40.3827 107.055C39.9189 106.864 39.3888 106.733 38.8871 106.62C38.3615 106.503 37.8259 106.405 37.2861 106.323C38.09 106.135 38.9054 105.972 39.7326 105.878C40.0151 105.847 40.3007 105.823 40.6093 105.825L40.3827 107.055Z" fill="#1E1E1E"/>
<mask id="mask5_16216_7611" style="mask-type:luminance" maskUnits="userSpaceOnUse" x="19" y="18" width="62" height="48">
<path d="M28.5409 65.6016C27.7516 65.1093 26.5713 64.861 25.3037 64.6704C25.3053 64.6416 25.3045 64.6127 25.3013 64.5835C25.3005 64.5707 25.2997 64.5579 25.2981 64.5442C25.061 61.152 25.3325 57.9684 26.1295 54.8137C26.1628 54.6811 26.1452 54.541 26.0803 54.4208C23.6124 49.8711 21.4857 43.8825 20.392 38.4016C18.9041 30.9431 19.5906 25.9133 22.2267 24.9384C22.4962 24.8611 22.797 24.8227 23.129 24.8227C24.874 24.8227 27.4788 25.8876 30.8951 28.0003C33.1495 29.3936 35.8152 31.2843 38.8178 33.6205C38.9151 33.6962 39.0328 33.7354 39.1522 33.7354C39.2239 33.7354 39.2956 33.721 39.3636 33.6922C43.961 31.7477 48.7185 30.7717 53.5722 30.7717C55.6239 30.7717 57.6933 30.9463 59.7739 31.296C59.8039 31.3008 59.834 31.3032 59.864 31.3032C60.0278 31.3032 60.1836 31.2299 60.2885 31.1001C66.8403 22.9395 71.5514 18.816 74.3092 18.816C74.3477 18.816 74.3861 18.8168 74.4238 18.8184C75.3385 18.9297 76.1539 19.5041 76.848 20.5269C80.1926 25.4555 79.9447 39.304 77.4888 48.3929C77.4532 48.5251 77.4684 48.6656 77.5317 48.7866C79.0427 51.6846 80.046 54.7364 80.5975 58.1166C80.6051 58.1615 80.6179 58.2047 80.6355 58.2456C79.5245 58.7022 78.5189 59.1948 77.9009 59.8191L77.8865 59.8228C77.8757 58.7322 77.7415 57.6176 77.4784 56.4962C76.019 50.2893 71.0408 45.9987 65.7718 45.9987C65.0377 45.9987 64.2967 46.082 63.5602 46.255C57.5367 47.6728 54.0027 54.5542 55.6656 61.6262C55.6676 61.6346 55.6696 61.643 55.6716 61.6514C55.7072 61.802 55.7265 61.9522 55.7309 62.1008C55.233 61.8585 54.4228 61.7988 53.786 61.7988C53.3992 61.7988 53.076 61.8208 52.9258 61.8377C52.5853 61.8753 51.3702 62.0824 50.5924 62.4913C50.5836 62.4116 50.5792 62.3303 50.5792 62.2478C50.5792 62.239 50.5792 62.2306 50.5792 62.2217C50.5624 54.9647 45.5454 49.0918 39.366 49.0918C39.3596 49.0918 39.352 49.0918 39.3456 49.0918C33.1579 49.1066 28.1561 55.0075 28.1709 62.2726C28.1741 63.4224 28.3014 64.5378 28.5409 65.6016Z" fill="white"/>
</mask>
<g mask="url(#mask5_16216_7611)">
<path d="M28.5409 65.6016C27.7515 65.1096 26.5713 64.861 25.3037 64.6705C25.3053 64.6419 25.3045 64.6133 25.3013 64.5839C25.3005 64.5709 25.2997 64.5579 25.2981 64.5449C25.061 61.1523 25.3325 57.9684 26.1295 54.814C26.1628 54.6815 26.1451 54.5412 26.0803 54.4208C23.6124 49.8711 21.4857 43.8827 20.392 38.4019C18.9041 30.9438 19.5906 25.9133 22.2266 24.9389C22.4962 24.8619 22.797 24.8229 23.129 24.8229C24.874 24.8229 27.4788 25.8882 30.8951 28.0007C33.1494 29.3934 35.8152 31.285 38.8178 33.6209C38.915 33.6963 39.0328 33.7353 39.1522 33.7353C39.2239 33.7353 39.2955 33.7214 39.3636 33.6928C43.961 31.7484 48.7185 30.7723 53.572 30.7723C55.6238 30.7723 57.693 30.9464 59.7742 31.2963C59.8037 31.3015 59.834 31.3041 59.8643 31.3041C60.028 31.3041 60.1839 31.2304 60.2887 31.1005C66.8401 22.9399 71.5518 18.8163 74.3095 18.8163C74.3476 18.8163 74.3857 18.8172 74.4238 18.8189C75.3384 18.9298 76.1543 19.5049 76.8481 20.5269C80.1922 25.456 79.9445 39.3044 77.489 48.3935C77.4535 48.5251 77.4682 48.6663 77.5314 48.7867C79.0428 51.6847 80.0458 54.7369 80.5975 58.1165C80.6053 58.1616 80.6183 58.2049 80.6356 58.2456C79.5244 58.702 78.5188 59.1949 77.9013 59.8193L77.8866 59.8228C77.8753 58.7324 77.7419 57.6177 77.4786 56.4969C76.0192 50.2894 71.0407 45.9987 65.7721 45.9987C65.0377 45.9987 64.2971 46.0827 63.5601 46.255C57.5371 47.6729 54.0024 54.5542 55.6654 61.6261C55.668 61.6347 55.6697 61.6434 55.6714 61.6521C55.7069 61.8019 55.7269 61.9526 55.7312 62.1007C55.2332 61.8591 54.4225 61.7993 53.7859 61.7993C53.3987 61.7993 53.0757 61.8209 52.9258 61.8383C52.5854 61.8755 51.3702 62.0825 50.5924 62.4913C50.5836 62.4116 50.5793 62.3302 50.5793 62.2479C50.5793 62.2393 50.5793 62.2306 50.5793 62.222C50.5624 54.9647 45.5454 49.0924 39.366 49.0924C39.3596 49.0924 39.352 49.0924 39.3456 49.0924C33.1579 49.1072 28.1561 55.008 28.1709 62.2731C28.1741 63.4224 28.3014 64.538 28.5409 65.6016Z" fill="#FF7F00"/>
</g>
<path d="M31.0079 29.4146C30.2482 29.6752 29.4227 29.737 28.6338 29.5942C28.7547 30.1914 28.7888 30.8078 28.7319 31.4158C28.7143 31.5929 28.6898 31.7725 28.6077 31.9303C28.4796 32.1776 28.2337 32.3354 28.001 32.4874C25.7886 33.924 23.8186 35.7941 22.5153 38.0902C21.7235 38.1428 20.925 38.1963 20.1616 38.4134C20.0607 38.4418 19.9585 38.4744 19.8585 38.5078C18.4871 31.6313 18.7523 25.6193 22.0571 24.4216C24.0004 23.8503 27.1476 25.043 31.1806 27.537C30.9699 28.1367 30.9034 28.7874 31.0079 29.4146Z" fill="#8E3410"/>
<path d="M66.9283 25.209C67.727 25.2873 68.5448 25.1568 69.2792 24.8349C69.3 25.4448 69.4097 26.0521 69.6046 26.6298C69.6629 26.7986 69.7281 26.9683 69.8447 27.1023C70.0265 27.3128 70.3024 27.4103 70.5634 27.5042C73.0483 28.3908 75.3974 29.7551 77.1958 31.6875C77.978 31.5561 78.768 31.423 79.5607 31.4578C79.6651 31.4622 79.7721 31.47 79.8774 31.4796C79.6224 24.4729 77.9745 18.6844 74.4821 18.2825C72.4592 18.1763 69.6733 20.0635 66.3262 23.4228C66.6698 23.9579 66.8848 24.5756 66.9283 25.209Z" fill="#8E3410"/>
<path d="M34.6272 36.6443C32.3088 39.7018 30.0415 43.2427 28.3146 47.0656H28.313C27.8056 48.19 27.343 49.3393 26.9396 50.5078C22.4457 41.5586 21.2273 34.1947 22.3115 30.8103C22.6847 29.6474 24.01 29.0852 25.1062 29.6193C28.1179 31.093 30.8004 33.1081 33.3096 35.4034C33.7549 35.8074 34.1927 36.2218 34.6272 36.6443Z" fill="#FFDAB6"/>
<path d="M65.0654 33.0773C68.0274 35.5166 71.0522 38.4382 73.6157 41.7583H73.6173C74.3706 42.7348 75.0861 43.7464 75.7488 44.7891C78.0523 35.0435 77.5364 27.598 75.6993 24.5555C75.0669 23.5103 73.6475 23.2696 72.7047 24.043C70.1152 26.172 67.9712 28.7531 66.0603 31.5657C65.7206 32.0623 65.3901 32.5664 65.0654 33.0773Z" fill="#FFDAB6"/>
<path d="M84.712 63.6409C84.7448 67.004 82.3901 69.6261 77.4096 71.4344C63.4553 84.8022 48.1459 86.5974 31.4812 76.8207C26.2171 76.2116 23.3199 74.2051 22.5742 70.9251C23.3379 70.5718 24.2663 70.5157 25.2759 70.6089C23.1993 68.5318 21.8749 66.5595 21.4756 64.6638C21.9818 64.4802 22.5869 64.3928 23.2674 64.4212L24.0364 64.4991L24.0548 64.5006C24.2883 64.5312 24.5222 64.564 24.756 64.5975C26.2263 64.8008 27.6385 65.0448 28.5408 65.6073C28.3013 64.5436 28.174 63.4282 28.1708 62.2785C28.1559 55.0132 33.1578 49.1125 39.3455 49.0972C45.5332 49.0848 50.5625 54.9629 50.5793 62.2275C50.5793 62.2362 50.5793 62.245 50.5793 62.2537C50.58 63.5659 51.7049 64.5917 53.0083 64.4387L53.8134 64.3447C55.1161 64.1917 55.9729 62.9335 55.6713 61.657C55.6691 61.649 55.6676 61.6402 55.6654 61.6322C54.0028 54.56 57.5364 47.6787 63.5602 46.2609C69.5833 44.8453 75.8155 49.4302 77.478 56.5017C77.7411 57.6236 77.8751 58.7376 77.886 59.8283L77.9006 59.8247C78.7676 58.9496 80.3967 58.3333 82.0097 57.7111L84.3375 57.4495C84.3397 59.3496 83.5091 61.5237 82.0105 63.9571C82.9715 63.6329 83.8873 63.4726 84.712 63.6409Z" fill="#FFDAB6"/>
<path d="M51.507 82.0938C47.2127 82.0938 42.8215 81.2678 38.3329 79.6152C36.1622 78.7336 33.9702 77.6434 31.7575 76.346C31.6922 76.307 31.6197 76.2825 31.5448 76.2745C27.9351 75.8572 25.4913 74.7988 24.1523 73.0602C25.605 73.6559 27.4918 74.0385 29.8311 74.1995C36.8074 77.3517 43.5984 78.9278 50.2053 78.9278C60.0142 78.9278 69.4174 75.4529 78.4134 68.5038C80.6508 67.8063 82.3973 66.9991 83.6731 66.0844C82.7713 68.0843 80.6386 69.6784 77.2243 70.9181C77.1535 70.9441 77.0886 70.9845 77.0337 71.0365C75.1803 72.8119 73.2988 74.38 71.3899 75.7402C65.0097 79.9762 58.3833 82.0938 51.507 82.0938Z" fill="#D9A894"/>
<path d="M23.2276 71.2617C24.0954 74.0892 26.8225 75.7317 31.5443 76.2776C31.6192 76.286 31.6917 76.3104 31.757 76.3489C48.1086 85.9417 63.3413 84.1558 77.0334 71.0397C77.0876 70.9873 77.1531 70.9471 77.2239 70.9209C81.6915 69.2992 83.9651 67.0702 84.1564 64.1185C83.6025 64.0949 82.9524 64.212 82.1852 64.4707C81.9694 64.5441 81.7282 64.4733 81.5858 64.2942C81.4434 64.115 81.4276 63.8651 81.5482 63.6694C82.9559 61.3836 83.6898 59.463 83.7842 57.8142C83.0564 57.8369 82.2376 58.0755 81.3848 58.5159C81.2293 58.5963 81.0458 58.5971 80.8903 58.5185C80.7347 58.4399 80.6264 58.2922 80.5975 58.1201C80.0462 54.7403 79.0431 51.6882 77.5323 48.7899C77.4685 48.6693 77.4537 48.5286 77.4895 48.3967C79.9448 39.3076 80.193 25.4591 76.8482 20.5301C76.1544 19.5078 75.3391 18.9329 74.4243 18.8219C71.6833 18.7048 66.9317 22.8299 60.2892 31.1037C60.1651 31.2566 59.9703 31.3318 59.7745 31.2994C52.772 30.1225 45.9051 30.929 39.364 33.6953C39.1831 33.7722 38.974 33.7451 38.8182 33.6237C35.8156 31.2881 33.1499 29.3972 30.8955 28.0036C26.8288 25.4888 23.9124 24.4586 22.2271 24.9418C19.591 25.917 18.9045 30.9464 20.3924 38.405C21.4861 43.8862 23.6128 49.8742 26.0807 54.424C26.1455 54.5446 26.1632 54.6844 26.13 54.8172C25.3329 57.9715 25.0614 61.1556 25.2985 64.5476C25.3001 64.5615 25.3009 64.5738 25.3017 64.5869C25.321 64.7643 25.2524 64.9364 25.1187 65.0535C24.9849 65.1706 24.8023 65.2134 24.6297 65.1697C24.4186 65.1173 24.2019 65.0736 23.9853 65.0378C23.9729 65.0369 23.9593 65.0351 23.952 65.0343C23.7193 64.9976 23.4807 64.9731 23.2431 64.9626C22.8439 64.946 22.4722 64.9731 22.1338 65.0413C22.6047 66.6228 23.7638 68.324 25.6614 70.2228C25.8235 70.3844 25.8665 70.6308 25.7691 70.8379C25.6714 71.0458 25.4519 71.1699 25.2264 71.149C24.4202 71.0738 23.761 71.1105 23.2276 71.2617ZM51.913 83.5547C45.2875 83.555 38.3736 81.4737 31.3048 77.3449C25.9649 76.703 22.849 74.5834 22.0445 71.0441C21.9876 70.7942 22.113 70.5373 22.346 70.4298C22.815 70.2123 23.3573 70.083 23.9861 70.0393C22.2911 68.1615 21.2927 66.4306 20.9438 64.7739C20.8878 64.5082 21.0359 64.2426 21.2907 64.15C21.8778 63.9377 22.5515 63.845 23.2904 63.8756C23.5652 63.8879 23.8383 63.9149 24.105 63.9569C24.1186 63.9586 24.1335 63.9595 24.1419 63.9613C24.1527 63.963 24.1631 63.9648 24.1739 63.9665C24.0097 60.765 24.2896 57.7478 25.0238 54.7569C22.5495 50.1398 20.4244 44.1256 19.3251 38.6182C17.6962 30.4501 18.6246 25.0904 21.8722 23.9134C21.8826 23.9099 21.8935 23.9064 21.9043 23.9029C23.9244 23.3105 27.0527 24.3477 31.4675 27.0782C33.6914 28.4527 36.3038 30.2998 39.2351 32.5708C45.7825 29.8621 52.6439 29.0565 59.64 30.1749C66.6127 21.5254 71.346 17.5715 74.4977 17.7358C74.5099 17.7367 74.5204 17.7375 74.5318 17.7393C75.7822 17.8826 76.8648 18.6166 77.749 19.9194C81.3315 25.1987 81.0659 39.1399 78.594 48.4753C80.0016 51.2181 80.9715 54.0937 81.55 57.2402C82.5574 56.8216 83.5299 56.6539 84.3967 56.7517C84.6685 56.7832 84.8756 57.0121 84.8791 57.2865L84.8799 57.3503C84.8817 57.3808 84.8817 57.4123 84.8817 57.4429V57.4472C84.8834 59.0996 84.3111 60.959 83.1359 63.105C83.7571 63.0019 84.3146 63.0019 84.8214 63.1058C85.073 63.1565 85.2548 63.3767 85.2574 63.6336C85.2915 67.2633 82.7505 70.0454 77.7036 71.9048C70.6959 78.5921 63.2347 82.4409 55.5262 83.3448C54.3327 83.485 53.1268 83.5547 51.913 83.5547Z" fill="#1E1E1E"/>
<path d="M24.2277 29.9641C24.0311 29.9641 23.8344 30.0036 23.6487 30.0833C23.257 30.2499 22.9582 30.5767 22.8288 30.98C21.8844 33.9277 22.7968 40.6161 26.865 49.1244C27.1546 48.3694 27.4726 47.6071 27.8162 46.8448C27.8227 46.8319 27.829 46.819 27.8359 46.8061C29.3473 43.4688 31.3871 40.0719 33.9026 36.7048C33.5634 36.3796 33.2474 36.085 32.9434 35.8089C30.1804 33.2813 27.5387 31.4187 24.8666 30.1114C24.6655 30.0132 24.4469 29.9641 24.2277 29.9641ZM26.9387 51.0547C26.7344 51.0547 26.5458 50.9396 26.453 50.7552C22.3354 42.5552 20.5063 34.6626 21.7927 30.6475C22.0186 29.944 22.5396 29.3733 23.2217 29.0819C23.905 28.7905 24.6783 28.809 25.344 29.1334C28.1114 30.4873 30.8368 32.408 33.6764 35.0047C34.0884 35.379 34.5238 35.7888 35.0056 36.2564C35.203 36.448 35.2263 36.7563 35.0605 36.9753C32.45 40.418 30.3474 43.889 28.8103 47.2931C28.8042 47.3052 28.7979 47.3181 28.791 47.331C28.2832 48.4587 27.833 49.5889 27.4533 50.6884C27.3817 50.8953 27.1934 51.0394 26.9752 51.0539C26.9631 51.0547 26.9511 51.0547 26.9387 51.0547Z" fill="#1E1E1E"/>
<mask id="mask6_16216_7611" style="mask-type:luminance" maskUnits="userSpaceOnUse" x="25" y="35" width="10" height="13">
<path d="M34.6269 36.6481C32.3084 39.7059 30.0411 43.2471 28.3142 47.0703H28.3126C26.9293 43.9897 27.4916 41.2619 29.2121 38.7431C28.1872 38.3466 26.9933 38.3823 25.7266 38.6038C27.2304 35.6505 29.7584 34.5839 33.3092 35.4078C33.7546 35.8119 34.1923 36.2264 34.6269 36.6481Z" fill="white"/>
</mask>
<g mask="url(#mask6_16216_7611)">
<path d="M34.6269 36.6484C32.3084 39.7064 30.0412 43.247 28.3142 47.0703H28.3126C26.9292 43.9901 27.4916 41.2622 29.2121 38.7435C28.1872 38.3467 26.9934 38.3827 25.7266 38.6041C27.2304 35.6503 29.7584 34.5839 33.3092 35.4074C33.7546 35.8119 34.1923 36.2263 34.6269 36.6484Z" fill="url(#paint0_linear_16216_7611)"/>
</g>
<path d="M27.415 37.8915C28.1692 37.8915 28.8216 38.0043 29.4083 38.2316C29.5633 38.2911 29.6827 38.4187 29.7319 38.5772C29.7808 38.7356 29.7552 38.9088 29.6614 39.0456C28.1568 41.248 27.7307 43.4226 28.3731 45.6605C29.8185 42.6921 31.6736 39.6857 33.9028 36.7018C33.6028 36.4142 33.3205 36.1506 33.0493 35.9024C30.2226 35.2817 28.1564 35.9419 26.7667 37.917C26.991 37.9 27.2068 37.8915 27.415 37.8915ZM28.3142 47.6094C28.1015 47.6094 27.9045 47.4857 27.8159 47.2886C26.5516 44.4732 26.7278 41.7745 28.359 39.0611C27.6677 38.9312 26.8424 38.9567 25.8203 39.1353C25.6173 39.1709 25.4118 39.0882 25.2892 38.9227C25.1667 38.7573 25.1483 38.5362 25.2419 38.3522C26.8672 35.1603 29.6222 33.9892 33.4322 34.8735C33.5227 34.8944 33.606 34.9377 33.6749 35.0003C34.0886 35.376 34.5239 35.7857 35.0058 36.2534C35.2032 36.4451 35.2264 36.7536 35.0606 36.9723C32.4502 40.4155 30.3475 43.8856 28.8104 47.2893C28.7303 47.4664 28.5617 47.5877 28.3687 47.607C28.3503 47.6086 28.3322 47.6094 28.3142 47.6094Z" fill="#1E1E1E"/>
<path d="M74.0227 41.3883C74.0311 41.3984 74.0404 41.4094 74.0488 41.4195C74.5591 42.0811 75.0442 42.7495 75.5008 43.4179C77.4925 34.1999 76.8342 27.4814 75.2342 24.8313C75.0156 24.469 74.6491 24.2201 74.2295 24.1478C73.8066 24.0755 73.3787 24.189 73.0508 24.458C70.753 26.3472 68.6141 28.7703 66.5105 31.8659C66.2777 32.2064 66.038 32.5663 65.7833 32.9606C69.0101 35.6561 71.7804 38.4903 74.0227 41.3883ZM75.7488 45.3281C75.5655 45.3281 75.3906 45.234 75.2897 45.0751C74.665 44.0905 73.9655 43.0959 73.2114 42.1156C73.2021 42.1055 73.1937 42.0954 73.1853 42.0853C70.9027 39.1292 68.055 36.2379 64.7197 33.492C64.507 33.3171 64.4591 33.011 64.6071 32.7798C64.9669 32.214 65.2957 31.7146 65.6118 31.253C67.7734 28.0716 69.9803 25.5729 72.3597 23.6164C72.9331 23.1473 73.6822 22.9506 74.4128 23.0758C75.1443 23.2011 75.7833 23.6358 76.1658 24.2689C78.345 27.8774 78.3896 35.9798 76.2793 44.9094C76.2289 45.1213 76.0557 45.2836 75.8396 45.3206C75.8093 45.3256 75.779 45.3281 75.7488 45.3281Z" fill="#1E1E1E"/>
<mask id="mask7_16216_7611" style="mask-type:luminance" maskUnits="userSpaceOnUse" x="65" y="30" width="10" height="12">
<path d="M65.0654 33.077C68.0279 35.516 71.0521 38.4373 73.6157 41.7578L73.6177 41.7574C74.2513 38.4405 73.0738 35.9165 70.8178 33.8636C71.7233 33.2408 72.8928 32.9997 74.1764 32.9224C72.0309 30.3968 69.3251 29.9431 66.0607 31.5655C65.7206 32.0617 65.3906 32.5659 65.0654 33.077Z" fill="white"/>
</mask>
<g mask="url(#mask7_16216_7611)">
<path d="M65.0654 33.0763C68.0278 35.5156 71.0521 38.4367 73.616 41.7578L73.6175 41.757C74.2518 38.4398 73.0738 35.9164 70.8179 33.8637C71.7236 33.2406 72.8928 32.9993 74.1764 32.9223C72.0308 30.3965 69.3256 29.9433 66.0608 31.565C65.7211 32.0611 65.3909 32.5659 65.0654 33.0763Z" fill="url(#paint1_linear_16216_7611)"/>
</g>
<path d="M65.7824 32.9606C68.6409 35.3494 71.1411 37.8456 73.2333 40.3995C73.3407 38.0732 72.4229 36.0556 70.451 34.2616C70.3283 34.1494 70.2626 33.9875 70.2738 33.8224C70.2858 33.6564 70.3716 33.5049 70.5087 33.4103C71.17 32.9558 71.9796 32.6568 73.0065 32.4949C71.198 30.8941 69.0353 30.7298 66.4285 31.9859C66.2217 32.2905 66.0077 32.6127 65.7824 32.9606ZM73.6165 42.2969C73.4489 42.2969 73.2886 42.2199 73.1844 42.0852C70.9023 39.1289 68.0542 36.2384 64.7187 33.4921C64.5063 33.3173 64.4582 33.0119 64.6057 32.7803C64.9664 32.2143 65.2951 31.715 65.6109 31.2532C65.663 31.1763 65.7343 31.1146 65.8177 31.0729C69.3199 29.3334 72.2714 29.8352 74.5904 32.5655C74.7243 32.7226 74.7572 32.9414 74.6762 33.1314C74.5952 33.3206 74.4149 33.4488 74.2088 33.4608C73.1732 33.5234 72.3644 33.6893 71.7223 33.9755C73.9355 36.2384 74.7307 38.8227 74.1511 41.8552C74.1063 42.0893 73.9147 42.2672 73.6774 42.2937C73.6565 42.2961 73.6365 42.2969 73.6165 42.2969Z" fill="#1E1E1E"/>
<path d="M25.3037 56.5312C25.2636 56.5312 25.2236 56.5271 25.1831 56.5175C24.89 56.4511 24.7061 56.16 24.7722 55.8668C25.3749 53.1992 26.2044 50.9413 27.0066 48.7573C27.11 48.4751 27.4239 48.3312 27.7047 48.434C27.9866 48.5381 28.1316 48.8505 28.0279 49.1327C27.2377 51.2838 26.4207 53.5081 25.8335 56.1072C25.7767 56.3593 25.552 56.5312 25.3037 56.5312Z" fill="#1E1E1E"/>
<path d="M78.5528 50.2969C78.3515 50.2969 78.1581 50.1847 78.0639 49.992C76.8933 47.6005 75.6421 45.7122 74.3176 43.7133C74.1508 43.4631 74.2198 43.1251 74.4701 42.9597C74.7203 42.7929 75.0583 42.862 75.2243 43.1122C76.51 45.0522 77.8388 47.0576 79.041 49.5131C79.1733 49.7835 79.0612 50.1085 78.7915 50.2408C78.7146 50.2789 78.6333 50.2969 78.5528 50.2969Z" fill="#1E1E1E"/>
<path d="M44.5529 61.4781C44.8886 64.3262 43.1612 66.8697 40.6945 67.1603C38.2285 67.451 35.9578 65.3771 35.6228 62.5296C35.2871 59.6815 37.0145 57.1374 39.4812 56.8474C41.9466 56.5567 44.2178 58.63 44.5529 61.4781Z" fill="#1E1E1E"/>
<path d="M42.5813 60.1962C42.7015 61.2137 42.147 62.116 41.3426 62.2107C40.5381 62.3054 39.7892 61.557 39.6696 60.5389C39.5499 59.5214 40.1045 58.6191 40.9083 58.5244C41.7127 58.4297 42.4616 59.1781 42.5813 60.1962Z" fill="white"/>
<path d="M38.7098 65.1875C38.2877 65.1875 37.8961 64.6878 37.8191 64.0311C37.7379 63.3422 38.0334 62.7416 38.4788 62.689C38.4991 62.6866 38.52 62.6855 38.5409 62.6855C38.9629 62.6855 39.3546 63.1851 39.4316 63.8413C39.5128 64.5302 39.2173 65.1314 38.7719 65.1839C38.751 65.1863 38.7301 65.1875 38.7098 65.1875Z" fill="white" fill-opacity="0.2"/>
<path d="M61.3777 59.5088C61.7101 62.357 63.979 64.4332 66.4451 64.1452C68.9119 63.8578 70.6419 61.3159 70.3095 58.4678C69.9777 55.6189 67.7095 53.5434 65.2427 53.8307C62.7766 54.1181 61.0459 56.6606 61.3777 59.5088Z" fill="#1E1E1E"/>
<path d="M63.0004 57.8026C63.1194 58.8207 63.8668 59.5699 64.6711 59.4765C65.4754 59.3831 66.0314 58.4815 65.9124 57.4635C65.7934 56.4455 65.0454 55.6962 64.2411 55.7896C63.4374 55.8837 62.8814 56.7846 63.0004 57.8026Z" fill="white"/>
<path d="M67.7959 61.7812C67.3735 61.7812 66.9826 61.2814 66.9058 60.6242C66.8252 59.9355 67.1211 59.335 67.5668 59.2833C67.5876 59.2808 67.6083 59.2796 67.6285 59.2796C68.0509 59.2796 68.4424 59.7794 68.5186 60.4366C68.5992 61.1253 68.3033 61.7258 67.8576 61.7775C67.8369 61.78 67.8161 61.7812 67.7959 61.7812Z" fill="white" fill-opacity="0.2"/>
<path d="M35.6894 44.9191C37.5028 44.3796 39.2522 44.1535 40.8941 44.4537C41.3176 44.5315 41.7529 44.3451 41.9525 43.9648C43.0103 41.9544 41.3477 40.3777 39.2558 40.3542C38.645 40.3476 38.0435 40.5017 37.4832 40.7447C35.6593 41.5374 34.7438 42.5937 34.4594 43.7167C34.2708 44.4596 34.9548 45.1385 35.6894 44.9191Z" fill="#FFDAB6"/>
<path d="M65.2701 41.4581C63.3815 41.3515 61.6265 41.5361 60.0989 42.2076C59.7049 42.381 59.239 42.3007 58.9554 41.9765C57.4622 40.265 58.716 38.3465 60.7456 37.8407C61.3384 37.6929 61.9589 37.7034 62.5599 37.8107C64.5175 38.1604 65.6528 38.9767 66.1893 40.0032C66.5442 40.6822 66.0355 41.5008 65.2701 41.4581Z" fill="#FFDAB6"/>
<path d="M53.7095 66.5369L53.6458 66.5547L53.6436 66.534L53.7095 66.5369Z" fill="#00046A"/>
<path d="M53.7709 66.5262L53.7738 66.5469L53.709 66.5434L53.7709 66.5262Z" fill="#00046A"/>
<path d="M57.8516 66.795C57.4866 68.0345 57.5134 72.3423 54.1383 72.7184C50.7632 73.0951 49.8393 68.8875 49.2099 67.7568C48.3505 66.211 53.2807 66.0311 53.3907 66.0271H53.3925C53.492 66.0079 58.3494 65.0949 57.8516 66.795Z" fill="#00046A"/>
<path d="M57.8525 66.7951C57.6493 67.4827 57.5672 69.1117 56.9594 70.4921C56.4704 71.6023 55.6425 72.5508 54.138 72.7184C52.6313 72.8867 51.613 72.1391 50.8922 71.1622C49.9968 69.9506 49.5566 68.3816 49.2097 67.7569C48.3515 66.2105 53.2804 66.0312 53.3911 66.0266H53.3922C53.4918 66.0073 58.3503 65.0944 57.8525 66.7951Z" fill="#1E1E1E"/>
<path d="M56.9592 70.4922C56.4703 71.6023 55.642 72.5505 54.138 72.7185C52.6311 72.8865 51.6131 72.1392 50.8926 71.1625C51.5126 70.2422 52.5647 69.7148 53.8394 70.0809C55.0069 69.443 56.1516 69.7265 56.9592 70.4922Z" fill="#FF8080"/>
<path d="M54.4643 69.8275C54.0157 70.0029 53.884 70.4609 53.884 70.4609C53.884 70.4609 53.655 70.0433 53.1787 69.9708L53.8149 69.8397L54.4643 69.8275Z" fill="#1E1E1E"/>
<path d="M55.9807 66.22C55.2307 66.22 54.307 66.3139 53.4771 66.4713C53.4678 66.4737 53.4579 66.4748 53.4485 66.4766C53.4357 66.4778 53.4211 66.4789 53.4083 66.4795C51.4967 66.553 49.8142 66.942 49.5763 67.3659C49.564 67.3875 49.543 67.4237 49.606 67.5362C49.7331 67.7654 49.8626 68.085 50.0125 68.4559C50.8482 70.5221 51.853 72.5183 54.0883 72.2681C56.3236 72.0191 56.8624 69.8526 57.2222 67.6552C57.287 67.2604 57.3435 66.9186 57.417 66.6667C57.4532 66.5431 57.4252 66.5122 57.4077 66.4929C57.2351 66.3028 56.6851 66.22 55.9807 66.22ZM53.7133 73.1953C50.9531 73.1953 49.8049 70.3582 49.1727 68.7959C49.0339 68.453 48.9144 68.1567 48.8141 67.9771C48.6146 67.6184 48.6053 67.2435 48.7867 66.9216C49.3891 65.8503 52.1475 65.6234 53.3401 65.575C54.2772 65.3995 57.2199 64.9376 58.0783 65.8841C58.3279 66.1593 58.402 66.5273 58.2865 66.9221V66.9227C58.2282 67.1204 58.1763 67.4359 58.1168 67.8016C57.8293 69.5563 57.2934 72.8221 54.1886 73.1685C54.0253 73.1866 53.8667 73.1953 53.7133 73.1953Z" fill="#1E1E1E"/>
<path d="M59.014 64.1189C59.014 64.1189 58.7867 66.594 57.4174 67.3679C56.0013 68.1683 54.6621 67.4605 53.9068 66.9969C53.632 66.8285 53.4516 66.5435 53.4161 66.2236L53.2315 64.5693H53.2291L53.4137 66.2236C53.4492 66.5435 53.3361 66.8616 53.1052 67.0865C52.4708 67.7047 51.3198 68.6903 49.7623 68.2212C48.2566 67.7678 47.4893 65.4033 47.4893 65.4033C47.4893 65.4033 48.5837 62.9577 52.9945 62.4658C57.4054 61.9745 59.014 64.1189 59.014 64.1189Z" fill="#FFDAB6"/>
<path d="M53.5292 64.5378C53.7006 64.941 53.8256 65.3496 53.9248 65.761L53.994 66.0704C54.1097 66.5464 54.0187 67.0835 53.6888 67.4668C52.6998 68.5321 51.1015 69.3087 49.6657 68.7C48.3051 68.1688 47.7088 66.7254 47.4893 65.4053C48.1132 66.3815 48.8129 67.5096 49.934 67.7667C50.9788 67.9498 51.8839 67.3635 52.5859 66.6415C52.6798 66.5358 52.7972 66.439 52.8131 66.2817C52.8054 65.7217 52.8248 65.167 52.9287 64.6047C52.9598 64.4333 53.1236 64.3194 53.295 64.3506C53.403 64.3705 53.4887 64.4445 53.5292 64.5378Z" fill="#1E1E1E"/>
<path d="M53.5318 64.5369C53.7571 65.0621 53.8983 65.5991 54.0142 66.1467C54.0647 66.2973 54.2 66.3655 54.3153 66.4485C54.5888 66.6167 54.8806 66.7849 55.1735 66.9037C57.4339 67.7978 58.3815 66.0426 59.0144 64.1198C59.0791 64.9986 58.9614 65.8815 58.5762 66.6985C58.1844 67.5796 57.2092 68.2442 56.2075 68.3236C55.1935 68.4101 54.2459 68.0313 53.4213 67.4955C53.0148 67.1943 52.8078 66.6908 52.816 66.2014L52.8154 65.8844C52.8213 65.4609 52.8537 65.0351 52.9319 64.6039C52.9819 64.2986 53.4183 64.2545 53.5318 64.5369Z" fill="#1E1E1E"/>
<path d="M56.1703 62.8596C55.7678 64.563 53.3632 65.7656 53.3632 65.7656C53.3632 65.7656 50.7541 65.1218 49.9859 63.5493C49.438 62.4239 52.3658 61.9038 52.9264 61.8416C53.4863 61.7789 56.4575 61.6413 56.1703 62.8596Z" fill="#1E1E1E"/>
<path d="M52.6699 62.8594C52.3418 62.8594 51.8864 62.8131 51.7098 62.5776C51.5043 62.3012 52.7216 62.1162 52.9541 62.0903C53.0478 62.0801 53.305 62.0591 53.5681 62.0591C53.9563 62.0591 54.3576 62.1041 54.2741 62.2916C54.0776 62.7326 53.0376 62.8407 53.0376 62.8407C53.0376 62.8407 52.8796 62.8594 52.6699 62.8594Z" fill="#B38A97"/>
<path d="M51.0996 83.011L55.2666 86.0357C56.3711 86.1003 57.4213 86.0529 58.3914 85.8402C58.6521 84.6037 58.9128 83.3671 59.1729 82.13C57.9992 82.373 56.7112 82.5879 55.3192 82.7451C53.8025 82.9166 52.3888 82.9938 51.0996 83.011Z" fill="#D84545"/>
<path d="M56.5537 86.058C56.5577 86.058 56.5616 86.058 56.565 86.0574C56.5611 86.058 56.5577 86.058 56.5537 86.058ZM56.6257 86.0551C56.6302 86.0551 56.6348 86.0551 56.6387 86.0551C56.6342 86.0551 56.6302 86.0551 56.6257 86.0551ZM56.7153 86.0517C56.7198 86.0517 56.7249 86.0512 56.73 86.0512C56.7249 86.0512 56.7204 86.0517 56.7153 86.0517ZM58.391 85.8419C58.3961 85.8158 58.4017 85.7897 58.4074 85.7637C58.4114 85.7863 58.4148 85.8102 58.4187 85.8357C58.4097 85.8379 58.4006 85.8396 58.391 85.8419Z" fill="#D9A894"/>
<path d="M51.1349 83.0151C51.8431 83.0054 52.5899 82.976 53.3693 82.9245L53.3699 82.925C52.5899 82.977 51.8436 83.0054 51.1349 83.0151Z" fill="#1E1E1E"/>
<path d="M56.1521 86.0625C55.8612 86.0625 55.5664 86.0529 55.2664 86.0359L51.0996 83.011C51.1041 83.011 51.1092 83.011 51.1143 83.011C51.1172 83.011 51.1195 83.011 51.1223 83.011C51.1257 83.0104 51.1285 83.0104 51.1319 83.0104C51.1331 83.0104 51.1336 83.0104 51.1353 83.0104C51.8435 83.0002 52.5902 82.9724 53.3698 82.9202L54.7068 83.8904C55.5681 84.5157 56.6023 84.8537 57.658 84.8537C57.8343 84.8537 58.0112 84.844 58.1881 84.8253C58.2125 84.8225 58.2369 84.8197 58.2618 84.8168C58.3582 85.4377 58.3225 85.2086 58.4081 85.762C58.4025 85.7881 58.3968 85.8142 58.3911 85.8402C58.3911 85.8402 58.3911 85.8402 58.3906 85.8408C57.8564 85.9389 57.328 86.0092 56.8069 86.0461C56.8064 86.0461 56.8052 86.0461 56.8047 86.0461C56.8041 86.0461 56.8035 86.0461 56.8035 86.0461C56.7979 86.0461 56.7928 86.0466 56.7871 86.0472C56.7865 86.0472 56.786 86.0472 56.7854 86.0472C56.7797 86.0472 56.7746 86.0472 56.769 86.0478C56.7684 86.0478 56.7678 86.0478 56.7673 86.0478C56.7621 86.0483 56.7565 86.0483 56.7514 86.0483C56.7502 86.0483 56.7497 86.0483 56.7491 86.0483C56.744 86.0489 56.7389 86.0495 56.7338 86.0495C56.7327 86.0495 56.7315 86.0495 56.731 86.05C56.7259 86.05 56.7202 86.05 56.7157 86.05C56.7151 86.05 56.7134 86.05 56.7128 86.0506C56.7083 86.0506 56.7026 86.0512 56.6981 86.0512C56.6969 86.0512 56.6958 86.0512 56.6947 86.0512C56.6896 86.0512 56.685 86.0517 56.6799 86.0517C56.6788 86.0517 56.6777 86.0517 56.6765 86.0517C56.6714 86.0523 56.6669 86.0523 56.6624 86.0529C56.6607 86.0529 56.659 86.0529 56.6573 86.0529C56.6533 86.0529 56.6488 86.0529 56.6442 86.0534C56.6425 86.0534 56.6408 86.0534 56.6391 86.0534C56.6351 86.0534 56.6306 86.054 56.6261 86.054C56.6249 86.054 56.6227 86.054 56.621 86.054C56.6164 86.054 56.6125 86.054 56.6085 86.0546C56.6062 86.0546 56.6045 86.0546 56.6028 86.0546C56.5989 86.0551 56.5949 86.0551 56.5904 86.0551C56.5881 86.0557 56.5864 86.0557 56.5841 86.0557C56.5801 86.0557 56.5762 86.0557 56.5728 86.0557C56.5705 86.0557 56.5677 86.0557 56.566 86.0557C56.562 86.0563 56.558 86.0563 56.5541 86.0563C56.5518 86.0563 56.5495 86.0568 56.5473 86.0568C56.5433 86.0568 56.5405 86.0568 56.5365 86.0568C56.5337 86.0568 56.5314 86.0568 56.5291 86.0568C56.5251 86.0568 56.5217 86.0574 56.5183 86.0574C56.5155 86.0574 56.5132 86.0574 56.5104 86.058C56.507 86.058 56.5036 86.058 56.5002 86.058C56.4974 86.058 56.4945 86.058 56.4917 86.058C56.4883 86.058 56.4855 86.058 56.4821 86.058C56.4787 86.0585 56.4764 86.0585 56.4736 86.0585C56.4701 86.0585 56.4667 86.0585 56.4639 86.0585C56.4611 86.0591 56.4577 86.0591 56.4543 86.0591C56.4514 86.0591 56.4486 86.0591 56.4463 86.0597C56.4424 86.0597 56.439 86.0597 56.4356 86.0597C56.4327 86.0597 56.4305 86.0597 56.4276 86.0597C56.4242 86.0597 56.4203 86.0597 56.4169 86.0597C56.4146 86.0597 56.4118 86.0597 56.4095 86.0597C56.4055 86.0602 56.4015 86.0602 56.3976 86.0602C56.3959 86.0602 56.3936 86.0602 56.3913 86.0602C56.3874 86.0602 56.3828 86.0608 56.3789 86.0608C56.3766 86.0608 56.3755 86.0608 56.3732 86.0608C56.3687 86.0608 56.3636 86.0608 56.359 86.0608C56.3573 86.0608 56.3562 86.0608 56.3551 86.0608C56.35 86.0608 56.3443 86.0608 56.3392 86.0608C56.3386 86.0608 56.3375 86.0608 56.3369 86.0608C56.2757 86.0625 56.2139 86.0625 56.1521 86.0625Z" fill="#B02A2A"/>
<path d="M55.4199 86.0607L57.8054 104.196L63.8596 108.102L66.5933 103.024L58.3912 85.8385C57.3765 86.0255 56.384 86.1107 55.4199 86.0607Z" fill="#D84545"/>
<path d="M55.9686 86.0781C55.7849 86.0781 55.6024 86.0742 55.4209 86.0648C55.5968 86.0737 55.7738 86.0781 55.9519 86.0781C56.2057 86.0781 56.4618 86.0692 56.7195 86.0525V86.0542C56.4674 86.0698 56.2174 86.0781 55.9686 86.0781Z" fill="#D9A894"/>
<path d="M63.8598 108.102L57.8064 104.196L55.4209 86.061C55.6029 86.07 55.7855 86.0743 55.9687 86.0743C56.2173 86.0743 56.4676 86.0664 56.7198 86.0501L58.1123 96.6423C58.6614 100.814 61.016 104.535 64.5522 106.816L63.8598 108.102Z" fill="#B02A2A"/>
<path d="M55.437 85.5602C56.3871 85.6074 57.2235 85.5643 57.98 85.4286L58.5427 82.7563C57.4943 82.9546 56.4308 83.115 55.3743 83.2345C54.4379 83.3403 53.4912 83.4156 52.5439 83.4599L55.437 85.5602ZM56.1572 86.5547C55.8612 86.5547 55.5554 86.5455 55.2387 86.5271C55.1455 86.5219 55.0559 86.4897 54.9806 86.4346L50.8131 83.4098C50.6424 83.2863 50.5705 83.0678 50.6343 82.8672C50.6981 82.6666 50.8827 82.5292 51.093 82.5269C52.483 82.508 53.8861 82.4194 55.2645 82.2636C56.5378 82.1199 57.819 81.9153 59.0733 81.6561C59.236 81.6222 59.4027 81.6727 59.5188 81.7894C59.6349 81.9061 59.6843 82.0734 59.6504 82.2349L58.8692 85.9448C58.8301 86.1333 58.6841 86.2805 58.4962 86.3213C57.7822 86.4777 57.0108 86.5547 56.1572 86.5547Z" fill="#1E1E1E"/>
<path d="M58.2606 103.912L63.6804 107.409L66.0463 103.014L58.1105 86.3858C57.3611 86.5068 56.6571 86.567 55.9791 86.567L58.2606 103.912ZM63.8597 108.594C63.7673 108.594 63.6748 108.567 63.5954 108.516L57.541 104.61C57.4207 104.532 57.3401 104.405 57.3215 104.263L54.9369 86.1284C54.9177 85.9845 54.9636 85.8393 55.0622 85.7333C55.1602 85.6266 55.3017 85.5664 55.4456 85.5769C56.3326 85.6228 57.2687 85.5521 58.3034 85.3617C58.5205 85.3232 58.737 85.433 58.8326 85.6321L67.0345 102.817C67.1015 102.958 67.0978 103.122 67.024 103.259L64.2896 108.337C64.2251 108.457 64.1134 108.544 63.9819 108.578C63.9416 108.589 63.9006 108.594 63.8597 108.594Z" fill="#1E1E1E"/>
<defs>
<linearGradient id="paint0_linear_16216_7611" x1="80.9006" y1="-66.6385" x2="98.1257" y2="-68.6563" gradientUnits="userSpaceOnUse">
<stop stop-color="#FF7F00"/>
<stop offset="0.672244" stop-color="#FF7F00"/>
<stop offset="1" stop-color="#E22B4B"/>
</linearGradient>
<linearGradient id="paint1_linear_16216_7611" x1="163.239" y1="-84.0149" x2="181.087" y2="-86.1058" gradientUnits="userSpaceOnUse">
<stop stop-color="#FF7F00"/>
<stop offset="0.672244" stop-color="#FF7F00"/>
<stop offset="1" stop-color="#E22B4B"/>
</linearGradient>
</defs>
</svg>
