<svg width="16" height="16" viewBox="0 0 16 16" fill="none" xmlns="http://www.w3.org/2000/svg">
<path d="M7.99935 6.0026C9.28801 6.0026 10.3327 4.95794 10.3327 3.66927C10.3327 2.38061 9.28801 1.33594 7.99935 1.33594C6.71068 1.33594 5.66602 2.38061 5.66602 3.66927C5.66602 4.95794 6.71068 6.0026 7.99935 6.0026Z" stroke="#1E1E1E" stroke-width="1.2" stroke-linecap="round" stroke-linejoin="round"/>
<path d="M1.33398 13.6693C1.33398 10.7237 4.02028 8.33594 7.33398 8.33594" stroke="#1E1E1E" stroke-width="1.2" stroke-linecap="round" stroke-linejoin="round"/>
<path d="M10.6173 9.33594C9.90855 9.33594 9.33398 10.0055 9.33398 10.8314C9.33398 12.3268 10.8507 13.6864 11.6673 14.0026C12.484 13.6864 14.0007 12.3268 14.0007 10.8314C14.0007 10.0055 13.4261 9.33594 12.7173 9.33594C12.2833 9.33594 11.8996 9.58704 11.6673 9.97134C11.4351 9.58704 11.0514 9.33594 10.6173 9.33594Z" stroke="#1E1E1E" stroke-width="1.2" stroke-linecap="round" stroke-linejoin="round"/>
</svg>
