<svg width="295" height="213" viewBox="0 0 295 213" fill="none" xmlns="http://www.w3.org/2000/svg">
<path opacity="0.1" d="M144.131 -245.908C183.397 -271.225 220.161 -257.164 242.222 -232.263C264.085 -207.587 262.385 -162.081 226.683 -125.253C236.833 -134.897 278.251 -156.709 313.193 -137.259C349.408 -117.101 354.111 -85.0319 346.673 -57.3386C335.003 -13.8857 305.328 18.9894 277.983 45.7038C303.373 37.0129 344.025 28.433 374.829 50.4548C405.633 72.4765 410.858 120.225 357.533 159.328C304.208 198.431 180.8 252.677 131.957 164.689C112.371 129.406 130.426 87.8426 143.337 66.0454C148.927 56.6094 166.498 29.341 196.665 -4.16663C156.629 32.5247 80.6529 77.117 33.2813 40.0731C-61.4617 -34.0144 73.8754 -200.612 144.131 -245.908Z" fill="#7DADFE"/>
</svg>
