<svg width="16" height="17" viewBox="0 0 16 17" fill="none" xmlns="http://www.w3.org/2000/svg">
<path d="M7.65211 4.76564C7.65274 4.76338 7.65306 4.76224 7.65321 4.76172C7.75272 4.41276 8.24728 4.41276 8.34679 4.76172C8.34694 4.76224 8.34726 4.76338 8.34789 4.76564C8.34957 4.77159 8.35041 4.77457 8.35121 4.77737C8.81361 6.41021 10.0898 7.68639 11.7226 8.14879C11.7254 8.14959 11.7284 8.15043 11.7344 8.15211C11.7366 8.15274 11.7378 8.15306 11.7383 8.15321C12.0872 8.25272 12.0872 8.74728 11.7383 8.84679C11.7378 8.84694 11.7366 8.84726 11.7344 8.84789C11.7284 8.84957 11.7254 8.85041 11.7226 8.85121C10.0898 9.31361 8.81361 10.5898 8.35121 12.2226C8.35041 12.2254 8.34957 12.2284 8.34789 12.2344C8.34726 12.2366 8.34694 12.2378 8.34679 12.2383C8.24728 12.5872 7.75272 12.5872 7.65321 12.2383C7.65306 12.2378 7.65274 12.2366 7.65211 12.2344C7.65043 12.2284 7.64959 12.2254 7.64879 12.2226C7.18639 10.5898 5.91021 9.31361 4.27737 8.85121C4.27457 8.85041 4.27159 8.84957 4.26564 8.84789C4.26338 8.84726 4.26224 8.84694 4.26172 8.84679C3.91276 8.74728 3.91276 8.25272 4.26172 8.15321C4.26224 8.15306 4.26338 8.15274 4.26564 8.15211C4.27159 8.15043 4.27457 8.14959 4.27737 8.14879C5.91021 7.68639 7.18639 6.41021 7.64879 4.77737C7.64959 4.77457 7.65043 4.77159 7.65211 4.76564Z" fill="#7DADFE"/>
</svg>
