<svg width="247" height="200" viewBox="0 0 247 200" fill="none" xmlns="http://www.w3.org/2000/svg">
<path d="M24.8987 45.5452L25.9685 25.5764L47.0069 25.9331L55.2084 6.67747L75.5337 15.2355L92.2933 2.39844L106.913 15.2355L128.665 7.74724L136.866 25.5764L154.696 29.4989L156.122 48.0413L173.951 58.7388L167.533 74.7851L179.3 86.9091L170.385 97.6066L51.6425 173.916L42.0148 156.443L23.4724 156.087L23.1157 133.978L7.42606 124.707L13.1314 106.878L1.7207 93.3275L11.3485 74.072L4.57334 56.2427L24.8987 45.5452Z" fill="#FCAF27"/>
<path d="M55.208 6.6875L70.5412 43.4157L79.8124 36.2841L75.5334 15.2455L55.208 6.6875Z" fill="#F98C28"/>
<path d="M25.9683 25.5859L54.4951 52.3299L58.7741 44.485L47.0067 25.9426L25.9683 25.5859Z" fill="#F98C28"/>
<path d="M4.5752 56.2366L40.9469 66.5775L44.3422 59.8335L24.9006 45.5391L4.5752 56.2366Z" fill="#F98C28"/>
<path d="M1.7207 93.3415L37.7357 91.5586L35.2397 78.3649L11.3485 74.0859L1.7207 93.3415Z" fill="#F98C28"/>
<path d="M7.42676 124.714L36.3101 112.946L34.5272 105.102L13.1321 106.884L7.42676 124.714Z" fill="#F98C28"/>
<path d="M23.4709 156.078L47.7187 132.187L43.4396 126.125L23.1143 133.97L23.4709 156.078Z" fill="#F98C28"/>
<path d="M51.6429 173.914L59.8443 141.464L53.7824 137.898L42.0151 156.441L51.6429 173.914Z" fill="#F98C28"/>
<path d="M92.2934 2.39844L91.2236 34.1345L102.278 35.5608L106.913 15.2355L92.2934 2.39844Z" fill="#F98C28"/>
<path d="M128.664 7.75L113.687 40.5558L123.671 44.4782L136.865 25.5792L128.664 7.75Z" fill="#F98C28"/>
<path d="M154.696 29.5L131.875 51.6082L140.293 58.2594L156.122 48.0424L154.696 29.5Z" fill="#F98C28"/>
<path d="M173.5 58.8125L142.927 69.7891L144.71 77.634L167.919 74.7193L173.5 58.8125Z" fill="#F98C28"/>
<path d="M51.6426 175.368C51.5238 175.368 51.4046 175.354 51.2878 175.324C50.8999 175.226 50.5698 174.971 50.3769 174.621L41.1522 157.88L23.4444 157.539C22.6662 157.524 22.0397 156.896 22.0272 156.117L21.6838 134.818L6.69048 125.959C6.11 125.616 5.8436 124.917 6.04944 124.274L11.5115 107.205L0.615038 94.266C0.243518 93.8248 0.170077 93.2049 0.427917 92.6889L9.77208 74.0003L3.22248 56.7636C2.96312 56.0808 3.25376 55.3118 3.90024 54.9716L23.499 44.6561L24.5252 25.5067C24.5662 24.7387 25.2014 24.1389 25.9678 24.1389C25.976 24.1389 25.9842 24.1391 25.9928 24.1391L46.0584 24.4793L53.8783 6.11876C54.19 5.38692 55.0346 5.04372 55.769 5.35316L75.3209 13.5856L91.4142 1.2586C91.9619 0.840037 92.7283 0.86508 93.2466 1.31996L107.236 13.6036L128.194 6.38836C128.895 6.14676 129.667 6.47628 129.978 7.15084L137.879 24.3272L155.006 28.0952C155.628 28.2321 156.087 28.7604 156.136 29.3958L157.505 47.1939L174.694 57.5074C175.303 57.8722 175.556 58.6246 175.293 59.2832L169.222 74.4589L180.337 85.9103C180.851 86.4405 180.883 87.274 180.41 87.842L171.495 98.5394C171.401 98.6523 171.29 98.7504 171.166 98.8298L52.4235 175.139C52.1886 175.29 51.9172 175.368 51.6426 175.368ZM24.8946 154.676L42.0426 155.006C42.5594 155.016 43.0313 155.301 43.2806 155.753L52.1622 171.872L169.417 96.5185L177.358 86.9904L166.495 75.7992C166.099 75.39 165.979 74.7856 166.191 74.256L172.152 59.3525L155.379 49.288C154.977 49.0472 154.717 48.6267 154.681 48.1597L153.337 30.6872L136.556 26.9955C136.114 26.8982 135.743 26.5994 135.554 26.188L127.899 9.547L107.384 16.6095C106.894 16.778 106.35 16.671 105.96 16.329L92.231 4.27412L76.4122 16.3904C76.0004 16.7062 75.4504 16.7763 74.9727 16.5749L55.9739 8.57532L48.3368 26.5069C48.1059 27.0481 47.5665 27.3817 46.9825 27.3856L27.3368 27.0526L26.3415 45.6301C26.3142 46.1381 26.022 46.5946 25.5716 46.8315L6.37904 56.9331L12.6994 73.5663C12.8427 73.9441 12.8216 74.3645 12.6411 74.7259L3.4384 93.1313L14.2368 105.955C14.5567 106.335 14.659 106.853 14.5075 107.326L9.1536 124.057L23.8509 132.742C24.2837 132.998 24.5524 133.46 24.5606 133.962L24.8946 154.676Z" fill="#1E1E1E"/>
<path d="M91.5807 153.954C125.454 153.954 152.913 126.495 152.913 92.6217C152.913 58.7486 125.454 31.2891 91.5807 31.2891C57.7076 31.2891 30.248 58.7486 30.248 92.6217C30.248 126.495 57.7076 153.954 91.5807 153.954Z" fill="#FEDA24"/>
<g opacity="0.6">
<path d="M151.246 78.3742C144.822 51.3726 120.548 31.2891 91.5807 31.2891C57.7077 31.2891 30.248 58.7486 30.248 92.6217C30.248 98.9479 31.2066 105.05 32.9851 110.792C31.8972 106.219 31.3178 101.45 31.3178 96.5441C31.3178 70.0469 48.1212 47.4753 71.6529 38.9012C71.6151 39.1219 71.6034 39.3441 71.6192 39.5669C71.8713 43.1295 79.0298 45.5255 87.6084 44.9185C96.1869 44.3115 102.937 40.9315 102.685 37.3689C102.65 36.8717 102.475 36.3983 102.186 35.9515C125.469 39.5866 144.414 56.3166 151.246 78.3742Z" fill="white"/>
</g>
<path d="M140.872 56.1016C141.982 60.7192 142.575 65.5388 142.575 70.4973C142.575 104.37 115.115 131.83 81.2423 131.83C61.0448 131.83 43.1295 122.065 31.9541 107.001C38.4317 133.928 62.6688 153.938 91.5833 153.938C125.456 153.938 152.916 126.479 152.916 92.6056C152.916 78.93 148.438 66.3014 140.872 56.1016Z" fill="#FCAF27"/>
<path d="M91.5834 155.391C56.9674 155.391 28.8057 127.23 28.8057 92.6137C28.8057 57.9979 56.9674 29.8359 91.5834 29.8359C126.199 29.8359 154.361 57.9979 154.361 92.6137C154.361 127.23 126.199 155.391 91.5834 155.391ZM91.5834 32.7262C58.5612 32.7262 31.6955 59.5916 31.6955 92.6137C31.6955 125.636 58.5611 152.501 91.5834 152.501C124.605 152.501 151.471 125.636 151.471 92.6137C151.471 59.5916 124.605 32.7262 91.5834 32.7262Z" fill="#1E1E1E"/>
<path d="M92.2951 100.807C92.1795 100.807 92.0638 100.805 91.9482 100.799C89.3353 100.684 87.2107 99.3025 85.9662 96.9083C85.6681 96.3357 85.8911 95.6302 86.4639 95.3323C87.0357 95.035 87.7416 95.2571 88.0396 95.8301C89.1209 97.9089 90.8177 98.41 92.0513 98.4645C94.2466 98.5618 96.5704 97.3437 97.7423 95.5052C98.4064 94.4641 98.9704 92.787 97.8896 90.7081C97.5915 90.1355 97.8146 89.4298 98.3873 89.132C98.9591 88.8343 99.6651 89.0572 99.9631 89.6297C101.208 92.0238 101.119 94.5568 99.7131 96.7619C98.1502 99.2124 95.2041 100.807 92.2951 100.807Z" fill="#1E1E1E"/>
<path d="M76.1014 117.197C78.8213 115.783 80.3322 113.302 79.476 111.655C78.6198 110.009 75.7209 109.821 73.001 111.236C70.2811 112.65 68.7702 115.131 69.6264 116.778C70.4826 118.424 73.3815 118.612 76.1014 117.197Z" fill="#FF8383"/>
<path d="M121.979 93.3145C124.699 91.9 126.21 89.4188 125.354 87.7725C124.498 86.1262 121.599 85.9383 118.879 87.3529C116.159 88.7674 114.648 91.2486 115.504 92.8949C116.361 94.5412 119.259 94.7291 121.979 93.3145Z" fill="#FF8383"/>
<path d="M73.9859 101.907C77.6887 99.9787 78.8851 94.949 76.6581 90.673C74.4312 86.397 69.6241 84.4939 65.9213 86.4223C62.2185 88.3508 61.0221 93.3805 63.2491 97.6565C65.476 101.933 70.2831 103.836 73.9859 101.907Z" fill="#1E1E1E"/>
<path d="M72.0547 93.732C73.262 93.1033 73.5954 91.3546 72.7995 89.8263C72.0035 88.298 70.3796 87.5687 69.1723 88.1975C67.965 88.8262 67.6316 90.5749 68.4275 92.1032C69.2235 93.6315 70.8474 94.3608 72.0547 93.732Z" fill="white"/>
<g opacity="0.2">
<path d="M69.7844 99.951C70.453 99.6028 70.5584 98.482 70.0197 97.4477C69.481 96.4134 68.5023 95.8572 67.8337 96.2054C67.1651 96.5536 67.0597 97.6744 67.5984 98.7087C68.1371 99.743 69.1158 100.299 69.7844 99.951Z" fill="white"/>
</g>
<path d="M110.385 83.0119C114.091 81.0881 115.293 76.0597 113.072 71.7808C110.85 67.5019 106.045 65.5927 102.34 67.5166C98.6346 69.4404 97.4319 74.4688 99.6535 78.7477C101.875 83.0266 106.68 84.9357 110.385 83.0119Z" fill="#1E1E1E"/>
<path d="M104.814 76.7229C106.022 76.0956 106.358 74.3473 105.564 72.818C104.77 71.2886 103.147 70.5573 101.938 71.1846C100.73 71.8118 100.395 73.5601 101.189 75.0895C101.983 76.6188 103.606 77.3501 104.814 76.7229Z" fill="white"/>
<g opacity="0.2">
<path d="M111.191 78.4081C111.86 78.0608 111.967 76.9401 111.429 75.9051C110.892 74.8701 109.914 74.3127 109.245 74.6601C108.576 75.0074 108.469 76.1281 109.006 77.1631C109.544 78.1981 110.522 78.7555 111.191 78.4081Z" fill="white"/>
</g>
<path d="M102.556 195.088C119.039 200.578 138.199 199.47 153.684 193.042C170.324 201.168 187.54 201.05 205.103 195.964C242.499 208.527 263.827 157.107 229.644 138.409C225.391 115.37 208.901 104.227 188.742 106.856C175.011 75.3031 126.221 80.5619 116.872 108.901C98.4231 103.47 80.3522 117.374 79.7679 136.072C48.507 143.96 46.1698 204.729 102.556 195.088Z" fill="#F8FAFB"/>
<g opacity="0.3">
<path d="M79.8732 137.58C81.4202 120.234 98.0585 107.549 115.431 111.729C116.248 111.925 117.075 111.491 117.378 110.708C127.696 84.0115 173.846 79.1868 188.122 108.713C188.508 109.511 189.344 109.987 190.226 109.901C209.708 107.996 225.498 119.151 229.647 141.623C241.061 147.866 246.284 157.758 246.788 167.697C247.339 156.72 242.292 145.326 229.647 138.409C225.394 115.37 208.904 104.227 188.745 106.856C175.014 75.3031 126.224 80.5619 116.875 108.901C98.4261 103.47 80.3552 117.374 79.7708 136.072C65.4584 139.683 57.2107 154.379 57.884 168.328C58.4829 155.951 65.8896 143.699 78.1267 139.757C79.0913 139.446 79.7832 138.59 79.8732 137.58Z" fill="white"/>
</g>
<path d="M246.463 161.312C243.995 177.63 229.302 191.904 209.181 187.469C211.674 186.549 213.629 184.867 214.57 182.8C214.885 182.107 215.585 181.662 216.343 181.739C216.777 181.783 217.219 181.806 217.669 181.806C223.397 181.806 228.041 178.123 228.041 173.581C228.041 173.387 228.032 173.196 228.015 173.006C227.965 172.439 227.224 172.239 226.917 172.718C225.205 175.39 221.707 177.221 217.669 177.221C213.619 177.221 210.114 175.38 208.407 172.696C208.106 172.223 207.377 172.422 207.325 172.98C207.307 173.178 207.297 173.378 207.297 173.581C207.297 176.684 209.466 179.386 212.666 180.786C210.765 182.536 207.956 183.649 204.814 183.649C200.844 183.649 197.397 181.879 195.654 179.28C195.308 178.763 194.495 178.973 194.456 179.594C194.447 179.731 194.443 179.869 194.443 180.008C194.443 182.695 196.068 185.08 198.581 186.58C199.201 186.951 199.059 187.887 198.353 188.039C185.227 190.86 172.313 190.639 159.709 185.987C162.829 184.524 164.935 181.762 164.935 178.592C164.935 178.377 164.925 178.163 164.905 177.951C164.854 177.394 164.123 177.2 163.83 177.678C162.131 180.453 158.642 182.357 154.611 182.357C152.448 182.357 150.445 181.804 148.787 180.867C152.971 179.24 155.878 175.67 155.878 171.524C155.878 171.062 155.841 170.607 155.77 170.161C155.693 169.677 155.039 169.573 154.808 170.007C152.904 173.584 148.65 176.075 143.705 176.075C138.853 176.075 134.666 173.676 132.711 170.205C132.429 169.704 131.678 169.84 131.604 170.411C131.557 170.777 131.533 171.148 131.533 171.524C131.533 177.203 136.983 181.806 143.705 181.806C143.733 181.806 143.76 181.806 143.787 181.806C144.528 181.801 145.208 182.172 145.628 182.782C146.32 183.788 147.254 184.666 148.365 185.362C138.135 188.655 126.73 189.776 115.735 188.407C115.036 188.319 114.881 187.39 115.51 187.073C119.064 185.285 121.403 182.246 121.403 178.796C121.403 178.363 121.366 177.937 121.293 177.518C121.203 176.995 120.512 176.864 120.239 177.319C118.161 180.79 113.513 183.207 108.11 183.207C102.767 183.207 98.1629 180.843 96.0514 177.435C95.7473 176.944 94.9934 177.081 94.9052 177.651C94.8471 178.027 94.817 178.409 94.817 178.796C94.817 181.626 96.3928 184.178 98.9193 185.992C72.8198 189.192 60.3781 176.471 58.1967 161.89C55.5134 180.487 68.0159 201.005 102.559 195.099C119.042 200.59 138.202 199.481 153.687 193.054C170.327 201.179 187.543 201.061 205.106 195.975C231.351 204.792 249.68 182.096 246.463 161.312Z" fill="#ECF1F7"/>
</svg>
