<svg width="203" height="245" viewBox="0 0 203 245" fill="none" xmlns="http://www.w3.org/2000/svg">
<path fill-rule="evenodd" clip-rule="evenodd" d="M113.228 104.037C100.896 94.5886 96.2265 75.8717 92.1184 63.521C88.0103 51.1702 76.7802 47.9654 59.8534 44.3158C44.8003 41.0709 19.5712 40.4859 14.4562 46.4139C12.8693 48.4009 14.9038 50.1159 17.1906 50.0709C14.2196 54.1975 19.6266 57.2786 22.7364 55.331C22.7821 61.2572 26.9541 61.523 30.2116 59.5302C29.0678 64.7218 33.6015 66.0924 36.8295 65.2401C37.0304 69.9325 42.4029 71.3913 43.9991 69.5889C42.5165 73.5992 47.0581 76.7487 50.3591 76.0707C49.0218 77.4479 48.7629 78.8907 49.1053 80.1538C49.5478 80.8413 49.9729 81.5548 50.3794 82.2977C51.4043 83.3375 52.7978 83.9604 53.9028 83.8246C52.7046 85.1113 52.4389 86.3838 52.8172 87.608C52.876 87.7628 52.9345 87.9186 52.9929 88.0744C53.5311 89.2878 54.6783 90.4473 56.1426 91.5157C53.8969 94.1451 56.5053 98.6779 59.0776 98.6401C57.5183 102.728 59.4577 104.006 62.0594 104.864C60.9176 110.105 62.5017 111.534 66.0319 112.769C65.2282 118.146 68.5822 120.784 71.5445 120.511C70.7106 123.078 72.5906 126.486 75.0257 128.062L75.2971 129.228C79.0666 133.416 83.1558 137.058 87.4477 139.735C96.6294 145.461 119.991 109.22 113.228 104.037Z" fill="#F2F2F2"/>
<path fill-rule="evenodd" clip-rule="evenodd" d="M30.5283 42.0375C23.007 42.4358 16.7878 43.7729 14.4877 46.3814C12.8436 48.3846 14.889 50.1218 17.1905 50.0769C14.2203 54.2032 19.6269 57.2854 22.7374 55.3375C22.7831 61.2636 26.9545 61.5298 30.2126 59.5366C29.0688 64.7282 33.6026 66.0988 36.8306 65.2465C37.0315 69.939 42.404 71.3977 44.0002 69.5954C42.5183 73.6053 47.0591 76.7551 50.3602 76.0771C47.1634 79.3709 50.6837 84.2258 53.9042 83.8318C51.1181 86.8221 53.5288 89.6155 56.1433 91.5232C53.8972 94.1519 56.506 98.6855 59.0779 98.6469C57.5186 102.734 59.458 104.012 62.0597 104.871C61.1014 109.271 61.764 111.282 66.0318 112.775C62.27 115.917 67.4136 120.898 71.5445 120.517C67.7179 124.287 71.4422 128.264 75.0264 128.068C72.2234 133.717 80.163 134.126 84.7416 137.737C84.9349 137.186 85.1176 136.621 85.2897 136.04C81.7801 134.363 83.3726 126.061 85.6262 122.458C69.0667 129.324 75.9986 119.21 81.6022 116.715C65.2044 120.016 66.073 113.05 78.0052 108.952C62.191 112.756 62.5821 106.104 75.226 101.829C59.411 105.715 59.1211 97.8587 73.0022 95.1897C57.4653 99.5362 55.8696 91.3275 70.9 87.0157C56.9404 89.3928 53.5377 85.2761 66.6176 76.7135C52.9176 83.2406 47.3918 77.7098 61.2764 67.3583C49.5072 75.3246 40.1598 75.3682 51.7609 60.7986C42.0942 69.2929 35.6476 65.4795 45.7938 54.4841C36.1317 63.4445 29.9032 60.0418 42.2504 47.5006C31.7064 58.3018 32.3418 48.8264 36.2049 43.9681C33.9856 43.8238 27.9517 44.4782 29.6981 42.6845C29.9385 42.4548 30.2169 42.2387 30.5283 42.0375Z" fill="#F8FAFB"/>
<path fill-rule="evenodd" clip-rule="evenodd" d="M113.229 104.04C100.897 94.5912 96.2274 75.8744 92.1193 63.5236C88.0113 51.1728 76.7812 47.968 59.8543 44.3185C53.5498 42.959 45.4602 42.0677 37.8101 41.9251C59.9409 47.1835 73.857 50.1787 82.3642 55.6391C90.8715 61.0994 97.608 94.7115 106.05 103.809C114.49 112.906 111.11 108.745 113.89 110.823C114.738 107.632 114.661 105.137 113.229 104.04Z" fill="#F8FAFB"/>
<path fill-rule="evenodd" clip-rule="evenodd" d="M37.808 41.9264C27.2314 41.729 17.4995 42.964 14.488 46.3804C12.8439 48.3836 14.8887 50.1212 17.1901 50.0763C14.2192 54.2029 19.6262 57.284 22.736 55.3364C22.7816 61.2626 26.9537 61.5284 30.2111 59.5356C29.1971 64.137 32.643 65.736 35.6869 65.4475C30.2902 57.2695 31.3139 48.8169 37.808 41.9264Z" fill="#52565C" stroke="#52565C" stroke-width="0.216" stroke-miterlimit="22.9256"/>
<path fill-rule="evenodd" clip-rule="evenodd" d="M116.823 107.592C127.141 119.206 146.146 122.508 158.762 125.709C171.378 128.911 175.389 139.879 180.256 156.497C184.584 171.274 186.996 196.395 181.454 201.927C179.588 203.653 177.73 201.749 177.609 199.465C173.709 202.727 170.243 197.557 171.96 194.314C166.046 194.698 165.479 190.557 167.229 187.163C162.134 188.681 160.439 184.258 161.055 180.977C156.36 181.117 154.516 175.864 156.197 174.142C152.306 175.91 148.835 171.61 149.272 168.268C147.994 169.701 146.575 170.064 145.291 169.815C144.572 169.423 143.83 169.052 143.06 168.699C141.948 167.753 141.226 166.407 141.281 165.296C140.085 166.584 138.834 166.941 137.586 166.653C137.428 166.606 137.269 166.559 137.108 166.513C135.859 166.064 134.62 165.004 133.448 163.62C130.989 166.052 126.278 163.778 126.13 161.21C122.167 163.061 120.751 161.219 119.706 158.687C114.563 160.206 113.023 158.73 111.535 155.298C106.23 156.491 103.355 153.336 103.413 150.362C100.914 151.379 97.3783 149.751 95.6299 147.436L94.4476 147.249C89.9959 143.794 86.068 139.979 83.087 135.893C76.711 127.149 111.164 101.222 116.823 107.592Z" fill="#F2F2F2"/>
<path fill-rule="evenodd" clip-rule="evenodd" d="M184.666 188.06C184.924 205.446 177.727 201.758 177.605 199.459C173.705 202.721 170.239 197.552 171.956 194.308C166.043 194.692 165.475 190.551 167.226 187.158C162.131 188.675 160.435 184.252 161.051 180.971C156.357 181.111 154.512 175.858 156.194 174.136C152.302 175.905 148.831 171.604 149.268 168.262C146.215 171.689 141.118 168.531 141.277 165.29C138.497 168.286 135.536 166.084 133.444 163.614C130.985 166.045 126.274 163.772 126.126 161.203C122.163 163.055 120.747 161.213 119.702 158.68C115.384 159.955 113.33 159.44 111.531 155.292C108.06 156.072 103.329 154.495 103.409 150.355C100.653 151.476 98.3129 149.668 96.24 148.141C96.0177 147.914 95.812 147.675 95.6259 147.43L95.1963 147.362C91.5226 144.577 88.1474 141.582 85.2778 138.441C86.7205 137.814 88.2748 137.254 89.9489 136.767C92.2001 138.665 94.6519 140.472 97.2362 142.171L97.6552 142.209C97.8496 142.434 98.0635 142.65 98.2933 142.855C97.3872 148.283 101.269 151.403 109.222 140.615C104.453 155.683 110.589 155.613 114.179 141.22C110.243 158.709 118.341 162.144 122.521 142.837C118.182 159.847 125.939 162.794 129.591 146.304C126.403 160.399 132.785 165.594 136.875 149.119C134.497 163.999 140.831 163.829 145.815 150.799C141.703 165.411 149.252 169.253 153.149 152.825C149.21 172.439 155.782 171.058 162.591 157.646C156.073 175.496 163.652 181.92 171.184 167.041C166.03 183.497 176.457 186.262 184.157 178.541C181.849 183.71 183 191.267 184.666 188.06Z" fill="#F8FAFB"/>
<path fill-rule="evenodd" clip-rule="evenodd" d="M116.827 107.598C127.145 119.212 146.15 122.513 158.767 125.714C171.382 128.917 175.393 139.885 180.26 156.502C182.073 162.692 183.548 170.695 184.245 178.316C177.396 156.624 173.4 142.962 167.337 134.872C161.275 126.784 127.262 122.501 117.577 114.742C107.892 106.982 112.288 110.053 110.014 107.431C113.135 106.352 115.628 106.249 116.827 107.598Z" fill="#F8FAFB"/>
<path fill-rule="evenodd" clip-rule="evenodd" d="M184.238 178.308C185.202 188.843 184.674 198.638 181.486 201.89C179.607 203.674 177.727 201.761 177.604 199.462C173.704 202.724 170.238 197.555 171.955 194.312C166.042 194.696 165.474 190.554 167.225 187.161C162.709 188.506 160.865 185.185 160.932 182.128C169.48 186.919 177.837 185.284 184.238 178.308Z" fill="#52565C" stroke="#52565C" stroke-width="0.216" stroke-miterlimit="22.9256"/>
<path fill-rule="evenodd" clip-rule="evenodd" d="M132.052 119.946C122.468 132.548 104.266 144.439 94.4811 148.221C83.4004 152.505 79.1392 158.544 73.638 167.6C71.1696 171.662 62.2383 174.298 63.035 166.941C57.3668 169.854 52.3619 162.674 55.2623 157.752C48.0825 157.908 48.6122 149.701 55.1565 146.476C71.5107 138.417 73.9963 139.229 80.0926 129.501C84.8391 121.927 101.333 106.452 114.682 99.1599C120.352 96.0621 125.503 94.7806 131.535 91.2995C135.778 88.8493 140.567 86.3407 145.504 88.8492C152.324 92.3139 150.169 95.6517 145.859 100.227C135.903 110.794 139.21 110.531 132.052 119.946Z" fill="#EDEDED"/>
<path fill-rule="evenodd" clip-rule="evenodd" d="M95.6796 147.743C95.2685 147.917 94.8678 148.08 94.4819 148.229C83.4012 152.512 79.14 158.551 73.6388 167.608C71.1704 171.669 62.2391 174.305 63.0359 166.948C57.3676 169.862 52.3627 162.682 55.2631 157.76C48.0833 157.916 48.613 149.709 55.1573 146.484C70.0587 139.141 73.4464 139.161 78.5427 131.864C71.899 146.474 81.4285 151.573 95.6796 147.743Z" fill="#F8FAFB"/>
<path fill-rule="evenodd" clip-rule="evenodd" d="M107.14 103.88C108.33 103.138 113.529 99.7897 114.682 99.1597C120.352 96.0626 125.503 94.7804 131.535 91.2993C135.778 88.8491 140.567 86.3405 145.503 88.849C152.324 92.3138 150.169 95.6522 145.859 100.227C136.484 110.177 137.367 114.572 130.407 122.002C129.312 119.609 132.189 113.27 130.925 108.132C129.66 102.994 117.509 114.687 112.225 114.992C106.942 115.297 105.986 110.082 107.14 103.88Z" fill="#F8FAFB"/>
<path fill-rule="evenodd" clip-rule="evenodd" d="M140.519 96.322C142.73 97.0186 147.66 95.0509 151.858 97.1583C154.322 98.3947 155.21 96.4335 153.973 94.3277C153.119 92.8708 150.685 91.3358 148.672 92.1716C146.968 92.8791 151.322 93.5155 147.757 94.3448C144.192 95.1749 139.498 96.0011 140.519 96.322Z" fill="#FF8A42"/>
<path fill-rule="evenodd" clip-rule="evenodd" d="M140.943 94.1724C139.828 94.7219 138.47 94.2605 137.921 93.1454C137.371 92.0303 137.833 90.6723 138.948 90.1228C140.063 89.5733 141.421 90.0347 141.97 91.1498C142.52 92.2649 142.059 93.6229 140.943 94.1724Z" fill="#52565C" stroke="#52565C" stroke-width="0.216" stroke-miterlimit="22.9256"/>
<path fill-rule="evenodd" clip-rule="evenodd" d="M139.3 92.483C138.822 92.7182 138.24 92.5203 138.004 92.0429C137.769 91.5648 137.966 90.9835 138.444 90.7478C138.923 90.5122 139.504 90.7098 139.74 91.1879C139.975 91.6652 139.778 92.2474 139.3 92.483Z" fill="#F8FAFB"/>
<path fill-rule="evenodd" clip-rule="evenodd" d="M87.7095 129.763C88.9212 130.03 88.0993 132.309 86.6623 135.827C85.2257 139.345 85.702 141.92 84.7675 143.533C83.833 145.146 80.2218 149.953 78.7323 152.632C77.2423 155.311 76.8099 155.164 76.8199 153.431C76.8303 151.696 76.0524 151.143 74.3691 152.405C72.6854 153.666 72.665 152.164 74.1813 149.975C75.6967 147.787 79.9427 143.246 81.8342 141.088C83.7256 138.931 85.1513 137.437 85.454 134.982C85.757 132.527 86.3526 129.496 87.7095 129.763Z" fill="#FF8A42"/>
<path fill-rule="evenodd" clip-rule="evenodd" d="M97.0335 138.916C98.1937 139.171 97.4066 141.352 96.0317 144.718C94.6571 148.084 95.113 150.549 94.2187 152.093C93.3244 153.636 89.8688 158.235 88.4433 160.799C87.0177 163.363 86.604 163.223 86.6129 161.563C86.6225 159.904 85.8784 159.374 84.2676 160.582C82.6568 161.79 82.6375 160.351 84.0873 158.257C85.5374 156.164 89.6013 151.817 91.4108 149.753C93.2203 147.688 94.584 146.259 94.8743 143.909C95.1646 141.56 95.7344 138.659 97.0335 138.916Z" fill="#FF8A42"/>
</svg>
