<svg width="437" height="190" viewBox="0 0 437 190" fill="none" xmlns="http://www.w3.org/2000/svg">
<path opacity="0.1" d="M415.181 -104.26C397.816 -147.632 359.698 -157.446 327.295 -149.911C295.184 -142.443 270.23 -104.352 278.025 -53.6549C275.331 -67.3943 254.183 -109.154 214.431 -113.519C173.231 -118.044 150.834 -94.6155 140.869 -67.728C125.233 -25.5394 130.403 18.4452 137.239 56.0579C121.565 34.2743 93.3816 3.74742 55.5154 3.87454C17.6493 4.00163 -14.2498 39.9135 6.60039 102.666C27.4506 165.419 96.6832 281.086 187.443 237.608C223.837 220.174 233.172 175.83 235.26 150.582C236.164 139.652 237.62 107.245 232.416 62.4604C243.825 115.554 279.968 195.894 340.039 193.107C460.181 187.532 446.252 -26.6564 415.181 -104.26Z" fill="#7DADFE"/>
</svg>
