<svg width="437" height="190" viewBox="0 0 437 190" fill="none" xmlns="http://www.w3.org/2000/svg">
<path opacity="0.1" d="M415.181 206.541C397.816 249.913 359.698 259.728 327.295 252.192C295.184 244.724 270.23 206.633 278.025 155.936C275.331 169.676 254.183 211.435 214.431 215.801C173.231 220.325 150.834 196.897 140.869 170.009C125.233 127.821 130.403 83.8359 137.239 46.2233C121.565 68.0068 93.3816 98.5338 55.5154 98.4066C17.6492 98.2795 -14.2499 62.3677 6.60035 -0.385138C27.4506 -63.1379 96.6832 -178.805 187.443 -135.327C223.837 -117.893 233.172 -73.5488 235.26 -48.301C236.164 -37.3712 237.62 -4.96436 232.416 39.8207C243.825 -13.273 279.968 -93.6129 340.039 -90.8257C460.181 -85.2512 446.252 128.938 415.181 206.541Z" fill="#7DADFE"/>
</svg>
