<svg width="349" height="190" viewBox="0 0 349 190" fill="none" xmlns="http://www.w3.org/2000/svg">
<path opacity="0.1" d="M415.181 169.541C397.816 212.913 359.698 222.728 327.295 215.192C295.184 207.724 270.23 169.633 278.025 118.936C275.331 132.676 254.183 174.435 214.431 178.801C173.231 183.325 150.834 159.897 140.869 133.009C125.233 90.8206 130.403 46.8359 137.239 9.22325C121.565 31.0068 93.3816 61.5338 55.5154 61.4066C17.6492 61.2795 -14.2499 25.3677 6.60035 -37.3851C27.4506 -100.138 96.6832 -215.805 187.443 -172.327C223.837 -154.893 233.172 -110.549 235.26 -85.301C236.164 -74.3712 237.62 -41.9644 232.416 2.82075C243.825 -50.273 279.968 -130.613 340.039 -127.826C460.181 -122.251 446.252 91.9376 415.181 169.541Z" fill="#7DADFE"/>
</svg>
