<svg width="16" height="17" viewBox="0 0 16 17" fill="none" xmlns="http://www.w3.org/2000/svg">
<g clip-path="url(#clip0_16645_869)">
<path d="M6.36673 7.69896C6.36673 7.97439 6.292 8.21622 6.17993 8.38432C6.0671 8.55359 5.9295 8.63229 5.80007 8.63229C5.67063 8.63229 5.53303 8.55359 5.4202 8.38432C5.30813 8.21622 5.2334 7.97439 5.2334 7.69896C5.2334 7.42349 5.30813 7.18169 5.4202 7.01359C5.53303 6.84433 5.67063 6.76562 5.80007 6.76562C5.9295 6.76562 6.0671 6.84433 6.17993 7.01359C6.292 7.18169 6.36673 7.42349 6.36673 7.69896Z" fill="#1E1E1E" fill-opacity="0.7"/>
<path d="M10.7666 7.69896C10.7666 7.97439 10.6919 8.21622 10.5798 8.38432C10.467 8.55359 10.3294 8.63229 10.2 8.63229C10.0705 8.63229 9.93293 8.55359 9.8201 8.38432C9.70803 8.21622 9.6333 7.97439 9.6333 7.69896C9.6333 7.42349 9.70803 7.18169 9.8201 7.01359C9.93293 6.84433 10.0705 6.76562 10.2 6.76562C10.3294 6.76562 10.467 6.84433 10.5798 7.01359C10.6919 7.18169 10.7666 7.42349 10.7666 7.69896Z" fill="#1E1E1E" fill-opacity="0.7"/>
<path d="M6.16602 11.0859C6.80965 11.5192 7.42202 11.7358 8.00315 11.7358C8.58365 11.7358 9.15922 11.5196 9.72982 11.0873" stroke="#1E1E1E" stroke-opacity="0.7" stroke-width="1.4" stroke-linecap="round"/>
<path d="M10.5762 2.56933C10.6655 3.21383 10.469 3.68477 9.98651 3.98218C9.50405 4.27955 8.72015 4.41892 7.63485 4.40025M8.00008 15.036C10.8107 15.036 13.1869 12.809 13.9646 10.2525C14.1394 9.67775 15.3334 9.67775 15.3334 8.43595C15.3334 7.19412 14.128 7.12265 13.933 6.51862C13.1242 4.01415 10.7737 1.83594 8.00008 1.83594C5.22491 1.83594 2.87332 4.01618 2.06583 6.52282C1.87164 7.12562 0.666748 7.17232 0.666748 8.43595C0.666748 9.69955 1.86416 9.69955 2.04505 10.2833C2.83231 12.8239 5.20068 15.036 8.00008 15.036Z" stroke="#1E1E1E" stroke-opacity="0.7" stroke-width="1.4" stroke-linecap="round"/>
</g>
<defs>
<clipPath id="clip0_16645_869">
<rect width="16" height="16" fill="white" transform="translate(0 0.5)"/>
</clipPath>
</defs>
</svg>
