<svg width="110" height="132" viewBox="0 0 110 132" fill="none" xmlns="http://www.w3.org/2000/svg">
<g opacity="0.4">
<path d="M65.7946 10.3801C64.9887 9.53447 64.1587 8.6776 63.9167 8.50587C63.6987 8.34537 63.2659 8.14306 62.9549 8.05628C62.6567 8.0048 62.0521 8.04455 61.6046 8.18704C61.1571 8.32953 60.7159 8.70937 60.536 9.09418C60.3561 9.47898 60.2162 10.029 60.2368 10.361C60.2334 10.6817 60.5841 11.3731 60.9894 11.885C61.3947 12.3968 63.0547 14.1105 64.6988 15.6703C66.3557 17.2653 67.9598 18.6599 68.2964 18.8173C68.633 18.9746 69.3028 19.6101 69.8187 20.2615C70.3105 20.9016 71.2864 21.8853 71.9418 22.4261C73.1069 23.381 73.2271 23.4372 74.2342 23.3512C75.1113 23.2923 75.368 23.1192 75.6716 22.4699C75.898 22.0482 75.9417 21.4533 75.8024 21.1244C75.6632 20.7956 74.915 19.889 74.1587 19.1252C73.3783 18.3502 72.3432 17.3681 71.8095 16.9428C71.2871 16.4935 70.4827 15.7072 70.0052 15.1616C69.5278 14.6161 68.7074 13.6758 68.2044 13.0597C67.6773 12.4323 66.6006 11.2257 65.7946 10.3801Z" fill="#7DADFE"/>
<path d="M93.1513 8.89634C93.2412 8.70393 93.2047 8.21798 93.0639 7.82979C92.9102 7.40631 92.4952 6.97788 91.9662 6.73061C91.293 6.4159 91.0204 6.43499 90.6032 6.82608C90.2325 7.1803 90.0992 7.52824 90.1035 8.14569C90.1272 8.59636 89.9239 10.3476 89.6116 12.0185C89.3346 13.6766 89.1297 15.3685 89.1759 15.771C89.2334 16.1496 89.56 16.8297 89.9285 17.295C90.3082 17.7363 90.9396 18.2659 91.3243 18.4457C91.7812 18.6593 92.3632 18.6676 92.9278 18.4626C93.4218 18.2833 93.8775 17.9981 93.9449 17.8538C94.0476 17.6967 93.9808 16.9621 93.7954 16.2307C93.6339 15.5105 93.4666 14.1135 93.4528 13.14C93.4151 12.1553 93.3102 10.8755 93.1887 10.3205C93.0785 9.74148 93.0613 9.08874 93.1513 8.89634Z" fill="#7DADFE"/>
<path d="M78.2984 8.0782C77.6948 6.79967 76.5544 4.97717 75.7935 4.03534C75.0325 3.09352 74.2506 2.25913 74.1063 2.19169C73.938 2.11302 73.4056 2.18649 72.9115 2.36584C72.4175 2.54519 71.9394 2.8785 71.827 3.119C71.7258 3.33546 71.6499 4.06192 71.6671 4.71465C71.6858 5.42673 72.009 6.42766 72.4686 7.19932C72.9155 7.93569 73.7021 8.9481 74.2742 9.47926C74.8109 10.0232 75.4982 10.872 75.7256 11.3885C75.9641 11.881 76.4831 12.6511 76.85 13.0571C77.2169 13.463 77.933 14.501 78.407 15.3673C78.881 16.2336 79.3631 16.9572 79.4593 17.0022C79.5795 17.0584 79.9367 17.5477 80.2602 18.1092C80.768 18.9033 81.0596 19.1569 81.7042 19.2823C82.1451 19.3419 82.6294 19.246 82.7546 19.0408C82.9039 18.8468 82.789 18.0897 82.533 17.3839C82.2529 16.6669 81.7183 15.3034 81.3614 14.3746C81.0045 13.4459 80.4009 12.1673 80.0518 11.5353C79.6914 10.9272 78.902 9.35673 78.2984 8.0782Z" fill="#7DADFE"/>
<path d="M95.6994 24.0661C95.7301 23.8753 95.1758 23.118 94.4563 22.4007C93.7369 21.6834 92.8266 20.9356 92.4419 20.7557C92.0684 20.5518 91.2668 20.3237 90.7297 20.2191C90.1333 20.1162 89.3523 20.22 88.9079 20.4811C88.4508 20.707 87.987 21.135 87.8649 21.4588C87.7188 21.7715 87.3562 21.983 86.9521 21.9699C86.6074 21.9553 85.5682 22.1728 84.6844 22.4338C83.3292 22.8259 82.9907 23.0487 82.862 23.5746C82.7767 23.9451 82.6737 24.5416 82.6477 24.9104C82.5815 25.5535 82.5462 25.5663 81.8299 24.9677C81.4293 24.6339 80.7529 24.2005 80.3201 23.9982C79.8392 23.7734 79.2571 23.7651 78.6685 23.9588C78.1151 24.1397 77.4413 24.7039 76.9357 25.3467C76.4766 25.9527 76.1138 26.6036 76.1072 26.8057C76.1119 26.9837 75.709 27.4694 74.3116 28.5159L72.7793 27.5945C71.8993 27.0952 70.7099 26.5685 70.1007 26.4303C69.4674 26.2808 68.717 26.1937 68.4331 26.2369C67.9953 26.296 67.5497 26.0584 66.4824 25.2078C65.7067 24.6108 64.3268 23.6141 63.4197 22.9849C62.5013 22.3798 61.3394 21.5436 60.8425 21.1648C60.3217 20.7748 59.5491 20.2965 59.1404 20.1054C58.7188 19.879 57.9925 19.8032 57.5434 19.8864C57.0944 19.9695 56.4992 20.3653 56.2119 20.7292C55.8556 21.1781 55.6451 21.7537 55.627 22.4193C55.5976 23.1089 55.8281 23.7441 56.392 24.418C57.0809 25.3261 57.5265 25.5637 61.5051 27.3942C63.8967 28.4828 66.2628 29.5009 66.7534 29.6423C67.4235 29.8384 67.7264 30.0679 67.9056 30.5619C68.0721 31.0207 68.5448 31.3882 69.7246 31.9983C70.5902 32.4029 71.8933 33.1879 72.6193 33.7031C73.3453 34.2183 75.2655 35.4382 79.8127 38.1206L79.8751 40.4942C79.8854 41.7885 79.8685 42.9528 79.8011 43.0971C79.7336 43.2414 79.2156 43.4095 78.6479 43.4958C78.1042 43.5933 76.6078 44.0367 75.3374 44.4979C73.8201 45.0487 72.7809 45.2663 72.2662 45.1136C71.8478 45.006 70.6371 45.0261 69.6076 45.1603C68.5187 45.296 67.4585 45.621 67.0991 45.9511C66.7156 46.2701 66.3624 46.8376 66.2547 47.2561C66.1582 47.6506 66.249 48.3964 66.4411 48.9257C66.7852 49.8192 66.9182 49.9107 68.5614 50.5323C69.5216 50.9225 70.7754 51.1862 71.3446 51.1593C71.9139 51.1323 72.9194 50.987 73.5561 50.8157L73.6106 50.8011C74.2398 50.6319 75.041 50.4164 75.4182 50.2795C75.8064 50.1386 76.3404 50.1244 76.6049 50.2481C76.8693 50.3717 78.1425 50.4686 79.4478 50.4341C81.3239 50.4319 82.5396 50.1503 85.3641 49.1848C87.3289 48.4915 89.6241 47.7181 90.495 47.4219C91.6611 47.0585 92.7824 46.3519 94.8634 44.6579C96.4214 43.3934 98.1717 42.2188 98.7716 42.001C99.3714 41.7832 100.13 41.2881 100.464 40.8873C100.822 40.4978 101.323 39.677 101.604 39.0757C101.895 38.3911 102.062 37.5316 101.984 36.821C101.901 35.9325 101.587 35.2876 100.705 34.2303C100.043 33.4521 99.524 32.682 99.5081 32.528C99.5274 32.3612 99.0341 31.6617 98.4573 30.9525C97.8677 30.2081 97.2335 29.1204 97.0384 28.4724C96.856 27.8596 96.4688 26.6822 96.1744 25.8706C95.8927 25.0942 95.6688 24.2569 95.6994 24.0661Z" fill="#7DADFE"/>
</g>
<g opacity="0.6">
<path d="M45.7671 87.6787C46.5663 86.8267 47.3895 85.9633 47.6302 85.7896C47.8468 85.6274 48.278 85.4217 48.5884 85.3325C48.8862 85.2786 49.491 85.3136 49.9396 85.4525C50.3882 85.5915 50.8325 85.9678 51.0154 86.3512C51.1983 86.7346 51.3425 87.2834 51.3246 87.6156C51.3305 87.9363 50.9853 88.6305 50.5841 89.1455C50.1828 89.6605 48.5364 91.3873 46.9047 92.96C45.2605 94.5681 43.6675 95.9753 43.3321 96.1354C42.9968 96.2954 42.332 96.9361 41.8213 97.5916C41.3346 98.2356 40.3666 99.227 39.7154 99.7729C38.5579 100.737 38.4382 100.794 37.4304 100.716C36.5528 100.664 36.2948 100.493 35.9861 99.8462C35.7564 99.4264 35.7079 98.8318 35.8446 98.5018C35.9813 98.1719 36.7223 97.2594 37.4725 96.4897C38.2467 95.7085 39.2741 94.7183 39.8043 94.2888C40.3232 93.8353 41.1213 93.0427 41.5945 92.4934C42.0676 91.9441 42.8804 90.9973 43.3786 90.3773C43.9007 89.7458 44.9678 88.5306 45.7671 87.6787Z" fill="#7DADFE"/>
<path d="M18.3996 86.4114C18.3081 86.2197 18.3408 85.7335 18.4786 85.3442C18.6288 84.9195 19.0404 84.4878 19.5674 84.2363C20.2382 83.9163 20.5109 83.9332 20.9312 84.321C21.3047 84.6723 21.4408 85.0192 21.4413 85.6366C21.4211 86.0875 21.6383 87.837 21.9638 89.5054C22.2539 91.1613 22.4722 92.8515 22.4292 93.2544C22.3747 93.6334 22.0535 94.3161 21.6887 94.7843C21.3125 95.2285 20.6853 95.7631 20.302 95.946C19.8469 96.1631 19.2649 96.1761 18.6987 95.9756C18.2033 95.8002 17.7454 95.5186 17.6768 95.3748C17.5728 95.2185 17.6338 94.4834 17.8135 93.7506C17.9693 93.0291 18.1256 91.6309 18.1316 90.6573C18.1615 89.6723 18.2563 88.3917 18.3734 87.8358C18.479 87.2559 18.491 86.6031 18.3996 86.4114Z" fill="#7DADFE"/>
<path d="M33.2455 85.4758C33.8389 84.1925 34.9649 82.361 35.7184 81.4132C36.4719 80.4654 37.2472 79.6249 37.3909 79.5563C37.5586 79.4763 38.0916 79.5455 38.587 79.721C39.0824 79.8964 39.5631 80.2259 39.6775 80.4655C39.7804 80.6812 39.862 81.407 39.85 82.0599C39.8369 82.7721 39.5217 83.7755 39.0681 84.5508C38.6271 85.2907 37.8486 86.3093 37.2807 86.8449C36.7482 87.3931 36.0677 88.2473 35.8445 88.7656C35.6098 89.26 35.0969 90.0342 34.7332 90.443C34.3695 90.8519 33.6618 91.8955 33.1946 92.7655C32.7275 93.6355 32.2511 94.3629 32.1553 94.4086C32.0355 94.4658 31.6821 94.9579 31.3631 95.522C30.8616 96.3201 30.572 96.5759 29.9285 96.7065C29.488 96.7696 29.003 96.6774 28.8761 96.4732C28.7253 96.2804 28.8342 95.5225 29.0847 94.8147C29.3591 94.0955 29.8829 92.7278 30.2324 91.7962C30.582 90.8647 31.1754 89.5814 31.5195 88.9466C31.8751 88.3357 32.652 86.759 33.2455 85.4758Z" fill="#7DADFE"/>
<path d="M15.9715 101.601C15.9394 101.41 16.4876 100.649 17.2014 99.9256C17.9152 99.2027 18.8195 98.4477 19.2027 98.2648C19.5746 98.0579 20.3744 97.8234 20.9106 97.7146C21.5062 97.607 22.288 97.7046 22.7344 97.9622C23.1934 98.1845 23.6605 98.6088 23.7851 98.9317C23.9337 99.2432 24.298 99.4518 24.7019 99.4355C25.0465 99.4182 26.0875 99.6275 26.9732 99.8814C28.3316 100.263 28.6718 100.483 28.8046 101.008C28.8928 101.378 29.0006 101.973 29.0295 102.342C29.1007 102.984 29.1361 102.997 29.8477 102.393C30.2457 102.056 30.9186 101.617 31.3498 101.411C31.8289 101.183 32.4109 101.17 33.0011 101.359C33.5558 101.535 34.2341 102.094 34.7448 102.733C35.2086 103.335 35.5766 103.983 35.5848 104.185C35.5815 104.363 35.9882 104.846 37.3938 105.881L38.9188 104.948C39.7948 104.442 40.98 103.905 41.5882 103.762C42.2202 103.608 42.9699 103.515 43.2541 103.556C43.6924 103.611 44.1361 103.37 45.1966 102.511C45.9676 101.908 47.3395 100.901 48.2417 100.264C49.1552 99.6519 50.3105 98.8066 50.8043 98.4239C51.3221 98.0298 52.0908 97.5453 52.4981 97.351C52.9178 97.1213 53.6436 97.0398 54.0932 97.1194C54.5429 97.199 55.1412 97.5901 55.4314 97.9517C55.7913 98.3977 56.0063 98.9716 56.0297 99.637C56.0645 100.326 55.8391 100.963 55.2805 101.642C54.5988 102.555 54.1551 102.796 50.1911 104.658C47.8081 105.766 45.4502 106.803 44.9608 106.948C44.2922 107.149 43.9911 107.381 43.8158 107.877C43.653 108.337 43.1832 108.708 42.0083 109.327C41.1459 109.739 39.849 110.534 39.1271 111.055C38.4052 111.576 36.4948 112.811 31.9689 115.529L31.9253 117.903C31.9252 119.198 31.9513 120.362 32.0199 120.505C32.0885 120.649 32.6079 120.813 33.1762 120.895C33.7207 120.988 35.2205 121.42 36.4945 121.871C38.0161 122.41 39.057 122.619 39.5704 122.462C39.988 122.351 41.1988 122.362 42.2294 122.488C43.3193 122.615 44.382 122.932 44.7441 123.259C45.1301 123.575 45.4877 124.14 45.5988 124.557C45.6984 124.951 45.6134 125.697 45.4256 126.228C45.0886 127.124 44.9563 127.217 43.3181 127.851C42.361 128.249 41.1093 128.523 40.5399 128.501C39.9704 128.478 38.9638 128.341 38.3257 128.174L38.2711 128.16C37.6406 127.996 36.8377 127.787 36.4594 127.653C36.0702 127.515 35.5361 127.505 35.2726 127.631C35.0091 127.757 33.7368 127.864 32.4312 127.839C30.5552 127.852 29.3373 127.58 26.5052 126.637C24.535 125.959 22.2337 125.204 21.3605 124.915C20.1916 124.561 19.0647 123.863 16.9704 122.185C15.4025 120.933 13.6429 119.772 13.0413 119.559C12.4398 119.346 11.677 118.857 11.34 118.459C10.9791 118.073 10.4717 117.256 10.1859 116.657C9.88979 115.974 9.7156 115.116 9.78804 114.405C9.86374 113.516 10.1725 112.869 11.0468 111.804C11.7023 111.021 12.2152 110.247 12.2299 110.093C12.2092 109.926 12.6971 109.223 13.2682 108.509C13.8518 107.76 14.4774 106.667 14.6674 106.018C14.8449 105.403 15.2228 104.223 15.5108 103.409C15.7863 102.63 16.0036 101.791 15.9715 101.601Z" fill="#7DADFE"/>
</g>
</svg>
