<svg width="616" height="32" viewBox="0 0 616 32" fill="none" xmlns="http://www.w3.org/2000/svg">
<path d="M50.514 28.9415C49.0454 29.7316 53.7596 29.5059 50.554 30.6073C51.1912 30.7485 51.8391 30.8928 52.4766 31.033C52.6788 30.5482 52.8851 30.0649 53.0874 29.58C52.23 29.3673 51.3716 29.1536 50.5142 28.9391C50.5142 28.9399 50.5141 28.9407 50.514 28.9415ZM49.8225 22.6203C50.5008 24.1017 52.9901 24.6765 50.1666 25.7724C49.9883 25.2685 49.8055 24.7643 49.6288 24.2605C48.6541 24.563 47.6739 24.864 46.6994 25.1625C46.378 24.9495 46.0494 24.7356 45.7258 24.5242C45.2246 25.3344 44.726 26.1468 44.221 26.9583C44.6166 26.8666 45.0177 26.773 45.4108 26.6808C46.8759 27.4928 48.2141 27.7906 50.27 28.0812C50.0723 28.267 49.8745 28.4511 49.6772 28.6369C50.7568 28.3796 51.8297 28.1197 52.898 27.859C52.0187 27.4555 51.0333 27.005 50.2179 26.6274C51.6647 25.4073 53.9736 26.327 55.1891 26.6957C55.9865 26.9393 56.3233 26.91 56.5958 26.8557C56.884 26.7978 57.1008 26.7115 57.7343 26.8946C57.9301 26.9503 57.9187 27.4467 58.3101 27.4834C60.2922 27.6677 64.1694 27.6708 61.9925 26.3605C60.1063 26.3154 58.4052 25.921 56.6873 25.6128C55.4165 25.3854 54.1467 25.2054 52.774 25.2444C53.7226 23.9749 52.0716 23.3937 49.8225 22.6203ZM109.578 30.2429C108.606 29.5602 106.582 29.7516 105.193 30.1513C105.192 30.1512 105.19 30.1512 105.189 30.1511C104.884 30.2393 104.17 31.0768 105.154 31.0782C106.764 31.0772 107.584 29.7455 108.394 30.6971C108.776 30.5384 109.177 30.3992 109.578 30.2429ZM113.059 30.4371C114.054 30.1347 113.639 29.0974 112.4 29.3354C112.4 29.3345 112.4 29.3337 112.4 29.3329C111.883 29.4322 112.865 30.2742 111.05 29.3931C110.652 30.0197 110.263 30.5887 109.87 31.1944C110.321 31.2199 110.732 31.2503 111.206 31.2741C110.921 30.2134 112.066 30.7367 113.059 30.4371ZM63.6109 27.052C63.6999 28.0055 63.0581 27.9561 61.9078 28.5339C62.9518 28.5753 63.9943 28.6132 65.0301 28.6516C64.555 28.1179 64.0859 27.5862 63.6109 27.052ZM39.2106 25.3012C39.209 25.301 39.2075 25.3009 39.2059 25.3007C38.8776 25.1225 38.5504 24.9437 38.2302 24.7681C37.9965 25.0862 37.7652 25.403 37.5323 25.7211C36.3622 25.2998 35.1791 24.8757 34.0098 24.4491C34.0661 25.4894 36.2309 25.517 37.3567 26.3391C39.1516 26.1861 40.0541 25.6629 40.2437 24.8027C39.8995 24.9682 39.5621 25.1366 39.2106 25.3012ZM327.969 16.3995C328.39 16.6552 328.807 16.9114 329.229 17.1671C328.705 17.3358 328.182 17.4736 327.658 17.6631C326.165 16.5265 326.113 17.6316 324.268 17.6893C318.61 17.8643 319.968 15.8318 315.079 19.0204C319.158 18.5884 317.684 20.0268 320.223 20.867C320.677 20.0536 318.107 18.4809 319.736 17.997C322.645 18.611 325.449 19.1762 328.648 19.4771C328.565 19.618 328.483 19.7594 328.4 19.9003C327.892 19.852 327.389 19.803 326.882 19.7548C327.449 20.0746 328.002 20.3924 328.579 20.7157C327.823 19.951 329.633 20.2776 329.327 19.3581C329.191 18.9487 328.362 18.4273 327.873 18.0624C329.05 17.759 330.263 17.4713 331.452 17.1733C330.803 16.8864 330.155 16.5992 329.509 16.3121C328.998 16.3389 328.489 16.3684 327.978 16.3952C327.975 16.3966 327.972 16.3981 327.969 16.3995ZM584.019 21.2029C582.622 20.0649 579.9 19.595 578.339 20.5092C580.233 20.7387 582.124 20.9708 584.019 21.2029ZM40.421 24.0952C40.2347 24.2451 40.0543 24.3937 39.8688 24.5436C40.6007 24.9145 41.3362 25.2829 42.0728 25.6529C42.2607 25.1893 42.4473 24.7254 42.6374 24.2639C41.9001 24.2077 41.1622 24.153 40.421 24.0952ZM88.9907 27.9088C88.436 27.8526 88.3845 27.8658 87.6886 27.8994C87.6895 27.8991 87.6902 27.8987 87.691 27.8983C87.4173 27.9107 85.1022 28.072 85.3403 28.4524C86.4799 28.5175 87.6981 28.5726 88.8682 28.63C88.9153 28.3899 88.9347 28.1505 88.9907 27.9088ZM75.5483 27.3982C75.5468 27.3989 75.5451 27.3996 75.5435 27.4003C75.1243 27.4316 74.7234 27.5217 74.2943 27.5167C75.804 28.1871 76.1074 27.164 77.4926 27.5385C78.8769 27.9145 79.7132 28.5355 80.9801 27.1797C80.551 26.9426 80.0905 26.6116 79.6494 26.3381C77.6302 26.7945 77.1222 26.2282 75.564 25.5747C75.5591 26.184 75.5533 26.789 75.5483 27.3982ZM303.072 21.1006C302.642 20.4264 302.27 21.1458 302.227 21.1573C302.228 21.158 302.229 21.1588 302.23 21.1596C298.835 20.754 302.7 21.5158 299.538 21.8567C300.022 21.9977 300.503 22.1488 300.98 22.2923C301.675 21.9013 302.39 21.4635 303.072 21.1006ZM194.061 28.912C194.041 29.1184 194.014 29.3257 193.995 29.5321C195.903 29.3724 196.455 30.146 197.988 29.3147C196.687 29.1804 195.358 29.0474 194.06 28.9095C194.06 28.9104 194.06 28.9112 194.061 28.912ZM98.6848 26.8568C96.5846 26.3771 95.0283 26.1361 92.9666 26.663C92.965 26.6637 92.9634 26.6645 92.9617 26.6652C92.8428 26.698 93.39 27.1523 93.2321 27.2532C92.8148 27.1699 92.3892 27.0515 91.9668 26.9551C91.8932 27.2953 91.8223 27.6356 91.7488 27.9738C92.948 27.9327 94.1466 27.89 95.3497 27.8459C95.1636 28.0386 94.9734 28.2293 94.7875 28.422C95.8023 28.5709 96.8098 28.7179 97.8237 28.8645C97.4948 28.2872 97.1645 27.7097 96.8397 27.1302C97.4562 27.0388 98.0694 26.9512 98.6848 26.8568ZM225.621 24.5436C225.295 24.7908 225.955 25.1199 225.438 25.3496C224.919 25.5769 223.935 25.2283 224.203 25.842C224.9 25.8778 225.68 25.9199 226.385 25.959C224.133 27.26 221.817 26.3908 221.86 27.7966C224.045 27.2774 225.892 27.3161 228.015 27.5551C227.84 26.4493 225.674 25.6363 226.92 24.4978C226.488 24.514 226.069 24.5225 225.626 24.5457C225.625 24.545 225.623 24.5443 225.621 24.5436ZM11.1581 7.16003C9.87097 7.10097 7.01996 6.30422 5.336 6.74421C4.92279 6.85402 3.33783 8.74216 3.3064 9.01358C3.22778 9.93234 4.83527 10.2655 3.01892 10.6368C3.60382 10.7187 4.1665 10.8257 4.74408 10.9154C4.56274 11.5163 4.38269 12.1156 4.20404 12.7147C3.50665 12.5323 2.81012 12.348 2.11121 12.1609C2.0498 12.3595 1.98853 12.5587 1.92719 12.7573C4.48059 13.0924 2.87018 13.6816 4.10468 14.5822C2.83588 14.797 1.55554 15.0035 0.286621 15.2129C0.996765 15.26 1.83221 15.3353 2.45935 15.3621C2.40894 16.4139 0.957336 15.9727 0.678528 16.1321C-0.897095 17.0386 6.466 17.4289 6.8894 19.0031C5.69629 19.0316 4.44751 19.0443 3.22949 19.0582C3.55017 19.2888 3.87427 19.5197 4.19409 19.7495C7.04584 19.0458 10.1346 19.0271 13.361 18.7172C13.646 18.7918 13.9208 18.8664 14.2001 18.938C14.0653 19.4 13.9355 19.8608 13.8015 20.3229C14.2306 20.4254 14.6552 20.5266 15.0853 20.6286C14.0146 18.9998 15.6136 19.1392 17.7268 18.4989C17.8026 18.4754 17.8792 18.4509 17.9567 18.4253C17.8878 18.3823 17.8176 18.343 17.7468 18.3067C16.71 17.782 15.4697 17.8803 15.6625 16.9398C16.3696 17.1608 17.082 17.3165 17.8375 17.4357C21.1313 17.9583 24.7744 17.713 27.7792 18.7289C28.6885 19.0362 28.5636 20.3497 30.7777 20.436C30.7161 20.2847 30.7278 20.023 30.6971 19.8289C34.448 20.8136 36.726 21.3983 40.7435 21.1005C40.4735 21.5527 40.2077 22.0072 39.9389 22.4594C39.1161 22.1512 38.2955 21.8385 37.4804 21.5293C36.8429 22.2577 37.652 22.6778 35.1435 22.4438C33.0876 22.251 34.3424 22.018 33.8049 21.7362C33.0782 21.352 32.3604 21.911 31.5733 21.4825C30.9697 21.1537 31.712 20.5753 30.055 20.5838C30.6342 21.4783 31.2275 22.4011 31.817 23.306C32.2378 23.1559 32.6477 23.0017 33.0694 22.8492C32.6811 22.589 32.309 22.3331 31.9219 22.0727C33.3104 22.6048 34.6245 23.105 36.0651 23.6519C35.6926 22.4048 37.179 22.9932 37.994 23.2082C39.2664 23.5443 38.2325 22.6183 39.0656 22.8306C39.9048 23.0452 40.7301 24.05 42.2815 23.9826C41.5032 23.3763 42.6652 22.9909 42.4897 22.4775C42.3135 21.9643 40.7073 21.7166 42.3068 21.3092C45.2568 21.9721 41.8553 23.5831 43.8508 24.0586C46.2456 24.6283 47.0766 21.6008 46.4062 20.8814C45.8795 20.3152 43.925 20.2578 43.3921 19.6911C46.9688 19.0503 46.8428 20.8934 47.4123 21.304C49.4818 22.7936 48.3037 19.1696 50.7744 20.6421C50.7774 19.9823 50.7846 19.3892 50.7858 18.7562C51.222 18.911 51.5012 19.0929 52.03 19.2295C50.3531 20.3846 51.6456 20.4307 52.3127 20.4843C53.3613 20.5696 51.6926 21.0677 51.9578 21.2501C52.6765 21.7394 53.8704 21.6339 53.1021 22.1416C53.4473 21.9045 53.8239 21.6688 54.1766 21.4341C55.3742 21.8541 58.0522 24.806 55.3519 24.0492C55.4978 24.8969 56.1414 24.7687 56.7592 24.637C56.896 24.6076 57.0314 24.578 57.1597 24.559C57.8626 24.455 57.8041 25.1023 58.4217 25.0267C60.8791 24.7219 59.372 23.4992 59.0519 22.6025C62.2032 23.4283 59.0494 23.6062 63.6268 24.3259C64.0238 25.0648 61.8432 25.6745 63.5883 26.205C64.0001 24.9966 65.3668 24.2032 67.937 23.9601C68.1651 24.2591 68.3929 24.5606 68.622 24.8595C70.0869 23.8125 69.4484 22.5869 71.9313 24.1563C70.712 21.4774 71.5605 23.1972 73.9233 22.2813C74.4038 22.0968 73.356 21.4934 74.0251 21.2603C74.3292 21.1552 75.0183 21.6043 75.7606 21.3335C76.1212 21.1996 77.8244 20.2961 78.9374 20.8355C78.0274 22.0443 80.1396 23.2366 78.2168 24.1701C81.6743 24.1097 84.0452 24.8405 80.2866 22.9164C81.1803 22.5847 82.0756 22.2538 82.9659 21.9223C83.557 22.2546 84.1561 22.5846 84.7518 22.9142C84.8976 21.8857 84.8221 21.5929 87.2054 21.8963C86.1782 21.6 85.1561 21.2986 84.1289 20.9978C84.1048 20.7874 83.9708 20.5629 84.0164 20.3624C85.27 20.8279 88.8575 21.1804 89.7155 21.4964C90.5732 21.8137 88.8876 21.8071 89.1255 22.086C91.1094 24.387 91.0221 22.7565 92.5078 23.2044C93.3785 23.4688 91.2614 23.613 91.7287 23.7301C93.4631 24.1607 94.326 23.0284 95.8788 23.0821C95.2975 23.7213 94.7207 24.3708 94.1535 25.0163C95.782 25.0548 97.5989 25.1275 99.1043 25.4033C99.6962 25.5112 99.2261 25.9861 99.3219 26.0232C99.7943 26.213 101.747 26.5607 101.954 26.5706C103.52 26.6358 103.588 25.9537 105.108 25.9731C104.516 25.8931 103.954 25.8196 103.375 25.7415C103.153 24.6228 102.927 23.504 102.705 22.3831C104.191 22.3603 105.68 22.3369 107.171 22.3094C106.071 22.6408 104.966 22.9689 103.861 23.2975C105.53 24.258 107.199 25.2174 108.874 26.1738C109.265 25.9494 109.656 25.7249 110.047 25.5003C110.56 25.2045 111.073 24.9085 111.588 24.6122C113.991 24.8348 113.438 27.0524 114.641 25.131C115.347 25.3181 116.052 25.5047 116.758 25.6888C116.665 25.4067 116.572 25.1239 116.479 24.8417C117.33 25.0386 118.182 25.2338 119.033 25.4314C118.105 26.3952 117.191 27.4104 116.27 28.344C117.952 28.6083 118.009 27.7697 118.266 27.5676C118.948 27.0321 120.253 27.8166 120.797 27.3176C120.981 27.1464 119.343 26.549 119.93 25.9276C120.046 25.8074 122.318 23.5258 123.714 24.1019C123.676 24.5254 123.554 25.0427 123.485 25.5027C125.375 25.8085 126.397 23.6169 126.16 22.9903C127.161 23.4494 128.634 23.5198 128.827 24.2032C129.344 24.2316 129.851 24.2587 130.37 24.2867C129.871 22.622 132.011 22.9713 132.125 24.3957C131.237 24.412 130.347 24.4295 129.461 24.4447C130.093 26.2013 127.372 27.1959 133.02 25.7027C134.111 24.8188 131.11 25.7858 131.999 25.1255C133.526 24.763 134.94 25.1224 136.399 24.5195C138.206 23.7652 136.017 22.9666 140.177 24.0467C130.906 26.3872 141.409 25.776 145.737 26.6194C146.964 24.1543 150.642 23.4255 155.662 24.224C155.136 24.9092 153.551 24.5336 152.633 24.7492C151.719 24.9648 152.704 25.388 151.556 25.6957C150.418 26.0035 147.992 26.4077 146.827 26.878C147.8 27.2852 152.611 28.2772 149.437 27.1215C151.825 26.47 152.953 25.7813 155.9 25.688C156.774 26.7764 156.702 27.4483 159.571 27.5095C157.895 25.9937 161.166 24.9857 160.463 23.4303C158.417 23.7702 159.553 25.2864 158.355 25.994C158.241 26.0649 156.345 25.6666 155.9 25.688C157.824 24.3587 158.505 23.8625 157.339 22.2413C158.687 22.3971 159.539 22.2038 159.648 22.9729C159.936 22.6427 160.226 22.3122 160.505 21.9818C160.936 21.9943 161.347 22.0291 161.808 22.0272C161.443 22.6739 161.678 22.7368 162.102 22.7616C162.447 22.7812 162.903 22.7773 163.285 23.011C164.176 23.5442 162.971 24.4493 165.404 24.4809C164.6 24.746 163.852 24.9724 163.061 25.2222C164.626 25.5339 166.203 25.8461 167.775 26.1534C166.665 26.8552 164.27 27.8878 164.318 28.8192C165.053 28.4741 167.521 29.1091 167.802 29.1356C168.846 29.2368 168.284 28.6462 168.361 28.6322C170.023 28.356 171.381 28.5591 172.013 27.6702C173.258 28.0734 174.19 27.8441 175.518 27.8613C176.241 27.8703 176.109 28.5244 176.532 28.3977C179.367 27.5402 176.639 26.7467 182.142 28.2528C181.49 28.7228 180.844 29.2014 180.185 29.6719C180.81 29.8333 181.431 29.994 182.056 30.1521C182.47 30.0601 182.88 29.967 183.292 29.8738C183.258 28.8871 183.223 27.8984 183.189 26.9118C183.498 26.8672 183.806 26.823 184.115 26.7784C184.257 26.7578 184.398 26.7372 184.541 26.7162C184.397 26.7023 184.255 26.6883 184.113 26.6742C183.478 26.6118 182.843 26.5484 182.209 26.4834C182.134 26.3113 182.065 26.139 181.99 25.9669C182.688 25.7871 183.384 25.6045 184.079 25.4203C184.52 25.303 184.966 25.1848 185.407 25.0655C185.44 25.4081 185.472 25.7531 185.506 26.0956C188.08 25.5292 188.126 25.2311 190.629 26.0534C192.54 25.9432 194.144 27.2861 195.286 27.8233C195.67 27.6075 196.033 27.3902 196.432 27.173C196.716 27.4417 196.969 27.711 197.238 27.9806C197.706 27.5534 198.211 27.1236 198.666 26.6987C198.991 27.5816 199.185 27.8526 197.236 28.2913C197.996 29.3693 201.395 28.6567 202.742 28.1897C203.811 27.833 202.541 26.9788 202.672 26.8561C203.108 26.4402 204.847 26.6593 205.218 26.5701C206.733 26.2013 207.804 26.1757 209.222 25.8718C209.484 25.8125 210.19 25.1699 210.256 25.1468C210.748 25.0115 211.993 24.6371 212.116 24.6203C219.341 23.6765 211.761 26.7818 218.499 26.0405C218.32 26.3932 218.157 26.7424 217.985 27.0946C218.492 27.0798 219.014 27.063 219.539 27.0469C220.182 26.7175 219.356 26.2586 220.652 26.5845C220.54 26.1733 220.428 25.7619 220.312 25.3529C220.877 25.5394 221.431 25.7248 222.028 25.9089C222.852 24.3964 226.069 23.8381 225.742 22.1537C225.608 21.5822 223.228 21.1546 224.419 20.4498C225.42 20.2568 224.785 20.9957 225.201 21.0026C228.14 21.0471 227.908 20.0907 229.151 20.2615C229.365 20.6631 229.589 21.0721 229.809 21.4774C230.245 21.3239 230.687 21.1699 231.137 21.0154C231.263 21.2865 231.394 21.5576 231.52 21.8287C231.091 21.8781 230.613 21.9312 230.228 21.9774C230.842 23.0188 235.898 23.1437 233.924 22.3602C233.147 22.0404 231.697 22.3038 232.526 20.9625C233.818 21.0472 235.259 21.1247 236.679 21.2001C236.736 21.2035 236.792 21.2069 236.848 21.2103C236.871 20.9326 236.891 20.6546 236.915 20.3769C238.803 20.4197 237.174 21.6404 237.221 22.2285C237.65 22.2142 238.087 22.1973 238.522 22.1826C238.687 21.9032 238.843 21.6121 239.019 21.3403C239.069 21.7623 239.376 22.7294 240.674 22.2685C241.488 21.9706 240.11 20.9965 241.689 21.0313C241.622 21.7001 241.103 22.5463 242.883 22.6315C243.009 21.9294 243.208 21.2802 243.293 20.5458C245.599 21.0447 246.438 19.9138 249.133 20.4924C250.79 20.8619 253.172 22.4275 254.053 19.6846C255.234 19.5282 254.907 20.2191 255.27 20.3427C256.988 20.9275 258.163 19.5717 258.474 19.4743C260.415 18.8541 261.338 19.2265 262.934 18.5105C262.881 19.0104 262.867 19.481 262.831 19.9671C261.276 19.3375 260.527 19.4269 258.469 19.7366C259.176 19.7847 259.87 19.8361 260.577 19.8842C260.492 20.2929 260.408 20.7015 260.328 21.1078C253.752 20.001 255.453 22.3824 260.894 22.534C261.306 21.7591 261.737 20.9848 262.147 20.2079C265.364 21.1023 266.767 20.02 270.272 19.5296C270.688 19.4725 272.252 19.7874 272.917 19.76C272.906 19.7637 272.895 19.7673 272.885 19.771C273.348 20.4406 272.813 20.8034 272.792 21.4336C273.156 21.4859 273.524 21.5375 273.886 21.59C274.642 21.0555 274.333 20.6844 275.904 20.6838C275.727 21.174 275.554 21.664 275.378 22.1542C277.086 22.046 278.197 21.4463 279.801 21.5533C279.52 21.3932 279.244 21.2324 278.964 21.0722C282.391 20.3612 279.429 17.7715 282.157 18.9689C282.306 18.7132 282.452 18.4554 282.602 18.1996C281.511 18.2191 280.425 18.2401 279.349 18.2586C279.302 17.9155 279.253 17.5741 279.21 17.2308C280.368 17.25 281.538 17.2715 282.708 17.2898C281.843 17.1206 280.975 16.9512 280.116 16.7815C281.441 16.5188 282.779 16.2549 284.114 15.9913C282.778 17.3629 284.642 17.3825 284.385 18.6629C286.667 17.4461 288.463 15.9306 292.195 16.5441C292.939 16.6662 292.603 17.5724 294.607 16.3532C294.21 17.7849 296.846 18.2506 296.611 19.6019C295.884 19.5906 295.142 19.6044 294.43 19.5776C295.197 19.0588 295.237 17.7828 293.994 17.4958C292.407 17.1302 290.224 18.172 290.214 16.7598C289.607 16.8705 289.035 16.9514 288.438 17.0511C288.71 17.3817 288.978 17.7148 289.247 18.0457C287.495 17.6242 286.44 17.88 285.687 18.8186C287.725 18.8731 289.781 18.9241 291.814 18.9768C291.52 19.0584 291.222 19.1408 290.928 19.2203C292.528 20.0062 291.003 20.9726 293.887 20.955C293.839 20.5456 293.795 20.1356 293.748 19.7241C294.881 20.7454 297.723 20.5318 296.908 21.8615C297.741 21.4105 297.899 21.1522 298.438 21.7975C300.65 20.6709 302.018 19.3507 301.104 17.9605C301.964 18.1322 302.826 18.304 303.684 18.4759C303.224 18.9078 302.764 19.3379 302.305 19.7698C303.771 19.6379 305.257 19.505 306.719 19.3755C306.777 18.1926 303.86 19.2265 304.642 18.1159C304.799 17.893 305.624 18.2857 305.824 18.152C307.921 16.7103 304.548 17.8875 305.122 16.8582C308.368 16.3163 305.63 14.8615 310.232 15.9163C310.326 15.5691 310.429 15.2145 310.515 14.87C312.077 14.7357 312.004 15.5096 313.357 15.5563C314.204 15.5849 315.162 14.1654 316.157 15.012C316.335 15.1685 314.892 16.9232 318.17 16.6118C320.714 16.3703 319.569 15.2879 320.916 14.7768C322.261 14.2658 325.536 15.6441 326.33 13.7539C325.627 14.0477 324.717 14.2448 323.93 14.5012C323.578 14.1699 323.235 13.8418 322.887 13.5122C324.754 13.8371 326.607 13.1595 327.899 13.9165C330.255 12.444 333.068 13.4475 332.436 14.9626C331.618 14.8102 332.446 14.1094 331.359 14.5965C331.27 14.9455 331.174 15.2932 331.084 15.6421C332.981 15.4629 334.3 15.3769 333.358 14.4013C333.65 14.3552 333.943 14.3091 334.237 14.2629C334.344 15.0105 334.446 15.7614 334.553 16.509C334.912 16.568 335.273 16.6263 335.631 16.6854C336.011 16.4919 336.392 16.2965 336.775 16.1007C336.156 14.9502 335.25 14.9764 338.198 14.0946C338.236 14.5048 338.279 14.913 338.317 15.3232C340.791 14.6191 340.799 13.6181 343.945 13.4279C341.431 12.1758 340.281 14.8007 340.084 11.9387C339.489 12.1706 338.884 12.4058 338.294 12.6373C338.172 12.229 338.051 11.8201 337.933 11.4115C341.216 11.3937 346.836 13.7309 348.88 11.7646C349.159 11.9665 349.436 12.1396 349.721 12.3576C351.795 11.1103 352.896 13.4957 354.951 11.9286C355.164 11.7643 354.535 9.49383 357.373 9.37311C357.324 9.67756 357.323 10.1841 357.293 10.5659C357.892 10.3383 358.485 10.1025 359.076 9.87142C359.205 10.1401 359.34 10.4083 359.469 10.6791C358.44 10.8607 357.409 11.0444 356.369 11.227C357.247 11.2594 358.125 11.2919 358.995 11.325C357.901 11.8577 357.39 11.8992 358.123 12.5745C359.11 12.5473 360.074 12.5245 361.075 12.4963C361.19 12.6746 361.305 12.8551 361.42 13.0334C360.983 13.6207 360.53 14.197 360.101 14.7922C362.653 14.1548 364.826 13.9749 366.742 12.7448C367.064 12.5372 365.829 11.9007 368.158 12.3882C368.166 12.0039 368.205 11.6895 368.219 11.3338C371.05 12.2072 372.008 11.8182 374.825 10.8426C373.01 11.6954 374.644 11.1086 375.144 11.4613C375.487 11.7043 374.217 11.7548 374.379 12.0232C374.54 12.2898 376.279 13.2894 374.87 13.5242C371.235 11.4806 370.467 14.2864 365.887 13.5071C366.606 13.7525 367.326 13.9985 368.038 14.2445C367.727 14.4678 367.448 14.6702 367.11 14.9079C369.586 14.2812 368.386 14.6592 369.436 14.9392C370.466 15.2207 372.401 15.3846 373.651 15.3936C374.046 15.3962 373.596 14.9119 374.478 14.8014C375.065 14.7266 376.805 15.3686 377.123 14.4441C377.332 13.8422 374.546 12.4221 378.24 12.1651C378.891 11.5435 377.141 11.8458 377.096 11.7797C376.729 11.1208 378.953 10.4489 380.027 10.8962C380.115 10.9351 379.318 11.5249 380.242 11.6691C382.447 12.014 383.593 11.3218 384.931 10.4003C385.153 11.3558 387.047 12.3829 389.234 11.872C389.37 12.1404 389.5 12.4117 389.635 12.6822C389.273 12.5603 388.906 12.4408 388.559 12.3178C388.198 12.5172 387.81 12.6711 387.457 12.9011C389.68 12.985 390.145 14.2912 391.248 14.7043C395.019 16.116 392.562 12.7479 391.862 12.1865C391.403 12.4651 390.959 12.7716 390.498 13.0629C390.528 12.7226 390.558 12.3797 390.583 12.0377C396.074 11.6682 391.24 9.79668 394.032 8.97542C394.596 10.0481 395.717 10.4115 397.118 10.171C397.85 10.049 398.654 9.77766 399.496 9.36995C399.786 9.35859 400.074 9.34116 400.36 9.33214C400.424 9.57039 400.448 9.93954 400.536 10.0934C403.75 10.1581 404.104 7.57318 404.384 7.31149C405.673 6.14875 406.799 7.5634 407.185 7.55056C408.809 7.49487 409.309 6.80066 410.862 6.98315C412.578 7.17814 411.452 7.75901 412 8.17745C412.447 8.50903 413.781 8.48694 414.338 8.82508C414.105 8.5343 413.847 8.25107 413.612 7.95934C415.339 7.43119 416.707 6.93761 418.735 6.70893C421.093 8.7982 422.798 4.92229 422.206 8.01822C420.339 8.34174 419.309 8.75505 418.346 9.59526C419.59 9.61663 420.834 9.6364 422.074 9.66009C422.415 9.30342 422.625 8.96335 423.049 8.59559C424.04 9.24837 426.149 8.81704 427.002 8.97695C431.003 9.72817 429.84 11.009 433.328 8.77773C430.709 8.71838 430.659 7.729 428.109 8.01069C428.638 7.27113 429.927 7.34546 429.047 6.5451C431.55 6.61402 430.796 7.41579 431.781 8.03537C432.68 8.56685 434.323 8.51372 434.284 9.27051C434.437 8.84774 434.551 8.44029 434.701 8.01828C436.299 7.9408 437.928 7.86245 439.537 7.79608C438.805 7.39524 438.14 6.99191 437.407 6.59562C437.935 6.40708 438.436 6.22109 438.946 6.03469C442.983 7.17807 449.789 4.56151 448.751 7.97094C450.658 8.04726 450.899 7.62535 451.933 6.97865C452.05 7.23462 452.163 7.44752 452.278 7.73263C453.511 7.45934 454.456 8.42534 455.543 8.1795C455.727 8.13845 455.887 8.0786 456.029 8.01472C456.721 7.69942 456.936 7.28586 457.059 8.55842C457.766 8.12384 458.473 7.76424 459.175 7.36207C459.598 7.71289 460.014 8.0599 460.432 8.40914C461.093 8.23305 461.759 8.05841 462.422 7.88369C462.768 8.61693 465.371 8.3348 466.509 8.84387C467.609 8.07461 467.621 5.59418 470.18 6.08647C470.102 6.69965 470.025 7.31108 469.947 7.92428C470.534 7.80719 471.126 7.69115 471.72 7.57533C471.76 7.37553 471.794 7.17562 471.834 6.97583C471.531 7.03152 471.234 7.08714 470.934 7.14524C471.2 6.81109 471.462 6.47853 471.726 6.14456C472.611 6.66617 473.499 7.18918 474.386 7.71343C473.164 8.06506 471.943 8.41934 470.725 8.7758C472.236 9.25755 473.303 8.83136 474.612 9.36599C475.782 8.54593 475.37 8.04681 474.926 7.11478C475.351 7.20382 475.783 7.29063 476.209 7.38028C475.952 6.45293 476.687 5.92074 474.182 5.93447C474.359 5.67594 474.541 5.42979 474.716 5.16094C475.129 5.21237 475.397 4.9969 475.847 5.10964C477.07 5.41815 477.967 7.0616 477.868 7.62613C477.814 7.92164 476.621 7.32119 476.657 7.74244C476.754 8.76971 479.531 8.3827 475.51 9.30635C476.819 9.99195 477.127 9.50813 478.595 9.36096C478.47 9.69885 478.35 10.0347 478.231 10.3728C478.912 10.2346 479.593 10.0977 480.278 9.96111C479.384 8.17938 484.417 7.67616 479.951 6.0044C481.288 5.96551 482.62 5.92886 483.953 5.89122C483.688 5.70208 483.416 5.51465 483.149 5.32568C482.547 5.40106 481.943 5.47533 481.34 5.54971C482.056 5.24289 482.777 4.93892 483.495 4.63371C485.153 5.09736 485.789 5.74842 486.522 6.54956C484.56 7.04422 485.221 6.29571 483.714 6.09076C483.75 6.5825 483.666 7.03083 483.78 7.55004C484.595 6.56059 487.122 7.39057 487.709 7.46325C487.998 7.49854 488.206 7.50088 488.356 7.47998C489.126 7.37144 488.324 6.63549 489.335 6.65728C490.541 6.6837 491.939 7.33555 492.965 6.38885C492.923 6.94215 492.82 7.51204 492.728 8.01353C494.594 8.2753 494.25 7.60562 494.448 7.52905C497.606 6.27191 499.237 7.52647 502.77 7.84488C502.311 7.99391 501.85 8.12632 501.387 8.26525C504 9.5739 502.218 9.12253 499.882 9.39966C502.06 9.38634 503.254 10.4509 504.77 10.8273C506.286 11.2027 508.938 10.8299 509.921 10.4827C507.759 9.71646 505.366 10.016 502.935 9.71576C503.241 9.16549 503.535 8.7016 503.853 8.09626C505.278 9.35598 506.179 8.60983 506.677 8.47856C508.138 8.09414 508.038 9.10825 508.966 8.06234C508.91 8.43642 508.867 8.75115 508.813 9.10042C511.786 9.10408 515.027 8.62602 516.871 10.1307C517.102 9.23858 517.288 8.37686 517.547 7.46781C518.761 8.22356 519.882 7.59468 520.93 7.82041C521.975 8.04648 521.526 8.75006 522.747 9.11088C522.971 9.17725 523.481 8.7519 524.021 9.1256C524.571 9.50113 526.496 12.1582 526.898 9.97791C527.197 9.99542 527.49 10.0072 527.781 10.0157C528.531 10.0382 529.263 10.0402 530.01 10.0666C529.277 9.9233 528.543 9.78279 527.807 9.64188C527.539 9.59041 527.271 9.53886 527.002 9.48709C527.285 9.3383 527.567 9.18969 527.848 9.04116C528.468 8.71744 529.079 8.39385 529.7 8.07074C529.777 8.55342 529.853 9.04471 529.925 9.52088C532.209 10.265 533.951 9.61369 536.286 9.98021C536.676 10.042 535.678 10.9072 537.434 10.8053C539.189 10.705 540.627 9.05755 543.534 9.99011C543.681 10.0382 544.439 11.4545 545.583 10.6217C545.843 10.433 544.853 10.0311 545.433 9.80442C546.012 9.57656 548.51 9.57609 548.765 8.93748C548.717 9.16783 548.54 9.3947 548.443 9.62472C548.855 9.77519 549.272 9.92644 549.688 10.0758C549.767 9.66947 549.848 9.26287 549.926 8.85865C552.271 10.0437 553.371 11.7192 557.015 11.5672C555.943 12.0596 554.877 12.5565 553.81 13.0522C553.576 12.6069 553.34 12.1587 553.107 11.7137C551.435 11.7185 549.758 11.7257 548.086 11.7394C547.859 11.2382 547.634 10.7387 547.404 10.2376C546.959 10.2591 546.517 10.2794 546.072 10.3016C546.151 10.6558 546.231 11.0082 546.314 11.3628C545.452 11.1997 544.588 11.0359 543.729 10.8757C545.312 13.0601 548.668 11.1464 548.283 12.8254C548.699 12.5981 549.114 12.3691 549.529 12.1402C549.624 12.9804 550.44 12.8175 551.851 12.8229C551.49 13.1976 551.103 13.5644 550.767 13.946C552.181 13.5027 554.588 13.7956 556.018 13.7177C556.644 13.6831 556.088 13.024 556.279 12.9723C557.265 12.7011 558.953 13.9269 559.343 13.8843C561.373 13.6587 562.911 12.2243 564.836 12.9471C565.097 13.0458 565.367 13.1851 565.647 13.3735C565.288 13.3802 565.008 13.3864 564.788 13.3938C563.41 13.4378 564.331 13.5218 563.489 14.0613C563.177 14.257 559.856 14.3835 563.98 14.6082C564.055 14.6121 564.303 14.6015 564.662 14.5765C566.586 14.4369 571.706 13.8747 569.731 12.7663C570.905 13.2319 571.804 13.7209 572.871 14.1969C575.878 11.7435 574.657 14.2262 573.713 15.5624C574.154 15.6176 574.578 15.6793 575.031 15.7297C574.227 14.1256 579.179 14.5842 580.769 15.5291C581.301 15.8433 579.679 16.145 580.95 16.5175C581.578 16.4822 582.298 16.4262 582.962 16.3828C581.908 17.2215 583.726 17.7968 583.591 18.7563C584.873 18.0332 585.992 16.3197 585.451 15.2601C586.385 15.7705 587.328 16.2817 588.265 16.795C587.781 16.971 587.295 17.1446 586.813 17.3209C590.089 17.082 594.059 18.9332 594.963 16.9894C595.387 17.0528 595.814 17.1147 596.238 17.1782C596.33 17.5348 596.418 17.8914 596.511 18.248C598.468 18.1741 600.422 18.0983 602.381 18.0255C600.693 17.6151 600.34 17.0819 598.499 17.2687C599.235 16.956 599.989 16.6433 600.712 16.3292C603.294 17.6995 603.584 18.4368 607.692 18.5955C607.878 18.6026 611.058 18.0742 611.173 18.0002C611.701 17.6615 611.036 17.003 611.274 16.8285C611.936 16.3386 615.722 15.3562 615.676 15.1362C615.094 12.4343 602.905 10.9811 599.621 10.467C588.254 8.68467 576.92 7.28065 565.566 6.1227C553.174 4.8518 540.695 3.94826 528.246 3.28838C517.934 2.73071 507.624 2.25098 497.259 1.67855C496.906 1.65752 497.078 1.27872 496.928 1.25534C495.997 1.1159 495.05 1.67681 494.705 1.68662C493.963 1.70557 494.394 1.16763 493.854 1.14396C492.081 1.06977 490.337 1.03316 488.604 1.00971C484.88 0.959356 481.211 0.969861 477.398 0.802039C477.035 0.786099 477.394 1.24072 476.755 1.14516C476.427 1.09336 475.412 0.384444 474.664 0.356278C472.059 0.258987 469.867 0.433482 467.12 0.378727C465.616 0.348046 463.362 0.376038 461.682 0.348817C460.94 0.33675 460.17 0.0173655 459.438 0.00101519C458.397 -0.0216699 458.605 0.61331 458.445 0.651402C457.743 0.818257 457.648 0.122798 456.984 0.135402C456.586 0.143702 456.31 0.196854 456.067 0.263729C455.544 0.406348 455.173 0.610162 454.094 0.58136C452.962 0.547953 450.34 0.194816 448.885 0.115076C445.513 0.705649 441.299 0.651164 438.183 0.617114C436.321 0.597528 436.223 1.25446 435.453 1.29012C432.815 1.40936 430.797 0.68878 428.33 0.801661C425.058 0.952945 422.204 1.67516 419.042 1.91141C418.536 1.94919 418.616 1.34789 418.112 1.36417C416.226 1.42627 413.848 1.46993 412.216 1.66087C410.324 1.87714 409.787 2.77809 407.924 2.72467C407.374 2.70868 407.197 1.96117 406.308 1.92278C404.882 1.86422 403.364 2.63541 402.394 2.77544C401.041 2.96623 402.176 2.11609 400.332 2.3445C400.259 2.35392 400.03 2.92229 399.642 2.92224C398.505 2.92478 398.597 2.48303 396.901 2.64032C396.869 2.64355 396.762 2.67105 396.608 2.71357C395.991 2.89067 394.54 3.33502 394.358 3.34923C393.03 3.44869 390.48 3.80951 389.688 3.75256C386.878 3.54939 389.01 2.56951 386.814 4.52752C385.767 4.15874 384.692 3.78599 383.576 3.43475C384.324 3.7828 381.447 4.56236 381.228 4.54049C379.492 4.36161 380.431 3.59313 378.296 3.85973C381.252 5.27398 375.527 4.26403 374.235 4.31438C368.118 4.54641 362.641 5.34258 356.519 5.77159C354.448 5.916 351.716 5.76947 349.529 5.93539C349.021 5.97247 349.43 6.32708 348.989 6.36719C348.548 6.40462 349.006 5.94045 348.505 5.99944C345.378 6.37435 342.959 7.36261 340.004 6.55958C339.874 6.71602 339.887 6.83126 339.666 7.00877C337.239 6.27337 332.775 7.82204 331.087 8.11276C328.436 8.56654 327.701 8.00417 325.774 8.2686C323.219 8.62025 319.451 10.0975 321.028 7.99691C319.264 8.06308 317.567 8.16946 315.802 8.48276C315.605 8.51801 315.778 9.01015 315.7 9.02625C315.203 9.13489 315.007 8.69727 314.666 8.70133C313.743 8.71279 315.282 9.14173 313.961 9.08686C313.264 9.05673 312.842 8.69327 310.924 8.82483C299.34 9.62584 286.813 10.6831 274.94 11.6166C274.129 11.68 274.627 11.1555 273.614 11.2606C270.048 11.629 263.802 12.9062 260.706 13.0198C257.65 13.1304 258.292 12.3698 256.341 12.2129C255.966 12.1821 256.3 12.5646 255.965 12.5952C253.743 12.7943 251.061 13.6237 249.28 13.8484C248.086 13.999 248.12 13.3566 247.278 13.3719C246.015 13.3971 244.818 14.1303 244.143 14.1999C241.094 14.5091 238.929 14.1774 236.204 14.5875C236.117 14.6002 236.03 14.6136 235.943 14.6277C236.038 14.495 236.103 14.3728 236.179 14.2447C236.188 14.2295 236.196 14.2142 236.205 14.1989C236.195 14.1996 236.186 14.2004 236.176 14.2012C232.675 14.4758 229.313 14.7393 225.842 15.0086C225.993 14.8692 226.139 14.7291 226.29 14.5876C222.238 14.946 222.814 16.2989 222.954 13.3447C222.655 13.2621 222.341 13.1642 222.06 13.0885C222.271 14.5903 219.928 15.8662 216.807 16.4702C216.604 16.5135 214.933 15.1511 215.227 16.8777C214.794 16.4804 214.537 16.2036 214.177 15.853C213.581 16.4233 212.915 16.992 212.295 17.5616C211.934 17.5077 211.572 17.4565 211.221 17.4019C211.146 17.0647 211.161 16.7082 211.027 16.3813C209.333 16.4463 206.008 17.0948 204.696 17.1385C201.45 17.2456 198.105 16.5365 195.643 17.6861C194.416 17.6585 195.601 16.9161 193.782 17.1093C193.609 17.4595 193.421 17.7963 193.227 18.1579C191.661 16.7285 191.416 17.6686 189.407 18.088C188.059 18.3698 187.163 18.0383 185.893 18.1554C185.569 18.1851 185.627 18.6283 185.408 18.621C185.082 18.6117 184.504 18.5032 183.891 18.3818C183.085 18.2226 182.256 18.0404 181.953 18.0377C177.15 17.9843 172.994 18.0424 168.332 18.1832C167.839 18.197 168.482 17.7614 167.969 17.7771C167.134 17.8014 167.615 18.4792 167.138 18.5093C165.784 18.5888 165.788 17.8774 163.906 17.8248C163.321 17.8085 162.753 17.7978 162.147 17.7913C156.396 17.7298 149.961 18.091 144.092 18.0378C143.889 18.0344 143.907 17.6177 143.687 17.6099C142.26 17.566 140.787 18.104 139.492 18.0742C137.332 18.0264 135.719 17.4091 133.585 17.3671C129.418 17.2823 125.684 17.4953 121.399 17.3978C117.892 17.318 114.849 17.1737 111.007 17.0491C110.782 17.0418 110.557 17.0342 110.332 17.0262C93.7696 16.4446 76.9858 14.296 60.3331 13.8C59.9026 13.7879 60.051 14.1678 59.9213 14.1425C58.6918 13.8943 58.6148 13.3898 58.0975 14.3958C57.8885 14.3531 57.6998 14.3015 57.5251 14.244C56.3829 13.8694 55.8326 13.2461 54.1732 13.1681C53.1512 13.119 53.8231 14.387 52.1443 13.6297C50.6332 12.9434 52.404 12.4214 47.7229 12.7247C47.602 12.7335 46.9319 13.4203 45.9907 13.1494C45.0361 12.8788 46.2014 12.4459 43.8881 12.0915C38.4655 11.261 31.4952 11.2703 25.1794 10.4473C24.7833 10.3971 21 9.61988 20.2629 9.35937C19.4163 9.05996 19.1949 8.75463 18.7687 8.4885C18.4684 8.30733 18.0828 8.14492 17.3232 8.01031C15.8749 7.75323 14.6078 8.24318 12.9081 7.93017C12.7136 7.89319 12.4448 7.22074 11.1581 7.16003ZM334.443 17.173C334.85 17.7728 335.672 20.0296 337.801 19.1704C338.003 19.0894 336.773 17.5855 337.958 17.2462C336.769 17.1642 335.616 17.1934 334.443 17.1705C334.443 17.1713 334.443 17.1722 334.443 17.173ZM-6.10352e-05 20.6277C1.63995 20.7258 3.30249 20.8252 4.95532 20.9117C3.85803 20.4951 2.76123 20.0744 1.67627 19.6498C1.11566 19.9757 0.559509 20.3023 -6.10352e-05 20.6277ZM204.282 27.7688C204.281 27.7689 204.279 27.769 204.278 27.7691C206.033 27.9514 207.734 28.136 209.512 28.3137C209.323 28.1067 209.112 27.9002 208.915 27.6937C207.528 27.4415 206.139 27.1891 204.781 26.9332C204.613 27.2119 204.447 27.4904 204.282 27.7688ZM190.543 26.2827C189.459 26.5992 189.754 27.0242 189.161 27.4819C189.161 27.481 189.161 27.4802 189.161 27.4794C189.005 27.5987 188.254 27.7307 187.976 27.759C188.067 27.4796 188.191 27.2022 188.294 26.9241C186.853 26.6215 184.676 27.251 184.148 28.0024C183.992 28.2239 183.977 28.4567 184.166 28.6799C184.491 29.0644 185.424 29.4276 187.309 29.6239C187.193 29.2805 187.085 28.9385 186.974 28.5949C190.271 28.5648 193.815 27.5953 190.543 26.2827ZM360.384 16.3053C363.243 17.2418 364.092 17.4217 367.398 16.4035C366.903 16.1153 366.406 15.8273 365.908 15.5394C365.371 15.9077 364.864 16.2715 364.338 16.6391C364.336 16.6392 364.335 16.6393 364.333 16.6394C364.199 16.3025 364.065 15.965 363.935 15.6277C362.762 15.8527 361.571 16.0791 360.384 16.3053ZM84.9871 25.3173C84.0999 27.5474 84.392 26.2407 86.5596 26.8648C87.3119 27.0812 86.5496 27.4409 87.0203 27.531C89.5575 28.0204 89.8347 26.5067 89.3043 25.6877C87.862 25.5635 86.4067 25.4409 84.9918 25.3175C84.9902 25.3174 84.9886 25.3174 84.9871 25.3173ZM18.9618 19.7294C18.9602 19.7292 18.9586 19.729 18.9571 19.7289C18.8334 20.2737 19.8477 20.528 18.6347 20.9314C19.5219 21.0208 20.3896 21.1049 21.2802 21.1927C21.0281 21.1154 20.7625 21.0389 20.5109 20.9614C20.7576 20.7951 21.008 20.6266 21.2581 20.4605C21.4996 21.1256 21.8389 20.7876 22.776 20.667C22.4515 21.3189 22.1375 21.9723 21.8085 22.6237C22.9011 22.5296 24.0031 22.4344 25.0978 22.3378C25.1278 22.1683 25.1582 21.9986 25.1883 21.8291C25.5687 22.0867 25.9492 22.3466 26.335 22.6044C26.464 22.411 26.589 22.2192 26.7184 22.0259C27.1927 22.2277 27.6667 22.429 28.1409 22.6323C28.3362 22.1523 27.2812 21.8365 29.1772 22.1437C28.644 21.5817 28.1001 21.0199 27.5659 20.457C24.6989 20.2228 21.8302 19.981 18.9618 19.7294ZM104.92 26.9067C101.754 26.6917 102.635 27.0839 103.324 28.2376C103.853 27.7941 104.392 27.3508 104.92 26.9067ZM267.978 21.424C268.968 22.1217 269.914 22.8149 270.909 23.4853C272.803 23.7766 274.593 22.2425 273.135 21.799C271.378 21.2674 269.693 22.1289 267.978 21.424ZM310.515 18.6604C308.256 19.1822 310.472 19.9355 311.026 20.4283C311.597 19.5296 312.482 19.5407 313.89 19.3384C312.557 19.3799 310.889 18.5725 310.515 18.658C310.515 18.6588 310.515 18.6596 310.515 18.6604ZM231.27 24.9489C230.346 24.9919 229.471 24.8393 228.635 25.1602C228.95 25.8739 230.526 25.0917 229.446 26.2601C230.026 26.2373 230.597 26.2147 231.18 26.1937C230.78 25.7702 231.251 25.3986 231.268 24.9515C231.268 24.9506 231.269 24.9497 231.27 24.9489ZM135.603 28.6207C137.421 27.7868 137.754 28.1651 139.563 28.8006C139.832 28.0977 137.688 26.8729 136.338 26.5852C136.095 27.2636 135.851 27.9424 135.603 28.6207ZM560.421 16.3979C560.081 15.4546 556.933 15.0109 555.329 15.1194C555.504 15.2715 555.679 15.4253 555.851 15.5792C557.372 15.8489 558.901 16.1227 560.421 16.3979ZM314.558 19.2284C314.324 19.272 314.1 19.3081 313.89 19.3384C314.126 19.331 314.352 19.2991 314.558 19.2284ZM409.933 8.54125C409.122 7.74204 411.352 7.30908 408.64 7.82136C408.64 7.82055 408.64 7.81973 408.64 7.81892C406.838 8.1578 406.496 8.23932 404.796 8.41926C405.49 9.46799 408.899 9.63196 404.235 10.1695C404.174 10.1746 404.253 9.51761 403.525 9.65563C403.299 9.69853 402.61 10.2796 401.482 10.5114C401.104 10.5868 398.426 10.9329 402.131 10.6927C402.071 11.4602 402.324 12.2159 402.364 12.9537C403.836 13.0698 404.803 11.5101 406.362 11.4429C408.595 11.3524 409.898 12.7787 410.189 10.7764C408.22 10.418 404.987 10.6219 404.612 11.8399C402.804 11.9756 402.194 11.0397 403.644 10.4587C410.073 10.6436 405.268 8.89806 410.919 9.30603C411.002 9.5764 411.245 9.85731 411.228 10.1177C412.875 9.03978 410.214 8.82745 409.933 8.54125ZM396.739 11.5364C396.902 11.6101 397.064 11.6839 397.226 11.7579C398.224 12.1888 399.201 12.624 400.16 13.0589C400.093 12.1133 399.455 11.3038 397.654 10.8914C397.501 10.9988 397.345 11.1062 397.189 11.2134C397.039 11.3214 396.889 11.4292 396.739 11.5364ZM489.296 9.57899C489.436 10.1003 489.837 10.5887 490.126 11.0913C490.476 10.6643 498.419 10.5946 494.406 9.99161C493.821 9.90253 490.214 10.6637 489.296 9.57899ZM123.1 27.5613C124.046 27.2398 124.988 26.9169 125.927 26.5939C124.498 26.34 123.067 26.0787 121.64 25.8174C122.128 26.3988 122.61 26.9802 123.1 27.5613ZM283.102 19.4126C282.708 19.4608 284.074 20.0717 282.507 20.0742C283.704 20.4413 284.816 20.7447 285.973 21.0877C286.287 20.7285 286.605 20.3705 286.919 20.0113C287.199 20.2067 287.484 20.4004 287.765 20.5957C287.57 20.1201 287.394 19.6547 287.191 19.1714C285.356 20.3556 284.856 19.2015 283.102 19.4126ZM226.284 21.6171C226.019 22.7003 228.789 23.1363 226.125 23.4958C226.679 24.1557 227.507 24.4637 229.137 24.4097C229.386 24.1246 229.607 23.8433 229.84 23.5593C229.926 24.2687 230.341 24.5051 231.27 24.9489C231.271 24.948 231.271 24.9471 231.272 24.9463C233.726 24.8225 233.538 24.5972 234.032 23.3853C231.555 24.2269 231.338 23.1675 229.593 22.653C228.357 22.3017 226.792 22.612 226.284 21.6171ZM480.85 9.27025C482.631 10.2232 480.982 11.0046 484.219 10.1603C484.02 9.92569 483.82 9.69304 483.622 9.45854C482.695 9.39214 481.776 9.32984 480.85 9.27025ZM217.608 25.8765C217.688 24.2236 219.322 22.8268 219.807 25.4729C218.157 26.1343 218.867 24.5664 217.608 25.8765ZM309.548 16.151C306.362 16.4603 307.102 18.2661 308.48 19.0952C308.658 18.744 308.836 18.3921 309.009 18.0432C309.58 18.1552 310.15 18.2675 310.721 18.3773C310.33 17.6359 309.939 16.8924 309.548 16.151ZM161.088 26.1452C163.527 27.3423 158.439 26.7719 160.145 27.5214C160.78 27.8045 161.537 27.6937 162.059 27.4189C162.666 27.1122 162.994 26.6013 162.641 26.2072C162.46 26.1976 162.269 26.1889 162.07 26.1807C161.762 26.1677 161.435 26.1562 161.093 26.1452C161.091 26.1452 161.09 26.1452 161.088 26.1452ZM175.248 26.5478C174.854 27.8026 175.424 27.4374 173.492 27.2144C172.936 27.1538 168.537 27.61 170.392 26.5772C171.955 26.5827 173.62 26.5664 175.248 26.5478ZM346.576 15.3012C346.566 14.7544 343.106 13.8023 342.701 14.1322C342.701 14.1314 342.701 14.1306 342.701 14.1298C341.596 15.0293 345.145 14.8893 343.691 16.1191C347.035 14.8878 348.228 17.1958 347.764 14.075C345.745 14.0823 346.742 14.6605 346.576 15.3012ZM602.299 18.5075C602.301 18.5077 602.302 18.5079 602.304 18.5081C602.076 18.5075 600.128 19.0885 600.322 19.3904C602.581 19.4126 602.244 18.8425 604.22 19.9446C604.367 19.6805 604.495 19.4228 604.651 19.1577C603.845 18.8974 603.428 18.5113 602.299 18.5075ZM497.918 8.84744C497.099 8.66626 495.57 9.1894 494.632 9.11326C497.517 11.5141 501.181 9.56956 497.918 8.84744ZM49.8157 22.6174C49.8179 22.6184 49.8203 22.6194 49.8225 22.6203C49.8219 22.6191 49.821 22.6178 49.8204 22.6165C49.8188 22.6168 49.8173 22.6171 49.8157 22.6174ZM434.115 9.70219C434.216 9.54923 434.27 9.41811 434.286 9.30465C434.285 9.29408 434.285 9.28352 434.284 9.27295C434.233 9.41391 434.178 9.55665 434.115 9.70219ZM353.586 14.9614C354.936 14.1006 350.164 13.2302 348.681 13.627C348.811 13.9661 348.851 14.2792 349.124 14.6597C350.273 13.6744 353.368 15.1056 353.586 14.9614ZM247.021 22.436C250.729 22.1464 245.679 19.4978 245.675 21.9032C245.684 21.9492 246.924 22.4389 247.021 22.436ZM324.433 16.7556C323.426 15.9162 325.301 15.5374 322.286 15.9144C322.127 16.1624 321.968 16.4109 321.81 16.6589C322.682 16.6909 323.559 16.7238 324.433 16.7556ZM270.935 16.7373C275.631 16.9029 280.143 17.4702 277.289 20.1959C276.93 20.1413 276.567 20.0896 276.21 20.0349C276.064 18.8175 274.831 19.5779 272.926 19.7569C272.617 19.2919 271.551 19.257 271.324 18.8593C270.883 18.0906 272.054 17.442 270.935 16.7373ZM74.6674 21.9666C74.7296 22.1798 74.7902 22.3939 74.8527 22.605C75.5754 22.8847 76.2978 23.1625 77.0214 23.4409C76.9256 23.0335 76.8297 22.626 76.7341 22.2186C76.0463 22.1349 75.36 22.0505 74.6721 21.9657C74.6705 21.966 74.6689 21.9663 74.6674 21.9666ZM392.037 9.26971C392.616 11.5363 391.122 11.2143 388.035 10.2632C389.336 9.93393 390.732 9.59848 392.037 9.26971ZM196.33 22.9393C196.27 23.5979 196.212 24.2544 196.149 24.9132C194.533 24.3291 194.783 23.5636 195.477 22.655C195.756 22.75 196.037 22.8454 196.33 22.9393ZM173.502 23.3925C174.155 23.2556 173.823 23.7836 173.891 23.773C175.565 23.4919 175.79 23.2507 177.838 23.6299C178.088 23.766 178.339 23.909 178.589 24.0488C177.661 25.4292 176.964 24.6915 174.961 25.5039C175.317 25.0329 175.678 24.5608 176.038 24.0869C174.918 24.1924 173.819 24.2924 172.702 24.3911C172.569 24.2461 172.432 24.1024 172.304 23.9574C172.703 23.7716 173.104 23.5625 173.502 23.3925ZM66.1262 22.022C65.0375 22.0035 63.9461 21.9855 62.8599 21.9644C62.8434 21.6251 62.8287 21.2836 62.8123 20.9443C63.9144 21.3048 65.0204 21.6643 66.1262 22.022ZM414.338 8.82508C414.428 8.93922 414.521 9.05384 414.606 9.17113C414.59 9.02258 414.48 8.91293 414.338 8.82508ZM605.358 16.9997C606.608 16.9073 608.354 17.2662 609.7 17.3729C609.497 18.2012 606.114 17.5723 604.858 17.9431C604.683 17.7699 604.83 17.0383 605.358 16.9997ZM305.14 16.5473C304.8 16.1487 304.461 15.7521 304.127 15.3533C303.385 15.453 302.643 15.5554 301.899 15.6554C301.852 15.3123 301.805 14.9661 301.757 14.623C305.085 14.8303 304.256 13.8915 305.817 12.7919C305.591 14.043 305.367 15.294 305.14 16.5473ZM31.8933 17.0843C34.2464 17.5378 35.0463 18.0477 33.6172 18.9586C32.7955 18.6443 31.9753 18.329 31.1616 18.0138C31.4102 17.7046 31.6516 17.3943 31.8933 17.0843ZM457.793 6.28888C459.788 6.6904 459.836 5.29912 461.783 6.09574C460.733 6.34134 459.685 6.59151 458.641 6.84043C458.36 6.65691 458.073 6.47217 457.793 6.28888ZM359.627 7.995C360.432 7.45198 362.193 9.63296 364.416 7.77108C365.008 8.23715 365.403 8.69445 365.926 9.15507C366.171 8.59594 366.455 8.02723 366.686 7.47327C366.688 7.47316 366.689 7.47305 366.691 7.47294C368.851 7.50157 367.507 8.27664 367.597 8.84503C367.638 9.08037 369.194 8.57121 368.736 9.12245C367.956 10.0681 364.672 9.79047 364.757 10.8698C365.856 10.4365 368.096 10.5733 367.491 11.3404C366.834 12.1819 364.65 11.0059 363.39 11.7555C365.154 9.89487 361.293 10.7066 360.933 12.0648C358.553 11.2123 360.65 10.6445 363.005 10.5238C361.498 9.61066 363.65 10.0083 363.933 9.13948C362.427 8.73465 357.364 9.52457 359.627 7.995ZM251.541 17.7364C253.15 17.6854 255.56 16.9265 256.715 17.7041C257.384 18.1575 254.927 18.725 256.698 19.3846C255.145 19.4207 254.78 19.1392 254.991 18.4329C254.636 18.3758 254.277 18.3209 253.925 18.2657C253.777 18.4112 253.612 18.5563 253.458 18.7023C253.249 18.4331 253.041 18.1663 252.838 17.8967C252.464 17.9799 252.088 18.0633 251.718 18.1483C251.663 18.0093 251.579 17.891 251.541 17.7364ZM515.172 8.33343C514.731 8.29919 514.295 8.26544 513.855 8.22958C513.913 8.06484 513.981 7.89371 514.047 7.72474C514.095 7.59099 514.143 7.45723 514.19 7.32348C513.906 7.79441 511.76 8.48194 510.905 7.91377C510.474 7.62858 511.539 6.75965 509.66 6.49398C511.025 6.61667 512.286 6.81432 513.609 6.96946C513.506 6.68774 513.407 6.40336 513.304 6.12167C513.305 6.12131 513.305 6.12095 513.306 6.12059C513.752 6.08402 514.202 6.04497 514.647 6.00877C514.823 6.78417 514.996 7.55799 515.172 8.33343ZM197.534 21.5694C199.044 22.016 199.605 22.2606 198.93 23.179C198.928 23.1795 198.927 23.18 198.925 23.1805C198.331 22.8305 197.777 22.4778 197.175 22.1275C197.292 21.9419 197.41 21.7556 197.534 21.5694ZM427.116 5.15065C430.517 8.27666 423.179 6.66709 424.496 5.45882C424.529 5.40462 426.863 5.5318 427.116 5.15065ZM310.061 15.0904C309.182 15.1275 308.302 15.1673 307.421 15.2047C307.593 14.7832 307.771 14.3629 307.944 13.9414C308.648 14.3237 309.355 14.7081 310.061 15.0904ZM42.3593 16.5065C43.3558 15.6781 45.7408 15.547 46.8094 16.6278C46.1927 16.6936 45.5812 16.7595 44.9641 16.8243C46.1027 17.0335 47.2184 17.2507 48.3669 17.4514C48.325 18.7208 47.0539 17.8807 45.0234 18.0627C44.7094 18.0935 42.5974 19.4964 42.0097 18.2543C41.8925 17.9996 44.0162 18.0135 42.6108 17.1821C43.2571 17.1811 43.8062 17.2399 44.4156 17.2599C44.4846 16.9624 44.5531 16.6645 44.6263 16.3674C43.8681 16.4138 43.1212 16.4618 42.3593 16.5065ZM260.779 17.1635C262.952 16.9349 263.282 17.4192 263.787 18.2807C262.772 18.253 261.731 18.2288 260.715 18.201C260.739 17.8557 260.756 17.5108 260.779 17.1635ZM61.7782 17.7264C62.975 17.6632 62.4163 18.3552 62.8854 18.5267C64.6578 19.172 65.931 18.7353 67.6954 19.1786C67.5857 19.0304 67.4852 18.892 67.3799 18.7481C67.3815 18.7482 67.3831 18.7483 67.3846 18.7484C75.8887 18.6759 71.3392 20.0501 66.288 19.4478C66.151 19.7104 66.0187 19.9737 65.8819 20.2343C63.644 19.61 61.5859 19.0076 61.7782 17.7264ZM398.726 6.85799C398.81 6.68217 397.918 5.6617 399.491 6.06084C400.808 7.54992 398.773 6.90455 398.301 7.54392C398.733 7.66593 399.171 7.7835 399.591 7.90638C397.128 8.5199 396.694 8.17465 397.554 6.9623C397.617 6.88048 398.642 7.03326 398.726 6.85799ZM415.121 4.99411C415.6 7.2882 412.396 6.44881 412.458 5.72335C412.894 5.66631 413.256 6.03657 413.7 5.83389C414.144 5.63109 414.231 5.08231 415.121 4.99411ZM324.697 11.9205C324.789 11.9035 325.647 10.8633 325.61 11.6314C324.593 13.5171 322.191 12.5257 322.551 11.8686C323.319 11.8439 323.85 12.0771 324.697 11.9181C324.697 11.9189 324.697 11.9197 324.697 11.9205ZM28.1137 14.664C28.1583 14.6038 30.5067 14.4339 30.767 14.8234C30.973 15.2544 31.054 15.7031 31.1993 16.1428C29.9643 15.6328 27.3665 15.684 28.1184 14.6645C28.1168 14.6643 28.1152 14.6642 28.1137 14.664Z" fill="#7DADFE"/>
</svg>
