<svg width="949" height="449" viewBox="0 0 949 449" fill="none" xmlns="http://www.w3.org/2000/svg">
<path d="M938.345 128.132C934.558 129.595 932.668 133.868 934.132 137.655C935.595 141.441 939.868 143.332 943.655 141.868C947.442 140.405 949.332 136.132 947.868 132.345C946.405 128.558 942.132 126.668 938.345 128.132ZM943.884 142.462C939.77 144.052 935.128 141.999 933.538 137.884C931.948 133.769 934.002 129.128 938.116 127.538C942.23 125.948 946.872 128.001 948.462 132.116C950.052 136.231 947.998 140.871 943.884 142.462Z" fill="white"/>
<path d="M943.516 128.766C944.808 129.338 945.454 130.712 944.957 131.833C944.461 132.955 943.011 133.401 941.718 132.829C940.426 132.257 939.78 130.884 940.276 129.762C940.773 128.64 942.223 128.194 943.516 128.766Z" fill="white"/>
<path d="M846.345 434.132C842.558 435.595 840.668 439.868 842.132 443.655C843.595 447.441 847.868 449.332 851.655 447.868C855.442 446.405 857.332 442.132 855.868 438.345C854.405 434.558 850.132 432.668 846.345 434.132ZM851.884 448.462C847.77 450.052 843.128 447.999 841.538 443.884C839.948 439.769 842.002 435.128 846.116 433.538C850.23 431.948 854.872 434.001 856.462 438.116C858.052 442.231 855.998 446.871 851.884 448.462Z" fill="white"/>
<path d="M851.516 434.766C852.808 435.338 853.454 436.712 852.957 437.833C852.461 438.955 851.011 439.401 849.718 438.829C848.426 438.257 847.78 436.884 848.276 435.762C848.773 434.64 850.223 434.194 851.516 434.766Z" fill="white"/>
<path d="M904.009 275.849C901.169 276.946 899.751 280.151 900.849 282.991C901.947 285.831 905.151 287.249 907.991 286.151C910.831 285.053 912.249 281.849 911.151 279.009C910.053 276.168 906.849 274.751 904.009 275.849ZM908.163 286.596C905.077 287.789 901.596 286.249 900.403 283.163C899.211 280.077 900.751 276.596 903.837 275.403C906.923 274.211 910.404 275.751 911.597 278.837C912.789 281.923 911.249 285.404 908.163 286.596Z" fill="white"/>
<path d="M907.887 276.321C908.856 276.75 909.341 277.78 908.968 278.621C908.596 279.462 907.508 279.797 906.539 279.368C905.569 278.939 905.085 277.909 905.457 277.068C905.83 276.226 906.917 275.892 907.887 276.321Z" fill="white"/>
<path d="M613.531 50.2307C613.107 53.2459 615.215 56.0438 618.23 56.4687C621.247 56.8919 624.044 54.7847 624.468 51.7686C624.893 48.7534 622.784 45.9556 619.768 45.5315C616.753 45.1074 613.955 47.2155 613.531 50.2307ZM624.941 51.8355C624.48 55.1111 621.44 57.4013 618.164 56.9412C614.888 56.4801 612.598 53.4394 613.059 50.1647C613.519 46.8882 616.559 44.598 619.835 45.059C623.111 45.5201 625.401 48.5599 624.941 51.8355Z" fill="white"/>
<path d="M615.839 47.0715C616.685 46.4337 617.82 46.512 618.373 47.2475C618.928 47.9822 618.69 49.0952 617.843 49.7322C616.996 50.3709 615.861 50.2917 615.307 49.5571C614.755 48.8224 614.992 47.7103 615.839 47.0715Z" fill="white"/>
<path d="M735.009 242.849C732.168 243.947 730.751 247.151 731.849 249.991C732.946 252.832 736.15 254.249 738.991 253.152C741.831 252.053 743.249 248.849 742.15 246.009C741.054 243.169 737.849 241.751 735.009 242.849ZM739.163 253.596C736.077 254.789 732.596 253.249 731.403 250.162C730.211 247.078 731.751 243.597 734.837 242.404C737.922 241.211 741.404 242.751 742.597 245.837C743.788 248.923 742.248 252.404 739.163 253.596Z" fill="white"/>
<path d="M739.555 244.189C740.525 244.617 741.009 245.647 740.636 246.489C740.264 247.33 739.177 247.663 738.207 247.235C737.237 246.806 736.753 245.776 737.126 244.935C737.498 244.094 738.585 243.759 739.555 244.189Z" fill="white"/>
<path d="M4.00933 89.8486C1.16838 90.9471 -0.249162 94.1506 0.849371 96.9907C1.94623 99.8317 5.15056 101.249 7.99151 100.152C10.8308 99.053 12.2492 95.8495 11.1506 93.0085C10.0538 90.1693 6.84944 88.7509 4.00933 89.8486ZM8.16315 100.596C5.07688 101.789 1.59624 100.249 0.403092 97.1624C-0.788381 94.0778 0.751407 90.5971 3.83684 89.404C6.92228 88.2108 10.4038 89.7515 11.5969 92.8369C12.7884 95.9232 11.2486 99.4038 8.16315 100.596Z" fill="white"/>
<path d="M7.55526 90.1885C8.52484 90.6172 9.0088 91.6471 8.63621 92.4886C8.26445 93.33 7.1768 93.6633 6.20721 93.2354C5.23762 92.8059 4.75282 91.776 5.12626 90.9354C5.49802 90.0939 6.58567 89.759 7.55526 90.1885Z" fill="white"/>
<path d="M817 118.535C812.336 118.535 808.542 122.329 808.542 126.992C808.542 131.656 812.336 135.45 817 135.45C821.663 135.45 825.457 131.656 825.457 126.992C825.457 122.329 821.663 118.535 817 118.535ZM817 135.992C812.037 135.992 808 131.955 808 126.992C808 122.029 812.037 117.993 817 117.993C821.962 117.993 826 122.029 826 126.992C826 131.955 821.962 135.992 817 135.992Z" fill="white"/>
<path d="M822.274 121.366C823.422 122.514 823.545 124.253 822.549 125.249C821.552 126.245 819.814 126.121 818.666 124.973C817.517 123.825 817.395 122.087 818.39 121.091C819.387 120.094 821.126 120.218 822.274 121.366Z" fill="white"/>
<path d="M818.069 125.788C818.558 126.279 818.611 127.022 818.186 127.447C817.76 127.872 817.017 127.819 816.527 127.329C816.037 126.84 815.985 126.097 816.41 125.671C816.835 125.246 817.578 125.298 818.069 125.788Z" fill="white"/>
<path d="M721 395.543C716.336 395.543 712.542 399.337 712.542 404C712.542 408.664 716.336 412.458 721 412.458C725.663 412.458 729.457 408.664 729.457 404C729.457 399.337 725.663 395.543 721 395.543ZM721 413C716.037 413 712 408.963 712 404C712 399.037 716.037 395.001 721 395.001C725.962 395.001 730 399.037 730 404C730 408.963 725.962 413 721 413Z" fill="white"/>
<path d="M726.274 398.366C727.422 399.514 727.545 401.253 726.549 402.249C725.552 403.245 723.814 403.121 722.666 401.973C721.517 400.825 721.395 399.087 722.39 398.091C723.387 397.094 725.126 397.218 726.274 398.366Z" fill="white"/>
<path d="M722.069 402.788C722.558 403.279 722.611 404.022 722.186 404.447C721.76 404.872 721.017 404.819 720.527 404.329C720.037 403.84 719.985 403.097 720.41 402.671C720.835 402.246 721.578 402.298 722.069 402.788Z" fill="white"/>
<path d="M74 197.543C69.3359 197.543 65.5421 201.337 65.5421 206C65.5421 210.664 69.3359 214.458 74 214.458C78.6632 214.458 82.457 210.664 82.457 206C82.457 201.337 78.6632 197.543 74 197.543ZM74 215C69.0369 215 65 210.963 65 206C65 201.037 69.0369 197.001 74 197.001C78.9622 197.001 83 201.037 83 206C83 210.963 78.9622 215 74 215Z" fill="white"/>
<path d="M79.2738 200.366C80.4219 201.514 80.5452 203.253 79.5488 204.249C78.5525 205.245 76.8144 205.121 75.6663 203.973C74.5174 202.825 74.3949 201.087 75.3904 200.091C76.3868 199.094 78.1257 199.218 79.2738 200.366Z" fill="white"/>
<path d="M75.0686 204.796C75.5583 205.287 75.6107 206.029 75.1857 206.454C74.7598 206.88 74.0172 206.827 73.5275 206.337C73.0369 205.848 72.9845 205.105 73.4104 204.679C73.8354 204.254 74.578 204.306 75.0686 204.796Z" fill="white"/>
<path d="M900.354 377.487C900.072 379.497 901.477 381.362 903.487 381.645C905.497 381.927 907.363 380.522 907.645 378.512C907.928 376.502 906.522 374.636 904.512 374.354C902.503 374.071 900.636 375.476 900.354 377.487ZM907.961 378.556C907.653 380.741 905.627 382.268 903.442 381.961C901.259 381.653 899.732 379.626 900.039 377.442C900.346 375.259 902.373 373.732 904.557 374.039C906.741 374.345 908.268 376.373 907.961 378.556Z" fill="white"/>
<path d="M901.892 375.392C902.457 374.967 903.213 375.018 903.583 375.509C903.952 375.998 903.794 376.741 903.228 377.165C902.665 377.591 901.908 377.538 901.539 377.049C901.169 376.559 901.327 375.817 901.892 375.392Z" fill="white"/>
<path d="M12.3541 299.487C12.0719 301.497 13.477 303.362 15.4869 303.645C17.4968 303.927 19.363 302.522 19.6452 300.512C19.9284 298.502 18.5224 296.636 16.5124 296.354C14.5025 296.071 12.6364 297.476 12.3541 299.487ZM19.9608 300.556C19.6531 302.741 17.6274 304.268 15.4422 303.961C13.2587 303.653 11.7318 301.626 12.0394 299.442C12.3462 297.259 14.3728 295.732 16.5571 296.039C18.7406 296.345 20.2676 298.373 19.9608 300.556Z" fill="white"/>
<path d="M13.8923 297.384C14.4568 296.959 15.2133 297.01 15.5832 297.501C15.9522 297.99 15.7936 298.733 15.2282 299.157C14.6646 299.583 13.9081 299.531 13.5391 299.041C13.1692 298.551 13.327 297.809 13.8923 297.384Z" fill="white"/>
<path d="M108.354 307.487C108.072 309.497 109.477 311.362 111.487 311.645C113.497 311.927 115.363 310.522 115.645 308.512C115.928 306.502 114.522 304.636 112.512 304.354C110.503 304.071 108.636 305.476 108.354 307.487ZM115.961 308.556C115.653 310.741 113.627 312.268 111.442 311.961C109.259 311.653 107.732 309.626 108.039 307.442C108.346 305.259 110.373 303.732 112.557 304.039C114.741 304.345 116.268 306.373 115.961 308.556Z" fill="white"/>
<path d="M109.892 305.392C110.457 304.967 111.213 305.018 111.583 305.509C111.952 305.998 111.794 306.741 111.228 307.165C110.665 307.591 109.908 307.538 109.539 307.049C109.169 306.559 109.327 305.817 109.892 305.392Z" fill="white"/>
<path d="M825.999 220.279C824.5 220.279 823.279 221.499 823.279 222.999C823.279 224.499 824.5 225.719 825.999 225.719C827.499 225.719 828.72 224.499 828.72 222.999C828.72 221.499 827.499 220.279 825.999 220.279ZM825.999 226C824.346 226 823 224.652 823 222.999C823 221.345 824.346 220 825.999 220C827.654 220 829 221.345 829 222.999C829 224.652 827.654 226 825.999 226Z" fill="#9BEBFF"/>
<path d="M887.999 1.20461C877.637 1.20461 869.205 9.63684 869.205 20.0007C869.205 30.3645 877.637 38.7954 887.999 38.7954C898.363 38.7954 906.795 30.3645 906.795 20.0007C906.795 9.63684 898.363 1.20461 887.999 1.20461ZM887.999 40C876.972 40 868 31.0281 868 20.0007C868 8.97187 876.972 3.8147e-06 887.999 3.8147e-06C899.027 3.8147e-06 908 8.97187 908 20.0007C908 31.0281 899.027 40 887.999 40Z" fill="white"/>
<path d="M899.719 7.49155C902.271 10.0433 902.544 13.9051 900.33 16.1191C898.116 18.3343 894.253 18.0612 891.701 15.5095C889.151 12.9591 888.877 9.09461 891.09 6.88067C893.305 4.66673 897.167 4.93985 899.719 7.49155Z" fill="white"/>
<path d="M890.373 17.3396C891.463 18.4294 891.579 20.0787 890.634 21.0247C889.688 21.9707 888.038 21.8532 886.949 20.7634C885.859 19.6749 885.742 18.0244 886.688 17.0797C887.634 16.1337 889.283 16.2498 890.373 17.3396Z" fill="white"/>
<path d="M43.4996 0.813108C36.5049 0.813108 30.8131 6.50487 30.8131 13.5004C30.8131 20.496 36.5049 26.1869 43.4996 26.1869C50.4951 26.1869 56.1869 20.496 56.1869 13.5004C56.1869 6.50487 50.4951 0.813108 43.4996 0.813108ZM43.4996 27C36.056 27 30 20.944 30 13.5004C30 6.05601 36.056 0 43.4996 0C50.9431 0 57 6.05601 57 13.5004C57 20.944 50.9431 27 43.4996 27Z" fill="white"/>
<path d="M51.4102 5.05582C53.1326 6.77822 53.317 9.38498 51.8226 10.8794C50.3281 12.3747 47.7205 12.1903 45.9981 10.4679C44.2766 8.74642 44.0922 6.13789 45.5858 4.64348C47.0811 3.14907 49.6878 3.33342 51.4102 5.05582Z" fill="white"/>
<path d="M45.1019 11.706C45.8375 12.4416 45.9159 13.5548 45.2782 14.1934C44.6397 14.832 43.5255 14.7527 42.7908 14.0171C42.0552 13.2823 41.9759 12.1682 42.6145 11.5305C43.253 10.892 44.3663 10.9704 45.1019 11.706Z" fill="white"/>
</svg>
