<svg width="358" height="402" viewBox="0 0 358 402" fill="none" xmlns="http://www.w3.org/2000/svg">
<rect width="358" height="402" rx="12" fill="white"/>
<mask id="path-2-inside-1_16470_48841" fill="white">
<path d="M0 12C0 5.37258 5.37258 0 12 0H346C352.627 0 358 5.37258 358 12V72H0V12Z"/>
</mask>
<path d="M0 0H358H0ZM358 73H0V71H358V73ZM0 72V0V72ZM358 0V72V0Z" fill="#F4F4F5" mask="url(#path-2-inside-1_16470_48841)"/>
<g filter="url(#filter0_d_16470_48841)">
<rect x="16.5" y="16.5" width="39" height="39" rx="19.5" stroke="url(#paint0_linear_16470_48841)" shape-rendering="crispEdges"/>
<path d="M38.625 41.25L33.375 36L38.625 30.75" stroke="#3F3F46" stroke-width="2" stroke-linecap="round" stroke-linejoin="round"/>
</g>
<path d="M139.018 41.5L134.65 30.3H136.506L140.986 41.5H139.018ZM130.074 41.5L134.538 30.3H136.41L132.042 41.5H130.074ZM132.17 38.748V37.1H138.874V38.748H132.17ZM147.469 41.5L147.373 40.028V33.5H149.149V41.5H147.469ZM141.933 37.596V33.5H143.725V37.596H141.933ZM143.725 37.596C143.725 38.2253 143.8 38.716 143.949 39.068C144.099 39.42 144.301 39.6653 144.557 39.804C144.824 39.9427 145.128 40.012 145.469 40.012C146.077 40.0227 146.547 39.8253 146.877 39.42C147.208 39.0147 147.373 38.4333 147.373 37.676H148.045C148.045 38.5187 147.917 39.244 147.661 39.852C147.416 40.4493 147.064 40.908 146.605 41.228C146.157 41.5373 145.613 41.692 144.973 41.692C144.344 41.692 143.8 41.564 143.341 41.308C142.893 41.052 142.547 40.652 142.301 40.108C142.056 39.564 141.933 38.8653 141.933 38.012V37.596H143.725ZM154.58 44.908C154.015 44.908 153.503 44.86 153.044 44.764C152.596 44.668 152.218 44.556 151.908 44.428C151.599 44.3 151.359 44.1773 151.188 44.06L151.876 42.62C152.026 42.6947 152.223 42.7853 152.468 42.892C152.724 43.0093 153.023 43.1107 153.364 43.196C153.706 43.2813 154.09 43.324 154.516 43.324C154.975 43.324 155.386 43.228 155.748 43.036C156.111 42.8547 156.394 42.572 156.596 42.188C156.799 41.804 156.9 41.3133 156.9 40.716V33.5H158.692V40.668C158.692 41.5747 158.522 42.3427 158.18 42.972C157.839 43.612 157.359 44.092 156.74 44.412C156.122 44.7427 155.402 44.908 154.58 44.908ZM154.308 41.34C153.583 41.34 152.948 41.1747 152.404 40.844C151.871 40.5133 151.45 40.0547 151.14 39.468C150.842 38.8707 150.692 38.1827 150.692 37.404C150.692 36.572 150.842 35.852 151.14 35.244C151.45 34.636 151.871 34.1613 152.404 33.82C152.948 33.4787 153.583 33.308 154.308 33.308C154.959 33.308 155.524 33.4787 156.004 33.82C156.495 34.1613 156.874 34.6413 157.14 35.26C157.407 35.868 157.54 36.588 157.54 37.42C157.54 38.2093 157.407 38.8973 157.14 39.484C156.874 40.0707 156.495 40.5293 156.004 40.86C155.524 41.18 154.959 41.34 154.308 41.34ZM154.804 39.82C155.21 39.82 155.562 39.7133 155.86 39.5C156.17 39.2867 156.41 38.9987 156.58 38.636C156.751 38.2627 156.836 37.836 156.836 37.356C156.836 36.8653 156.751 36.4387 156.58 36.076C156.41 35.7027 156.17 35.4147 155.86 35.212C155.551 34.9987 155.194 34.892 154.788 34.892C154.362 34.892 153.983 34.9987 153.652 35.212C153.332 35.4147 153.076 35.7027 152.884 36.076C152.703 36.4387 152.612 36.8653 152.612 37.356C152.612 37.836 152.703 38.2627 152.884 38.636C153.076 38.9987 153.338 39.2867 153.668 39.5C153.999 39.7133 154.378 39.82 154.804 39.82ZM166.032 41.5L165.936 40.028V33.5H167.712V41.5H166.032ZM160.496 37.596V33.5H162.288V37.596H160.496ZM162.288 37.596C162.288 38.2253 162.362 38.716 162.512 39.068C162.661 39.42 162.864 39.6653 163.12 39.804C163.386 39.9427 163.69 40.012 164.032 40.012C164.64 40.0227 165.109 39.8253 165.44 39.42C165.77 39.0147 165.936 38.4333 165.936 37.676H166.608C166.608 38.5187 166.48 39.244 166.224 39.852C165.978 40.4493 165.626 40.908 165.168 41.228C164.72 41.5373 164.176 41.692 163.536 41.692C162.906 41.692 162.362 41.564 161.904 41.308C161.456 41.052 161.109 40.652 160.864 40.108C160.618 39.564 160.496 38.8653 160.496 38.012V37.596H162.288ZM172.615 41.692C172.082 41.692 171.591 41.612 171.143 41.452C170.695 41.292 170.311 41.068 169.991 40.78C169.671 40.4813 169.426 40.1347 169.255 39.74L170.807 39.052C170.967 39.3507 171.202 39.6013 171.511 39.804C171.831 40.0067 172.183 40.108 172.567 40.108C172.983 40.108 173.314 40.0387 173.559 39.9C173.815 39.7507 173.943 39.548 173.943 39.292C173.943 39.0467 173.847 38.86 173.655 38.732C173.463 38.5933 173.191 38.4813 172.839 38.396L172.087 38.188C171.33 37.996 170.738 37.692 170.311 37.276C169.884 36.8493 169.671 36.364 169.671 35.82C169.671 35.02 169.927 34.4013 170.439 33.964C170.962 33.5267 171.708 33.308 172.679 33.308C173.17 33.308 173.618 33.3827 174.023 33.532C174.439 33.6707 174.796 33.8733 175.095 34.14C175.394 34.396 175.602 34.7 175.719 35.052L174.231 35.724C174.124 35.4573 173.922 35.2547 173.623 35.116C173.324 34.9667 172.994 34.892 172.631 34.892C172.268 34.892 171.986 34.972 171.783 35.132C171.58 35.2813 171.479 35.4947 171.479 35.772C171.479 35.932 171.57 36.0813 171.751 36.22C171.932 36.348 172.194 36.4547 172.535 36.54L173.479 36.764C174.002 36.892 174.428 37.0947 174.759 37.372C175.09 37.6387 175.335 37.9427 175.495 38.284C175.655 38.6147 175.735 38.9507 175.735 39.292C175.735 39.772 175.596 40.1933 175.319 40.556C175.052 40.9187 174.684 41.2013 174.215 41.404C173.746 41.596 173.212 41.692 172.615 41.692ZM180.34 41.692C179.497 41.692 178.852 41.484 178.404 41.068C177.967 40.6413 177.748 40.0333 177.748 39.244V31.004H179.524V38.908C179.524 39.2813 179.609 39.564 179.78 39.756C179.961 39.948 180.223 40.044 180.564 40.044C180.671 40.044 180.788 40.0227 180.916 39.98C181.044 39.9373 181.188 39.8573 181.348 39.74L182.004 41.1C181.727 41.292 181.449 41.436 181.172 41.532C180.895 41.6387 180.617 41.692 180.34 41.692ZM176.42 35.036V33.5H181.684V35.036H176.42ZM182.973 43.34L183.933 39.708H185.821L184.381 43.34H182.973ZM191.091 41.5V40.076C191.091 39.7453 191.176 39.404 191.347 39.052C191.517 38.6893 191.757 38.3267 192.067 37.964C192.387 37.6013 192.76 37.26 193.187 36.94L195.139 35.532C195.384 35.3613 195.608 35.164 195.811 34.94C196.024 34.716 196.195 34.4813 196.323 34.236C196.451 33.98 196.515 33.7293 196.515 33.484C196.515 33.1747 196.435 32.892 196.275 32.636C196.125 32.38 195.907 32.1773 195.619 32.028C195.341 31.8787 195 31.804 194.595 31.804C194.232 31.804 193.907 31.8787 193.619 32.028C193.341 32.1667 193.112 32.3533 192.931 32.588C192.749 32.8227 192.621 33.0787 192.547 33.356L190.643 33.004C190.749 32.492 190.973 32.0173 191.315 31.58C191.667 31.132 192.115 30.7747 192.659 30.508C193.213 30.2413 193.843 30.108 194.547 30.108C195.336 30.108 196.019 30.252 196.595 30.54C197.181 30.828 197.629 31.228 197.939 31.74C198.259 32.2413 198.419 32.8173 198.419 33.468C198.419 34.1293 198.237 34.7267 197.875 35.26C197.523 35.7827 197.027 36.284 196.387 36.764L194.595 38.092C194.243 38.348 193.955 38.6253 193.731 38.924C193.507 39.212 193.352 39.5213 193.267 39.852H198.563V41.5H191.091ZM204.519 41.692C203.645 41.692 202.866 41.4467 202.183 40.956C201.501 40.4547 200.962 39.772 200.567 38.908C200.183 38.0333 199.991 37.0307 199.991 35.9C199.991 34.7693 200.183 33.772 200.567 32.908C200.962 32.0333 201.495 31.3507 202.167 30.86C202.85 30.3587 203.634 30.108 204.519 30.108C205.405 30.108 206.189 30.3587 206.871 30.86C207.554 31.3507 208.087 32.0333 208.471 32.908C208.866 33.772 209.063 34.7693 209.063 35.9C209.063 37.0307 208.866 38.0333 208.471 38.908C208.087 39.772 207.554 40.4547 206.871 40.956C206.199 41.4467 205.415 41.692 204.519 41.692ZM204.535 40.012C205.058 40.012 205.522 39.836 205.927 39.484C206.343 39.132 206.663 38.6467 206.887 38.028C207.122 37.4093 207.239 36.7 207.239 35.9C207.239 35.1 207.122 34.3907 206.887 33.772C206.663 33.1427 206.343 32.652 205.927 32.3C205.522 31.948 205.053 31.772 204.519 31.772C203.986 31.772 203.517 31.948 203.111 32.3C202.706 32.652 202.386 33.1373 202.151 33.756C201.927 34.3747 201.815 35.0893 201.815 35.9C201.815 36.7 201.927 37.4093 202.151 38.028C202.386 38.6467 202.706 39.132 203.111 39.484C203.527 39.836 204.002 40.012 204.535 40.012ZM210.544 41.5V40.076C210.544 39.7453 210.629 39.404 210.8 39.052C210.97 38.6893 211.21 38.3267 211.52 37.964C211.84 37.6013 212.213 37.26 212.64 36.94L214.592 35.532C214.837 35.3613 215.061 35.164 215.264 34.94C215.477 34.716 215.648 34.4813 215.776 34.236C215.904 33.98 215.968 33.7293 215.968 33.484C215.968 33.1747 215.888 32.892 215.728 32.636C215.578 32.38 215.36 32.1773 215.072 32.028C214.794 31.8787 214.453 31.804 214.048 31.804C213.685 31.804 213.36 31.8787 213.072 32.028C212.794 32.1667 212.565 32.3533 212.384 32.588C212.202 32.8227 212.074 33.0787 212 33.356L210.096 33.004C210.202 32.492 210.426 32.0173 210.768 31.58C211.12 31.132 211.568 30.7747 212.112 30.508C212.666 30.2413 213.296 30.108 214 30.108C214.789 30.108 215.472 30.252 216.048 30.54C216.634 30.828 217.082 31.228 217.392 31.74C217.712 32.2413 217.872 32.8173 217.872 33.468C217.872 34.1293 217.69 34.7267 217.328 35.26C216.976 35.7827 216.48 36.284 215.84 36.764L214.048 38.092C213.696 38.348 213.408 38.6253 213.184 38.924C212.96 39.212 212.805 39.5213 212.72 39.852H218.016V41.5H210.544ZM223.492 41.692C223.002 41.692 222.5 41.6173 221.988 41.468C221.487 41.308 221.023 41.0733 220.596 40.764C220.17 40.444 219.844 40.044 219.62 39.564L221.268 38.956C221.546 39.3507 221.871 39.6387 222.244 39.82C222.618 39.9907 223.002 40.076 223.396 40.076C224.026 40.076 224.538 39.8893 224.932 39.516C225.327 39.132 225.524 38.6253 225.524 37.996C225.524 37.388 225.332 36.8867 224.948 36.492C224.564 36.0973 224.063 35.9 223.444 35.9C223.082 35.9 222.74 35.98 222.42 36.14C222.111 36.3 221.871 36.492 221.7 36.716L220.02 36.348L220.644 30.3H226.836V31.98H222.244L221.924 35.02C222.212 34.8493 222.532 34.716 222.884 34.62C223.247 34.5133 223.626 34.46 224.02 34.46C224.66 34.46 225.236 34.6093 225.748 34.908C226.26 35.2067 226.666 35.6173 226.964 36.14C227.263 36.652 227.412 37.244 227.412 37.916C227.412 38.6627 227.242 39.3187 226.9 39.884C226.57 40.4493 226.111 40.892 225.524 41.212C224.938 41.532 224.26 41.692 223.492 41.692Z" fill="#09090B"/>
<g filter="url(#filter1_d_16470_48841)">
<rect x="302.5" y="16.5" width="39" height="39" rx="19.5" stroke="url(#paint1_linear_16470_48841)" shape-rendering="crispEdges"/>
<path d="M319.375 30.75L324.625 36L319.375 41.25" stroke="#3F3F46" stroke-width="2" stroke-linecap="round" stroke-linejoin="round"/>
</g>
<path d="M29.145 95V83.8H31.129L34.649 88.984L38.137 83.8H40.137V95H38.281V86.728L34.633 92.12L31.001 86.76V95H29.145ZM46.1296 95.192C45.3296 95.192 44.6149 95.016 43.9856 94.664C43.3669 94.3013 42.8816 93.8053 42.5296 93.176C42.1776 92.5467 42.0016 91.8213 42.0016 91C42.0016 90.1787 42.1723 89.4533 42.5136 88.824C42.8656 88.1947 43.3509 87.704 43.9696 87.352C44.5883 86.9893 45.2976 86.808 46.0976 86.808C46.8976 86.808 47.6069 86.9893 48.2256 87.352C48.8443 87.704 49.3243 88.1947 49.6656 88.824C50.0176 89.4533 50.1936 90.1787 50.1936 91C50.1936 91.8213 50.0229 92.5467 49.6816 93.176C49.3403 93.8053 48.8603 94.3013 48.2416 94.664C47.6229 95.016 46.9189 95.192 46.1296 95.192ZM46.1296 93.544C46.5669 93.544 46.9563 93.4373 47.2976 93.224C47.6389 93 47.9056 92.7013 48.0976 92.328C48.2896 91.944 48.3856 91.5013 48.3856 91C48.3856 90.4987 48.2843 90.0613 48.0816 89.688C47.8896 89.304 47.6229 89.0053 47.2816 88.792C46.9403 88.568 46.5456 88.456 46.0976 88.456C45.6496 88.456 45.2549 88.5627 44.9136 88.776C44.5723 88.9893 44.3056 89.288 44.1136 89.672C43.9216 90.056 43.8256 90.4987 43.8256 91C43.8256 91.5013 43.9216 91.944 44.1136 92.328C44.3163 92.7013 44.5883 93 44.9296 93.224C45.2816 93.4373 45.6816 93.544 46.1296 93.544Z" fill="#1E1E1E" fill-opacity="0.6"/>
<path d="M80.7395 95V85.496H77.2995V83.8H86.0355V85.496H82.5955V95H80.7395ZM91.9435 95L91.8475 93.528V87H93.6235V95H91.9435ZM86.4075 91.096V87H88.1995V91.096H86.4075ZM88.1995 91.096C88.1995 91.7253 88.2742 92.216 88.4235 92.568C88.5728 92.92 88.7755 93.1653 89.0315 93.304C89.2982 93.4427 89.6022 93.512 89.9435 93.512C90.5515 93.5227 91.0208 93.3253 91.3515 92.92C91.6822 92.5147 91.8475 91.9333 91.8475 91.176H92.5195C92.5195 92.0187 92.3915 92.744 92.1355 93.352C91.8902 93.9493 91.5382 94.408 91.0795 94.728C90.6315 95.0373 90.0875 95.192 89.4475 95.192C88.8182 95.192 88.2742 95.064 87.8155 94.808C87.3675 94.552 87.0208 94.152 86.7755 93.608C86.5302 93.064 86.4075 92.3653 86.4075 91.512V91.096H88.1995Z" fill="#1E1E1E" fill-opacity="0.6"/>
<path d="M130.833 95L134.129 83.8H136.017L132.625 95H130.833ZM124.049 95L120.705 83.8H122.577L125.857 95H124.049ZM124.289 95L127.441 83.8H129.153L126.017 95H124.289ZM130.657 95L127.569 83.8H129.281L132.465 95H130.657ZM140.043 95.192C139.265 95.192 138.571 95.016 137.963 94.664C137.366 94.3013 136.891 93.8053 136.539 93.176C136.198 92.5467 136.027 91.8213 136.027 91C136.027 90.1787 136.203 89.4533 136.555 88.824C136.907 88.1947 137.387 87.704 137.995 87.352C138.614 86.9893 139.318 86.808 140.107 86.808C140.822 86.808 141.467 86.9947 142.043 87.368C142.619 87.7307 143.073 88.2587 143.403 88.952C143.745 89.6453 143.915 90.472 143.915 91.432H137.627L137.867 91.208C137.867 91.6987 137.974 92.1253 138.187 92.488C138.401 92.84 138.683 93.112 139.035 93.304C139.387 93.496 139.777 93.592 140.203 93.592C140.694 93.592 141.099 93.4853 141.419 93.272C141.739 93.048 141.99 92.76 142.171 92.408L143.755 93.08C143.531 93.5067 143.243 93.88 142.891 94.2C142.55 94.52 142.139 94.7653 141.659 94.936C141.19 95.1067 140.651 95.192 140.043 95.192ZM137.979 90.28L137.723 90.056H142.235L141.995 90.28C141.995 89.8427 141.899 89.4853 141.707 89.208C141.515 88.92 141.27 88.7067 140.971 88.568C140.683 88.4187 140.379 88.344 140.059 88.344C139.739 88.344 139.419 88.4187 139.099 88.568C138.779 88.7067 138.513 88.92 138.299 89.208C138.086 89.4853 137.979 89.8427 137.979 90.28Z" fill="#1E1E1E" fill-opacity="0.6"/>
<path d="M173.546 95V85.496H170.106V83.8H178.842V85.496H175.402V95H173.546ZM180.063 95V83.8H181.855V95H180.063ZM185.487 95V90.904H187.279V95H185.487ZM185.487 90.904C185.487 90.264 185.412 89.7733 185.263 89.432C185.113 89.08 184.905 88.8347 184.639 88.696C184.383 88.5573 184.084 88.488 183.743 88.488C183.135 88.4773 182.665 88.6747 182.335 89.08C182.015 89.4853 181.855 90.0667 181.855 90.824H181.167C181.167 89.9813 181.289 89.2613 181.535 88.664C181.791 88.056 182.148 87.5973 182.607 87.288C183.065 86.968 183.609 86.808 184.239 86.808C184.868 86.808 185.412 86.936 185.871 87.192C186.329 87.448 186.676 87.848 186.911 88.392C187.156 88.9253 187.279 89.624 187.279 90.488V90.904H185.487Z" fill="#1E1E1E" fill-opacity="0.6"/>
<path d="M219.673 95V83.8H226.633V85.496H221.529V88.632H225.897V90.328H221.529V95H219.673ZM229.161 90.744C229.161 89.88 229.327 89.1707 229.657 88.616C229.988 88.0613 230.415 87.6507 230.937 87.384C231.471 87.1067 232.025 86.968 232.601 86.968V88.68C232.111 88.68 231.647 88.7493 231.209 88.888C230.783 89.016 230.436 89.2293 230.169 89.528C229.903 89.8267 229.769 90.2213 229.769 90.712L229.161 90.744ZM227.977 95V87H229.769V95H227.977Z" fill="#1E1E1E" fill-opacity="0.6"/>
<path d="M268.073 95.192C267.486 95.192 266.947 95.1227 266.457 94.984C265.977 94.8453 265.55 94.6533 265.177 94.408C264.814 94.1627 264.51 93.8907 264.265 93.592C264.03 93.2827 263.865 92.9627 263.769 92.632L265.593 92.072C265.731 92.4667 266.003 92.8133 266.409 93.112C266.814 93.4107 267.315 93.5653 267.913 93.576C268.606 93.576 269.155 93.432 269.561 93.144C269.966 92.856 270.169 92.4773 270.169 92.008C270.169 91.5813 269.998 91.2347 269.657 90.968C269.315 90.6907 268.857 90.4773 268.281 90.328L266.905 89.976C266.382 89.8373 265.907 89.6347 265.481 89.368C265.065 89.1013 264.734 88.7653 264.489 88.36C264.254 87.9547 264.137 87.4747 264.137 86.92C264.137 85.8747 264.478 85.064 265.161 84.488C265.843 83.9013 266.819 83.608 268.089 83.608C268.803 83.608 269.427 83.72 269.961 83.944C270.505 84.1573 270.953 84.456 271.305 84.84C271.657 85.2133 271.918 85.64 272.089 86.12L270.297 86.696C270.137 86.2693 269.859 85.9173 269.465 85.64C269.07 85.3627 268.579 85.224 267.993 85.224C267.385 85.224 266.905 85.368 266.553 85.656C266.211 85.944 266.041 86.344 266.041 86.856C266.041 87.272 266.174 87.5973 266.441 87.832C266.718 88.056 267.091 88.2267 267.561 88.344L268.937 88.68C269.939 88.9253 270.718 89.3467 271.273 89.944C271.827 90.5413 272.105 91.2027 272.105 91.928C272.105 92.568 271.95 93.1333 271.641 93.624C271.331 94.1147 270.873 94.4987 270.265 94.776C269.667 95.0533 268.937 95.192 268.073 95.192ZM278.702 95L278.622 93.496V90.888C278.622 90.344 278.564 89.8907 278.446 89.528C278.34 89.1547 278.158 88.872 277.902 88.68C277.657 88.4773 277.326 88.376 276.91 88.376C276.526 88.376 276.19 88.456 275.902 88.616C275.614 88.776 275.369 89.0267 275.166 89.368L273.598 88.792C273.769 88.44 273.993 88.1147 274.27 87.816C274.558 87.5067 274.916 87.2613 275.342 87.08C275.78 86.8987 276.302 86.808 276.91 86.808C277.689 86.808 278.34 86.9627 278.862 87.272C279.385 87.5707 279.769 88.0027 280.014 88.568C280.27 89.1333 280.398 89.816 280.398 90.616L280.35 95H278.702ZM276.398 95.192C275.438 95.192 274.692 94.9787 274.158 94.552C273.636 94.1253 273.374 93.5227 273.374 92.744C273.374 91.912 273.652 91.2773 274.206 90.84C274.772 90.4027 275.556 90.184 276.558 90.184H278.702V91.56H277.134C276.42 91.56 275.918 91.6613 275.63 91.864C275.342 92.056 275.198 92.3333 275.198 92.696C275.198 93.0053 275.321 93.2507 275.566 93.432C275.822 93.6027 276.174 93.688 276.622 93.688C277.028 93.688 277.38 93.5973 277.678 93.416C277.977 93.2347 278.206 92.9947 278.366 92.696C278.537 92.3973 278.622 92.0613 278.622 91.688H279.15C279.15 92.776 278.932 93.6347 278.494 94.264C278.057 94.8827 277.358 95.192 276.398 95.192Z" fill="#1E1E1E" fill-opacity="0.6"/>
<path d="M314.324 95.192C313.737 95.192 313.199 95.1227 312.708 94.984C312.228 94.8453 311.801 94.6533 311.428 94.408C311.065 94.1627 310.761 93.8907 310.516 93.592C310.281 93.2827 310.116 92.9627 310.02 92.632L311.844 92.072C311.983 92.4667 312.255 92.8133 312.66 93.112C313.065 93.4107 313.567 93.5653 314.164 93.576C314.857 93.576 315.407 93.432 315.812 93.144C316.217 92.856 316.42 92.4773 316.42 92.008C316.42 91.5813 316.249 91.2347 315.908 90.968C315.567 90.6907 315.108 90.4773 314.532 90.328L313.156 89.976C312.633 89.8373 312.159 89.6347 311.732 89.368C311.316 89.1013 310.985 88.7653 310.74 88.36C310.505 87.9547 310.388 87.4747 310.388 86.92C310.388 85.8747 310.729 85.064 311.412 84.488C312.095 83.9013 313.071 83.608 314.34 83.608C315.055 83.608 315.679 83.72 316.212 83.944C316.756 84.1573 317.204 84.456 317.556 84.84C317.908 85.2133 318.169 85.64 318.34 86.12L316.548 86.696C316.388 86.2693 316.111 85.9173 315.716 85.64C315.321 85.3627 314.831 85.224 314.244 85.224C313.636 85.224 313.156 85.368 312.804 85.656C312.463 85.944 312.292 86.344 312.292 86.856C312.292 87.272 312.425 87.5973 312.692 87.832C312.969 88.056 313.343 88.2267 313.812 88.344L315.188 88.68C316.191 88.9253 316.969 89.3467 317.524 89.944C318.079 90.5413 318.356 91.2027 318.356 91.928C318.356 92.568 318.201 93.1333 317.892 93.624C317.583 94.1147 317.124 94.4987 316.516 94.776C315.919 95.0533 315.188 95.192 314.324 95.192ZM325.433 95L325.337 93.528V87H327.113V95H325.433ZM319.897 91.096V87H321.689V91.096H319.897ZM321.689 91.096C321.689 91.7253 321.764 92.216 321.913 92.568C322.063 92.92 322.265 93.1653 322.521 93.304C322.788 93.4427 323.092 93.512 323.433 93.512C324.041 93.5227 324.511 93.3253 324.841 92.92C325.172 92.5147 325.337 91.9333 325.337 91.176H326.009C326.009 92.0187 325.881 92.744 325.625 93.352C325.38 93.9493 325.028 94.408 324.569 94.728C324.121 95.0373 323.577 95.192 322.937 95.192C322.308 95.192 321.764 95.064 321.305 94.808C320.857 94.552 320.511 94.152 320.265 93.608C320.02 93.064 319.897 92.3653 319.897 91.512V91.096H321.689Z" fill="#1E1E1E" fill-opacity="0.6"/>
<path d="M132.789 143V133.83L132.887 133.2H133.951V143H132.789ZM130.591 135.72V134.642C130.787 134.651 131.021 134.586 131.291 134.446C131.562 134.306 131.842 134.124 132.131 133.9C132.421 133.676 132.673 133.443 132.887 133.2L133.615 133.998C133.307 134.325 132.985 134.619 132.649 134.88C132.313 135.141 131.973 135.351 131.627 135.51C131.282 135.659 130.937 135.729 130.591 135.72Z" fill="#3F3F46"/>
<path d="M176.102 143V142.02C176.102 141.712 176.163 141.409 176.284 141.11C176.415 140.802 176.597 140.499 176.83 140.2C177.073 139.901 177.367 139.621 177.712 139.36L179.742 137.834C179.985 137.666 180.195 137.475 180.372 137.26C180.559 137.036 180.703 136.807 180.806 136.574C180.909 136.331 180.96 136.098 180.96 135.874C180.96 135.547 180.881 135.253 180.722 134.992C180.563 134.721 180.339 134.507 180.05 134.348C179.761 134.189 179.42 134.11 179.028 134.11C178.645 134.11 178.309 134.185 178.02 134.334C177.731 134.474 177.493 134.665 177.306 134.908C177.119 135.141 176.984 135.393 176.9 135.664L175.696 135.426C175.808 135.006 176.009 134.614 176.298 134.25C176.597 133.886 176.975 133.592 177.432 133.368C177.889 133.144 178.398 133.032 178.958 133.032C179.611 133.032 180.176 133.158 180.652 133.41C181.128 133.653 181.497 133.989 181.758 134.418C182.029 134.838 182.164 135.319 182.164 135.86C182.164 136.373 182.024 136.859 181.744 137.316C181.464 137.773 181.058 138.217 180.526 138.646L178.608 140.102C178.235 140.382 177.945 140.676 177.74 140.984C177.544 141.292 177.432 141.614 177.404 141.95H182.304V143H176.102Z" fill="#3F3F46"/>
<path d="M225.744 143.168C225.268 143.168 224.834 143.098 224.442 142.958C224.059 142.809 223.728 142.617 223.448 142.384C223.177 142.151 222.963 141.903 222.804 141.642L223.784 141.096C223.887 141.227 224.013 141.376 224.162 141.544C224.321 141.703 224.521 141.838 224.764 141.95C225.007 142.062 225.305 142.118 225.66 142.118C226.295 142.118 226.803 141.936 227.186 141.572C227.569 141.208 227.76 140.751 227.76 140.2C227.76 139.78 227.643 139.425 227.41 139.136C227.186 138.847 226.859 138.627 226.43 138.478C226.001 138.329 225.487 138.254 224.89 138.254H224.624V137.33H224.862C225.45 137.33 225.991 137.395 226.486 137.526C226.981 137.657 227.41 137.848 227.774 138.1C228.147 138.352 228.432 138.66 228.628 139.024C228.833 139.388 228.936 139.808 228.936 140.284C228.936 140.863 228.791 141.371 228.502 141.81C228.222 142.239 227.839 142.575 227.354 142.818C226.869 143.051 226.332 143.168 225.744 143.168ZM224.624 138.156V137.246H224.89C225.693 137.246 226.327 137.111 226.794 136.84C227.27 136.56 227.508 136.163 227.508 135.65C227.508 135.37 227.433 135.113 227.284 134.88C227.135 134.637 226.915 134.446 226.626 134.306C226.346 134.157 226.019 134.082 225.646 134.082C225.394 134.082 225.156 134.119 224.932 134.194C224.717 134.259 224.517 134.362 224.33 134.502C224.153 134.633 223.989 134.801 223.84 135.006L222.916 134.474C223.093 134.185 223.317 133.933 223.588 133.718C223.868 133.503 224.185 133.335 224.54 133.214C224.895 133.093 225.282 133.032 225.702 133.032C226.271 133.032 226.78 133.144 227.228 133.368C227.685 133.592 228.045 133.9 228.306 134.292C228.567 134.675 228.698 135.109 228.698 135.594C228.698 136.005 228.6 136.369 228.404 136.686C228.208 137.003 227.933 137.274 227.578 137.498C227.233 137.722 226.827 137.89 226.36 138.002C225.903 138.105 225.403 138.156 224.862 138.156H224.624Z" fill="#3F3F46"/>
<path d="M273.134 143V140.62H268.612V139.71L273.078 133.2H274.282V139.57H276.284V140.62H274.282V143H273.134ZM269.97 139.57H273.134V134.922L269.97 139.57Z" fill="#3F3F46"/>
<path d="M318.962 143.168C318.57 143.168 318.169 143.112 317.758 143C317.357 142.879 316.974 142.697 316.61 142.454C316.256 142.211 315.962 141.899 315.728 141.516L316.68 140.97C317.007 141.381 317.362 141.679 317.744 141.866C318.127 142.053 318.524 142.146 318.934 142.146C319.578 142.146 320.101 141.95 320.502 141.558C320.913 141.157 321.118 140.634 321.118 139.99C321.118 139.355 320.922 138.837 320.53 138.436C320.138 138.035 319.625 137.834 318.99 137.834C318.645 137.834 318.304 137.913 317.968 138.072C317.632 138.221 317.371 138.408 317.184 138.632L316.12 138.38L316.596 133.2H321.818V134.264H317.646L317.352 137.386C317.614 137.227 317.903 137.101 318.22 137.008C318.538 136.915 318.86 136.868 319.186 136.868C319.784 136.868 320.316 136.999 320.782 137.26C321.249 137.521 321.618 137.885 321.888 138.352C322.159 138.819 322.294 139.355 322.294 139.962C322.294 140.597 322.15 141.157 321.86 141.642C321.58 142.118 321.188 142.491 320.684 142.762C320.19 143.033 319.616 143.168 318.962 143.168Z" fill="#3F3F46"/>
<path d="M39.7072 183.168C39.0352 183.168 38.4705 183.042 38.0132 182.79C37.5558 182.529 37.1918 182.179 36.9212 181.74C36.6505 181.301 36.4545 180.797 36.3332 180.228C36.2212 179.649 36.1652 179.038 36.1652 178.394C36.1652 177.554 36.2492 176.803 36.4172 176.14C36.5945 175.477 36.8465 174.917 37.1732 174.46C37.4998 173.993 37.8965 173.639 38.3632 173.396C38.8298 173.153 39.3572 173.032 39.9452 173.032C40.4305 173.032 40.9112 173.111 41.3872 173.27C41.8725 173.419 42.3018 173.629 42.6752 173.9L42.0172 174.74C41.7185 174.535 41.3965 174.376 41.0512 174.264C40.7058 174.143 40.3745 174.082 40.0572 174.082C39.1052 174.082 38.3818 174.483 37.8872 175.286C37.3925 176.089 37.1732 177.307 37.2292 178.94L36.9772 178.688C37.2012 178.119 37.5605 177.671 38.0552 177.344C38.5498 177.008 39.1332 176.84 39.8052 176.84C40.4305 176.84 40.9858 176.975 41.4712 177.246C41.9658 177.517 42.3485 177.895 42.6192 178.38C42.8992 178.856 43.0392 179.402 43.0392 180.018C43.0392 180.625 42.8992 181.171 42.6192 181.656C42.3392 182.132 41.9472 182.505 41.4432 182.776C40.9485 183.037 40.3698 183.168 39.7072 183.168ZM39.7072 182.132C40.1272 182.132 40.4958 182.043 40.8132 181.866C41.1398 181.679 41.3918 181.427 41.5692 181.11C41.7558 180.783 41.8492 180.41 41.8492 179.99C41.8492 179.57 41.7558 179.201 41.5692 178.884C41.3918 178.557 41.1398 178.305 40.8132 178.128C40.4958 177.951 40.1272 177.862 39.7072 177.862C39.2965 177.862 38.9278 177.951 38.6012 178.128C38.2745 178.305 38.0178 178.557 37.8312 178.884C37.6445 179.201 37.5512 179.57 37.5512 179.99C37.5512 180.41 37.6445 180.783 37.8312 181.11C38.0178 181.427 38.2745 181.679 38.6012 181.866C38.9278 182.043 39.2965 182.132 39.7072 182.132Z" fill="#3F3F46"/>
<path d="M83.4596 183L88.3036 173.928L89.4096 174.18L84.7616 183H83.4596ZM82.8996 174.278V173.2H89.4096V174.18L88.4996 174.278H82.8996Z" fill="#3F3F46"/>
<path d="M132.627 183.168C131.927 183.168 131.311 183.056 130.779 182.832C130.247 182.599 129.836 182.281 129.547 181.88C129.258 181.469 129.113 180.993 129.113 180.452C129.113 179.883 129.258 179.383 129.547 178.954C129.836 178.525 130.247 178.193 130.779 177.96C131.311 177.717 131.927 177.596 132.627 177.596C133.346 177.596 133.966 177.717 134.489 177.96C135.021 178.193 135.432 178.525 135.721 178.954C136.02 179.383 136.169 179.883 136.169 180.452C136.169 180.993 136.02 181.469 135.721 181.88C135.432 182.281 135.021 182.599 134.489 182.832C133.966 183.056 133.346 183.168 132.627 183.168ZM132.627 182.132C133.318 182.132 133.882 181.969 134.321 181.642C134.76 181.306 134.979 180.872 134.979 180.34C134.979 179.799 134.76 179.36 134.321 179.024C133.882 178.679 133.318 178.506 132.627 178.506C132.179 178.506 131.778 178.585 131.423 178.744C131.078 178.893 130.802 179.108 130.597 179.388C130.401 179.659 130.303 179.976 130.303 180.34C130.303 180.695 130.401 181.007 130.597 181.278C130.802 181.549 131.078 181.759 131.423 181.908C131.778 182.057 132.179 182.132 132.627 182.132ZM132.627 178.282C132.002 178.282 131.451 178.175 130.975 177.96C130.499 177.736 130.13 177.433 129.869 177.05C129.608 176.658 129.477 176.205 129.477 175.692C129.477 175.169 129.608 174.707 129.869 174.306C130.13 173.905 130.499 173.592 130.975 173.368C131.451 173.144 132.002 173.032 132.627 173.032C133.271 173.032 133.826 173.144 134.293 173.368C134.769 173.592 135.138 173.905 135.399 174.306C135.67 174.707 135.805 175.169 135.805 175.692C135.805 176.205 135.67 176.658 135.399 177.05C135.138 177.433 134.769 177.736 134.293 177.96C133.826 178.175 133.271 178.282 132.627 178.282ZM132.627 177.4C133.215 177.4 133.696 177.255 134.069 176.966C134.452 176.667 134.643 176.28 134.643 175.804C134.643 175.281 134.452 174.861 134.069 174.544C133.696 174.217 133.215 174.054 132.627 174.054C132.048 174.054 131.572 174.217 131.199 174.544C130.826 174.861 130.639 175.281 130.639 175.804C130.639 176.28 130.826 176.667 131.199 176.966C131.572 177.255 132.048 177.4 132.627 177.4Z" fill="#3F3F46"/>
<path d="M178.987 173.032C179.678 173.032 180.247 173.163 180.695 173.424C181.143 173.676 181.503 174.021 181.773 174.46C182.053 174.899 182.249 175.407 182.361 175.986C182.483 176.555 182.543 177.162 182.543 177.806C182.543 178.646 182.455 179.397 182.277 180.06C182.1 180.723 181.848 181.287 181.521 181.754C181.195 182.211 180.798 182.561 180.331 182.804C179.874 183.047 179.351 183.168 178.763 183.168C178.278 183.168 177.793 183.093 177.307 182.944C176.831 182.785 176.402 182.571 176.019 182.3L176.677 181.46C176.976 181.665 177.298 181.829 177.643 181.95C177.998 182.062 178.334 182.118 178.651 182.118C179.603 182.118 180.327 181.717 180.821 180.914C181.325 180.111 181.545 178.898 181.479 177.274L181.731 177.512C181.507 178.081 181.148 178.534 180.653 178.87C180.159 179.206 179.575 179.374 178.903 179.374C178.269 179.374 177.709 179.239 177.223 178.968C176.738 178.688 176.355 178.31 176.075 177.834C175.805 177.358 175.669 176.807 175.669 176.182C175.669 175.566 175.809 175.025 176.089 174.558C176.369 174.082 176.757 173.709 177.251 173.438C177.755 173.167 178.334 173.032 178.987 173.032ZM178.987 174.068C178.577 174.068 178.208 174.161 177.881 174.348C177.555 174.525 177.298 174.777 177.111 175.104C176.934 175.421 176.845 175.79 176.845 176.21C176.845 176.63 176.934 177.003 177.111 177.33C177.298 177.647 177.555 177.899 177.881 178.086C178.208 178.263 178.577 178.352 178.987 178.352C179.417 178.352 179.79 178.263 180.107 178.086C180.434 177.899 180.686 177.647 180.863 177.33C181.05 177.003 181.143 176.63 181.143 176.21C181.143 175.79 181.05 175.421 180.863 175.104C180.686 174.777 180.434 174.525 180.107 174.348C179.79 174.161 179.417 174.068 178.987 174.068Z" fill="#3F3F46"/>
<path d="M221.448 183V173.83L221.546 173.2H222.61V183H221.448ZM219.25 175.72V174.642C219.446 174.651 219.679 174.586 219.95 174.446C220.22 174.306 220.5 174.124 220.79 173.9C221.079 173.676 221.331 173.443 221.546 173.2L222.274 173.998C221.966 174.325 221.644 174.619 221.308 174.88C220.972 175.141 220.631 175.351 220.286 175.51C219.94 175.659 219.595 175.729 219.25 175.72ZM228.673 183.168C227.926 183.168 227.264 182.953 226.685 182.524C226.106 182.085 225.654 181.488 225.327 180.732C225 179.967 224.837 179.089 224.837 178.1C224.837 177.111 225 176.238 225.327 175.482C225.654 174.717 226.102 174.119 226.671 173.69C227.25 173.251 227.917 173.032 228.673 173.032C229.429 173.032 230.092 173.251 230.661 173.69C231.24 174.119 231.692 174.717 232.019 175.482C232.355 176.238 232.523 177.111 232.523 178.1C232.523 179.089 232.36 179.967 232.033 180.732C231.706 181.488 231.254 182.085 230.675 182.524C230.096 182.953 229.429 183.168 228.673 183.168ZM228.673 182.104C229.196 182.104 229.658 181.931 230.059 181.586C230.47 181.241 230.787 180.769 231.011 180.172C231.244 179.575 231.361 178.884 231.361 178.1C231.361 177.316 231.244 176.625 231.011 176.028C230.787 175.421 230.47 174.95 230.059 174.614C229.658 174.269 229.196 174.096 228.673 174.096C228.15 174.096 227.688 174.269 227.287 174.614C226.886 174.95 226.568 175.421 226.335 176.028C226.111 176.625 225.999 177.316 225.999 178.1C225.999 178.884 226.111 179.575 226.335 180.172C226.568 180.769 226.886 181.241 227.287 181.586C227.698 181.931 228.16 182.104 228.673 182.104Z" fill="#3F3F46"/>
<path d="M269.612 183V173.83L269.71 173.2H270.774V183H269.612ZM267.414 175.72V174.642C267.61 174.651 267.843 174.586 268.114 174.446C268.385 174.306 268.665 174.124 268.954 173.9C269.243 173.676 269.495 173.443 269.71 173.2L270.438 173.998C270.13 174.325 269.808 174.619 269.472 174.88C269.136 175.141 268.795 175.351 268.45 175.51C268.105 175.659 267.759 175.729 267.414 175.72ZM275.395 183V173.83L275.493 173.2H276.557V183H275.395ZM273.197 175.72V174.642C273.393 174.651 273.627 174.586 273.897 174.446C274.168 174.306 274.448 174.124 274.737 173.9C275.027 173.676 275.279 173.443 275.493 173.2L276.221 173.998C275.913 174.325 275.591 174.619 275.255 174.88C274.919 175.141 274.579 175.351 274.233 175.51C273.888 175.659 273.543 175.729 273.197 175.72Z" fill="#3F3F46"/>
<path d="M315.165 183V173.83L315.263 173.2H316.327V183H315.165ZM312.967 175.72V174.642C313.163 174.651 313.396 174.586 313.667 174.446C313.937 174.306 314.217 174.124 314.507 173.9C314.796 173.676 315.048 173.443 315.263 173.2L315.991 173.998C315.683 174.325 315.361 174.619 315.025 174.88C314.689 175.141 314.348 175.351 314.003 175.51C313.657 175.659 313.312 175.729 312.967 175.72ZM318.708 183V182.02C318.708 181.712 318.769 181.409 318.89 181.11C319.021 180.802 319.203 180.499 319.436 180.2C319.679 179.901 319.973 179.621 320.318 179.36L322.348 177.834C322.591 177.666 322.801 177.475 322.978 177.26C323.165 177.036 323.309 176.807 323.412 176.574C323.515 176.331 323.566 176.098 323.566 175.874C323.566 175.547 323.487 175.253 323.328 174.992C323.169 174.721 322.945 174.507 322.656 174.348C322.367 174.189 322.026 174.11 321.634 174.11C321.251 174.11 320.915 174.185 320.626 174.334C320.337 174.474 320.099 174.665 319.912 174.908C319.725 175.141 319.59 175.393 319.506 175.664L318.302 175.426C318.414 175.006 318.615 174.614 318.904 174.25C319.203 173.886 319.581 173.592 320.038 173.368C320.495 173.144 321.004 173.032 321.564 173.032C322.217 173.032 322.782 173.158 323.258 173.41C323.734 173.653 324.103 173.989 324.364 174.418C324.635 174.838 324.77 175.319 324.77 175.86C324.77 176.373 324.63 176.859 324.35 177.316C324.07 177.773 323.664 178.217 323.132 178.646L321.214 180.102C320.841 180.382 320.551 180.676 320.346 180.984C320.15 181.292 320.038 181.614 320.01 181.95H324.91V183H318.708Z" fill="#3F3F46"/>
<path d="M35.8388 223V213.83L35.9368 213.2H37.0008V223H35.8388ZM33.6408 215.72V214.642C33.8368 214.651 34.0701 214.586 34.3408 214.446C34.6114 214.306 34.8914 214.124 35.1808 213.9C35.4701 213.676 35.7221 213.443 35.9368 213.2L36.6648 213.998C36.3568 214.325 36.0348 214.619 35.6988 214.88C35.3628 215.141 35.0221 215.351 34.6768 215.51C34.3314 215.659 33.9861 215.729 33.6408 215.72ZM42.35 223.168C41.874 223.168 41.44 223.098 41.048 222.958C40.6653 222.809 40.334 222.617 40.054 222.384C39.7833 222.151 39.5687 221.903 39.41 221.642L40.39 221.096C40.4927 221.227 40.6187 221.376 40.768 221.544C40.9267 221.703 41.1273 221.838 41.37 221.95C41.6127 222.062 41.9113 222.118 42.266 222.118C42.9007 222.118 43.4093 221.936 43.792 221.572C44.1747 221.208 44.366 220.751 44.366 220.2C44.366 219.78 44.2493 219.425 44.016 219.136C43.792 218.847 43.4653 218.627 43.036 218.478C42.6067 218.329 42.0933 218.254 41.496 218.254H41.23V217.33H41.468C42.056 217.33 42.5973 217.395 43.092 217.526C43.5867 217.657 44.016 217.848 44.38 218.1C44.7533 218.352 45.038 218.66 45.234 219.024C45.4393 219.388 45.542 219.808 45.542 220.284C45.542 220.863 45.3973 221.371 45.108 221.81C44.828 222.239 44.4453 222.575 43.96 222.818C43.4747 223.051 42.938 223.168 42.35 223.168ZM41.23 218.156V217.246H41.496C42.2987 217.246 42.9333 217.111 43.4 216.84C43.876 216.56 44.114 216.163 44.114 215.65C44.114 215.37 44.0393 215.113 43.89 214.88C43.7407 214.637 43.5213 214.446 43.232 214.306C42.952 214.157 42.6253 214.082 42.252 214.082C42 214.082 41.762 214.119 41.538 214.194C41.3233 214.259 41.1227 214.362 40.936 214.502C40.7587 214.633 40.5953 214.801 40.446 215.006L39.522 214.474C39.6993 214.185 39.9233 213.933 40.194 213.718C40.474 213.503 40.7913 213.335 41.146 213.214C41.5007 213.093 41.888 213.032 42.308 213.032C42.8773 213.032 43.386 213.144 43.834 213.368C44.2913 213.592 44.6507 213.9 44.912 214.292C45.1733 214.675 45.304 215.109 45.304 215.594C45.304 216.005 45.206 216.369 45.01 216.686C44.814 217.003 44.5387 217.274 44.184 217.498C43.8387 217.722 43.4327 217.89 42.966 218.002C42.5087 218.105 42.0093 218.156 41.468 218.156H41.23Z" fill="#3F3F46"/>
<path d="M81.8702 223V213.83L81.9682 213.2H83.0322V223H81.8702ZM79.6722 215.72V214.642C79.8682 214.651 80.1015 214.586 80.3722 214.446C80.6428 214.306 80.9228 214.124 81.2122 213.9C81.5015 213.676 81.7535 213.443 81.9682 213.2L82.6962 213.998C82.3882 214.325 82.0662 214.619 81.7302 214.88C81.3942 215.141 81.0535 215.351 80.7082 215.51C80.3628 215.659 80.0175 215.729 79.6722 215.72ZM89.7394 223V220.62H85.2174V219.71L89.6834 213.2H90.8874V219.57H92.8894V220.62H90.8874V223H89.7394ZM86.5754 219.57H89.7394V214.922L86.5754 219.57Z" fill="#3F3F46"/>
<path d="M128.763 223V213.83L128.861 213.2H129.925V223H128.763ZM126.565 215.72V214.642C126.761 214.651 126.994 214.586 127.265 214.446C127.536 214.306 127.816 214.124 128.105 213.9C128.394 213.676 128.646 213.443 128.861 213.2L129.589 213.998C129.281 214.325 128.959 214.619 128.623 214.88C128.287 215.141 127.946 215.351 127.601 215.51C127.256 215.659 126.91 215.729 126.565 215.72ZM135.568 223.168C135.176 223.168 134.775 223.112 134.364 223C133.963 222.879 133.58 222.697 133.216 222.454C132.861 222.211 132.567 221.899 132.334 221.516L133.286 220.97C133.613 221.381 133.967 221.679 134.35 221.866C134.733 222.053 135.129 222.146 135.54 222.146C136.184 222.146 136.707 221.95 137.108 221.558C137.519 221.157 137.724 220.634 137.724 219.99C137.724 219.355 137.528 218.837 137.136 218.436C136.744 218.035 136.231 217.834 135.596 217.834C135.251 217.834 134.91 217.913 134.574 218.072C134.238 218.221 133.977 218.408 133.79 218.632L132.726 218.38L133.202 213.2H138.424V214.264H134.252L133.958 217.386C134.219 217.227 134.509 217.101 134.826 217.008C135.143 216.915 135.465 216.868 135.792 216.868C136.389 216.868 136.921 216.999 137.388 217.26C137.855 217.521 138.223 217.885 138.494 218.352C138.765 218.819 138.9 219.355 138.9 219.962C138.9 220.597 138.755 221.157 138.466 221.642C138.186 222.118 137.794 222.491 137.29 222.762C136.795 223.033 136.221 223.168 135.568 223.168Z" fill="#3F3F46"/>
<path d="M175.396 223V213.83L175.494 213.2H176.558V223H175.396ZM173.198 215.72V214.642C173.394 214.651 173.627 214.586 173.898 214.446C174.168 214.306 174.448 214.124 174.738 213.9C175.027 213.676 175.279 213.443 175.494 213.2L176.222 213.998C175.914 214.325 175.592 214.619 175.256 214.88C174.92 215.141 174.579 215.351 174.234 215.51C173.888 215.659 173.543 215.729 173.198 215.72ZM182.313 223.168C181.641 223.168 181.076 223.042 180.619 222.79C180.162 222.529 179.798 222.179 179.527 221.74C179.256 221.301 179.06 220.797 178.939 220.228C178.827 219.649 178.771 219.038 178.771 218.394C178.771 217.554 178.855 216.803 179.023 216.14C179.2 215.477 179.452 214.917 179.779 214.46C180.106 213.993 180.502 213.639 180.969 213.396C181.436 213.153 181.963 213.032 182.551 213.032C183.036 213.032 183.517 213.111 183.993 213.27C184.478 213.419 184.908 213.629 185.281 213.9L184.623 214.74C184.324 214.535 184.002 214.376 183.657 214.264C183.312 214.143 182.98 214.082 182.663 214.082C181.711 214.082 180.988 214.483 180.493 215.286C179.998 216.089 179.779 217.307 179.835 218.94L179.583 218.688C179.807 218.119 180.166 217.671 180.661 217.344C181.156 217.008 181.739 216.84 182.411 216.84C183.036 216.84 183.592 216.975 184.077 217.246C184.572 217.517 184.954 217.895 185.225 218.38C185.505 218.856 185.645 219.402 185.645 220.018C185.645 220.625 185.505 221.171 185.225 221.656C184.945 222.132 184.553 222.505 184.049 222.776C183.554 223.037 182.976 223.168 182.313 223.168ZM182.313 222.132C182.733 222.132 183.102 222.043 183.419 221.866C183.746 221.679 183.998 221.427 184.175 221.11C184.362 220.783 184.455 220.41 184.455 219.99C184.455 219.57 184.362 219.201 184.175 218.884C183.998 218.557 183.746 218.305 183.419 218.128C183.102 217.951 182.733 217.862 182.313 217.862C181.902 217.862 181.534 217.951 181.207 218.128C180.88 218.305 180.624 218.557 180.437 218.884C180.25 219.201 180.157 219.57 180.157 219.99C180.157 220.41 180.25 220.783 180.437 221.11C180.624 221.427 180.88 221.679 181.207 221.866C181.534 222.043 181.902 222.132 182.313 222.132Z" fill="#3F3F46"/>
<path d="M222.172 223V213.83L222.27 213.2H223.334V223H222.172ZM219.974 215.72V214.642C220.17 214.651 220.404 214.586 220.674 214.446C220.945 214.306 221.225 214.124 221.514 213.9C221.804 213.676 222.056 213.443 222.27 213.2L222.998 213.998C222.69 214.325 222.368 214.619 222.032 214.88C221.696 215.141 221.356 215.351 221.01 215.51C220.665 215.659 220.32 215.729 219.974 215.72ZM226.065 223L230.909 213.928L232.015 214.18L227.367 223H226.065ZM225.505 214.278V213.2H232.015V214.18L231.105 214.278H225.505Z" fill="#3F3F46"/>
<rect x="255.857" y="202" width="32" height="32" rx="16" fill="#FFA9CF"/>
<path d="M268.204 223V213.83L268.302 213.2H269.366V223H268.204ZM266.006 215.72V214.642C266.202 214.651 266.435 214.586 266.706 214.446C266.976 214.306 267.256 214.124 267.546 213.9C267.835 213.676 268.087 213.443 268.302 213.2L269.03 213.998C268.722 214.325 268.4 214.619 268.064 214.88C267.728 215.141 267.387 215.351 267.042 215.51C266.696 215.659 266.351 215.729 266.006 215.72ZM275.233 223.168C274.533 223.168 273.917 223.056 273.385 222.832C272.853 222.599 272.442 222.281 272.153 221.88C271.864 221.469 271.719 220.993 271.719 220.452C271.719 219.883 271.864 219.383 272.153 218.954C272.442 218.525 272.853 218.193 273.385 217.96C273.917 217.717 274.533 217.596 275.233 217.596C275.952 217.596 276.572 217.717 277.095 217.96C277.627 218.193 278.038 218.525 278.327 218.954C278.626 219.383 278.775 219.883 278.775 220.452C278.775 220.993 278.626 221.469 278.327 221.88C278.038 222.281 277.627 222.599 277.095 222.832C276.572 223.056 275.952 223.168 275.233 223.168ZM275.233 222.132C275.924 222.132 276.488 221.969 276.927 221.642C277.366 221.306 277.585 220.872 277.585 220.34C277.585 219.799 277.366 219.36 276.927 219.024C276.488 218.679 275.924 218.506 275.233 218.506C274.785 218.506 274.384 218.585 274.029 218.744C273.684 218.893 273.408 219.108 273.203 219.388C273.007 219.659 272.909 219.976 272.909 220.34C272.909 220.695 273.007 221.007 273.203 221.278C273.408 221.549 273.684 221.759 274.029 221.908C274.384 222.057 274.785 222.132 275.233 222.132ZM275.233 218.282C274.608 218.282 274.057 218.175 273.581 217.96C273.105 217.736 272.736 217.433 272.475 217.05C272.214 216.658 272.083 216.205 272.083 215.692C272.083 215.169 272.214 214.707 272.475 214.306C272.736 213.905 273.105 213.592 273.581 213.368C274.057 213.144 274.608 213.032 275.233 213.032C275.877 213.032 276.432 213.144 276.899 213.368C277.375 213.592 277.744 213.905 278.005 214.306C278.276 214.707 278.411 215.169 278.411 215.692C278.411 216.205 278.276 216.658 278.005 217.05C277.744 217.433 277.375 217.736 276.899 217.96C276.432 218.175 275.877 218.282 275.233 218.282ZM275.233 217.4C275.821 217.4 276.302 217.255 276.675 216.966C277.058 216.667 277.249 216.28 277.249 215.804C277.249 215.281 277.058 214.861 276.675 214.544C276.302 214.217 275.821 214.054 275.233 214.054C274.654 214.054 274.178 214.217 273.805 214.544C273.432 214.861 273.245 215.281 273.245 215.804C273.245 216.28 273.432 216.667 273.805 216.966C274.178 217.255 274.654 217.4 275.233 217.4Z" fill="#1E1E1E"/>
<path d="M315.11 223V213.83L315.208 213.2H316.272V223H315.11ZM312.912 215.72V214.642C313.108 214.651 313.341 214.586 313.612 214.446C313.883 214.306 314.163 214.124 314.452 213.9C314.741 213.676 314.993 213.443 315.208 213.2L315.936 213.998C315.628 214.325 315.306 214.619 314.97 214.88C314.634 215.141 314.293 215.351 313.948 215.51C313.603 215.659 313.257 215.729 312.912 215.72ZM321.593 213.032C322.284 213.032 322.853 213.163 323.301 213.424C323.749 213.676 324.109 214.021 324.379 214.46C324.659 214.899 324.855 215.407 324.967 215.986C325.089 216.555 325.149 217.162 325.149 217.806C325.149 218.646 325.061 219.397 324.883 220.06C324.706 220.723 324.454 221.287 324.127 221.754C323.801 222.211 323.404 222.561 322.937 222.804C322.48 223.047 321.957 223.168 321.369 223.168C320.884 223.168 320.399 223.093 319.913 222.944C319.437 222.785 319.008 222.571 318.625 222.3L319.283 221.46C319.582 221.665 319.904 221.829 320.249 221.95C320.604 222.062 320.94 222.118 321.257 222.118C322.209 222.118 322.933 221.717 323.427 220.914C323.931 220.111 324.151 218.898 324.085 217.274L324.337 217.512C324.113 218.081 323.754 218.534 323.259 218.87C322.765 219.206 322.181 219.374 321.509 219.374C320.875 219.374 320.315 219.239 319.829 218.968C319.344 218.688 318.961 218.31 318.681 217.834C318.411 217.358 318.275 216.807 318.275 216.182C318.275 215.566 318.415 215.025 318.695 214.558C318.975 214.082 319.363 213.709 319.857 213.438C320.361 213.167 320.94 213.032 321.593 213.032ZM321.593 214.068C321.183 214.068 320.814 214.161 320.487 214.348C320.161 214.525 319.904 214.777 319.717 215.104C319.54 215.421 319.451 215.79 319.451 216.21C319.451 216.63 319.54 217.003 319.717 217.33C319.904 217.647 320.161 217.899 320.487 218.086C320.814 218.263 321.183 218.352 321.593 218.352C322.023 218.352 322.396 218.263 322.713 218.086C323.04 217.899 323.292 217.647 323.469 217.33C323.656 217.003 323.749 216.63 323.749 216.21C323.749 215.79 323.656 215.421 323.469 215.104C323.292 214.777 323.04 214.525 322.713 214.348C322.396 214.161 322.023 214.068 321.593 214.068Z" fill="#3F3F46"/>
<path d="M31.9035 263V262.02C31.9035 261.712 31.9641 261.409 32.0855 261.11C32.2161 260.802 32.3981 260.499 32.6315 260.2C32.8741 259.901 33.1681 259.621 33.5135 259.36L35.5435 257.834C35.7861 257.666 35.9961 257.475 36.1735 257.26C36.3601 257.036 36.5048 256.807 36.6075 256.574C36.7101 256.331 36.7615 256.098 36.7615 255.874C36.7615 255.547 36.6821 255.253 36.5235 254.992C36.3648 254.721 36.1408 254.507 35.8515 254.348C35.5621 254.189 35.2215 254.11 34.8295 254.11C34.4468 254.11 34.1108 254.185 33.8215 254.334C33.5321 254.474 33.2941 254.665 33.1075 254.908C32.9208 255.141 32.7855 255.393 32.7015 255.664L31.4975 255.426C31.6095 255.006 31.8101 254.614 32.0995 254.25C32.3981 253.886 32.7761 253.592 33.2335 253.368C33.6908 253.144 34.1995 253.032 34.7595 253.032C35.4128 253.032 35.9775 253.158 36.4535 253.41C36.9295 253.653 37.2981 253.989 37.5595 254.418C37.8301 254.838 37.9655 255.319 37.9655 255.86C37.9655 256.373 37.8255 256.859 37.5455 257.316C37.2655 257.773 36.8595 258.217 36.3275 258.646L34.4095 260.102C34.0361 260.382 33.7468 260.676 33.5415 260.984C33.3455 261.292 33.2335 261.614 33.2055 261.95H38.1055V263H31.9035ZM43.4058 263.168C42.6591 263.168 41.9964 262.953 41.4178 262.524C40.8391 262.085 40.3864 261.488 40.0598 260.732C39.7331 259.967 39.5698 259.089 39.5698 258.1C39.5698 257.111 39.7331 256.238 40.0598 255.482C40.3864 254.717 40.8344 254.119 41.4038 253.69C41.9824 253.251 42.6498 253.032 43.4058 253.032C44.1618 253.032 44.8244 253.251 45.3938 253.69C45.9724 254.119 46.4251 254.717 46.7518 255.482C47.0878 256.238 47.2558 257.111 47.2558 258.1C47.2558 259.089 47.0924 259.967 46.7658 260.732C46.4391 261.488 45.9864 262.085 45.4078 262.524C44.8291 262.953 44.1618 263.168 43.4058 263.168ZM43.4058 262.104C43.9284 262.104 44.3904 261.931 44.7918 261.586C45.2024 261.241 45.5198 260.769 45.7438 260.172C45.9771 259.575 46.0938 258.884 46.0938 258.1C46.0938 257.316 45.9771 256.625 45.7438 256.028C45.5198 255.421 45.2024 254.95 44.7918 254.614C44.3904 254.269 43.9284 254.096 43.4058 254.096C42.8831 254.096 42.4211 254.269 42.0198 254.614C41.6184 254.95 41.3011 255.421 41.0678 256.028C40.8438 256.625 40.7318 257.316 40.7318 258.1C40.7318 258.884 40.8438 259.575 41.0678 260.172C41.3011 260.769 41.6184 261.241 42.0198 261.586C42.4304 261.931 42.8924 262.104 43.4058 262.104Z" fill="#3F3F46"/>
<path d="M80.0677 263V262.02C80.0677 261.712 80.1283 261.409 80.2497 261.11C80.3803 260.802 80.5623 260.499 80.7957 260.2C81.0383 259.901 81.3323 259.621 81.6777 259.36L83.7077 257.834C83.9503 257.666 84.1603 257.475 84.3377 257.26C84.5243 257.036 84.669 256.807 84.7717 256.574C84.8743 256.331 84.9257 256.098 84.9257 255.874C84.9257 255.547 84.8463 255.253 84.6877 254.992C84.529 254.721 84.305 254.507 84.0157 254.348C83.7263 254.189 83.3857 254.11 82.9937 254.11C82.611 254.11 82.275 254.185 81.9857 254.334C81.6963 254.474 81.4583 254.665 81.2717 254.908C81.085 255.141 80.9497 255.393 80.8657 255.664L79.6617 255.426C79.7737 255.006 79.9743 254.614 80.2637 254.25C80.5623 253.886 80.9403 253.592 81.3977 253.368C81.855 253.144 82.3637 253.032 82.9237 253.032C83.577 253.032 84.1417 253.158 84.6177 253.41C85.0937 253.653 85.4623 253.989 85.7237 254.418C85.9943 254.838 86.1297 255.319 86.1297 255.86C86.1297 256.373 85.9897 256.859 85.7097 257.316C85.4297 257.773 85.0237 258.217 84.4917 258.646L82.5737 260.102C82.2003 260.382 81.911 260.676 81.7057 260.984C81.5097 261.292 81.3977 261.614 81.3697 261.95H86.2697V263H80.0677ZM90.128 263V253.83L90.226 253.2H91.29V263H90.128ZM87.93 255.72V254.642C88.126 254.651 88.3593 254.586 88.63 254.446C88.9006 254.306 89.1806 254.124 89.47 253.9C89.7593 253.676 90.0113 253.443 90.226 253.2L90.954 253.998C90.646 254.325 90.324 254.619 89.988 254.88C89.652 255.141 89.3113 255.351 88.966 255.51C88.6206 255.659 88.2753 255.729 87.93 255.72Z" fill="#3F3F46"/>
<path d="M125.621 263V262.02C125.621 261.712 125.681 261.409 125.803 261.11C125.933 260.802 126.115 260.499 126.349 260.2C126.591 259.901 126.885 259.621 127.231 259.36L129.261 257.834C129.503 257.666 129.713 257.475 129.891 257.26C130.077 257.036 130.222 256.807 130.325 256.574C130.427 256.331 130.479 256.098 130.479 255.874C130.479 255.547 130.399 255.253 130.241 254.992C130.082 254.721 129.858 254.507 129.569 254.348C129.279 254.189 128.939 254.11 128.547 254.11C128.164 254.11 127.828 254.185 127.539 254.334C127.249 254.474 127.011 254.665 126.825 254.908C126.638 255.141 126.503 255.393 126.419 255.664L125.215 255.426C125.327 255.006 125.527 254.614 125.817 254.25C126.115 253.886 126.493 253.592 126.951 253.368C127.408 253.144 127.917 253.032 128.477 253.032C129.13 253.032 129.695 253.158 130.171 253.41C130.647 253.653 131.015 253.989 131.277 254.418C131.547 254.838 131.683 255.319 131.683 255.86C131.683 256.373 131.543 256.859 131.263 257.316C130.983 257.773 130.577 258.217 130.045 258.646L128.127 260.102C127.753 260.382 127.464 260.676 127.259 260.984C127.063 261.292 126.951 261.614 126.923 261.95H131.823V263H125.621ZM133.441 263V262.02C133.441 261.712 133.501 261.409 133.623 261.11C133.753 260.802 133.935 260.499 134.169 260.2C134.411 259.901 134.705 259.621 135.051 259.36L137.081 257.834C137.323 257.666 137.533 257.475 137.711 257.26C137.897 257.036 138.042 256.807 138.145 256.574C138.247 256.331 138.299 256.098 138.299 255.874C138.299 255.547 138.219 255.253 138.061 254.992C137.902 254.721 137.678 254.507 137.389 254.348C137.099 254.189 136.759 254.11 136.367 254.11C135.984 254.11 135.648 254.185 135.359 254.334C135.069 254.474 134.831 254.665 134.645 254.908C134.458 255.141 134.323 255.393 134.239 255.664L133.035 255.426C133.147 255.006 133.347 254.614 133.637 254.25C133.935 253.886 134.313 253.592 134.771 253.368C135.228 253.144 135.737 253.032 136.297 253.032C136.95 253.032 137.515 253.158 137.991 253.41C138.467 253.653 138.835 253.989 139.097 254.418C139.367 254.838 139.503 255.319 139.503 255.86C139.503 256.373 139.363 256.859 139.083 257.316C138.803 257.773 138.397 258.217 137.865 258.646L135.947 260.102C135.573 260.382 135.284 260.676 135.079 260.984C134.883 261.292 134.771 261.614 134.743 261.95H139.643V263H133.441Z" fill="#3F3F46"/>
<path d="M172.294 263V262.02C172.294 261.712 172.355 261.409 172.476 261.11C172.607 260.802 172.789 260.499 173.022 260.2C173.265 259.901 173.559 259.621 173.904 259.36L175.934 257.834C176.177 257.666 176.387 257.475 176.564 257.26C176.751 257.036 176.896 256.807 176.998 256.574C177.101 256.331 177.152 256.098 177.152 255.874C177.152 255.547 177.073 255.253 176.914 254.992C176.756 254.721 176.532 254.507 176.242 254.348C175.953 254.189 175.612 254.11 175.22 254.11C174.838 254.11 174.502 254.185 174.212 254.334C173.923 254.474 173.685 254.665 173.498 254.908C173.312 255.141 173.176 255.393 173.092 255.664L171.888 255.426C172 255.006 172.201 254.614 172.49 254.25C172.789 253.886 173.167 253.592 173.624 253.368C174.082 253.144 174.59 253.032 175.15 253.032C175.804 253.032 176.368 253.158 176.844 253.41C177.32 253.653 177.689 253.989 177.95 254.418C178.221 254.838 178.356 255.319 178.356 255.86C178.356 256.373 178.216 256.859 177.936 257.316C177.656 257.773 177.25 258.217 176.718 258.646L174.8 260.102C174.427 260.382 174.138 260.676 173.932 260.984C173.736 261.292 173.624 261.614 173.596 261.95H178.496V263H172.294ZM183.083 263.168C182.607 263.168 182.173 263.098 181.781 262.958C181.398 262.809 181.067 262.617 180.787 262.384C180.516 262.151 180.301 261.903 180.143 261.642L181.123 261.096C181.225 261.227 181.351 261.376 181.501 261.544C181.659 261.703 181.86 261.838 182.103 261.95C182.345 262.062 182.644 262.118 182.999 262.118C183.633 262.118 184.142 261.936 184.525 261.572C184.907 261.208 185.099 260.751 185.099 260.2C185.099 259.78 184.982 259.425 184.749 259.136C184.525 258.847 184.198 258.627 183.769 258.478C183.339 258.329 182.826 258.254 182.229 258.254H181.963V257.33H182.201C182.789 257.33 183.33 257.395 183.825 257.526C184.319 257.657 184.749 257.848 185.113 258.1C185.486 258.352 185.771 258.66 185.967 259.024C186.172 259.388 186.275 259.808 186.275 260.284C186.275 260.863 186.13 261.371 185.841 261.81C185.561 262.239 185.178 262.575 184.693 262.818C184.207 263.051 183.671 263.168 183.083 263.168ZM181.963 258.156V257.246H182.229C183.031 257.246 183.666 257.111 184.133 256.84C184.609 256.56 184.847 256.163 184.847 255.65C184.847 255.37 184.772 255.113 184.623 254.88C184.473 254.637 184.254 254.446 183.965 254.306C183.685 254.157 183.358 254.082 182.985 254.082C182.733 254.082 182.495 254.119 182.271 254.194C182.056 254.259 181.855 254.362 181.669 254.502C181.491 254.633 181.328 254.801 181.179 255.006L180.255 254.474C180.432 254.185 180.656 253.933 180.927 253.718C181.207 253.503 181.524 253.335 181.879 253.214C182.233 253.093 182.621 253.032 183.041 253.032C183.61 253.032 184.119 253.144 184.567 253.368C185.024 253.592 185.383 253.9 185.645 254.292C185.906 254.675 186.037 255.109 186.037 255.594C186.037 256.005 185.939 256.369 185.743 256.686C185.547 257.003 185.271 257.274 184.917 257.498C184.571 257.722 184.165 257.89 183.699 258.002C183.241 258.105 182.742 258.156 182.201 258.156H181.963Z" fill="#3F3F46"/>
<path d="M218.326 263V262.02C218.326 261.712 218.386 261.409 218.508 261.11C218.638 260.802 218.82 260.499 219.054 260.2C219.296 259.901 219.59 259.621 219.936 259.36L221.966 257.834C222.208 257.666 222.418 257.475 222.596 257.26C222.782 257.036 222.927 256.807 223.03 256.574C223.132 256.331 223.184 256.098 223.184 255.874C223.184 255.547 223.104 255.253 222.946 254.992C222.787 254.721 222.563 254.507 222.274 254.348C221.984 254.189 221.644 254.11 221.252 254.11C220.869 254.11 220.533 254.185 220.244 254.334C219.954 254.474 219.716 254.665 219.53 254.908C219.343 255.141 219.208 255.393 219.124 255.664L217.92 255.426C218.032 255.006 218.232 254.614 218.522 254.25C218.82 253.886 219.198 253.592 219.656 253.368C220.113 253.144 220.622 253.032 221.182 253.032C221.835 253.032 222.4 253.158 222.876 253.41C223.352 253.653 223.72 253.989 223.982 254.418C224.252 254.838 224.388 255.319 224.388 255.86C224.388 256.373 224.248 256.859 223.968 257.316C223.688 257.773 223.282 258.217 222.75 258.646L220.832 260.102C220.458 260.382 220.169 260.676 219.964 260.984C219.768 261.292 219.656 261.614 219.628 261.95H224.528V263H218.326ZM230.472 263V260.62H225.95V259.71L230.416 253.2H231.62V259.57H233.622V260.62H231.62V263H230.472ZM227.308 259.57H230.472V254.922L227.308 259.57Z" fill="#3F3F46"/>
<path d="M265.219 263V262.02C265.219 261.712 265.279 261.409 265.401 261.11C265.531 260.802 265.713 260.499 265.947 260.2C266.189 259.901 266.483 259.621 266.829 259.36L268.859 257.834C269.101 257.666 269.311 257.475 269.489 257.26C269.675 257.036 269.82 256.807 269.923 256.574C270.025 256.331 270.077 256.098 270.077 255.874C270.077 255.547 269.997 255.253 269.839 254.992C269.68 254.721 269.456 254.507 269.167 254.348C268.877 254.189 268.537 254.11 268.145 254.11C267.762 254.11 267.426 254.185 267.137 254.334C266.847 254.474 266.609 254.665 266.423 254.908C266.236 255.141 266.101 255.393 266.017 255.664L264.813 255.426C264.925 255.006 265.125 254.614 265.415 254.25C265.713 253.886 266.091 253.592 266.549 253.368C267.006 253.144 267.515 253.032 268.075 253.032C268.728 253.032 269.293 253.158 269.769 253.41C270.245 253.653 270.613 253.989 270.875 254.418C271.145 254.838 271.281 255.319 271.281 255.86C271.281 256.373 271.141 256.859 270.861 257.316C270.581 257.773 270.175 258.217 269.643 258.646L267.725 260.102C267.351 260.382 267.062 260.676 266.857 260.984C266.661 261.292 266.549 261.614 266.521 261.95H271.421V263H265.219ZM276.301 263.168C275.909 263.168 275.508 263.112 275.097 263C274.696 262.879 274.313 262.697 273.949 262.454C273.594 262.211 273.3 261.899 273.067 261.516L274.019 260.97C274.346 261.381 274.7 261.679 275.083 261.866C275.466 262.053 275.862 262.146 276.273 262.146C276.917 262.146 277.44 261.95 277.841 261.558C278.252 261.157 278.457 260.634 278.457 259.99C278.457 259.355 278.261 258.837 277.869 258.436C277.477 258.035 276.964 257.834 276.329 257.834C275.984 257.834 275.643 257.913 275.307 258.072C274.971 258.221 274.71 258.408 274.523 258.632L273.459 258.38L273.935 253.2H279.157V254.264H274.985L274.691 257.386C274.952 257.227 275.242 257.101 275.559 257.008C275.876 256.915 276.198 256.868 276.525 256.868C277.122 256.868 277.654 256.999 278.121 257.26C278.588 257.521 278.956 257.885 279.227 258.352C279.498 258.819 279.633 259.355 279.633 259.962C279.633 260.597 279.488 261.157 279.199 261.642C278.919 262.118 278.527 262.491 278.023 262.762C277.528 263.033 276.954 263.168 276.301 263.168Z" fill="#3F3F46"/>
<path d="M311.852 263V262.02C311.852 261.712 311.912 261.409 312.034 261.11C312.164 260.802 312.346 260.499 312.58 260.2C312.822 259.901 313.116 259.621 313.462 259.36L315.492 257.834C315.734 257.666 315.944 257.475 316.122 257.26C316.308 257.036 316.453 256.807 316.556 256.574C316.658 256.331 316.71 256.098 316.71 255.874C316.71 255.547 316.63 255.253 316.472 254.992C316.313 254.721 316.089 254.507 315.8 254.348C315.51 254.189 315.17 254.11 314.778 254.11C314.395 254.11 314.059 254.185 313.77 254.334C313.48 254.474 313.242 254.665 313.056 254.908C312.869 255.141 312.734 255.393 312.65 255.664L311.446 255.426C311.558 255.006 311.758 254.614 312.048 254.25C312.346 253.886 312.724 253.592 313.182 253.368C313.639 253.144 314.148 253.032 314.708 253.032C315.361 253.032 315.926 253.158 316.402 253.41C316.878 253.653 317.246 253.989 317.508 254.418C317.778 254.838 317.914 255.319 317.914 255.86C317.914 256.373 317.774 256.859 317.494 257.316C317.214 257.773 316.808 258.217 316.276 258.646L314.358 260.102C313.984 260.382 313.695 260.676 313.49 260.984C313.294 261.292 313.182 261.614 313.154 261.95H318.054V263H311.852ZM323.046 263.168C322.374 263.168 321.809 263.042 321.352 262.79C320.895 262.529 320.531 262.179 320.26 261.74C319.989 261.301 319.793 260.797 319.672 260.228C319.56 259.649 319.504 259.038 319.504 258.394C319.504 257.554 319.588 256.803 319.756 256.14C319.933 255.477 320.185 254.917 320.512 254.46C320.839 253.993 321.235 253.639 321.702 253.396C322.169 253.153 322.696 253.032 323.284 253.032C323.769 253.032 324.25 253.111 324.726 253.27C325.211 253.419 325.641 253.629 326.014 253.9L325.356 254.74C325.057 254.535 324.735 254.376 324.39 254.264C324.045 254.143 323.713 254.082 323.396 254.082C322.444 254.082 321.721 254.483 321.226 255.286C320.731 256.089 320.512 257.307 320.568 258.94L320.316 258.688C320.54 258.119 320.899 257.671 321.394 257.344C321.889 257.008 322.472 256.84 323.144 256.84C323.769 256.84 324.325 256.975 324.81 257.246C325.305 257.517 325.687 257.895 325.958 258.38C326.238 258.856 326.378 259.402 326.378 260.018C326.378 260.625 326.238 261.171 325.958 261.656C325.678 262.132 325.286 262.505 324.782 262.776C324.287 263.037 323.709 263.168 323.046 263.168ZM323.046 262.132C323.466 262.132 323.835 262.043 324.152 261.866C324.479 261.679 324.731 261.427 324.908 261.11C325.095 260.783 325.188 260.41 325.188 259.99C325.188 259.57 325.095 259.201 324.908 258.884C324.731 258.557 324.479 258.305 324.152 258.128C323.835 257.951 323.466 257.862 323.046 257.862C322.635 257.862 322.267 257.951 321.94 258.128C321.613 258.305 321.357 258.557 321.17 258.884C320.983 259.201 320.89 259.57 320.89 259.99C320.89 260.41 320.983 260.783 321.17 261.11C321.357 261.427 321.613 261.679 321.94 261.866C322.267 262.043 322.635 262.132 323.046 262.132Z" fill="#3F3F46"/>
<path d="M32.6281 303V302.02C32.6281 301.712 32.6887 301.409 32.8101 301.11C32.9407 300.802 33.1227 300.499 33.3561 300.2C33.5987 299.901 33.8927 299.621 34.2381 299.36L36.2681 297.834C36.5107 297.666 36.7207 297.475 36.8981 297.26C37.0847 297.036 37.2294 296.807 37.3321 296.574C37.4347 296.331 37.4861 296.098 37.4861 295.874C37.4861 295.547 37.4067 295.253 37.2481 294.992C37.0894 294.721 36.8654 294.507 36.5761 294.348C36.2867 294.189 35.9461 294.11 35.5541 294.11C35.1714 294.11 34.8354 294.185 34.5461 294.334C34.2567 294.474 34.0187 294.665 33.8321 294.908C33.6454 295.141 33.5101 295.393 33.4261 295.664L32.2221 295.426C32.3341 295.006 32.5347 294.614 32.8241 294.25C33.1227 293.886 33.5007 293.592 33.9581 293.368C34.4154 293.144 34.9241 293.032 35.4841 293.032C36.1374 293.032 36.7021 293.158 37.1781 293.41C37.6541 293.653 38.0227 293.989 38.2841 294.418C38.5547 294.838 38.6901 295.319 38.6901 295.86C38.6901 296.373 38.5501 296.859 38.2701 297.316C37.9901 297.773 37.5841 298.217 37.0521 298.646L35.1341 300.102C34.7607 300.382 34.4714 300.676 34.2661 300.984C34.0701 301.292 33.9581 301.614 33.9301 301.95H38.8301V303H32.6281ZM40.7984 303L45.6424 293.928L46.7484 294.18L42.1004 303H40.7984ZM40.2384 294.278V293.2H46.7484V294.18L45.8384 294.278H40.2384Z" fill="#3F3F46"/>
<path d="M78.6595 303V302.02C78.6595 301.712 78.7201 301.409 78.8415 301.11C78.9721 300.802 79.1541 300.499 79.3875 300.2C79.6301 299.901 79.9241 299.621 80.2695 299.36L82.2995 297.834C82.5421 297.666 82.7521 297.475 82.9295 297.26C83.1161 297.036 83.2608 296.807 83.3635 296.574C83.4661 296.331 83.5175 296.098 83.5175 295.874C83.5175 295.547 83.4381 295.253 83.2795 294.992C83.1208 294.721 82.8968 294.507 82.6075 294.348C82.3181 294.189 81.9775 294.11 81.5855 294.11C81.2028 294.11 80.8668 294.185 80.5775 294.334C80.2881 294.474 80.0501 294.665 79.8635 294.908C79.6768 295.141 79.5415 295.393 79.4575 295.664L78.2535 295.426C78.3655 295.006 78.5661 294.614 78.8555 294.25C79.1541 293.886 79.5321 293.592 79.9895 293.368C80.4468 293.144 80.9555 293.032 81.5155 293.032C82.1688 293.032 82.7335 293.158 83.2095 293.41C83.6855 293.653 84.0541 293.989 84.3155 294.418C84.5861 294.838 84.7215 295.319 84.7215 295.86C84.7215 296.373 84.5815 296.859 84.3015 297.316C84.0215 297.773 83.6155 298.217 83.0835 298.646L81.1655 300.102C80.7921 300.382 80.5028 300.676 80.2975 300.984C80.1015 301.292 79.9895 301.614 79.9615 301.95H84.8615V303H78.6595ZM89.9658 303.168C89.2658 303.168 88.6498 303.056 88.1178 302.832C87.5858 302.599 87.1751 302.281 86.8858 301.88C86.5964 301.469 86.4518 300.993 86.4518 300.452C86.4518 299.883 86.5964 299.383 86.8858 298.954C87.1751 298.525 87.5858 298.193 88.1178 297.96C88.6498 297.717 89.2658 297.596 89.9658 297.596C90.6844 297.596 91.3051 297.717 91.8278 297.96C92.3598 298.193 92.7704 298.525 93.0598 298.954C93.3584 299.383 93.5078 299.883 93.5078 300.452C93.5078 300.993 93.3584 301.469 93.0598 301.88C92.7704 302.281 92.3598 302.599 91.8278 302.832C91.3051 303.056 90.6844 303.168 89.9658 303.168ZM89.9658 302.132C90.6564 302.132 91.2211 301.969 91.6598 301.642C92.0984 301.306 92.3178 300.872 92.3178 300.34C92.3178 299.799 92.0984 299.36 91.6598 299.024C91.2211 298.679 90.6564 298.506 89.9658 298.506C89.5178 298.506 89.1164 298.585 88.7618 298.744C88.4164 298.893 88.1411 299.108 87.9358 299.388C87.7398 299.659 87.6418 299.976 87.6418 300.34C87.6418 300.695 87.7398 301.007 87.9358 301.278C88.1411 301.549 88.4164 301.759 88.7618 301.908C89.1164 302.057 89.5178 302.132 89.9658 302.132ZM89.9658 298.282C89.3404 298.282 88.7898 298.175 88.3138 297.96C87.8378 297.736 87.4691 297.433 87.2078 297.05C86.9464 296.658 86.8158 296.205 86.8158 295.692C86.8158 295.169 86.9464 294.707 87.2078 294.306C87.4691 293.905 87.8378 293.592 88.3138 293.368C88.7898 293.144 89.3404 293.032 89.9658 293.032C90.6098 293.032 91.1651 293.144 91.6318 293.368C92.1078 293.592 92.4764 293.905 92.7378 294.306C93.0084 294.707 93.1438 295.169 93.1438 295.692C93.1438 296.205 93.0084 296.658 92.7378 297.05C92.4764 297.433 92.1078 297.736 91.6318 297.96C91.1651 298.175 90.6098 298.282 89.9658 298.282ZM89.9658 297.4C90.5538 297.4 91.0344 297.255 91.4078 296.966C91.7904 296.667 91.9818 296.28 91.9818 295.804C91.9818 295.281 91.7904 294.861 91.4078 294.544C91.0344 294.217 90.5538 294.054 89.9658 294.054C89.3871 294.054 88.9111 294.217 88.5378 294.544C88.1644 294.861 87.9778 295.281 87.9778 295.804C87.9778 296.28 88.1644 296.667 88.5378 296.966C88.9111 297.255 89.3871 297.4 89.9658 297.4Z" fill="#3F3F46"/>
<path d="M125.566 303V302.02C125.566 301.712 125.626 301.409 125.748 301.11C125.878 300.802 126.06 300.499 126.294 300.2C126.536 299.901 126.83 299.621 127.176 299.36L129.206 297.834C129.448 297.666 129.658 297.475 129.836 297.26C130.022 297.036 130.167 296.807 130.27 296.574C130.372 296.331 130.424 296.098 130.424 295.874C130.424 295.547 130.344 295.253 130.186 294.992C130.027 294.721 129.803 294.507 129.514 294.348C129.224 294.189 128.884 294.11 128.492 294.11C128.109 294.11 127.773 294.185 127.484 294.334C127.194 294.474 126.956 294.665 126.77 294.908C126.583 295.141 126.448 295.393 126.364 295.664L125.16 295.426C125.272 295.006 125.472 294.614 125.762 294.25C126.06 293.886 126.438 293.592 126.896 293.368C127.353 293.144 127.862 293.032 128.422 293.032C129.075 293.032 129.64 293.158 130.116 293.41C130.592 293.653 130.96 293.989 131.222 294.418C131.492 294.838 131.628 295.319 131.628 295.86C131.628 296.373 131.488 296.859 131.208 297.316C130.928 297.773 130.522 298.217 129.99 298.646L128.072 300.102C127.698 300.382 127.409 300.676 127.204 300.984C127.008 301.292 126.896 301.614 126.868 301.95H131.768V303H125.566ZM136.326 293.032C137.017 293.032 137.586 293.163 138.034 293.424C138.482 293.676 138.841 294.021 139.112 294.46C139.392 294.899 139.588 295.407 139.7 295.986C139.821 296.555 139.882 297.162 139.882 297.806C139.882 298.646 139.793 299.397 139.616 300.06C139.439 300.723 139.187 301.287 138.86 301.754C138.533 302.211 138.137 302.561 137.67 302.804C137.213 303.047 136.69 303.168 136.102 303.168C135.617 303.168 135.131 303.093 134.646 302.944C134.17 302.785 133.741 302.571 133.358 302.3L134.016 301.46C134.315 301.665 134.637 301.829 134.982 301.95C135.337 302.062 135.673 302.118 135.99 302.118C136.942 302.118 137.665 301.717 138.16 300.914C138.664 300.111 138.883 298.898 138.818 297.274L139.07 297.512C138.846 298.081 138.487 298.534 137.992 298.87C137.497 299.206 136.914 299.374 136.242 299.374C135.607 299.374 135.047 299.239 134.562 298.968C134.077 298.688 133.694 298.31 133.414 297.834C133.143 297.358 133.008 296.807 133.008 296.182C133.008 295.566 133.148 295.025 133.428 294.558C133.708 294.082 134.095 293.709 134.59 293.438C135.094 293.167 135.673 293.032 136.326 293.032ZM136.326 294.068C135.915 294.068 135.547 294.161 135.22 294.348C134.893 294.525 134.637 294.777 134.45 295.104C134.273 295.421 134.184 295.79 134.184 296.21C134.184 296.63 134.273 297.003 134.45 297.33C134.637 297.647 134.893 297.899 135.22 298.086C135.547 298.263 135.915 298.352 136.326 298.352C136.755 298.352 137.129 298.263 137.446 298.086C137.773 297.899 138.025 297.647 138.202 297.33C138.389 297.003 138.482 296.63 138.482 296.21C138.482 295.79 138.389 295.421 138.202 295.104C138.025 294.777 137.773 294.525 137.446 294.348C137.129 294.161 136.755 294.068 136.326 294.068Z" fill="#3F3F46"/>
<path d="M174.688 303.168C174.212 303.168 173.778 303.098 173.386 302.958C173.004 302.809 172.672 302.617 172.392 302.384C172.122 302.151 171.907 301.903 171.748 301.642L172.728 301.096C172.831 301.227 172.957 301.376 173.106 301.544C173.265 301.703 173.466 301.838 173.708 301.95C173.951 302.062 174.25 302.118 174.604 302.118C175.239 302.118 175.748 301.936 176.13 301.572C176.513 301.208 176.704 300.751 176.704 300.2C176.704 299.78 176.588 299.425 176.354 299.136C176.13 298.847 175.804 298.627 175.374 298.478C174.945 298.329 174.432 298.254 173.834 298.254H173.568V297.33H173.806C174.394 297.33 174.936 297.395 175.43 297.526C175.925 297.657 176.354 297.848 176.718 298.1C177.092 298.352 177.376 298.66 177.572 299.024C177.778 299.388 177.88 299.808 177.88 300.284C177.88 300.863 177.736 301.371 177.446 301.81C177.166 302.239 176.784 302.575 176.298 302.818C175.813 303.051 175.276 303.168 174.688 303.168ZM173.568 298.156V297.246H173.834C174.637 297.246 175.272 297.111 175.738 296.84C176.214 296.56 176.452 296.163 176.452 295.65C176.452 295.37 176.378 295.113 176.228 294.88C176.079 294.637 175.86 294.446 175.57 294.306C175.29 294.157 174.964 294.082 174.59 294.082C174.338 294.082 174.1 294.119 173.876 294.194C173.662 294.259 173.461 294.362 173.274 294.502C173.097 294.633 172.934 294.801 172.784 295.006L171.86 294.474C172.038 294.185 172.262 293.933 172.532 293.718C172.812 293.503 173.13 293.335 173.484 293.214C173.839 293.093 174.226 293.032 174.646 293.032C175.216 293.032 175.724 293.144 176.172 293.368C176.63 293.592 176.989 293.9 177.25 294.292C177.512 294.675 177.642 295.109 177.642 295.594C177.642 296.005 177.544 296.369 177.348 296.686C177.152 297.003 176.877 297.274 176.522 297.498C176.177 297.722 175.771 297.89 175.304 298.002C174.847 298.105 174.348 298.156 173.806 298.156H173.568ZM183.017 303.168C182.271 303.168 181.608 302.953 181.029 302.524C180.451 302.085 179.998 301.488 179.671 300.732C179.345 299.967 179.181 299.089 179.181 298.1C179.181 297.111 179.345 296.238 179.671 295.482C179.998 294.717 180.446 294.119 181.015 293.69C181.594 293.251 182.261 293.032 183.017 293.032C183.773 293.032 184.436 293.251 185.005 293.69C185.584 294.119 186.037 294.717 186.363 295.482C186.699 296.238 186.867 297.111 186.867 298.1C186.867 299.089 186.704 299.967 186.377 300.732C186.051 301.488 185.598 302.085 185.019 302.524C184.441 302.953 183.773 303.168 183.017 303.168ZM183.017 302.104C183.54 302.104 184.002 301.931 184.403 301.586C184.814 301.241 185.131 300.769 185.355 300.172C185.589 299.575 185.705 298.884 185.705 298.1C185.705 297.316 185.589 296.625 185.355 296.028C185.131 295.421 184.814 294.95 184.403 294.614C184.002 294.269 183.54 294.096 183.017 294.096C182.495 294.096 182.033 294.269 181.631 294.614C181.23 294.95 180.913 295.421 180.679 296.028C180.455 296.625 180.343 297.316 180.343 298.1C180.343 298.884 180.455 299.575 180.679 300.172C180.913 300.769 181.23 301.241 181.631 301.586C182.042 301.931 182.504 302.104 183.017 302.104Z" fill="#3F3F46"/>
<mask id="path-49-inside-2_16470_48841" fill="white">
<path d="M0 330H358V390C358 396.627 352.627 402 346 402H12C5.37259 402 0 396.627 0 390V330Z"/>
</mask>
<path d="M0 329H358V331H0V329ZM358 402H0H358ZM0 402V330V402ZM358 330V402V330Z" fill="#F4F4F5" mask="url(#path-49-inside-2_16470_48841)"/>
<g filter="url(#filter2_dd_16470_48841)">
<rect x="16" y="349.5" width="151" height="33" rx="6" fill="white"/>
<rect x="16" y="349.5" width="151" height="33" rx="6" fill="url(#paint2_linear_16470_48841)" fill-opacity="0.05"/>
<path d="M48.5763 370.5L50.0743 361.568L50.3683 360.7H51.7823L50.1303 370.5H48.5763ZM47.6103 363.556L47.8623 362.1C48.0676 362.109 48.3196 362.049 48.6183 361.918C48.9169 361.778 49.2203 361.596 49.5283 361.372C49.8363 361.148 50.1116 360.919 50.3543 360.686L51.2503 361.764C50.6623 362.296 50.0603 362.739 49.4443 363.094C48.8376 363.439 48.2263 363.593 47.6103 363.556ZM55.9389 370.668C55.1735 370.668 54.5295 370.551 54.0069 370.318C53.4935 370.075 53.1202 369.744 52.8869 369.324C52.6629 368.895 52.5975 368.405 52.6909 367.854C52.7842 367.294 53.0035 366.804 53.3489 366.384C53.6942 365.964 54.1469 365.637 54.7069 365.404C55.2669 365.161 55.9202 365.045 56.6669 365.054C57.4509 365.045 58.0995 365.171 58.6129 365.432C59.1262 365.693 59.4949 366.048 59.7189 366.496C59.9522 366.935 60.0175 367.453 59.9149 368.05C59.8309 368.573 59.6115 369.03 59.2569 369.422C58.9115 369.814 58.4589 370.122 57.8989 370.346C57.3389 370.561 56.6855 370.668 55.9389 370.668ZM55.9949 369.296C56.4149 369.296 56.7929 369.221 57.1289 369.072C57.4649 368.923 57.7402 368.722 57.9549 368.47C58.1695 368.209 58.2955 367.91 58.3329 367.574C58.3889 367.145 58.2629 366.799 57.9549 366.538C57.6469 366.277 57.2175 366.146 56.6669 366.146C56.2562 366.146 55.8782 366.221 55.5329 366.37C55.1969 366.519 54.9215 366.725 54.7069 366.986C54.5015 367.247 54.3802 367.551 54.3429 367.896C54.2869 368.307 54.4129 368.643 54.7209 368.904C55.0289 369.165 55.4535 369.296 55.9949 369.296ZM56.7649 365.782C56.0742 365.782 55.4909 365.67 55.0149 365.446C54.5482 365.213 54.2122 364.895 54.0069 364.494C53.8015 364.093 53.7409 363.626 53.8249 363.094C53.9089 362.59 54.1095 362.147 54.4269 361.764C54.7442 361.372 55.1595 361.069 55.6729 360.854C56.1862 360.639 56.7695 360.532 57.4229 360.532C58.1229 360.532 58.7062 360.649 59.1729 360.882C59.6489 361.115 59.9895 361.442 60.1949 361.862C60.4095 362.273 60.4702 362.749 60.3769 363.29C60.2929 363.785 60.0922 364.219 59.7749 364.592C59.4575 364.965 59.0422 365.259 58.5289 365.474C58.0155 365.679 57.4275 365.782 56.7649 365.782ZM56.7509 364.788C57.1149 364.788 57.4415 364.723 57.7309 364.592C58.0295 364.452 58.2722 364.265 58.4589 364.032C58.6455 363.789 58.7529 363.514 58.7809 363.206C58.8462 362.814 58.7435 362.492 58.4729 362.24C58.2115 361.988 57.8522 361.862 57.3949 361.862C57.0309 361.862 56.6995 361.937 56.4009 362.086C56.1115 362.226 55.8735 362.422 55.6869 362.674C55.5002 362.926 55.3882 363.215 55.3509 363.542C55.3042 363.915 55.4115 364.219 55.6729 364.452C55.9342 364.676 56.2935 364.788 56.7509 364.788ZM63.5617 371.676L69.3717 360.042H70.9257L65.1437 371.676H63.5617ZM77.4806 370.668C76.8553 370.668 76.3093 370.537 75.8426 370.276C75.3759 370.005 74.9979 369.637 74.7086 369.17C74.4193 368.694 74.2233 368.139 74.1206 367.504C74.0273 366.86 74.0413 366.165 74.1626 365.418C74.3306 364.457 74.6339 363.607 75.0726 362.87C75.5113 362.133 76.0479 361.559 76.6826 361.148C77.3266 360.737 78.0173 360.532 78.7546 360.532C79.3706 360.532 79.9119 360.667 80.3786 360.938C80.8453 361.199 81.2233 361.568 81.5126 362.044C81.8113 362.511 82.0073 363.066 82.1006 363.71C82.1939 364.345 82.1799 365.035 82.0586 365.782C81.8999 366.725 81.5966 367.565 81.1486 368.302C80.7099 369.039 80.1733 369.618 79.5386 370.038C78.9039 370.458 78.2179 370.668 77.4806 370.668ZM77.4806 369.184C77.9753 369.184 78.4279 369.03 78.8386 368.722C79.2586 368.405 79.6086 367.98 79.8886 367.448C80.1686 366.916 80.3646 366.309 80.4766 365.628C80.5979 364.947 80.6026 364.335 80.4906 363.794C80.3879 363.243 80.1826 362.805 79.8746 362.478C79.5666 362.151 79.1746 361.988 78.6986 361.988C78.2413 361.988 77.8073 362.142 77.3966 362.45C76.9859 362.758 76.6359 363.183 76.3466 363.724C76.0573 364.256 75.8519 364.872 75.7306 365.572C75.6279 366.263 75.6279 366.879 75.7306 367.42C75.8333 367.961 76.0339 368.391 76.3326 368.708C76.6406 369.016 77.0233 369.175 77.4806 369.184ZM86.1674 370.668C85.402 370.668 84.758 370.551 84.2354 370.318C83.722 370.075 83.3487 369.744 83.1154 369.324C82.8914 368.895 82.826 368.405 82.9194 367.854C83.0127 367.294 83.232 366.804 83.5774 366.384C83.9227 365.964 84.3754 365.637 84.9354 365.404C85.4954 365.161 86.1487 365.045 86.8954 365.054C87.6794 365.045 88.328 365.171 88.8414 365.432C89.3547 365.693 89.7234 366.048 89.9474 366.496C90.1807 366.935 90.246 367.453 90.1434 368.05C90.0594 368.573 89.84 369.03 89.4854 369.422C89.14 369.814 88.6874 370.122 88.1274 370.346C87.5674 370.561 86.914 370.668 86.1674 370.668ZM86.2234 369.296C86.6434 369.296 87.0214 369.221 87.3574 369.072C87.6934 368.923 87.9687 368.722 88.1834 368.47C88.398 368.209 88.524 367.91 88.5614 367.574C88.6174 367.145 88.4914 366.799 88.1834 366.538C87.8754 366.277 87.446 366.146 86.8954 366.146C86.4847 366.146 86.1067 366.221 85.7614 366.37C85.4254 366.519 85.15 366.725 84.9354 366.986C84.73 367.247 84.6087 367.551 84.5714 367.896C84.5154 368.307 84.6414 368.643 84.9494 368.904C85.2574 369.165 85.682 369.296 86.2234 369.296ZM86.9934 365.782C86.3027 365.782 85.7194 365.67 85.2434 365.446C84.7767 365.213 84.4407 364.895 84.2354 364.494C84.03 364.093 83.9694 363.626 84.0534 363.094C84.1374 362.59 84.338 362.147 84.6554 361.764C84.9727 361.372 85.388 361.069 85.9014 360.854C86.4147 360.639 86.998 360.532 87.6514 360.532C88.3514 360.532 88.9347 360.649 89.4014 360.882C89.8774 361.115 90.218 361.442 90.4234 361.862C90.638 362.273 90.6987 362.749 90.6054 363.29C90.5214 363.785 90.3207 364.219 90.0034 364.592C89.686 364.965 89.2707 365.259 88.7574 365.474C88.244 365.679 87.656 365.782 86.9934 365.782ZM86.9794 364.788C87.3434 364.788 87.67 364.723 87.9594 364.592C88.258 364.452 88.5007 364.265 88.6874 364.032C88.874 363.789 88.9814 363.514 89.0094 363.206C89.0747 362.814 88.972 362.492 88.7014 362.24C88.44 361.988 88.0807 361.862 87.6234 361.862C87.2594 361.862 86.928 361.937 86.6294 362.086C86.34 362.226 86.102 362.422 85.9154 362.674C85.7287 362.926 85.6167 363.215 85.5794 363.542C85.5327 363.915 85.64 364.219 85.9014 364.452C86.1627 364.676 86.522 364.788 86.9794 364.788ZM93.7903 371.676L99.6003 360.042H101.154L95.3723 371.676H93.7903ZM105.427 370.024L103.971 369.226C104.018 368.918 104.139 368.605 104.335 368.288C104.531 367.971 104.783 367.658 105.091 367.35C105.408 367.042 105.782 366.757 106.211 366.496L108.129 365.25C108.372 365.101 108.61 364.923 108.843 364.718C109.076 364.503 109.272 364.279 109.431 364.046C109.59 363.813 109.683 363.584 109.711 363.36C109.758 362.977 109.655 362.655 109.403 362.394C109.16 362.123 108.806 361.988 108.339 361.988C108.003 361.988 107.695 362.058 107.415 362.198C107.135 362.329 106.892 362.506 106.687 362.73C106.491 362.945 106.337 363.173 106.225 363.416L104.601 363.024C104.778 362.576 105.044 362.165 105.399 361.792C105.754 361.409 106.183 361.106 106.687 360.882C107.191 360.649 107.742 360.532 108.339 360.532C109.048 360.532 109.641 360.663 110.117 360.924C110.602 361.185 110.948 361.545 111.153 362.002C111.368 362.459 111.428 362.982 111.335 363.57C111.242 364.111 111.008 364.615 110.635 365.082C110.262 365.539 109.762 365.973 109.137 366.384L107.373 367.546C107.074 367.733 106.785 367.947 106.505 368.19C106.225 368.433 105.992 368.703 105.805 369.002C105.618 369.301 105.492 369.641 105.427 370.024ZM103.747 370.5L103.971 369.226L105.203 369.058H110.537L110.285 370.5H103.747ZM115.707 370.668C115.082 370.668 114.536 370.537 114.069 370.276C113.602 370.005 113.224 369.637 112.935 369.17C112.646 368.694 112.45 368.139 112.347 367.504C112.254 366.86 112.268 366.165 112.389 365.418C112.557 364.457 112.86 363.607 113.299 362.87C113.738 362.133 114.274 361.559 114.909 361.148C115.553 360.737 116.244 360.532 116.981 360.532C117.597 360.532 118.138 360.667 118.605 360.938C119.072 361.199 119.45 361.568 119.739 362.044C120.038 362.511 120.234 363.066 120.327 363.71C120.42 364.345 120.406 365.035 120.285 365.782C120.126 366.725 119.823 367.565 119.375 368.302C118.936 369.039 118.4 369.618 117.765 370.038C117.13 370.458 116.444 370.668 115.707 370.668ZM115.707 369.184C116.202 369.184 116.654 369.03 117.065 368.722C117.485 368.405 117.835 367.98 118.115 367.448C118.395 366.916 118.591 366.309 118.703 365.628C118.824 364.947 118.829 364.335 118.717 363.794C118.614 363.243 118.409 362.805 118.101 362.478C117.793 362.151 117.401 361.988 116.925 361.988C116.468 361.988 116.034 362.142 115.623 362.45C115.212 362.758 114.862 363.183 114.573 363.724C114.284 364.256 114.078 364.872 113.957 365.572C113.854 366.263 113.854 366.879 113.957 367.42C114.06 367.961 114.26 368.391 114.559 368.708C114.867 369.016 115.25 369.175 115.707 369.184ZM122.476 370.024L121.02 369.226C121.067 368.918 121.188 368.605 121.384 368.288C121.58 367.971 121.832 367.658 122.14 367.35C122.457 367.042 122.831 366.757 123.26 366.496L125.178 365.25C125.421 365.101 125.659 364.923 125.892 364.718C126.125 364.503 126.321 364.279 126.48 364.046C126.639 363.813 126.732 363.584 126.76 363.36C126.807 362.977 126.704 362.655 126.452 362.394C126.209 362.123 125.855 361.988 125.388 361.988C125.052 361.988 124.744 362.058 124.464 362.198C124.184 362.329 123.941 362.506 123.736 362.73C123.54 362.945 123.386 363.173 123.274 363.416L121.65 363.024C121.827 362.576 122.093 362.165 122.448 361.792C122.803 361.409 123.232 361.106 123.736 360.882C124.24 360.649 124.791 360.532 125.388 360.532C126.097 360.532 126.69 360.663 127.166 360.924C127.651 361.185 127.997 361.545 128.202 362.002C128.417 362.459 128.477 362.982 128.384 363.57C128.291 364.111 128.057 364.615 127.684 365.082C127.311 365.539 126.811 365.973 126.186 366.384L124.422 367.546C124.123 367.733 123.834 367.947 123.554 368.19C123.274 368.433 123.041 368.703 122.854 369.002C122.667 369.301 122.541 369.641 122.476 370.024ZM120.796 370.5L121.02 369.226L122.252 369.058H127.586L127.334 370.5H120.796ZM132.196 370.668C131.757 370.668 131.319 370.598 130.88 370.458C130.441 370.309 130.059 370.094 129.732 369.814C129.405 369.534 129.172 369.184 129.032 368.764L130.516 368.316C130.712 368.652 130.95 368.895 131.23 369.044C131.519 369.184 131.827 369.254 132.154 369.254C132.537 369.254 132.887 369.175 133.204 369.016C133.521 368.848 133.787 368.624 134.002 368.344C134.226 368.055 134.366 367.719 134.422 367.336C134.515 366.832 134.431 366.417 134.17 366.09C133.909 365.763 133.521 365.6 133.008 365.6C132.663 365.6 132.331 365.679 132.014 365.838C131.706 365.987 131.459 366.16 131.272 366.356L129.844 365.992L131.258 360.7H136.676L136.438 362.17H131.216L131.258 360.756H132.882L131.3 366.118L130.32 365.964C130.46 365.777 130.637 365.591 130.852 365.404C131.067 365.208 131.309 365.031 131.58 364.872C131.851 364.713 132.149 364.583 132.476 364.48C132.803 364.377 133.143 364.331 133.498 364.34C134.077 364.34 134.576 364.475 134.996 364.746C135.416 365.017 135.724 365.385 135.92 365.852C136.116 366.319 136.163 366.855 136.06 367.462C135.948 368.097 135.71 368.657 135.346 369.142C134.991 369.618 134.539 369.991 133.988 370.262C133.447 370.533 132.849 370.668 132.196 370.668Z" fill="#3F3F46"/>
</g>
<path d="M191 366C191 354.954 199.954 346 211 346H322C333.046 346 342 354.954 342 366C342 377.046 333.046 386 322 386H211C199.954 386 191 377.046 191 366Z" fill="#FFA9CF"/>
<path d="M233.828 371.5V360.3H237.78C238.548 360.3 239.225 360.455 239.812 360.764C240.399 361.073 240.857 361.505 241.188 362.06C241.519 362.604 241.684 363.239 241.684 363.964C241.684 364.668 241.529 365.297 241.22 365.852C240.911 366.407 240.479 366.844 239.924 367.164C239.38 367.473 238.745 367.628 238.02 367.628H235.684V371.5H233.828ZM235.684 365.916H237.988C238.521 365.916 238.959 365.735 239.3 365.372C239.641 365.009 239.812 364.54 239.812 363.964C239.812 363.377 239.62 362.903 239.236 362.54C238.852 362.177 238.356 361.996 237.748 361.996H235.684V365.916ZM243.104 371.5V363.5H244.88V371.5H243.104ZM244 361.98C243.712 361.98 243.461 361.879 243.248 361.676C243.045 361.463 242.944 361.212 242.944 360.924C242.944 360.636 243.045 360.391 243.248 360.188C243.461 359.985 243.712 359.884 244 359.884C244.288 359.884 244.533 359.985 244.736 360.188C244.949 360.391 245.056 360.636 245.056 360.924C245.056 361.212 244.949 361.463 244.736 361.676C244.533 361.879 244.288 361.98 244 361.98ZM250.736 371.692C249.915 371.692 249.189 371.516 248.56 371.164C247.931 370.801 247.435 370.305 247.072 369.676C246.72 369.047 246.544 368.321 246.544 367.5C246.544 366.679 246.72 365.953 247.072 365.324C247.435 364.695 247.925 364.204 248.544 363.852C249.173 363.489 249.893 363.308 250.704 363.308C251.493 363.308 252.208 363.5 252.848 363.884C253.488 364.257 253.963 364.796 254.272 365.5L252.608 366.14C252.437 365.788 252.176 365.505 251.824 365.292C251.472 365.079 251.072 364.972 250.624 364.972C250.187 364.972 249.797 365.084 249.456 365.308C249.115 365.521 248.848 365.82 248.656 366.204C248.464 366.577 248.368 367.009 248.368 367.5C248.368 367.991 248.464 368.428 248.656 368.812C248.859 369.185 249.131 369.484 249.472 369.708C249.824 369.921 250.219 370.028 250.656 370.028C251.104 370.028 251.504 369.916 251.856 369.692C252.208 369.457 252.469 369.143 252.64 368.748L254.304 369.388C253.995 370.113 253.52 370.679 252.88 371.084C252.251 371.489 251.536 371.692 250.736 371.692ZM257.407 369.26L256.319 368.028L260.479 363.5H262.639L257.407 369.26ZM255.695 371.5V360.3H257.487V371.5H255.695ZM260.783 371.5L257.967 367.356L259.135 366.108L262.911 371.5H260.783ZM273.596 371.5L273.516 370.012V360.3H275.292V371.5H273.596ZM270.988 371.692C270.263 371.692 269.628 371.521 269.084 371.18C268.551 370.828 268.129 370.337 267.82 369.708C267.521 369.079 267.372 368.343 267.372 367.5C267.372 366.647 267.521 365.911 267.82 365.292C268.129 364.663 268.551 364.177 269.084 363.836C269.628 363.484 270.263 363.308 270.988 363.308C271.66 363.308 272.236 363.484 272.716 363.836C273.207 364.177 273.58 364.663 273.836 365.292C274.092 365.911 274.22 366.647 274.22 367.5C274.22 368.343 274.092 369.079 273.836 369.708C273.58 370.337 273.207 370.828 272.716 371.18C272.236 371.521 271.66 371.692 270.988 371.692ZM271.436 370.06C271.841 370.06 272.199 369.953 272.508 369.74C272.828 369.516 273.073 369.212 273.244 368.828C273.425 368.444 273.516 368.001 273.516 367.5C273.516 366.999 273.425 366.556 273.244 366.172C273.073 365.788 272.828 365.489 272.508 365.276C272.199 365.063 271.836 364.956 271.42 364.956C270.993 364.956 270.615 365.063 270.284 365.276C269.953 365.489 269.692 365.788 269.5 366.172C269.319 366.556 269.223 366.999 269.212 367.5C269.223 368.001 269.319 368.444 269.5 368.828C269.692 369.212 269.953 369.516 270.284 369.74C270.625 369.953 271.009 370.06 271.436 370.06ZM282.153 371.5L282.073 369.996V367.388C282.073 366.844 282.015 366.391 281.897 366.028C281.791 365.655 281.609 365.372 281.353 365.18C281.108 364.977 280.777 364.876 280.361 364.876C279.977 364.876 279.641 364.956 279.353 365.116C279.065 365.276 278.82 365.527 278.617 365.868L277.049 365.292C277.22 364.94 277.444 364.615 277.721 364.316C278.009 364.007 278.367 363.761 278.793 363.58C279.231 363.399 279.753 363.308 280.361 363.308C281.14 363.308 281.791 363.463 282.313 363.772C282.836 364.071 283.22 364.503 283.465 365.068C283.721 365.633 283.849 366.316 283.849 367.116L283.801 371.5H282.153ZM279.849 371.692C278.889 371.692 278.143 371.479 277.609 371.052C277.087 370.625 276.825 370.023 276.825 369.244C276.825 368.412 277.103 367.777 277.657 367.34C278.223 366.903 279.007 366.684 280.009 366.684H282.153V368.06H280.585C279.871 368.06 279.369 368.161 279.081 368.364C278.793 368.556 278.649 368.833 278.649 369.196C278.649 369.505 278.772 369.751 279.017 369.932C279.273 370.103 279.625 370.188 280.073 370.188C280.479 370.188 280.831 370.097 281.129 369.916C281.428 369.735 281.657 369.495 281.817 369.196C281.988 368.897 282.073 368.561 282.073 368.188H282.601C282.601 369.276 282.383 370.135 281.945 370.764C281.508 371.383 280.809 371.692 279.849 371.692ZM288.848 371.692C288.005 371.692 287.36 371.484 286.912 371.068C286.475 370.641 286.256 370.033 286.256 369.244V361.004H288.032V368.908C288.032 369.281 288.117 369.564 288.288 369.756C288.469 369.948 288.731 370.044 289.072 370.044C289.179 370.044 289.296 370.023 289.424 369.98C289.552 369.937 289.696 369.857 289.856 369.74L290.512 371.1C290.235 371.292 289.957 371.436 289.68 371.532C289.403 371.639 289.125 371.692 288.848 371.692ZM284.928 365.036V363.5H290.192V365.036H284.928ZM295.419 371.692C294.641 371.692 293.947 371.516 293.339 371.164C292.742 370.801 292.267 370.305 291.915 369.676C291.574 369.047 291.403 368.321 291.403 367.5C291.403 366.679 291.579 365.953 291.931 365.324C292.283 364.695 292.763 364.204 293.371 363.852C293.99 363.489 294.694 363.308 295.483 363.308C296.198 363.308 296.843 363.495 297.419 363.868C297.995 364.231 298.449 364.759 298.779 365.452C299.121 366.145 299.291 366.972 299.291 367.932H293.003L293.243 367.708C293.243 368.199 293.35 368.625 293.563 368.988C293.777 369.34 294.059 369.612 294.411 369.804C294.763 369.996 295.153 370.092 295.579 370.092C296.07 370.092 296.475 369.985 296.795 369.772C297.115 369.548 297.366 369.26 297.547 368.908L299.131 369.58C298.907 370.007 298.619 370.38 298.267 370.7C297.926 371.02 297.515 371.265 297.035 371.436C296.566 371.607 296.027 371.692 295.419 371.692ZM293.355 366.78L293.099 366.556H297.611L297.371 366.78C297.371 366.343 297.275 365.985 297.083 365.708C296.891 365.42 296.646 365.207 296.347 365.068C296.059 364.919 295.755 364.844 295.435 364.844C295.115 364.844 294.795 364.919 294.475 365.068C294.155 365.207 293.889 365.42 293.675 365.708C293.462 365.985 293.355 366.343 293.355 366.78Z" fill="#1E1E1E"/>
<defs>
<filter id="filter0_d_16470_48841" x="12" y="13" width="48" height="48" filterUnits="userSpaceOnUse" color-interpolation-filters="sRGB">
<feFlood flood-opacity="0" result="BackgroundImageFix"/>
<feColorMatrix in="SourceAlpha" type="matrix" values="0 0 0 0 0 0 0 0 0 0 0 0 0 0 0 0 0 0 127 0" result="hardAlpha"/>
<feMorphology radius="1" operator="erode" in="SourceAlpha" result="effect1_dropShadow_16470_48841"/>
<feOffset dy="1"/>
<feGaussianBlur stdDeviation="2.5"/>
<feComposite in2="hardAlpha" operator="out"/>
<feColorMatrix type="matrix" values="0 0 0 0 0.0666667 0 0 0 0 0.0470588 0 0 0 0 0.133333 0 0 0 0.1 0"/>
<feBlend mode="normal" in2="BackgroundImageFix" result="effect1_dropShadow_16470_48841"/>
<feBlend mode="normal" in="SourceGraphic" in2="effect1_dropShadow_16470_48841" result="shape"/>
</filter>
<filter id="filter1_d_16470_48841" x="298" y="13" width="48" height="48" filterUnits="userSpaceOnUse" color-interpolation-filters="sRGB">
<feFlood flood-opacity="0" result="BackgroundImageFix"/>
<feColorMatrix in="SourceAlpha" type="matrix" values="0 0 0 0 0 0 0 0 0 0 0 0 0 0 0 0 0 0 127 0" result="hardAlpha"/>
<feMorphology radius="1" operator="erode" in="SourceAlpha" result="effect1_dropShadow_16470_48841"/>
<feOffset dy="1"/>
<feGaussianBlur stdDeviation="2.5"/>
<feComposite in2="hardAlpha" operator="out"/>
<feColorMatrix type="matrix" values="0 0 0 0 0.0666667 0 0 0 0 0.0470588 0 0 0 0 0.133333 0 0 0 0.1 0"/>
<feBlend mode="normal" in2="BackgroundImageFix" result="effect1_dropShadow_16470_48841"/>
<feBlend mode="normal" in="SourceGraphic" in2="effect1_dropShadow_16470_48841" result="shape"/>
</filter>
<filter id="filter2_dd_16470_48841" x="14" y="348.5" width="155" height="37" filterUnits="userSpaceOnUse" color-interpolation-filters="sRGB">
<feFlood flood-opacity="0" result="BackgroundImageFix"/>
<feColorMatrix in="SourceAlpha" type="matrix" values="0 0 0 0 0 0 0 0 0 0 0 0 0 0 0 0 0 0 127 0" result="hardAlpha"/>
<feMorphology radius="1" operator="dilate" in="SourceAlpha" result="effect1_dropShadow_16470_48841"/>
<feOffset/>
<feComposite in2="hardAlpha" operator="out"/>
<feColorMatrix type="matrix" values="0 0 0 0 0.0696 0 0 0 0 0.215657 0 0 0 0 0.4104 0 0 0 0.08 0"/>
<feBlend mode="normal" in2="BackgroundImageFix" result="effect1_dropShadow_16470_48841"/>
<feColorMatrix in="SourceAlpha" type="matrix" values="0 0 0 0 0 0 0 0 0 0 0 0 0 0 0 0 0 0 127 0" result="hardAlpha"/>
<feOffset dy="1"/>
<feGaussianBlur stdDeviation="1"/>
<feComposite in2="hardAlpha" operator="out"/>
<feColorMatrix type="matrix" values="0 0 0 0 0.166412 0 0 0 0 0.230005 0 0 0 0 0.315941 0 0 0 0.12 0"/>
<feBlend mode="normal" in2="effect1_dropShadow_16470_48841" result="effect2_dropShadow_16470_48841"/>
<feBlend mode="normal" in="SourceGraphic" in2="effect2_dropShadow_16470_48841" result="shape"/>
</filter>
<linearGradient id="paint0_linear_16470_48841" x1="36" y1="16" x2="36" y2="56" gradientUnits="userSpaceOnUse">
<stop stop-color="#E4E6E7" stop-opacity="0.6"/>
<stop offset="1" stop-color="#E4E4E7"/>
</linearGradient>
<linearGradient id="paint1_linear_16470_48841" x1="322" y1="16" x2="322" y2="56" gradientUnits="userSpaceOnUse">
<stop stop-color="#E4E6E7" stop-opacity="0.6"/>
<stop offset="1" stop-color="#E4E4E7"/>
</linearGradient>
<linearGradient id="paint2_linear_16470_48841" x1="91.5" y1="349.5" x2="91.5" y2="382.5" gradientUnits="userSpaceOnUse">
<stop stop-color="#DFE1E7" stop-opacity="0"/>
<stop offset="1" stop-color="#DFE1E7"/>
</linearGradient>
</defs>
</svg>
