<svg width="360" height="143" viewBox="0 0 360 143" fill="none" xmlns="http://www.w3.org/2000/svg">
<path d="M327.168 25.193C327.616 26.6626 324.618 23.6811 326.023 26.4014C325.525 26.1287 325.019 25.8858 324.514 25.671C324.667 25.1767 324.805 24.6766 324.936 24.1725C325.689 24.4572 326.431 24.7934 327.169 25.1911C327.169 25.1917 327.168 25.1924 327.168 25.193ZM332.172 21.2381C330.466 21.6008 328.056 20.2558 329.615 23.1466C330.11 22.925 330.62 22.7199 331.134 22.5234C331.708 23.5419 332.206 24.5866 332.636 25.6461C333.03 25.8134 333.425 25.9922 333.818 26.1855C333.477 27.1127 333.098 28.0164 332.687 28.8958C332.542 28.4874 332.385 28.0734 332.221 27.6696C330.651 26.83 329.586 25.9345 327.926 24.7265C327.938 24.9953 327.946 25.2619 327.949 25.5285C327.404 24.6106 326.784 23.7238 326.088 22.884C327.028 23.0752 328.092 23.3891 328.974 23.7172C328.727 21.7375 326.049 20.8988 324.772 20.6298C324.628 20.5937 324.499 20.5594 324.384 20.5259C322.917 20.0846 323.373 19.7261 321.992 19.4089C321.752 19.3552 321.538 19.8021 321.096 19.6342C318.89 18.7496 314.427 17.1249 317.431 16.8507C320.057 17.8087 322.54 18.341 324.957 19.2947C325.951 19.6823 326.893 20.1814 327.774 20.8789C327.658 19.2514 329.619 19.7788 332.172 21.2381ZM256.606 14.7477C257.884 14.0125 260.521 14.1108 262.351 14.4603C262.353 14.4601 262.355 14.46 262.357 14.4599C262.758 14.5367 263.698 15.3492 262.409 15.3861C260.298 15.446 259.225 14.1521 258.173 15.1425C257.668 15.0023 257.138 14.8831 256.606 14.7477ZM252.041 15.1369C250.737 14.8944 251.23 13.8322 252.884 13.9956C252.884 13.9948 252.884 13.994 252.884 13.9931C253.568 14.0625 252.299 14.9599 254.664 13.9759C255.2 14.5806 255.722 15.1287 256.247 15.7143C255.66 15.7631 255.124 15.8156 254.505 15.8657C254.852 14.7892 253.366 15.3756 252.041 15.1369ZM315.292 16.7996C314.842 17.6552 315.623 17.8652 316.688 18.8952C315.504 18.4821 314.307 18.0992 313.098 17.7477C313.825 17.4218 314.552 17.1056 315.292 16.7996ZM336.737 33.2171C336.738 33.2187 336.739 33.2204 336.74 33.222C337.052 33.5106 337.364 33.8088 337.668 34.1103C337.467 34.4744 337.262 34.8321 337.053 35.1899C337.922 36.343 338.756 37.5786 339.548 38.8577C338.525 39.0268 337.773 36.5299 336.536 35.5773C335.974 33.5803 336.011 32.4572 336.717 31.9132C336.73 32.3463 336.735 32.7823 336.737 33.2171ZM9.59735 83.9726C9.94372 84.4432 10.2969 84.9227 10.6558 85.3992C10.6821 84.6831 10.6944 84.0121 10.7642 83.3118C9.32861 81.6217 10.3985 81.37 10.1546 78.9718C9.76353 74.5997 9.06578 73.5488 9.0814 71.9109C9.11258 70.9032 9.48055 69.585 10.9311 67.2414C10.3737 71.1189 11.3183 70.8808 12.1055 71.9109C12.3451 72.2491 12.5896 72.7086 12.8266 73.4123C12.0522 74.1001 10.2756 70.8928 9.92513 73.0832C10.7887 76.7851 11.7231 80.2868 12.7631 84.1382C12.8816 84.0088 13.001 83.88 13.1201 83.7509C12.9582 83.1534 12.8026 82.5449 12.6533 81.9147C13.0816 82.5674 13.5117 83.1796 13.9582 83.7892C13.0357 83.049 13.7782 85.1543 12.8135 85.0035C12.379 84.932 11.6671 84.0264 11.203 83.4975C11.1672 85.0162 11.206 86.598 11.2982 88.1697C10.8145 87.4305 10.3519 86.713 9.89886 85.9623C9.78725 85.3077 9.685 84.6224 9.59522 83.9851C9.59593 83.9809 9.59664 83.9768 9.59735 83.9726ZM323.197 107.702C321.977 109.416 318.797 111.011 316.675 110.689C318.913 109.762 321.1 108.766 323.197 107.702ZM337.284 31.4482C337.238 31.7096 337.188 31.9636 337.138 32.2232C336.443 31.5595 335.737 30.9345 335.015 30.3508C335.333 29.957 335.646 29.5551 335.95 29.1484C336.417 29.8903 336.865 30.6672 337.284 31.4482ZM283.492 12.296C284.217 12.2736 284.282 12.2894 285.178 12.371C285.177 12.3706 285.176 12.3702 285.174 12.3698C285.526 12.3947 288.494 12.7511 288.15 13.1128C286.665 13.072 285.121 13.036 283.599 13.0232C283.556 12.7807 283.547 12.5405 283.492 12.296ZM300.718 13.5063C300.72 13.5074 300.722 13.5084 300.724 13.5094C301.243 13.6278 301.711 13.8014 302.255 13.8948C300.247 14.2186 300.07 13.1554 298.241 13.2636C296.447 13.3864 295.294 13.8721 293.873 12.3493C294.447 12.1736 295.09 11.9141 295.699 11.7129C298.212 12.4901 298.936 12.0307 301.052 11.712C300.94 12.3114 300.83 12.9068 300.718 13.5063ZM16.7061 53.5465C16.2999 52.805 17.159 52.6757 17.1914 52.6346C17.1917 52.6358 17.1919 52.637 17.1922 52.6383C18.7022 48.7343 17.2161 53.264 19.334 50.0182C19.1689 50.6019 19.0313 51.1785 18.8985 51.7497C18.163 52.3219 17.3808 52.9325 16.7061 53.5465ZM144.609 15.9995C144.645 16.2053 144.689 16.4119 144.724 16.6178C142.188 16.5061 141.541 17.297 139.451 16.5125C141.178 16.3379 142.88 16.1664 144.609 15.997C144.609 15.9978 144.609 15.9986 144.609 15.9995ZM270.887 11.0147C273.653 10.5219 275.729 10.2942 278.384 10.8781C278.386 10.8789 278.388 10.8797 278.39 10.8805C278.543 10.9165 277.812 11.3555 278.013 11.4607C278.551 11.3887 279.129 11.2834 279.683 11.2023C279.762 11.545 279.836 11.8876 279.914 12.2283C278.34 12.1427 276.81 12.071 275.229 12.0121C275.466 12.2071 275.708 12.4006 275.944 12.5962C274.61 12.7291 273.302 12.8699 271.978 13.019C272.421 12.4406 272.863 11.863 273.302 11.2846C272.502 11.1909 271.697 11.1046 270.887 11.0147ZM102.648 13.6054C103.099 13.8123 102.294 14.2174 102.987 14.3843C103.679 14.5484 104.933 14.091 104.656 14.7314C103.735 14.8455 102.768 14.9775 101.836 15.1041C104.897 16.1177 107.872 15.0228 107.956 16.4264C105.05 16.1301 102.68 16.3797 99.9094 16.8971C99.9693 15.775 102.737 14.693 100.925 13.7212C101.493 13.6823 102.09 13.6371 102.642 13.6081C102.644 13.6072 102.646 13.6063 102.648 13.6054ZM359.408 68.8681C359.404 70.7068 359.945 74.8437 359.299 77.1015C359.143 77.6549 357.071 79.4845 356.797 79.4768C355.876 79.414 355.748 77.2273 355.15 79.5841C355.144 78.7878 355.108 78.0074 355.087 77.2119C354.469 77.3572 353.852 77.4886 353.236 77.636C353.333 78.6269 353.427 79.5721 353.521 80.5315C353.316 80.5773 353.111 80.6227 352.906 80.6681C352.902 77.2145 352.112 79.2766 351.37 77.4611C351.006 79.1353 350.629 80.7772 350.256 82.3944C350.302 81.4887 350.338 80.3595 350.392 79.5131C349.343 79.4188 349.591 81.3805 349.396 81.7379C348.301 83.6418 348.851 73.893 347.27 73.14C347.132 74.6837 346.983 76.319 346.821 77.8887C346.631 77.4109 346.44 76.9917 346.249 76.532C347.275 72.9124 347.553 68.9329 347.939 64.7051C347.872 64.3347 347.802 63.9618 347.734 63.5935C347.269 63.7374 346.806 63.8742 346.341 64.0158C346.246 63.4604 346.147 62.879 346.047 62.3316C347.726 63.8652 347.558 61.5805 348.212 58.6795C348.916 60.1084 348.737 62.0037 349.744 61.7877C348.554 56.7013 348.823 50.5003 346.823 45.7472C346.323 44.5785 345.075 44.8795 344.438 42.0693C344.603 42.1248 344.86 42.0709 345.061 42.0817C343.052 37.4119 341.724 34.782 339.888 29.9344C339.615 30.4227 339.332 30.9013 339.046 31.3771C339.746 32.2082 340.425 33.0739 341.074 33.9655C340.636 34.9542 339.947 34.0776 341.115 37.0307C342.017 39.4811 341.808 37.909 342.266 38.5042C342.882 39.3217 342.552 40.3315 343.188 41.2299C343.674 41.9352 344.064 40.8998 344.473 43.0146C343.443 42.3958 342.374 41.799 341.322 41.2498C341.355 40.7128 341.386 40.1764 341.408 39.6369C341.78 40.0518 342.144 40.4692 342.509 40.9002C341.591 39.2701 340.674 37.7854 339.606 36.2484C340.953 36.3554 339.816 34.7405 339.249 33.8732C338.365 32.5172 339.706 33.4014 339.121 32.5109C338.52 31.6209 337.199 31.0655 336.404 29.3983C337.385 29.9659 337.082 28.5528 337.639 28.512C338.205 28.4649 339.368 30.2139 338.803 28.2101C336.385 25.2229 337.049 29.6817 335.417 27.7988C333.479 25.7201 335.236 23.2098 336.368 23.4819C337.27 23.7084 338.736 25.8701 339.575 26.2464C337.629 21.7684 335.957 23.0349 335.223 22.6833C332.33 21.5873 336.192 20.3719 332.721 19.0169C333.189 18.5498 333.609 18.1284 334.065 17.6874C333.5 17.3757 333.074 17.2398 332.407 16.8643C333.385 19.2294 331.993 18.063 331.262 17.5543C330.103 16.7512 331.527 18.5093 331.12 18.4259C330.076 18.1858 328.892 17.2286 329.378 18.202C329.171 17.7557 328.915 17.2904 328.662 16.8442C328.053 16.6387 326.965 16.635 326.107 16.8227C324.883 17.0762 324.102 17.5958 325.507 18.1127C325.641 18.1625 325.796 18.213 325.972 18.2655C325.744 18.5121 325.518 18.593 325.292 18.5751C324.775 18.5231 324.238 17.9926 323.728 17.6583C322.982 17.1717 322.746 17.7788 322.082 17.3811C319.415 15.835 321.649 15.503 322.447 14.877C318.326 14.0115 322.038 15.6615 316.261 14.2483C315.523 14.7676 317.885 16.2671 315.623 16.0176C315.587 14.7297 314.218 13.3687 311.084 12.2456C310.708 12.4527 310.335 12.6647 309.963 12.8762C308.429 11.4072 309.555 10.3902 305.98 11.2041C308.209 8.95648 306.71 10.3448 303.85 8.86157C303.259 8.56271 304.77 8.23277 303.94 7.83882C303.562 7.66063 302.545 7.93195 301.631 7.50574C301.196 7.29287 299.058 6.04489 297.496 6.39002C298.492 7.7421 295.544 8.55451 297.889 9.80978C293.393 9.151 290.183 9.61761 295.378 8.22623C294.241 7.75974 293.122 7.30963 291.966 6.87011C291.13 7.12711 290.305 7.38839 289.482 7.6555C289.398 6.62196 289.535 6.31517 286.314 6.41971C287.707 6.2048 289.12 6.00083 290.52 5.81506C290.576 5.6084 290.78 5.4001 290.742 5.19556C289.012 5.49883 284.17 5.56983 282.989 5.8523C281.809 6.12137 284.083 6.20963 283.74 6.47539C280.925 8.66015 281.18 7.04264 279.165 7.4351C277.989 7.66997 280.803 7.8872 280.173 7.98838C277.833 8.35509 276.774 7.20565 274.688 7.24164C275.443 7.88664 276.185 8.54496 276.907 9.20218C274.748 9.20606 272.363 9.27275 270.357 9.56403C269.57 9.67807 270.187 10.1483 270.059 10.1864C269.433 10.3786 266.87 10.7618 266.592 10.7791C264.515 10.8846 264.448 10.2035 262.433 10.2769C263.219 10.1748 263.955 10.0829 264.717 9.98752C265.008 8.8617 265.304 7.73606 265.607 6.60835C263.637 6.62499 261.635 6.65737 259.658 6.6956C261.11 6.97923 262.616 7.26274 264.071 7.55707C261.858 8.57115 259.658 9.60143 257.46 10.6415C256.239 10.1677 255.052 9.69434 253.838 9.22482C250.644 9.58896 251.455 11.7751 249.806 9.92868C248.879 10.1606 247.948 10.3935 247.013 10.6255C247.128 10.337 247.242 10.0481 247.357 9.75972C246.229 10.0139 245.124 10.2661 243.999 10.5236C245.269 11.4218 246.494 12.3757 247.751 13.2472C245.537 13.6238 245.441 12.7903 245.092 12.6058C244.174 12.117 242.462 12.9943 241.729 12.5341C241.475 12.3762 243.629 11.6623 242.825 11.083C242.656 10.9715 239.582 8.85161 237.74 9.53084C237.807 9.95138 237.99 10.4595 238.101 10.9141C235.602 11.3583 234.169 9.24219 234.454 8.59884C233.147 9.13101 231.187 9.30935 230.967 10.0057C230.287 10.0713 229.61 10.1354 228.927 10.2004C229.526 8.50071 226.681 9.00416 226.6 10.4343C227.773 10.3884 228.965 10.3415 230.138 10.2928C229.374 12.0925 233.022 12.8958 225.471 11.8027C223.993 10.9953 227.997 11.7528 226.796 11.1548C224.774 10.8989 222.884 11.3569 220.942 10.8488C218.518 10.2104 221.398 9.27831 215.915 10.613C228.297 12.3626 214.35 12.4524 208.621 13.4845C206.9 11.0771 202.055 10.5322 195.389 11.4345C196.104 12.1097 198.206 11.6964 199.42 11.8841C200.635 12.072 199.342 12.5256 200.857 12.7973C202.392 13.0693 205.611 13.3786 207.171 13.7942C205.894 14.2523 199.506 15.4203 203.712 14.147C200.504 13.5849 199.022 12.9345 195.088 12.9031C193.942 14.0054 194.053 14.6863 190.205 14.7736C192.452 13.2452 188.094 12.2597 189.036 10.6991C191.729 11.0273 190.249 12.5504 191.828 13.2468C191.992 13.3177 194.507 12.8918 195.088 12.9031C192.521 11.6094 191.64 11.1166 193.166 9.48074C191.382 9.65623 190.26 9.46705 190.106 10.2373C189.729 9.90903 189.353 9.57995 188.984 9.25063C188.405 9.26492 187.883 9.30025 187.267 9.2981C188.123 10.4504 186.474 9.75019 185.3 10.2767C184.593 10.5936 184.881 11.0494 184.521 11.3661C184.282 11.5762 183.756 11.7255 182.465 11.7272C183.175 11.9078 183.846 12.0706 184.521 12.2337C184.871 12.3181 185.222 12.4025 185.579 12.4891C185.227 12.5402 184.875 12.5908 184.521 12.6411C182.774 12.8894 181.048 13.1324 179.301 13.3687C180.768 14.0882 183.94 15.1464 183.858 16.0764C182.887 15.726 179.591 16.3289 179.222 16.3503C177.818 16.4355 178.587 15.8536 178.481 15.8384C176.289 15.5364 174.469 15.7138 173.649 14.8134C172.001 15.1935 170.747 14.9457 169.002 14.9388C168.042 14.9346 168.218 15.5912 167.654 15.457C163.916 14.5561 167.514 13.7901 160.255 15.2385C161.115 15.7137 161.967 16.1986 162.834 16.6769C162.012 16.831 161.197 16.9856 160.38 17.1387C159.838 17.0435 159.294 16.9474 158.75 16.8517C158.785 15.865 158.822 14.8763 158.857 13.8897C158.26 13.8217 157.661 13.755 157.066 13.6867C158.092 13.6144 159.123 13.5417 160.156 13.4682C160.253 13.2967 160.344 13.125 160.442 12.9535C158.92 12.6494 157.41 12.3415 155.895 12.0327C155.858 12.3753 155.82 12.7203 155.782 13.0629C152.357 12.4989 152.283 12.2054 148.999 13.0669C146.481 12.9914 144.407 14.3747 142.935 14.9427C142.418 14.7373 141.902 14.5296 141.382 14.3244C141.042 14.6018 140.7 14.878 140.358 15.1555C139.704 14.7424 139.043 14.3293 138.392 13.9189C138.004 14.8125 137.802 15.0883 140.378 15.4662C139.464 16.5652 134.94 15.9674 133.108 15.5573C131.709 15.2448 133.285 14.3389 133.112 14.2218C132.53 13.8231 130.215 14.1158 129.735 14.0447C127.68 13.745 126.256 13.7734 124.398 13.5482C124.037 13.5031 123.035 12.9019 122.95 12.8828C122.29 12.7759 120.636 12.4795 120.451 12.4711C110.801 12.0385 121.106 14.5689 112.162 14.3645C112.434 14.7004 112.683 15.0345 112.948 15.3709C112.274 15.3989 111.6 15.4274 110.923 15.4587C110.064 15.1893 111.088 14.655 109.399 15.1018C109.502 14.6817 109.605 14.2614 109.714 13.8433C108.977 14.0825 108.276 14.3211 107.522 14.5648C106.3 13.135 101.944 12.9547 102.184 11.246C102.262 10.6598 105.356 9.95983 103.689 9.39687C102.347 9.32205 103.277 9.98191 102.734 10.0379C98.8209 10.4445 98.9935 9.48049 97.4032 9.81958C97.1725 10.2484 96.9286 10.6865 96.694 11.1204C96.0819 11.0327 95.4685 10.9471 94.8512 10.8637C94.728 11.1514 94.5994 11.4399 94.4773 11.7278C95.045 11.7097 95.6854 11.6895 96.2082 11.6777C95.5378 12.7796 88.948 13.7575 91.4052 12.6481C92.4061 12.194 94.3211 12.2241 93.0301 11.0311C91.2523 11.3394 89.2365 11.69 87.38 12.0483C87.2962 11.7796 87.2161 11.5101 87.1319 11.2415C84.6073 11.6638 87.026 12.5351 87.0735 13.1241C86.4975 13.1953 85.9165 13.2672 85.3429 13.3427C85.0718 13.1024 84.8109 12.8489 84.5276 12.6189C84.5476 13.0449 84.3342 14.0538 82.5806 13.886C81.4517 13.7789 83.0633 12.5075 80.9754 12.9085C81.2144 13.5481 82.0649 14.2489 79.7643 14.7572C79.444 14.1019 79.0399 13.5167 78.7626 12.8211C75.9437 13.878 74.45 13.0174 71.1712 14.3702C70.0101 14.8531 68.6799 15.78 67.4149 16.0985C66.4062 16.3509 65.4435 16.231 64.5774 15.2224C62.9995 15.5115 63.6589 16.0461 63.2257 16.3018C61.2005 17.5169 59.3273 16.7365 58.8751 16.7861C56.1627 17.0697 55.1515 17.8624 52.8983 18.0079C53.1729 18.436 53.3871 18.8573 53.6331 19.2824C55.2628 17.9428 56.2462 17.6487 58.9769 17.0288C58.0957 17.3818 57.2303 17.7461 56.3801 18.1166C56.644 18.4545 56.9052 18.7938 57.1602 19.1331C64.9544 15.2912 63.5824 18.2034 57.0251 20.7083C56.2209 20.1827 55.3803 19.6771 54.562 19.1663C51.0266 21.5802 48.896 21.3423 44.52 23.1125C44.0077 23.3192 42.3673 24.6084 41.618 25.0345C41.632 25.0303 41.6461 25.0261 41.6602 25.0219C41.5126 25.8927 42.3054 25.8397 42.6697 26.3577C42.2972 26.6404 41.9302 26.9243 41.5679 27.2105C40.4319 27.2915 40.5395 26.765 38.8421 27.8827C39.3184 28.1546 39.7889 28.4318 40.2596 28.7104C38.3796 29.8173 36.8894 30.144 35.3034 31.4873C35.4858 31.1451 35.6691 30.8045 35.861 30.4619C31.8997 32.6177 33.2152 28.2793 31.2225 31.45C30.8997 31.3872 30.5792 31.3208 30.255 31.2616C31.3571 30.3418 32.5128 29.4393 33.6682 28.586C33.4991 28.2832 33.3332 27.9801 33.1598 27.6803C31.9221 28.6395 30.69 29.659 29.5261 30.6871C30.277 29.8153 31.0896 28.9309 31.8935 28.0863C30.2938 29.0028 28.7326 29.9726 27.1908 31.0176C29.504 30.7821 27.6431 32.4849 28.8119 33.1594C25.7478 34.3528 22.7994 35.0636 20.0872 39.3975C19.5677 40.2709 20.5781 40.3818 17.9755 41.8881C19.4671 42.2353 17.8938 45.361 19.2509 45.7928C19.7463 45.009 20.3056 44.2203 20.8095 43.4747C19.8146 43.9791 18.683 43.3509 19.4102 41.8554C20.3445 39.93 23.0658 38.3464 21.9686 37.4646C22.5961 36.9086 23.1759 36.3844 23.7914 35.8677C23.7954 36.3497 23.8122 36.8258 23.8329 37.2982C25.0487 35.3222 26.2773 34.4857 27.6674 34.4474C25.7827 36.3378 23.9926 38.3548 22.3691 40.445C22.6789 40.1926 22.9896 39.9455 23.2968 39.7037C22.6229 41.7754 24.5643 40.835 22.3578 43.6928C22.056 43.4118 21.7513 43.1337 21.4485 42.8507C21.3978 44.5751 19.292 47.438 20.9898 47.2693C20.0593 47.8902 19.7213 47.9551 19.9489 48.8323C17.5962 50.5948 15.6472 51.687 14.9026 50.0402C14.5434 51.1251 14.2347 52.1907 13.9546 53.2747C14.5918 52.8878 15.2354 52.511 15.8767 52.1657C14.9653 53.7822 14.1358 55.4649 13.4216 57.1623C12.2373 56.8682 14.5492 53.7244 13.1445 54.2848C12.8541 54.4009 12.8426 55.5253 12.6318 55.7214C10.3375 57.8544 12.9456 54.0814 11.7232 54.4573C9.79177 58.3408 9.37835 54.4981 8.8086 60.721C8.43813 60.7806 8.05777 60.8535 7.69243 60.9088C7.12085 62.988 7.91771 62.9868 7.70193 64.8015C7.58341 65.9061 6.03828 67.1814 6.83694 68.5529C7.01451 68.7681 8.71784 66.9093 8.43271 71.1649C8.42177 71.4471 8.40693 71.6937 8.38719 71.9109C8.18733 74.3481 7.17528 73.3104 6.83055 74.9881C6.44178 76.8919 8.31546 80.9679 6.64315 82.3649C6.78579 81.3613 6.81815 80.1518 6.94781 79.0318C6.56443 78.6032 6.19059 78.2226 5.81545 77.8047C6.39096 80.2426 6.09734 82.8819 7.15313 84.4252C6.258 87.9256 8.30901 91.3739 9.51129 90.0489C9.08234 89.0651 8.69328 90.3296 8.79348 88.7875C9.09873 88.5705 9.40177 88.3475 9.709 88.1343C10.13 90.5805 10.6326 92.2822 9.32766 91.4183C9.39936 91.809 9.47371 92.1914 9.55251 92.5729C10.2975 92.4409 11.0425 92.2975 11.786 92.159C11.9898 92.5744 12.2006 92.9917 12.4142 93.3909C12.405 93.9166 12.3953 94.4206 12.4111 94.9701C11.0826 94.7059 10.5473 93.5762 11.3667 97.5548C11.752 97.4089 12.1378 97.2683 12.5229 97.1215C13.3649 100.285 12.4684 100.943 14.8694 104.48C11.7628 102.523 13.2637 99.6107 10.6978 100.94C10.4704 100.066 10.2992 99.2347 10.1388 98.3687C9.70484 98.4102 9.26967 98.4485 8.83601 98.4874C10.7388 103.057 17.4262 107.378 18.4564 110.538C18.8798 110.63 19.2788 110.731 19.7134 110.796C21.2874 113.581 23.7644 112.328 25.4462 115.08C25.6408 115.351 23.8117 117.046 27.3422 118.931C27.3998 118.62 27.598 118.153 27.7118 117.783C28.3523 118.345 29.0232 118.915 29.6816 119.459C29.9411 119.28 30.2061 119.103 30.4647 118.92C29.2421 118.189 28.0417 117.429 26.8415 116.613C27.9333 117.132 29.0043 117.6 30.1114 118.058C28.938 116.948 28.3617 116.615 29.5043 116.407C30.6978 116.993 31.8781 117.527 33.0889 118.049C33.289 117.938 33.4889 117.824 33.6884 117.711C33.3594 116.946 33.0149 116.18 32.7082 115.402C35.5013 117.276 38.1917 118.428 40.2069 120.418C40.5523 120.753 38.8119 120.843 41.8789 121.357C41.7831 121.731 41.7466 122.05 41.6675 122.399C45.5207 122.747 46.5446 123.462 49.9222 125.537C47.7947 123.981 49.7579 125.208 50.4858 125.063C50.9903 124.965 49.3688 124.409 49.6462 124.213C49.9344 124.024 52.3885 123.735 50.6647 122.956C45.5061 123.485 45.2812 120.52 39.3624 119.32C40.3369 119.4 41.2755 119.457 42.2413 119.519C41.9129 119.174 41.6235 118.863 41.2773 118.495C44.1769 120.128 42.8011 119.267 44.1826 119.426C45.5798 119.588 48.0008 120.178 49.5877 120.662C50.0881 120.815 49.3883 121.105 50.4853 121.562C51.2536 121.881 53.5502 121.913 53.7375 122.94C53.844 123.603 49.9565 123.892 54.5631 125.582C55.2267 126.438 53.0978 125.465 53.0217 125.511C52.4869 125.941 54.3382 127.113 55.853 127.443C56.0951 127.495 56.3265 127.523 56.5348 127.521C56.6552 127.517 55.8023 126.641 56.9988 126.853C59.8308 127.334 61.1851 128.387 62.7286 129.707C63.2046 128.836 65.7805 128.4 68.5527 129.434C68.7644 129.2 68.9688 128.961 69.1791 128.724C68.7025 128.762 68.2257 128.795 67.7476 128.826C67.3071 128.537 66.8294 128.284 66.4144 127.962C69.3247 128.47 70.0352 127.24 71.4923 127.069C76.4655 126.408 72.9729 129.284 71.9744 129.699C71.4076 129.327 70.8728 128.929 70.3257 128.539C70.3181 128.883 70.3114 129.23 70.2989 129.575C77.4246 131.064 70.9247 131.971 74.4874 133.31C75.7533 131.856 78.4281 132.182 81.7679 133.686C82.1545 133.729 82.5387 133.777 82.925 133.815C83.019 133.583 83.0639 133.215 83.1878 133.07C87.3874 133.291 87.8942 135.861 88.2808 136.149C89.9708 137.383 91.4902 136.004 92.0156 136.029C94.2176 136.132 94.8471 136.829 96.9589 136.654C99.242 136.455 97.7134 135.876 98.4229 135.455C98.9973 135.121 100.765 135.125 101.514 134.773C101.213 135.069 100.878 135.357 100.576 135.653C102.907 136.15 104.812 136.6 107.477 136.735C110.498 134.539 113.029 138.292 111.999 135.24C109.507 135.03 108.076 134.665 106.764 133.869C108.392 133.793 110.062 133.708 111.688 133.609C112.166 133.945 112.507 134.271 113.078 134.611C114.317 133.899 117.151 134.18 118.274 133.954C123.498 132.895 121.834 131.708 126.668 133.639C123.22 133.919 123.268 134.911 119.824 134.833C120.572 135.53 122.324 135.351 121.205 136.22C124.515 135.948 123.425 135.209 124.702 134.509C125.817 133.905 128.026 133.817 127.887 133.066C128.126 133.474 128.314 133.871 128.554 134.278C130.702 134.217 132.847 134.155 134.983 134.086C134.089 134.546 133.184 135.006 132.279 135.463C132.974 135.606 133.686 135.748 134.372 135.891C139.599 134.386 148.777 136.564 147.212 133.233C149.739 133.049 150.097 133.464 151.483 134.064C151.627 133.803 151.768 133.586 151.912 133.296C153.548 133.519 154.813 132.521 156.248 132.736C157.697 132.948 158.081 133.85 158.256 132.315C159.211 132.732 160.15 133.075 161.085 133.463C161.638 133.104 162.193 132.749 162.745 132.393C163.632 132.558 164.521 132.724 165.396 132.891C165.844 132.152 169.332 132.415 170.837 131.912C172.286 132.686 172.299 135.159 175.666 134.698C175.576 134.084 175.487 133.472 175.397 132.858C176.175 132.983 176.958 133.108 177.749 133.236C177.796 133.436 177.837 133.637 177.884 133.838C177.484 133.776 177.089 133.715 176.689 133.652C177.037 133.99 177.377 134.327 177.719 134.667C177.947 134.57 178.176 134.474 178.405 134.378C179.378 133.971 180.349 133.563 181.318 133.153C180.349 132.928 179.378 132.702 178.405 132.474C177.752 132.321 177.1 132.169 176.45 132.018C177.161 131.858 177.799 131.809 178.405 131.793C179.525 131.762 180.524 131.836 181.667 131.506C183.2 132.349 182.638 132.84 182.018 133.763C182.588 133.682 183.163 133.604 183.73 133.522C183.358 134.444 184.331 134.992 180.993 134.928C181.223 135.19 181.459 135.44 181.683 135.712C182.231 135.669 182.586 135.889 183.185 135.785C184.818 135.501 186.047 133.873 185.932 133.307C185.871 133.01 184.275 133.589 184.336 133.168C184.489 132.143 188.161 132.582 182.86 131.583C184.617 130.923 185.011 131.412 186.941 131.585C186.787 131.245 186.638 130.907 186.49 130.567C187.381 130.717 188.286 130.865 189.196 131.013C187.953 132.781 194.654 133.36 188.643 134.964C190.432 135.024 192.204 135.08 193.967 135.135C193.607 135.321 193.246 135.504 192.885 135.69C192.085 135.606 191.289 135.523 190.485 135.44C191.433 135.757 192.38 136.072 193.324 136.386C195.537 135.944 196.375 135.3 197.379 134.507C194.798 133.99 195.658 134.746 193.655 134.932C193.717 134.441 193.618 133.992 193.785 133.474C194.836 134.475 198.192 133.673 198.994 133.604C201.392 133.4 199.532 134.44 201.137 134.424C202.743 134.406 204.603 133.761 205.927 134.712C205.887 134.158 205.766 133.588 205.659 133.086C208.152 132.829 207.68 133.497 207.941 133.574C212.136 134.831 214.266 133.574 219.007 133.215C218.401 133.071 217.788 132.944 217.175 132.809C220.677 131.471 218.31 131.946 215.186 131.687C218.105 131.683 219.705 130.602 221.706 130.204C223.674 129.809 227.26 130.123 228.536 130.445C225.665 131.266 222.469 131.012 219.263 131.341C219.658 131.888 220.038 132.348 220.447 132.95C222.358 131.67 223.507 132.402 224.186 132.523C226.139 132.879 226.017 131.865 227.237 132.891C227.168 132.518 227.116 132.204 227.048 131.855C230.968 131.787 235.305 132.155 237.74 130.575C238.04 131.459 238.281 132.315 238.619 133.215C240.202 132.411 241.73 132.986 243.123 132.709C244.513 132.431 243.919 131.749 245.53 131.324C245.828 131.245 246.498 131.645 247.207 131.24C247.905 130.838 250.493 128.054 251.032 130.212C252.442 130.081 253.773 130.023 255.135 129.913C253.826 130.18 252.503 130.439 251.175 130.697C252.375 131.113 253.564 131.525 254.756 131.934C254.85 131.445 254.943 130.948 255.03 130.466C258.06 129.553 260.398 130.062 263.447 129.489C263.967 129.391 262.616 128.618 264.965 128.554C267.326 128.481 269.173 130.011 273.067 128.734C273.262 128.668 274.214 127.162 275.744 127.858C276.094 128.016 274.813 128.538 275.583 128.695C276.334 128.86 279.67 128.531 280.041 129.132C279.966 128.908 279.719 128.705 279.579 128.487C280.122 128.28 280.667 128.071 281.21 127.863C281.334 128.259 281.463 128.655 281.587 129.049C284.575 127.531 286.022 125.682 290.765 125.203C289.312 124.904 287.905 124.582 286.467 124.258C286.188 124.743 285.905 125.23 285.625 125.712C283.355 125.984 281.246 126.2 279.004 126.416C278.724 126.95 278.448 127.48 278.162 128.013C277.558 128.052 276.979 128.087 276.398 128.119C276.486 127.755 276.574 127.392 276.666 127.026C275.552 127.296 274.424 127.563 273.292 127.823C275.289 125.46 279.792 126.937 279.213 125.301C279.773 125.473 280.333 125.645 280.892 125.816C280.973 124.961 282.043 125.015 283.883 124.799C283.377 124.48 282.861 124.167 282.405 123.833C284.255 124.08 287.467 123.39 289.294 123.226C290.105 123.154 289.439 123.908 289.689 123.927C291.003 124.029 293.153 122.475 293.646 122.443C296.597 122.265 299.127 123.688 301.897 121.585C298.582 122.137 300.372 121.798 299.033 121.398C298.612 121.272 294.249 121.883 299.608 120.741C300.188 120.686 310.13 119.188 307.31 121.117C308.751 120.328 309.89 119.557 311.159 118.758C315.442 120.223 313.431 118.152 311.972 117.146C312.501 116.957 313.061 116.745 313.63 116.541C312.922 118.414 319.181 116.211 320.909 114.574C321.483 114.05 319.409 114.423 320.873 113.541C321.633 113.324 322.571 113.051 323.404 112.789C321.865 112.459 323.933 111.082 323.462 110.226C325.182 110.351 327.12 111.393 326.785 112.685C327.806 111.71 328.772 110.726 329.668 109.74C329.043 109.837 328.407 109.934 327.772 110.019C331.832 108.565 335.366 104.251 337.26 105.274C337.702 104.899 338.138 104.519 338.555 104.138C338.462 103.764 338.36 103.396 338.258 103.026C340.31 101.604 342.275 99.9676 344.02 98.1035C342.832 100.016 342.808 100.792 340.852 102.232C341.794 101.849 342.715 101.442 343.631 100.983C345.138 97.3674 344.989 96.8037 347.496 92.0438C347.667 91.8839 349.722 88.1811 349.766 88.0066C350.291 87.4331 350.648 88.5502 350.906 88.299C351.763 87.668 353.6 82.3653 353.71 82.396C355.015 83.0255 355.747 88.5013 353.812 94.2446C352.014 100.011 347.819 104.922 346.092 106.726C304.933 140.221 256.607 135.638 211.539 139.425C211.069 139.446 211.288 139.825 211.088 139.849C209.846 139.99 208.595 139.429 208.131 139.419C207.138 139.399 207.702 139.938 206.976 139.961C199.582 140.18 192.533 139.976 185.113 140.121C184.631 140.131 185.121 139.683 184.274 139.766C183.838 139.812 182.469 140.502 181.474 140.515C180.415 140.529 179.404 140.517 178.405 140.494C176.165 140.442 174.066 140.348 171.549 140.379C169.598 140.403 166.627 140.385 164.45 140.435C163.474 140.457 162.462 140.789 161.506 140.819C160.149 140.862 160.414 140.224 160.204 140.189C159.287 140.037 159.164 140.735 158.29 140.739C156.658 140.746 156.577 140.283 154.505 140.377C153.022 140.444 149.66 140.907 147.8 141.071C143.422 140.665 137.923 141.057 133.846 141.356C131.413 141.533 131.177 140.889 130.193 140.918C126.697 141.026 124.075 141.919 120.779 142.003C116.414 142.111 112.509 141.592 108.243 141.513C107.551 141.499 107.703 142.096 107.025 142.103C104.499 142.129 101.254 142.152 99.006 141.974C96.4728 141.774 95.6055 140.864 93.1218 140.883C92.3941 140.887 92.1404 141.631 90.9045 141.636C88.9396 141.642 86.8594 140.777 85.5117 140.559C83.6652 140.258 85.1983 141.21 82.6851 140.812C82.5816 140.794 82.2718 140.201 81.7301 140.159C80.1515 140.027 80.2382 140.485 77.9375 140.101C77.7175 140.07 74.7359 139.047 74.44 138.983C72.6507 138.671 69.1056 137.744 68.0316 137.6C64.1889 137.093 66.9202 138.617 64.1919 136.061C62.6857 136.118 61.1777 136.156 59.5709 136.114C60.6676 136.041 56.8552 134.24 56.5772 134.164C54.5229 133.73 55.0701 134.508 53.4343 133.995C53.184 133.916 52.8802 133.804 52.5052 133.648C53.092 133.62 53.4467 133.572 53.615 133.506C53.7572 133.455 53.7711 133.39 53.6855 133.315C53.1577 132.836 48.6745 132.03 47.4908 131.625C39.7833 128.95 32.7626 126.069 24.8283 121.715C22.1828 120.259 18.4323 118.212 15.8019 115.902C15.1904 115.369 15.9024 115.485 15.3782 115.008C14.8572 114.528 15.1517 115.379 14.5645 114.808C10.9126 111.164 9.17598 107.431 6.12605 103.797C6.15185 103.527 6.25744 103.481 6.23266 103.072C3.53884 100.011 2.71337 92.7909 2.48746 90.3322C1.99886 86.3907 1.31771 85.5319 1.13634 82.6796C0.911764 78.9781 2.02213 73.5071 0.102632 76.0067C0.025002 74.6248 -0.0147638 73.3062 0.00472879 71.9109C0.0204468 70.6683 0.118538 69.4004 0.309004 68.1532C0.35762 67.8394 0.839815 68.1018 0.861392 67.9774C1.00809 67.1908 0.59127 66.8942 0.636372 66.3588C0.773967 64.9147 0.98627 67.3267 1.12477 65.2652C1.22209 64.1953 0.883427 63.4854 1.5761 60.5759C5.92002 42.8944 19.6567 28.2653 34.5927 19.8103C35.6181 19.2248 34.6952 19.1865 36.0181 18.482C40.5996 15.9462 49.3555 13.2134 53.4821 11.8639C57.5828 10.467 56.5046 10.0754 59.0387 9.07411C59.5353 8.88465 59.2182 9.38621 59.6821 9.2728C61.6393 8.79279 63.8115 8.55374 65.854 8.35769C67.0684 8.24514 68.207 8.146 69.162 8.00922C70.8145 7.777 70.5739 7.1741 71.712 6.93552C73.4113 6.58403 75.2598 6.96083 76.1721 6.85208C80.4496 6.34075 83.331 5.49825 87.348 5.3928C87.1795 5.26702 87.0648 5.14695 86.9201 5.0213C91.6516 4.60788 96.3664 4.33631 101.07 4.16488C100.843 4.0458 100.626 3.92545 100.396 3.80484C105.921 3.6549 105.326 5.0963 104.755 2.16792C105.153 2.05224 105.576 1.92009 105.958 1.81447C105.847 3.33213 109.211 4.33852 113.424 4.68478C113.732 4.70955 115.801 3.22057 115.583 4.96534C116.119 4.53619 116.44 4.2411 116.896 3.86516C117.789 4.39035 118.696 4.91156 119.578 5.43895C120.057 5.36129 120.543 5.28699 121.023 5.21048C121.096 4.86928 121.042 4.51442 121.198 4.17983C123.432 4.13466 127.979 4.61061 129.739 4.59821C134.094 4.55753 138.535 3.73652 141.886 4.8165C143.528 4.75531 141.913 4.04448 144.357 4.19056C144.625 4.5368 144.877 4.86858 145.154 5.22544C147.177 3.7602 147.587 4.69368 150.296 5.08059C152.138 5.34342 153.352 5.00395 155.104 5.12033C155.549 5.15009 155.475 5.59343 155.78 5.58654C156.803 5.5665 159.714 5.0236 160.437 5.02321C166.939 5.01055 172.507 5.17988 178.672 5.39083C179.335 5.41221 178.478 4.96683 179.165 4.99032C180.269 5.02679 179.615 5.69751 180.256 5.73439C182.031 5.83125 182.047 5.12468 184.521 5.08632C184.527 5.08623 184.532 5.08614 184.538 5.08606C192.649 4.97198 202.022 5.22186 210.547 4.82395C210.812 4.81026 210.775 4.39467 211.063 4.37552C212.957 4.25622 214.899 4.71074 216.609 4.60244C219.475 4.42231 221.558 3.70066 224.387 3.51161C229.9 3.13929 234.835 3.07045 240.549 2.662C245.231 2.32923 249.262 1.97198 254.434 1.62783C276.775 0.400191 301.001 -2.99235 324.775 6.26878C325.365 6.51156 324.99 6.76436 325.177 6.81846C326.944 7.33434 327.302 6.96236 327.5 8.17275C328.443 8.48104 329.163 8.59964 329.876 8.72642C330.989 8.97078 332.083 9.22704 333.709 10.2589C335.176 11.2449 333.434 11.4787 336.153 12.6833C338.465 13.9322 337.081 11.3094 341.999 17.3957C342.121 17.5667 342.221 18.7798 343.32 19.8933C344.395 21.0384 343.81 19.2148 346.067 22.2614C351.315 29.545 353.847 39.855 355.581 48.7881C355.726 49.354 356.927 54.7374 357.203 55.7952C357.79 57.8308 358.298 57.343 358.683 60.0419C358.968 62.1168 358.471 63.8871 358.723 66.3104C358.751 66.5793 359.422 67.0554 359.408 68.8681ZM12.3645 91.7961C13.1069 92.076 15.4708 92.1985 15.6938 94.8132C15.7234 95.0769 13.7513 94.3648 14.0426 95.8318C13.3542 94.5396 12.8571 93.1945 12.3622 91.7968C12.363 91.7966 12.3637 91.7963 12.3645 91.7961ZM344.85 81.8517C344.969 79.6681 345.088 77.5177 345.178 75.3685C345.475 76.8529 345.758 78.3299 346.039 79.8188C345.643 80.4999 345.246 81.162 344.85 81.8517ZM131.039 15.2007C131.041 15.2007 131.043 15.2007 131.045 15.2008C128.767 15.4592 126.49 15.7257 124.21 16.0025C124.45 15.7853 124.692 15.5674 124.934 15.3504C126.735 15.0234 128.536 14.7034 130.335 14.3878C130.569 14.6587 130.804 14.9296 131.039 15.2007ZM149.121 13.2947C150.57 13.5931 150.203 14.0236 150.995 14.4726C150.995 14.4718 150.995 14.471 150.995 14.4702C151.203 14.5871 152.193 14.7102 152.572 14.7365C152.439 14.4577 152.265 14.1814 152.118 13.9044C155.532 13.3259 162.144 15.8563 153.491 16.5964C153.628 16.2521 153.76 15.9094 153.898 15.5652C149.609 15.5534 144.858 14.6752 149.121 13.2947ZM33.5853 114.129C37.246 114.617 38.3302 114.825 42.0573 117.178C41.3758 117.253 40.679 117.319 39.9848 117.382C39.4401 116.802 38.9347 116.236 38.3965 115.647C38.3946 115.646 38.3928 115.645 38.3909 115.645C38.1232 115.906 37.8543 116.167 37.5907 116.429C36.2404 115.692 34.8924 114.924 33.5853 114.129ZM288.921 10.0242C289.835 12.3369 289.609 10.988 286.717 11.4248C285.732 11.5808 286.679 11.9995 286.068 12.0527C282.766 12.3567 282.476 10.8532 283.239 10.0603C285.15 10.0194 287.044 10.0078 288.915 10.0239C288.917 10.024 288.919 10.0241 288.921 10.0242ZM346.862 57.3243C346.862 57.3263 346.863 57.3283 346.863 57.3304C346.322 57.4778 346.019 56.1737 345.671 57.7253C345.545 56.5949 345.403 55.4487 345.244 54.3177C345.343 54.6436 345.438 54.9771 345.534 55.3032C345.684 54.9841 345.834 54.6621 345.981 54.3396C345.292 54.0264 345.609 53.5983 345.631 52.3753C345.011 52.8105 344.388 53.2391 343.763 53.665C343.759 52.2745 343.729 50.8765 343.67 49.4884C343.835 49.4396 344 49.3901 344.166 49.341C343.852 48.8703 343.533 48.409 343.213 47.9484C343.384 47.7689 343.555 47.594 343.725 47.4128C343.442 46.8318 343.153 46.2554 342.856 45.6863C343.292 45.3867 343.833 46.6771 343.125 44.3301C343.803 44.9312 344.473 45.5503 345.139 46.1903C345.921 49.8559 346.472 53.5812 346.862 57.3243ZM262.688 11.204C266.85 10.8844 265.682 11.3123 264.787 12.4834C264.094 12.0552 263.39 11.6291 262.688 11.204ZM48.1367 23.3686C47.3612 24.5375 46.5738 25.7302 45.8355 26.9076C43.9039 28.3065 41.1814 28.2199 42.4947 26.8891C44.1303 25.2815 46.5137 24.9656 48.1367 23.3686ZM11.4292 61.5854C12.611 58.9186 12.6689 61.8052 13.0365 62.5225C12.0133 63.0357 11.8003 64.1121 11.3912 65.8116C11.6108 64.1991 11.2317 62.0341 11.4269 61.5847C11.4277 61.5849 11.4284 61.5852 11.4292 61.5854ZM95.2928 14.7766C96.4926 14.6787 97.6867 14.3979 98.7739 14.6045C98.4864 15.3524 96.3024 14.8026 97.898 15.806C97.1319 15.8655 96.3613 15.9277 95.6029 15.9951C96.059 15.5154 95.3878 15.2187 95.296 14.7789C95.2949 14.7781 95.2939 14.7774 95.2928 14.7766ZM222.152 14.8953C219.712 14.1814 219.282 14.5814 216.894 15.3278C216.507 14.6422 219.332 13.2859 221.102 12.9094C221.449 13.5715 221.798 14.2339 222.152 14.8953ZM294.791 119.722C294.493 120.729 290.361 121.794 288.299 121.939C288.512 121.758 288.724 121.575 288.935 121.392C290.893 120.86 292.892 120.294 294.791 119.722ZM11.195 66.6138C11.2662 66.3292 11.3307 66.0655 11.3912 65.8116C11.3499 66.0984 11.2899 66.3656 11.195 66.6138ZM95.6509 135.089C94.5929 135.88 97.5808 136.342 93.9529 135.793C93.9529 135.794 93.9528 135.795 93.9528 135.796C91.5738 135.42 91.032 135.319 88.8266 135.061C89.723 134.045 94.2148 134.032 88.08 133.277C87.9991 133.268 88.0989 133.932 87.1209 133.747C86.8162 133.688 85.91 133.063 84.4489 132.737C83.9769 132.633 80.43 132.041 85.2986 132.608C85.2379 131.835 85.5845 131.098 85.6537 130.362C87.5363 130.352 88.8553 131.976 90.863 132.101C93.8605 132.279 95.4499 130.843 95.9212 132.854C93.3661 133.215 89.038 132.872 88.5937 131.626C86.1787 131.382 85.3792 132.267 87.2879 132.95C95.7507 133.064 89.4852 134.654 96.946 134.329C97.0473 134.059 97.3657 133.778 97.3318 133.517C99.5473 134.59 96.0244 134.811 95.6509 135.089ZM78.269 131.181C79.7942 130.835 81.3 130.459 82.7945 130.064C82.6762 131.001 81.7759 131.758 79.4265 131.948C79.0418 131.694 78.6527 131.437 78.269 131.181ZM201.167 131.501C201.366 130.981 201.915 130.495 202.31 129.994C202.74 130.433 213.306 130.509 207.949 131.11C207.144 131.202 202.425 130.425 201.167 131.501ZM238.695 12.9434C237.42 12.6916 236.171 12.437 234.912 12.1831C236.786 11.8254 238.682 11.4584 240.559 11.0948C239.938 11.7108 239.32 12.3271 238.695 12.9434ZM30.5902 32.5771C31.0096 32.2775 30.0955 33.8777 31.6236 32.5605C30.6994 33.8319 29.8622 35.0051 29.0419 36.278C28.4943 36.3084 27.9439 36.3489 27.3957 36.3915C27.2881 36.7782 27.1778 37.1691 27.0737 37.5599C26.8901 37.0636 26.7053 36.5851 26.5298 36.0726C29.0697 35.198 28.7238 33.947 30.5902 32.5771ZM101.381 10.7809C101.879 11.8215 98.2433 12.6093 101.852 12.626C101.201 13.3509 100.114 13.7584 98.0241 13.9292C97.6747 13.6804 97.3235 13.4342 96.97 13.1869C96.9635 13.9025 96.4351 14.196 95.2928 14.7766C95.2917 14.7759 95.2906 14.7751 95.2895 14.7744C92.1181 15.0311 92.2917 14.794 91.4375 13.6789C94.8623 14.0897 94.8809 13.0243 97.1651 12.253C98.7273 11.7261 100.822 11.8321 101.381 10.7809ZM189.942 131.712C192.342 130.785 190.177 129.982 194.442 130.869C194.172 131.101 193.901 131.331 193.63 131.563C192.406 131.617 191.176 131.667 189.942 131.712ZM113.322 14.1255C113.035 12.4835 110.751 11.2341 110.408 13.9153C112.618 14.4259 111.519 12.927 113.322 14.1255ZM9.25524 59.8726C10.6933 55.8105 12.1923 57.3562 12.4888 59.1986C12.0856 59.3289 11.6823 59.4639 11.2839 59.5998C11.2049 60.3238 11.139 61.0646 11.0945 61.7872C10.4687 61.1723 9.85412 60.5331 9.25524 59.8726ZM188.197 13.4158C184.954 14.6167 191.711 14.034 189.448 14.7889C187.641 15.3968 185.227 14.22 186.134 13.4761C186.764 13.453 187.464 13.4345 188.191 13.4158C188.193 13.4158 188.195 13.4158 188.197 13.4158ZM169.371 13.6302C169.884 14.8924 169.117 14.5161 171.695 14.3298C172.425 14.2809 178.262 14.8154 175.819 13.7499C173.731 13.7279 171.536 13.6791 169.371 13.6302ZM18.4922 105.755C18.0863 106.226 14.4198 103.424 14.4149 102.698C14.4142 102.699 14.4135 102.699 14.4128 102.7C14.2811 101.007 16.9038 104.75 16.7273 102.482C18.4298 106.592 21.2859 105.732 18.7684 107.732C16.8581 105.891 18.2126 106.368 18.4922 105.755ZM343.607 97.8403C343.609 97.8387 343.61 97.8371 343.611 97.8355C343.434 98.0727 341.289 99.4237 341.262 99.006C343.238 96.9745 343.384 97.6564 344.07 94.9916C344.382 95.0158 344.677 95.0495 344.998 95.0572C344.61 96.0335 344.555 96.7565 343.607 97.8403ZM212.582 132.25C211.5 132.434 209.482 131.914 208.229 131.989C212.142 129.59 216.885 131.511 212.582 132.25ZM332.18 21.2421C332.177 21.2408 332.174 21.2395 332.172 21.2381C332.173 21.2378 332.175 21.2377 332.176 21.2373C332.178 21.2389 332.179 21.2405 332.18 21.2421ZM127.627 132.65C127.771 132.794 127.855 132.92 127.886 133.032C127.886 133.042 127.887 133.053 127.887 133.064C127.807 132.927 127.722 132.79 127.627 132.65ZM25.2918 111.483C26.3831 113.184 20.5993 110.633 19.3903 108.885C19.7318 108.73 19.9652 108.519 20.4707 108.444C21.0089 110.252 25.13 111.261 25.2918 111.483ZM74.3791 15.6414C69.5459 16.4194 75.3632 12.4038 75.9969 14.7547C75.9922 14.8008 74.5008 15.6159 74.3791 15.6414ZM9.25768 79.3401C8.27728 78.1533 8.15654 80.6433 8.11906 76.667C8.34532 76.4227 8.57292 76.1788 8.80072 75.9347C8.93545 77.1072 9.08441 78.1778 9.25768 79.3401ZM42.289 21.1505C36.7156 24.4221 32.3649 28.5832 37.0616 28.5092C37.41 28.1976 37.7709 27.8865 38.1306 27.5779C37.5595 26.4964 39.3746 26.1674 41.6059 25.0381C41.6909 24.4401 42.895 23.7006 42.9551 23.2132C43.0703 22.2646 41.3311 22.5001 42.289 21.1505ZM302.938 8.37414C302.81 8.56808 302.685 8.76359 302.559 8.95585C301.566 9.06437 300.571 9.1837 299.573 9.31525C299.773 8.93294 299.974 8.55113 300.176 8.1697C301.102 8.22777 302.007 8.29307 302.931 8.3721C302.933 8.37278 302.935 8.37346 302.938 8.37414ZM71.8734 132.638C72.8826 130.485 70.9038 130.571 66.7432 130.725C68.4323 131.4 70.1445 132.037 71.8734 132.638ZM141.283 10.0887C141.395 10.7454 141.506 11.4 141.624 12.0568C143.753 11.428 143.381 10.6702 142.388 9.78006C142.017 9.88258 141.653 9.98606 141.283 10.0887ZM171.736 10.5082C170.86 10.3587 171.3 10.8931 171.208 10.8811C168.991 10.5688 168.692 10.322 165.958 10.6672C165.622 10.7993 165.292 10.9386 164.956 11.0746C166.181 12.469 167.125 11.7423 169.766 12.5918C169.294 12.114 168.825 11.6354 168.355 11.1551C169.826 11.2805 171.307 11.4021 172.785 11.5217C172.962 11.3792 173.139 11.2381 173.316 11.0955C172.793 10.9024 172.257 10.6855 171.736 10.5082ZM313.97 11.0652C315.363 11.4735 316.723 11.9132 318.09 12.3957C318.241 12.0894 318.391 11.7804 318.543 11.4746C317.007 11.2896 315.496 11.1593 313.97 11.0652ZM101.514 134.773C101.632 134.658 101.748 134.541 101.851 134.421C101.836 134.57 101.708 134.683 101.514 134.773ZM347.226 95.6442C348.28 94.2723 349.124 91.9466 349.686 90.1612C348.914 90.0961 347.465 94.5191 346.104 95.6037C346.105 95.8993 346.79 96.2157 347.226 95.6442ZM11.4197 54.3792C11.203 53.8313 11.0022 53.2658 10.7979 52.7146C11.2737 51.8248 11.7924 50.9209 12.3183 50.0588C12.0298 49.866 11.7387 49.6719 11.4508 49.4781C9.71266 53.7355 9.36144 52.3683 7.50965 54.1043C8.81951 54.1652 10.1206 54.2613 11.4197 54.3792ZM347.45 40.0926C346.28 37.0214 345.44 36.1343 345.055 38.1676C345.638 39.1598 346.2 40.1806 346.738 41.2086C346.977 40.8378 347.214 40.4637 347.45 40.0926ZM159.27 134.567C161.904 134.121 161.974 135.511 164.558 134.687C163.165 134.454 161.762 134.223 160.385 133.996C160.017 134.186 159.644 134.377 159.27 134.567ZM29.7186 121.525C30.6081 122.5 33.4964 121.336 35.8181 124.156C36.7199 123.985 37.3499 123.721 38.1511 123.511C38.3091 124.159 38.4992 124.826 38.638 125.459C38.64 125.46 38.642 125.46 38.6439 125.461C41.4254 126.368 39.9122 125.039 40.184 124.531C40.3051 124.326 42.154 125.471 41.7186 124.747C40.9628 123.516 36.7538 122.358 37.1734 121.347C38.4306 122.265 41.2903 123.078 40.7435 122.084C40.1583 121.003 37.0983 121.196 35.7122 119.867C37.3724 122.476 32.7111 119.862 32.7689 118.386C29.5371 117.946 31.9 119.617 34.8452 120.858C32.6713 121.008 35.4823 121.655 35.6025 122.619C33.5462 122.37 27.3619 118.841 29.7186 121.525ZM67.2468 12.4869C67.0756 12.5263 66.8958 12.5633 66.7092 12.5987C64.5687 12.9967 61.5943 13.2709 60.469 14.389C59.7689 15.0857 63.1147 14.6273 61.0727 15.9623C63.0629 15.3713 63.474 14.976 62.9637 14.3852C63.4034 14.1952 63.8511 14.0085 64.298 13.8252C64.5423 13.908 64.7918 13.9885 65.0359 14.0726C65.2197 13.7421 65.4081 13.4137 65.5913 13.085C65.9856 13.0451 66.385 13.0064 66.7842 12.9706C66.9018 12.9604 67.0193 12.9504 67.1365 12.9407C67.1668 12.7892 67.242 12.6478 67.2468 12.4869ZM235.479 132.438C234.893 132.488 234.312 132.537 233.722 132.588C233.799 132.751 233.888 132.92 233.975 133.087C234.037 133.219 234.1 133.352 234.163 133.484C233.784 133.023 230.926 132.403 229.804 132.992C229.23 133.288 230.633 134.132 228.138 134.445C229.964 134.288 231.579 134.059 233.382 133.858C233.24 134.143 233.105 134.431 232.963 134.717C232.965 134.717 232.966 134.717 232.967 134.718C233.564 134.74 234.168 134.764 234.762 134.784C235.004 134.002 235.24 133.221 235.479 132.438ZM139.593 8.75528C137.578 9.2485 136.909 9.51511 137.829 10.4093C137.831 10.4097 137.834 10.4102 137.836 10.4106C138.587 10.0405 139.341 9.67113 140.097 9.30199C139.93 9.11998 139.765 8.93738 139.593 8.75528ZM118.777 137.761C122.985 134.386 113.426 136.541 115.257 137.645C115.334 137.698 118.384 137.402 118.777 137.761ZM8.04744 60.3438C8.3625 59.1701 8.71622 58.0361 9.11599 56.893C8.63758 57.0074 8.15757 57.1367 7.67689 57.2712C7.76427 58.3164 7.89432 59.3258 8.04744 60.3438ZM343.153 26.1472C343.293 24.5351 341.505 21.3519 339.597 20.6833C340.087 21.4485 340.549 22.2327 340.974 23.0152C339.897 21.7259 338.738 20.5188 337.484 19.365C336.496 20.1838 338.422 21.0306 339.845 23.5525C340.099 23.9563 340.302 27.0802 341.775 27.2949C342.101 27.3363 340.663 24.7101 342.366 26.105C341.934 25.2918 341.491 24.6362 341.014 23.8978C341.225 23.6727 341.436 23.4468 341.642 23.2143C342.193 24.1858 342.688 25.1547 343.153 26.1472ZM55.0523 15.7059C52.1657 16.569 52.036 17.1914 51.7444 18.2421C53.0027 17.6769 54.2473 17.1483 55.5465 16.6297C55.3797 16.3231 55.2208 16.014 55.0523 15.7059ZM321.153 9.02568C319.617 8.35908 320.068 9.28026 319.391 9.20792C316.832 8.95489 315.329 8.01361 312.853 7.77004C313.043 7.66953 313.219 7.57552 313.404 7.47874C313.402 7.47825 313.4 7.47775 313.397 7.47726C302.044 4.5824 307.819 7.22667 314.615 8.56802C314.708 8.87109 314.792 9.17293 314.881 9.47405C317.981 9.7769 320.869 10.2938 321.153 9.02568ZM80.6227 136.113C80.7314 136.298 79.4666 137.218 81.6315 136.999C83.4809 135.65 80.6772 136.078 80.0858 135.376C80.6677 135.306 81.2634 135.239 81.8369 135.162C78.5491 134.27 78.0174 134.535 79.0626 135.865C79.1385 135.956 80.5146 135.929 80.6227 136.113ZM102.761 138.585C103.28 136.284 99.0174 137.188 99.1407 137.907C99.7252 137.959 100.193 137.583 100.808 137.778C101.431 137.972 101.574 138.521 102.761 138.585ZM4.5264 80.5133C4.52343 80.6416 3.66032 81.9975 4.41088 81.8021C6.0545 80.0899 4.73839 77.0159 4.13952 77.5924C4.22078 78.6299 4.53206 79.3211 4.52397 80.5135C4.52478 80.5135 4.52559 80.5134 4.5264 80.5133ZM350.819 44.9257C350.883 44.8554 350.495 41.6001 350.017 41.2907C349.531 41.0628 349.062 41.015 348.585 40.8825C349.463 42.4794 349.959 46.0371 350.817 44.9193C350.818 44.9214 350.818 44.9235 350.819 44.9257Z" fill="#F27EB1"/>
</svg>
