<svg width="160" height="160" viewBox="0 0 160 160" fill="none" xmlns="http://www.w3.org/2000/svg">
<g opacity="0.2">
<path d="M49.5693 144.2C72.5747 144.2 91.2243 141.663 91.2243 138.534C91.2243 135.404 72.5747 132.867 49.5693 132.867C26.5639 132.867 7.91431 135.404 7.91431 138.534C7.91431 141.663 26.5639 144.2 49.5693 144.2Z" fill="#1E1E1E"/>
</g>
<path d="M86.1809 112.429C79.6228 110.353 75.1026 119.731 85.1985 123.585L84.18 121.75C84.18 121.75 86.0901 121.592 91.2299 124.267C91.2299 124.267 91.4921 119.18 89.2894 117.449L90.7448 117.03C90.7448 117.03 90.61 116.672 90.3714 116.17C89.5338 114.41 88.0394 113.018 86.1809 112.429Z" fill="#B1411E"/>
<path d="M91.2298 125.006C91.1136 125.006 90.9972 124.978 90.8909 124.923C88.3292 123.59 86.6036 122.986 85.5513 122.712L85.8404 123.233C85.9902 123.503 85.9552 123.838 85.753 124.071C85.5509 124.304 85.2251 124.386 84.9364 124.276C79.3007 122.124 77.8216 118.17 78.8556 115.206C79.7484 112.647 82.6966 110.56 86.4025 111.734C88.3996 112.366 90.0876 113.869 91.0343 115.859C91.2834 116.382 91.4259 116.759 91.4318 116.775C91.5041 116.967 91.4929 117.18 91.401 117.363C91.3092 117.546 91.1451 117.683 90.9482 117.739L90.6115 117.836C92.1549 120.163 91.973 124.116 91.9631 124.309C91.9504 124.559 91.8115 124.785 91.5945 124.909C91.4818 124.973 91.3558 125.006 91.2298 125.006ZM84.2482 121.018C84.7528 121.018 86.5944 121.176 90.4935 123.078C90.4206 121.427 90.0499 118.985 88.8355 118.031C88.6189 117.861 88.5158 117.583 88.5685 117.313C88.6212 117.043 88.821 116.824 89.0857 116.748L89.741 116.559C89.7302 116.536 89.7193 116.513 89.7082 116.49C88.9359 114.867 87.5695 113.643 85.9591 113.134C83.1376 112.24 80.9074 113.783 80.2421 115.69C79.6109 117.499 80.1853 120.062 83.4782 121.971C83.421 121.785 83.4388 121.583 83.5324 121.408C83.6499 121.188 83.8711 121.043 84.1195 121.022C84.1421 121.02 84.1845 121.018 84.2482 121.018Z" fill="#1E1E1E"/>
<path d="M35.4431 75.5913L28.2139 88.1785C28.2139 88.1785 18.4063 82.7869 12.6938 73.8542C12.5491 73.6318 12.4106 73.4074 12.2721 73.1787C9.36663 68.3704 9.03515 65.0243 9.66239 62.7082C9.66451 62.7062 9.66451 62.7061 9.66451 62.7061C10.2561 60.5265 11.6994 59.2593 12.6477 58.5419C14.605 57.0607 19.5706 57.9691 21.5972 60.4866C22.1468 61.1705 23.0007 62.1334 23.9531 63.1761C26.5083 65.9725 29.7684 69.3312 29.7684 69.3312L33.6893 73.657L35.4431 75.5913Z" fill="#FEB845"/>
<path d="M69.22 114.4C69.22 114.4 70.3738 116.498 73.3458 115.099C76.3178 113.7 79.6743 113.456 81.8421 114.819C84.0099 116.183 83.3456 117.074 82.5239 117.529C81.7022 117.984 81.1778 116.463 78.8526 116.27C76.5275 116.078 73.2409 119.513 70.0416 118.464" fill="#FEB845"/>
<path d="M71.3256 119.405C70.8274 119.405 70.3225 119.334 69.8125 119.167C69.4272 119.041 69.2172 118.626 69.3436 118.24C69.4699 117.855 69.8854 117.645 70.2699 117.771C71.8563 118.291 73.5604 117.468 75.2082 116.673C76.5133 116.042 77.7436 115.449 78.9127 115.543C80.3535 115.662 81.21 116.235 81.7768 116.615C81.9172 116.709 82.1031 116.833 82.1994 116.873C82.466 116.719 82.5678 116.58 82.5693 116.526C82.5693 116.522 82.5668 116.148 81.4506 115.445C79.6027 114.283 76.5437 114.41 73.658 115.768C70.8139 117.106 69.0901 115.693 68.5762 114.758C68.3807 114.403 68.5103 113.956 68.8656 113.761C69.2183 113.567 69.6613 113.693 69.8588 114.043C69.9515 114.2 70.7982 115.491 73.0326 114.439C76.4119 112.849 79.9369 112.758 82.2326 114.202C83.4697 114.981 84.0601 115.754 84.0373 116.567C84.0246 117.016 83.8133 117.659 82.8789 118.176C82.1076 118.603 81.4715 118.177 80.9601 117.835C80.467 117.505 79.8533 117.094 78.7916 117.007C78.0257 116.943 76.9666 117.454 75.8471 117.995C74.4582 118.666 72.9277 119.405 71.3256 119.405Z" fill="#1E1E1E"/>
<path d="M15.1546 73.9423C14.4015 73.9758 13.5812 73.9486 12.6938 73.8542C12.5491 73.6318 12.4106 73.4073 12.2722 73.1787C10.1428 69.6543 9.396 66.9165 9.396 64.7914C9.396 64.6823 9.39808 64.5753 9.40228 64.4704C9.4044 64.3823 9.40856 64.2963 9.41696 64.2103C9.41904 64.1557 9.42324 64.0991 9.42956 64.0466C9.43164 63.9984 9.43584 63.9523 9.44216 63.9061C9.44424 63.8705 9.44844 63.8369 9.45264 63.8033C9.46312 63.7194 9.4736 63.6376 9.4862 63.5579C9.50088 63.4613 9.51556 63.3648 9.53448 63.2725C9.54916 63.1928 9.56592 63.1131 9.58272 63.0376C9.6058 62.9243 9.63308 62.8152 9.66244 62.7082C9.66456 62.7061 9.66456 62.7061 9.66456 62.7061C10.2562 60.5265 11.6995 59.2593 12.6477 58.5418C14.605 57.0608 19.5707 57.9691 21.5972 60.4866C22.1469 61.1705 23.0007 62.1334 23.9532 63.176C23.9552 63.2138 23.9574 63.2327 23.9574 63.2327C23.9574 63.2327 24.916 73.5227 15.1546 73.9423Z" fill="#F1F2F2"/>
<path d="M35.4432 75.5905L28.2139 88.1777C28.2139 88.1777 18.4064 82.7862 12.6938 73.8534C13.5812 73.9478 14.4015 73.9751 15.1546 73.9416C21.1189 81.6512 29.3299 83.4281 33.0348 74.6821L33.6893 73.6562L35.4432 75.5905Z" fill="#F48D40"/>
<path d="M97.2085 96.3641C94.9491 101.386 88.8423 100.109 84.2311 99.7165C84.0255 99.6976 83.8241 99.6808 83.6249 99.6682C78.9571 99.3536 69.674 98.3571 69.674 98.3571C69.674 98.3571 70.0936 105.542 68.7824 109.895C68.7824 109.895 68.7657 111.819 69.4999 113.776C70.2341 115.734 71.0377 118.287 70.6181 120.018C70.6181 120.018 70.6768 119.959 70.7838 119.879L70.7858 119.877C71.2662 119.523 72.7243 118.784 74.3942 121.224C76.4396 124.213 77.6459 133.654 74.4466 137.01C71.2474 140.367 63.7475 139.738 64.1146 132.867C64.1146 132.867 63.544 132.978 62.5895 132.974C59.3168 132.959 51.5358 131.592 46.7715 119.791C46.7715 119.791 45.5086 119.671 43.6163 119.241C42.1437 120.288 39.5905 122.26 38.5731 124.004C37.7969 125.336 36.8864 127.74 35.6025 130.144V130.146C34.4613 132.286 33.0263 134.422 31.1257 135.804C29.8543 136.729 28.2789 137.029 26.6236 136.905C24.6139 136.756 22.4845 135.98 20.6258 134.938C19.151 134.111 17.8503 133.117 16.9126 132.133C15.3392 130.48 13.9147 127.538 14.1853 125.176V125.174C14.4455 122.894 16.2895 121.155 21.1083 121.643C21.0894 121.325 21.0727 121.006 21.0621 120.687C20.802 113.867 22.3439 107.204 25.304 100.665C25.304 100.665 25.9711 87.1712 33.9892 79.1176C34.1654 78.9371 34.3479 78.763 34.5325 78.5889C43.0645 70.6128 81.1073 84.616 81.1073 84.616C81.1073 84.616 83.9415 84.6014 87.0464 84.679C87.0464 84.679 87.0464 84.679 87.0485 84.679C87.854 84.6999 88.6764 84.7251 89.4736 84.7608C91.2526 84.8384 92.8994 84.958 93.9169 85.1405C95.8721 85.4887 97.5273 87.5971 98.0098 90.3684C98.3288 92.1851 98.1442 94.2872 97.2085 96.3641Z" fill="#FEB845"/>
<path d="M65.7805 131.212C64.8847 131.879 63.8316 132.479 62.5938 132.97C62.5917 132.97 62.5917 132.972 62.5896 132.972C59.3169 132.958 51.5359 131.59 46.7717 119.789C46.7717 119.789 45.5088 119.67 43.6165 119.24C42.1438 120.287 39.5907 122.259 38.5732 124.002C37.797 125.334 36.8865 127.738 35.6026 130.142C34.9208 128.739 34.046 127.539 33.0642 126.513C33.3537 125.632 33.6327 124.612 33.9054 123.425C35.3047 117.341 36.8382 116.913 36.8382 116.913C28.795 112.707 29.2901 108.32 29.2901 108.32C37.7319 115.602 47.808 118.927 60.3386 116.294L56.1533 118.669C56.1533 118.669 52.9268 121.258 55.8638 125.172C58.0687 128.112 63.3029 130.302 65.7805 131.212Z" fill="#F48D40"/>
<path d="M83.625 99.6728C78.9573 99.3582 69.6742 98.3617 69.6742 98.3617C69.6742 98.3617 70.0938 105.547 68.7826 109.9C68.7826 109.9 68.7658 111.824 69.5001 113.781C70.2343 115.738 71.0378 118.291 70.6182 120.022C70.6182 120.022 70.677 119.963 70.784 119.884C70.784 119.884 70.9497 121.57 70.4588 123.79C68.5812 122.577 66.5631 121.81 66.2379 118.675C65.7763 114.199 64.1064 110.215 64.1064 110.215C64.1064 110.215 66.842 103.921 65.3043 99.4463C63.7645 94.9694 66.4225 94.6653 66.4225 94.6653C66.4225 94.6653 74.5076 94.2709 82.6474 94.7974C82.7942 96.3079 83.2726 97.9547 84.2313 99.7211C84.0257 99.7022 83.8244 99.6854 83.625 99.6728Z" fill="#F48D40"/>
<path d="M98.1551 92.0327C98.1551 93.0922 97.9894 94.2103 97.6118 95.3348C97.5593 95.4942 97.5006 95.6558 97.4397 95.8152C97.3684 95.9977 97.2908 96.1823 97.209 96.3648C94.9496 101.387 88.8427 100.109 84.2316 99.7172C83.2729 97.9508 82.7946 96.304 82.6477 94.7935C82.4799 93.0942 82.7316 91.5691 83.1847 90.2495C84.3952 86.7314 87.0469 84.6797 87.0469 84.6797C87.0469 84.6797 87.0469 84.6797 87.049 84.6797C87.2504 84.6839 87.4518 84.6902 87.6553 84.6965C87.8587 84.7028 88.0623 84.7091 88.2657 84.7154C88.6706 84.728 89.0755 84.7426 89.4741 84.7615C91.2531 84.8392 92.8999 84.9587 93.9174 85.1412C95.8726 85.4895 97.5278 87.5978 98.0103 90.3691L98.0418 90.5642C98.0439 90.5684 98.0439 90.5747 98.046 90.581C98.0544 90.646 98.0649 90.7111 98.0733 90.7761C98.0817 90.8453 98.0901 90.9145 98.0984 90.9859C98.1047 91.053 98.111 91.1222 98.1173 91.1915C98.1257 91.2607 98.1299 91.332 98.1341 91.4013C98.1362 91.4264 98.1362 91.4495 98.1383 91.4726C98.1425 91.5502 98.1467 91.6278 98.1487 91.7076C98.1531 91.8146 98.1551 91.9236 98.1551 92.0327Z" fill="#F1F2F2"/>
<path d="M35.6025 130.145V130.147C34.4613 132.287 33.0263 134.422 31.1257 135.805C29.8543 136.73 28.2789 137.03 26.6236 136.906C24.6139 136.757 22.4845 135.981 20.6258 134.938C19.151 134.112 17.8503 133.117 16.9126 132.133C15.3392 130.48 13.9147 127.541 14.1853 125.179V125.177C14.4455 122.894 16.2874 121.155 21.1083 121.644C21.0894 121.325 21.0727 121.006 21.0621 120.688C21.0936 120.696 21.1083 120.7 21.1083 120.7C21.1083 120.7 28.3291 121.573 33.0641 126.515C34.0459 127.541 34.9207 128.741 35.6025 130.145Z" fill="#F1F2F2"/>
<path d="M74.4468 137.005C71.2475 140.362 63.7476 139.732 64.1148 132.862C64.1148 132.862 63.5442 132.973 62.5896 132.969C62.5917 132.969 62.5917 132.967 62.5938 132.967C63.8316 132.476 64.8846 131.876 65.7805 131.209C68.7007 129.029 69.9426 126.111 70.4587 123.78C70.9496 121.561 70.7839 119.874 70.7839 119.874L70.786 119.872C71.2664 119.517 72.7244 118.779 74.3943 121.219C76.4397 124.208 77.646 133.649 74.4468 137.005Z" fill="#F1F2F2"/>
<path d="M26.624 136.909C24.6143 136.761 22.4849 135.984 20.6262 134.942C20.0682 133.584 20.2528 132.126 21.2136 131.275C22.508 130.131 24.7171 130.517 26.1499 132.137C27.4904 133.654 27.6729 135.716 26.624 136.909Z" fill="#FF8080"/>
<path d="M21.8267 127.698C22.4275 127.098 22.3887 126.085 21.7402 125.436C21.0916 124.788 20.0788 124.749 19.478 125.35C18.8772 125.95 18.9159 126.963 19.5645 127.612C20.2131 128.26 21.2259 128.299 21.8267 127.698Z" fill="#FF8080"/>
<path d="M18.1968 130.598C18.7976 129.998 18.5854 128.811 17.7228 127.949C16.8603 127.086 15.674 126.874 15.0732 127.475C14.4724 128.075 14.6846 129.262 15.5472 130.124C16.4097 130.987 17.596 131.199 18.1968 130.598Z" fill="#FF8080"/>
<path d="M28.2137 88.9153C28.094 88.9153 27.9729 88.886 27.8606 88.8243C27.4329 88.5892 17.3176 82.9571 11.6428 73.5608C7.46844 66.6489 7.65728 61.3997 12.2042 57.9589C14.5653 56.1723 19.9672 57.2941 22.17 60.0285C24.1534 62.4907 30.2352 68.7588 30.2964 68.8218C30.3022 68.8278 30.3081 68.834 30.3136 68.8402L35.988 75.1008C36.2604 75.4012 36.2376 75.8656 35.9372 76.1379C35.6368 76.4103 35.1725 76.3877 34.9 76.087L29.234 69.8358C28.8776 69.4686 23.0329 63.4408 21.0262 60.9499C19.2106 58.6959 14.6776 57.9291 13.0905 59.13C11.6565 60.2151 7.29268 63.5174 12.8999 72.8017C18.3727 81.8634 28.4667 87.4818 28.568 87.5375C28.9233 87.733 29.0532 88.1793 28.8577 88.5348C28.7241 88.7778 28.4729 88.9153 28.2137 88.9153Z" fill="#1E1E1E"/>
<path d="M64.1064 102.587C63.3302 108.671 56.7722 113.844 50.0591 114.054C43.3459 114.264 34.4656 111.818 30.7587 103.007C27.314 94.821 33.8929 82.5883 34.8432 80.8954C34.9145 80.7653 34.9544 80.6982 34.9544 80.6982C34.9544 80.6982 35.2334 78.4618 35.5838 77.9709C35.9341 77.4821 39.0096 77.2031 39.4292 77.2031C39.8487 77.2031 49.1507 78.4618 52.0164 79.3702C54.8842 80.2786 63.8924 88.6008 63.8924 88.6008C63.8924 88.6008 64.1462 90.6169 64.2952 93.3945C64.442 96.1174 64.4924 99.5748 64.1064 102.587Z" fill="#F1F2F2"/>
<path d="M87.0465 84.679C87.0465 84.679 84.3947 86.7308 83.1843 90.2489C81.9759 90.9013 80.5997 91.4866 79.0347 91.9691V88.8223C79.0347 88.8223 73.4187 93.6432 64.2951 93.3957C64.1461 90.6181 63.8923 88.602 63.8923 88.602C63.8923 88.602 54.8841 80.2798 52.0163 79.3714C49.1506 78.463 39.8486 77.2043 39.4291 77.2043C39.0095 77.2043 35.934 77.4833 35.5837 77.9721C35.2333 78.463 34.9543 80.6994 34.9543 80.6994C34.9543 80.6994 34.9145 80.7665 34.8431 80.8966C34.5431 80.3406 34.2578 79.7469 33.9893 79.1176C34.1655 78.9372 34.348 78.763 34.5326 78.5889C43.0646 70.6128 81.1074 84.6161 81.1074 84.6161C81.1074 84.6161 83.9416 84.6014 87.0465 84.679Z" fill="#F48D40"/>
<path d="M69.5904 139.717C68.6489 139.717 67.7183 139.543 66.8741 139.179C64.7255 138.251 63.479 136.276 63.3751 133.687C62.22 133.759 60.0427 133.708 57.4892 132.731C54.1556 131.457 49.5275 128.294 46.2568 120.469C45.7652 120.405 44.895 120.273 43.7777 120.03C42.3507 121.062 40.1023 122.841 39.2074 124.374C38.848 124.99 38.448 125.871 37.9849 126.892C36.6038 129.936 34.7122 134.104 31.5577 136.398C30.2239 137.369 28.546 137.786 26.569 137.638C24.615 137.493 22.3767 136.762 20.2667 135.578C18.7652 134.737 17.3851 133.693 16.3814 132.639C14.5316 130.696 12.4648 126.455 13.9013 123.523C14.5702 122.158 16.2314 120.634 20.3323 120.848C20.0618 114.2 21.489 107.355 24.579 100.487C24.6788 98.8919 25.7421 85.8019 34.0314 78.0527C37.7606 74.5665 46.8978 74.5143 61.1888 77.8972C71.0345 80.2279 80.0708 83.4595 81.2355 83.8815C82.4489 83.8755 90.9487 83.8661 94.0458 84.4179C95.5452 84.6849 96.9218 85.8163 97.8224 87.5218C99.2324 90.1919 99.2532 93.6103 97.8782 96.6657C95.6495 101.618 90.1462 101.052 85.7241 100.598C84.9675 100.52 84.2526 100.447 83.5755 100.401C79.7737 100.145 72.8487 99.43 70.4442 99.1773C70.5118 101.223 70.5602 106.428 69.5181 109.998C69.5274 110.394 69.6022 111.959 70.1876 113.519C70.7501 115.018 71.4237 117.043 71.4637 118.797C71.6712 118.759 71.8991 118.744 72.1438 118.765C73.1712 118.853 74.1321 119.541 75.0003 120.809C77.1317 123.925 78.4911 133.831 74.9782 137.517C73.6286 138.933 71.5866 139.717 69.5904 139.717ZM64.113 132.133C64.2897 132.133 64.4624 132.197 64.5974 132.315C64.7671 132.464 64.86 132.681 64.8479 132.907C64.72 135.301 65.6462 137.049 67.4559 137.83C69.52 138.721 72.3571 138.139 73.9153 136.504C76.8268 133.449 75.6659 124.383 73.7881 121.639C73.1957 120.773 72.5897 120.285 72.0354 120.23C71.5177 120.178 71.1528 120.522 71.1378 120.536C70.9073 120.774 70.5497 120.824 70.2599 120.664C69.97 120.504 69.8267 120.167 69.9046 119.845C70.3315 118.084 69.1884 115.036 68.8126 114.034C68.0391 111.973 68.0475 109.973 68.0483 109.889C68.0489 109.82 68.0595 109.75 68.0794 109.684C69.3374 105.508 68.9452 98.4706 68.9411 98.4001C68.9286 98.1847 69.0114 97.9745 69.1677 97.8257C69.3239 97.6769 69.5364 97.6044 69.7524 97.6273C69.8452 97.6372 79.0745 98.6259 83.6743 98.9359C84.3772 98.9833 85.1044 99.0579 85.8743 99.1372C90.2354 99.5855 94.7452 100.049 96.5392 96.063C97.9411 92.9476 97.4505 89.9624 96.5237 88.2075C95.836 86.905 94.8389 86.0507 93.7883 85.8636C90.6512 85.3048 81.2051 85.3507 81.1116 85.3505C81.0286 85.3527 80.9364 85.3359 80.8538 85.3054C80.7591 85.2704 71.2528 81.7876 60.8381 79.3233C47.2569 76.1095 38.3335 76.0409 35.034 79.1254C26.8143 86.8095 26.0444 100.563 26.0376 100.701C26.0331 100.793 26.011 100.884 25.9731 100.968C22.7678 108.046 21.4165 114.794 21.8413 121.598C21.8548 121.813 21.7729 122.023 21.6174 122.173C21.462 122.322 21.2491 122.395 21.0342 122.374C18.8895 122.157 16.1407 122.291 15.22 124.17C14.2294 126.191 15.5706 129.657 17.4446 131.627C18.3499 132.577 19.6073 133.525 20.9848 134.297C22.9114 135.378 24.9333 136.044 26.678 136.173C28.2973 136.294 29.6493 135.971 30.6938 135.211C33.535 133.144 35.3341 129.18 36.6476 126.285C37.1274 125.228 37.5417 124.315 37.939 123.634C38.9755 121.858 41.3673 119.94 43.1911 118.643C43.3616 118.522 43.5755 118.479 43.7792 118.526C45.5954 118.938 46.829 119.059 46.8413 119.06C47.1142 119.086 47.3501 119.262 47.4526 119.516C49.8759 125.518 53.5007 129.602 57.9347 131.329C61.2788 132.631 63.9507 132.151 63.9771 132.146C64.0224 132.138 64.0679 132.133 64.113 132.133Z" fill="#1E1E1E"/>
<path d="M30.062 111.805C31.8351 113.75 34.0464 115.205 36.3943 116.281C38.7481 117.358 41.2504 118.073 43.7787 118.53L43.7823 118.53C44.1819 118.603 44.4472 118.985 44.375 119.385C44.3027 119.784 43.9203 120.049 43.5208 119.977C43.4985 119.973 43.4754 119.968 43.454 119.962C40.8744 119.242 38.3681 118.264 36.0574 116.934C33.7537 115.607 31.6445 113.907 30.062 111.805Z" fill="#1E1E1E"/>
<path d="M79.2191 30.0289C87.2588 31.0981 93.9545 32.4982 90.6175 36.3687C90.6175 36.3687 98.03 43.0259 98.03 50.6761C98.03 58.3264 99.56 69.515 91.6972 80.0043L89.8133 77.5918C89.8133 77.5918 88.2399 86.228 77.1213 89.6545V86.5077C77.1213 86.5077 69.6249 92.9412 57.8838 90.5636L59.3593 88.0462C53.8873 90.7034 48.3991 91.3165 45.9329 93.6405C43.1358 88.2385 37.2123 83.1743 37.2617 78.4834L34.9016 81.4204C32.1917 78.5174 30.4631 73.1202 29.1849 66.578H26.5626C25.0794 62.2147 25.7805 56.6222 28.7129 49.774L26.2479 48.7914C26.2479 48.7914 27.7689 39.6854 35.2163 35.2211L32.5701 33.6939C32.5701 33.6939 35.8981 27.822 45.5483 25.7492C55.1985 23.6766 60.2397 22.9948 60.2397 22.9948C60.2397 22.9948 57.2964 19.4032 61.5446 19.2584C65.7928 19.1137 70.1983 20.8444 73.2402 23.3619L73.7811 22.1093C74.0068 21.5866 74.6964 21.4753 75.0774 21.8984C76.2313 23.18 78.2707 25.9113 79.2191 30.0289Z" fill="#B1411E"/>
<path d="M85.492 51.6025C83.1917 45.4218 76.3914 42.0932 67.6645 44.5062C66.5181 34.3868 57.4707 31.6972 50.4682 36.3965C49.9944 36.7144 49.5638 37.0917 49.1659 37.5007C47.8676 38.8354 44.4532 42.2913 41.7907 44.5062C38.4341 47.2985 31.3014 55.5501 36.4761 65.55C41.6509 75.5498 53.3989 80.9343 63.7484 82.6127C74.0979 84.291 79.2727 79.2923 81.3705 74.5889C83.2637 70.3445 83.4484 66.1149 85.522 60.0367C86.4559 57.2992 86.5009 54.3133 85.492 51.6025Z" fill="#993419"/>
<path d="M91.6974 79.998L89.8135 77.5854C89.8135 77.5854 88.2401 86.2223 77.1215 89.6482V86.5014C77.1215 86.5014 69.6258 92.9355 57.884 90.5565L59.3588 88.0391C53.8875 90.6971 48.3995 91.3097 45.9324 93.6341C43.136 88.2321 37.2116 83.1678 37.2619 78.477L34.9018 81.414C32.7641 79.1252 31.2389 75.2883 30.062 70.5597C30.1753 70.4149 30.2844 70.2701 30.3893 70.1254C31.4424 73.7673 32.7725 76.719 34.5326 78.5861L36.7983 75.7959C36.75 80.2518 42.4331 85.0601 45.1184 90.1915C47.4848 87.9846 52.7505 87.4013 57.9993 84.8776L56.5854 87.2692C67.8509 89.5265 75.0424 83.4175 75.0424 83.4175V86.4049C85.7101 83.1511 87.2205 74.9505 87.2205 74.9505L89.0289 77.2414C96.5728 67.2807 95.1043 56.655 95.1043 49.3901C95.1043 42.1251 87.9926 35.8021 87.9926 35.8021C91.1939 32.1267 84.7703 30.7966 77.0564 29.7813C76.2655 26.3869 74.6879 23.9849 73.5592 22.6149L73.7816 22.1031C74.0061 21.5807 74.6963 21.4695 75.0781 21.8912C76.2319 23.173 78.2711 25.9044 79.2193 30.0225C87.2583 31.0925 93.9547 32.4917 90.617 36.3623C90.617 36.3623 98.0309 43.0188 98.0309 50.6697C98.0309 58.3207 99.5602 69.5086 91.6974 79.998Z" fill="#993419"/>
<g opacity="0.6">
<path d="M28.4007 50.5192L27.7986 50.2758C27.7986 50.2758 27.8468 49.9821 27.9685 49.4766L28.7133 49.7723C28.6063 50.022 28.5013 50.2716 28.4007 50.5192Z" fill="#F1F2F2"/>
</g>
<g opacity="0.6">
<path d="M35.2164 35.2243C35.036 35.3334 34.8577 35.4446 34.6836 35.56L34.0396 35.1824C34.0396 35.1824 34.134 35.0124 34.3396 34.7188L35.2164 35.2243Z" fill="#F1F2F2"/>
</g>
<path d="M45.9333 94.3667C45.8923 94.3667 45.8511 94.3634 45.8101 94.3563C45.5829 94.3176 45.3872 94.1747 45.2814 93.9702C44.2673 92.012 42.804 90.0632 41.3888 88.1786C39.3488 85.4618 37.4003 82.8669 36.753 80.2812L35.4743 81.8724C35.3409 82.0384 35.1421 82.1382 34.9292 82.1462C34.7157 82.1554 34.5104 82.069 34.3653 81.9134C31.9026 79.2754 30.0598 74.6245 28.5825 67.3043H26.563C26.2486 67.3043 25.969 67.1041 25.8679 66.8064C24.3774 62.4228 25.0099 56.8294 27.7468 50.1714L25.9765 49.4656C25.6556 49.3377 25.4673 49.0034 25.5241 48.6626C25.5854 48.295 27.0436 39.9965 33.812 35.2503L32.2034 34.3218C31.854 34.1203 31.7327 33.6747 31.9315 33.3239C32.0741 33.0724 35.5356 27.141 45.3946 25.0234C52.379 23.5233 56.9983 22.7438 59.003 22.4296C58.6255 21.7097 58.304 20.7329 58.6876 19.8856C59.0758 19.028 60.0288 18.5674 61.5198 18.5166C65.3774 18.3828 69.6651 19.7788 72.9428 22.1908L73.1073 21.8103C73.3126 21.3346 73.7401 21.0007 74.2508 20.9168C74.762 20.8326 75.2754 21.0131 75.6233 21.3992C76.7632 22.6651 78.7815 25.3467 79.814 29.36C86.746 30.3029 91.205 31.3735 92.0772 33.6666C92.3878 34.4828 92.228 35.3609 91.6026 36.2838C93.3099 37.9652 98.7646 43.8705 98.7646 50.6681C98.7646 51.6783 98.7915 52.7507 98.82 53.8862C99.0028 61.1681 99.2532 71.1411 92.2851 80.4368C92.148 80.6198 91.9335 80.7284 91.7048 80.7306C91.4784 80.7264 91.2595 80.6284 91.1189 80.4483L90.1181 79.1669C89.1417 81.878 86.0917 87.6505 77.3378 90.3483C77.1152 90.4169 76.8732 90.3757 76.6854 90.2374C76.4979 90.0989 76.3874 89.8796 76.3874 89.6466V87.9487C74.302 89.3325 69.6396 91.8231 63.1046 91.8235C61.4339 91.8235 59.6421 91.6608 57.7384 91.2755C57.506 91.2284 57.3107 91.072 57.2138 90.8554C57.1169 90.639 57.1308 90.3892 57.2507 90.1845L57.5742 89.6323C55.882 90.3188 54.2308 90.8532 52.722 91.3415C50.0359 92.2106 47.716 92.9614 46.4368 94.1669C46.2995 94.2964 46.119 94.3667 45.9333 94.3667ZM37.2622 77.7412C37.3448 77.7412 37.4284 77.7551 37.5095 77.7841C37.804 77.8896 37.9996 78.1702 37.9962 78.4831C37.9679 81.1772 40.2 84.1496 42.563 87.2967C43.8294 88.983 45.1334 90.7195 46.156 92.5076C47.6794 91.4297 49.8328 90.7328 52.2699 89.9441C54.3548 89.2695 56.7181 88.5047 59.039 87.3775C59.3299 87.2365 59.6791 87.3019 59.8988 87.5394C60.1185 87.777 60.1568 88.1303 59.9931 88.4094L59.0484 90.0215C69.6966 91.7406 76.574 86.002 76.6443 85.942C76.862 85.7559 77.1683 85.7131 77.4288 85.8334C77.6888 85.9533 77.8558 86.2133 77.8558 86.4998V88.6312C81.814 87.2357 84.8837 85 86.9896 81.9754C88.6861 79.5391 89.0876 77.471 89.0916 77.4504C89.1447 77.1667 89.3593 76.9396 89.6396 76.8713C89.9203 76.8028 90.2146 76.9044 90.3923 77.1318L91.6763 78.7762C97.7584 70.1275 97.5339 61.1653 97.3521 53.923C97.3234 52.778 97.2963 51.6967 97.2963 50.6681C97.2963 43.4421 90.1988 36.9712 90.1271 36.9066C89.83 36.6394 89.801 36.1837 90.0619 35.8812C90.6543 35.194 90.8707 34.6245 90.7048 34.1887C89.9435 32.1877 82.3607 31.1793 79.1226 30.7487C78.8193 30.7084 78.5726 30.484 78.504 30.1857C77.5904 26.219 75.6232 23.5936 74.532 22.3817C74.5253 22.3742 74.5136 22.3618 74.4888 22.3659C74.4652 22.3698 74.4593 22.3834 74.4554 22.3924L73.9146 23.6449C73.823 23.8571 73.6368 24.0137 73.4122 24.0677C73.1876 24.1218 72.9505 24.0669 72.7724 23.9195C69.6821 21.362 65.3925 19.8558 61.5698 19.9841C60.7218 20.013 60.1589 20.1976 60.0257 20.4905C59.8222 20.9378 60.3497 21.958 60.8087 22.5223C60.9762 22.7283 61.02 23.0093 60.9222 23.2562C60.8245 23.5032 60.6016 23.6787 60.3384 23.7143C60.2882 23.7212 55.2067 24.4178 45.7028 26.459C38.3319 28.0422 34.761 31.9441 33.6249 33.4466L35.5837 34.5771C35.8091 34.7072 35.9487 34.9468 35.9509 35.207C35.953 35.4672 35.8173 35.709 35.5942 35.8428C29.5905 39.4416 27.573 46.3062 27.095 48.3305L28.9851 49.0839C29.1689 49.1572 29.3156 49.3016 29.3913 49.4844C29.4673 49.6673 29.4661 49.873 29.3882 50.055C26.6646 56.4156 25.8962 61.7209 27.1007 65.8356H29.1852C29.5364 65.8356 29.8386 66.0843 29.906 66.429C31.212 73.1148 32.8448 77.6558 34.8847 80.2615L36.6898 78.0153C36.8318 77.8386 37.0439 77.7412 37.2622 77.7412Z" fill="#1E1E1E"/>
<path d="M83.4107 52.6338C81.1104 46.4531 74.3101 43.1244 65.5832 45.5374C64.4368 35.4181 55.3895 32.7284 48.3869 37.4277C47.9131 37.7457 47.4825 38.123 47.0846 38.532C45.7863 39.8667 42.3719 43.3225 39.7094 45.5375C36.3528 48.3298 29.2201 56.5814 34.3948 66.5813C39.5696 76.5811 51.3176 81.9656 61.6671 83.6439C72.0166 85.3222 77.1913 80.3235 79.2892 75.6202C81.1824 71.3758 81.3671 67.1462 83.4407 61.068C84.3746 58.3305 84.4196 55.3446 83.4107 52.6338Z" fill="#FEB845"/>
<path d="M83.4404 61.0642C81.3677 67.1417 81.1831 71.371 79.2887 75.6171C77.1908 80.3206 72.0175 85.3176 61.6666 83.6394C51.3178 81.9611 39.5698 76.5779 34.3944 66.5774C33.7734 65.3753 33.3286 64.1984 33.0349 63.053C38.3887 72.0969 49.8221 76.9954 59.9212 78.5478C70.27 80.1401 75.4454 75.401 77.5433 70.9431C79.4356 66.9214 79.6223 62.9124 81.695 57.1517C82.5551 54.7622 82.6621 52.1734 81.8838 49.7734C82.5131 50.6378 83.025 51.5944 83.411 52.6308C84.4201 55.3412 84.374 58.3264 83.4404 61.0642Z" fill="#F48D40"/>
<path d="M49.8416 56.1637C56.2611 55.4251 60.6817 58.7345 62.0433 65.6685C62.2262 66.5996 62.6215 67.483 63.218 68.221C63.2664 68.2809 63.3168 68.341 63.3692 68.401C64.3133 69.4814 64.4881 74.5862 59.4008 76.0897C54.3134 77.5931 47.2156 77.2085 43.6056 71.5268C41.2 67.7408 40.485 63.1353 41.429 59.6214C42.2684 56.4972 44.4344 55.1557 47.3741 55.9655C48.1782 56.187 49.0131 56.259 49.8416 56.1637Z" fill="#F1F2F2"/>
<path d="M53.4784 57.2046C55.1298 57.3002 58.255 59.8475 58.9192 61.5561C59.1298 62.098 58.7908 62.694 58.2188 62.7977C57.3195 62.9608 55.6455 63.1655 54.2099 62.7868C53.9314 62.7134 53.6918 62.5374 53.5295 62.2995C53.0497 61.5962 52.1392 59.9302 52.5738 57.9018C52.6639 57.4816 53.0494 57.1797 53.4784 57.2046Z" fill="#1E1E1E"/>
<path d="M60.2797 66.6536C59.9792 67.0072 59.6354 67.3204 59.278 67.6197C58.9181 67.9176 58.5413 68.199 58.1269 68.458L58.1038 68.4724C57.7486 68.6945 57.2806 68.5866 57.0586 68.2314C56.8365 67.8762 56.9444 67.4082 57.2996 67.1862C57.4042 67.1208 57.5221 67.0838 57.6371 67.0736C58.049 67.0384 58.4765 66.966 58.9003 66.8704C59.3239 66.7726 59.7485 66.6557 60.1528 66.4864L60.1563 66.4849C60.211 66.462 60.274 66.4878 60.2968 66.5425C60.313 66.5811 60.3049 66.6237 60.2797 66.6536Z" fill="#1E1E1E"/>
<path d="M47.5986 61.5104C47.5818 60.8424 47.6658 60.2276 47.7791 59.6311C47.8943 59.0352 48.0442 58.4588 48.2071 57.8897C48.2233 57.8331 48.2823 57.8004 48.3388 57.8166C48.3826 57.8292 48.4122 57.8682 48.4157 57.9112C48.4618 58.4971 48.5228 59.0795 48.6182 59.6448C48.7134 60.2081 48.8452 60.7598 49.0409 61.2345C49.1987 61.617 49.0164 62.055 48.6339 62.2128C48.2513 62.3705 47.8134 62.1882 47.6557 61.8056C47.62 61.7192 47.6017 61.63 47.5992 61.5418L47.5986 61.5104Z" fill="#1E1E1E"/>
<path d="M57.882 67.7693C55.5094 70.3182 52.8996 70.6896 51.087 70.5343C49.3668 70.3896 47.9801 69.091 47.72 67.3854C47.2983 64.5952 48.32 61.375 48.32 61.375C48.7332 63.5232 50.2164 63.9952 53.2416 63.6008C53.1283 66.4938 55.5765 68.0462 57.882 67.7693Z" fill="#F42F2F"/>
<path d="M53.2403 64.3381C53.1356 64.3381 53.0293 64.3156 52.9281 64.268C52.5613 64.0954 52.4037 63.658 52.5764 63.291L53.4154 61.5078C53.5881 61.1408 54.025 60.9832 54.3926 61.1561C54.7594 61.3287 54.917 61.7661 54.7444 62.133L53.9053 63.9162C53.7801 64.1822 53.5158 64.3381 53.2403 64.3381Z" fill="#1E1E1E"/>
<path d="M51.7945 71.2989C51.5248 71.2989 51.2674 71.2867 51.024 71.2658C48.9634 71.0923 47.3056 69.5421 46.9939 67.4959C46.5515 64.5696 47.5759 61.2909 47.6199 61.1528C47.7214 60.8326 48.0289 60.6224 48.3626 60.6419C48.698 60.6616 48.9773 60.9063 49.0407 61.2362C49.3111 62.6415 50.0216 63.2805 53.1462 62.8726C53.3615 62.8448 53.5767 62.9129 53.7363 63.0586C53.896 63.2045 53.9833 63.4134 53.9747 63.6295C53.9345 64.6586 54.2747 65.536 54.9585 66.167C55.6877 66.8395 56.7476 67.1658 57.7941 67.0402C58.0998 67.0039 58.3965 67.1618 58.5361 67.4364C58.6757 67.7112 58.6291 68.0439 58.4191 68.2695C56.1562 70.7003 53.6816 71.2989 51.7945 71.2989ZM48.5769 63.5121C48.3889 64.6005 48.2525 65.9973 48.4457 67.2756C48.6547 68.6468 49.7662 69.6862 51.1482 69.8026C52.4672 69.9147 54.2943 69.7204 56.1053 68.3822C55.3023 68.1835 54.558 67.7953 53.9629 67.2463C53.165 66.5103 52.6748 65.5258 52.5408 64.4169C50.9771 64.5539 49.5238 64.4355 48.5769 63.5121Z" fill="#1E1E1E"/>
<path d="M54.4113 70.1185C52.8896 65.516 47.679 67.0642 47.679 67.0642L48.0356 62.4688L50.8632 63.9171L52.7508 63.7772L54.5814 66.8137L57.4553 68.2035L54.4113 70.1185Z" fill="#1E1E1E"/>
<path d="M73.6072 61.817C72.9836 61.4193 72.3393 61.1448 71.6891 60.9395C71.039 60.7354 70.3818 60.6192 69.7273 60.5537C69.3948 60.5448 69.0714 60.5052 68.7398 60.527C68.575 60.5326 68.4127 60.517 68.2474 60.5387C68.0826 60.5556 67.9184 60.5675 67.7542 60.5781C67.5901 60.5827 67.4259 60.6143 67.262 60.6399L66.7693 60.7068C66.4426 60.7734 66.1152 60.8453 65.7862 60.9066L65.8081 59.297C65.8705 59.3154 65.9107 59.3296 65.9543 59.3445C65.999 59.3592 66.0408 59.3746 66.0809 59.39C66.1629 59.4202 66.2443 59.4525 66.3212 59.4878C66.4789 59.5546 66.6294 59.6297 66.7802 59.7043C66.9294 59.7813 67.0759 59.8619 67.2193 59.9475C67.3597 60.038 67.5023 60.1243 67.6393 60.2186C67.775 60.315 67.9103 60.4117 68.0405 60.5145L68.4221 60.8341C68.6619 61.0644 68.9015 61.2919 69.11 61.5496C69.537 62.052 69.8945 62.6114 70.146 63.2096C70.4151 63.7979 70.5578 64.4335 70.6178 65.0574C70.2404 64.5448 69.9028 64.0516 69.4945 63.6226C69.3926 63.516 69.3059 63.4007 69.1962 63.3028C69.0911 63.2017 68.9867 63.102 68.8867 63C68.7839 62.9004 68.6684 62.8126 68.5628 62.718L68.4033 62.5778L68.2333 62.4492C67.7898 62.0996 67.3188 61.7939 66.8285 61.532C66.707 61.4651 66.5812 61.4062 66.4584 61.3427L66.083 61.1706C65.9569 61.1179 65.831 61.0638 65.7048 61.0196L65.5185 60.9532C65.4872 60.9416 65.4572 60.9314 65.4293 60.923L65.3577 60.9008L65.3112 60.8864C64.8757 60.751 64.6323 60.2882 64.7677 59.8528C64.8588 59.5594 65.0998 59.3531 65.3797 59.2912C65.7532 59.2093 66.1255 59.1208 66.5037 59.0588C66.888 59.0189 67.2677 58.9568 67.6566 58.9568C68.0449 58.9483 68.4319 58.9514 68.8203 59.0001C69.2076 59.0308 69.5919 59.1168 69.9701 59.2029C70.7238 59.4063 71.4462 59.7237 72.0791 60.1621C72.7061 60.6005 73.2691 61.1476 73.6072 61.817Z" fill="#1E1E1E"/>
<path d="M46.1877 45.527C46.9352 45.4655 47.6958 45.6597 48.3972 45.9652C49.1018 46.2758 49.7499 46.7259 50.3171 47.2622C50.5881 47.5397 50.8623 47.8225 51.0908 48.1366C51.3352 48.4424 51.54 48.7707 51.7357 49.1063C51.9389 49.4378 52.0843 49.7941 52.251 50.1425C52.3957 50.4974 52.5149 50.8612 52.6403 51.2224C52.7899 51.6532 52.5619 52.1237 52.1312 52.2733C51.8409 52.3741 51.5327 52.3036 51.3168 52.1152L51.2793 52.082L51.2229 52.0326C51.2012 52.0132 51.1768 51.9931 51.1506 51.9725L50.9966 51.8483C50.8929 51.7637 50.7811 51.6847 50.6702 51.6047L50.3273 51.3746C50.2091 51.3031 50.0932 51.2265 49.9725 51.1579C49.4931 50.8767 48.9863 50.6349 48.4565 50.4393L48.2581 50.3616L48.0552 50.2989C47.9193 50.2583 47.7841 50.2056 47.6454 50.17C47.5063 50.1382 47.3667 50.1012 47.2256 50.0643C47.0849 50.0219 46.9413 50.0083 46.7971 49.9771C46.2179 49.8531 45.6211 49.8229 44.9868 49.7689C45.55 49.4942 46.1667 49.2839 46.8088 49.2058C47.4503 49.1077 48.1139 49.1202 48.7655 49.2218C49.0941 49.265 49.4133 49.3504 49.7349 49.4346L50.2068 49.5929C50.3626 49.6502 50.5157 49.715 50.6688 49.7805C50.8209 49.848 50.9688 49.9244 51.1193 49.9968C51.2673 50.0743 51.4126 50.1572 51.5561 50.2443C51.6985 50.3338 51.8411 50.4229 51.9806 50.5224C52.0508 50.5695 52.1209 50.6221 52.1895 50.6762C52.2237 50.7023 52.2585 50.73 52.2945 50.7604C52.3299 50.7898 52.3631 50.8166 52.4114 50.8602L51.0503 51.7198C50.9306 51.4073 50.8211 51.0906 50.7071 50.7773L50.5067 50.3222C50.4428 50.1692 50.384 50.0125 50.3022 49.8702C50.2254 49.7248 50.1497 49.5784 50.0781 49.4292C50.0103 49.2768 49.9121 49.1466 49.8308 49.0032C49.6761 48.7091 49.4733 48.454 49.2921 48.1751C48.8941 47.6513 48.4518 47.1517 47.9381 46.704C47.4234 46.2568 46.8528 45.8509 46.1877 45.527Z" fill="#1E1E1E"/>
<path d="M65.6048 84.6995C64.3548 84.6995 63.0067 84.5924 61.5497 84.3561C55.8413 83.4303 50.3688 81.5288 45.7245 78.857C40.2471 75.7061 36.2159 71.6852 33.7428 66.906C31.3926 62.3644 31.2022 57.7049 33.1772 53.0568C35.0389 48.6754 38.2885 45.752 39.2401 44.9604C41.8659 42.7759 45.2326 39.3703 46.5582 38.0074C47.0291 37.5237 47.4934 37.1306 47.9778 36.8055C51.7862 34.2498 56.2293 33.7281 59.8625 35.4097C63.2658 36.9848 65.4951 40.2334 66.1988 44.608C74.4791 42.6275 81.6119 45.6831 84.0988 52.3651V52.3652C85.136 55.1517 85.149 58.3221 84.1358 61.2924C83.19 64.0646 82.6307 66.4973 82.1373 68.6437C81.5311 71.2806 81.0074 73.5579 79.9598 75.9067C78.6989 78.7338 74.9274 84.6995 65.6048 84.6995ZM55.3596 35.9063C53.1698 35.9063 50.8827 36.6247 48.7962 38.0249C48.3973 38.2925 48.0096 38.6218 47.6108 39.0315C46.2692 40.4109 42.8588 43.8601 40.1792 46.0893C39.2916 46.8276 36.2614 49.5534 34.5288 53.631C32.733 57.8573 32.9075 62.0965 35.0471 66.2311C39.4116 74.6655 49.4069 80.8993 61.7848 82.9065C73.101 84.7411 77.327 78.2043 78.6188 75.3085C79.6082 73.0899 80.117 70.877 80.7061 68.3147C81.2075 66.1337 81.7758 63.6619 82.746 60.8183C83.6501 58.1676 83.6418 55.3474 82.7227 52.8773C80.436 46.7333 73.6272 44.0625 65.779 46.2326C65.5719 46.2898 65.35 46.2538 65.1723 46.1333C64.9942 46.0131 64.8778 45.8209 64.8538 45.6075C64.3704 41.3408 62.3788 38.1923 59.2458 36.7423C58.0354 36.1822 56.7161 35.9063 55.3596 35.9063Z" fill="#1E1E1E"/>
<g opacity="0.3">
<path d="M48.388 58.7344C49.7673 62.2675 51.8019 62.0371 54.271 59.3113L57.0682 62.3767C55.647 64.5979 56.9633 66.8637 60.0052 66.549C60.0052 66.549 58.1481 68.177 56.6117 67.6777C55.0752 67.1783 52.941 64.7133 52.941 64.7133L49.2536 63.2536L48.3879 60.7798" fill="#1E1E1E"/>
</g>
<path d="M101.201 53.5943C101.201 58.1634 97.4964 61.8662 92.9272 61.8662C91.4021 61.8662 89.9734 61.4529 88.7462 60.7333C88.656 57.425 87.821 55.0334 87.821 55.0334H89.7615C89.3294 51.66 88.1189 49.2853 87.0469 47.7748C88.5448 46.2602 90.6258 45.3203 92.9272 45.3203C97.4964 45.3203 101.201 49.0251 101.201 53.5943Z" fill="#FEB845"/>
<path d="M101.044 53.5961C101.044 58.1652 97.3389 61.868 92.7698 61.868C91.2446 61.868 89.816 61.4547 88.5887 60.7351C88.5719 60.1204 88.5278 59.5372 88.4712 58.9939C89.411 59.3673 90.4369 59.5729 91.511 59.5729C96.0802 59.5729 99.785 57.2762 99.785 51.301C99.785 50.3276 99.6172 49.392 99.3067 48.5234C100.395 49.9248 101.044 51.6849 101.044 53.5961Z" fill="#F48D40"/>
<path d="M94.5274 54.299C94.5274 56.3025 92.9037 57.9263 90.9002 57.9263C89.8723 57.9263 88.945 57.4983 88.2842 56.8123V55.2977L90.2855 54.7208L88.8674 51.2928C89.4464 50.9027 90.1471 50.6719 90.9002 50.6719C92.9037 50.6718 94.5274 52.2956 94.5274 54.299Z" fill="#FF9878"/>
<path d="M94.5282 54.2991C94.5282 54.6264 94.4842 54.9432 94.4023 55.2452C93.8401 53.9739 92.5667 53.0886 91.0877 53.0886C90.6052 53.0886 90.1415 53.183 89.7199 53.3551L88.8682 51.2928C89.4472 50.9027 90.1479 50.6719 90.901 50.6719C92.9044 50.6718 94.5282 52.2956 94.5282 54.2991Z" fill="#ED6E5D"/>
<path d="M89.4796 60.7125C89.3604 62.0114 89.1247 63.2899 88.7631 64.5175L88.7447 64.5799C88.7075 64.706 88.5751 64.7781 88.4489 64.741C88.4257 64.7341 88.4034 64.7233 88.3841 64.7106L86.6143 63.5303L88.6205 64.2379L88.2416 64.4312C88.288 63.1889 88.2029 61.9576 88.0117 60.7551C87.9475 60.3513 88.2228 59.9719 88.6267 59.9077C89.0305 59.8436 89.4099 60.1188 89.4741 60.5227C89.4838 60.5836 89.4858 60.6441 89.4807 60.7028L89.4796 60.7125Z" fill="#1E1E1E"/>
<path d="M86.4482 48.1976C86.2901 47.7646 86.1056 47.3363 85.8931 46.915C85.6772 46.4966 85.44 46.0812 85.146 45.6953C85.5938 45.8903 86.0214 46.1468 86.4388 46.4238C86.8539 46.7043 87.2572 47.013 87.6451 47.3468L87.6599 47.3595C87.9785 47.6337 88.0146 48.1144 87.7404 48.433C87.4662 48.7516 86.9855 48.7877 86.6668 48.5135C86.5654 48.4263 86.4915 48.3148 86.4482 48.1976Z" fill="#1E1E1E"/>
<path d="M92.927 62.6004C91.3255 62.6004 89.7512 62.1737 88.3747 61.3666C88.1559 61.2383 88.0188 61.0065 88.012 60.7532C87.9262 57.6109 87.1352 55.2977 87.1274 55.2746C87.0495 55.0502 87.0849 54.8016 87.2225 54.6079C87.3604 54.4144 87.5831 54.2991 87.8208 54.2991H88.9075C88.4026 51.43 87.3122 49.4173 86.4479 48.1997C86.2417 47.9089 86.2739 47.5119 86.5247 47.2584C88.229 45.5351 90.5026 44.5859 92.9271 44.5859C97.8943 44.5859 101.935 48.6271 101.935 53.5943C101.935 58.5603 97.8942 62.6004 92.927 62.6004ZM89.4645 60.2911C90.5301 60.8422 91.7192 61.1318 92.927 61.1318C97.0845 61.1318 100.467 57.7505 100.467 53.5942C100.467 49.4368 97.0844 46.0545 92.927 46.0545C91.0985 46.0545 89.3725 46.6995 88.0053 47.8825C88.9766 49.3937 90.0786 51.7311 90.4897 54.9399C90.5165 55.1493 90.452 55.3599 90.3125 55.5183C90.1731 55.6767 89.9723 55.7676 89.7614 55.7676H88.7981C89.0444 56.7287 89.3741 58.3332 89.4645 60.2911Z" fill="#1E1E1E"/>
<path d="M90.9006 58.6605C89.7045 58.6605 88.5877 58.185 87.7559 57.3217C87.4744 57.0297 87.483 56.5649 87.7752 56.2835C88.067 56.0023 88.5318 56.0107 88.8133 56.3027C89.3658 56.8762 90.107 57.1919 90.9006 57.1919C92.4959 57.1919 93.7937 55.8941 93.7937 54.2989C93.7937 52.7038 92.4959 51.4061 90.9006 51.4061C90.3203 51.4061 89.7594 51.5775 89.2779 51.9017C88.9422 52.1282 88.4855 52.0394 88.2588 51.7029C88.0322 51.3666 88.1213 50.9103 88.4576 50.6837C89.1822 50.1955 90.0269 49.9375 90.9006 49.9375C93.3057 49.9375 95.2621 51.8941 95.2621 54.2989C95.2621 56.7039 93.3057 58.6605 90.9006 58.6605Z" fill="#1E1E1E"/>
<path d="M60.4433 28.1339C60.4433 28.7842 60.3741 29.4178 60.2398 30.0283C59.1762 29.8185 57.8692 29.659 56.3525 29.6549C55.1944 29.6527 53.9126 29.7409 52.5239 29.9695L53.4155 32.1723C53.4155 32.1723 51.733 32.0947 49.4715 32.5079C48.0743 32.7618 46.4568 33.2044 44.8792 33.9681C43.9352 32.8855 43.2471 31.5723 42.9156 30.1227C42.7688 29.4849 42.6912 28.8178 42.6912 28.1339C42.6912 23.2312 46.6645 19.2578 51.5672 19.2578C53.0588 19.2578 54.4623 19.6249 55.6958 20.2753C58.5196 21.7606 60.4433 24.7227 60.4433 28.1339Z" fill="#FEB845"/>
<path d="M60.4433 28.6555C60.4433 29.3058 60.374 29.9394 60.2398 30.5498C59.1762 30.34 57.8692 30.1806 56.3524 30.1764C55.9853 29.1296 55.6958 27.9737 55.6958 27.9737C59.6041 25.3514 55.6958 20.7969 55.6958 20.7969C58.5196 22.2821 60.4433 25.2443 60.4433 28.6555Z" fill="#F48D40"/>
<path d="M49.4716 32.508C48.0744 32.7618 46.457 33.2044 44.8794 33.9681C43.9353 32.8856 43.2473 31.5723 42.9158 30.1227C47.1283 31.8387 48.7332 27.9766 48.7332 27.9766L49.0772 31.0709L49.4716 32.508Z" fill="#F48D40"/>
<path d="M56.3211 29.6401V29.6485L52.7606 29.9264L53.3387 31.976L49.8807 32.4323C49.1716 31.7232 48.7332 30.7351 48.7332 29.64C48.7332 27.4876 50.4324 25.7422 52.5261 25.7422C54.6219 25.7422 56.3211 27.4876 56.3211 29.6401Z" fill="#FF9878"/>
<path d="M44.7093 36.4697L42.9547 35.1633C42.8102 35.0557 42.7802 34.8512 42.8878 34.7067C42.8987 34.6923 42.9104 34.6789 42.923 34.6667L43.0239 34.5705C43.5006 34.116 44.0173 33.6948 44.5578 33.3046L44.5674 33.2977C44.9021 33.0561 45.3692 33.1316 45.6108 33.4663C45.8523 33.8009 45.777 34.2681 45.4422 34.5097C45.3679 34.5635 45.2841 34.602 45.2005 34.6251C44.6105 34.7851 44.0279 34.9799 43.4575 35.222L43.5269 34.6293L44.7093 36.4697Z" fill="#1E1E1E"/>
<path d="M63.66 31.6451C63.0622 31.4098 62.4489 31.2361 61.8359 31.0827C61.2213 30.9331 60.6045 30.8111 59.9874 30.7151C59.5788 30.6515 59.2992 30.2687 59.3628 29.8602C59.4263 29.4516 59.8092 29.172 60.2177 29.2356C60.3145 29.2506 60.4041 29.2836 60.4836 29.3307L60.4923 29.3361C61.0614 29.6752 61.6137 30.0359 62.1458 30.4171C62.6755 30.8015 63.1915 31.2018 63.66 31.6451Z" fill="#1E1E1E"/>
<path d="M44.8793 34.7022C44.672 34.7022 44.4687 34.6146 44.3257 34.4507C42.798 32.6994 41.9568 30.456 41.9568 28.1339C41.9568 22.8347 46.2679 18.5234 51.5671 18.5234C56.8662 18.5234 61.1773 22.8347 61.1773 28.1339C61.1773 28.8304 61.1031 29.5208 60.9566 30.186C60.8708 30.5759 60.489 30.826 60.0976 30.7486C58.0255 30.3404 55.8288 30.2778 53.5558 30.5619L54.096 31.8968C54.1898 32.1287 54.1591 32.3925 54.0146 32.5966C53.8701 32.8006 53.6404 32.9179 53.3814 32.9058C53.3402 32.9038 49.105 32.7392 45.1988 34.6289C45.0967 34.6783 44.9875 34.7022 44.8793 34.7022ZM51.5672 19.992C47.0777 19.992 43.4252 23.6444 43.4252 28.1338C43.4252 29.919 44.0121 31.6492 45.0881 33.0628C47.9427 31.8061 50.8041 31.5086 52.3295 31.4463L51.8432 30.2448C51.7596 30.038 51.7744 29.8043 51.8836 29.6098C51.9929 29.4153 52.1847 29.281 52.4049 29.2448C54.9076 28.8337 57.3389 28.8112 59.6427 29.1765C59.6867 28.8334 59.7089 28.4847 59.7089 28.1338C59.7089 23.6444 56.0566 19.992 51.5672 19.992Z" fill="#1E1E1E"/>
<path d="M49.8807 33.1665C49.6928 33.1665 49.5049 33.0948 49.3615 32.9515C48.4828 32.0729 47.999 30.8969 47.999 29.6399C47.999 27.0857 50.0297 25.0078 52.526 25.0078C55.0235 25.0078 57.0553 27.0857 57.0553 29.6399C57.0553 30.0454 56.7266 30.3784 56.3211 30.3784C55.9157 30.3784 55.587 30.0539 55.587 29.6483V29.6399C55.587 27.8955 54.2137 26.4764 52.526 26.4764C50.8395 26.4764 49.4674 27.8955 49.4674 29.6399C49.4674 30.5046 49.7987 31.3118 50.3998 31.913C50.6865 32.1997 50.6865 32.6647 50.3998 32.9513C50.2565 33.0947 50.0686 33.1665 49.8807 33.1665Z" fill="#1E1E1E"/>
<path d="M20.359 64.949C21.5617 66.2036 20.6397 67.4408 19.2846 68.7399C17.9295 70.039 16.6545 70.908 15.4518 69.6535C14.2491 68.3989 14.3726 66.3288 15.7277 65.0297C17.0828 63.7306 19.1563 63.6945 20.359 64.949Z" fill="#FF8080"/>
<path d="M13.1879 67.6331C13.815 67.2711 13.9124 66.2658 13.4055 65.3879C12.8986 64.5099 11.9794 64.0917 11.3523 64.4538C10.7252 64.8159 10.6277 65.8211 11.1346 66.699C11.6415 67.577 12.5608 67.9952 13.1879 67.6331Z" fill="#FF8080"/>
<path d="M14.6479 63.8987C15.275 63.5367 15.3724 62.5315 14.8655 61.6535C14.3586 60.7756 13.4393 60.3574 12.8122 60.7194C12.1851 61.0815 12.0877 62.0867 12.5946 62.9647C13.1015 63.8426 14.0208 64.2608 14.6479 63.8987Z" fill="#FF8080"/>
<path d="M18.3724 62.8795C18.9995 62.5174 19.1136 61.541 18.6272 60.6986C18.1408 59.8561 17.2382 59.4667 16.6111 59.8288C15.984 60.1909 15.8699 61.1673 16.3563 62.0097C16.8427 62.8521 17.7453 63.2415 18.3724 62.8795Z" fill="#FF8080"/>
<path d="M87.5251 96.0753C85.7922 95.9421 85.6546 94.4052 85.7986 92.5335C85.9425 90.6618 86.3134 89.1641 88.0462 89.2973C89.779 89.4306 91.0671 91.0559 90.9232 92.9275C90.7793 94.7993 89.2579 96.2086 87.5251 96.0753Z" fill="#FF8080"/>
<path d="M92.8683 90.7496C93.7445 90.7496 94.4548 90.1743 94.4548 89.4646C94.4548 88.755 93.7445 88.1797 92.8683 88.1797C91.9921 88.1797 91.2817 88.755 91.2817 89.4646C91.2817 90.1743 91.9921 90.7496 92.8683 90.7496Z" fill="#FF8080"/>
<path d="M94.4552 94.6559C95.3314 94.6559 96.0417 94.0806 96.0417 93.3709C96.0417 92.6612 95.3314 92.0859 94.4552 92.0859C93.579 92.0859 92.8687 92.6612 92.8687 93.3709C92.8687 94.0806 93.579 94.6559 94.4552 94.6559Z" fill="#FF8080"/>
<path d="M92.3307 97.9137C93.2069 97.9137 93.9172 97.3384 93.9172 96.6287C93.9172 95.919 93.2069 95.3438 92.3307 95.3438C91.4545 95.3438 90.7441 95.919 90.7441 96.6287C90.7441 97.3384 91.4545 97.9137 92.3307 97.9137Z" fill="#FF8080"/>
<path d="M21.3489 120.946C21.5647 121.042 21.7339 121.129 21.9159 121.227C22.0951 121.322 22.2684 121.424 22.4406 121.526C22.613 121.628 22.7794 121.738 22.9481 121.843L23.439 122.181C24.0841 122.643 24.6854 123.159 25.2387 123.715C25.5213 123.987 25.774 124.289 26.0317 124.581C26.1544 124.733 26.2713 124.89 26.3905 125.044L26.5669 125.276L26.7282 125.519C27.1778 126.152 27.5146 126.853 27.8218 127.549C27.4049 126.907 26.9712 126.285 26.4413 125.748L26.2506 125.541L26.0462 125.347C25.9089 125.219 25.7751 125.089 25.6365 124.965C25.3465 124.727 25.0665 124.484 24.7599 124.272C24.1592 123.836 23.5266 123.449 22.8678 123.123L22.3706 122.888C22.2018 122.817 22.0355 122.741 21.8663 122.675C21.6969 122.609 21.5282 122.543 21.3581 122.486C21.193 122.428 21.0098 122.37 20.8685 122.334L20.8674 122.334C20.4733 122.233 20.2357 121.831 20.3367 121.437C20.4378 121.043 20.8393 120.805 21.2335 120.906C21.2723 120.916 21.3132 120.931 21.3489 120.946Z" fill="#1E1E1E"/>
<path d="M46.5826 119.028C46.7667 119.067 46.9953 119.108 47.21 119.137C47.4273 119.172 47.6492 119.194 47.87 119.221C48.3139 119.263 48.7613 119.297 49.2108 119.312C50.1095 119.343 51.0162 119.323 51.9192 119.236C52.8225 119.152 53.7271 119.021 54.6179 118.814C55.515 118.626 56.3896 118.344 57.2618 118.039C56.4399 118.456 55.5997 118.856 54.7216 119.166C53.8498 119.495 52.9488 119.751 52.0345 119.961C51.12 120.174 50.1879 120.32 49.246 120.413C48.775 120.46 48.301 120.488 47.8242 120.505C47.5851 120.508 47.3466 120.515 47.105 120.51C46.9849 120.51 46.8636 120.507 46.7411 120.501C46.6163 120.497 46.5021 120.491 46.3583 120.479C45.9534 120.444 45.6534 120.088 45.6883 119.683C45.7232 119.278 46.0797 118.978 46.4847 119.013C46.5144 119.015 46.5435 119.02 46.572 119.025L46.5826 119.028Z" fill="#1E1E1E"/>
<path d="M64.0464 132.137C64.047 132.144 64.1014 132.144 64.1362 132.146C64.1748 132.147 64.2186 132.144 64.26 132.144C64.3459 132.14 64.4337 132.135 64.5234 132.126C64.7024 132.109 64.8855 132.08 65.0697 132.048C65.4381 131.981 65.8092 131.883 66.179 131.77C66.55 131.658 66.9154 131.518 67.281 131.37C67.4636 131.296 67.6426 131.213 67.8252 131.134L68.363 130.875L67.9265 131.287C67.7759 131.418 67.627 131.554 67.4721 131.684C67.1616 131.941 66.843 132.195 66.5046 132.428C66.167 132.662 65.8164 132.885 65.4428 133.084C65.255 133.183 65.064 133.279 64.8623 133.365C64.7624 133.409 64.6583 133.45 64.552 133.49C64.4968 133.509 64.4443 133.528 64.3858 133.546C64.3235 133.564 64.2808 133.581 64.1834 133.599C63.7797 133.637 63.4217 133.34 63.3839 132.937C63.346 132.533 63.6426 132.175 64.0464 132.137Z" fill="#1E1E1E"/>
<path d="M70.2914 139.66C70.1454 139.624 70.1135 139.599 70.0414 139.567C69.9784 139.537 69.9264 139.504 69.8704 139.471C69.7678 139.403 69.6732 139.331 69.5892 139.255C69.4202 139.103 69.2806 138.94 69.1633 138.771C68.9293 138.432 68.7689 138.079 68.6603 137.724C68.5959 137.55 68.565 137.369 68.5185 137.195C68.4858 137.018 68.4547 136.842 68.4302 136.668C68.4136 136.491 68.3922 136.318 68.3813 136.144L68.3625 135.625L68.5596 136.101C68.6293 136.257 68.7081 136.408 68.7807 136.559C68.861 136.707 68.9459 136.85 69.03 136.991C69.1264 137.125 69.207 137.267 69.3125 137.387C69.5056 137.64 69.7307 137.855 69.9611 138.011C70.076 138.089 70.1942 138.15 70.3058 138.188C70.3618 138.209 70.415 138.22 70.4641 138.229C70.4863 138.229 70.511 138.233 70.5278 138.23C70.5354 138.227 70.5843 138.229 70.5217 138.21L70.2914 139.66Z" fill="#1E1E1E"/>
<path d="M75.3115 136.36C75.2325 136.348 75.2209 136.339 75.1793 136.328C75.1453 136.317 75.1197 136.306 75.0898 136.295C75.0297 136.273 74.9838 136.247 74.9313 136.223C74.8335 136.171 74.7413 136.117 74.6585 136.056C74.4879 135.939 74.3467 135.802 74.2153 135.664C73.9586 135.383 73.7771 135.072 73.6373 134.759C73.4921 134.448 73.4072 134.126 73.3321 133.813C73.3042 133.652 73.2754 133.495 73.2521 133.338L73.2058 132.867L73.4261 133.28C73.506 133.413 73.5898 133.542 73.6704 133.67C73.8494 133.916 74.0306 134.152 74.2429 134.344C74.4493 134.539 74.6721 134.701 74.8998 134.802C75.0143 134.848 75.1259 134.89 75.2331 134.907C75.2861 134.918 75.3374 134.921 75.3837 134.922C75.4049 134.92 75.4307 134.923 75.4458 134.917C75.4533 134.915 75.4648 134.915 75.4685 134.911C75.4647 134.907 75.4906 134.907 75.4501 134.898L75.3115 136.36Z" fill="#1E1E1E"/>
<path d="M69.4831 99.0605L66.9468 97.6172L69.8649 97.6425C70.2838 97.6461 70.6205 97.9887 70.6169 98.4076C70.6133 98.8266 70.2707 99.1633 69.8518 99.1597C69.7187 99.1586 69.5912 99.1215 69.4831 99.0605Z" fill="#1E1E1E"/>
<path d="M16.8067 36.9526C17.7618 35.3898 18.2328 33.5139 18.0313 31.5513C17.5422 26.7877 13.2841 23.3226 8.52048 23.8116C3.75692 24.3008 0.291801 28.5589 0.780881 33.3225C1.26996 38.086 5.52812 41.5512 10.2917 41.0621C11.6167 40.926 12.8407 40.4976 13.9076 39.8486L17.9201 40.7485L16.8067 36.9526Z" fill="white"/>
<g opacity="0.5">
<path d="M8.69075 25.4723C13.1406 25.0154 17.1483 28.0095 18.0558 32.2888C18.0569 31.9831 18.0437 31.6747 18.0118 31.3638C17.5227 26.6002 13.2646 23.1351 8.50099 23.6241C3.73743 24.1132 0.272269 28.3713 0.761349 33.1349C0.793429 33.4472 0.842588 33.7535 0.906108 34.0539C0.922868 29.6776 4.23943 25.9293 8.69075 25.4723Z" fill="white"/>
</g>
<path d="M9.39891 41.8419C4.64071 41.8423 0.546552 38.2312 0.0502722 33.3971C-0.206368 30.8982 0.525473 28.4489 2.11119 26.5004C3.69675 24.5519 5.94615 23.3376 8.44519 23.0811C13.6044 22.5507 18.2317 26.3172 18.7616 31.476C18.962 33.4305 18.561 35.3506 17.6005 37.0504L18.6243 40.5416C18.6976 40.7911 18.6333 41.0606 18.4556 41.2504C18.2776 41.4401 18.0132 41.5211 17.7591 41.4647L14.0292 40.6281C12.9001 41.2672 11.6694 41.6585 10.3665 41.7922C10.0419 41.8255 9.71843 41.8419 9.39891 41.8419ZM9.41179 24.4999C9.14167 24.4999 8.86959 24.5136 8.59519 24.5417C6.48639 24.7583 4.58815 25.7831 3.25027 27.4273C1.91219 29.0715 1.29459 31.1383 1.51119 33.2471C1.95807 37.6001 5.86059 40.7777 10.2165 40.3314C11.4012 40.2097 12.5145 39.8362 13.5256 39.2211C13.688 39.1221 13.8829 39.0904 14.068 39.1318L16.8645 39.7591L16.1019 37.159C16.0435 36.9603 16.0719 36.7462 16.1799 36.5694C17.0918 35.0773 17.4793 33.3679 17.3006 31.6259C16.8817 27.5472 13.4264 24.4999 9.41179 24.4999Z" fill="#1E1E1E"/>
<path d="M12.1783 30C11.4279 29.2497 10.2113 29.3841 9.46096 30.1345L9.34416 30.2513L9.22736 30.1345C8.47699 29.3841 7.2604 29.2497 6.51004 30C5.75968 30.7504 5.75968 31.967 6.51004 32.7174L6.62683 32.8342L8.98596 35.1933C9.18376 35.3911 9.50452 35.3911 9.70232 35.1933L12.0614 32.8342L12.1782 32.7174C12.9287 31.967 12.9287 30.7504 12.1783 30Z" fill="#D84545"/>
</svg>
