<svg width="363" height="183" viewBox="0 0 363 183" fill="none" xmlns="http://www.w3.org/2000/svg">
<path opacity="0.1" d="M346.654 -87.1063C373.793 -49.0778 361.482 -11.6918 337.648 11.519C314.03 34.5204 268.495 34.9684 230.025 1.04279C240.137 10.7263 263.877 51.0694 246.096 86.8896C227.668 124.015 195.856 130.225 167.843 124.101C123.888 114.493 89.6508 86.401 61.6768 60.3454C71.5552 85.2977 82.0422 125.5 61.4974 157.308C40.9526 189.116 -6.49641 196.587 -48.0701 145.165C-89.6438 93.7423 -149.648 -26.9699 -64.0608 -79.908C-29.7407 -101.136 12.6277 -85.06 35.0094 -73.1908C44.6984 -68.0527 72.765 -51.7867 107.658 -23.2334C69.1194 -61.4945 20.9945 -135.284 55.7636 -184.349C125.302 -282.48 298.095 -155.148 346.654 -87.1063Z" fill="#7DADFE"/>
</svg>
