<svg width="342" height="207" viewBox="0 0 342 207" fill="none" xmlns="http://www.w3.org/2000/svg">
<path opacity="0.1" d="M15.4182 269.579C-11.7211 231.55 0.59014 194.164 24.4233 170.954C48.0415 147.952 93.5767 147.504 132.047 181.43C121.935 171.746 98.1947 131.403 115.975 95.5831C134.404 58.4577 166.215 52.2478 194.229 58.3714C238.183 67.9797 272.421 96.0716 300.395 122.127C290.517 97.175 280.03 56.9729 300.574 25.1646C321.119 -6.64381 368.568 -14.1145 410.142 37.3079C451.716 88.7304 511.72 209.443 426.133 262.381C391.812 283.608 349.444 267.533 327.062 255.663C317.373 250.525 289.307 234.259 254.414 205.706C292.952 243.967 341.077 317.756 306.308 366.822C236.77 464.953 63.9768 337.621 15.4182 269.579Z" fill="#7DADFE"/>
</svg>
