<svg width="324" height="159" viewBox="0 0 324 159" fill="none" xmlns="http://www.w3.org/2000/svg">
<path opacity="0.1" d="M-140.024 125.11C-147.044 78.9208 -119.164 51.1361 -87.4136 41.2039C-55.9492 31.3613 -15.1283 51.5431 3.85429 99.1939C-0.789308 85.9853 -3.73139 39.268 28.3198 15.3523C61.5388 -9.43491 92.722 -0.595875 114.943 17.5281C149.808 45.9661 167.652 86.4998 180.829 122.386C183.295 95.6632 192.111 55.062 224.815 35.9742C257.518 16.8864 303.221 31.6688 317.063 96.3298C330.905 160.991 329.87 295.79 229.596 304.328C189.387 307.751 158.86 274.261 144.26 253.557C137.939 244.594 120.255 217.399 102.036 176.157C119.119 227.706 128.696 315.28 75.5039 343.332C-30.8798 399.437 -127.463 207.753 -140.024 125.11Z" fill="#7DADFE"/>
</svg>
