<svg width="165" height="190" viewBox="0 0 165 190" fill="none" xmlns="http://www.w3.org/2000/svg">
<path fill-rule="evenodd" clip-rule="evenodd" d="M231.681 96.346C234.776 100.615 236.923 105.488 237.861 110.824C241.807 133.279 222.85 155.374 195.522 160.177C178.965 163.086 163.135 158.98 152.35 150.297C146.06 157.914 136.356 163.671 124.841 165.694C107.757 168.696 91.6155 162.612 83.4348 151.409C79.7188 152.878 75.7613 154.009 71.6059 154.739C44.2772 159.541 18.9236 145.23 14.9781 122.777C11.0327 100.324 29.9886 78.2263 57.3173 73.4242C60.9736 72.7817 64.5943 72.4843 68.1341 72.5002C68.2729 47.424 90.4999 24.3022 121.304 18.8893C150.354 13.7848 177.603 26.0875 187.891 47.2376C188.954 46.9776 190.035 46.75 191.133 46.5571C213.598 42.6095 234.442 54.3728 237.685 72.8307C239.146 81.1541 236.781 89.4176 231.681 96.346Z" fill="#ECF1F7"/>
<path fill-rule="evenodd" clip-rule="evenodd" d="M231.681 96.3444C232.653 97.6839 233.531 99.0838 234.307 100.541C231.687 118.864 214.682 135.003 191.803 139.023C175.246 141.932 159.416 137.826 148.631 129.144C142.341 136.76 132.637 142.519 121.123 144.543C104.038 147.545 87.8969 141.46 79.7162 130.258C76.0001 131.726 72.0426 132.857 67.8872 133.587C45.0122 137.607 23.5234 128.232 14.8119 111.903C17.4324 93.5814 34.4405 77.4446 57.3155 73.425C60.9718 72.7825 64.5924 72.4851 68.1322 72.5011C68.271 47.4249 90.4981 24.3031 121.303 18.8901C150.352 13.7856 177.601 26.0883 187.89 47.2384C188.952 46.9785 190.034 46.7508 191.131 46.558C209.098 43.4008 226.026 50.2946 233.744 62.6222C242.046 76.8883 237.312 88.693 231.681 96.3444Z" fill="#F8FAFB"/>
</svg>
