<svg width="339" height="210" viewBox="0 0 339 210" fill="none" xmlns="http://www.w3.org/2000/svg">
<path fill-rule="evenodd" clip-rule="evenodd" d="M149.059 166.683C140.741 170.79 130.602 172.602 119.982 171.272C102.761 169.115 88.8093 159.269 82.7538 146.63C75.1186 148.664 66.7343 149.294 58.0862 148.211C27.9461 144.437 6.0271 121.3 9.1284 96.5373C12.1197 72.6532 37.2915 55.9797 66.1151 58.2112C72.1468 29.5883 104.326 10.4084 140.142 14.8939C166.093 18.1441 187.127 32.9636 196.286 52.0004C203.22 49.7475 211.021 48.942 219.101 49.9539C236.516 52.135 250.595 62.1787 256.535 75.026C263.467 73.4968 270.949 73.1049 278.643 74.0685C308.783 77.8433 330.702 100.98 327.6 125.742C324.499 150.505 297.551 167.522 267.411 163.747C262 163.069 256.855 161.763 252.071 159.941C246.525 182.291 221.023 197.103 192.699 193.556C173.187 191.112 157.12 180.549 149.059 166.683Z" fill="#ECF1F7"/>
<path fill-rule="evenodd" clip-rule="evenodd" d="M11.8122 86.5556C19.5675 68.1818 41.51 56.3102 66.1154 58.2142C72.1471 29.5913 104.327 10.4114 140.142 14.8969C166.093 18.1471 187.128 32.9666 196.287 52.0034C203.22 49.7505 211.022 48.945 219.101 49.9569C236.517 52.138 250.595 62.1816 256.535 75.0289C263.468 73.4998 270.949 73.1079 278.643 74.0715C304.526 77.3131 324.347 94.8342 327.465 115.403C319.373 134.567 295.843 146.662 269.958 143.42C264.546 142.742 259.402 141.438 254.617 139.614C249.071 161.964 223.57 176.776 195.245 173.229C175.731 170.785 159.664 160.222 151.603 146.358C143.285 150.463 133.146 152.277 122.525 150.947C105.305 148.79 91.353 138.943 85.2975 126.305C77.6626 128.336 69.2783 128.967 60.6302 127.884C34.7495 124.643 14.9311 107.122 11.8122 86.5556Z" fill="#F8FAFB"/>
</svg>
