<svg width="253" height="210" viewBox="0 0 253 210" fill="none" xmlns="http://www.w3.org/2000/svg">
<path fill-rule="evenodd" clip-rule="evenodd" d="M63.4772 167.488C55.1583 171.595 45.0196 173.407 34.3993 172.077C17.1788 169.92 3.22699 160.073 -2.82849 147.435C-10.4637 149.468 -18.848 150.099 -27.496 149.016C-57.6362 145.241 -79.5552 122.105 -76.4539 97.342C-73.4626 73.4579 -48.2908 56.7844 -19.4672 59.0159C-13.4355 30.393 18.744 11.2131 54.5592 15.6986C80.5108 18.9488 101.545 33.7683 110.704 52.8051C117.638 50.5522 125.439 49.7467 133.518 50.7586C150.934 52.9397 165.012 62.9833 170.953 75.8306C177.885 74.3015 185.367 73.9096 193.06 74.8732C223.2 78.648 245.119 101.784 242.018 126.547C238.917 151.31 211.969 168.326 181.829 164.552C176.418 163.874 171.273 162.568 166.488 160.746C160.942 183.096 135.441 197.908 107.117 194.361C87.6043 191.917 71.5382 181.354 63.4772 167.488Z" fill="#ECF1F7"/>
<path fill-rule="evenodd" clip-rule="evenodd" d="M-73.7706 87.3603C-66.0153 68.9865 -44.0728 57.1149 -19.4674 59.0188C-13.4357 30.396 18.7438 11.2161 54.559 15.7016C80.5106 18.9518 101.545 33.7713 110.704 52.8081C117.638 50.5552 125.439 49.7497 133.518 50.7615C150.934 52.9427 165.012 62.9863 170.952 75.8336C177.885 74.3045 185.366 73.9126 193.06 74.8762C218.943 78.1178 238.764 95.6389 241.883 116.207C233.79 135.372 210.261 147.466 184.375 144.224C178.963 143.547 173.819 142.243 169.034 140.419C163.488 162.768 137.987 177.581 109.663 174.034C90.1478 171.589 74.0817 161.027 66.0203 147.162C57.7018 151.267 47.5628 153.082 36.9425 151.752C19.722 149.595 5.7702 139.748 -0.285285 127.11C-7.9202 129.141 -16.3044 129.772 -24.9525 128.689C-50.8333 125.447 -70.6516 107.926 -73.7706 87.3603Z" fill="#F8FAFB"/>
</svg>
