<svg width="265" height="217" viewBox="0 0 265 217" fill="none" xmlns="http://www.w3.org/2000/svg">
<path fill-rule="evenodd" clip-rule="evenodd" d="M237.023 93.6267C240.72 97.3869 243.569 101.885 245.291 107.022C252.539 128.639 237.088 153.312 210.78 162.133C194.841 167.478 178.577 165.776 166.618 158.798C161.533 167.267 152.795 174.406 141.711 178.122C125.265 183.637 108.397 180.026 98.6378 170.168C95.1821 172.174 91.4373 173.881 87.4371 175.223C61.1292 184.044 33.926 173.671 26.6786 152.057C19.4311 130.442 34.8823 105.767 61.1902 96.9455C64.7099 95.7653 68.2459 94.9317 71.7485 94.4199C68.1487 69.6031 86.6818 43.4271 116.336 33.4839C144.3 24.1073 173.078 32.2118 186.404 51.5925C187.416 51.1771 188.451 50.7909 189.508 50.4365C211.134 43.1852 233.498 51.7108 239.456 69.4793C242.14 77.492 241.033 86.0157 237.023 93.6267Z" fill="#ECF1F7"/>
<path fill-rule="evenodd" clip-rule="evenodd" d="M237.022 93.6319C238.183 94.8116 239.259 96.065 240.245 97.3903C240.384 115.899 225.974 134.392 203.949 141.777C188.011 147.121 171.746 145.42 159.787 138.442C154.703 146.911 145.966 154.051 134.881 157.768C118.435 163.282 101.567 159.671 91.8082 149.813C88.3525 151.819 84.6077 153.527 80.6075 154.868C58.5869 162.252 35.9411 156.185 24.8933 141.335C24.7543 122.828 39.1676 104.337 61.1882 96.9533C64.7079 95.7731 68.2438 94.9395 71.7464 94.4277C68.1467 69.6109 86.6798 43.4349 116.334 33.4917C144.298 24.1151 173.076 32.2196 186.402 51.6003C187.414 51.1848 188.449 50.7987 189.506 50.4443C206.801 44.6449 224.568 48.9391 234.036 59.9788C244.372 72.8483 241.45 85.2267 237.022 93.6319Z" fill="#F8FAFB"/>
</svg>
