<svg width="517" height="31" viewBox="0 0 517 31" fill="none" xmlns="http://www.w3.org/2000/svg">
<path d="M473.249 28.1426C474.46 28.9932 470.525 28.5706 473.176 29.8049C472.619 29.9201 472.11 30.0357 471.577 30.1494C471.42 29.6567 471.26 29.1654 471.102 28.6728C471.825 28.4953 472.498 28.3197 473.249 28.1402C473.249 28.141 473.249 28.1418 473.249 28.1426ZM473.964 21.8583C473.38 23.3082 471.249 23.7796 473.61 24.9918C473.769 24.4961 473.932 24.0004 474.089 23.5047C474.868 23.8496 475.707 24.1912 476.506 24.532C476.779 24.3332 477.049 24.1343 477.316 23.9377C477.705 24.7693 478.127 25.6015 478.527 26.4342C478.199 26.3253 477.855 26.2147 477.527 26.1055C476.332 26.8503 475.165 27.0915 473.473 27.2935C473.634 27.4875 473.794 27.6797 473.954 27.8737C473.062 27.5709 472.163 27.2667 471.295 26.9616C472.026 26.5952 472.85 26.1868 473.548 25.8437C472.328 24.5652 470.45 25.3857 469.403 25.7065C468.046 26.1414 468.329 25.4966 467.293 25.8037C467.126 25.8518 467.128 26.348 466.792 26.3699C465.809 26.4335 464.22 26.4076 463.523 26.0998C463.162 25.9299 463.071 25.6752 463.492 25.3041C463.566 25.2421 463.654 25.1769 463.759 25.1082C466.519 25.1496 468.726 24.1306 471.452 24.3551C470.702 23.0475 472.05 22.5359 473.964 21.8583ZM424.199 27.8297C425.016 27.1584 426.706 27.3755 427.845 27.7953C427.846 27.7953 427.848 27.7952 427.849 27.7952C428.1 27.8877 428.686 28.7354 427.874 28.7225C426.549 28.6985 425.866 27.3569 425.188 28.2981C424.869 28.1347 424.534 27.9907 424.199 27.8297ZM421.318 27.9847C420.489 27.6722 420.837 26.639 421.867 26.8901C421.867 26.8893 421.867 26.8884 421.867 26.8876C422.296 26.9926 421.482 27.8234 422.986 26.9627C423.313 27.5937 423.634 28.1672 423.956 28.7775C423.585 28.7976 423.246 28.8232 422.855 28.8416C423.091 27.7843 422.145 28.2945 421.318 27.9847ZM462.414 25.7394C462.329 26.6129 462.778 26.6604 463.564 27.1456C463.636 27.1877 463.71 27.2332 463.787 27.2827C463.715 27.283 463.642 27.2833 463.569 27.2836C462.794 27.2849 462.005 27.285 461.205 27.2869C461.614 26.7703 462.014 26.2558 462.414 25.7394ZM482.735 25.0024C482.736 25.0024 482.738 25.0023 482.739 25.0022C483.019 24.8388 483.296 24.6749 483.564 24.5139C483.748 24.8422 483.93 25.1692 484.112 25.4975C485.135 25.1269 486.085 24.7585 487.094 24.3824C487.023 25.419 485.234 25.3501 484.245 26.1224C482.794 25.8873 481.989 25.3277 481.875 24.459C482.142 24.6404 482.449 24.8222 482.735 25.0024ZM242.309 18.7244C241.95 18.9784 241.596 19.233 241.237 19.4869C241.667 19.6572 242.098 19.7963 242.531 19.9874C243.812 18.8569 243.825 19.9612 245.358 20.0221C250.08 20.2046 248.988 18.1729 252.988 21.3514C249.6 20.9268 250.786 22.3604 248.646 23.2004C248.29 22.3881 250.474 20.8169 249.129 20.3338C246.687 20.9469 244.337 21.5071 241.649 21.7959C241.714 21.9369 241.778 22.0783 241.843 22.2193C242.269 22.1729 242.691 22.1255 243.117 22.079C242.633 22.3967 242.16 22.7122 241.668 23.0331C242.322 22.2719 240.805 22.592 241.088 21.6747C241.214 21.2664 241.918 20.7483 242.339 20.3855C241.365 20.0786 240.373 19.7877 239.385 19.4844C239.936 19.2008 240.487 18.9166 241.031 18.632C241.455 18.6606 241.877 18.6917 242.302 18.72C242.304 18.7215 242.307 18.7229 242.309 18.7244ZM30.4226 20.1755C31.4031 18.9428 33.5662 18.2954 34.9468 19.1118C33.4295 19.4508 31.9321 19.8038 30.4226 20.1755ZM481.745 23.7444C481.894 23.9026 482.033 24.0595 482.193 24.217C481.577 24.5546 480.974 24.8888 480.339 25.2262C480.192 24.7548 480.042 24.2835 479.89 23.8144C480.524 23.7901 481.145 23.7681 481.745 23.7444ZM441.308 25.8512C441.772 25.8075 441.817 25.8217 442.4 25.8713C442.399 25.8709 442.399 25.8706 442.398 25.8702C442.633 25.8883 444.548 26.1055 444.346 26.4801C443.405 26.517 442.388 26.5436 441.403 26.5748C441.366 26.3338 441.352 26.094 441.308 25.8512ZM452.487 25.6922C452.489 25.693 452.49 25.6937 452.491 25.6945C452.834 25.7384 453.158 25.8408 453.524 25.8485C452.254 26.473 452.039 25.4409 450.878 25.7753C449.713 26.1119 449.008 26.7095 447.983 25.32C448.342 25.0945 448.723 24.7764 449.087 24.5155C450.774 25.0272 451.208 24.476 452.499 23.8695C452.495 24.4784 452.491 25.0832 452.487 25.6922ZM262.972 23.3707C263.344 22.6939 263.642 23.4095 263.678 23.4206C263.677 23.4214 263.676 23.4221 263.676 23.4229C266.516 22.9873 263.279 23.7841 265.911 24.0945C265.504 24.2401 265.103 24.3959 264.701 24.5436C264.124 24.1591 263.541 23.7284 262.972 23.3707ZM354.086 26.8905C354.112 27.0955 354.142 27.3009 354.167 27.5059C352.576 27.4545 352.167 28.2597 350.849 27.5199C351.927 27.3091 353.006 27.0988 354.086 26.8881C354.086 26.8889 354.086 26.8897 354.086 26.8905ZM433.263 24.6049C435.037 24.1617 436.295 23.9515 438.023 24.5199C438.024 24.5207 438.025 24.5214 438.027 24.5222C438.126 24.5574 437.664 25.0005 437.795 25.1045C438.146 25.0296 438.505 24.9199 438.856 24.8325C438.915 25.1741 438.971 25.5158 439.03 25.8554C438.032 25.789 437.02 25.7226 436.036 25.6549C436.188 25.8511 436.344 26.0456 436.496 26.2418C435.66 26.3706 434.822 26.4987 433.973 26.6272C434.253 26.0559 434.531 25.4845 434.805 24.9113C434.294 24.8085 433.779 24.7099 433.263 24.6049ZM327.641 24.3721C327.917 24.6011 327.391 24.9658 327.822 25.1668C328.253 25.3653 329.063 24.9633 328.863 25.5908C328.275 25.6646 327.659 25.7499 327.062 25.8269C328.957 27.0035 330.899 26.0065 330.9 27.4121C329.069 27.0163 327.536 27.1563 325.754 27.508C325.85 26.3945 327.648 25.4664 326.55 24.3966C326.91 24.3895 327.288 24.3759 327.637 24.3745C327.639 24.3737 327.64 24.3729 327.641 24.3721ZM503.296 7.47834C503.663 7.3801 504.19 7.05291 504.492 6.86763C504.817 6.68155 504.758 6.68556 504.481 7.39696C504.43 7.55313 504.516 8.19385 504.688 8.91553L503.931 10.308C504.247 11.1166 504.88 11.3771 505.011 11.4122L505.834 9.68402C506.599 10.197 506.703 10.2668 507.201 10.6011L506.612 11.7973C506.621 11.7724 506.654 11.6726 506.736 11.508L507.221 10.6143C507.325 10.4813 507.4 10.4235 507.429 10.4064C507.859 10.8512 508.308 11.2756 508.778 11.6754C508.775 11.6402 508.756 11.6203 508.724 11.622L508.399 12.2198C508.306 12.2724 508.28 12.1666 508.239 11.9235C508.444 11.933 508.65 11.9397 508.856 11.944C508.816 12.2895 508.838 12.3493 508.913 12.4123C508.986 12.4681 509.1 12.5131 509.233 12.5766L509.477 12.1271C509.695 12.3131 510.072 12.4737 510.128 12.9632C510.267 12.922 510.397 12.8772 510.52 12.8264L510.387 13.0706C510.847 12.7933 511.229 11.9841 511.566 11.19C511.489 11.7786 511.407 12.4418 511.251 12.8578C512.281 13.1867 512.214 11.8532 512.4 11.6638C512.92 11.1235 513.274 12.2096 512.805 14.1051C512.786 14.1439 512.729 14.2561 512.704 14.2909C511.718 16.0151 510.117 16.9372 510.232 17.7797C511.299 17.3883 512.483 16.9484 513.734 15.7504C513.563 16.2529 513.352 16.7179 513.135 17.1491C509.967 18.3482 507.63 18.6001 504.921 18.909C504.906 18.9134 504.86 18.9284 504.844 18.9319C504.747 18.9344 504.648 18.937 504.546 18.9394C504.32 19.0428 504.078 19.1478 503.846 19.2426C504.023 19.6885 504.197 20.1326 504.386 20.5749C504.006 20.7224 503.603 20.8631 503.223 20.9908C504.075 19.2267 502.459 19.6084 500.579 18.8764C501.444 18.2194 502.66 18.3446 502.391 17.3522C499.356 18.674 495.447 17.8222 492.384 18.9318C491.62 19.2029 491.695 20.5216 489.865 20.5142C489.919 20.3657 489.913 20.104 489.942 19.9114C486.787 20.7369 484.87 21.2167 481.544 20.7394C481.753 21.2033 481.959 21.6694 482.183 22.1325C482.898 21.8602 483.553 21.5866 484.252 21.3135C484.775 22.0689 484.1 22.4522 486.18 22.3306C487.914 22.2277 486.86 21.9404 487.312 21.6828C487.904 21.3321 488.542 21.9186 489.173 21.5262C489.675 21.2239 489.091 20.6139 490.462 20.6922C489.983 21.5603 489.424 22.4596 488.947 23.3361C488.604 23.1678 488.258 22.9965 487.901 22.8264C488.238 22.583 488.56 22.3431 488.881 22.1001C487.705 22.5723 486.596 23.0141 485.393 23.4957C485.729 22.267 484.475 22.7887 483.787 22.9672C482.738 23.245 483.607 22.3672 482.911 22.5417C482.192 22.7193 481.51 23.6844 480.202 23.5488C480.872 22.9776 479.902 22.5416 480.061 22.0366C480.225 21.5315 481.574 21.3556 480.243 20.8778C477.775 21.4086 480.551 23.1694 478.901 23.5547C476.859 24.0195 476.286 20.9578 476.839 20.2694C477.254 19.7286 478.949 19.7544 479.368 19.2139C476.413 18.4152 476.485 20.2622 475.999 20.6473C474.216 22.0469 475.301 18.4766 473.216 19.842C473.228 19.1828 473.235 18.5901 473.248 17.9578C472.882 18.0939 472.64 18.264 472.184 18.3788C473.591 19.6016 472.471 19.595 471.927 19.6201C471.073 19.6607 472.419 20.2293 472.199 20.4002C471.614 20.8578 470.62 20.7033 471.247 21.2423C470.966 20.991 470.66 20.74 470.368 20.4912C469.308 20.8637 467.108 23.7023 469.323 23.0563C469.158 24.0845 468.411 23.6243 467.824 23.4928C467.237 23.3614 467.273 24.0103 466.75 23.9112C464.738 23.511 466 22.3481 466.274 21.4651C463.928 22.0989 465.818 22.4003 463.397 22.8578C463.138 22.9082 462.827 22.9604 462.449 23.0152C462.11 23.7388 463.889 24.4282 462.447 24.894C462.146 23.6712 460.969 22.8303 458.873 22.4986C458.679 22.7896 458.485 23.0831 458.289 23.3741C457.096 22.279 457.6 21.0763 455.545 22.5636C456.583 19.9265 455.882 21.6154 453.916 20.6276C453.516 20.4286 454.403 19.8576 453.846 19.6041C453.598 19.4897 452.985 19.9186 452.393 19.6252C452.1 19.4802 450.704 18.527 449.756 19.0355C450.505 20.2689 448.714 21.4018 450.317 22.3884C447.431 22.231 445.476 22.9002 448.605 21.0779C447.874 20.7217 447.136 20.3672 446.391 20.013C445.896 20.3298 445.37 20.6451 444.885 20.9593C444.772 19.928 444.852 19.6356 442.863 19.882C443.726 19.6099 444.562 19.3343 445.424 19.0595C445.447 18.8498 445.562 18.6287 445.526 18.4272C444.485 18.8595 441.484 19.1273 440.766 19.425C440.057 19.7228 441.444 19.7544 441.249 20.0277C439.593 22.2829 439.677 20.6554 438.435 21.0719C437.705 21.3181 439.472 21.5064 439.08 21.6137C437.631 22.0077 436.907 20.859 435.63 20.8824C436.106 21.5327 436.578 22.1933 437.041 22.8499C435.702 22.8554 434.19 22.8945 432.92 23.1447C432.43 23.2421 432.816 23.7251 432.737 23.7606C432.348 23.9418 430.731 24.257 430.556 24.2639C429.257 24.3045 429.182 23.6222 427.929 23.6193C428.415 23.5479 428.887 23.4826 429.374 23.4131C429.564 22.2981 429.759 21.1829 429.949 20.0658C428.697 20.0203 427.47 19.975 426.229 19.9278C427.149 20.2735 428.045 20.6178 428.975 20.9625C427.577 21.898 426.206 22.8338 424.798 23.7697C424.033 23.2393 423.297 22.7079 422.546 22.1765C420.549 22.373 421.005 24.5967 420 22.6636C419.404 22.844 418.828 23.0237 418.242 23.2014C418.32 22.9201 418.396 22.6383 418.473 22.357C417.769 22.546 417.061 22.7338 416.351 22.9246C417.126 23.8957 417.885 24.9188 418.647 25.8607C417.255 26.1097 417.204 25.2712 416.991 25.0668C416.423 24.5256 415.333 25.2997 414.876 24.7968C414.722 24.6242 416.093 24.0394 415.601 23.4136C415.499 23.2925 413.615 20.9936 412.455 21.5604C412.487 21.9841 412.589 22.5022 412.647 22.9626C411.074 23.2558 410.212 21.0587 410.41 20.4335C409.575 20.8865 408.359 20.9485 408.198 21.6309C407.77 21.6564 407.344 21.681 406.914 21.7064C407.329 20.0442 405.539 20.3831 405.448 21.8069C406.191 21.8273 406.933 21.8492 407.671 21.869C407.148 23.6226 409.419 24.6295 404.708 23.1097C403.8 22.2209 406.295 23.2016 405.555 22.5373C404.285 22.1676 403.113 22.521 401.897 21.9124C400.388 21.1516 402.2 20.3606 398.75 21.4264C406.473 23.8 397.73 23.1486 394.131 23.9832C393.101 21.5153 390.047 20.7774 385.86 21.5695C386.307 22.2552 387.624 21.8819 388.386 22.099C389.149 22.3162 388.333 22.7376 389.283 23.0473C390.229 23.3571 392.258 23.766 393.223 24.2392C392.417 24.6438 388.412 25.6267 391.051 24.4771C389.06 23.821 388.129 23.1302 385.666 23.0332C384.945 24.1204 385.011 24.792 382.618 24.8506C384.016 23.3362 381.286 22.3255 381.868 20.7708C383.567 21.1123 382.637 22.6275 383.625 23.3363C383.727 23.4072 385.299 23.011 385.666 23.0332C384.058 21.7015 383.503 21.2046 384.462 19.5848C383.339 19.7391 382.636 19.545 382.542 20.314C382.303 19.9836 382.063 19.6528 381.828 19.3222C381.461 19.3346 381.131 19.369 380.742 19.3669C381.29 20.5195 380.243 19.8176 379.514 20.35C378.782 20.8829 379.781 21.788 377.755 21.8196C378.433 22.0845 379.052 22.3111 379.708 22.5612C378.405 22.8724 377.096 23.1844 375.789 23.4934C376.715 24.1937 378.716 25.2263 378.671 26.1578C378.065 25.8123 376.003 26.4486 375.777 26.4757C374.901 26.5781 375.374 25.9869 375.307 25.973C373.932 25.6988 372.8 25.9067 372.272 25.0204C371.242 25.4289 370.459 25.2049 369.365 25.2336C368.762 25.2493 368.883 25.9022 368.529 25.78C366.178 24.9627 368.412 24.1106 363.891 25.7337C364.44 26.1875 364.982 26.6515 365.533 27.1089C365.021 27.2826 364.513 27.457 364.002 27.6303C363.66 27.5485 363.32 27.466 362.977 27.384C362.982 26.3967 362.989 25.4074 362.994 24.4202C362.619 24.3673 362.242 24.3158 361.867 24.2627C362.51 24.1642 363.155 24.0656 363.798 23.9665C363.856 23.7926 363.91 23.6187 363.969 23.4448C363.012 23.1785 362.06 22.909 361.105 22.6393C361.087 22.9827 361.07 23.3286 361.052 23.672C358.898 23.1964 358.846 22.9056 356.8 23.8504C355.225 23.8388 353.936 25.2716 353.021 25.8734C352.694 25.68 352.367 25.4841 352.037 25.2905C351.827 25.5755 351.614 25.8591 351.403 26.1439C350.989 25.745 350.57 25.3458 350.157 24.9487C349.922 25.8494 349.8 26.131 351.42 26.454C350.863 27.5743 348 27.0659 346.841 26.681C345.961 26.3894 346.946 25.4601 346.836 25.3456C346.47 24.9567 345.019 25.28 344.712 25.2133C343.42 24.9363 342.515 24.9749 341.352 24.7566C341.126 24.7129 340.499 24.1135 340.446 24.0943C340.032 23.9886 338.994 23.6888 338.877 23.6791C332.815 23.1601 339.27 25.8188 333.623 25.4685C333.788 25.8103 333.938 26.1496 334.1 26.4913C333.671 26.5056 333.238 26.5187 332.811 26.5327C332.274 26.2406 332.937 25.7355 331.856 26.134C331.932 25.7171 332.009 25.3001 332.09 24.8853C331.619 25.1033 331.166 25.3195 330.685 25.5369C329.966 24.0742 327.221 23.6921 327.453 21.9926C327.53 21.4148 329.482 20.8571 328.468 20.2189C327.639 20.081 328.188 20.7839 327.848 20.8137C325.393 21.0173 325.568 20.049 324.553 20.2858C324.386 20.698 324.21 21.1181 324.038 21.5343C323.662 21.4037 323.286 21.2728 322.907 21.1418C322.812 21.4191 322.714 21.6966 322.619 21.9738C322.975 22.0009 323.376 22.0292 323.703 22.0553C323.216 23.1286 319.035 23.5094 320.648 22.6272C321.303 22.2694 322.487 22.4573 321.768 21.1608C320.654 21.3177 319.368 21.4724 318.185 21.6237C318.156 21.3475 318.13 21.0709 318.101 20.7947C316.511 20.928 317.921 22.0691 317.902 22.6587C317.538 22.665 317.171 22.669 316.808 22.675C316.663 22.404 316.525 22.1206 316.372 21.8575C316.351 22.1943 316.2 22.8826 315.604 22.951C315.448 22.9686 315.262 22.9448 315.04 22.8627C314.347 22.6027 315.482 21.5667 314.145 21.6733C314.223 22.3383 314.678 23.1601 313.189 23.3256C313.065 22.63 312.883 21.9906 312.793 21.2609C310.946 21.8637 310.132 20.7677 307.951 21.459C306.578 21.8967 304.613 23.5534 303.843 20.847C302.847 20.7351 303.136 21.413 302.835 21.55C301.421 22.1986 300.416 20.885 300.164 20.7991C298.519 20.2465 297.779 20.6504 296.44 19.9869C296.49 20.4846 296.507 20.9542 296.543 21.4388C297.832 20.759 298.434 20.8227 300.171 21.0609C299.583 21.1338 298.996 21.2086 298.41 21.2808C298.486 21.6862 298.562 22.0917 298.635 22.4948C304.099 21.1573 302.727 23.5994 298.182 23.9389C297.828 23.1786 297.466 22.4197 297.114 21.6569C294.436 22.6547 293.28 21.6178 290.336 21.225C289.986 21.1794 288.701 21.5372 288.144 21.5268C288.153 21.5301 288.162 21.5335 288.171 21.5369C287.789 22.218 288.235 22.5665 288.256 23.1957C287.952 23.2574 287.648 23.3187 287.345 23.3802C286.706 22.8648 286.962 22.4867 285.65 22.5242C285.798 23.0097 285.944 23.4951 286.092 23.9806C284.66 23.9138 283.756 23.3414 282.403 23.4824C282.639 23.3164 282.872 23.1498 283.107 22.9837C280.231 22.3462 282.713 19.6961 280.443 20.9494C280.32 20.6969 280.201 20.4424 280.078 20.1898C280.978 20.1871 281.88 20.1853 282.783 20.1805C282.822 19.8368 282.863 19.4946 282.899 19.1506C281.927 19.1947 280.959 19.241 279.992 19.2829C280.709 19.0964 281.425 18.9089 282.142 18.7211C281.037 18.4868 279.938 18.2509 278.827 18.0128C279.933 19.3577 278.382 19.4129 278.59 20.6873C276.681 19.5128 275.216 18.0323 272.103 18.6987C271.485 18.8312 271.747 19.7322 270.098 18.5404C270.414 19.9663 268.207 20.4633 268.387 21.8104C268.991 21.7906 269.618 21.7958 270.207 21.7596C269.576 21.2511 269.558 19.9769 270.594 19.6739C271.924 19.2887 273.722 20.296 273.747 18.8849C274.254 18.9865 274.729 19.0582 275.224 19.148C274.995 19.4828 274.77 19.82 274.544 20.1549C276.007 19.7058 276.875 19.942 277.499 20.8665C275.808 20.9581 274.089 21.0419 272.394 21.1238C272.638 21.201 272.886 21.2789 273.13 21.354C271.788 22.1623 273.056 23.1076 270.645 23.1287C270.689 22.719 270.73 22.3088 270.775 21.8971C269.821 22.9334 267.446 22.7523 268.111 24.0714C267.423 23.6305 267.293 23.3739 266.833 24.0242C264.997 22.9216 263.883 21.6138 264.665 20.2169C263.948 20.3963 263.224 20.5751 262.504 20.7532C262.88 21.1812 263.26 21.6075 263.636 22.0352C262.408 21.9152 261.174 21.7933 259.959 21.673C259.935 20.4923 262.341 21.5047 261.711 20.4006C261.585 20.1791 260.891 20.5773 260.728 20.4451C259.012 19.0185 261.793 20.1722 261.335 19.1476C258.651 18.6274 260.95 17.1588 257.099 18.2354C257.028 17.889 256.951 17.5352 256.887 17.1915C255.598 17.0642 255.634 17.8363 254.505 17.8869C253.798 17.9178 253.037 16.5022 252.191 17.3496C252.036 17.5058 253.202 19.2581 250.471 18.9496C248.357 18.7094 249.34 17.6278 248.235 17.1172C247.122 16.6061 244.367 17.978 243.757 16.0871C244.338 16.3828 245.084 16.5812 245.732 16.8385C246.034 16.5082 246.328 16.1809 246.627 15.8522C245.066 16.1746 243.544 15.4931 242.443 16.2447C240.538 14.7681 238.154 15.7556 238.633 17.2719C239.321 17.1235 238.653 16.4199 239.544 16.9113C239.608 17.2602 239.677 17.6079 239.741 17.9568C238.161 17.7693 237.067 17.6764 237.882 16.7069C237.64 16.6593 237.4 16.6121 237.158 16.5645C237.044 17.3106 236.935 18.0599 236.821 18.8059C236.522 18.8632 236.219 18.9194 235.918 18.9763C235.607 18.781 235.296 18.5836 234.983 18.3858C235.538 17.2404 236.293 17.2725 233.864 16.3737C233.817 16.783 233.768 17.1905 233.722 17.5998C231.687 16.881 231.72 15.882 229.101 15.6685C231.244 14.4373 232.105 17.0654 232.37 14.2089C232.857 14.4444 233.347 14.6827 233.833 14.9178C233.948 14.5109 234.064 14.1033 234.176 13.696C231.45 13.6593 226.689 15.9501 225.051 13.9688C224.811 14.168 224.572 14.3382 224.326 14.5535C222.655 13.2917 221.652 15.6642 219.986 14.08C219.815 13.9141 220.427 11.6531 218.074 11.5078C218.103 11.8122 218.085 12.318 218.096 12.6995C217.605 12.4669 217.119 12.226 216.632 11.9896C216.514 12.2567 216.392 12.5233 216.273 12.7924C217.129 12.9836 217.984 13.1766 218.839 13.3677C218.111 13.3926 217.376 13.417 216.647 13.4418C217.542 13.984 217.966 14.03 217.329 14.6977C216.51 14.6618 215.689 14.6285 214.87 14.5927C214.768 14.7697 214.667 14.949 214.565 15.126C214.906 15.7164 215.252 16.2949 215.592 16.8935C213.514 16.2364 211.669 16.0332 210.144 14.7906C209.884 14.5805 210.936 13.9557 208.981 14.4223C208.988 14.0385 208.967 13.7243 208.968 13.3689C206.547 14.2136 205.818 13.8224 203.473 12.8225C204.97 13.69 203.618 13.0898 203.182 13.4375C202.884 13.6771 203.954 13.7388 203.807 14.0055C203.66 14.27 202.17 15.254 203.341 15.5001C206.461 13.4903 206.99 16.2977 210.823 15.5587C210.221 15.798 209.615 16.0376 209.013 16.277C209.263 16.5027 209.488 16.7072 209.76 16.9474C207.724 16.3003 208.707 16.688 207.819 16.9582C206.93 17.2285 205.349 17.3794 204.299 17.3774C203.968 17.3767 204.363 16.8969 203.627 16.779C203.125 16.6981 201.678 17.3281 201.444 16.4024C201.29 15.7997 203.656 14.402 200.593 14.1182C200.07 13.4925 201.522 13.8077 201.56 13.7419C201.892 13.0869 200.055 12.3986 199.136 12.8372C199.062 12.8754 199.699 13.4693 198.933 13.6078C197.116 13.9399 196.144 13.2379 195.073 12.3108C194.861 13.2643 193.264 14.28 191.439 13.7575C191.319 14.0251 191.204 14.2956 191.085 14.5653C191.386 14.4449 191.686 14.3263 191.987 14.2061C192.286 14.4075 192.609 14.5635 192.897 14.7953C191.006 14.8642 190.629 16.1716 189.691 16.5787C186.483 17.9714 188.646 14.6185 189.253 14.0612C189.631 14.3416 189.991 14.6496 190.363 14.9423C190.349 14.6023 190.335 14.2598 190.324 13.9181C189.051 13.8081 188.443 13.587 188.184 13.3063C187.51 12.5764 189.184 11.4435 187.54 10.8456C186.797 12.4472 185.07 12.4579 182.979 11.2251C182.737 11.2131 182.494 11.1948 182.252 11.1849C182.191 11.4228 182.161 11.7915 182.082 11.9449C179.43 12.0065 179.172 9.42241 178.941 9.16031C177.921 7.99959 176.938 9.41184 176.611 9.39852C175.233 9.34052 174.885 8.6512 173.554 8.83157C172.122 9.02761 173.046 9.60715 172.583 10.0258C172.212 10.3581 171.097 10.3369 170.611 10.6741C170.816 10.3837 171.041 10.1008 171.246 9.8093C169.82 9.28333 168.657 8.78938 167.007 8.56649C164.976 10.656 163.653 6.78727 164.081 9.87971C165.635 10.2003 166.487 10.6119 167.268 11.4497C166.232 11.473 165.196 11.4948 164.16 11.5203C163.884 11.1645 163.694 10.8234 163.363 10.4577C162.544 11.113 160.783 10.6842 160.069 10.8449C156.726 11.5997 157.66 12.8791 154.803 10.6481C156.97 10.5893 157.036 9.60038 159.165 9.8805C158.752 9.14288 157.654 9.21652 158.415 8.41688C156.327 8.48715 156.947 9.28823 156.097 9.90638C155.364 10.4393 153.966 10.3824 153.996 11.1395C153.879 10.7169 153.794 10.3096 153.677 9.88755C152.334 9.80647 150.997 9.72414 149.653 9.64744C150.252 9.25012 150.85 8.85239 151.448 8.45792C151.025 8.26825 150.604 8.07946 150.179 7.89014C146.799 9.02913 141.237 6.26006 141.965 9.68486C140.368 9.70767 140.192 9.2748 139.361 8.5918C139.253 8.84319 139.149 9.05159 139.039 9.33196C138.023 9.01156 137.188 9.93491 136.297 9.64127C135.407 9.34977 135.221 8.43046 135.018 9.95202C134.451 9.48624 133.884 9.09532 133.32 8.66174C132.952 8.99298 132.586 9.32046 132.224 9.65024C131.685 9.44418 131.137 9.23896 130.595 9.03371C130.267 9.75007 128.128 9.34694 127.15 9.80054C126.274 8.97968 126.394 6.50279 124.244 6.87014C124.277 7.48629 124.31 8.10063 124.343 8.71678C123.858 8.57118 123.373 8.42638 122.886 8.28152C122.863 8.08006 122.844 7.87871 122.822 7.67725C123.069 7.74771 123.314 7.81784 123.562 7.89059C123.356 7.54384 123.155 7.19888 122.954 6.85241C122.189 7.32973 121.433 7.80833 120.666 8.28753C121.665 8.69963 122.654 9.1135 123.652 9.52914C122.368 9.9362 121.513 9.45807 120.393 9.9265C119.461 9.04906 119.828 8.57121 120.247 7.66275C119.887 7.73039 119.524 7.79543 119.166 7.86358C119.429 6.95039 118.839 6.38228 120.927 6.52126C120.792 6.2542 120.653 5.99932 120.521 5.72212C120.176 5.75289 119.961 5.5242 119.582 5.61424C118.549 5.86095 117.724 7.45673 117.778 8.02552C117.807 8.32336 118.827 7.78387 118.775 8.20266C118.646 9.22367 116.358 8.69747 119.648 9.822C118.525 10.4409 118.299 9.94244 117.086 9.7211C117.173 10.0648 117.256 10.4063 117.339 10.75C116.777 10.5774 116.216 10.406 115.656 10.2348C116.486 8.50115 112.336 7.74177 116.126 6.30023C115.015 6.19329 113.918 6.08862 112.805 5.98238C113.037 5.8072 113.27 5.63394 113.503 5.45899C114.006 5.56527 114.497 5.67024 114.995 5.77533C114.416 5.43234 113.835 5.09193 113.249 4.75018C111.843 5.12793 111.288 5.7454 110.64 6.50769C112.242 7.1026 111.729 6.32111 112.995 6.19397C112.941 6.68316 112.989 7.13522 112.868 7.64782C112.235 6.61785 110.107 7.31679 109.607 7.35899C108.104 7.48567 109.296 6.50665 108.293 6.4704C107.294 6.43484 106.097 7.0142 105.287 6.01666C105.296 6.57133 105.356 7.14572 105.409 7.65123C103.848 7.81795 104.167 7.16683 104.006 7.08033C101.428 5.66609 100.015 6.83784 97.072 6.98897C97.4453 7.1594 97.823 7.3135 98.2011 7.47434C95.9892 8.65806 97.4741 8.29014 99.4079 8.67974C97.5952 8.56128 96.5715 9.56894 95.2956 9.87533C94.0331 10.1803 91.834 9.69161 91.0359 9.3035C92.8519 8.62974 94.8244 9.03606 96.8647 8.85002C96.6299 8.28603 96.4018 7.80896 96.1587 7.18952C94.9226 8.38185 94.207 7.59621 93.7991 7.44274C92.593 6.9937 92.6412 8.01156 91.903 6.92638C91.9375 7.30251 91.9632 7.6188 91.9972 7.97008C89.5367 7.84431 86.841 7.23944 85.2709 8.67583C85.0992 7.77587 84.9637 6.90803 84.768 5.99028C83.7524 6.70101 82.8083 6.03472 81.9355 6.22555C81.0614 6.4173 81.4348 7.13423 80.4025 7.45683C80.2125 7.51628 79.7929 7.0755 79.337 7.43293C78.8747 7.79116 77.2545 10.3924 76.9333 8.2038C76.2911 8.22855 75.6762 8.21689 75.0612 8.21321C74.8215 8.21211 74.5819 8.21217 74.3409 8.21588C74.5775 8.16712 74.8151 8.11889 75.0533 8.07101C75.6485 7.94946 76.2478 7.83027 76.8495 7.71059C76.2177 7.29133 75.5908 6.87461 74.9631 6.45886C74.8444 6.38201 74.7257 6.3052 74.6069 6.2284C74.5409 6.709 74.4757 7.19822 74.414 7.67243C72.5088 8.36422 71.0454 7.68063 69.1119 8.00818C68.7858 8.06407 69.6277 8.94324 68.1575 8.81533C66.7041 8.68929 65.4649 7.02443 63.0548 7.93085C62.9313 7.97786 62.3276 9.38604 61.3636 8.54667C61.143 8.35648 61.9514 7.96205 61.4659 7.73171C60.9777 7.49947 58.8762 7.49107 58.6508 6.85324C58.698 7.0833 58.8521 7.31025 58.9397 7.54013C58.6055 7.68869 58.2535 7.83993 57.9082 7.98897C57.8292 7.58341 57.7472 7.17756 57.6681 6.7741C55.7412 7.95893 54.9026 9.62723 51.8388 9.51291C52.7467 9.99411 53.6893 10.4773 54.5799 10.9686C54.7551 10.5232 54.9323 10.075 55.1077 9.63014C56.5204 9.62573 57.9019 9.63434 59.3011 9.65211C59.4745 9.15251 59.646 8.65477 59.8233 8.1553C60.1964 8.1784 60.5675 8.20047 60.9443 8.2246C60.8866 8.57788 60.8283 8.92943 60.7679 9.28308C61.4984 9.12291 62.1911 8.96747 62.9107 8.8138C61.6521 10.9792 58.7952 9.05812 59.1729 10.7354C58.8285 10.5064 58.4634 10.2784 58.1094 10.0496C58.0574 10.8884 57.3741 10.7241 56.2041 10.732C56.5249 11.1044 56.854 11.4706 57.1445 11.8515C55.9557 11.4089 53.9729 11.7109 52.772 11.6481C52.2494 11.6193 52.6796 10.957 52.5186 10.9072C51.6999 10.643 50.3317 11.8909 50.0183 11.8531C48.0937 11.632 46.5578 9.85726 44.7394 11.4779C46.8791 11.4597 45.7221 11.5087 46.5817 12.1079C46.8633 12.2939 49.623 12.3491 46.208 12.6647C45.8307 12.6778 39.4378 12.3955 41.2744 11.0094C40.3538 11.5134 39.6109 12.0441 38.7867 12.562C36.0198 10.272 37.3006 12.6776 38.2111 13.9593C37.8491 14.0354 37.5096 14.1165 37.1425 14.189C37.6447 12.5514 33.5603 13.2763 32.3531 14.3307C31.9514 14.6775 33.3287 14.8683 32.3249 15.3218C31.8129 15.3266 31.1925 15.3257 30.6422 15.3306C31.6147 16.0851 30.2115 16.7822 30.4426 17.724C29.2824 17.1074 28.1386 15.5022 28.4299 14.4128C27.7118 14.9965 27.0252 15.5769 26.3127 16.1714C26.7384 16.3016 27.1746 16.4282 27.5902 16.5631C24.8492 16.5995 21.8897 18.8434 20.8076 17.037C20.4645 17.1477 20.1393 17.2523 19.7888 17.3669C19.7757 17.7278 19.7675 18.0881 19.7567 18.4486C18.1345 18.6022 16.51 18.7738 14.8911 18.959C16.2025 18.3353 16.3775 17.7708 17.9414 17.7238C17.2668 17.5099 16.6062 17.2919 15.9286 17.0832C15.4052 17.5584 14.9967 17.97 14.6537 18.3151C13.7509 19.1943 13.0223 19.7152 10.6403 20.2524C10.4949 20.2771 7.76236 20.2672 7.64379 20.2302C7.13065 19.9949 7.50672 19.2425 7.26911 19.1156C6.92158 18.9457 5.9285 18.7678 4.81212 18.7789C4.23001 18.8262 3.70452 18.7317 2.63383 19.438C2.11583 19.7203 1.23164 21.0198 1.12531 21.8632C0.984879 22.6378 0.986328 22.4987 0.949184 22.5226C0.844062 22.5093 0.630484 22.162 0.786263 21.1248C0.955086 20.083 1.56325 19.1491 1.94772 18.6682C2.75364 17.6826 3.16946 17.3368 3.62392 16.9136C4.5033 16.1299 5.38354 15.5371 6.39581 14.9658C8.40649 13.8371 10.8096 12.9089 12.7793 12.2074C14.0183 11.7663 15.0729 11.424 15.7306 11.1968C34.947 4.51731 54.96 2.28735 74.6871 1.52661C83.7835 1.18484 92.8385 1.15655 101.915 1.09649C102.211 1.093 102.083 0.706165 102.21 0.690268C102.994 0.597297 103.767 1.20521 104.051 1.23241C104.667 1.28878 104.332 0.729756 104.783 0.733446C109.455 0.78392 113.849 1.19856 118.513 1.23466C118.816 1.23708 118.494 1.67296 119.028 1.60965C119.304 1.57446 120.186 0.917586 120.81 0.926756C122.977 0.959267 124.798 1.2413 127.079 1.31784C128.335 1.35938 130.198 1.49298 131.6 1.54328C132.22 1.56558 132.873 1.28171 133.482 1.29868C134.347 1.32322 134.142 1.94786 134.273 1.99317C134.849 2.19154 134.962 1.5012 135.517 1.54373C136.548 1.62566 136.577 2.09127 137.886 2.11609C138.824 2.13276 140.978 1.87598 142.162 1.83179C144.888 2.51507 148.362 2.50052 150.943 2.47995C152.467 2.46725 152.568 3.125 153.187 3.16154C155.371 3.28618 157.076 2.56607 159.129 2.67697C161.85 2.82516 164.22 3.54184 166.848 3.77305C167.274 3.81042 167.219 3.20968 167.639 3.2252C169.193 3.28322 171.184 3.32469 172.557 3.51568C174.088 3.72728 174.588 4.63291 176.106 4.57654C176.551 4.55949 176.74 3.81463 177.487 3.77689C178.681 3.71914 179.921 4.4905 180.738 4.6326C181.857 4.82476 180.94 3.97432 182.454 4.20407C182.517 4.21374 182.699 4.78243 183.028 4.78358C183.986 4.78929 183.928 4.34819 185.317 4.50781C185.451 4.52468 187.254 5.20692 187.437 5.22512C187.819 5.26114 188.337 5.33117 188.874 5.40434C189.858 5.53791 190.905 5.68205 191.324 5.64686C193.641 5.45454 191.918 4.46741 193.7 6.43561C194.595 6.07379 195.483 5.70587 196.427 5.36211C195.785 5.70434 198.189 6.50384 198.364 6.48295C199.818 6.31614 199.032 5.53931 200.83 5.82337C198.291 7.21193 203.144 6.24888 204.198 6.30817C209.281 6.58801 213.84 7.43653 218.918 7.91918C220.616 8.07988 222.928 7.96055 224.722 8.14253C225.141 8.18355 224.788 8.53421 225.156 8.57812C225.523 8.61935 225.156 8.15185 225.574 8.21511C228.169 8.61563 230.137 9.62 232.623 8.83789C232.726 8.99495 232.711 9.10994 232.889 9.28862C234.929 8.5706 238.577 10.14 239.978 10.4373C242.171 10.9016 242.784 10.3405 244.384 10.6102C246.489 10.9676 249.583 12.4443 248.328 10.3454C249.79 10.4123 251.189 10.5171 252.651 10.8273C252.812 10.8621 252.656 11.3541 252.721 11.37C253.128 11.4774 253.302 11.0398 253.583 11.0431C254.347 11.0522 253.062 11.4846 254.158 11.4263C254.736 11.3942 255.095 11.0306 256.685 11.1547C266.259 11.9095 276.623 12.8051 286.431 13.4409C287.104 13.4842 286.688 12.9726 287.532 13.0523C290.462 13.3315 295.664 14.4218 298.213 14.4272C300.741 14.4331 300.206 13.695 301.809 13.4677C302.12 13.4233 301.849 13.8176 302.128 13.836C303.965 13.9535 306.192 14.6766 307.68 14.8282C308.672 14.9296 308.617 14.2886 309.311 14.2685C310.345 14.24 311.396 14.9217 311.937 14.9607C313.4 15.0621 314.619 14.9548 315.847 14.9054C316.763 14.8675 317.684 14.8628 318.724 15.0056C318.633 14.8625 318.574 14.7308 318.498 14.5903C321.375 14.6927 324.223 14.783 327.084 14.8637C326.951 14.7327 326.824 14.6006 326.692 14.4675C330.047 14.6051 329.647 15.9856 329.402 13.0443C329.649 12.9454 329.911 12.8302 330.147 12.7392C330.028 14.2501 332.027 15.3945 334.623 15.8172C334.816 15.8491 336.106 14.3917 335.944 16.1324C336.282 15.7105 336.484 15.4193 336.769 15.0483C337.31 15.5831 337.859 16.1113 338.402 16.6434C338.699 16.5683 339.001 16.4959 339.299 16.4206C339.347 16.0796 339.317 15.7246 339.416 15.3904C340.793 15.3548 343.601 15.803 344.693 15.7676C347.389 15.6791 350.148 14.7694 352.239 15.7738C353.262 15.6753 352.248 15.0021 353.77 15.091C353.941 15.4308 354.102 15.7564 354.281 16.1065C355.53 14.5927 355.784 15.5158 357.488 15.8336C358.641 16.0493 359.397 15.6784 360.494 15.7495C360.773 15.7678 360.734 16.2129 360.924 16.1982C361.561 16.1517 363.379 15.5351 363.829 15.5171C367.905 15.3438 371.41 15.3921 375.292 15.524C375.71 15.5372 375.165 15.1024 375.597 15.1175C376.294 15.1408 375.89 15.8192 376.293 15.8488C377.418 15.9275 377.421 15.216 378.986 15.1636C384.144 14.9914 390.083 15.4477 395.47 15.4062C395.64 15.4034 395.623 14.9867 395.807 14.9795C397.005 14.9393 398.223 15.4819 399.303 15.4565C401.093 15.4161 402.452 14.8047 404.219 14.7722C407.693 14.7058 410.81 14.9391 414.368 14.8736C417.306 14.8199 419.837 14.7023 423.037 14.6214C436.245 14.2854 449.688 12.673 462.999 12.6157C463.814 12.6113 464.611 12.6131 465.392 12.6216C465.745 12.6261 465.616 13 465.723 12.9798C466.739 12.7796 466.84 12.2779 467.249 13.3032C468.571 13.044 468.926 12.2468 470.549 12.2346C471.399 12.2279 470.806 13.4666 472.219 12.7804C473.517 12.1581 472.026 11.5608 475.932 12.0653C476.042 12.079 476.546 12.7959 477.357 12.5657C478.161 12.3374 477.222 11.8525 479.122 11.6026C483.672 11.0093 489.456 11.3565 494.579 10.7593C494.904 10.7277 497.899 10.0659 498.422 9.81292C499.446 9.33691 499.218 8.82054 500.383 8.50934C501.031 8.32512 501.372 8.57806 502.068 8.52177L501.547 8.67678C501.835 8.62962 502.117 8.55519 502.402 8.41957C502.518 8.36094 502.546 7.68114 503.296 7.47834ZM236.89 19.4695C236.534 20.0666 235.773 22.3163 234.023 21.4451C233.857 21.3629 234.935 19.8687 233.957 19.5225C234.952 19.4481 235.917 19.4842 236.891 19.4671C236.891 19.4679 236.891 19.4687 236.89 19.4695ZM516.941 11.8755C516.81 12.6793 516.75 13.8383 516.015 15.4787C515.94 15.637 515.707 16.0939 515.604 16.2355C514.662 17.5107 513.701 18.1622 512.871 18.6786C513.561 17.9598 514.335 17.1113 514.981 15.8181C515.068 15.6995 515.263 15.3165 515.326 15.1839C515.501 14.5544 515.554 13.9974 515.559 13.5197C516.078 12.9022 516.515 12.3387 516.941 11.8755ZM345.539 26.3535C345.54 26.3535 345.541 26.3535 345.542 26.3536C344.106 26.6412 342.66 26.9275 341.224 27.2113C341.377 26.9934 341.53 26.7746 341.683 26.5567C342.819 26.222 343.958 25.8866 345.092 25.5495C345.241 25.8175 345.39 26.0855 345.539 26.3535ZM356.88 24.075C357.795 24.3364 357.571 24.7761 358.074 25.2046C358.074 25.2038 358.074 25.203 358.074 25.2022C358.207 25.3138 358.827 25.4113 359.066 25.4279C358.978 25.1526 358.864 24.8809 358.768 24.6077C360.903 23.9409 365.088 26.3014 359.676 27.2634C359.756 26.9157 359.833 26.5697 359.914 26.222C357.222 26.3218 354.229 25.562 356.88 24.075ZM215.298 18.4017C212.909 19.3138 212.154 19.4815 209.465 18.4383C209.886 18.1548 210.308 17.8713 210.729 17.5878C211.154 17.9595 211.576 18.3286 212.001 18.7003C212.003 18.7005 212.004 18.7006 212.005 18.7007C212.13 18.3655 212.255 18.0297 212.376 17.6942C213.349 17.9297 214.326 18.1659 215.298 18.4017ZM444.668 23.3553C445.371 25.607 445.156 24.2921 443.352 24.8637C442.724 25.062 443.354 25.4397 442.962 25.5186C440.827 25.9491 440.63 24.4307 441.069 23.6238C442.274 23.5319 443.501 23.4432 444.664 23.3554C444.665 23.3554 444.666 23.3553 444.668 23.3553ZM499.774 20.1755C499.775 20.1754 499.776 20.1752 499.778 20.1751C499.901 20.7194 499.017 20.9686 500.085 21.3771C499.314 21.464 498.588 21.5327 497.822 21.602C498.025 21.5313 498.269 21.4586 498.478 21.3861C498.268 21.2153 498.044 21.0431 497.833 20.8716C497.646 21.529 497.335 21.1866 496.558 21.0391C496.829 21.6995 497.091 22.3607 497.382 23.0185C496.452 22.8977 495.518 22.7686 494.596 22.6345C494.572 22.4642 494.548 22.2936 494.524 22.1233C494.21 22.3668 493.863 22.6144 493.547 22.8567C493.443 22.6588 493.341 22.4625 493.236 22.2645C492.848 22.4474 492.408 22.6328 492.033 22.8154C491.872 22.3285 492.769 22.055 491.169 22.2861C491.648 21.745 492.061 21.2089 492.543 20.6656C494.953 20.5399 497.33 20.4048 499.774 20.1755ZM428.081 24.5553C430.72 24.3869 429.99 24.7666 429.406 25.9094C428.964 25.4581 428.512 25.0071 428.081 24.5553ZM292.271 23.0531C291.463 23.7797 290.653 24.4977 289.83 25.1949C288.257 25.5383 286.761 24.0503 287.972 23.5698C289.421 22.9923 290.844 23.8073 292.271 23.0531ZM256.804 20.9778C258.675 21.4889 256.812 22.2516 256.34 22.7461C255.887 21.8508 255.144 21.865 253.972 21.6664C255.087 21.7049 256.496 20.8919 256.804 20.9754C256.804 20.9762 256.804 20.977 256.804 20.9778ZM322.938 25.0765C323.704 25.0716 324.472 24.8743 325.155 25.1498C324.931 25.8796 323.571 25.181 324.53 26.2911C324.038 26.2988 323.545 26.3057 323.058 26.315C323.378 25.8713 322.97 25.5247 322.94 25.079C322.939 25.0782 322.938 25.0774 322.938 25.0765ZM402.57 26.0165C401.053 25.1756 400.766 25.5529 399.274 26.182C399.049 25.4782 400.823 24.2607 401.953 23.9783C402.157 24.6576 402.362 25.3373 402.57 26.0165ZM49.2728 14.3749C49.4981 13.427 52.0847 12.9405 53.4102 13.0404C53.2727 13.1933 53.1357 13.348 52.9998 13.503C51.7708 13.7825 50.5075 14.076 49.2728 14.3749ZM253.416 21.5581C253.611 21.6011 253.797 21.6366 253.972 21.6664C253.775 21.6596 253.587 21.6282 253.416 21.5581ZM174.303 10.3887C174.996 9.59001 173.156 9.15848 175.391 9.66881C175.391 9.668 175.391 9.66719 175.391 9.66638C176.869 10.0037 177.194 10.0887 178.574 10.2669C177.987 11.3155 175.149 11.4779 178.999 12.0161C179.05 12.0213 179.002 11.3649 179.612 11.5041C179.801 11.5474 180.367 12.129 181.283 12.3609C181.579 12.4354 183.821 12.7872 180.746 12.5417C180.774 13.3084 180.546 14.0631 180.492 14.8001C179.278 14.9153 178.479 13.3535 177.207 13.2877C175.318 13.194 174.243 14.6231 174.035 12.6219C175.657 12.2607 178.38 12.4687 178.638 13.6841C180.167 13.8235 180.688 12.8886 179.492 12.3062C174.147 12.4882 178.154 10.7427 173.454 11.1525C173.377 11.4225 173.164 11.703 173.173 11.9631C171.832 10.8877 174.055 10.6741 174.303 10.3887ZM185.204 13.3947C184.239 13.8959 183.281 14.4031 182.322 14.9085C182.402 13.9639 182.975 13.1578 184.46 12.7481C184.707 12.9642 184.958 13.1806 185.204 13.3947ZM108.188 9.39017C108.049 9.90355 107.692 10.3708 107.43 10.8579C107.158 10.4119 100.574 9.94206 103.931 9.54184C104.411 9.48186 107.384 10.426 108.188 9.39017ZM412.969 25.0237C412.184 24.6957 411.398 24.3668 410.611 24.0382C411.807 23.7928 412.996 23.5411 414.177 23.2904C413.775 23.8681 413.374 24.4461 412.969 25.0237ZM279.656 21.4117C279.985 21.4521 278.844 22.0895 280.15 22.0609C279.154 22.4517 278.219 22.7756 277.249 23.1388C276.989 22.7855 276.726 22.4334 276.467 22.08C276.233 22.2801 275.996 22.4786 275.762 22.6786C275.927 22.2001 276.075 21.7319 276.247 21.2456C277.76 22.3963 278.203 21.2352 279.656 21.4117ZM326.973 21.486C327.237 22.5534 324.926 23.1374 327.184 23.3534C326.739 24.042 326.047 24.3943 324.715 24.4272C324.507 24.1558 324.299 23.8863 324.092 23.6148C324.046 24.3277 323.697 24.5854 322.938 25.0765C322.937 25.0757 322.937 25.0749 322.936 25.0741C320.916 25.0776 321.046 24.8415 320.592 23.6563C322.702 24.372 322.795 23.3009 324.267 22.6969C325.286 22.2814 326.572 22.5067 326.973 21.486ZM115.216 9.51569C113.69 10.3763 115.029 11.2413 112.374 10.2319C112.55 10.0078 112.728 9.78576 112.906 9.5618C113.679 9.5431 114.447 9.52801 115.216 9.51569ZM334.364 25.2536C334.213 23.6081 332.81 22.3074 332.525 24.9765C333.905 25.5426 333.25 24.0179 334.364 25.2536ZM257.662 18.4666C260.311 18.7598 259.665 20.5671 258.492 21.4027C258.351 21.0527 258.209 20.7021 258.072 20.3544C257.593 20.469 257.116 20.5838 256.639 20.696C256.98 19.9536 257.321 19.2092 257.662 18.4666ZM381.352 23.4852C379.325 24.6807 383.56 24.1138 382.144 24.862C381.012 25.4605 379.504 24.2931 380.062 23.5463C380.453 23.5216 380.892 23.5026 381.348 23.4852C381.35 23.4852 381.351 23.4852 381.352 23.4852ZM369.575 23.9178C369.916 25.1697 369.431 24.8074 371.04 24.5719C371.5 24.5057 375.154 24.9497 373.614 23.922C372.311 23.9317 370.929 23.9227 369.575 23.9178ZM226.845 17.5192C226.872 16.9734 229.787 16.0488 230.114 16.3811C230.114 16.3803 230.114 16.3795 230.115 16.3787C231.004 17.2852 228.047 17.1187 229.218 18.3578C226.476 17.1032 225.402 19.3976 225.901 16.2852C227.582 16.3086 226.73 16.878 226.845 17.5192ZM15.0543 19.4196C15.0531 19.42 15.0519 19.4204 15.0507 19.4208C15.228 19.3921 16.9482 19.7081 16.8463 20.0295C16.0022 20.168 15.5529 20.1246 15.2191 20.1575C14.8045 20.2056 14.5136 20.3625 13.768 21.0803C13.5974 20.8411 13.4382 20.6072 13.2536 20.3704C13.8437 20.0157 14.1042 19.5948 14.9957 19.4296C15.0149 19.4261 15.0344 19.4228 15.0543 19.4196ZM101.063 8.22407C101.746 8.08329 103 8.68197 103.783 8.65322C101.272 10.9052 98.3331 8.78611 101.063 8.22407ZM473.97 21.8556C473.968 21.8565 473.966 21.8574 473.964 21.8583C473.965 21.857 473.965 21.8558 473.966 21.8545C473.967 21.8549 473.969 21.8552 473.97 21.8556ZM154.125 11.5709C154.046 11.4181 154.005 11.287 153.994 11.1736C153.995 11.163 153.995 11.1525 153.996 11.1419C154.035 11.2828 154.077 11.4255 154.125 11.5709ZM221.019 17.1211C219.928 16.2502 223.922 15.4213 225.151 15.8302C225.03 16.1677 224.986 16.48 224.743 16.8576C223.815 15.8637 221.202 17.2678 221.019 17.1211ZM309.742 23.3117C306.655 23.1787 310.778 20.3202 310.865 22.7223C310.857 22.7686 309.822 23.3106 309.742 23.3117ZM245.248 19.0893C246.111 18.2524 244.559 17.8716 247.06 18.2522C247.186 18.5001 247.311 18.7485 247.437 18.9964C246.706 19.0272 245.976 19.059 245.248 19.0893ZM289.769 18.4533C285.876 18.7478 282.128 19.4107 284.499 22.0698C284.796 22.0067 285.097 21.9464 285.394 21.8831C285.51 20.6629 286.546 21.3943 288.137 21.5239C288.394 21.0515 289.272 20.9877 289.459 20.5841C289.82 19.804 288.848 19.188 289.769 18.4533ZM453.293 20.2907C453.237 20.5019 453.182 20.7141 453.126 20.9232C452.518 21.1809 451.93 21.4366 451.324 21.6938C451.409 21.2894 451.494 20.8851 451.578 20.4807C452.154 20.417 452.696 20.3542 453.289 20.2897C453.29 20.29 453.292 20.2904 453.293 20.2907ZM189.193 11.1469C188.641 13.4085 189.905 13.0926 192.494 12.1571C191.395 11.8194 190.295 11.4826 189.193 11.1469ZM351.925 21.0582C352.003 21.7121 352.08 22.3641 352.162 23.0181C353.491 22.3413 353.246 21.5918 352.614 20.7247C352.382 20.8357 352.156 20.9473 351.925 21.0582ZM371.006 20.7502C370.455 20.6173 370.739 21.1433 370.682 21.1331C369.289 20.864 369.093 20.6231 367.388 21.0286C367.18 21.1682 366.975 21.3149 366.766 21.4586C367.561 22.8249 368.131 22.076 369.806 22.8716C369.502 22.4035 369.2 21.9346 368.896 21.4643C369.825 21.5587 370.75 21.6512 371.68 21.7444C371.789 21.5988 371.899 21.4545 372.008 21.3089C371.676 21.1249 371.334 20.9178 371.006 20.7502ZM460.403 20.6246C461.325 20.6436 462.233 20.6647 463.118 20.6842C463.137 20.3459 463.155 20.0053 463.174 19.6669C462.272 19.9857 461.346 20.3052 460.403 20.6246ZM170.611 10.6741C170.53 10.788 170.451 10.9028 170.38 11.0202C170.398 10.8719 170.484 10.7616 170.611 10.6741ZM12.2234 18.3618C11.1745 18.4447 9.79865 19.0513 8.71727 19.3711C9.07599 20.1343 11.7141 19.0192 12.8318 19.2131C12.9445 19.0187 12.6667 18.3261 12.2234 18.3618ZM261.326 18.8371C261.616 18.4366 261.905 18.0379 262.19 17.6369C262.805 17.731 263.425 17.8277 264.043 17.9212C264.088 17.5779 264.132 17.2317 264.177 16.8885C261.399 17.1228 262.109 16.1775 260.837 15.0903C261.001 16.3387 261.161 17.5867 261.326 18.8371ZM488.98 17.1209C487.03 17.4718 486.362 17.9443 487.514 18.9179C488.236 18.6379 488.868 18.3619 489.584 18.0795C489.383 17.7601 489.172 17.441 488.98 17.1209ZM134.525 7.65251C132.842 7.96323 132.884 6.57207 131.219 7.2778C132.084 7.57172 132.936 7.86917 133.791 8.16502C134.033 7.99443 134.282 7.82292 134.525 7.65251ZM216.239 10.1106C215.587 9.56104 214.06 11.7249 212.26 9.84421C211.743 10.3036 211.403 10.7574 210.953 11.213C210.771 10.6526 210.558 10.0824 210.386 9.5273C210.384 9.52717 210.383 9.52705 210.382 9.52692C208.583 9.53677 209.673 10.3224 209.578 10.8892C209.536 11.1239 208.252 10.6015 208.616 11.1561C209.244 12.1082 211.957 11.8569 211.861 12.9352C210.959 12.4926 209.103 12.611 209.574 13.3819C210.09 14.2278 211.94 13.0716 212.973 13.8326C211.568 11.9583 214.764 12.8045 215.004 14.163C217.006 13.3321 215.297 12.7479 213.34 12.6062C214.63 11.708 212.822 12.0857 212.615 11.2153C213.894 10.8254 218.07 11.6586 216.239 10.1106ZM305.882 18.8029C304.549 18.8163 302.53 18.1486 301.59 18.9673C301.043 19.4447 303.09 19.9217 301.633 20.6455C302.919 20.6246 303.222 20.3293 303.033 19.6317C303.328 19.5614 303.627 19.4931 303.923 19.4247C304.053 19.5646 304.186 19.7029 304.316 19.8428C304.482 19.5659 304.648 19.2912 304.81 19.014C305.119 19.0824 305.433 19.151 305.743 19.2213C305.786 19.0803 305.853 18.9588 305.882 18.8029ZM86.7303 6.94375C87.1023 6.92632 87.4632 6.90967 87.8288 6.89122C87.7848 6.72432 87.7329 6.55065 87.6827 6.37924C87.6465 6.24372 87.6102 6.10819 87.5739 5.97267C87.7967 6.454 89.5616 7.22702 90.2989 6.6955C90.6665 6.42875 89.8058 5.51535 91.3747 5.32969C90.2436 5.39378 89.1676 5.53956 88.0656 5.64192C88.159 5.36456 88.2486 5.08436 88.3424 4.80704C88.3418 4.80665 88.3411 4.80626 88.3404 4.80586C87.9704 4.75151 87.5968 4.69471 87.2285 4.64122C87.0632 5.40907 86.8961 6.17567 86.7303 6.94375ZM350.855 19.7614C349.606 20.2964 349.181 20.5745 349.769 21.4509C349.771 21.4513 349.772 21.4517 349.773 21.4522C350.243 21.0674 350.708 20.6825 351.175 20.2974C351.07 20.1189 350.964 19.9399 350.855 19.7614ZM160.045 7.02111C157.16 10.1496 163.288 8.53097 162.227 7.3259C162.179 7.27041 160.27 7.40327 160.045 7.02111ZM257.259 17.4096C257.988 17.4426 258.72 17.478 259.456 17.5105C259.32 17.0904 259.18 16.6714 259.045 16.2513C258.449 16.637 257.853 17.0245 257.259 17.4096ZM480.309 16.0792C479.465 15.2089 477.517 14.9706 476.6 16.0037C477.088 16.0974 477.625 16.1887 478.136 16.2808C477.156 16.4406 476.265 16.6068 475.286 16.7584C475.305 18.0275 476.347 17.2447 478.058 17.515C478.327 17.5591 480.029 19.0549 480.562 17.8401C480.672 17.5906 478.869 17.5117 480.082 16.7428C479.526 16.7139 479.087 16.7472 478.583 16.74C478.532 16.4398 478.482 16.1393 478.428 15.8394C479.051 15.9195 479.665 16.001 480.309 16.0792ZM298.206 18.5694C296.407 18.4143 296.147 18.9079 295.728 19.7846C296.576 19.7248 297.435 19.6661 298.272 19.6039C298.248 19.2597 298.23 18.9156 298.206 18.5694ZM464.113 16.4896C463.12 16.3847 463.541 17.067 463.178 17.2393C463.171 17.2427 463.164 17.2459 463.157 17.2489C461.712 17.8269 460.603 17.3476 459.15 17.7293C459.242 17.585 459.327 17.4501 459.416 17.3101C459.414 17.3101 459.413 17.3102 459.412 17.3102C452.317 16.9571 456.114 18.4743 460.314 18.047C460.425 18.3141 460.532 18.5817 460.642 18.8468C461.637 18.5609 462.567 18.2818 463.204 17.8964C463.817 17.5438 464.178 17.1034 464.113 16.4896ZM183.692 8.7176C183.625 8.54172 184.402 7.52462 183.072 7.91945C181.921 9.40325 183.658 8.76448 184.025 9.4036C183.664 9.52471 183.296 9.64118 182.939 9.76282C184.982 10.3814 185.318 10.0353 184.656 8.82379C184.609 8.74207 183.758 8.89296 183.692 8.7176ZM170.055 6.84829C169.595 9.14 172.302 8.29962 172.263 7.57467C171.902 7.5181 171.589 7.88819 171.217 7.68559C170.842 7.48265 170.783 6.93456 170.055 6.84829ZM245.17 14.2598C245.094 14.2426 244.414 13.2021 244.421 13.9692C245.209 15.855 247.234 14.8678 246.953 14.211C246.315 14.1854 245.868 14.4176 245.17 14.2573C245.17 14.2582 245.17 14.259 245.17 14.2598ZM492.153 14.8599C492.097 14.8001 490.165 14.5343 489.96 14.9106C489.785 15.3321 489.711 15.7767 489.583 16.2096C490.583 15.7558 492.768 15.9075 492.149 14.8602C492.151 14.8601 492.152 14.86 492.153 14.8599Z" fill="#FEEA94"/>
</svg>
