<svg width="360" height="276" viewBox="0 0 360 276" fill="none" xmlns="http://www.w3.org/2000/svg">
<path fill-rule="evenodd" clip-rule="evenodd" d="M319.094 198.67C325.52 207.533 329.978 217.651 331.925 228.73C340.117 275.354 300.759 321.23 244.016 331.201C209.64 337.241 176.773 328.715 154.379 310.688C141.32 326.503 121.171 338.455 97.2635 342.657C61.7917 348.89 28.2768 336.256 11.2913 312.997C3.57567 316.047 -4.64119 318.394 -13.269 319.91C-70.0114 329.881 -122.653 300.167 -130.845 253.548C-139.037 206.929 -99.6788 161.048 -42.9365 151.077C-35.345 149.744 -27.8273 149.126 -20.4776 149.159C-20.1895 97.0937 25.9602 49.0861 89.919 37.8472C150.234 27.2487 206.811 52.7926 228.173 96.7064C230.38 96.1666 232.625 95.694 234.904 95.2935C281.548 87.0971 324.826 111.521 331.56 149.845C334.593 167.127 329.682 184.284 319.094 198.67Z" fill="#ECF1F7"/>
<path fill-rule="evenodd" clip-rule="evenodd" d="M319.094 198.665C321.111 201.447 322.933 204.353 324.546 207.379C319.106 245.423 283.798 278.931 236.294 287.279C201.917 293.319 169.051 284.794 146.657 266.767C133.597 282.581 113.45 294.538 89.542 298.739C54.0702 304.972 20.5556 292.339 3.57004 269.08C-4.14559 272.129 -12.3625 274.476 -20.9903 275.992C-68.4855 284.338 -113.103 264.875 -131.19 230.969C-125.749 192.929 -90.4355 159.424 -42.9403 151.078C-35.3488 149.744 -27.8314 149.127 -20.4817 149.16C-20.1936 97.0947 25.9563 49.0871 89.9152 37.8482C150.23 27.2496 206.807 52.7935 228.169 96.7073C230.376 96.1675 232.621 95.6949 234.9 95.2944C272.204 88.7393 307.352 103.053 323.376 128.648C340.615 158.269 330.786 182.779 319.094 198.665Z" fill="white"/>
</svg>
