<svg width="289" height="360" viewBox="0 0 289 360" fill="none" xmlns="http://www.w3.org/2000/svg">
<path fill-rule="evenodd" clip-rule="evenodd" d="M491.588 108.883C499.172 116.778 504.979 126.186 508.432 136.893C522.961 181.946 490.287 232.8 435.456 250.482C402.238 261.195 368.51 257.271 343.85 242.497C333.09 259.957 314.777 274.568 291.675 282.018C257.398 293.072 222.464 285.169 202.44 264.468C195.217 268.55 187.401 272.005 179.064 274.694C124.233 292.376 68.0041 270.186 53.4767 225.137C38.9493 180.088 71.6212 129.23 126.452 111.548C133.788 109.182 141.149 107.536 148.434 106.558C141.557 54.948 180.663 1.04811 242.468 -18.8827C300.751 -37.678 360.304 -20.1603 387.504 20.3972C389.616 19.559 391.774 18.7821 393.977 18.0718C439.05 3.53656 485.276 21.7746 497.219 58.8077C502.6 75.5078 500.096 93.1778 491.588 108.883Z" fill="#ECF1F7"/>
<path fill-rule="evenodd" clip-rule="evenodd" d="M491.587 108.88C493.968 111.357 496.173 113.985 498.187 116.76C498.032 155.191 467.669 193.238 421.765 208.041C388.547 218.754 354.819 214.831 330.159 200.056C319.399 217.516 301.088 232.131 277.985 239.581C243.708 250.635 208.774 242.732 188.75 222.031C181.528 226.113 173.712 229.568 165.374 232.257C119.479 247.057 72.6086 233.917 50.0286 202.822C50.1846 164.395 80.5533 126.351 126.449 111.55C133.785 109.185 141.146 107.539 148.43 106.561C141.553 54.9505 180.659 1.0505 242.464 -18.8803C300.747 -37.6756 360.301 -20.1579 387.501 20.3996C389.612 19.5614 391.771 18.7845 393.973 18.0742C430.021 6.44945 466.804 15.7916 486.196 38.9394C507.346 65.9067 500.982 91.5359 491.587 108.88Z" fill="white"/>
</svg>
