<svg width="16" height="16" viewBox="0 0 16 16" fill="none" xmlns="http://www.w3.org/2000/svg">
<g clip-path="url(#clip0_16948_25310)">
<path d="M8.00065 14.6693C11.6826 14.6693 14.6673 11.6845 14.6673 8.0026M8.00065 14.6693C4.31875 14.6693 1.33398 11.6845 1.33398 8.0026M8.00065 14.6693C10.1523 14.6693 12.0659 13.65 13.2848 12.068C11.7271 11.1779 9.92322 10.6693 8.00065 10.6693M8.00065 14.6693C5.84905 14.6693 3.93558 13.65 2.71663 12.068C4.27435 11.1779 6.07808 10.6693 8.00065 10.6693M14.6673 8.0026C14.6673 6.1638 13.9229 4.49884 12.7189 3.29275M14.6673 8.0026H13.334M12.7189 3.29275C11.5121 2.08386 9.84372 1.33594 8.00065 1.33594M12.7189 3.29275L11.6758 4.33594M8.00065 1.33594C6.15758 1.33594 4.48918 2.08386 3.28241 3.29275M8.00065 1.33594V2.66927M3.28241 3.29275C2.07845 4.49884 1.33398 6.16377 1.33398 8.0026M3.28241 3.29275L4.32555 4.33594M1.33398 8.0026H2.66732M8.00065 6.66927V10.6693" stroke="#7DADFE" stroke-width="1.2" stroke-linecap="round" stroke-linejoin="round"/>
</g>
<defs>
<clipPath id="clip0_16948_25310">
<rect width="16" height="16" fill="white"/>
</clipPath>
</defs>
</svg>
