<svg width="160" height="160" viewBox="0 0 160 160" fill="none" xmlns="http://www.w3.org/2000/svg">
<path d="M72.2285 157.633C37.4282 157.633 9.21729 156.03 9.21729 154.053C9.21729 152.875 19.2365 151.829 34.7013 151.177C35.1024 151.217 35.5108 151.251 35.9283 151.279C36.3564 151.823 37.0086 152.183 37.7461 152.219C37.7461 152.219 37.7461 152.219 37.7466 152.219C37.7487 152.219 37.7514 152.219 37.7535 152.219C37.754 152.219 37.754 152.219 37.7545 152.219C37.7567 152.219 37.7588 152.22 37.7614 152.22H37.762C37.7646 152.22 37.7667 152.22 37.7688 152.22C37.7694 152.22 37.7699 152.22 37.7699 152.22C37.772 152.22 37.7741 152.22 37.7763 152.22C37.7768 152.22 37.7779 152.22 37.7784 152.22C37.78 152.22 37.7821 152.22 37.7842 152.22C37.7847 152.22 37.7853 152.221 37.7863 152.221C37.7879 152.221 37.79 152.221 37.7916 152.221C37.7927 152.221 37.7932 152.221 37.7937 152.221C37.7959 152.221 37.798 152.221 37.7996 152.221C37.8001 152.221 37.8012 152.221 37.8017 152.221C37.8038 152.221 37.8054 152.221 37.807 152.221C37.8081 152.221 37.8091 152.221 37.8107 152.221C37.8118 152.221 37.8134 152.221 37.8149 152.221C37.816 152.221 37.8171 152.221 37.8181 152.221C37.8197 152.221 37.8213 152.221 37.8229 152.221C37.8239 152.221 37.825 152.221 37.8261 152.221C37.8277 152.222 37.8292 152.222 37.8303 152.222C37.8319 152.222 37.833 152.222 37.834 152.222C37.8356 152.222 37.8367 152.222 37.8382 152.222C37.8393 152.222 37.8409 152.222 37.842 152.222C37.843 152.222 37.8446 152.222 37.8462 152.222C37.8473 152.222 37.8483 152.222 37.8494 152.222C37.851 152.222 37.8526 152.222 37.8541 152.222C37.8557 152.222 37.8573 152.222 37.8589 152.222C37.86 152.222 37.861 152.222 37.8621 152.222C37.8647 152.222 37.8674 152.222 37.8695 152.222H106.769C107.556 152.222 108.258 151.853 108.71 151.279C109.108 151.252 109.499 151.22 109.883 151.183C125.275 151.835 135.24 152.878 135.24 154.053C135.24 156.03 107.029 157.633 72.2285 157.633Z" fill="#B2B2D4"/>
<path d="M144.457 74.2286C144.457 114.119 112.119 146.457 72.2286 146.457C32.338 146.457 0 114.119 0 74.2286C0 34.3375 32.338 1.99963 72.2286 1.99963C112.119 1.99963 144.457 34.3375 144.457 74.2286Z" fill="#000072"/>
<path d="M126.293 40.6953H110.556C109.98 40.6953 109.514 40.2291 109.514 39.6532C109.514 39.0778 109.98 38.6116 110.556 38.6116H126.293C126.869 38.6116 127.336 39.0778 127.336 39.6532C127.336 40.2291 126.869 40.6953 126.293 40.6953Z" fill="#78DD52"/>
<path d="M104.716 40.6953H98.0284C97.4526 40.6953 96.9863 40.2291 96.9863 39.6532C96.9863 39.0778 97.4526 38.6116 98.0284 38.6116H104.716C105.291 38.6116 105.758 39.0778 105.758 39.6532C105.758 40.2291 105.291 40.6953 104.716 40.6953Z" fill="#FCEA0B"/>
<path d="M126.394 49.7266H113.384C112.809 49.7266 112.342 49.2603 112.342 48.6844C112.342 48.1091 112.809 47.6423 113.384 47.6423H126.394C126.969 47.6423 127.436 48.1091 127.436 48.6844C127.436 49.2603 126.969 49.7266 126.394 49.7266Z" fill="#FCEA0B"/>
<path d="M108.576 49.7266H85.6676C85.0922 49.7266 84.6255 49.2603 84.6255 48.6844C84.6255 48.1091 85.0922 47.6423 85.6676 47.6423H108.576C109.151 47.6423 109.618 48.1091 109.618 48.6844C109.618 49.2603 109.151 49.7266 108.576 49.7266Z" fill="#78DD52"/>
<path d="M80.2948 49.7266H68.9821C68.4067 49.7266 67.9399 49.2603 67.9399 48.6844C67.9399 48.1091 68.4067 47.6423 68.9821 47.6423H80.2948C80.8702 47.6423 81.3369 48.1091 81.3369 48.6844C81.3369 49.2603 80.8702 49.7266 80.2948 49.7266Z" fill="#24C6FF"/>
<path d="M126.394 58.1211H100.375C99.7993 58.1211 99.3325 57.6549 99.3325 57.079C99.3325 56.5036 99.7993 56.0374 100.375 56.0374H126.394C126.969 56.0374 127.436 56.5036 127.436 57.079C127.436 57.6549 126.969 58.1211 126.394 58.1211Z" fill="#FF8B00"/>
<path d="M94.3937 58.1211H87.8888C87.3134 58.1211 86.8467 57.6549 86.8467 57.079C86.8467 56.5036 87.3134 56.0374 87.8888 56.0374H94.3937C94.969 56.0374 95.4358 56.5036 95.4358 57.079C95.4358 57.6549 94.969 58.1211 94.3937 58.1211Z" fill="#FCEA0B"/>
<path d="M126.959 65.875H91.3243C90.7485 65.875 90.2822 65.4082 90.2822 64.8329C90.2822 64.257 90.7485 63.7908 91.3243 63.7908H126.959C127.534 63.7908 128.001 64.257 128.001 64.8329C128.001 65.4082 127.534 65.875 126.959 65.875Z" fill="#24C6FF"/>
<path d="M86.5166 65.875H77.1837C76.6084 65.875 76.1416 65.4082 76.1416 64.8329C76.1416 64.257 76.6084 63.7908 77.1837 63.7908H86.5166C87.092 63.7908 87.5588 64.257 87.5588 64.8329C87.5588 65.4082 87.092 65.875 86.5166 65.875Z" fill="#78DD52"/>
<path d="M126.959 73.625H104.9C104.324 73.625 103.857 73.1588 103.857 72.5829C103.857 72.0075 104.324 71.5408 104.9 71.5408H126.959C127.535 71.5408 128.001 72.0075 128.001 72.5829C128.001 73.1588 127.535 73.625 126.959 73.625Z" fill="#78DD52"/>
<path d="M100.092 73.625H83.9718C83.3959 73.625 82.9297 73.1588 82.9297 72.5829C82.9297 72.0075 83.3959 71.5408 83.9718 71.5408H100.092C100.667 71.5408 101.134 72.0075 101.134 72.5829C101.134 73.1588 100.667 73.625 100.092 73.625Z" fill="#FCEA0B"/>
<path d="M126.759 81.3945H117.343C116.768 81.3945 116.301 80.9278 116.301 80.3524C116.301 79.7765 116.768 79.3103 117.343 79.3103H126.759C127.335 79.3103 127.802 79.7765 127.802 80.3524C127.802 80.9278 127.335 81.3945 126.759 81.3945Z" fill="#FF8B00"/>
<path d="M111.163 81.3945H95.8077C95.2324 81.3945 94.7656 80.9278 94.7656 80.3524C94.7656 79.7765 95.2324 79.3103 95.8077 79.3103H111.163C111.739 79.3103 112.205 79.7765 112.205 80.3524C112.205 80.9278 111.739 81.3945 111.163 81.3945Z" fill="#24C6FF"/>
<path d="M126.959 89.7695H107.728C107.152 89.7695 106.686 89.3028 106.686 88.7274C106.686 88.1515 107.152 87.6853 107.728 87.6853H126.959C127.535 87.6853 128.001 88.1515 128.001 88.7274C128.001 89.3028 127.535 89.7695 126.959 89.7695Z" fill="#FCEA0B"/>
<path d="M102.496 89.7695H91.7482C91.1728 89.7695 90.7061 89.3028 90.7061 88.7274C90.7061 88.1515 91.1728 87.6853 91.7482 87.6853H102.496C103.071 87.6853 103.538 88.1515 103.538 88.7274C103.538 89.3028 103.071 89.7695 102.496 89.7695Z" fill="#FF8B00"/>
<path d="M126.959 97.5195H115.081C114.505 97.5195 114.039 97.0533 114.039 96.4774C114.039 95.9021 114.505 95.4353 115.081 95.4353H126.959C127.535 95.4353 128.001 95.9021 128.001 96.4774C128.001 97.0533 127.535 97.5195 126.959 97.5195Z" fill="#78DD52"/>
<path d="M109.142 97.5195H103.485C102.91 97.5195 102.443 97.0533 102.443 96.4774C102.443 95.9021 102.91 95.4353 103.485 95.4353H109.142C109.717 95.4353 110.184 95.9021 110.184 96.4774C110.184 97.0533 109.717 97.5195 109.142 97.5195Z" fill="#78DD52"/>
<path d="M33.9013 98.0234H18.1637C17.5881 98.0234 17.1216 97.5567 17.1216 96.9813C17.1216 96.406 17.5881 95.9392 18.1637 95.9392H33.9013C34.4767 95.9392 34.9434 96.406 34.9434 96.9813C34.9434 97.5567 34.4767 98.0234 33.9013 98.0234Z" fill="#78DD52"/>
<path d="M46.4284 98.0234H39.7413C39.166 98.0234 38.6992 97.5567 38.6992 96.9813C38.6992 96.406 39.166 95.9392 39.7413 95.9392H46.4284C47.0043 95.9392 47.4706 96.406 47.4706 96.9813C47.4706 97.5567 47.0043 98.0234 46.4284 98.0234Z" fill="#FCEA0B"/>
<path d="M31.0734 88.9883H18.0636C17.488 88.9883 17.0215 88.5215 17.0215 87.9462C17.0215 87.3703 17.488 86.9041 18.0636 86.9041H31.0734C31.6487 86.9041 32.1155 87.3703 32.1155 87.9462C32.1155 88.5215 31.6487 88.9883 31.0734 88.9883Z" fill="#24C6FF"/>
<path d="M58.789 88.9883H35.8805C35.3051 88.9883 34.8384 88.5215 34.8384 87.9462C34.8384 87.3703 35.3051 86.9041 35.8805 86.9041H58.789C59.3643 86.9041 59.8311 87.3703 59.8311 87.9462C59.8311 88.5215 59.3643 88.9883 58.789 88.9883Z" fill="#78DD52"/>
<path d="M75.4755 88.9883H64.1627C63.5874 88.9883 63.1206 88.5215 63.1206 87.9462C63.1206 87.3703 63.5874 86.9041 64.1627 86.9041H75.4755C76.0509 86.9041 76.5176 87.3703 76.5176 87.9462C76.5176 88.5215 76.0509 88.9883 75.4755 88.9883Z" fill="#24C6FF"/>
<path d="M44.0826 80.5938H18.0636C17.488 80.5938 17.0215 80.1275 17.0215 79.5522C17.0215 78.9763 17.488 78.51 18.0636 78.51H44.0826C44.6579 78.51 45.1247 78.9763 45.1247 79.5522C45.1247 80.1275 44.6579 80.5938 44.0826 80.5938Z" fill="#FCEA0B"/>
<path d="M56.568 80.5938H50.0631C49.4877 80.5938 49.021 80.1275 49.021 79.5522C49.021 78.9763 49.4877 78.51 50.0631 78.51H56.568C57.1433 78.51 57.6101 78.9763 57.6101 79.5522C57.6101 80.1275 57.1433 80.5938 56.568 80.5938Z" fill="#FCEA0B"/>
<path d="M53.1328 72.8438H17.4982C16.9226 72.8438 16.4561 72.3775 16.4561 71.8016C16.4561 71.2263 16.9226 70.7595 17.4982 70.7595H53.1328C53.7086 70.7595 54.1749 71.2263 54.1749 71.8016C54.1749 72.3775 53.7086 72.8438 53.1328 72.8438Z" fill="#FF8B00"/>
<path d="M67.2735 72.8438H57.9405C57.3652 72.8438 56.8984 72.3775 56.8984 71.8016C56.8984 71.2263 57.3652 70.7595 57.9405 70.7595H67.2735C67.8488 70.7595 68.3156 71.2263 68.3156 71.8016C68.3156 72.3775 67.8488 72.8438 67.2735 72.8438Z" fill="#78DD52"/>
<path d="M39.5577 65.0938H17.4982C16.9226 65.0938 16.4561 64.6275 16.4561 64.0522C16.4561 63.4763 16.9226 63.01 17.4982 63.01H39.5577C40.1331 63.01 40.5999 63.4763 40.5999 64.0522C40.5999 64.6275 40.1331 65.0938 39.5577 65.0938Z" fill="#78DD52"/>
<path d="M60.4855 65.0938H44.3654C43.79 65.0938 43.3232 64.6275 43.3232 64.0522C43.3232 63.4763 43.79 63.01 44.3654 63.01H60.4855C61.0614 63.01 61.5276 63.4763 61.5276 64.0522C61.5276 64.6275 61.0614 65.0938 60.4855 65.0938Z" fill="#FCEA0B"/>
<path d="M27.1136 57.3242H17.6974C17.1219 57.3242 16.6553 56.858 16.6553 56.2826C16.6553 55.7067 17.1219 55.2405 17.6974 55.2405H27.1136C27.689 55.2405 28.1558 55.7067 28.1558 56.2826C28.1558 56.858 27.689 57.3242 27.1136 57.3242Z" fill="#FF8B00"/>
<path d="M48.6492 57.3242H33.2936C32.7182 57.3242 32.2515 56.858 32.2515 56.2826C32.2515 55.7067 32.7182 55.2405 33.2936 55.2405H48.6492C49.2246 55.2405 49.6914 55.7067 49.6914 56.2826C49.6914 56.858 49.2246 57.3242 48.6492 57.3242Z" fill="#24C6FF"/>
<path d="M36.7297 48.9453H17.4982C16.9226 48.9453 16.4561 48.4791 16.4561 47.9032C16.4561 47.3278 16.9226 46.8611 17.4982 46.8611H36.7297C37.305 46.8611 37.7718 47.3278 37.7718 47.9032C37.7718 48.4791 37.305 48.9453 36.7297 48.9453Z" fill="#FCEA0B"/>
<path d="M52.708 48.9453H41.9611C41.3857 48.9453 40.9189 48.4786 40.9189 47.9032C40.9189 47.3278 41.3857 46.8611 41.9611 46.8611H52.708C53.2839 46.8611 53.7507 47.3278 53.7507 47.9032C53.7507 48.4786 53.2839 48.9453 52.708 48.9453Z" fill="#FF8B00"/>
<path d="M29.3761 41.1992H17.4982C16.9226 41.1992 16.4561 40.733 16.4561 40.1571C16.4561 39.5817 16.9226 39.115 17.4982 39.115H29.3761C29.952 39.115 30.4187 39.5817 30.4187 40.1571C30.4187 40.733 29.952 41.1992 29.3761 41.1992Z" fill="#78DD52"/>
<path d="M69.0499 41.1992H35.3155C34.7397 41.1992 34.2734 40.733 34.2734 40.1571C34.2734 39.5817 34.7397 39.115 35.3155 39.115H69.0499C69.6253 39.115 70.092 39.5817 70.092 40.1571C70.092 40.733 69.6253 41.1992 69.0499 41.1992Z" fill="#78DD52"/>
<path d="M72.7583 41.1992H57.9239C57.3486 41.1992 56.8818 40.733 56.8818 40.1571C56.8818 39.5817 57.3486 39.115 57.9239 39.115H72.7583C73.3337 39.115 73.8004 39.5817 73.8004 40.1571C73.8004 40.733 73.3337 41.1992 72.7583 41.1992Z" fill="#FCEA0B"/>
<path d="M43.0726 147.049C41.48 149.325 38.7616 150.548 35.9908 150.365C26.1143 149.71 22.4269 145.59 21.4786 141.012C21.2561 139.931 21.1856 138.823 21.2195 137.731C21.2878 135.709 21.7249 133.739 22.2383 132.068C22.6807 130.638 23.1787 129.431 23.5559 128.598C23.9093 127.823 24.1583 127.373 24.1583 127.373C30.2186 125.647 34.5058 128.847 34.5058 128.847L34.5503 134.64L35.1267 134.609C37.8212 134.46 40.422 135.654 42.0485 137.807C45.1335 141.89 44.5364 144.959 43.0726 147.049Z" fill="white"/>
<path d="M28.2907 132.359C26.9816 132.611 24.7707 132.807 22.2383 132.066C22.6807 130.636 23.1787 129.429 23.5559 128.596C25.0224 129.675 26.696 130.757 28.3903 131.54C28.7755 131.715 28.7071 132.278 28.2907 132.359Z" fill="#88839E"/>
<path d="M25.8944 139.621C24.944 140.126 23.4197 140.769 21.4786 141.012C21.2561 139.93 21.1856 138.823 21.2195 137.73C22.6786 138.199 24.2367 138.602 25.7503 138.809C26.1694 138.867 26.269 139.422 25.8944 139.621Z" fill="#88839E"/>
<path d="M35.3547 149.398C34.3502 149.312 33.4008 149.187 32.5086 149.022C33.476 146.434 35.7006 138.755 29.3987 135.79C29.6519 135.769 29.9025 135.748 30.1536 135.733C30.6538 135.697 31.1491 135.668 31.6413 135.649C32.1335 135.628 32.622 135.615 33.1067 135.604L33.7478 135.586L35.4712 148.958C35.4219 149.096 35.3811 149.244 35.3547 149.398ZM28.5653 135.444C28.5648 135.444 28.5637 135.444 28.5632 135.444C28.5632 135.444 36.6336 129.058 24.5605 128.621C24.6464 128.439 24.7216 128.284 24.7831 128.161C25.3054 128.042 26.3338 127.855 27.636 127.855C29.1433 127.855 31.0177 128.106 32.8996 129.004L33.5104 133.743C33.3213 133.76 33.1332 133.782 32.9462 133.81C32.418 133.889 31.8967 134.005 31.3865 134.16C30.3926 134.458 29.4289 134.869 28.5653 135.444Z" fill="#B2B2D4"/>
<path d="M34.5189 135.554C34.3186 135.568 34.0622 135.572 33.8291 135.58L33.1064 135.6C32.6217 135.611 32.1332 135.624 31.641 135.645C31.1488 135.664 30.6535 135.693 30.1533 135.729C29.6511 135.759 29.1494 135.813 28.6265 135.843H28.6206C28.512 135.85 28.4193 135.767 28.4129 135.659C28.4087 135.588 28.4437 135.523 28.4988 135.485C29.3793 134.886 30.3668 134.462 31.3862 134.156C31.8964 134.001 32.4177 133.885 32.9459 133.806C33.2103 133.766 33.4768 133.739 33.7454 133.721C34.0203 133.708 34.273 133.698 34.5809 133.722C35.0858 133.762 35.463 134.204 35.4227 134.709C35.3862 135.167 35.0179 135.52 34.5718 135.551L34.5189 135.554Z" fill="#000072"/>
<path d="M24.7864 128.155C23.9218 129.887 20.2646 137.877 23.3416 143.493C25.2722 147.016 29.5493 149.022 36.0531 149.452C38.5378 149.615 40.9415 148.495 42.3211 146.526C43.9709 144.171 43.6329 141.423 41.3172 138.36C39.8761 136.453 37.5794 135.391 35.1773 135.526L34.6009 135.558C34.3498 135.573 34.1055 135.483 33.9228 135.31C33.7405 135.139 33.6356 134.9 33.634 134.649L33.5927 129.345C32.5241 128.694 29.2192 127.034 24.7864 128.155ZM36.5315 151.301C36.3323 151.301 36.132 151.294 35.9318 151.281C28.7588 150.806 23.9806 148.481 21.7305 144.368C17.7999 137.184 23.126 127.348 23.3549 126.933C23.4725 126.719 23.6712 126.561 23.9064 126.494C30.3302 124.664 34.8642 127.974 35.0539 128.115C35.2838 128.287 35.42 128.556 35.4221 128.843L35.4597 133.682C38.3275 133.636 41.047 134.961 42.7799 137.254C46.329 141.95 45.306 145.46 43.8226 147.577C42.1897 149.908 39.4374 151.301 36.5315 151.301Z" fill="#000072"/>
<path d="M101.566 147.049C103.158 149.325 105.877 150.548 108.648 150.365C118.524 149.71 122.211 145.59 123.16 141.012C123.382 139.931 123.453 138.823 123.419 137.731C123.35 135.709 122.913 133.739 122.4 132.068C121.958 130.638 121.46 129.431 121.082 128.598C120.729 127.823 120.48 127.373 120.48 127.373C114.42 125.647 110.133 128.847 110.133 128.847L110.088 134.64L109.512 134.609C106.817 134.46 104.216 135.654 102.59 137.807C99.5048 141.89 100.102 144.959 101.566 147.049Z" fill="white"/>
<path d="M116.348 132.359C117.657 132.611 119.868 132.807 122.4 132.066C121.958 130.636 121.46 129.429 121.083 128.596C119.616 129.675 117.943 130.757 116.248 131.54C115.863 131.715 115.931 132.278 116.348 132.359Z" fill="#88839E"/>
<path d="M118.744 139.621C119.694 140.126 121.218 140.769 123.16 141.012C123.382 139.93 123.453 138.823 123.419 137.73C121.96 138.199 120.401 138.602 118.888 138.809C118.469 138.867 118.369 139.422 118.744 139.621Z" fill="#88839E"/>
<path d="M109.213 149.402C109.198 149.298 109.177 149.195 109.149 149.095L109.386 147.253C115.974 146.36 119.314 143.697 120.812 140.492C121.254 140.633 121.735 140.762 122.252 140.865C122.061 141.773 121.753 142.657 121.297 143.49C119.429 146.9 115.365 148.887 109.213 149.402ZM121.558 138.271C121.568 138.225 121.578 138.178 121.588 138.131C121.811 137.049 121.881 135.941 121.847 134.849C121.824 134.167 121.759 133.492 121.664 132.832C122.114 134.4 122.472 136.196 122.505 138.011C122.191 138.102 121.876 138.189 121.558 138.271Z" fill="#B2B2D4"/>
<path d="M122.252 140.867C121.735 140.764 121.254 140.636 120.812 140.494C121.148 139.776 121.391 139.032 121.558 138.274C121.876 138.192 122.192 138.104 122.505 138.013C122.522 138.969 122.449 139.931 122.252 140.867Z" fill="#5F5B91"/>
<path d="M110.057 133.722C110.365 133.698 110.618 133.708 110.893 133.721C111.161 133.738 111.428 133.766 111.692 133.806C112.22 133.885 112.741 134.001 113.252 134.156C114.271 134.462 115.259 134.886 116.139 135.485C116.229 135.546 116.252 135.669 116.191 135.758C116.151 135.817 116.084 135.848 116.018 135.843H116.011C115.488 135.813 114.987 135.759 114.485 135.729C113.984 135.693 113.489 135.664 112.997 135.645C112.505 135.624 112.016 135.611 111.531 135.6L110.809 135.58C110.576 135.572 110.319 135.568 110.119 135.554L110.066 135.551C109.561 135.516 109.18 135.078 109.215 134.573C109.246 134.114 109.611 133.757 110.057 133.722Z" fill="#000072"/>
<path d="M109.058 135.514C106.803 135.514 104.682 136.56 103.322 138.36C101.006 141.423 100.668 144.171 102.318 146.526C103.697 148.495 106.097 149.614 108.586 149.452C115.089 149.022 119.366 147.016 121.297 143.493C124.374 137.877 120.717 129.887 119.852 128.155C115.422 127.035 112.118 128.692 111.046 129.345L111.005 134.649C111.003 134.9 110.898 135.139 110.715 135.31C110.533 135.482 110.289 135.573 110.038 135.558L109.461 135.526C109.326 135.518 109.192 135.514 109.058 135.514ZM108.107 151.301C105.201 151.301 102.449 149.908 100.816 147.577C99.3327 145.46 98.3096 141.95 101.859 137.254C103.592 134.961 106.307 133.655 109.179 133.682L109.216 128.843C109.219 128.556 109.355 128.287 109.584 128.115C109.774 127.973 114.308 124.665 120.732 126.494C120.967 126.561 121.166 126.719 121.284 126.933C121.513 127.348 126.839 137.184 122.908 144.368C120.658 148.481 115.88 150.806 108.707 151.281C108.507 151.294 108.306 151.301 108.107 151.301Z" fill="#000072"/>
<path d="M39.6474 100.769C39.6474 100.769 28.1142 115.966 24.1577 127.374C24.1577 127.374 33.4181 124.611 38.8056 133.254L48.3181 105.445L39.6474 100.769Z" fill="#FF0660"/>
<path d="M32.6326 126.934C30.8053 126.261 29.0278 126.06 27.5587 126.06C26.8053 126.06 26.133 126.112 25.5762 126.181C25.8914 125.377 26.24 124.558 26.6146 123.73C26.827 123.72 27.0448 123.715 27.2673 123.715C27.4527 123.715 27.6413 123.719 27.8331 123.726C28.0127 123.734 28.1918 123.737 28.3703 123.737C29.6747 123.737 30.9446 123.544 32.1494 123.184L32.6326 126.934Z" fill="#B20465"/>
<path d="M27.5586 126.061C30.65 126.061 35.105 126.949 38.5196 131.257L47.1993 105.885L39.9092 101.953C37.8256 104.78 29.3445 116.573 25.5761 126.182C26.1329 126.113 26.8052 126.061 27.5586 126.061ZM38.8046 134.172C38.491 134.172 38.1959 134.011 38.0274 133.74C33.087 125.815 24.7692 128.151 24.4174 128.255C24.0879 128.35 23.7313 128.256 23.4945 128.008C23.2577 127.759 23.1788 127.399 23.2911 127.075C27.2503 115.661 38.4422 100.841 38.9169 100.216C39.1898 99.8558 39.6846 99.7493 40.082 99.9633L48.7526 104.64C49.1473 104.853 49.3301 105.32 49.185 105.744L39.6724 133.552C39.558 133.887 39.2608 134.126 38.909 134.166C38.8746 134.17 38.8396 134.172 38.8046 134.172Z" fill="#000072"/>
<path d="M104.991 100.769C104.991 100.769 116.524 115.966 120.481 127.374C120.481 127.374 111.22 124.611 105.833 133.254L96.3203 105.445L104.991 100.769Z" fill="#FF0660"/>
<path d="M112.006 126.934L112.489 123.184C113.694 123.544 114.964 123.737 116.268 123.737C116.447 123.737 116.626 123.733 116.805 123.726C116.997 123.718 117.186 123.715 117.371 123.715C117.594 123.715 117.811 123.72 118.024 123.729C118.398 124.557 118.746 125.377 119.062 126.181C118.505 126.112 117.834 126.059 117.081 126.059C115.611 126.059 113.833 126.26 112.006 126.934Z" fill="#B20465"/>
<path d="M97.439 105.885L106.119 131.257C110.365 125.899 116.22 125.832 119.062 126.182C115.294 116.573 106.813 104.78 104.729 101.953L97.439 105.885ZM105.833 134.172C105.799 134.172 105.764 134.17 105.729 134.166C105.378 134.126 105.08 133.887 104.966 133.552L95.4533 105.744C95.3082 105.32 95.491 104.853 95.8857 104.64L104.556 99.9633C104.954 99.7488 105.449 99.8558 105.721 100.216C106.196 100.841 117.388 115.661 121.347 127.075C121.46 127.4 121.381 127.761 121.143 128.009C120.905 128.258 120.548 128.352 120.219 128.254C119.869 128.151 111.551 125.815 106.611 133.74C106.442 134.011 106.147 134.172 105.833 134.172Z" fill="#000072"/>
<path d="M43.8052 82.0317C43.8052 82.0317 33.5859 83.0553 33.8386 93.4097C34.0913 103.764 45.2033 109.32 54.2952 104.774C54.2952 104.774 41.3686 100.511 43.8052 82.0317Z" fill="#88839E"/>
<path d="M36.4803 99.4414C35.4091 97.6645 34.8088 95.602 34.7548 93.3848C34.5725 85.9215 40.2498 83.7456 42.7531 83.1496C42.7335 83.3477 42.7155 83.5443 42.6996 83.7387C39.6909 84.8179 35.2422 87.5787 35.4096 94.4549C35.4541 96.2753 35.8345 97.9468 36.4803 99.4414Z" fill="#CFCDD8"/>
<path d="M42.7534 83.1528C40.2501 83.7488 34.5727 85.9247 34.755 93.388C34.8594 97.6682 37.0013 101.375 40.6315 103.558C44.0662 105.623 48.2113 106.022 52.0428 104.724C50.775 104.004 49.0659 102.805 47.4437 100.934C44.7687 97.8489 41.8527 92.295 42.7534 83.1528ZM47.5501 107.305C44.8063 107.305 42.0943 106.577 39.6869 105.129C35.5078 102.616 33.0422 98.3532 32.9219 93.4325C32.6522 82.3565 43.6032 81.1316 43.7139 81.1205C43.9931 81.0924 44.2686 81.1936 44.463 81.3944C44.658 81.5957 44.7507 81.8744 44.7136 82.152C43.7451 89.4992 45.1083 95.3895 48.765 99.6586C51.4903 102.841 54.5535 103.895 54.5843 103.905C54.9355 104.023 55.1824 104.341 55.2079 104.71C55.2338 105.08 55.0362 105.429 54.7045 105.595C52.4211 106.737 49.9729 107.305 47.5501 107.305Z" fill="#000072"/>
<path d="M100.833 82.0317C100.833 82.0317 111.053 83.0553 110.8 93.4097C110.547 103.764 99.4351 109.32 90.3433 104.774C90.3433 104.774 103.27 100.511 100.833 82.0317Z" fill="#88839E"/>
<path d="M108.179 88.125C106.398 85.6169 103.735 84.4572 101.954 83.9364C101.935 83.6773 101.912 83.4151 101.885 83.1497C103.452 83.5226 106.262 84.515 108.101 87.0342C108.141 87.3849 108.167 87.7483 108.179 88.125Z" fill="#CFCDD8"/>
<path d="M104.292 103.379H100.242C100.75 102.908 101.207 102.41 101.616 101.883C102.328 100.967 102.887 99.9723 103.295 98.8942C106.155 96.6277 108.077 93.1941 108.181 88.9552C108.188 88.6717 108.187 88.3952 108.179 88.1255C108.963 89.2312 109.577 90.5986 109.867 92.2886C109.887 92.641 109.893 93.0065 109.883 93.3853C109.782 97.5522 107.749 101.176 104.292 103.379Z" fill="#5F5B91"/>
<path d="M109.867 92.2891C109.577 90.599 108.963 89.2316 108.178 88.1259C108.166 87.7492 108.14 87.3858 108.101 87.0351C109.051 88.3368 109.741 90.0464 109.867 92.2891Z" fill="#908FB9"/>
<path d="M92.5958 104.724C96.4273 106.022 100.573 105.624 104.007 103.558C107.637 101.375 109.779 97.6682 109.884 93.388C110.066 85.9247 104.389 83.7488 101.885 83.1528C102.786 92.295 99.8699 97.8489 97.1949 100.934C95.5727 102.805 93.8636 104.004 92.5958 104.724ZM97.0885 107.305C94.6652 107.305 92.218 106.737 89.9341 105.595C89.6019 105.429 89.4027 105.079 89.4297 104.709C89.4567 104.338 89.7041 104.02 90.0564 103.904C90.0851 103.895 93.1483 102.841 95.8736 99.6586C99.5303 95.3895 100.893 89.4992 99.925 82.152C99.8879 81.8744 99.9806 81.5957 100.175 81.3944C100.371 81.1936 100.647 81.0924 100.925 81.1205C101.035 81.1316 111.986 82.3565 111.717 93.4325C111.596 98.3532 109.131 102.616 104.952 105.129C102.544 106.577 99.8318 107.305 97.0885 107.305Z" fill="#000072"/>
<path d="M81.2713 46.724C81.2713 46.724 80.6159 29.6942 94.0331 19.9024C95.3576 18.9361 97.2431 19.7011 97.5388 21.3143C98.8187 28.2971 100.428 44.7309 89.0498 51.4402C89.0498 51.4402 81.7301 55.3502 81.2713 46.724Z" fill="white"/>
<path d="M85.1799 43.0913C85.1799 43.0913 84.9436 31.5661 93.0824 25.7282C93.7314 25.2625 94.6432 25.6297 94.7772 26.4175C95.467 30.4689 96.6013 41.2227 90.2326 45.5384C89.7404 45.8722 89.1926 46.1233 88.6135 46.26C87.324 46.5641 85.359 46.4592 85.1799 43.0913Z" fill="#F4A2CB"/>
<path d="M89.15 50.3008C88.289 49.5538 87.3889 48.8756 86.4512 48.268C86.7669 48.1355 86.954 48.0354 86.954 48.0354C88.1661 47.3207 89.2316 46.4952 90.1645 45.5829C90.1873 45.5681 90.2101 45.5533 90.2323 45.5379C92.8676 43.7519 94.218 40.8635 94.8474 37.8044C96.804 31.8665 96.4861 25.1576 95.8556 20.5028C96.2715 20.6803 96.5555 21.0347 96.6371 21.4798C97.8302 27.9894 99.4386 43.6486 89.15 50.3008Z" fill="#B2B2D4"/>
<path d="M90.165 45.5859C92.4119 43.3905 93.8975 40.6901 94.8479 37.8074C94.2185 40.8665 92.8681 43.755 90.2329 45.5409C90.2106 45.5563 90.1878 45.5711 90.165 45.5859Z" fill="#AA71B0"/>
<path d="M82.1872 46.6836C82.3085 48.9459 82.9289 50.4097 84.0309 51.0343C85.7877 52.0298 88.3885 50.7488 88.6052 50.638C99.4952 44.1936 97.8512 28.102 96.6375 21.4795C96.5537 21.0229 96.2565 20.6621 95.8232 20.4888C95.3967 20.3193 94.9405 20.3749 94.5734 20.643C81.7835 29.9764 82.175 46.3085 82.1872 46.6836ZM85.6049 53.2383C84.7832 53.2383 83.9255 53.0793 83.135 52.6338C81.4471 51.6817 80.512 49.7098 80.3557 46.7726L80.3552 46.7594C80.3483 46.5798 80.2036 42.2958 81.7369 36.7414C83.1567 31.5997 86.3482 24.3759 93.4926 19.1622C94.3673 18.5238 95.4926 18.3834 96.5024 18.786C97.519 19.1913 98.2438 20.0745 98.4404 21.1489C99.7246 28.1545 101.425 45.2071 89.5154 52.2295C89.5043 52.2364 89.4926 52.2428 89.4815 52.2486C89.3771 52.3042 87.5959 53.2383 85.6049 53.2383Z" fill="#000072"/>
<path d="M63.4694 45.1409C63.4694 45.1409 58.9211 28.7166 43.1644 23.4621C41.6089 22.9434 40.0444 24.2451 40.2526 25.8716C41.1543 32.9131 44.6123 49.0598 57.4906 51.9965C57.4906 51.9965 65.6517 53.499 63.4694 45.1409Z" fill="white"/>
<path d="M58.8915 43.053C58.8915 43.053 55.4992 31.6067 45.6323 28.4057C44.8455 28.1503 44.0614 28.7999 44.1769 29.6189C44.7708 33.8335 47.0336 44.8014 54.6754 47.0573C55.2661 47.2316 55.8854 47.3068 56.4995 47.2596C57.8679 47.1542 59.7741 46.4326 58.8915 43.053Z" fill="#F4A2CB"/>
<path d="M55.3873 50.3906C54.1704 49.9101 53.053 49.2918 52.031 48.566C52.6525 48.7048 53.2935 48.8108 53.9547 48.8796C53.9547 48.8796 54.0618 48.8865 54.2467 48.8865C55.6904 48.8865 61.8768 48.4818 59.0705 41.3586C59.0705 41.3586 54.2451 29.6236 42.4692 24.2642C42.6038 24.2652 42.74 24.2875 42.8745 24.332C57.8641 29.3306 62.4797 45.0148 62.5846 45.3814C62.6381 45.5875 62.6858 45.7888 62.7266 45.9843C60.0342 46.993 57.5833 48.4637 55.3873 50.3906Z" fill="#B2B2D4"/>
<path d="M57.671 51.0951C57.9004 51.1322 60.7751 51.5677 62.1489 50.0832C63.0093 49.1534 63.1555 47.5709 62.5849 45.3786C62.48 45.012 57.8644 29.3278 42.8748 24.3292C42.4431 24.1861 41.9917 24.2704 41.6367 24.5623C41.2764 24.859 41.1032 25.2929 41.1625 25.7533C42.0171 32.4319 45.3363 48.2639 57.671 51.0951ZM58.8483 53.0156C57.999 53.0156 57.3881 52.9075 57.3251 52.8959C57.3124 52.8932 57.2997 52.8911 57.2869 52.8879C43.8068 49.8141 40.2481 33.0502 39.3437 25.9859C39.2055 24.9029 39.6272 23.8412 40.4727 23.1461C41.3125 22.4553 42.4272 22.2471 43.4544 22.5904C51.8449 25.3882 57.0798 31.3013 59.9937 35.7686C63.1417 40.5956 64.3046 44.7211 64.3529 44.8938L64.3566 44.9071C65.0993 47.7526 64.8074 49.9158 63.4882 51.3351C62.186 52.737 60.2109 53.0156 58.8483 53.0156Z" fill="#000072"/>
<path d="M100.935 85.0542C100.935 85.0542 90.4664 92.7305 72.3193 92.7305C54.1721 92.7305 43.7038 85.0542 43.7038 85.0542C43.7038 85.0542 43.7012 84.9546 43.7038 84.766V84.7634C43.7118 83.5877 43.814 78.9859 44.9033 73.316C45.1729 71.9094 45.5057 70.4376 45.912 68.9367C46.4148 67.0618 47.0378 65.1391 47.8055 63.2382C48.392 61.7818 49.0622 60.3386 49.8299 58.9426C52.9202 53.3145 57.5639 48.425 64.5487 46.335C66.8719 45.6383 69.4515 45.2531 72.3193 45.2531C101.466 45.2531 100.935 85.0542 100.935 85.0542Z" fill="white"/>
<path d="M55.822 66.2967C54.0753 66.2544 50.8409 65.786 47.8057 63.2403C48.3922 61.7839 49.0623 60.3407 49.83 58.9447C51.2859 60.8727 53.5752 63.6096 56.0949 65.5185C56.4324 65.7728 56.2464 66.3068 55.822 66.2967Z" fill="#88839E"/>
<path d="M51.467 74.7415C50.0212 74.8172 47.5407 74.6758 44.9033 73.3168C45.1735 71.9102 45.5057 70.4384 45.9121 68.9375C47.4622 70.5958 49.5157 72.5492 51.6789 73.9452C52.0349 74.173 51.8908 74.7203 51.467 74.7415Z" fill="#88839E"/>
<path d="M88.8168 66.2967C90.5635 66.2544 93.7979 65.786 96.8331 63.2403C96.2466 61.7839 95.5764 60.3407 94.8088 58.9447C93.3529 60.8727 91.0636 63.6096 88.5439 65.5185C88.2064 65.7728 88.3924 66.3068 88.8168 66.2967Z" fill="#88839E"/>
<path d="M93.1716 74.7415C94.6175 74.8172 97.098 74.6758 99.7353 73.3168C99.4651 71.9102 99.1329 70.4384 98.7266 68.9375C97.1764 70.5958 95.1229 72.5492 92.9597 73.9452C92.6037 74.173 92.7478 74.7203 93.1716 74.7415Z" fill="#88839E"/>
<path d="M99.9342 82.4688C97.3864 80.1302 93.6487 78.9382 88.8598 78.9382C85.9242 78.9382 82.5928 79.3864 78.8996 80.2934C76.747 80.8221 74.533 81.0865 72.319 81.0865C70.105 81.0865 67.8909 80.8221 65.7384 80.2934C62.0441 79.3864 58.7143 78.9382 55.7782 78.9382C52.0208 78.9382 48.9104 79.6719 46.5146 81.1183C48.5554 79.54 52.0012 78.0476 57.7347 78.0476C60.8706 78.0476 64.691 78.4942 69.3405 79.6174C70.1903 79.8224 71.0581 79.9252 71.9243 79.9252C72.9457 79.9252 73.9661 79.7827 74.9563 79.4976C77.0798 78.8857 80.2824 78.144 83.903 77.9204C90.5886 77.5061 95.0834 71.317 93.8511 65.1295C94.5779 64.7973 95.3255 64.374 96.0698 63.8358C96.8465 65.8024 97.4701 67.7933 97.9713 69.7287C96.5371 71.1899 94.7877 72.7681 92.9594 73.9475C92.6034 74.1753 92.7475 74.7226 93.1713 74.7438C93.3647 74.7538 93.5766 74.7602 93.8044 74.7602C95.0934 74.7602 96.9053 74.5599 98.8624 73.7287C99.5353 77.291 99.8166 80.4115 99.9342 82.4688ZM92.5742 61.6853C90.5398 57.5831 87.6487 53.7071 83.5528 51.2626C83.1158 51.0019 82.6246 50.8726 82.1346 50.8726C81.5767 50.8726 81.0199 51.0401 80.5462 51.3733C79.2535 52.283 76.7773 53.4432 72.5585 53.4464C72.5579 53.4464 72.5574 53.4464 72.5569 53.4464C71.3659 53.4464 70.3142 52.6512 70.0032 51.5021C69.6271 50.1129 68.6136 48.2263 65.9392 46.9119C66.6867 46.728 67.4517 46.5781 68.2343 46.4626C71.2228 47.5906 72.0922 50.2851 72.2771 51.0173C72.3068 51.137 72.319 51.2043 72.319 51.2043C76.7502 51.2043 79.3849 49.6642 80.9208 47.5784C84.0699 48.7005 86.8651 50.4901 89.2815 52.9383C91.2603 54.9426 92.8746 57.2726 94.1912 59.7457C93.7101 60.356 93.1666 61.0156 92.5742 61.6853Z" fill="#B2B2D4"/>
<path d="M93.851 65.1289C93.6894 64.3188 93.4298 63.5088 93.0643 62.7114C92.9069 62.3681 92.7432 62.0254 92.5742 61.6847C93.1665 61.015 93.7101 60.3554 94.1912 59.7451C94.9 61.0765 95.5231 62.4503 96.0698 63.8351C95.3255 64.3734 94.5779 64.7967 93.851 65.1289Z" fill="#5F5B91"/>
<path d="M93.8047 74.7617C93.5769 74.7617 93.365 74.7554 93.1716 74.7453C92.7478 74.7241 92.6037 74.1768 92.9597 73.949C94.788 72.7697 96.5374 71.1914 97.9716 69.7302C98.3266 71.1019 98.6201 72.4444 98.8627 73.7302C96.9056 74.5615 95.0937 74.7617 93.8047 74.7617Z" fill="#5F5B91"/>
<path d="M66.4345 71.6593C66.4345 74.6866 64.6406 77.1406 62.4282 77.1406C60.2152 77.1406 58.4219 74.6866 58.4219 71.6593C58.4219 68.6321 60.2152 66.178 62.4282 66.178C64.6406 66.178 66.4345 68.6321 66.4345 71.6593Z" fill="#000072"/>
<path d="M64.4467 72.431C64.4467 73.4095 63.8665 74.2031 63.1513 74.2031C62.4361 74.2031 61.856 73.4095 61.856 72.431C61.856 71.4519 62.4361 70.6588 63.1513 70.6588C63.8665 70.6588 64.4467 71.4519 64.4467 72.431Z" fill="white"/>
<path d="M65.7476 63.8577C65.6935 63.7931 65.5982 63.6585 65.5177 63.5526C65.4345 63.4376 65.3455 63.3264 65.258 63.2109C65.1722 63.0959 65.0747 62.9878 64.9884 62.8713C64.8951 62.7605 64.7977 62.6535 64.7071 62.5385C64.3214 62.1036 63.9113 61.684 63.4451 61.3227C63.2157 61.1341 62.9661 60.9788 62.7129 60.8119C62.4475 60.6832 62.1884 60.5068 61.8991 60.4077C61.3354 60.1412 60.7161 60.0125 60.0607 59.8705L60.0443 59.8668C59.9468 59.8461 59.8843 59.7497 59.9055 59.6522C59.9209 59.5828 59.9733 59.5314 60.0374 59.515C60.7055 59.3423 61.4276 59.2321 62.1534 59.3036C62.5211 59.3168 62.8777 59.4011 63.2438 59.4742C63.5939 59.5839 63.9611 59.6787 64.2965 59.8413C64.981 60.1402 65.6337 60.5349 66.1931 61.0323C66.4723 61.2813 66.7372 61.5473 66.973 61.8392C67.0938 61.9833 67.2056 62.1354 67.3126 62.2933C67.4228 62.458 67.5102 62.6016 67.6231 62.8236C67.8895 63.3476 67.6808 63.9886 67.1568 64.2551C66.706 64.4845 66.1688 64.3621 65.8572 63.9897L65.7476 63.8577Z" fill="#000072"/>
<path d="M77.0156 62.824C77.1285 62.602 77.2159 62.4585 77.3261 62.2937C77.4331 62.1358 77.5449 61.9838 77.6657 61.8397C77.9015 61.5477 78.1664 61.2818 78.4456 61.0328C79.0056 60.5353 79.6577 60.1406 80.3422 59.8418C80.6776 59.6791 81.0447 59.5843 81.3949 59.4746C81.761 59.4015 82.1176 59.3173 82.4853 59.3041C83.2111 59.2325 83.9332 59.3427 84.6013 59.5154C84.6982 59.5403 84.7565 59.6394 84.7316 59.7358C84.7136 59.8042 84.659 59.8535 84.5949 59.8672L84.578 59.8709C83.9226 60.0129 83.3028 60.1417 82.7396 60.4082C82.4503 60.5072 82.1912 60.6836 81.9258 60.8124C81.6726 60.9793 81.423 61.1345 81.1936 61.3231C80.7274 61.6844 80.3173 62.104 79.9316 62.539C79.8411 62.654 79.7436 62.761 79.6503 62.8717C79.564 62.9883 79.4665 63.0963 79.3807 63.2113C79.2932 63.3268 79.2042 63.4381 79.1211 63.553C79.04 63.659 78.9452 63.7936 78.8911 63.8582L78.7815 63.9896C78.4042 64.4404 77.733 64.5003 77.2816 64.1231C76.8938 63.7989 76.7958 63.2563 77.0156 62.824Z" fill="#000072"/>
<path d="M44.6242 84.5714C46.6375 85.8864 56.5929 91.8153 72.3194 91.8153C88.0814 91.8153 98.0056 85.889 100.015 84.5725C99.9664 81.4011 99.2485 63.0309 89.282 52.9361C84.8497 48.4461 79.1427 46.1695 72.3194 46.1695C65.4962 46.1695 59.7892 48.4461 55.3569 52.9361C45.3914 63.0298 44.6724 81.3985 44.6242 84.5714ZM72.3194 93.6484C54.0827 93.6484 43.6001 86.1152 43.1625 85.7947C42.9305 85.6246 42.7922 85.355 42.7879 85.0678C42.7763 84.1809 42.6295 63.2237 54.0472 51.6524C58.8376 46.7979 64.9854 44.3364 72.3194 44.3364C79.6534 44.3364 85.8012 46.7979 90.5916 51.6529C102.009 63.2237 101.863 84.1809 101.851 85.0678C101.847 85.355 101.708 85.6246 101.476 85.7947C101.039 86.1152 90.5556 93.6484 72.3194 93.6484Z" fill="#000072"/>
<path d="M72.3195 108.672C94.0571 108.672 106.479 104.407 102.438 88.5803C99.7318 77.9807 87.1401 79.213 79.1189 81.1828C74.6501 82.2805 69.9889 82.2805 65.5201 81.1828C57.4989 79.213 44.9072 77.9807 42.201 88.5803C38.1602 104.407 50.5819 108.672 72.3195 108.672Z" fill="#88839E"/>
<path d="M97.2238 103.379H47.4143C46.2085 102.611 45.231 101.738 44.4697 100.759C44.2731 100.506 44.0909 100.245 43.9219 99.9765C49.2765 102.323 57.1197 103.173 66.8192 103.173C88.5568 103.173 100.978 98.9074 96.9377 83.0813C97.8654 83.4993 98.7279 84.0243 99.503 84.6754C100.452 85.8092 101.136 87.1883 101.55 88.8084C102.865 93.9596 102.413 97.869 100.168 100.759C99.4071 101.738 98.4296 102.611 97.2238 103.379Z" fill="#5F5B91"/>
<path d="M42.7402 90.3516C42.8377 89.8493 42.9543 89.3338 43.0888 88.8056C44.1876 84.5015 47.1937 81.8986 52.0223 81.0695C53.2212 80.8634 54.4731 80.7765 55.733 80.7765C59.1756 80.7765 62.6749 81.4261 65.3017 82.0708C67.5973 82.6351 69.9586 82.9169 72.3199 82.9169C74.6812 82.9169 77.042 82.6351 79.3371 82.0708C81.9638 81.4261 85.4632 80.7765 88.9058 80.7765C90.1651 80.7765 91.4176 80.8634 92.6165 81.0695C94.1932 81.3402 95.5754 81.8001 96.7606 82.4464C96.8241 82.6525 96.883 82.8629 96.9381 83.0785C94.697 82.0703 92.0777 81.692 89.4075 81.692C86.0104 81.692 82.5297 82.305 79.6428 83.0144C77.4081 83.5627 75.1257 83.8372 72.8434 83.8372C70.5605 83.8372 68.2781 83.5627 66.0439 83.0144C64.534 82.6435 62.862 82.2992 61.1248 82.0544C61.0712 82.047 61.0172 82.0433 60.9632 82.0433C60.7597 82.0433 60.5595 82.0968 60.3804 82.1985C59.5566 82.6668 57.9354 83.0102 56.0583 83.0536C55.9253 83.0568 55.7934 83.0578 55.6625 83.0578C53.9778 83.0578 52.5277 82.8062 51.7357 82.4162C51.5635 82.332 51.3765 82.2849 51.1884 82.2849C51.0957 82.2849 51.0019 82.2965 50.9102 82.3209C47.0931 83.3286 43.9529 85.6856 42.7402 90.3516Z" fill="#CFCDD8"/>
<path d="M99.5035 84.6758C98.7284 84.0247 97.8659 83.4996 96.9382 83.0821C96.9382 83.0816 96.9382 83.0816 96.9382 83.0816C96.8831 82.866 96.8243 82.6557 96.7607 82.4496C97.8389 83.0376 98.7538 83.7804 99.5035 84.6758Z" fill="#BFBDD3"/>
<path d="M61.4456 88.2723C61.4456 89.4808 60.4655 90.4609 59.257 90.4609C58.048 90.4609 57.0679 89.4808 57.0679 88.2723C57.0679 87.0633 58.048 86.0832 59.257 86.0832C60.4655 86.0832 61.4456 87.0633 61.4456 88.2723Z" fill="#000072"/>
<path d="M83.1929 88.2723C83.1929 89.4808 84.173 90.4609 85.3815 90.4609C86.5905 90.4609 87.5706 89.4808 87.5706 88.2723C87.5706 87.0633 86.5905 86.0832 85.3815 86.0832C84.173 86.0832 83.1929 87.0633 83.1929 88.2723Z" fill="#000072"/>
<path d="M56.6588 85.9431C57.1631 85.4959 57.7703 85.2225 58.467 85.0959C59.1562 84.9762 59.9636 85.0731 60.6651 85.4625C61.3729 85.8424 61.9085 86.4744 62.2201 87.125C62.5411 87.7799 62.6863 88.4591 62.6704 89.1187C62.6577 89.6347 62.2291 90.0432 61.7125 90.031C61.3443 90.022 61.0312 89.8016 60.886 89.4885L60.8659 89.4445C60.6402 88.955 60.467 88.4962 60.2609 88.1052C60.0569 87.711 59.8482 87.3878 59.5711 87.1282C59.2972 86.866 58.9247 86.6593 58.4479 86.5295C57.9753 86.3944 57.4121 86.3478 56.8315 86.3341L56.8018 86.3335C56.6784 86.3303 56.5809 86.2286 56.5841 86.1052C56.5851 86.0411 56.6143 85.9828 56.6588 85.9431Z" fill="#000072"/>
<path d="M87.8069 86.334C87.2262 86.3478 86.663 86.3944 86.191 86.5295C85.7136 86.6593 85.3412 86.8659 85.0673 87.1282C84.7902 87.3878 84.5815 87.7109 84.3775 88.1051C84.1714 88.4961 83.9982 88.9549 83.7725 89.4444L83.7523 89.4873C83.5362 89.9567 82.9804 90.1613 82.5115 89.9451C82.1772 89.7909 81.977 89.463 81.968 89.1186C81.9521 88.459 82.0972 87.7798 82.4183 87.125C82.7304 86.4744 83.2654 85.8423 83.9727 85.4625C84.6747 85.0731 85.4821 84.9761 86.1714 85.0958C86.8681 85.2225 87.4752 85.4958 87.9796 85.943C88.0718 86.0251 88.0802 86.166 87.9981 86.2582C87.9557 86.3064 87.8969 86.3319 87.8371 86.3335L87.8069 86.334Z" fill="#000072"/>
<path d="M74.4973 101.519C75.727 101.192 76.9164 100.929 78.0756 100.582C79.2326 100.243 80.3717 99.8938 81.4498 99.4101C82.5338 98.9455 83.5648 98.3813 84.519 97.7164C85.4811 97.061 86.3627 96.305 87.2077 95.4923L87.2278 95.4732C87.5929 95.1219 88.174 95.1331 88.5248 95.4986C88.849 95.835 88.8644 96.3553 88.5783 96.7097C87.7491 97.7402 86.7537 98.6387 85.6649 99.3937C85.3857 99.5717 85.1129 99.7608 84.8263 99.9256C84.537 100.085 84.2504 100.249 83.9584 100.403L83.0594 100.814C82.7569 100.942 82.449 101.056 82.1423 101.172C80.9031 101.597 79.6337 101.917 78.3442 102.034C77.0573 102.15 75.7588 102.107 74.5005 101.824C74.4157 101.805 74.3627 101.721 74.3818 101.637C74.3951 101.578 74.4401 101.534 74.4947 101.519L74.4973 101.519Z" fill="#000072"/>
<path d="M80.436 100.77C80.436 100.77 81.5279 97.9118 81.6546 94.7971C81.7807 91.6824 87.4394 90.083 87.8935 96.102C87.8935 96.102 86.2045 98.9968 80.436 100.77Z" fill="#FF4390"/>
<path d="M80.436 100.77C80.436 100.77 80.4445 100.747 80.4599 100.704C80.445 100.746 80.4366 100.768 80.436 100.77ZM87.8696 95.8382C87.8691 95.8355 87.8691 95.8323 87.8686 95.8297C87.8691 95.8329 87.8691 95.835 87.8696 95.8382ZM87.867 95.8117C87.8447 95.6056 87.8161 95.4085 87.7812 95.2215C87.8161 95.409 87.8447 95.6056 87.867 95.8117Z" fill="#000072"/>
<path d="M80.436 100.77C80.4366 100.768 80.445 100.746 80.4599 100.704C80.4774 100.657 80.5033 100.585 80.5362 100.49C82.2125 99.7682 83.4066 98.9751 84.2289 98.2959C85.6286 97.1404 85.9348 95.0641 84.8116 93.6374C84.2988 92.9857 83.644 92.6546 82.9711 92.572C83.4877 92.226 84.1049 92.0252 84.7253 92.0252C85.6598 92.0252 86.6018 92.4808 87.2185 93.5807C87.219 93.5818 87.2196 93.5828 87.2201 93.5834C87.2217 93.586 87.2228 93.5881 87.2243 93.5908C87.2254 93.5929 87.227 93.5955 87.2286 93.5982C87.2286 93.5987 87.2291 93.5998 87.2296 93.6003C87.4712 94.0369 87.662 94.573 87.7812 95.2215C87.8161 95.4085 87.8447 95.6056 87.867 95.8117C87.867 95.8122 87.867 95.8127 87.867 95.8133C87.8675 95.8186 87.868 95.8239 87.8686 95.8292V95.8297C87.8691 95.8323 87.8691 95.8355 87.8696 95.8382C87.8786 95.9245 87.8866 96.0125 87.8935 96.102C87.8935 96.102 87.8866 96.1137 87.8723 96.1359C87.6625 96.4649 85.8384 99.1091 80.436 100.77Z" fill="#B22F87"/>
<path d="M84.7234 92.8088C84.7112 92.8088 84.6985 92.8088 84.6858 92.8088C83.64 92.8273 82.4871 93.6432 82.4389 94.8284C82.3658 96.6371 81.9859 98.3457 81.6606 99.5139C85.1367 98.1645 86.6566 96.4506 87.0847 95.888C86.8717 93.9505 86.0013 92.8088 84.7234 92.8088ZM80.4357 101.555C80.2217 101.555 80.013 101.467 79.862 101.306C79.657 101.086 79.5944 100.77 79.7015 100.489C79.712 100.461 80.7499 97.7068 80.8691 94.7648C80.9465 92.8549 82.6466 91.2729 84.6588 91.2379C84.6794 91.2374 84.7012 91.2374 84.7218 91.2374C86.4707 91.2374 88.4092 92.4962 88.6762 96.0421C88.6884 96.2011 88.6519 96.36 88.5719 96.4972C88.4966 96.6265 86.6593 99.6781 80.6662 101.52C80.5905 101.543 80.5126 101.555 80.4357 101.555Z" fill="#000072"/>
<path d="M55.7329 80.78C54.4731 80.78 53.2212 80.8668 52.0222 81.0729C47.1937 81.9021 44.1876 84.505 43.0888 88.809C41.7738 93.9603 42.2252 97.8697 44.47 100.759C48.178 105.533 57.0278 107.757 72.3193 107.757C87.6109 107.757 96.4601 105.533 100.169 100.759C102.413 97.8697 102.865 93.9603 101.55 88.809C100.451 84.505 97.445 81.9021 92.6164 81.0729C88.1407 80.3042 82.9248 81.1937 79.337 82.0743C74.7463 83.2027 69.8923 83.2022 65.3016 82.0743C62.6749 81.4295 59.1756 80.78 55.7329 80.78ZM72.3193 109.59C56.1976 109.59 47.1619 107.213 43.022 101.884C40.4069 98.5171 39.848 94.0917 41.3124 88.355C43.4909 79.8237 52.1658 76.9612 65.7387 80.2941C70.0433 81.3516 74.5948 81.3516 78.8999 80.2941C92.4723 76.9606 101.148 79.8237 103.326 88.355C104.791 94.0917 104.232 98.5171 101.617 101.884C97.4768 107.213 88.4411 109.59 72.3193 109.59Z" fill="#000072"/>
<path d="M72.3193 51.207C72.3193 51.207 71.2327 45.0863 63.6768 46.0712L63.6821 46.0685V46.0659C63.886 45.864 70.4232 39.3141 72.3193 30.6948C72.3193 30.6948 77.4446 32.4628 76.1826 40.9639L76.1848 40.9613C76.3289 40.9194 80.9095 39.4842 82.5307 36.4198C82.5307 36.4198 86.0507 51.207 72.3193 51.207Z" fill="#88839E"/>
<path d="M63.6763 46.0682L63.6758 46.0671C63.6779 46.0655 63.6795 46.064 63.6816 46.0629V46.0656L63.6763 46.0682Z" fill="#000072"/>
<path d="M72.3193 51.207C72.3193 51.207 72.3072 51.1397 72.2775 51.02C72.0417 50.086 70.6939 45.9636 65.2587 45.9636C64.766 45.9636 64.2394 45.9975 63.6768 46.0712L63.6821 46.0685C63.7493 46.0473 64.5737 45.7745 65.7631 44.9448C66.5567 44.6677 67.3377 44.5544 68.0836 44.5544C69.3292 44.5544 70.4788 44.8706 71.4383 45.2733C72.34 45.6516 73.2857 45.8333 74.2197 45.8333C76.5848 45.8333 78.8804 44.6709 80.2261 42.5941C82.1217 39.6686 82.5307 36.4198 82.5307 36.4198C82.5307 36.4198 82.9349 38.1178 82.9354 40.3631C82.9354 42.0828 82.6986 44.1231 81.8615 45.9673C81.6067 46.5284 81.2968 47.0709 80.9211 47.5811C79.3853 49.6669 76.7506 51.207 72.3193 51.207Z" fill="#5F5B91"/>
<path d="M63.6816 46.0625C63.8856 45.8606 70.4228 39.3108 72.3189 30.6915C72.3189 30.6915 76.3846 32.0938 76.382 38.4064C76.382 39.1815 76.32 40.0307 76.1822 40.9605C75.8718 37.7373 74.5081 35.3775 73.7759 34.3163C73.6938 34.1977 73.5682 34.1415 73.4437 34.1415C73.2811 34.1415 73.1195 34.2363 73.0559 34.4133C70.8551 40.5197 67.7828 43.5327 65.7627 44.9414C65.0745 45.182 64.3762 45.5449 63.6816 46.0625Z" fill="#DBDAE2"/>
<path d="M63.6816 46.0625V46.0599C64.3762 45.5422 65.0745 45.1793 65.7627 44.9388C64.5733 45.7685 63.7489 46.0413 63.6816 46.0625Z" fill="#CFCDDE"/>
<path d="M76.6515 41.7501C76.438 41.8454 76.2616 41.8926 76.0581 41.9334C75.8605 41.9731 75.6581 41.9959 75.4547 42.007C75.0478 42.0245 74.6271 41.997 74.2277 41.8587C74.144 41.8295 74.1 41.7384 74.1291 41.6547C74.1381 41.6282 74.1535 41.606 74.1726 41.589L74.1805 41.5816C74.3304 41.447 74.4703 41.3284 74.6043 41.2033L74.9927 40.8372L75.3646 40.4855C75.4806 40.3726 75.62 40.2576 75.7132 40.175C76.0989 39.8343 76.688 39.8714 77.0282 40.2571C77.3683 40.6428 77.3317 41.2314 76.9461 41.5721C76.8745 41.6351 76.7956 41.6854 76.7129 41.7231L76.6515 41.7501Z" fill="#000072"/>
<path d="M65.8318 45.0573C70.7086 45.3026 72.4553 48.7129 73.0021 50.2742C76.1703 50.1481 78.5316 49.1283 80.0277 47.2379C82.0706 44.6573 82.1416 40.9604 81.9393 38.6806C79.7591 40.8104 76.6143 41.789 76.4495 41.8388C76.1486 41.9299 75.8217 41.8615 75.5838 41.6565C75.3459 41.451 75.2294 41.1384 75.2755 40.8274C76.0823 35.3948 74.1459 33.0192 72.92 32.0862C71.3301 37.9384 67.8466 42.6753 65.8318 45.0573ZM72.3192 52.1211C71.8747 52.1211 71.4943 51.8022 71.4164 51.3645C71.3772 51.1542 70.3531 46.1201 63.7942 46.9768C63.4032 47.0281 63.0249 46.8236 62.8522 46.4703C62.6795 46.1164 62.7521 45.692 63.0318 45.4154C63.097 45.3508 69.5807 38.8698 71.4238 30.4947C71.48 30.2394 71.6432 30.02 71.871 29.8923C72.0993 29.7641 72.3711 29.7403 72.618 29.8251C72.8426 29.903 77.8127 31.7143 77.2585 39.5628C78.663 38.9381 80.7885 37.7508 81.7215 35.9877C81.9001 35.6502 82.2683 35.4579 82.6476 35.5072C83.0259 35.5554 83.3353 35.833 83.4232 36.2044C83.4958 36.5085 85.1535 43.7074 81.4709 48.3691C79.5043 50.8586 76.4251 52.1211 72.3192 52.1211Z" fill="#000072"/>
<path d="M90.1075 74.1786C89.0818 75.9582 87.2699 77.0417 84.7221 77.3988C82.3486 77.732 80.5118 77.2027 79.2588 75.8274C77.1407 73.5026 77.0766 69.3151 77.1561 67.5413C77.1709 67.2039 77.315 66.8923 77.5555 66.681C79.0962 65.3273 83.6397 62.254 90.1801 65.7999C90.5255 65.9869 90.7803 66.3323 90.8604 66.7461C91.174 68.3673 91.5501 71.6775 90.1075 74.1786ZM65.5084 75.1503C64.2788 76.5506 62.451 77.1174 60.0722 76.8324C57.5191 76.5267 55.6897 75.4804 54.6338 73.722C53.1493 71.2505 53.4698 67.9334 53.7559 66.3058C53.8285 65.8905 54.0775 65.5403 54.4198 65.3459C60.8992 61.668 65.4941 64.6486 67.0576 65.9705C67.3013 66.1771 67.4507 66.4854 67.4713 66.8229C67.5805 68.5946 67.5868 72.7832 65.5084 75.1503ZM95.0044 66.1114C94.9901 65.9207 94.891 65.7469 94.7379 65.6547C93.8129 65.099 92.8418 64.7207 91.938 64.4632C91.3573 64.2979 90.7973 64.06 90.2484 63.793C84.1054 60.7991 79.4707 63.0518 77.2408 64.6757C76.8546 64.957 76.3561 64.9882 75.9423 64.7588C73.3601 63.3257 70.541 63.9313 68.9537 64.4918C68.5649 64.629 68.1405 64.5612 67.8062 64.3032C65.8184 62.7679 61.065 60.0971 54.7096 63.1467C53.9292 63.5212 53.1377 63.8746 52.3228 64.1469C51.5165 64.4161 50.6693 64.7859 49.8603 65.2934C49.7093 65.3888 49.6129 65.5641 49.6018 65.7554L49.4948 67.5996C49.4794 67.8597 49.6246 68.0976 49.8497 68.1792C50.2587 68.3276 50.9676 68.6725 51.8328 69.4587C51.8831 71.162 52.2259 73.0767 53.2251 74.7408C54.5713 76.9818 56.8134 78.3047 59.8894 78.6724C60.0897 78.6962 60.2873 78.7153 60.4812 78.7291C63.1275 78.9145 65.1514 78.0472 66.7275 76.4298C69.3924 73.6944 69.4639 69.2367 69.1757 67.0205C70.3148 66.5458 73.2043 65.6251 75.475 67.3135C75.3685 69.2785 75.4014 74.2057 78.0615 77.1312C79.591 78.8133 81.7028 79.5423 84.3454 79.3034C84.5393 79.2859 84.7364 79.2631 84.9361 79.235C88.0058 78.8048 90.2251 77.4369 91.5332 75.1688C92.5043 73.4846 92.8148 71.5636 92.8365 69.8592C93.6879 69.056 94.3909 68.6963 94.7973 68.54C95.0214 68.4536 95.1623 68.2126 95.1427 67.9535L95.0044 66.1114Z" fill="#000072"/>
<path d="M113.467 108.416L108.05 150.453H36.588L34.8122 136.667L31.1719 108.416C30.889 106.231 32.5912 104.293 34.7968 104.293H109.842C112.047 104.293 113.749 106.231 113.467 108.416Z" fill="#CFCFE5"/>
<path d="M107.52 147.398C107.283 147.323 107.031 147.282 106.769 147.282H38.1997L37.1692 139.285L36.9849 137.854C41.6381 140.211 50.6139 143.678 63.1447 143.678C66.0226 143.678 69.0859 143.495 72.3298 143.074C91.4375 140.593 105.313 126.543 102.634 106.911H112.199C112.259 106.911 112.32 106.912 112.379 106.915C112.555 107.348 112.62 107.824 112.558 108.297L107.52 147.398Z" fill="#9090C2"/>
<path d="M36.985 137.855C36.5564 137.638 36.1638 137.431 35.8094 137.236L32.0801 108.299C31.9795 107.519 32.2195 106.732 32.7392 106.141C33.2589 105.55 34.0086 105.211 34.7953 105.211H102.363C102.466 105.782 102.557 106.351 102.634 106.913H56.2294C56.1038 107.963 53.3144 108.803 49.8893 108.803C46.4641 108.803 43.6748 107.963 43.5492 106.913H37.154C34.9484 106.913 33.2462 108.851 33.5291 111.035L36.985 137.855Z" fill="#F1F1F7"/>
<path d="M37.1187 147.398L35.8091 137.234C36.1635 137.429 36.5561 137.636 36.9847 137.854L37.1691 139.285L38.1995 147.282H37.8695C37.6077 147.282 37.3556 147.323 37.1187 147.398ZM112.379 106.915C112.319 106.912 112.259 106.911 112.199 106.911H102.634C102.557 106.349 102.466 105.78 102.362 105.21H109.843C110.63 105.21 111.379 105.549 111.899 106.139C112.103 106.372 112.265 106.635 112.379 106.915Z" fill="#DDDDED"/>
<path d="M37.3943 149.539H107.244L112.558 108.299C112.659 107.519 112.419 106.732 111.899 106.141C111.38 105.55 110.63 105.211 109.843 105.211H34.7951C34.0084 105.211 33.2587 105.55 32.739 106.141C32.2192 106.732 31.9792 107.519 32.0799 108.299L37.3943 149.539ZM108.05 151.371H36.5885C36.1276 151.371 35.7382 151.029 35.6793 150.572L30.2616 108.534C30.0937 107.23 30.4947 105.917 31.3626 104.931C32.2304 103.944 33.4812 103.378 34.7951 103.378H109.843C111.157 103.378 112.408 103.944 113.276 104.931C114.144 105.917 114.545 107.23 114.377 108.534L108.959 150.572C108.9 151.029 108.511 151.371 108.05 151.371Z" fill="#000072"/>
<path d="M77.8057 128.849C77.8057 131.88 75.349 134.336 72.3191 134.336C69.2892 134.336 66.8325 131.88 66.8325 128.849C66.8325 125.819 69.2892 123.363 72.3191 123.363C75.349 123.363 77.8057 125.819 77.8057 128.849Z" fill="#000072"/>
<path d="M72.3191 134.336C69.2892 134.336 66.8325 131.88 66.8325 128.849C66.8325 129.241 66.8754 129.623 66.9533 129.991C67.064 129.469 67.2484 128.975 67.4953 128.519C68.4219 130.234 70.2328 131.4 72.3191 131.4C74.4055 131.4 76.2163 130.234 77.1429 128.519C77.3898 128.975 77.5742 129.469 77.6849 129.991C77.7628 129.623 77.8057 129.241 77.8057 128.849C77.8057 131.88 75.349 134.336 72.3191 134.336Z" fill="#000072"/>
<path d="M77.8057 128.835C77.8041 128.331 77.7299 127.844 77.6012 127.38C77.4905 127.78 77.3358 128.161 77.1429 128.518C76.2142 126.806 74.4028 125.644 72.3191 125.644C70.2354 125.644 68.424 126.806 67.4953 128.518C67.3024 128.161 67.1477 127.78 67.037 127.38C66.9083 127.844 66.8341 128.331 66.8325 128.835C66.833 128.733 66.8357 128.631 66.8415 128.53C67.0063 125.648 69.3957 123.361 72.3191 123.361C75.2425 123.361 77.6319 125.648 77.7967 128.53C77.8025 128.631 77.8052 128.733 77.8057 128.835Z" fill="#B2B2D4"/>
<path d="M77.6849 129.988C77.5742 129.466 77.3898 128.972 77.1429 128.517C77.3358 128.159 77.4905 127.778 77.6012 127.379C77.7299 127.843 77.8041 128.329 77.8057 128.834C77.8057 128.834 77.8057 128.835 77.8057 128.835C77.8057 128.839 77.8057 128.843 77.8057 128.847C77.8057 129.239 77.7628 129.62 77.6849 129.988ZM66.9533 129.988C66.8754 129.62 66.8325 129.239 66.8325 128.847C66.8325 128.843 66.8325 128.839 66.8325 128.835C66.8325 128.835 66.8325 128.834 66.8325 128.834C66.8341 128.329 66.9083 127.843 67.037 127.379C67.1477 127.778 67.3024 128.159 67.4953 128.517C67.2484 128.972 67.064 129.466 66.9533 129.988Z" fill="#B2B2D4"/>
<path d="M72.3192 124.503C69.9235 124.503 67.9743 126.453 67.9743 128.848C67.9743 131.244 69.9235 133.193 72.3192 133.193C74.715 133.193 76.6641 131.244 76.6641 128.848C76.6641 126.453 74.715 124.503 72.3192 124.503ZM72.3192 135.477C68.6647 135.477 65.6909 132.503 65.6909 128.848C65.6909 125.194 68.6647 122.22 72.3192 122.22C75.9738 122.22 78.9475 125.194 78.9475 128.848C78.9475 132.503 75.9738 135.477 72.3192 135.477Z" fill="#000072"/>
<path d="M106.769 152.223H37.8698C36.5061 152.223 35.4004 151.117 35.4004 149.753C35.4004 148.39 36.5061 147.284 37.8698 147.284H106.769C108.133 147.284 109.238 148.39 109.238 149.753C109.238 151.117 108.133 152.223 106.769 152.223Z" fill="#CFCFE5"/>
<path d="M37.8426 152.223C37.8416 152.223 37.84 152.223 37.8389 152.223C37.84 152.223 37.841 152.223 37.8426 152.223ZM37.7786 152.221C37.7781 152.221 37.777 152.221 37.7765 152.221C37.777 152.221 37.7776 152.221 37.7786 152.221ZM37.7466 152.219C37.7461 152.219 37.7461 152.219 37.7461 152.219H37.7466Z" fill="#7C7CB6"/>
<path d="M106.769 152.223H37.8693C37.8672 152.223 37.8646 152.223 37.8619 152.223C37.8608 152.223 37.8598 152.223 37.8587 152.223C37.8571 152.223 37.8555 152.223 37.854 152.223C37.8524 152.223 37.8508 152.223 37.8492 152.223C37.8481 152.223 37.8471 152.223 37.846 152.223C37.8444 152.223 37.8428 152.223 37.8418 152.223C37.8402 152.223 37.8391 152.223 37.8381 152.223C37.8365 152.223 37.8354 152.223 37.8338 152.223C37.8328 152.223 37.8317 152.223 37.8301 152.223C37.8291 152.223 37.8275 152.223 37.8259 152.222C37.8248 152.222 37.8238 152.222 37.8227 152.222C37.8211 152.222 37.8195 152.222 37.8179 152.222C37.8169 152.222 37.8158 152.222 37.8148 152.222C37.8132 152.222 37.8116 152.222 37.8105 152.222C37.8089 152.222 37.8079 152.222 37.8068 152.222C37.8052 152.222 37.8036 152.222 37.8015 152.222C37.801 152.222 37.7999 152.222 37.7994 152.222C37.7973 152.222 37.7957 152.222 37.7936 152.222C37.793 152.222 37.7925 152.222 37.7914 152.222C37.7899 152.222 37.7877 152.222 37.7861 152.222C37.7851 152.222 37.7846 152.221 37.784 152.221C37.7819 152.221 37.7798 152.221 37.7782 152.221C37.7771 152.221 37.7766 152.221 37.7761 152.221C37.774 152.221 37.7718 152.221 37.7697 152.221C37.7697 152.221 37.7692 152.221 37.7687 152.221C37.7665 152.221 37.7644 152.221 37.7618 152.221H37.7612C37.7586 152.221 37.7565 152.22 37.7544 152.22C37.7538 152.22 37.7538 152.22 37.7533 152.22C37.7512 152.22 37.7485 152.22 37.7464 152.219H37.7459C36.477 152.157 35.463 151.136 35.4058 149.866H93.1495C94.5132 149.866 95.6189 148.76 95.6189 147.396C95.6189 147.359 95.6147 147.321 95.6131 147.284H106.769C108.132 147.284 109.237 148.39 109.237 149.753C109.237 150.33 109.04 150.859 108.71 151.28C108.258 151.854 107.556 152.223 106.769 152.223Z" fill="#9090C2"/>
<path d="M37.8698 148.202C37.0137 148.202 36.3175 148.899 36.3175 149.755C36.3175 150.611 37.0137 151.308 37.8698 151.308H106.769C107.625 151.308 108.321 150.611 108.321 149.755C108.321 148.899 107.625 148.202 106.769 148.202H37.8698ZM106.769 153.141H37.8698C36.0028 153.141 34.4839 151.622 34.4839 149.755C34.4839 147.888 36.0028 146.369 37.8698 146.369H106.769C108.636 146.369 110.155 147.888 110.155 149.755C110.155 151.622 108.636 153.141 106.769 153.141Z" fill="#000072"/>
<path d="M78.0596 72.083C78.0596 75.1696 79.8884 77.6719 82.1448 77.6719C84.4007 77.6719 86.2301 75.1696 86.2301 72.083C86.2301 68.9959 84.4007 66.4937 82.1448 66.4937C79.8884 66.4937 78.0596 68.9959 78.0596 72.083Z" fill="#000072"/>
<path d="M80.0864 72.8725C80.0864 73.8702 80.6777 74.6797 81.4072 74.6797C82.1367 74.6797 82.728 73.8702 82.728 72.8725C82.728 71.8744 82.1367 71.0654 81.4072 71.0654C80.6777 71.0654 80.0864 71.8744 80.0864 72.8725Z" fill="white"/>
<path d="M18.8268 152.158C21.0517 151.687 23.2769 151.562 25.502 151.512C27.7272 151.446 29.9523 151.481 32.1775 151.517L35.5147 151.546L38.8524 151.547H45.5279H72.2286H98.9294H112.28L115.617 151.546C116.73 151.547 117.843 151.505 118.955 151.485C120.068 151.466 121.18 151.497 122.293 151.573C123.406 151.664 124.518 151.815 125.631 152.158C125.799 152.211 125.894 152.389 125.842 152.558C125.81 152.663 125.727 152.739 125.631 152.77C124.518 153.113 123.406 153.264 122.293 153.355C121.18 153.431 120.068 153.462 118.955 153.443C117.843 153.423 116.73 153.381 115.617 153.382L112.28 153.381H98.9294H72.2286H45.5279H38.8524L35.5147 153.382L32.1775 153.411C29.9523 153.447 27.7272 153.482 25.502 153.416C23.2769 153.366 21.0517 153.241 18.8268 152.77C18.658 152.734 18.5502 152.568 18.5859 152.399C18.6123 152.275 18.7099 152.183 18.8268 152.158Z" fill="#000072"/>
</svg>
