<svg width="240" height="160" viewBox="0 0 240 160" fill="none" xmlns="http://www.w3.org/2000/svg">
<path d="M52.294 24.8274C56.4394 15.8225 73.7113 23.6608 68.9179 33.9194C73.3966 38.7845 75.989 42.8057 78.2059 49.085C78.8595 50.9363 79.4414 52.9851 80.1431 54.7879C80.513 55.7384 81.558 57.4392 82.0727 58.4336C83.5999 61.369 84.3329 64.6525 84.1993 67.9588C83.921 75.1314 79.9686 81.0262 74.2632 85.1013C73.6608 85.5316 72.9319 86.0741 72.3855 86.5643C74.6266 86.5043 76.6618 86.2299 78.6659 85.5443C83.6135 83.8519 92.5996 78.7101 97.335 83.3886C102.325 88.3195 95.5889 97.1001 91.8802 100.33C87.0498 104.536 82.9702 107.003 76.6701 106.773L76.4793 106.765C78.2148 114.018 78.9542 122.433 75.2824 129.212C74.9557 129.814 74.1149 131.221 74.0291 131.789C73.1691 137.483 71.532 141.59 68.4807 146.564C68.104 147.171 67.7354 147.784 67.3754 148.401C68.1185 148.948 68.7595 149.377 69.3795 150.064C70.9017 150.463 80.1 151.559 79.6845 154.264C79.4139 156.025 74.2238 157.208 72.4186 157.58C60.449 160.029 47.988 160.093 35.8195 159.724C28.8092 159.512 21.6441 158.996 14.8138 157.381C13.3469 157.034 8.51124 155.966 8.97123 153.845C9.54565 151.196 17.2096 151.067 18.3965 149.967C16.8457 145.201 15.4193 140.585 14.8955 135.581C11.9272 134.989 9.57731 133.925 7.81487 131.318C6.50853 129.42 6.03715 127.069 6.51075 124.814C7.02712 122.229 8.48818 121.87 9.78648 119.889C10.1012 119.409 8.28791 116.166 8.03903 115.556C4.21888 106.202 10.5901 94.6213 15.9127 87.1215C9.91897 83.3541 6.01327 78.0585 4.38721 71.1334C2.82365 64.4736 3.46418 55.417 6.14965 49.0533C4.76442 48.362 3.30669 47.5256 2.29366 46.3215C-3.21254 39.7767 1.97645 28.7595 9.59204 26.486C13.6461 25.2758 18.2281 25.8932 20.7661 29.6117C23.6705 27.981 26.3134 26.5727 29.5089 25.5369C30.8711 25.0955 33.0746 24.6974 34.2471 24.1586C36.8156 22.9778 40.4613 18.5735 42.9351 22.7078C45.7936 21.4628 49.5324 20.1729 50.0813 24.4955C50.8171 24.6166 51.5548 24.7275 52.294 24.8274Z" fill="#242324"/>
<path d="M39.4168 148.289C40.1651 148.913 47.1135 148.467 48.5135 148.542C48.7137 148.553 49.1079 148.422 49.307 148.338C50.0195 152.074 50.1151 153.862 54.5158 154.439C57.2812 154.801 73.5821 156.756 69.3794 150.058C70.9016 150.457 80.0999 151.553 79.6844 154.258C79.4138 156.019 74.2237 157.202 72.4185 157.574C60.4489 160.023 47.9879 160.087 35.8194 159.718C28.8091 159.506 21.6441 158.99 14.8137 157.375C13.3468 157.028 8.51116 155.96 8.97115 153.839C9.54557 151.19 17.2095 151.061 18.3964 149.961C18.9175 151.242 19.7422 153.387 20.7483 154.302C23.5204 156.822 37.7285 157.227 39.9218 154.496C40.2651 154.076 40.4196 153.532 40.349 152.995C40.1932 151.802 39.1413 150.735 38.2396 150.018C38.636 149.445 39.0285 148.868 39.4168 148.289Z" fill="#D5D4D4"/>
<path d="M41.9033 144.244C44.0299 144.261 46.2093 144.307 48.3275 144.176C48.6081 145.393 48.9689 147.191 49.3072 148.34C49.1081 148.425 48.7139 148.555 48.5136 148.545C47.1137 148.47 40.1653 148.916 39.417 148.291C40.17 147.017 41.2325 145.465 41.9033 144.244Z" fill="white"/>
<path d="M21.7392 31.4002C24.035 30.2644 25.8069 29.1941 28.2751 28.2222C31.1134 27.1048 34.0077 26.6864 36.6357 25.1537C37.307 24.7621 40.1617 22.2274 40.9511 23.2018C41.2161 23.5291 40.9047 24.9707 40.8128 25.4854L41.0255 25.4384C42.9471 25.001 46.1931 23.2093 47.7717 23.6018C48.4078 24.3751 47.3531 25.8818 47.0301 26.7414C49.6939 26.1126 52.2502 27.0092 54.7779 27.8042C64.8009 30.956 72.3023 38.9777 75.8852 48.7191C76.6405 50.7726 77.3646 53.1289 78.1177 55.2052C82.3367 62.3208 84.0586 69.462 79.2732 76.912C77.5357 79.6169 74.9653 82.3163 71.9276 84.0585C66.2236 88.5461 53.8479 90.743 46.7315 91.1518C34.0849 91.8785 18.0638 90.0094 10.1254 78.865C8.04467 75.944 6.33223 71.775 6.09279 68.1734C5.24143 60.4553 5.88363 56.7641 8.04745 49.4829C8.68104 49.5732 9.24102 49.8196 9.84822 49.6563C10.2121 49.3063 10.1015 49.3838 10.2429 48.8052C7.78246 47.8069 4.9281 46.9883 3.38232 44.6417C-2.34221 35.952 11.0779 21.8116 19.1351 30.5008C19.8743 31.2977 20.6573 33.214 21.337 34.2548L21.4259 34.3881C22.8914 33.5568 22.2648 32.8196 21.7392 31.4002Z" fill="white"/>
<path d="M10.2429 48.8068C7.78246 47.8085 4.9281 46.9899 3.38232 44.6433C-2.34221 35.9536 11.0779 21.8132 19.1351 30.5024C19.8743 31.2993 20.6573 33.2156 21.337 34.2564L21.4259 34.3898C16.761 36.8911 11.3182 43.5942 10.2429 48.8068Z" fill="#3D3D3D"/>
<path d="M6.09326 68.1745C6.70657 68.127 6.59769 68.0389 7.02573 68.3C8.15514 70.2805 9.26121 72.5741 10.6287 74.3829C12.6394 77.0423 15.5713 79.918 18.4087 81.6971C21.6444 83.7262 25.9704 85.7111 29.615 86.6805C38.5044 89.0455 47.6827 89.4807 56.7677 88.056C58.6399 87.7622 60.5087 87.4816 62.3395 86.9772C65.3608 86.1447 68.2537 84.9175 71.2406 83.9898C71.5111 83.9059 71.6783 83.9634 71.928 84.0595C66.2241 88.5471 53.8484 90.744 46.7319 91.1529C34.0854 91.8795 18.0643 90.0104 10.1259 78.8661C8.04514 75.9451 6.3327 71.776 6.09326 68.1745Z" fill="#D5D4D4"/>
<path d="M41.79 45.84L41.9061 45.8308C54.7843 44.9484 54.0476 70.6292 35.8388 71.7769C24.5039 71.8822 24.7403 60.7834 30.3198 53.9903C33.4825 50.1393 36.5824 46.5736 41.79 45.84Z" fill="#3D3D3D"/>
<path d="M47.3154 62.0817C45.2763 65.2346 41.1142 65.9832 38.349 63.2108C36.0691 60.772 36.681 56.283 39.2393 54.2967C42.2025 51.9953 44.9693 52.8236 47.0901 55.5891C48.2406 56.9993 48.6495 61.0503 47.3154 62.0817Z" fill="#242324"/>
<path d="M47.3154 62.0817C45.2763 65.2346 41.1142 65.9832 38.349 63.2108C36.0691 60.772 36.681 56.283 39.2393 54.2967C42.2025 51.9953 44.9693 52.8236 47.0901 55.5891L46.821 55.8197C46.0465 54.9469 45.1705 54.2947 43.9705 54.2547C39.5531 54.108 37.7168 59.1857 40.6203 62.2378C42.4597 64.1716 45.2738 64.0402 46.8885 61.9153L47.3154 62.0817Z" fill="white"/>
<path d="M47.0904 55.5977C48.241 57.0079 48.6498 61.0589 47.3157 62.0902L46.8888 61.9238C48.1924 59.757 48.0499 57.9251 46.8213 55.8282L47.0904 55.5977Z" fill="#838282"/>
<path d="M44.0747 56.0712C44.7386 55.7749 45.5169 56.0754 45.8094 56.7409C46.1016 57.4065 45.7969 58.1828 45.1297 58.4714C44.4677 58.7578 43.6989 58.4559 43.4089 57.7956C43.1189 57.1356 43.4164 56.3651 44.0747 56.0712Z" fill="white"/>
<path d="M66.249 44.2887C72.3952 43.9242 74.7854 50.1793 76.6842 54.7683C77.3053 56.2694 78.5636 57.6455 79.1003 59.2982C80.1694 62.5897 79.3714 64.4797 76.0695 65.4832C71.7077 66.4571 70.132 63.82 67.7345 61.1364C65.8699 59.3748 64.5224 58.2204 63.6933 55.6741C62.4905 51.9812 61.3831 45.8567 66.249 44.2887Z" fill="#3D3D3D"/>
<path d="M73.7945 58.1664C72.8726 61.1032 69.5085 61.6249 67.4492 59.5311C65.4412 57.6308 64.7467 53.1929 67.0317 51.2277C68.991 49.5425 71.3757 50.6544 72.7293 52.4271C73.8301 53.8115 74.3781 56.4712 73.7945 58.1664Z" fill="#242324"/>
<path d="M73.7945 58.1664C72.8726 61.1032 69.5085 61.6249 67.4492 59.5311C65.4412 57.6308 64.7467 53.1929 67.0317 51.2277C68.991 49.5425 71.3757 50.6544 72.7293 52.4271L72.4093 52.6635C71.7662 52.0749 70.8038 51.3202 69.8821 51.431C65.3117 51.9805 66.3553 60.2721 71.0604 59.6674C72.1348 59.5294 72.8148 58.8402 73.3548 57.9483L73.7945 58.1664Z" fill="white"/>
<path d="M72.7292 52.4258C73.83 53.8102 74.378 56.4698 73.7944 58.165L73.3547 57.947L73.398 57.712C73.7808 55.7212 73.5091 54.3316 72.4092 52.6622L72.7292 52.4258Z" fill="#D5D4D4"/>
<path d="M70.3237 52.9688C72.0817 52.996 72.1828 54.1087 71.3147 55.3695C70.9231 55.4003 70.5587 55.4231 70.2226 55.1806C69.9473 54.9829 69.7767 54.6712 69.7587 54.3329C69.7248 53.7262 69.9537 53.3843 70.3237 52.9688Z" fill="white"/>
<path d="M63.0101 61.9666C69.9955 60.8864 68.1114 65.6029 63.9454 68.2714L63.7987 69.895C64.387 70.2819 64.7884 70.5649 65.4751 70.6433C68.0216 70.9338 68.1664 68.8967 69.1416 68.1742L69.3219 68.3933C69.5921 69.973 67.4592 71.1385 67.2717 71.9871C66.2348 76.6778 62.246 79.6199 57.3689 77.0858C55.659 75.9856 55.0957 74.4845 53.996 72.8646C53.4243 72.0229 52.1916 70.9349 52.0186 69.943L52.1905 69.79C53.2599 70.185 53.8502 71.5207 55.4173 71.8857C58.6006 72.6268 61.9616 71.8832 62.7721 68.3631C61.3969 68.0617 55.5229 66.549 57.1851 63.8546C57.9614 62.5958 61.5049 62.1447 63.0101 61.9666Z" fill="url(#paint0_linear_16872_36331)"/>
<path d="M55.9062 74.0393C57.3459 73.9699 58.7931 73.8827 60.2339 73.9599C61.1997 74.0118 63.5657 74.6887 63.816 75.7106L63.5738 75.9662C61.1383 76.8095 57.2373 76.5951 55.9062 74.0393Z" fill="#E95E3C"/>
<path d="M63.0928 62.929C64.0181 62.8512 65.3044 62.6793 66.1249 63.1376L66.2033 63.449C65.9477 63.6987 65.9025 63.6654 65.5369 63.8076C64.7883 63.844 62.6934 64.0803 62.2656 63.4504C62.6117 63.0301 62.522 63.1559 63.0928 62.929Z" fill="white"/>
<path d="M59.6089 58.0691C61.4578 57.9097 62.0258 57.8355 63.706 58.5913L63.7708 58.9197L63.7713 58.9166C62.2672 59.0705 61.1428 58.6111 58.9381 58.8808C57.0729 59.2091 56.4852 59.4252 54.7202 60.1749C56.4954 58.8202 57.4198 58.4061 59.6089 58.0691Z" fill="#010000"/>
<path d="M17.386 88.1957C20.3375 89.4337 24.6068 91.0639 27.777 91.8136C37.8636 94.1994 49.133 93.4994 59.2085 91.3895C61.2843 90.6903 64.7905 90.1167 66.7082 89.2923C70.4631 87.6782 69.7884 87.7932 73.7663 88.1218C79.3775 88.5851 85.0299 84.138 90.5125 83.5217C100.299 82.4217 97.7295 91.9067 93.174 96.1874C87.8176 101.609 83.6935 104.889 76.0563 105.287C75.3505 102.682 74.3408 99.8584 73.218 97.4187C72.8019 96.5143 70.0206 91.51 69.2984 91.2478L69.2001 91.4048C69.252 92.6783 70.3381 94.451 70.7667 95.6827C71.8525 98.8001 73.0503 101.665 73.8627 104.873C76.0529 112.755 77.1826 121.615 73.0278 129.158C69.7648 135.082 62.9159 139.022 56.3978 140.651C45.6545 143.336 31.2205 142.87 21.3528 137.486C16.4999 134.838 14.2361 130.994 12.7028 125.798C12.3517 124.608 12.212 123.253 11.9709 122.042C15.0461 125.127 18.8951 128.496 23.3011 128.336C29.5464 128.109 32.153 123.466 29.5614 117.899C28.2942 115.178 27.9626 110.554 28.4603 107.672C28.9367 104.982 29.9314 102.551 30.3236 100.155C29.7914 100.817 29.3086 101.519 28.8798 102.252C25.3224 108.327 26.321 113.957 28.3434 120.212C28.6442 121.232 28.7975 123.477 28.037 124.315C24.9777 127.685 21.1956 126.881 18.0135 124.649C3.062 114.163 9.25041 100.218 17.386 88.1957Z" fill="white"/>
<path d="M17.386 88.1957C20.3375 89.4337 24.6068 91.0639 27.777 91.8136C37.8636 94.1994 49.133 93.4994 59.2085 91.3895C61.2843 90.6903 64.7905 90.1167 66.7082 89.2923C70.4631 87.6782 69.7884 87.7932 73.7663 88.1218C79.3775 88.5851 85.0299 84.138 90.5125 83.5217C100.299 82.4217 97.7295 91.9067 93.174 96.1874C87.8176 101.609 83.6935 104.889 76.0563 105.287C75.3505 102.682 74.3408 99.8584 73.218 97.4187C72.8019 96.5143 70.0206 91.51 69.2984 91.2478L69.2001 91.4048C69.252 92.6783 70.3381 94.451 70.7667 95.6827C71.8525 98.8001 73.0503 101.665 73.8627 104.873C71.0631 103.825 68.2237 102.781 65.2955 102.147C52.3068 99.3309 40.3758 102.516 28.4603 107.672C28.9367 104.982 29.9314 102.551 30.3236 100.155C29.7914 100.817 29.3086 101.519 28.8798 102.252C25.3224 108.327 26.321 113.957 28.3434 120.212C28.6442 121.232 28.7975 123.477 28.037 124.315C24.9777 127.685 21.1956 126.881 18.0135 124.649C3.062 114.163 9.25041 100.218 17.386 88.1957Z" fill="#3D3D3D"/>
<path d="M71.1871 135.398L71.301 135.532C70.6149 140.043 67.2131 145.042 64.839 149.015C66.5326 149.997 67.5736 150.796 68.9541 152.153C65.2034 153.438 58.9575 153.051 54.9596 152.553C53.9369 152.331 53.4102 152.165 52.4669 151.753C51.4078 149.636 50.8306 146.286 50.2275 143.909C59.6728 142.596 63.3843 140.73 71.1871 135.398Z" fill="#3D3D3D"/>
<path d="M58.4022 22.7886C61.9218 22.5475 66.52 25.2074 67.5133 28.7954C67.6989 29.4664 67.8919 31.4139 67.5422 31.9978C66.8233 32.0919 65.8198 31.2458 65.2065 30.8156C62.5827 29.0231 59.5553 27.1262 56.4859 26.1768C55.8234 25.9718 55.1373 25.8093 54.6185 25.3499C54.3104 24.0202 57.43 22.9722 58.4022 22.7886Z" fill="#3D3D3D"/>
<path d="M9.87913 122.852C9.98774 122.963 10.5427 125.719 10.5233 126.031C10.4488 127.226 13.4732 132.704 13.4776 133.233L13.2857 133.32L12.6515 133.063C9.02888 131.02 6.65951 126.415 9.87913 122.852Z" fill="#3D3D3D"/>
<path d="M158.322 26.8504C160.462 22.3236 164.161 26.8823 166.957 27.9253C168.222 28.3973 169.791 28.5606 171.125 28.9514C174.687 30.0056 178.1 31.5083 181.282 33.4232C184.108 29.7978 187.995 28.8087 192.352 30.1628C201.383 32.9693 206.589 47.2947 196.472 52.269C201.345 64.57 200.628 80.3042 189.198 88.7522C188.66 89.1492 188.121 89.5405 187.578 89.9297C191.478 96.6942 195.214 105.566 196.534 113.313C196.916 115.557 196.92 118.332 196.957 120.627C203.724 125.309 199.617 134.698 192.01 136.008C191.057 140.869 189.651 145.292 188.173 150.002C189.046 151.002 196.755 151.186 197.192 153.836C197.26 154.248 197.171 154.699 196.876 155.037C193.611 157.953 181.778 159.032 177.714 159.342C168.456 160.025 159.161 160.075 149.896 159.489C144.357 159.155 139.376 158.745 134.004 157.643C122.637 155.311 126.092 151.964 135.07 150.484C135.757 150.371 136.719 150.265 137.407 150.123L139.3 148.685C136.89 145.488 134.863 141.047 133.829 137.19C133.383 136.082 133.122 133.015 132.59 132.107C129.531 126.885 128.52 122.959 129.042 116.634C123.289 113.415 123.145 108.045 125.401 102.488C123.988 102.658 119.211 103.061 118.409 101.85C118.444 100.48 120.501 99.3538 121.58 98.6861C123.646 97.4081 125.9 97.0033 128.255 96.6559C126.156 95.7564 124.943 95.1856 123.237 93.5882C122.199 92.6166 119.699 89.3055 119.676 88.0295C119.905 87.7909 120.092 87.6078 120.457 87.6531C124.258 88.1267 127.577 89.8066 130.339 92.1946C130.838 91.0005 131.322 90.748 132.337 89.9525C125.318 85.912 119.973 80.6647 119.264 72.1411C119.125 69.3231 119.666 64.9305 121.18 62.4792C123.133 59.3168 123.785 56.9647 124.893 53.4306C126.598 47.9969 129.315 43.4265 133.035 39.0864C132.92 38.9194 132.81 38.7494 132.704 38.5764C130.211 34.4465 133.383 28.7353 137.251 26.7609C139.673 25.5249 142.492 24.8974 145.136 25.7054C146.807 26.2218 148.198 27.3912 148.993 28.9484L151.245 28.5912C151.285 28.1234 151.325 27.7112 151.509 27.2706C151.789 26.5829 152.35 26.0482 153.051 25.8029C154.749 25.2085 156.816 26.104 158.322 26.8504Z" fill="url(#paint1_linear_16872_36331)"/>
<path d="M157.481 148.195C157.714 148.464 157.928 148.658 158.321 148.606C160.804 148.278 164.79 148.973 167.136 148.673C167.558 149.262 167.907 149.765 168.394 150.308C167.532 151.105 166.216 152.308 166.266 153.518C166.43 157.571 175.682 156.473 178.482 156.546C180.7 156.604 184.658 155.894 186.134 154.294C187.122 153.249 187.665 151.32 188.174 150.002C189.047 151.002 196.756 151.187 197.192 153.837C197.26 154.248 197.172 154.699 196.877 155.037C193.612 157.953 181.779 159.032 177.714 159.343C168.456 160.026 159.162 160.075 149.897 159.49C144.358 159.155 139.377 158.746 134.004 157.644C122.638 155.312 126.092 151.965 135.07 150.485C135.758 150.371 136.72 150.266 137.407 150.123C131.215 157.497 153.318 155.507 155.404 153.735C157.058 152.332 157.069 149.956 157.481 148.195Z" fill="#D5D4D4"/>
<path d="M158.363 144.66C160.511 144.791 162.663 144.852 164.815 144.844C165.601 146.112 166.375 147.388 167.136 148.671C164.79 148.971 160.804 148.276 158.321 148.604C157.928 148.656 157.714 148.463 157.48 148.194C157.757 147.016 158.021 145.818 158.363 144.66Z" fill="white"/>
<path d="M154.014 30.3834C153.619 29.4985 152.867 28.711 153.547 27.753C155.117 26.8819 158.685 29.4935 160.481 29.1929C160.636 28.7132 160.35 28.1188 160.327 27.3299C161.169 25.935 164.512 29.1443 165.763 29.4785C171.083 30.8992 175.363 32.3642 180.233 35.091C179.912 36.2199 179.289 37.309 180.466 37.9465C181.879 35.346 183.14 32.867 186.246 31.8934C196.284 28.746 205.709 45.1774 195.565 50.7264C194.56 51.2764 193.242 51.7663 192.384 52.5208C192.513 53.1835 192.384 53.0846 192.792 53.4249C193.521 53.5388 193.916 53.2921 194.659 53.1835C196.412 58.7564 197.246 62.2799 197.185 68.2186C196.638 88.5715 177.653 94.556 160.596 94.1027C157.696 94.0258 154.799 93.6811 151.909 93.5005C151.979 93.138 152.275 91.4809 152.389 91.2473C152.419 90.6109 152.507 90.5515 152.18 90.1759C151.359 89.9412 150.203 90.7359 149.378 91.1675C148.549 91.7525 148.08 91.9345 147.392 92.7311C144.262 92.1756 141.831 91.3903 138.832 90.5256L137.909 88.744C137.032 87.3985 135.625 87.9979 134.496 88.6412C127.476 85.275 121.966 80.0104 121.238 71.8762C120.471 66.7414 123.617 63.1937 125.097 59.0428C127.566 52.1172 128.74 46.9548 133.92 41.1681C139.266 35.1944 145.778 30.9404 154.014 30.3834Z" fill="white"/>
<path d="M180.465 37.9462C181.879 35.3457 183.14 32.8667 186.246 31.8931C196.284 28.7457 205.709 45.1771 195.565 50.7261C194.56 51.2761 193.241 51.7661 192.384 52.5205C191.288 47.4645 185.159 40.0798 180.465 37.9462Z" fill="#3D3D3D"/>
<path d="M152.389 91.2514C152.475 91.2827 152.561 91.3144 152.647 91.3458C154.658 91.5424 157.172 91.4927 159.163 91.4688C170.963 91.3277 184.558 87.7392 192.071 77.9843C193.589 76.013 194.523 74.3469 195.475 72.01C195.896 70.9776 196.321 69.5346 196.773 68.4879C196.91 68.3996 197.048 68.311 197.185 68.2227C196.637 88.5756 177.653 94.5601 160.595 94.1068C157.696 94.0299 154.798 93.6852 151.908 93.5046C151.978 93.1421 152.274 91.485 152.389 91.2514Z" fill="#D5D4D4"/>
<path d="M137.908 88.7461C140.743 89.2172 143.464 90.2244 146.349 90.483C146.913 90.5335 147.825 90.6396 148.372 90.7571C148.73 90.8302 149.071 90.9702 149.378 91.1696C148.548 91.7546 148.079 91.9365 147.392 92.7332C144.262 92.1776 141.831 91.3924 138.831 90.5277L137.908 88.7461Z" fill="#D5D4D4"/>
<path d="M159.459 49.5999C165.315 48.8844 171.257 55.5694 173.965 60.0132C177.575 65.9372 177.361 73.7166 169.091 75.2102C165.02 75.7393 161.698 74.633 158.304 72.4544C151.067 67.8088 148.464 50.9943 159.459 49.5999Z" fill="#3D3D3D"/>
<path d="M156.212 58.2556C163.093 53.1227 169.112 63.1943 163.144 67.5341C160.713 69.3021 157.507 68.4213 155.605 66.1089C155.283 65.8906 154.846 65.1045 154.712 64.7492C154.151 63.2423 154.188 61.5777 154.816 60.0969C155.202 59.36 155.617 58.8272 156.212 58.2556Z" fill="#242324"/>
<path d="M156.212 58.2556C163.093 53.1227 169.112 63.1943 163.144 67.5341C160.713 69.3021 157.507 68.4213 155.605 66.1089L156.06 65.9456C158.362 68.2936 162.02 67.145 163.008 64.1256C163.435 62.8254 163.316 61.4079 162.68 60.1966C161.41 57.8039 158.945 57.3114 156.666 58.6183L156.212 58.2556Z" fill="white"/>
<path d="M154.816 60.0938L155.089 60.3998C154.454 62.7117 154.512 64.0131 156.06 65.9424L155.605 66.1058C155.283 65.8874 154.846 65.1014 154.712 64.7461C154.151 63.2392 154.188 61.5745 154.816 60.0938Z" fill="#838282"/>
<path d="M154.816 60.0952C155.202 59.3583 155.617 58.8256 156.212 58.2539L156.666 58.6167C155.961 59.215 155.545 59.5514 155.089 60.4013L154.816 60.0952Z" fill="#A2A2A2"/>
<path d="M157.278 59.7795C157.715 59.5743 158.228 59.6198 158.622 59.8992C159.016 60.1784 159.228 60.6481 159.179 61.1281C159.13 61.6081 158.825 62.0245 158.383 62.2175C157.712 62.5103 156.93 62.21 156.628 61.5434C156.326 60.8764 156.616 60.0909 157.278 59.7795Z" fill="white"/>
<path d="M134.776 48.459C137.555 48.3679 139.349 49.3207 140.011 52.2417C140.719 55.3688 139.637 59.3292 138.14 62.0825C137.468 63.2774 135.936 64.2388 135.153 65.2407C133.178 67.7689 132.667 69.0103 129.338 69.7172C123.533 69.8725 122.064 65.5273 125.2 61.1217C125.398 60.8422 126.093 59.7045 126.214 59.3953C127.921 55.0069 129.622 49.7576 134.776 48.459Z" fill="#3D3D3D"/>
<path d="M129.854 56.8824C131.436 54.8641 133.502 53.5919 135.733 55.5343C140.365 59.5684 133.139 69.6036 129.232 62.4994C128.43 60.6945 128.713 58.4812 129.854 56.8824Z" fill="#242324"/>
<path d="M129.855 56.8824C131.437 54.8641 133.503 53.5919 135.733 55.5343C140.366 59.5684 133.14 69.6036 129.233 62.4994L129.622 62.2816C133.201 66.9304 137.522 60.1911 135.034 56.9243C133.574 55.0074 131.792 55.6446 130.207 57.001L129.855 56.8824Z" fill="white"/>
<path d="M129.854 56.8906L130.206 57.0092C129.156 58.5647 128.653 60.5569 129.621 62.2899L129.232 62.5077C128.43 60.7027 128.713 58.4895 129.854 56.8906Z" fill="#A2A2A2"/>
<path d="M131.562 56.9883C133.251 57.3288 133.425 58.4074 132.301 59.5474C130.391 59.4801 130.64 58.1024 131.562 56.9883Z" fill="white"/>
<path d="M137.892 65.8457C139.671 65.7557 147.704 66.0187 145.719 69.4906C144.924 70.88 142.019 71.9449 140.49 72.2732C140.582 72.8202 140.704 73.3046 140.834 73.8424C142.729 76.0084 146.093 76.1667 148.591 75.0354C149.286 74.721 150.35 72.9666 151.118 73.7935C151.004 75.0384 148.919 76.4837 147.858 76.9792C144.67 77.6517 142.705 77.4145 140.086 75.3076C136.701 77.6078 133.18 73.816 134.16 72.2869L134.505 72.263C137.26 76.567 141.861 74.2646 137.793 71.0941C135.551 69.347 133.61 66.3426 137.892 65.8457Z" fill="#242324"/>
<path d="M137.403 66.7963C138.208 66.766 141.032 66.631 141.136 67.6416L140.861 67.8596C139.826 67.8985 137.825 68.1393 137.091 67.4955C137.099 66.9924 137.025 67.2277 137.403 66.7963Z" fill="white"/>
<path d="M140.718 62.0744C143.741 61.8913 145.505 62.0813 147.982 63.981L146.133 63.2221C143.71 62.4627 141.751 62.5235 139.28 63.0543L139.096 62.9338L139.183 62.7543C139.807 62.3385 139.993 62.2977 140.718 62.0744Z" fill="#010000"/>
<path d="M193.394 108.406C195.346 116.256 195.997 124.284 191.806 131.568C188.639 137.072 182.185 139.777 176.241 141.247C160.098 145.24 133.145 142.098 131.034 121.397C130.907 120.154 130.899 118.703 130.913 117.435C135.376 118.614 138.995 118.413 142.704 115.499C143.259 118.261 144.855 119.932 146.152 122.405C147.043 123.684 147.808 127.72 148.916 128.578C150.166 129.544 154.881 127.326 155.695 126.057C156.557 124.713 155.099 122.921 154.415 121.6C163.285 122.116 170.053 121.761 177.338 115.559C178.841 114.28 179.562 112.941 180.604 111.884C185.945 111.694 188.676 111.192 193.394 108.406Z" fill="white"/>
<path d="M151.165 95.1453C152.483 95.6533 153.561 95.7247 154.968 95.8114C164.287 96.385 174.65 96.1636 183.304 92.3084C184.272 91.8662 185.228 91.3973 186.17 90.9023C188.186 95.4525 190.441 99.7551 192.026 104.479C192.447 105.735 193.078 107.14 193.394 108.411C188.676 111.196 185.945 111.699 180.604 111.889C181.508 109.82 182.087 109.3 182.525 106.914C177.918 115.106 169.424 119.754 160.036 119.91C156.037 119.977 149.288 120.002 146.904 115.803C144.398 111.388 149.744 108.867 153.086 107.563C157.937 105.67 161.787 103.747 164.906 99.3479C162.069 101.181 160.638 102.291 157.466 103.958C154.051 105.667 151.731 106.045 148.017 108.215C147.162 106.674 146.257 104.811 145.76 103.122C145.632 102.246 145.247 101.505 144.893 100.686C148.336 99.4835 149.441 98.409 151.165 95.1453Z" fill="#3D3D3D"/>
<path d="M145.76 103.12C148.76 102.82 154.486 103.159 157.466 103.956C154.051 105.665 151.731 106.043 148.018 108.213C147.162 106.672 146.257 104.809 145.76 103.12Z" fill="white"/>
<path d="M132.675 98.2422C133.426 98.6069 134.16 99.0202 134.894 99.4196C135.6 100.488 135.937 101.443 136.411 102.616C135.372 102.406 133.781 102.006 132.757 102.242C132.711 102.454 132.664 102.416 132.889 102.56C135.332 104.112 138.352 104.471 140.643 106.318C142.766 108.03 143.575 109.752 142.702 112.426C142.124 114.196 141.416 114.569 139.867 115.393C136.241 117.083 131.077 116.674 128.166 113.749C125.627 111.199 125.506 108.502 126.268 105.184C127.03 101.868 128.175 101.71 130.79 99.9724C131.349 99.6013 132.179 98.743 132.675 98.2422Z" fill="#3D3D3D"/>
<path d="M135.197 135.422C135.953 135.743 138.536 137.929 139.601 138.567C145.154 141.893 149.943 143.337 156.234 144.434C155.768 146.477 155.456 149.518 154.691 151.411C154.418 152.087 152.839 152.468 152.123 152.668C147.797 153.357 142.332 153.383 138.001 152.807C138.043 152.602 138.19 151.82 138.298 151.708C139.274 150.693 140.725 150.14 141.905 149.306C138.673 143.905 136.913 141.919 135.197 135.422Z" fill="#3D3D3D"/>
<path d="M134.981 90.1546C135.579 89.8196 135.779 89.7607 136.44 89.5391C138.048 92.5362 139.567 95.6028 141.415 98.4565C141.813 99.0713 143.496 101.026 143.553 101.456C142.531 102.001 138.993 104.61 138.208 102.862C136.449 98.9457 134.431 95.5819 131.786 92.2134C132.894 91.2507 133.626 90.6937 134.981 90.1546Z" fill="#85C640"/>
<path d="M131.786 92.219C132.894 91.2562 133.626 90.6993 134.981 90.1602C134.502 90.7312 133.636 91.174 132.975 91.5754C135.372 94.3478 137.331 98.8926 139.478 101.9C141.197 101.148 141.711 101.172 143.553 101.461C142.531 102.006 138.993 104.616 138.208 102.867C136.449 98.9513 134.431 95.5875 131.786 92.219Z" fill="url(#paint2_linear_16872_36331)"/>
<path d="M141.576 27.0818C143.875 26.7293 145.695 27.8273 147.236 29.3911C145.578 30.3964 143.737 31.08 142.01 31.9824C140.142 32.958 138.706 34.0737 137.091 35.3787L134.259 37.6481C132.323 32.7324 136.942 27.7265 141.576 27.0818Z" fill="#3D3D3D"/>
<path d="M149.785 127.415C148.372 124.623 147.462 121.143 145.494 118.279C145.135 118.116 145.028 118.057 144.697 117.844L144.774 117.627C145.126 117.45 145.416 117.241 145.789 117.288C146.167 118.392 147.529 119.091 148.544 119.731C149.867 120.325 150.994 120.854 152.42 121.15C153.201 122.533 153.886 123.741 154.562 125.182C153.395 126.141 152.858 126.367 151.433 126.886L149.785 127.415Z" fill="#85C640"/>
<path d="M149.785 127.415C148.372 124.623 147.462 121.143 145.494 118.279C145.135 118.116 145.028 118.057 144.697 117.844L144.774 117.627C145.126 117.45 145.416 117.241 145.789 117.288C146.167 118.392 147.529 119.091 148.544 119.731C148.362 120.591 150.66 126.341 151.433 126.886L149.785 127.415Z" fill="#75B044"/>
<path d="M121.601 89.4023C126.263 90.3262 129.065 91.9656 131.296 96.2663C127.377 95.7977 123.716 92.5597 121.601 89.4023Z" fill="#85C640"/>
<path d="M130.161 97.8094C130.446 97.7935 131.047 97.8224 131.356 97.8285C131.241 97.9694 131.123 98.1071 131.001 98.2421C128.4 101.101 125.094 101.285 121.51 101.429C121.034 101.429 121.026 101.48 120.604 101.301L120.684 101.055C122.798 98.9249 127.247 98.0046 130.161 97.8094Z" fill="#85C640"/>
<path d="M196.85 123.457C197.089 123.522 197.497 123.685 197.611 123.92C199.584 127.979 197.635 131.06 194.284 133.281C193.845 133.49 193.52 133.624 193.066 133.798C193.032 133.581 193.688 132.583 193.845 132.331C195.572 129.557 196.386 126.676 196.85 123.457Z" fill="#3D3D3D"/>
<path d="M140.675 104.273C140.983 103.72 143.583 102.127 144.332 102.449L144.378 103.015C144.389 103.217 144.396 103.672 144.44 103.845C145.017 105.577 145.889 107.502 146.863 109.049C146.156 109.917 145.663 110.471 145.151 111.461C144.956 111.072 144.902 110.62 144.814 110.182C144.458 107.446 143.625 106.308 141.623 104.567L140.675 104.273Z" fill="#75B044"/>
<path d="M140.675 104.273C140.983 103.72 143.583 102.127 144.332 102.449L144.378 103.015C144.389 103.217 144.396 103.672 144.44 103.845C143.653 104.531 143.94 104.455 143.02 104.644L142.852 104.57C142.341 104.35 142.156 104.274 141.623 104.567L140.675 104.273Z" fill="#75B044"/>
<path d="M140.675 104.277C141.64 104.401 143.44 103.458 144.378 103.02C144.389 103.222 144.396 103.676 144.44 103.849C143.653 104.536 143.94 104.46 143.02 104.648L142.852 104.574C142.341 104.354 142.156 104.279 141.623 104.572L140.675 104.277Z" fill="#4D7F2A"/>
<path d="M150.6 92.1641C150.587 95.3165 147.459 98.1997 144.712 99.263C144.653 99.0938 144.612 98.893 144.661 98.7219C145.54 95.6087 148.15 93.6651 150.6 92.1641Z" fill="#85C640"/>
<path d="M139.998 92.9375C141.998 93.6969 143.577 93.8816 145.675 94.2052C144.974 95.2605 144.572 95.8657 144.029 96.9951C143.802 97.4451 143.524 98.329 143.349 98.8343C142.102 96.9451 140.983 94.9752 139.998 92.9375Z" fill="#3D3D3D"/>
<path d="M144.813 110.18C144.902 110.618 144.956 111.07 145.15 111.459C144.288 113.842 145.223 115.331 144.749 116.539L144.551 116.502C144.083 115.9 143.924 115.201 143.683 114.465C144.459 112.798 144.751 112.014 144.813 110.18Z" fill="#7A9F57"/>
<path d="M82.5346 1.13173C84.1673 0.960625 85.9025 0.946185 87.5055 1.14785C93.7695 1.84171 100.653 7.04849 99.446 14.0355C98.0605 22.0566 88.9588 24.8857 81.8935 23.9335C79.0311 26.3337 77.4639 27.45 73.7937 28.307C75.2462 25.6432 75.834 24.7385 75.8295 21.6911C75.602 21.5438 75.3793 21.3897 75.1615 21.2286C72.7618 19.4436 70.9838 17.1837 70.5322 14.1496C69.435 6.7771 75.739 2.00059 82.5346 1.13173Z" fill="#242324"/>
<path d="M83.9076 2.52329C84.7587 2.46162 85.6137 2.47329 86.4628 2.55801C95.4008 3.39992 102.845 12.0102 94.3631 19.4911C91.306 22.1876 86.1431 22.8037 82.1752 22.3287C81.9677 22.321 81.5091 22.3096 81.3574 22.4099C79.6658 23.529 78.5308 24.8059 76.7526 25.8897C77.6084 23.6243 78.3194 21.261 76.0356 19.7944C73.8493 18.2997 72.0638 15.869 71.8963 13.1574C71.4816 6.43955 78.3533 3.05077 83.9076 2.52329Z" fill="white"/>
<path d="M84.0604 5.95735C86.6892 5.76402 89.485 6.38844 89.1141 9.80417C88.923 11.5622 87.5628 12.5213 86.2348 13.4963C86.0987 14.4932 85.9267 15.2854 84.6596 15.1629C83.6013 14.5904 83.8332 13.9804 84.0415 12.9499C84.7587 11.7072 86.3537 11.1036 86.6076 9.65557C86.7537 8.82226 85.6309 8.01673 84.8684 7.93923C83.8374 8.19311 83.7924 9.25807 82.8699 10.1133C82.226 10.3741 81.4986 10.3617 81.0455 9.77028C80.4411 7.89868 82.476 6.42594 84.0604 5.95735Z" fill="#242324"/>
<path d="M84.5459 16.132C84.9959 15.9584 85.5047 16.0425 85.8753 16.3514C86.2458 16.6603 86.42 17.1458 86.3303 17.6197C86.2405 18.0938 85.9011 18.4819 85.4433 18.6344C84.7581 18.8621 84.0162 18.5013 83.7723 17.8216C83.5284 17.1416 83.8717 16.3917 84.5459 16.132Z" fill="#010000"/>
<path d="M109.449 16.2697C110.73 16.0884 113.092 16.2295 114.383 16.4745C118.1 17.1955 121.749 19.1119 123.906 22.3015C127.364 27.413 125.408 33.6011 120.427 36.8627C120.47 39.817 121.16 40.9423 122.43 43.5705C120.016 42.8705 119.092 42.5047 117.08 41.0534C116.284 40.4348 115.429 39.697 114.643 39.0504C107.012 40.8348 95.731 35.9596 96.5979 26.8438C97.2332 20.1657 103.405 16.9075 109.449 16.2697Z" fill="#242324"/>
<path d="M109.76 17.8034C111.253 17.6609 112.758 17.7393 114.227 18.0354C117.5 18.689 120.882 20.5086 122.74 23.356C123.952 25.186 124.355 27.4345 123.855 29.5714C123.207 32.4624 121.229 34.6084 118.772 36.1512C118.814 38.2319 118.925 39.2275 119.691 41.1496C118.361 40.1591 117.083 39.1002 115.863 37.9775C115.758 37.8664 115.365 37.4722 115.211 37.4906C110.203 38.0869 105.884 37.8736 101.699 34.6971C97.8402 31.7683 96.7203 26.5451 99.896 22.6277C102.363 19.5842 105.971 18.2398 109.76 17.8034Z" fill="white"/>
<path d="M110.448 27.0156C110.867 26.8365 111.35 26.8973 111.71 27.1748C112.072 27.4526 112.254 27.9034 112.189 28.3539C112.123 28.8045 111.819 29.1844 111.394 29.3475C110.754 29.5933 110.035 29.2811 109.777 28.6459C109.519 28.0103 109.818 27.2853 110.448 27.0156Z" fill="#010000"/>
<path d="M116.002 26.987C116.442 26.8759 116.908 27.0137 117.216 27.3462C117.525 27.679 117.628 28.1537 117.485 28.5842C117.341 29.015 116.974 29.3331 116.528 29.4139C115.869 29.5334 115.234 29.1092 115.092 28.4548C114.95 27.8004 115.353 27.1512 116.002 26.987Z" fill="#010000"/>
<path d="M105.173 26.9843C105.834 26.7979 106.521 27.1851 106.703 27.8473C106.886 28.5095 106.494 29.1937 105.831 29.3723C105.174 29.5492 104.496 29.162 104.315 28.5054C104.134 27.8487 104.518 27.1693 105.173 26.9843Z" fill="#010000"/>
<defs>
<linearGradient id="paint0_linear_16872_36331" x1="55.5852" y1="75.0517" x2="67.8627" y2="63.4967" gradientUnits="userSpaceOnUse">
<stop stop-color="#261E1B"/>
<stop offset="1" stop-color="#1F2325"/>
</linearGradient>
<linearGradient id="paint1_linear_16872_36331" x1="116.143" y1="51.4148" x2="208" y2="127.169" gradientUnits="userSpaceOnUse">
<stop stop-color="#161715"/>
<stop offset="1" stop-color="#313032"/>
</linearGradient>
<linearGradient id="paint2_linear_16872_36331" x1="134.972" y1="100.886" x2="138.379" y2="95.1263" gradientUnits="userSpaceOnUse">
<stop stop-color="#5A9A38"/>
<stop offset="1" stop-color="#74B43B"/>
</linearGradient>
</defs>
</svg>
