<svg width="240" height="160" viewBox="0 0 240 160" fill="none" xmlns="http://www.w3.org/2000/svg">
<path d="M195.966 139.455C191.966 139.893 187.966 139.998 183.966 140.052C179.966 140.113 175.965 140.08 171.966 140.047L165.965 140.021L159.966 140.019H147.966H99.9657H51.9658H27.966L21.9661 140.021L18.9661 140.041L15.966 140.076C13.9661 140.095 11.9661 140.066 9.96609 139.995C8.96611 139.955 7.96613 139.899 6.96614 139.81C5.96616 139.723 4.96612 139.62 3.96614 139.455C3.74808 139.419 3.61237 139.264 3.6629 139.108C3.69891 138.997 3.82049 138.915 3.96614 138.891C4.96612 138.725 5.96616 138.622 6.96614 138.536C7.96613 138.447 8.96611 138.391 9.96609 138.35C11.9661 138.279 13.9661 138.251 15.966 138.27L18.9661 138.305L21.9661 138.325L27.966 138.326H51.9658H99.9657H147.966H159.966L165.965 138.325L171.966 138.298C175.965 138.266 179.966 138.233 183.966 138.294C187.966 138.348 191.966 138.453 195.966 138.891C196.184 138.914 196.333 139.06 196.3 139.216C196.273 139.342 196.133 139.436 195.966 139.455Z" fill="#000072"/>
<path d="M100.891 145.566C52.2302 145.566 12.7827 143.34 12.7827 140.593C12.7827 140.481 12.8482 140.371 12.9765 140.261C13.5541 140.273 14.1317 140.279 14.7093 140.279C15.1056 140.279 15.502 140.276 15.8982 140.27L18.9045 140.214L21.9108 140.182L27.9234 140.179H51.9735H100.074H148.175H160.2L166.212 140.182L172.225 140.224C174.59 140.255 176.954 140.285 179.318 140.285C180.962 140.285 182.606 140.271 184.25 140.231C185.684 140.201 187.117 140.16 188.551 140.088C188.848 140.254 189 140.423 189 140.593C189 143.34 149.553 145.566 100.891 145.566Z" fill="#B2B2D4"/>
<path d="M178.869 140.086C176.508 140.086 174.148 140.061 171.786 140.035L165.783 140.001L159.78 139.999H147.773H99.7464H51.7198H27.7067L21.7034 140.001L18.7017 140.028L15.7 140.073C15.3044 140.078 14.9085 140.081 14.5129 140.081C13.9362 140.081 13.3594 140.076 12.7827 140.065C13.7174 139.409 18.0081 138.795 24.8657 138.26H106.346C110.184 139.086 115.545 139.649 123.035 139.649H179.727C179.873 139.649 180.019 139.622 180.154 139.569C180.223 139.544 180.837 139.301 181.706 138.761C185.005 139.124 187.197 139.515 188.087 139.924C186.656 139.983 185.225 140.017 183.793 140.041C182.152 140.074 180.51 140.086 178.869 140.086Z" fill="#000072"/>
<path d="M208.632 74.6996C207.925 79.6881 206.365 85.1515 203.781 90.6233C202.351 93.6549 200.611 96.6864 198.527 99.6424C195.893 103.388 192.71 107.012 188.925 110.355C188.156 111.034 187.365 111.698 186.549 112.352C183.661 114.663 179.405 113.672 177.753 110.335C177.245 109.312 177.053 108.193 177.158 107.106C177.278 105.826 177.807 104.591 178.717 103.607C180.638 101.541 183.222 98.231 185.628 93.4481C187.163 90.4023 188.624 86.76 189.793 82.4579C190.923 78.3167 191.783 73.5674 192.173 68.1512C192.308 66.3526 192.388 64.4798 192.407 62.5301C192.407 62.5301 192.292 52.402 201.8 53.4205C207.295 54.0086 210.286 63.06 208.632 74.6996Z" fill="#726789"/>
<path d="M208.173 74.6068C207.454 79.6738 205.865 85.2232 203.235 90.7812C200.585 86.4665 196.919 83.8749 192.077 82.8798C190.994 82.6553 189.955 82.5398 189 82.4872C190.149 78.2808 191.024 73.4567 191.422 67.9552C192.317 68.0444 193.25 68.1724 194.205 68.3464C199.509 69.3133 204.208 71.4316 208.173 74.6068Z" fill="#504563"/>
<path d="M198.13 99.5396C195.543 103.181 192.415 106.703 188.694 109.953C185.329 107.217 180.416 106.749 177.13 106.795C177.249 105.55 177.768 104.35 178.663 103.394C180.55 101.385 183.09 98.1676 185.455 93.5183C190.469 94.5448 194.758 96.599 198.13 99.5396Z" fill="#504563"/>
<path d="M185.953 111.777C185.952 111.774 185.951 111.77 185.949 111.767C185.458 110.58 184.953 109.464 184.435 108.413C185.671 108.814 186.872 109.362 187.954 110.102C187.308 110.667 186.642 111.224 185.953 111.777ZM197.711 99.3012C196.583 98.3842 195.363 97.5581 194.058 96.8282C195.685 94.3689 197.081 91.8679 198.267 89.367C198.772 88.303 199.238 87.2391 199.667 86.179C200.963 87.2027 202.115 88.448 203.13 89.9188C201.775 92.85 200.009 96.0431 197.711 99.3012ZM207.789 74.1644C206.409 73.1401 204.944 72.238 203.402 71.4633C204.183 63.82 202.908 57.4936 200.229 54.2569C200.289 54.2556 200.35 54.2556 200.411 54.2556C200.799 54.2556 201.203 54.2777 201.62 54.3219C204.093 54.5851 206.077 56.9119 207.209 60.8732C208.269 64.5837 208.446 69.2132 207.789 74.1644Z" fill="#504882"/>
<path d="M202.937 89.8672C201.796 88.4119 200.5 87.1798 199.044 86.1669C201.055 81.7908 202.334 77.4802 202.981 73.4757C203.084 72.8449 203.171 72.2211 203.243 71.6063C204.977 72.3729 206.623 73.2655 208.174 74.279C207.662 77.6763 206.699 81.2268 205.303 84.7341C204.677 86.309 203.899 88.0363 202.937 89.8672Z" fill="#383068"/>
<path d="M187.887 109.953C186.853 109.189 185.703 108.623 184.522 108.21C184.493 108.147 184.464 108.084 184.435 108.021C187.639 104.837 190.372 101.429 192.671 97.9178C193.033 97.3666 193.384 96.8134 193.725 96.2575C194.973 97.0105 196.139 97.8628 197.218 98.809C194.784 102.532 191.724 106.339 187.887 109.953Z" fill="#383068"/>
<path d="M187.983 94.4336C187.42 94.2695 186.845 94.1186 186.261 93.982C187.841 90.8414 189.329 87.112 190.516 82.7303C191.165 82.7924 191.842 82.8872 192.538 83.0264C191.375 87.1055 189.952 90.5833 188.462 93.5153C188.303 93.8277 188.144 94.1336 187.983 94.4336ZM195.089 68.6342C194.989 68.6153 194.888 68.597 194.787 68.5787C194.151 68.4636 193.525 68.3689 192.914 68.2924C193.05 66.4362 193.134 64.5048 193.156 62.4943C193.155 62.4519 193.152 58.1786 195.772 55.7871C196.653 54.9826 197.748 54.4728 199.043 54.2597C195.323 56.8126 195.382 62.246 195.382 62.246C195.362 64.2179 195.281 66.112 195.143 67.931C195.126 68.1662 195.108 68.4015 195.089 68.6342Z" fill="#C7C2D0"/>
<path d="M192.441 83.4766C191.885 83.3385 191.344 83.2446 190.826 83.183C191.734 79.0226 192.422 74.2686 192.741 68.8679C193.23 68.9437 193.729 69.0377 194.237 69.1517C194.318 69.1699 194.398 69.188 194.478 69.2068C194.143 74.3496 193.462 78.882 192.581 82.8557C192.535 83.0644 192.489 83.2711 192.441 83.4766Z" fill="#B9B5C1"/>
<path d="M181.545 103.566C181.293 103.176 181.038 102.796 180.782 102.427C182.543 100.199 184.503 97.2634 186.341 93.5229C186.933 93.6647 187.516 93.8215 188.087 93.9918C185.791 98.4025 183.388 101.532 181.545 103.566Z" fill="#B9B5C1"/>
<path d="M178.548 109.921C179.219 111.275 180.441 112.24 181.901 112.569C183.342 112.895 184.831 112.552 185.984 111.631C197.29 102.597 202.723 91.9283 205.29 84.5697C208.292 75.9641 209.022 67.0974 207.244 60.8502C206.124 56.9118 204.159 54.5986 201.71 54.3369C199.245 54.0732 197.282 54.5966 195.875 55.8928C193.306 58.2572 193.31 62.4818 193.31 62.5238C193.052 86.0346 184.462 98.7479 179.364 104.235C177.947 105.762 177.619 108.047 178.548 109.921ZM182.977 114.523C182.488 114.523 181.997 114.47 181.508 114.359C179.517 113.91 177.85 112.593 176.933 110.745C175.663 108.185 176.112 105.063 178.049 102.978C182.966 97.685 191.252 85.391 191.503 62.5232C191.5 62.3383 191.482 57.4714 194.65 54.5436C196.456 52.8752 198.897 52.1929 201.9 52.5134C205.128 52.8584 207.643 55.6382 208.981 60.3417C212.375 72.2661 207.83 96.5096 187.103 113.071C185.912 114.022 184.463 114.523 182.977 114.523Z" fill="#000072"/>
<path d="M188.074 126.032C187.737 136.143 180.382 139.176 180.382 139.176C180.382 139.176 159.861 139.176 138.581 139.176H123.481C98.0671 139.176 98.2388 132.247 98.2388 132.247H80.3942C74.5194 128.366 73.3853 122.85 74.1824 117.573C74.3283 116.613 74.5356 115.662 74.7884 114.731C75.7572 111.19 77.4001 107.925 78.7967 105.561C78.9101 105.367 79.0365 105.179 79.1758 105.001C80.391 103.385 82.3741 102.512 84.3863 102.686C84.6877 102.712 84.9923 102.763 85.2936 102.838C123.646 112.351 143.338 94.9584 151.008 85.2289L151.011 85.2218C151.287 84.8733 151.546 84.5338 151.792 84.2039C153.328 82.141 156.406 81.9923 158.062 83.9614C158.169 84.0908 158.279 84.2169 158.386 84.3397C158.477 84.4432 158.568 84.5435 158.658 84.6437C159.734 85.8368 160.868 86.878 162.041 87.8286C164.339 89.6911 166.795 91.2238 169.287 92.9278C170.46 93.7297 171.639 94.5671 172.816 95.4984C175.298 97.4578 177.757 99.8183 180.077 103.068C180.79 104.067 181.49 105.15 182.17 106.33C183.165 108.051 184.124 109.975 185.035 112.154C185.22 112.594 185.395 113.03 185.56 113.457C186.435 115.714 187.05 117.787 187.452 119.685C187.673 120.71 187.828 121.686 187.932 122.611C188.068 123.833 188.11 124.971 188.074 126.032Z" fill="#726789"/>
<path d="M188.074 126.028C187.737 136.142 180.382 139.176 180.382 139.176C180.382 139.176 159.861 139.176 138.581 139.176H123.481C98.0671 139.176 98.2388 132.245 98.2388 132.245H80.3942C74.5194 128.363 73.3853 122.846 74.1824 117.567C74.1824 117.567 85.6533 132.468 96.7839 121.568C96.7839 121.568 92.0459 117.61 87.2326 115.995C86.7926 115.848 86.8211 115.22 87.2696 115.1C88.394 114.802 89.5022 114.267 89.3181 113.33C88.9811 111.619 82.3546 110.865 79.1758 104.992C80.391 103.375 82.3741 102.501 84.3863 102.676C93.7704 105.192 110.883 113.33 110.883 113.33C110.883 113.33 97.0827 121.288 107.082 124.159C112.985 125.853 117.648 125.194 119.679 124.547C120.416 124.312 121.201 124.282 121.957 124.447C126.596 125.457 143.131 128.331 150.23 119.87C150.23 119.87 171.691 134.615 187.452 119.679C187.673 120.704 187.828 121.681 187.932 122.606C188.068 123.829 188.11 124.967 188.074 126.028Z" fill="white"/>
<path d="M95.8697 120.588C95.8697 120.588 91.8015 119.988 87.9565 120.902C87.6972 120.963 87.5352 120.678 87.7565 120.549C88.9473 119.859 91.1067 118.934 93.9329 119.105L95.8697 120.588Z" fill="#504563"/>
<path d="M91.3043 117.084C91.3043 117.084 87.6374 116.781 84.2301 117.258C84.0384 117.285 83.9125 117.164 84.074 117.109C85.0826 116.769 87.0285 116.271 89.6101 116.359L91.3043 117.084Z" fill="#504563"/>
<path d="M103.174 117.439C103.174 117.439 108.451 117.942 112.012 120.868C112.161 120.99 112.375 120.826 112.282 120.657C111.561 119.343 109.751 116.735 106.233 115.432L103.174 117.439Z" fill="#504563"/>
<path d="M161.609 87.8504C161.469 88.0686 161.33 88.2836 161.184 88.4986C160.16 90.0227 159.049 91.4762 157.784 92.7758C156.542 94.0945 155.158 95.2657 153.646 96.2315C153.566 96.2829 153.462 96.2572 153.415 96.1706C153.388 96.1192 153.385 96.0615 153.403 96.0133L153.406 96.0037C153.563 95.5545 153.738 95.1277 153.914 94.7042C154.092 94.2838 154.279 93.8795 154.442 93.4528L155.491 91.0014C156.195 89.3867 156.863 87.7895 157.522 86.2076C157.775 85.6011 158.021 84.9947 158.259 84.3882C159.319 85.7006 160.442 86.8269 161.609 87.8504Z" fill="#504563"/>
<path d="M172.565 95.1525C171.728 96.2583 170.832 97.3097 169.846 98.2749C168.55 99.5852 167.105 100.755 165.527 101.717C165.443 101.768 165.334 101.739 165.285 101.653C165.257 101.605 165.254 101.547 165.272 101.496L165.276 101.487C165.44 101.039 165.623 100.617 165.806 100.196C165.992 99.7769 166.187 99.3711 166.358 98.9492L167.455 96.5044C168.051 95.1972 168.624 93.8997 169.189 92.6118C170.311 93.4043 171.44 94.2321 172.565 95.1525Z" fill="#504563"/>
<path d="M181.696 105.926C181.551 106.095 181.406 106.264 181.255 106.429C180.089 107.761 178.792 108.947 177.37 109.927C177.294 109.979 177.197 109.95 177.152 109.862C177.127 109.814 177.124 109.755 177.141 109.703L177.144 109.694C177.294 109.239 177.459 108.81 177.621 108.381C177.788 107.956 177.967 107.543 178.12 107.115L179.104 104.63C179.372 103.967 179.634 103.308 179.894 102.649C180.507 103.652 181.11 104.74 181.696 105.926Z" fill="#504563"/>
<path d="M108.652 112.876C108.652 112.876 114.457 113.379 118.373 116.305C118.538 116.428 118.772 116.263 118.671 116.095C117.877 114.781 115.886 112.173 112.016 110.869L108.652 112.876Z" fill="#504563"/>
<path d="M96.508 121.824C96.0085 121.209 95.4905 120.65 94.9619 120.142C96.09 120.966 96.7829 121.556 96.7829 121.556C96.6915 121.646 96.5994 121.736 96.508 121.824ZM87.0707 114.819C87.1501 114.66 87.2952 114.532 87.5039 114.485C87.5443 114.477 87.584 114.467 87.6244 114.458C88.7346 114.212 89.0698 112.914 88.467 112.126C88.8485 112.402 89.0936 112.677 89.1519 112.98C89.3394 113.951 88.216 114.508 87.0707 114.819ZM79.6768 105.736C79.5907 105.619 79.5099 105.504 79.4351 105.391C79.4357 105.391 79.4364 105.39 79.4364 105.389C79.5152 105.507 79.5954 105.623 79.6768 105.736Z" fill="#504882"/>
<path d="M98.3094 123.652C97.8203 122.869 97.2969 122.156 96.7513 121.508C96.844 121.421 96.9374 121.334 97.0301 121.245C97.0301 121.245 96.3273 120.668 95.1831 119.863C93.3871 118.199 91.4775 117.101 89.7998 116.38L89.2831 115.916C89.0809 115.902 88.882 115.895 88.6871 115.895C88.6455 115.895 88.6038 115.895 88.5628 115.896C88.2155 115.774 87.8842 115.668 87.5738 115.576C87.135 115.448 87.0087 114.987 87.1787 114.66C88.3404 114.356 89.48 113.812 89.2898 112.862C89.2307 112.566 88.9821 112.298 88.5951 112.027C88.4567 111.853 88.2692 111.704 88.0313 111.599C83.3045 109.504 80.9011 107.386 79.679 105.782C79.5963 105.671 79.515 105.558 79.4351 105.443C79.4458 105.426 79.4572 105.408 79.468 105.391C88.3841 112.02 97.6919 114.331 105.913 114.596L105.497 114.868C104.786 115.299 104.144 115.832 103.487 116.342C102.224 117.426 101.078 118.652 100.141 120.029L99.7916 120.547L99.4772 121.087C99.2595 121.443 99.0801 121.82 98.8953 122.195C98.7979 122.379 98.7273 122.579 98.6427 122.77C98.5594 122.962 98.4808 123.157 98.4136 123.358C98.378 123.456 98.343 123.553 98.3094 123.652Z" fill="#B2B2D4"/>
<path d="M117.103 114.523C117.028 114.439 116.95 114.354 116.869 114.269C117.134 114.218 117.396 114.166 117.655 114.113C127.749 112.042 135.035 107.715 136.447 106.834C145.3 106.054 153.11 98.6741 157.001 94.3136C157.369 93.9008 157.629 93.4115 157.768 92.8886C157.777 92.8795 157.786 92.8704 157.795 92.862C158.359 92.3196 158.896 91.7507 159.409 91.1616C159.488 91.3852 159.564 91.5854 159.633 91.7578C159.834 92.2613 159.832 92.8244 159.626 93.3266C154.978 104.661 136.705 108.862 136.705 108.862C130.03 113.019 122.564 114.261 117.103 114.523ZM156.26 89.0205C155.283 88.3919 154.483 87.6863 153.903 87.1089C155.119 86.4874 156.067 85.481 156.796 84.393C156.916 84.496 157.03 84.6101 157.134 84.7352C157.36 85.008 157.589 85.273 157.82 85.5303C157.719 85.7636 157.616 85.9962 157.512 86.2295C157.1 87.1542 156.684 88.0848 156.26 89.0205Z" fill="#504882"/>
<path d="M157.442 92.6094C157.544 92.172 157.571 91.7107 157.516 91.2508C157.396 90.2312 156.893 89.3293 156.138 88.7748C156.135 88.7729 156.133 88.7716 156.13 88.7697C156.499 87.8408 156.861 86.9171 157.22 85.9991C157.31 85.7675 157.4 85.5366 157.488 85.305C157.676 85.5443 157.865 85.7765 158.057 86.0036C158.067 87.9302 158.508 89.7359 158.87 90.8951C158.423 91.4798 157.957 92.0446 157.466 92.583C157.458 92.5914 157.45 92.6004 157.442 92.6094Z" fill="#383068"/>
<path d="M114.13 114.523C114.957 114.244 115.766 113.938 116.555 113.61C116.664 113.86 116.768 114.109 116.87 114.358C115.907 114.459 114.991 114.51 114.13 114.523Z" fill="#383068"/>
<path d="M141.481 124.566C142.278 124.211 143.063 123.811 143.827 123.364C145.431 122.424 146.531 120.826 146.952 119.011C147.994 114.517 151.87 105.392 166.148 105.392C167.117 105.392 168.131 105.434 169.198 105.523C169.152 105.522 169.071 105.52 168.958 105.52C168.484 105.52 167.445 105.551 166.076 105.775C162.27 106.355 155.945 108.257 152.681 114.453C151.757 115.901 150.937 117.584 150.277 119.537C148.055 122.201 144.903 123.74 141.481 124.566ZM183.447 122.328C184.355 120.578 184.979 118.543 185.227 116.178C185.68 117.61 186.02 118.955 186.261 120.214C185.339 121.013 184.398 121.715 183.447 122.328ZM77.0342 119.659C76.5416 119.185 76.121 118.746 75.7827 118.376C75.8342 117.846 75.9081 117.317 76.002 116.79C76.2284 117.625 76.5583 118.616 77.0342 119.659Z" fill="#504882"/>
<path d="M180.368 138.262H123.966C123.122 138.262 122.308 138.254 121.523 138.239C122.131 137.694 122.514 136.905 122.514 136.026C122.514 134.381 121.172 133.048 119.517 133.048H100.196C100.027 132.767 99.9763 132.571 99.9627 132.502C99.995 132.198 99.8924 131.946 99.6873 131.713C99.4744 131.472 99.1628 131.393 98.8402 131.393H81.4192C79.8509 130.317 78.6658 129.106 77.7974 127.806L76.2446 124.388C75.7769 122.672 75.6911 120.879 75.8679 119.088C76.2072 119.455 76.6291 119.891 77.1233 120.362C78.8896 124.188 82.6669 128.713 90.6548 128.713C93.105 128.713 95.9494 128.288 99.255 127.286C99.255 127.286 101.927 129.16 108.744 129.16C111.758 129.16 115.582 128.794 120.344 127.738C120.729 127.652 121.12 127.611 121.512 127.611C121.736 127.611 121.962 127.625 122.186 127.652C123.216 127.773 125.05 127.939 127.341 127.939C131.369 127.939 136.809 127.423 141.771 125.233C145.203 124.412 148.365 122.885 150.594 120.241C150.486 120.56 150.381 120.887 150.281 121.221C148.819 125.402 149.611 126.54 149.611 126.54L150.419 126.395C148.816 126.747 147.192 127.313 145.688 128.193C144.604 128.828 144.591 130.399 145.662 131.056C147.772 132.35 151.537 134.054 156.735 134.054C157.173 134.054 157.62 134.042 158.078 134.017C164.659 133.648 178.75 132.77 183.867 123.011C184.821 122.403 185.765 121.706 186.69 120.913C189.117 133.446 181.7 137.621 180.368 138.262ZM160.352 126.321C160.229 126.296 158.208 125.88 155.453 125.88C154.377 125.88 153.188 125.944 151.957 126.119C151.957 126.08 151.959 124.748 152.41 122.771C154.186 123.178 156.878 124.128 160.352 126.321Z" fill="#B2B2D4"/>
<path d="M152.676 120.91C151.535 120.24 150.82 119.743 150.652 119.624C151.172 118.211 151.904 116.509 152.927 114.465C152.93 114.458 152.934 114.45 152.938 114.443C156.751 108.183 162.422 106.241 165.893 105.645C167.362 105.41 168.443 105.388 168.792 105.388C168.872 105.388 168.913 105.39 168.913 105.39C157.925 108.416 154.045 115.945 152.676 120.91Z" fill="#B9B3C4"/>
<path d="M152.161 121.824C151.047 121.634 150.3 121.606 149.957 121.606C149.812 121.606 149.739 121.611 149.739 121.611C149.844 121.297 149.957 120.992 150.077 120.694C150.18 120.474 150.295 120.242 150.422 119.998C150.593 120.083 151.319 120.438 152.478 120.917C152.353 121.235 152.249 121.539 152.161 121.824Z" fill="white"/>
<path d="M149.085 125.48C149.085 125.48 148.125 124.503 149.898 120.915C149.749 121.266 149.61 121.624 149.479 121.994C149.479 121.994 149.57 121.988 149.749 121.988C150.175 121.988 151.098 122.021 152.478 122.245C151.932 123.943 151.93 125.085 151.93 125.119C151.314 125.181 150.691 125.259 150.064 125.356L149.085 125.48Z" fill="#D9D9EA"/>
<path d="M152.478 114.523C155.815 108.004 162.283 106.004 166.174 105.393C162.504 106.011 156.509 108.027 152.478 114.523Z" fill="#A8A4C1"/>
<path d="M95.4777 131.325C95.4709 131.321 95.4534 131.316 95.4534 131.316L95.4665 131.316C95.4752 131.317 95.4815 131.321 95.497 131.321C95.5257 131.322 95.5494 131.332 95.5811 131.329C95.6415 131.335 95.7026 131.332 95.7655 131.326C95.8284 131.325 95.8863 131.299 95.9492 131.295C96.0065 131.266 96.0669 131.252 96.1261 131.225C96.359 131.12 96.5819 130.898 96.7756 130.584C97.1736 129.961 97.4102 129.034 97.5292 128.089C97.5541 127.848 97.5965 127.613 97.6089 127.367L97.6457 126.626C97.65 126.505 97.6631 126.373 97.6606 126.261L97.6519 125.929C97.6587 125.705 97.6089 125.488 97.5902 125.266C97.4601 124.385 97.1157 123.53 96.6417 122.735C95.6664 121.153 94.234 119.802 92.6627 118.696C91.0908 117.572 89.4136 116.579 87.6941 115.589L87.6922 115.587C87.6555 115.566 87.6418 115.517 87.6611 115.478C87.676 115.447 87.7072 115.431 87.7377 115.435C88.7167 115.585 89.6659 115.871 90.5957 116.224C91.0628 116.395 91.5168 116.604 91.9733 116.813C92.4217 117.038 92.8714 117.266 93.3073 117.526C94.1798 118.044 95.0275 118.63 95.8277 119.311C96.6255 119.992 97.3872 120.764 98.0075 121.7C98.6278 122.628 99.1416 123.705 99.3714 124.891C99.4131 125.189 99.4829 125.486 99.491 125.789L99.519 126.243C99.5259 126.392 99.5184 126.523 99.5184 126.664L99.5072 127.497C99.5028 127.774 99.4667 128.059 99.4474 128.341C99.3322 129.464 99.1485 130.646 98.5039 131.805C98.3594 132.095 98.1321 132.367 97.9128 132.63C97.7852 132.754 97.655 132.875 97.5224 132.993C97.381 133.103 97.2247 133.199 97.0733 133.296C96.9151 133.383 96.7451 133.452 96.5788 133.522C96.4057 133.57 96.2326 133.63 96.0544 133.653C95.8769 133.683 95.6976 133.699 95.5157 133.695C95.4267 133.697 95.3308 133.683 95.2386 133.675C95.1944 133.672 95.1408 133.662 95.0904 133.653L95.0138 133.637L94.901 133.607C94.3206 133.434 93.9793 132.782 94.1381 132.152C94.2975 131.522 94.8973 131.151 95.4777 131.325Z" fill="#000072"/>
<path d="M105.728 133.695C98.3878 133.695 97.0269 131.848 96.7827 131.055L98.9374 130.388C98.8981 130.259 98.8556 130.204 98.8556 130.203C98.8646 130.215 99.8698 131.434 105.728 131.434C112.845 131.434 120.599 130.13 120.676 130.117C120.772 130.1 120.87 130.097 120.967 130.106C121.145 130.122 138.842 131.618 148.188 122.739L149.739 124.381C140.009 133.626 122.819 132.524 120.911 132.371C119.779 132.557 112.587 133.695 105.728 133.695Z" fill="#000072"/>
<path d="M97.6958 124.241C97.7229 124.101 97.7493 124.009 97.7757 123.901C97.8007 123.793 97.8331 123.698 97.8628 123.597C97.9202 123.395 97.9895 123.203 98.0601 123.011C98.1261 122.816 98.2033 122.627 98.2851 122.442C98.3683 122.257 98.4376 122.064 98.5332 121.885C98.7147 121.523 98.8909 121.157 99.1047 120.813L99.4136 120.291L99.7567 119.789C100.677 118.456 101.802 117.27 103.043 116.221C103.688 115.728 104.319 115.212 105.018 114.794L105.53 114.464C105.699 114.351 105.873 114.245 106.054 114.155L107.129 113.581C107.483 113.379 107.859 113.227 108.23 113.065L109.347 112.581C110.106 112.299 110.876 112.05 111.641 111.784L112.304 113.92C111.596 114.15 110.878 114.362 110.174 114.605L109.142 115.024C108.798 115.163 108.449 115.294 108.127 115.471L107.138 115.968C106.97 116.046 106.811 116.138 106.657 116.237L106.188 116.523C105.545 116.884 104.975 117.335 104.382 117.762C103.252 118.673 102.226 119.704 101.385 120.861L101.07 121.296L100.788 121.749C100.59 122.047 100.431 122.362 100.264 122.674C100.175 122.829 100.114 122.992 100.037 123.151C99.962 123.31 99.8907 123.471 99.832 123.633C99.768 123.795 99.7046 123.957 99.6551 124.117C99.6294 124.198 99.5984 124.28 99.5792 124.356L99.5225 124.566L97.6958 124.241Z" fill="#000072"/>
<path d="M168.913 105.547C167.605 105.718 166.334 106.001 165.095 106.361C163.857 106.723 162.651 107.164 161.503 107.707C159.203 108.782 157.104 110.247 155.454 112.139C154.62 113.071 153.872 114.086 153.267 115.191L153.029 115.598L152.818 116.022C152.681 116.306 152.528 116.582 152.402 116.871C152.163 117.459 151.898 118.032 151.706 118.642C151.604 118.943 151.489 119.239 151.396 119.544L151.139 120.468L151.01 120.93L150.905 121.4L150.694 122.34C150.564 122.97 150.48 123.613 150.37 124.249L150.145 126.184L150.136 126.257C150.087 126.68 149.808 127.018 149.444 127.156C149.18 127.266 148.854 127.42 148.561 127.567C148.261 127.718 147.963 127.88 147.668 128.046C147.08 128.382 146.506 128.746 145.953 129.137C144.844 129.916 143.826 130.812 142.94 131.811C142.064 132.816 141.328 133.93 140.835 135.138C140.33 136.342 140.09 137.637 140.077 138.944V138.963C140.071 139.589 139.572 140.092 138.963 140.086C138.353 140.08 137.864 139.571 137.87 138.944C137.88 137.343 138.184 135.726 138.802 134.254C139.406 132.775 140.288 131.452 141.301 130.291C142.323 129.138 143.473 128.132 144.702 127.268C145.316 126.835 145.948 126.432 146.598 126.062C146.925 125.878 147.253 125.699 147.589 125.531C147.933 125.36 148.249 125.206 148.642 125.043L148.643 125.042L147.943 126.014C148.097 123.25 148.606 120.468 149.583 117.827C150.548 115.189 152.055 112.712 154.032 110.723C155.02 109.73 156.114 108.854 157.285 108.119C158.457 107.386 159.707 106.803 160.992 106.363C162.278 105.923 163.604 105.64 164.933 105.495C165.598 105.421 166.266 105.384 166.931 105.391C167.595 105.395 168.261 105.437 168.913 105.547Z" fill="#000072"/>
<path d="M148.605 125.327C148.786 125.255 148.895 125.22 149.033 125.176C149.165 125.131 149.293 125.101 149.422 125.063C149.679 124.998 149.934 124.933 150.19 124.884C150.444 124.828 150.701 124.787 150.956 124.75C151.211 124.707 151.467 124.682 151.722 124.656C152.744 124.554 153.764 124.544 154.771 124.597C155.273 124.633 155.774 124.665 156.269 124.739C156.766 124.791 157.255 124.89 157.742 124.979C158.228 125.071 158.704 125.205 159.179 125.324C159.649 125.464 160.114 125.615 160.571 125.776C160.672 125.811 160.722 125.913 160.682 126.002C160.651 126.071 160.576 126.113 160.497 126.112H160.485C159.995 126.107 159.515 126.075 159.035 126.063C158.553 126.065 158.079 126.034 157.603 126.046C156.655 126.04 155.716 126.083 154.791 126.149C153.866 126.233 152.954 126.348 152.069 126.523C151.627 126.612 151.188 126.708 150.767 126.824C150.552 126.876 150.347 126.941 150.144 127.005L149.849 127.105C149.759 127.135 149.644 127.178 149.605 127.194L149.576 127.206C148.993 127.449 148.298 127.227 148.025 126.711C147.75 126.194 148 125.579 148.583 125.336L148.605 125.327Z" fill="#000072"/>
<path d="M142.467 139.176C142.428 138.87 142.432 138.657 142.441 138.401C142.453 138.155 142.478 137.911 142.522 137.668C142.61 137.183 142.741 136.699 142.966 136.24C143.178 135.781 143.478 135.348 143.865 135.032C144.263 134.724 144.735 134.562 145.174 134.623C144.915 135.037 144.763 135.389 144.677 135.742C144.594 136.098 144.567 136.443 144.544 136.788C144.532 137.137 144.547 137.495 144.569 137.853L144.605 138.389C144.609 138.478 144.622 138.565 144.623 138.653C144.63 138.734 144.637 138.839 144.637 138.882L142.467 139.176Z" fill="#000072"/>
<path d="M148.075 139.176C147.992 139.001 147.966 138.896 147.938 138.758C147.919 138.63 147.907 138.5 147.916 138.372C147.928 138.113 147.988 137.857 148.051 137.605C148.183 137.101 148.396 136.605 148.705 136.157C149.01 135.708 149.459 135.332 149.934 135.068C150.409 134.79 150.952 134.677 151.45 134.611L151.565 134.865C151.201 135.145 150.874 135.414 150.684 135.745C150.479 136.06 150.366 136.385 150.345 136.721C150.309 137.051 150.341 137.384 150.423 137.712C150.461 137.875 150.524 138.037 150.575 138.194C150.597 138.274 150.617 138.351 150.627 138.429C150.634 138.499 150.646 138.599 150.615 138.627L148.075 139.176Z" fill="#000072"/>
<path d="M107.81 132.781C107.75 132.404 107.742 132.12 107.739 131.794C107.741 131.478 107.755 131.163 107.794 130.849C107.863 130.222 108.004 129.6 108.212 129.003C108.428 128.407 108.726 127.842 109.104 127.368C109.491 126.899 109.974 126.549 110.478 126.39C110.227 126.938 110.057 127.437 109.95 127.941C109.855 128.452 109.807 128.947 109.789 129.445C109.773 129.946 109.797 130.447 109.824 130.945L109.932 132.387L107.81 132.781Z" fill="#000072"/>
<path d="M102.336 132.781C102.278 132.384 102.265 132.065 102.262 131.71C102.258 131.537 102.265 131.364 102.273 131.191C102.278 131.019 102.289 130.846 102.309 130.674C102.339 130.33 102.387 129.987 102.455 129.647C102.49 129.476 102.52 129.307 102.561 129.138L102.701 128.636C102.897 127.97 103.184 127.328 103.556 126.76C103.951 126.204 104.436 125.728 105 125.477C104.765 126.12 104.604 126.694 104.499 127.277C104.401 127.863 104.353 128.44 104.314 129.017C104.293 129.599 104.297 130.181 104.317 130.763C104.328 131.054 104.339 131.345 104.357 131.634L104.4 132.465L102.336 132.781Z" fill="#000072"/>
<path d="M85.8257 131.321C85.8262 131.335 85.8326 131.31 85.8378 131.296C85.8426 131.282 85.8479 131.26 85.8531 131.241L85.8854 131.117C85.9081 131.033 85.9255 130.939 85.945 130.848C85.9762 130.661 86.0147 130.469 86.038 130.271C86.0654 130.073 86.0797 129.872 86.0934 129.667C86.1092 129.462 86.1172 129.254 86.1172 129.044C86.1129 128.624 86.0865 128.195 86.0348 127.757C85.991 127.315 85.9165 126.87 85.8473 126.389C86.1488 126.686 86.4271 127.035 86.6505 127.437C86.8865 127.832 87.0608 128.278 87.2192 128.741C87.3802 129.205 87.4937 129.698 87.5666 130.21C87.6046 130.465 87.6332 130.727 87.6442 130.993C87.6479 131.128 87.6537 131.26 87.6511 131.4C87.6511 131.469 87.65 131.54 87.6453 131.614L87.6374 131.726C87.6337 131.768 87.6321 131.799 87.6221 131.867L85.8257 131.321Z" fill="#000072"/>
<path d="M92.2173 131.419C92.2609 131.263 92.3167 131.046 92.3609 130.853C92.4056 130.653 92.455 130.451 92.4971 130.247C92.5418 130.043 92.5791 129.837 92.6138 129.631C92.6543 129.424 92.6869 129.216 92.7185 129.006C92.7753 128.588 92.8079 128.166 92.8289 127.735C92.8431 127.305 92.8458 126.867 92.8095 126.389C93.0961 126.712 93.3181 127.129 93.4843 127.57C93.6478 128.014 93.7514 128.482 93.8414 128.954C93.9308 129.427 93.9855 129.906 94.0149 130.387C94.0312 130.628 94.0444 130.87 94.0433 131.112C94.0433 131.361 94.0454 131.585 94.0212 131.867L92.2173 131.419Z" fill="#000072"/>
<path d="M99.4833 131.964C99.5672 132.401 101.087 137.824 123.506 137.824H179.954C181.536 137.05 191.684 131.22 183.798 112.141C178.891 100.268 172.67 96.057 166.653 91.9844C163.222 89.6622 159.982 87.4677 157.1 84.0016C156.55 83.3397 155.741 82.9797 154.873 83.0006C153.974 83.028 153.149 83.4623 152.61 84.1933C148.817 89.3452 142.032 96.4874 131.251 101.256C118.125 107.062 102.628 107.787 85.1917 103.41C83.1643 102.901 81.0098 103.813 79.9535 105.629C76.1461 112.171 71.2546 124.09 80.9245 130.837H98.3598C98.6826 130.837 98.9945 130.916 99.2076 131.162C99.4129 131.399 99.5155 131.655 99.4833 131.964ZM180.197 140.086H123.506C107.194 140.086 100.973 137.188 98.6265 134.759C98.0331 134.144 97.6929 133.57 97.4979 133.098H80.5817C80.3615 133.098 80.1465 133.033 79.9632 132.91C74.8012 129.459 72.5084 124.468 73.1489 118.075C73.6706 112.866 76.0873 107.808 78.0223 104.483C79.5784 101.809 82.7479 100.464 85.7321 101.214C125.003 111.074 144.327 91.6512 150.813 82.8434C151.763 81.5535 153.219 80.7872 154.808 80.7396C156.359 80.7025 157.822 81.352 158.816 82.5467C161.493 85.7676 164.605 87.8746 167.9 90.1049C173.899 94.1658 180.698 98.7686 185.865 111.269C189.326 119.643 189.925 126.716 187.645 132.292C185.315 137.988 180.815 139.92 180.624 140C180.488 140.057 180.343 140.086 180.197 140.086Z" fill="#000072"/>
<path d="M79.4353 132.781H17.9073L8.87464 112.519L1.33022 95.5973C-0.058189 92.4817 2.19354 88.9552 5.5663 88.9552H54.6534C57.8457 88.9552 60.745 90.8506 62.0561 93.7965L74.2972 121.252L79.4353 132.781Z" fill="#D0CFE5"/>
<path d="M18.5104 132.781H18.1367L9.13086 112.694C16.6769 120.197 31.3411 125.542 48.3422 125.542C55.6265 125.542 63.3393 124.561 71.108 122.349L72.1107 124.586L75.783 132.78H18.5967C18.5678 132.78 18.5391 132.78 18.5104 132.781Z" fill="#9190C2"/>
<path d="M70.7082 121.824L59.5136 96.9528C58.2072 94.0452 55.3186 92.1745 52.1378 92.1745H3.22902C2.37005 92.1745 1.58471 92.4025 0.913574 92.7927C1.27877 90.7481 3.0048 89.05 5.28211 88.9585C5.2825 88.9585 5.28269 88.9585 5.28314 88.9585C5.28699 88.9579 5.2911 88.9579 5.29495 88.9579C5.29579 88.9579 5.29617 88.9579 5.297 88.9579C5.30541 88.9572 5.31376 88.9572 5.32223 88.9566C5.32326 88.9566 5.32409 88.9566 5.32512 88.9566C5.32897 88.9566 5.33283 88.9566 5.33668 88.9566C5.33687 88.9566 5.33745 88.9566 5.33764 88.9566C5.34181 88.9559 5.34599 88.9559 5.35016 88.9559C5.35119 88.9559 5.35208 88.9559 5.35311 88.9559C5.35658 88.9559 5.35998 88.9559 5.36344 88.9559C5.36428 88.9559 5.36498 88.9559 5.36576 88.9559C5.36993 88.9553 5.37436 88.9553 5.37853 88.9553C5.37898 88.9553 5.37924 88.9553 5.37962 88.9553C5.38335 88.9553 5.38726 88.9553 5.39098 88.9553C5.39201 88.9553 5.39317 88.9553 5.39419 88.9553C5.39792 88.9553 5.40183 88.9547 5.40556 88.9547C5.40575 88.9547 5.40645 88.9547 5.40665 88.9547C5.41082 88.9547 5.41499 88.9547 5.41917 88.9547C5.42 88.9547 5.42116 88.9547 5.42199 88.9547C5.42546 88.9547 5.42886 88.9547 5.43232 88.9547C5.43335 88.9547 5.43399 88.9547 5.43502 88.9547C5.43906 88.9547 5.4433 88.9547 5.44734 88.9547C5.44818 88.9547 5.44895 88.9547 5.44979 88.9547C5.45325 88.9547 5.45653 88.9547 5.45999 88.9547C5.46121 88.9547 5.46217 88.9547 5.46339 88.9547C5.46763 88.9547 5.47161 88.9547 5.47578 88.9547H54.3845C57.5653 88.9547 60.454 90.8254 61.7603 93.7329L73.957 120.831C72.8728 121.187 71.7912 121.517 70.7082 121.824Z" fill="#E8E7F2"/>
<path d="M79.4342 132.781H75.8049L72.2009 124.271L71.2168 121.948C72.2803 121.627 73.3425 121.283 74.4073 120.912L79.4342 132.781Z" fill="#C8C8E1"/>
<path d="M37.4958 113.61C34.2367 113.385 28.7725 120.373 37.8784 119.98C46.984 119.588 41.7837 113.907 37.4958 113.61Z" fill="#000072"/>
<path d="M33.7825 112.698C33.7825 113.706 32.7605 114.523 31.4999 114.523C30.2392 114.523 29.2173 113.706 29.2173 112.698C29.2173 111.689 30.2392 110.871 31.4999 110.871C32.7605 110.871 33.7825 111.689 33.7825 112.698Z" fill="#000072"/>
<path d="M44.7391 112.24C44.7391 113.502 43.9215 114.523 42.913 114.523C41.9045 114.523 41.0869 113.502 41.0869 112.24C41.0869 110.98 41.9045 109.958 42.913 109.958C43.9215 109.958 44.7391 110.98 44.7391 112.24Z" fill="#000072"/>
<path d="M39.261 109.038C39.261 110.551 38.0345 111.777 36.5217 111.777C35.0091 111.777 33.7827 110.551 33.7827 109.038C33.7827 107.526 35.0091 106.299 36.5217 106.299C38.0345 106.299 39.261 107.526 39.261 109.038Z" fill="#000072"/>
<path d="M19.0239 131.33H78.2336L61.5316 94.4942C60.4066 92.0124 57.912 90.4083 55.1765 90.4083H5.85872C4.65411 90.4083 3.58848 90.9857 2.93504 91.9937C2.28173 93.001 2.19137 94.2055 2.68693 95.2985L19.0239 131.33ZM80.0732 133.695H18.2568C17.7898 133.695 17.3663 133.423 17.1742 132.999L0.52162 96.2716C-0.299985 94.4594 -0.14386 92.3804 0.939444 90.7106C2.02268 89.0401 3.8617 88.0431 5.85872 88.0431H55.1765C58.8434 88.0431 62.1886 90.1931 63.6974 93.521L81.1555 132.026C81.3218 132.392 81.2895 132.817 81.0707 133.154C80.8519 133.492 80.4765 133.695 80.0732 133.695Z" fill="#000072"/>
<path d="M119.34 138.262H18.529C16.8683 138.262 15.522 137.035 15.522 135.523C15.522 134.01 16.8683 132.783 18.529 132.783H119.34C121.001 132.783 122.348 134.01 122.348 135.523C122.348 137.035 121.001 138.262 119.34 138.262Z" fill="#D0CFE5"/>
<path d="M119.34 138.262H18.529C18.5095 138.262 18.4901 138.262 18.4708 138.261C16.8369 138.235 15.522 137.102 15.522 135.709C15.522 135.705 15.522 135.703 15.522 135.699C15.522 135.699 15.522 135.699 15.522 135.698C15.522 135.695 15.522 135.693 15.522 135.69C15.5254 135.303 15.6332 134.938 15.8179 134.61C16.3021 135.468 17.3324 136.064 18.529 136.064H119.341C120.537 136.064 121.567 135.468 122.052 134.61C122.239 134.943 122.348 135.315 122.348 135.709C122.348 136.793 121.552 137.719 120.43 138.089C120.428 138.09 120.427 138.09 120.426 138.09C120.089 138.201 119.724 138.262 119.34 138.262Z" fill="#9190C2"/>
<path d="M18.7826 133.541C17.7844 133.541 16.9722 134.429 16.9722 135.521C16.9722 136.613 17.7844 137.501 18.7826 137.501H119.087C120.085 137.501 120.898 136.613 120.898 135.521C120.898 134.429 120.085 133.541 119.087 133.541H18.7826ZM119.087 140.086H18.7826C16.4813 140.086 14.6089 138.038 14.6089 135.521C14.6089 133.003 16.4813 130.956 18.7826 130.956H119.087C121.388 130.956 123.261 133.003 123.261 135.521C123.261 138.038 121.388 140.086 119.087 140.086Z" fill="#000072"/>
<path d="M78.9744 139.176C76.5276 136.287 77.9044 133.134 78.9744 131.871L80.3475 133.456C80.0586 133.805 78.7018 135.648 80.3433 137.586L78.9744 139.176Z" fill="#000072"/>
<path d="M154.304 25.0237L141.046 50.6094C139.536 48.7759 137.978 47.1915 136.409 45.8246C126.354 37.0496 115.957 37.0704 115.957 37.0704C122.121 30.7693 131.281 25.7324 131.281 25.7324C146.879 17.8469 151.913 20.5391 153.537 22.9419C154.256 24.0118 154.304 25.0237 154.304 25.0237Z" fill="#726789"/>
<path d="M134.415 41.4766C130.883 39.0399 127.311 37.3686 124.079 36.2227C122.61 35.7016 121.117 35.2612 119.608 34.9013C125.248 30.1991 131.792 26.6535 132.161 26.4554C140.272 22.488 145.335 21.3896 148.456 21.3896C150.245 21.3896 151.396 21.7507 152.115 22.1394C152.245 22.2093 152.365 22.2824 152.478 22.358C152.466 22.358 152.454 22.3587 152.441 22.3587C151.747 22.2693 151.044 22.2274 150.334 22.2274C142.656 22.2274 134.225 27.1683 128.883 30.9614C126.602 32.5808 126.849 35.8678 129.31 37.2261C131.553 38.4638 133.223 40.0402 134.415 41.4766Z" fill="#504882"/>
<path d="M118.638 36.6678C123.117 37.2803 132.81 39.7166 141.357 49.3803L153.889 25.0936C153.784 24.5646 153.392 23.3371 151.968 22.5385C150.011 21.442 144.844 20.5599 132.208 26.9733C131.818 27.1909 124.441 31.3394 118.638 36.6678ZM141.584 52.4336C141.254 52.4336 140.939 52.2866 140.729 52.0298C129.892 38.8185 116.282 38.6471 116.146 38.6471C115.704 38.6464 115.304 38.3839 115.131 37.9807C114.958 37.5769 115.045 37.1108 115.352 36.7956C121.644 30.3405 130.764 25.2695 131.15 25.0563C131.161 25.0506 131.172 25.0442 131.183 25.0384C141.586 19.7562 148.966 18.2867 153.117 20.6729C155.963 22.308 156.124 25.1193 156.129 25.238C156.138 25.4274 156.097 25.6161 156.01 25.785L142.566 51.8378C142.397 52.1672 142.07 52.3887 141.7 52.4272C141.661 52.431 141.623 52.4336 141.584 52.4336Z" fill="#000072"/>
<path d="M152.79 64.7882C152.062 66.4221 151.241 68.0841 150.322 69.7773L136.957 46.1522C136.957 46.1522 139.706 30.6137 150.578 23.6669C152.137 22.6681 154.199 23.3842 154.903 25.1343C155.197 25.8647 155.512 26.7218 155.823 27.6958L155.826 27.6997C158.1 34.7875 160.223 48.1243 152.79 64.7882Z" fill="#FF8DC1"/>
<path d="M150.807 66.1289C149.654 62.5453 148.268 59.359 146.716 56.5259C147.444 55.6506 147.92 54.6623 148.138 53.5675C148.771 50.3935 146.991 47.279 146.062 45.9209C148.424 42.2531 147.354 37.0555 147.304 36.8216C147.192 36.2997 146.732 35.943 146.217 35.943C146.145 35.943 146.073 35.9495 146 35.9639L140.609 37.0443C142.685 32.6038 145.991 27.5603 151.062 24.4189C151.371 24.2269 151.715 24.1289 152.067 24.1289C152.269 24.1289 152.474 24.1616 152.677 24.2269C153.239 24.4078 153.69 24.8239 153.916 25.3681C154.041 25.6705 154.171 25.9978 154.305 26.3505C153.89 26.1715 153.406 26.0448 152.865 26.0448C151.711 26.0448 150.301 26.6229 148.771 28.5048C146.774 30.9596 145.724 32.366 145.173 33.1577C144.945 33.485 145.193 33.9141 145.565 33.9141C145.597 33.9141 145.63 33.9109 145.664 33.9037L147.562 33.5248C147.686 33.5 147.809 33.4882 147.931 33.4882C148.793 33.4882 149.564 34.0872 149.758 34.9619C150.184 36.8693 150.496 40.253 149.162 44.7713C148.895 45.6714 148.961 46.646 149.389 47.4808C150.169 49.0015 151.102 51.9181 149.624 55.6722C149.324 56.4364 149.297 57.2824 149.544 58.0662C149.959 59.3883 150.744 61.4917 152.03 63.5435C151.649 64.3959 151.241 65.2582 150.807 66.1289Z" fill="#B262A9"/>
<path d="M138.228 45.9673L150.26 67.3491C160.431 47.2597 156.189 31.6282 153.832 25.7335C153.617 25.1941 153.185 24.7817 152.648 24.6023C152.118 24.4249 151.57 24.4922 151.104 24.7927C141.842 30.7411 138.736 43.571 138.228 45.9673ZM150.294 70.6953C149.917 70.6953 149.568 70.4875 149.377 70.1488L136.188 46.7132C136.06 46.4859 136.015 46.2185 136.061 45.9595C136.175 45.3108 138.984 29.9849 149.985 22.9189C150.976 22.283 152.183 22.1322 153.299 22.5045C154.43 22.8826 155.34 23.7522 155.794 24.8892C158.336 31.2468 162.978 48.3824 151.22 70.1326C151.034 70.4771 150.684 70.6921 150.304 70.6953H150.294Z" fill="#000072"/>
<path d="M139.106 38.4308L146.118 36.9102C146.118 36.9102 147.231 42.5602 144.686 45.8925C144.686 45.8925 150.663 53.7451 143.406 57.9102L136.957 45.9414C136.957 45.9414 137.883 41.363 139.106 38.4308Z" fill="#726789"/>
<path d="M138.142 45.7861L143.735 56.1918C144.882 55.3327 145.574 54.2899 145.796 53.0821C146.268 50.5107 144.548 47.5458 143.845 46.6198C143.535 46.2114 143.535 45.6211 143.846 45.2127C145.38 43.1997 145.333 40.055 145.179 38.4115L139.888 39.5615C139.05 41.7705 138.376 44.7108 138.142 45.7861ZM143.377 58.8203C143.026 58.8203 142.686 58.6229 142.498 58.2723L136.182 46.5224C136.053 46.2822 136.012 45.999 136.067 45.7283C136.105 45.54 137.012 41.0868 138.239 38.1368C138.374 37.8121 138.644 37.579 138.966 37.5089L145.833 36.0154C146.379 35.8985 146.91 36.2771 147.027 36.868C147.072 37.1005 148.053 42.2673 145.89 45.9133C146.741 47.2633 148.371 50.3594 147.791 53.5145C147.394 55.6743 146.069 57.4158 143.853 58.6918C143.701 58.7788 143.538 58.8203 143.377 58.8203Z" fill="#000072"/>
<path d="M104.087 40.2099C104.087 40.2099 93.8438 39.889 83.6863 48.5823C82.9819 49.1834 82.2794 49.8266 81.5825 50.5214C80.7087 51.3866 79.8379 52.3261 78.983 53.3477L66.6523 26.7706C66.6523 26.7706 66.6549 26.7344 66.6631 26.6685C66.7027 26.3805 66.8666 25.5347 67.467 24.661C69.1366 22.2492 74.1726 19.6399 89.3119 28.1601C89.3119 28.1601 98.1937 33.5822 104.087 40.2099Z" fill="#726789"/>
<path d="M83.5076 43.3047C83.4502 43.1085 83.3909 42.9137 83.3303 42.7209C85.0143 40.4587 87.3345 38.6946 89.2129 37.5056C90.7246 36.5488 90.8565 34.3019 89.4673 33.1581C81.2833 26.4215 75.6904 24.6806 72.0958 24.6806C71.789 24.6806 71.4974 24.6933 71.2197 24.7165C70.6585 24.3681 70.0318 24.1726 69.3911 24.138C69.4896 24.0689 69.5944 24.0024 69.7054 23.9392C70.3682 23.5602 71.3989 23.2177 72.963 23.2177C75.9466 23.2177 80.868 24.4652 88.8563 29.086C89.1422 29.2668 93.2992 31.92 97.6955 35.687C95.1006 36.4523 92.5671 37.491 90.137 38.7996C87.7505 40.085 85.5394 41.5878 83.5076 43.3047Z" fill="#504882"/>
<path d="M67.9552 26.7389L79.6229 51.2331C88.3283 41.8675 97.9578 39.7185 102.392 39.2353C96.8175 33.771 89.6649 29.4451 89.2844 29.2166C76.9484 22.4551 71.8321 23.2167 69.8802 24.2752C68.4905 25.0279 68.0735 26.2294 67.9552 26.7389ZM79.3435 54.2617C79.2955 54.2617 79.2469 54.2585 79.1983 54.2521C78.8337 54.203 78.5185 53.9738 78.3605 53.6418L65.8441 27.3658C65.7629 27.1953 65.7277 27.007 65.7418 26.8187C65.7507 26.7012 65.9893 23.9113 68.8423 22.365C73.0044 20.1108 80.2407 21.7783 90.3505 27.3224C90.3614 27.3281 90.3723 27.3345 90.3831 27.3409C90.7573 27.5637 99.6078 32.8607 105.629 39.4555C105.923 39.7773 105.996 40.2446 105.813 40.6404C105.63 41.0375 105.224 41.2839 104.791 41.2725C104.655 41.2686 91.2324 41.0554 80.1678 53.8844C79.96 54.1251 79.6581 54.2617 79.3435 54.2617Z" fill="#000072"/>
<path d="M66.8555 66.5574C67.5715 68.211 68.3838 69.8952 69.2989 71.6133L84 48.4096C84 48.4096 81.5686 32.8084 70.3692 25.5485C68.7633 24.5055 66.5808 25.1604 65.7911 26.8876C65.4613 27.6084 65.107 28.455 64.7526 29.4184L64.7486 29.4224C62.1587 36.435 59.5448 49.694 66.8555 66.5574Z" fill="#FF8DC1"/>
<path d="M68.6509 67.043C68.3131 66.2849 67.9957 65.535 67.6978 64.7921C68.6079 62.6723 69.0437 60.7292 69.4676 59.486C69.7238 58.7329 70.3385 57.4694 70.0723 56.7202C68.7638 53.0411 69.9825 51.0277 70.7686 49.5755C71.2 48.7788 71.2891 47.8357 71.0597 46.956C69.9083 42.5397 70.2998 39.2692 70.7574 37.4325C70.9631 36.6079 71.6887 36.0544 72.4916 36.0544C72.6238 36.0544 72.7584 36.0689 72.8931 36.1006L74.6953 36.5205C74.7315 36.5294 74.7676 36.5332 74.8025 36.5332C75.1504 36.5332 75.3904 36.1304 75.1847 35.8112C74.6804 35.0284 73.716 33.6363 71.877 31.2017C70.4263 29.2821 69.0605 28.7032 67.9396 28.7032C67.4621 28.7032 67.0282 28.8083 66.6523 28.9604C66.7895 28.6221 66.9229 28.3086 67.0507 28.0192C67.2807 27.498 67.7227 27.1078 68.2644 26.9476C68.4415 26.895 68.6204 26.8691 68.7968 26.8691C69.1509 26.8691 69.4956 26.9736 69.8011 27.1781C74.5557 30.3632 77.5748 35.3431 79.4349 39.7043L74.3188 38.5079C74.239 38.4896 74.1592 38.4807 74.0807 38.4807C73.6019 38.4807 73.168 38.8107 73.0502 39.3028C72.996 39.5282 71.8327 44.5367 73.9872 48.1562C73.0633 49.4463 71.2791 52.4154 71.7972 55.5092C71.8776 55.9918 72.0091 56.4548 72.1918 56.8975C71.8059 57.7082 71.4394 58.5391 71.0921 59.3897C69.9775 62.1226 69.1989 64.7326 68.6509 67.043Z" fill="#B262A9"/>
<path d="M68.7451 26.3315C68.5605 26.3315 68.3733 26.358 68.1881 26.4118C67.6213 26.5754 67.1589 26.974 66.9182 27.5065C64.2871 33.3252 59.4059 48.8131 69.4515 69.1815L82.6362 48.1797C82.1744 45.7715 79.2994 32.8639 69.7958 26.6473C69.4762 26.4383 69.1156 26.3315 68.7451 26.3315ZM69.3523 72.5234C69.338 72.5234 69.3243 72.5234 69.3106 72.5228C68.9127 72.5079 68.5533 72.2834 68.3688 71.9334C56.7128 49.8594 62.0552 32.8807 64.8931 26.6052C65.4005 25.4826 66.3756 24.6415 67.5678 24.2973C68.7444 23.9595 70.0013 24.1446 71.0174 24.8097C82.3062 32.1929 84.7996 47.5851 84.9001 48.2366C84.9405 48.4961 84.8851 48.762 84.7448 48.9852L70.2941 72.0045C70.0906 72.328 69.7345 72.5234 69.3523 72.5234Z" fill="#000072"/>
<path d="M81.9063 41.3113L74.4267 39.6552C74.4267 39.6552 73.0723 45.0054 75.709 48.2551C75.709 48.2551 69.0739 55.5595 76.7423 59.7422L84.0005 48.5293C84.0005 48.5293 83.1355 44.1411 81.9063 41.3113Z" fill="#726789"/>
<path d="M75.4203 41.0808C75.2114 42.6478 75.0735 45.6551 76.6463 47.626C76.9651 48.0256 76.9492 48.5904 76.6081 48.9719C76.5815 49.0023 73.8362 52.1383 74.357 55.1021C74.5603 56.2609 75.2653 57.2768 76.4576 58.1311L82.6882 48.3437C82.4703 47.3085 81.8364 44.4758 81.0081 42.3384L75.4203 41.0808ZM76.7955 60.6562C76.6145 60.6562 76.4316 60.6115 76.2632 60.5183C73.9448 59.2328 72.5855 57.5272 72.2247 55.4494C71.6968 52.4141 73.5148 49.5013 74.4561 48.2356C72.2609 44.6846 73.4462 39.771 73.5014 39.5498C73.6412 38.9875 74.2166 38.6414 74.794 38.77L82.0448 40.4023C82.3846 40.4787 82.6654 40.7105 82.8 41.0249C84.0202 43.8831 84.8593 48.1691 84.8943 48.3499C84.9444 48.6109 84.893 48.8812 84.7494 49.1061L77.7134 60.1573C77.5095 60.4786 77.157 60.6562 76.7955 60.6562Z" fill="#000072"/>
<path d="M151.816 86.2215C151.816 86.2215 153.209 88.0854 155.557 89.5726C156.807 90.3655 157.06 92.0811 156.069 93.176C152.532 97.0897 144.729 104.547 136.031 105.285C135.957 105.293 135.88 105.298 135.803 105.304C135.803 105.304 104.75 125.33 78.4761 103.188C78.4761 103.188 70.2139 101.731 64.9346 92.4327C64.582 91.8095 64.5962 91.0823 64.9042 90.4894C65.0776 90.1462 65.35 89.85 65.7078 89.6468C66.3329 89.29 67.1391 88.939 68.1246 88.7216C68.1246 88.7216 65.8787 87.4648 64.1031 83.6749C63.6793 82.7691 63.9847 81.6826 64.8162 81.1251C65.7331 80.5135 66.8803 79.5502 67.5739 78.2379C67.8826 77.6559 68.1 77.003 68.1686 76.281C68.2184 75.7681 68.298 74.7029 68.496 73.2293C68.5704 72.675 68.6616 72.066 68.7742 71.404C68.9806 70.1885 69.2556 68.8026 69.6329 67.3012C71.7112 58.9693 76.8113 47.0332 89.6126 40.0593C89.9322 39.8839 90.2564 39.7142 90.5844 39.5464C93.898 37.856 97.4018 36.6431 100.991 35.9127C101.272 35.8553 101.555 35.8004 101.836 35.7482C106.185 34.9604 110.641 34.8752 115.028 35.5037C115.554 35.5779 116.08 35.6656 116.602 35.7617C118.914 36.1843 121.202 36.8102 123.434 37.6367C124.111 37.8863 124.796 38.158 125.485 38.4567C127.91 39.4974 130.406 40.8252 132.858 42.5298C139.243 46.959 145.34 53.911 149.177 64.8011C149.618 66.047 150.025 67.3451 150.402 68.6955C150.402 68.6955 150.421 69.0026 150.503 69.5162C150.562 69.8839 150.65 70.3556 150.784 70.8969C151.25 72.7518 152.254 75.4055 154.407 77.3598L154.409 77.3624C154.852 77.7688 155.343 78.1392 155.89 78.4689C156.903 79.0805 157.324 80.3483 156.848 81.4329C156.022 83.3207 154.448 85.8266 151.816 86.2215Z" fill="#726789"/>
<path d="M137.87 103.56L136.03 105.349C135.955 105.358 135.879 105.363 135.802 105.369C135.802 105.369 104.775 125.24 78.522 103.269C78.522 103.269 81.5089 91.1298 92.2133 88.3871C92.7551 88.2489 93.2704 88.0241 93.7274 87.7047C95.6185 86.3846 101.738 83.0869 110.928 87.6144C111.629 87.9601 112.402 88.133 113.185 88.101C117.378 87.9275 131.813 88.4806 137.87 103.56Z" fill="white"/>
<path d="M102.874 98.9961C97.8871 98.9961 94.3608 94.9676 94.3608 94.9676C91.1114 92.5953 92.5219 90.192 92.5219 90.192C93.8668 90.8041 94.9515 91.0497 95.828 91.0497C98.2003 91.0497 99.0424 89.2483 99.3393 88.0396C100.117 88.5815 101.062 88.957 102.118 88.9898C102.167 88.9911 102.217 88.9917 102.266 88.9917C102.907 88.9924 103.514 88.8638 104.07 88.6471C105.008 90.0738 106.578 90.9442 108.265 90.9442C108.372 90.9442 108.479 90.9404 108.586 90.934C111.697 90.7308 113.19 90.3959 113.19 90.3959C113.56 94.1466 110.034 96.0509 110.034 96.0509C107.485 98.2349 105.041 98.9961 102.874 98.9961Z" fill="#B2B2D4"/>
<path d="M91.2628 68.7604C91.5591 70.2242 90.1901 71.2914 89.27 70.325C88.5324 69.5497 87.6222 68.8508 86.549 68.4906C83.7716 67.559 89.7846 61.4556 91.2628 68.7604Z" fill="white"/>
<path d="M116.935 69.1338C116.582 70.2203 117.728 71.1361 118.59 70.4689C119.794 69.5382 121.441 68.7355 123.59 68.6461C128.412 68.4442 120.334 58.6656 116.935 69.1338Z" fill="white"/>
<path d="M115.044 35.5104C114.966 35.6021 114.888 35.6906 114.805 35.7901C114.676 35.9729 114.537 36.144 114.387 36.3072C113.822 37.0598 113.141 37.8455 112.485 38.8114C112.319 39.0495 112.144 39.2843 111.965 39.5224C111.868 39.633 111.791 39.7663 111.71 39.899L111.469 40.2971C111.153 40.8343 110.788 41.343 110.512 41.9433C110.218 42.5274 109.907 43.1109 109.612 43.7171L108.811 45.6151L108.604 46.0964C108.529 46.2571 108.468 46.4203 108.414 46.5888L108.063 47.5931L107.343 49.6355C107.147 50.3354 106.941 51.0411 106.731 51.752L106.413 52.8201L106.251 53.3593L106.12 53.9044L105.582 56.1094L105.293 57.2216L105.148 57.7836L105.033 58.3449C104.923 58.8822 104.81 59.4188 104.695 59.9581C104.502 60.8407 103.304 60.9044 103.028 60.0465C102.854 59.5099 102.685 58.9707 102.522 58.4282C102.079 56.9036 101.747 55.349 101.399 53.7801L101.273 53.1876L101.179 52.5931L101.005 51.3949C100.887 50.5955 100.775 49.7877 100.673 48.9766C100.606 48.1603 100.557 47.3362 100.512 46.5088C100.472 45.6814 100.402 44.8456 100.453 44.002L100.531 41.4483C100.608 40.5878 100.721 39.7221 100.826 38.8472L100.906 38.189C100.933 37.9704 100.991 37.7519 101.032 37.5307L101.246 36.5368L101.316 36.2051L101.378 35.9228C101.651 35.8649 101.927 35.8096 102.2 35.7569C106.434 34.9628 110.773 34.8769 115.044 35.5104Z" fill="#504563"/>
<path d="M101.257 36.7508C101.118 36.8231 100.974 36.8928 100.827 36.9543C100.895 36.938 100.96 36.9166 101.025 36.8928L101.048 36.9085C101.062 36.9191 101.076 36.9223 101.084 36.9298C101.068 36.9731 101.053 37.0127 101.03 37.0447L100.985 37.1119L100.932 37.1841C100.912 37.2055 100.895 37.2293 100.875 37.2507C100.856 37.2695 100.833 37.2934 100.81 37.3254C100.726 37.4453 100.627 37.5364 100.526 37.6513C100.424 37.7794 100.317 37.8999 100.201 38.0142C99.7692 38.5461 99.2444 39.0993 98.7415 39.78C98.6122 39.9457 98.4795 40.114 98.3408 40.2798C98.2678 40.3595 98.2055 40.4531 98.1464 40.5467L97.96 40.8242C97.7172 41.2035 97.4379 41.5614 97.2236 41.9865C96.998 42.3978 96.7578 42.8091 96.5323 43.2367L95.9139 44.5748L95.7587 44.9139C95.6996 45.0263 95.6545 45.1405 95.6121 45.2586L95.3414 45.9688L94.7881 47.4061C94.6381 47.9003 94.4776 48.397 94.317 48.8962L94.0742 49.6497L93.9468 50.0315L93.848 50.4164L93.4333 51.968L93.2131 52.7535L93.1003 53.146L93.0127 53.5441C92.9284 53.9202 92.8409 54.2995 92.7506 54.6787C92.604 55.3016 91.6838 55.3468 91.4722 54.7434C91.3395 54.3641 91.2095 53.9817 91.0801 53.6C90.7411 52.5287 90.487 51.4336 90.2189 50.3253L90.1234 49.9115L90.0497 49.4896L89.9144 48.6481C89.8268 48.0818 89.7393 47.5129 89.6603 46.9408C89.6092 46.3669 89.5727 45.7873 89.5389 45.2021C89.5077 44.62 89.454 44.0323 89.4911 43.437L89.5502 41.6367C89.5979 41.1608 89.663 40.6773 89.728 40.1938C90.0557 40.023 90.3881 39.8578 90.7245 39.6946C94.122 38.0494 97.7145 36.8689 101.395 36.1581C101.683 36.1022 101.973 36.0488 102.261 35.998C101.973 36.2893 101.635 36.543 101.257 36.7508Z" fill="#504563"/>
<path d="M126 38.7176C125.621 39.0253 125.215 39.357 124.81 39.7388C124.647 39.8884 124.479 40.0347 124.305 40.1785C124.216 40.2481 124.138 40.3307 124.057 40.4165L123.816 40.6682C123.498 41.0117 123.144 41.3271 122.846 41.72C122.539 42.0985 122.214 42.4777 121.904 42.8705L121.021 44.1265L120.795 44.4452C120.717 44.5473 120.645 44.6579 120.578 44.7717L120.169 45.4462L119.33 46.8134C119.081 47.2888 118.822 47.7675 118.562 48.2495L118.171 48.9741L117.971 49.3389L117.794 49.7129L117.073 51.2232L116.697 51.9816L116.505 52.366L116.341 52.7536C116.181 53.1244 116.019 53.4951 115.854 53.8658C115.585 54.4714 114.646 54.3549 114.55 53.7026C114.49 53.2928 114.431 52.8831 114.38 52.4713C114.246 51.3201 114.203 50.1585 114.148 48.9825L114.13 48.5422L114.139 48.1025L114.168 47.2173C114.188 46.628 114.211 46.0329 114.243 45.4351C114.304 44.8407 114.38 44.2429 114.458 43.6426C114.542 43.0423 114.603 42.4335 114.756 41.8331L115.167 40.01C115.347 39.4071 115.556 38.7983 115.755 38.1836L115.906 37.7245C115.958 37.5697 116.033 37.4201 116.097 37.2679L116.497 36.3553L116.653 36.0009C119.086 36.4269 121.493 37.0578 123.842 37.891C124.554 38.1427 125.275 38.4165 126 38.7176Z" fill="#504563"/>
<path d="M154.304 77.0859L153.198 76.6943C152.61 76.4918 152.015 76.2919 151.414 76.0951C150.211 75.7009 148.979 75.3473 147.726 75.0363C147.099 74.8636 146.462 74.7532 145.819 74.5964C145.177 74.4828 144.523 74.3241 143.863 74.2187C142.53 73.9375 141.175 73.7865 139.695 73.4919C139.994 73.271 140.307 73.0736 140.625 72.8737C140.945 72.6845 141.269 72.4877 141.605 72.3417C141.939 72.1856 142.279 72.0339 142.623 71.8885C142.971 71.7508 143.321 71.6454 143.676 71.5267L144.211 71.3617C144.39 71.3103 144.569 71.2754 144.75 71.2297C145.111 71.1459 145.474 71.0729 145.84 70.9948C146.572 70.8945 147.315 70.7815 148.055 70.746C148.963 70.6838 149.877 70.6787 150.788 70.7276C151.24 72.5525 152.215 75.1633 154.304 77.0859Z" fill="#504563"/>
<path d="M150.652 69.7773C150.209 69.6499 149.761 69.5331 149.31 69.4188C148.701 69.2482 148.087 69.1395 147.463 68.9884C146.841 68.8766 146.206 68.7173 145.566 68.6136C144.273 68.3399 142.96 68.1906 141.521 67.8983C141.814 67.6809 142.118 67.4866 142.426 67.2898C142.734 67.1043 143.048 66.91 143.374 66.7663C143.701 66.6127 144.03 66.4634 144.364 66.3228C144.698 66.1848 145.04 66.0811 145.382 65.9667L145.9 65.8018C146.074 65.7512 146.25 65.7169 146.424 65.6719C146.774 65.5894 147.128 65.5176 147.483 65.4433C148.116 65.3527 148.758 65.2571 149.403 65.2121C149.818 66.4184 150.201 67.6753 150.556 68.9827C150.556 68.9827 150.575 69.2801 150.652 69.7773Z" fill="#504563"/>
<path d="M78.5215 76.5327C76.9354 76.8601 75.4833 77.0281 74.054 77.3407C73.3472 77.4571 72.6457 77.6343 71.9583 77.7606C71.2676 77.9349 70.5863 78.0577 69.9131 78.2496C69.1201 78.4543 68.3385 78.673 67.5649 78.9102C67.8861 78.2736 68.1123 77.5595 68.1836 76.7698C68.2355 76.2088 68.3183 75.0437 68.5243 73.4319C68.871 73.4382 69.2177 73.4559 69.561 73.4799C70.3541 73.5187 71.1505 73.6422 71.9354 73.7565C72.3272 73.8433 72.717 73.9209 73.1035 74.0176C73.298 74.0656 73.4899 74.1044 73.6817 74.1644L74.2546 74.3479C74.6357 74.4763 75.0107 74.597 75.3803 74.7501C75.7525 74.9089 76.1161 75.0769 76.4742 75.254C76.8351 75.4135 77.1811 75.6351 77.5251 75.8453C77.8658 76.0648 78.201 76.2871 78.5215 76.5327Z" fill="#504563"/>
<path d="M76.6955 69.9764C75.2799 70.3124 73.9867 70.4804 72.7144 70.7984C72.0843 70.9176 71.4596 71.1007 70.8474 71.2256C70.3552 71.3663 69.8708 71.4762 69.3911 71.6133C69.5824 70.2607 69.8372 68.7187 70.1867 67.0481C70.4014 67.0818 70.6154 67.1184 70.827 67.155C71.1766 67.2405 71.5255 67.323 71.8703 67.4178C72.0411 67.4695 72.2144 67.509 72.3853 67.5671L72.8955 67.7538C73.2318 67.888 73.5688 68.0072 73.8973 68.163C74.2265 68.3274 74.5503 68.499 74.8692 68.6756C75.1906 68.8407 75.5018 69.064 75.8051 69.2772C76.1085 69.5033 76.4071 69.7266 76.6955 69.9764Z" fill="#504563"/>
<path d="M137.655 104.48L138.196 103.936C136.74 100.189 134.797 97.3147 132.628 95.1142C138.036 89.3186 142.245 82.0766 143.949 74.35C144.617 74.4592 145.281 74.6222 145.93 74.7386C146.588 74.901 147.239 75.0154 147.88 75.1942C149.162 75.5164 150.421 75.8826 151.651 76.2909C151.92 76.3803 152.188 76.4704 152.455 76.5605C153.244 77.6249 154.243 78.617 155.512 79.404C156.056 79.7413 156.278 80.4369 156.029 81.0214C155.284 82.7689 153.958 84.9195 151.874 85.241C151.494 85.2995 151.172 85.5579 151.026 85.9215C150.88 86.285 150.931 86.7006 151.16 87.0162C151.222 87.1003 152.691 89.0977 155.162 90.7072C155.487 90.9195 155.705 91.2641 155.756 91.6513C155.807 92.0333 155.696 92.4008 155.444 92.6868C151.973 96.6329 145.227 103.157 137.655 104.48ZM79.5552 102.565C79.516 102.553 79.4762 102.544 79.4364 102.536C79.3587 102.521 71.6565 100.991 66.7551 92.1253C66.7056 92.0353 66.6716 91.9406 66.6523 91.8439C68.0864 93.5751 70.3965 95.7592 73.736 97.2227C73.7752 97.2398 73.815 97.2477 73.8536 97.2477C74.0212 97.2477 74.1676 97.0991 74.1419 96.9124C74.0751 96.4193 74.018 95.5954 74.1406 94.5205C74.1599 94.3542 74.2948 94.2529 74.4328 94.2529C74.5118 94.2529 74.5915 94.2858 74.6512 94.3581C75.4565 95.3351 77.4378 97.5613 80.5558 99.9571C80.0914 101.006 79.7658 101.914 79.5552 102.565Z" fill="#504882"/>
<path d="M106.484 112.699C96.236 112.699 86.9962 109.362 78.9198 102.724C78.8041 102.629 78.6676 102.557 78.522 102.515C78.7352 101.889 79.0647 101.016 79.5346 100.007C84.7603 103.823 93.1454 108.086 104.517 108.086C105.661 108.086 106.834 108.043 108.038 107.952C116.24 107.332 125.231 102.482 132.235 95.3514C134.43 97.467 136.396 100.23 137.87 103.833L137.322 104.356C136.789 104.445 136.253 104.509 135.713 104.546C135.527 104.559 135.348 104.618 135.192 104.716C135.115 104.764 127.386 109.561 116.604 111.677C113.13 112.359 109.756 112.699 106.484 112.699Z" fill="#B2B2D4"/>
<path d="M144.258 71.6133C144.408 70.5401 144.502 69.4631 144.538 68.3785C144.746 68.4152 144.954 68.4538 145.161 68.4956C145.847 68.6007 146.527 68.7622 147.193 68.8755C147.862 69.0287 148.52 69.1389 149.172 69.3117C149.263 69.3333 149.354 69.3548 149.444 69.377C149.489 69.741 149.576 70.3071 149.739 70.9978C149.702 70.9972 149.665 70.9972 149.628 70.9972C149.102 70.9972 148.577 71.0143 148.054 71.0485C147.284 71.084 146.513 71.1967 145.752 71.2967C145.372 71.3746 144.994 71.4474 144.62 71.531C144.498 71.5601 144.378 71.5854 144.258 71.6133ZM144.52 65.9509C144.235 60.1607 142.211 54.3052 137.87 48.7872C141.865 52.7571 145.517 58.0662 148.133 65.1607C147.825 65.1994 147.519 65.2412 147.215 65.2823C146.835 65.3577 146.455 65.4305 146.08 65.514C145.894 65.5596 145.705 65.5945 145.519 65.6457L144.964 65.8129C144.816 65.8597 144.667 65.9047 144.52 65.9509Z" fill="#504882"/>
<path d="M152.478 76.1758C152.191 76.0916 151.904 76.0075 151.615 75.9239C150.295 75.5424 148.943 75.2003 147.567 74.8993C146.879 74.7322 146.18 74.6253 145.474 74.4736C144.777 74.3648 144.065 74.2125 143.348 74.1105C143.583 73.1799 143.775 72.2388 143.918 71.2952C144.045 71.2682 144.173 71.2436 144.301 71.2154C144.697 71.1343 145.096 71.0636 145.497 70.9881C146.301 70.891 147.116 70.7817 147.929 70.7473C148.482 70.7141 149.037 70.6975 149.592 70.6975C149.632 70.6975 149.67 70.6975 149.709 70.6981C150.096 72.1982 150.885 74.3053 152.478 76.1758Z" fill="#383068"/>
<path d="M148.826 69.7773C148.742 69.7533 148.658 69.73 148.574 69.7067C147.969 69.5196 147.359 69.4003 146.739 69.2344C146.121 69.1117 145.491 68.9368 144.855 68.823C144.663 68.7778 144.471 68.736 144.278 68.6962C144.302 67.8228 144.298 66.9459 144.261 66.0677C144.397 66.0177 144.535 65.969 144.672 65.9183L145.187 65.7373C145.36 65.6818 145.534 65.644 145.707 65.5947C146.055 65.5042 146.407 65.4253 146.76 65.3438C147.042 65.2992 147.325 65.2539 147.61 65.2121C148.036 66.5593 148.431 67.9647 148.794 69.4332C148.801 69.5155 148.81 69.6313 148.826 69.7773Z" fill="#383068"/>
<path d="M68.3925 87.1328C67.6771 86.4259 66.6921 85.2207 65.8254 83.3446C65.6314 82.9255 65.773 82.4147 66.1533 82.1564C67.4527 81.2769 68.9881 79.8821 69.6653 77.921C69.9596 77.8432 70.2558 77.7666 70.5533 77.6927C70.7545 77.6378 70.9556 77.5888 71.1581 77.5423C71.1303 77.8464 71.1096 78.0903 71.0928 78.2689C71.0242 79.0006 70.8069 79.6624 70.4984 80.2522C69.805 81.5816 68.6583 82.558 67.7418 83.1785C66.9113 83.7429 67.1422 84.3275 67.5659 85.2449C67.9281 86.029 68.1958 86.6463 68.3925 87.1328ZM71.6833 73.4161C71.2351 73.3566 70.7842 73.3056 70.3347 73.2794C70.4305 72.5823 70.5417 71.861 70.6717 71.1169C70.803 71.0875 70.9356 71.0574 71.0682 71.0253C71.4343 70.9626 71.8049 70.8828 72.1781 70.8056C71.9853 71.7047 71.8281 72.5496 71.6981 73.3258C71.693 73.3559 71.6878 73.386 71.6833 73.4161ZM72.9244 67.7537L72.7272 67.6929C72.5428 67.6399 72.3559 67.604 72.1716 67.5569C71.9323 67.5013 71.6917 67.4503 71.4498 67.4006C73.6508 58.4144 78.7034 47.6063 90.1669 40.9716C90.1624 41.0187 90.1579 41.0651 90.1533 41.1122L90.0958 42.987C90.0951 42.9981 90.0945 43.0092 90.0938 43.021C89.4878 43.4166 88.9012 43.824 88.3333 44.2425C87.5792 44.7983 87.1736 45.6968 87.1788 46.6405C87.1885 48.4819 85.9622 51.4089 83.8395 54.262C81.5848 57.2916 78.9705 59.3632 77.2035 59.6948C76.3032 59.8641 75.5271 60.4344 75.1655 61.2851C74.2083 63.5385 73.48 65.7298 72.9244 67.7537ZM99.6293 38.4814C99.9495 38.0708 100.263 37.7006 100.537 37.3397C100.649 37.2207 100.754 37.0951 100.853 36.9617C100.936 36.8603 101.018 36.7773 101.092 36.6786C101.207 36.6524 101.323 36.6262 101.438 36.6007L101.345 37.0232C101.304 37.2455 101.244 37.4652 101.216 37.6849L101.175 38.0152C100.657 38.1603 100.142 38.3153 99.6293 38.4814ZM116.674 36.7766C115.926 36.6916 115.177 36.6282 114.428 36.585C114.589 36.3862 114.745 36.1927 114.895 36.0024C115.555 36.0867 116.213 36.1875 116.869 36.3052L116.777 36.5275C116.744 36.6112 116.708 36.6936 116.674 36.7766Z" fill="#B9B3C4"/>
<path d="M100.435 38.7422L100.476 38.354C100.503 38.0957 100.564 37.8373 100.605 37.576L100.698 37.0793C103.474 36.3636 106.307 36.0031 109.144 36.0031C110.808 36.0031 112.474 36.1276 114.131 36.3759C113.981 36.5996 113.825 36.8272 113.665 37.0609C112.888 37.0078 112.111 36.9817 111.334 36.9817C108.877 36.9817 106.421 37.2446 104 37.7681C103.719 37.8304 103.437 37.8958 103.156 37.965C102.243 38.1864 101.335 38.4462 100.435 38.7422Z" fill="#A8A2B1"/>
<path d="M89.4785 43.3047C89.4792 43.2928 89.4798 43.2816 89.4805 43.2704L89.5378 41.3812C89.5423 41.3337 89.5468 41.2869 89.5513 41.2395C90.0791 40.9311 90.6209 40.6299 91.1764 40.34C94.1307 38.7947 97.2442 37.6508 100.435 36.9134C100.362 37.0129 100.28 37.0966 100.197 37.1987C100.099 37.3331 99.9943 37.4597 99.8822 37.5796C99.609 37.9433 99.2971 38.3163 98.9782 38.7301C96.8892 39.4128 94.8459 40.2715 92.871 41.3054C92.5443 41.4761 92.2209 41.65 91.9032 41.8293C91.0617 42.2998 90.2537 42.792 89.4785 43.3047Z" fill="#A8A2B1"/>
<path d="M123.261 38.7422C121.762 38.3146 120.243 37.9706 118.713 37.7121C118.204 37.6255 117.693 37.5465 117.181 37.4797C116.774 37.4256 116.365 37.3774 115.957 37.335C115.989 37.2612 116.025 37.188 116.057 37.1136L116.147 36.9161C118.416 37.2874 120.658 37.8469 122.845 38.5969C122.983 38.644 123.122 38.6928 123.261 38.7422Z" fill="#A8A2B1"/>
<path d="M69.3911 78C69.5368 77.5421 69.6387 77.0526 69.6832 76.531L69.7083 76.2268C69.7786 75.3566 69.8728 74.4214 69.9969 73.4348C70.4037 73.4605 70.8116 73.5107 71.2172 73.5692C71.1212 74.1944 71.0434 74.7719 70.979 75.3C70.8613 76.2654 70.7899 77.0545 70.7419 77.6276C70.5588 77.6733 70.3767 77.7215 70.1947 77.7755C69.9255 77.8482 69.6574 77.9235 69.3911 78Z" fill="#A8A2B1"/>
<path d="M70.3047 70.6953C70.4735 69.5263 70.6811 68.3021 70.9354 67.0431C71.1315 67.092 71.3265 67.1421 71.5205 67.1967C71.6699 67.243 71.8214 67.2783 71.9709 67.3304L72.1308 67.3902C72.0233 67.8632 71.9242 68.3265 71.8325 68.7796C71.7192 69.3329 71.6175 69.8701 71.5258 70.3894C71.2232 70.4652 70.9228 70.5436 70.6261 70.6053C70.5186 70.6368 70.4111 70.6664 70.3047 70.6953Z" fill="#A8A2B1"/>
<path d="M109.197 36.3611C102.981 36.3611 96.7834 37.8103 91.1585 40.6774C74.2536 49.2919 70.3026 66.5569 69.4518 76.0811L69.4241 76.385C69.1682 79.0991 67.205 80.9434 65.6027 82.013C65.2237 82.2668 65.0825 82.7685 65.2759 83.1803C66.8492 86.5374 68.8124 87.7066 68.8324 87.7181C69.2224 87.9443 69.437 88.3882 69.3674 88.8327C69.2984 89.2772 68.9665 89.6363 68.5263 89.734C67.778 89.8997 67.0709 90.1702 66.4264 90.5376C65.972 90.7972 65.8108 91.374 66.0661 91.8237C70.9852 100.486 78.7151 101.981 78.7931 101.995C78.9813 102.03 79.1605 102.114 79.3068 102.236C87.3158 108.983 96.4785 112.374 106.641 112.375C109.886 112.375 113.232 112.029 116.676 111.336C127.369 109.185 135.033 104.31 135.109 104.261C135.264 104.162 135.442 104.102 135.626 104.089C143.865 103.501 151.349 96.4959 155.075 92.3723C155.328 92.0929 155.439 91.7338 155.388 91.3605C155.336 90.9822 155.118 90.6455 154.792 90.4381C152.312 88.8655 150.837 86.9139 150.776 86.8316C150.545 86.5233 150.495 86.1173 150.641 85.762C150.788 85.4068 151.111 85.1543 151.492 85.0972C153.584 84.783 154.914 82.6818 155.662 80.9743C155.912 80.4032 155.689 79.7235 155.143 79.394C150.009 76.2944 149.249 69.9135 149.16 68.9203C143.876 50.1 132.023 42.1684 123.002 38.8285C118.546 37.1789 113.866 36.3611 109.197 36.3611ZM106.849 114.523C98.0434 114.523 87.7657 112.132 78.1041 104.084C76.496 103.717 69.0967 101.598 64.157 92.9004C63.3088 91.4061 63.8386 89.495 65.3371 88.6406C65.5814 88.5012 65.8328 88.3721 66.0899 88.2545C65.2417 87.3854 64.1995 86.0492 63.2888 84.1053C62.6417 82.7254 63.1122 81.0449 64.3819 80.197C65.5891 79.3908 67.0651 78.0398 67.2404 76.1801L67.2669 75.8878C67.4596 73.7338 68.0448 67.1801 71.1431 59.7308C75.1038 50.2086 81.5021 43.1429 90.1595 38.7309C100.556 33.433 112.805 32.7213 123.766 36.7793C133.282 40.3022 145.783 48.6546 151.302 68.4353C151.322 68.5086 151.335 68.5824 151.339 68.6582C151.343 68.7173 151.812 74.8272 156.279 77.5239C157.761 78.4188 158.36 80.2779 157.672 81.8486C156.906 83.5972 155.62 85.6715 153.593 86.6935C154.177 87.2678 154.984 87.9693 155.969 88.5937C156.842 89.1475 157.422 90.0481 157.561 91.0663C157.698 92.0717 157.387 93.0815 156.705 93.8357C152.797 98.1584 144.952 105.475 136.06 106.247C134.642 107.121 127.324 111.41 117.185 113.463C114.12 114.085 110.619 114.523 106.849 114.523Z" fill="#000072"/>
<path d="M77.8671 104.48C77.5929 104.072 77.363 103.667 77.1424 103.234C76.9212 102.807 76.7205 102.362 76.533 101.908C76.3498 101.452 76.1772 100.986 76.0444 100.499C75.9117 100.014 75.7921 99.5135 75.7827 99.0022C75.8575 99.0976 75.9298 99.1908 75.9971 99.2826L76.2214 99.5436C76.3697 99.715 76.5168 99.882 76.6744 100.041C76.9835 100.362 77.2907 100.678 77.6054 100.986L78.5363 101.911C78.8448 102.215 79.1532 102.537 79.4349 102.838L77.8671 104.48Z" fill="#000072"/>
<path d="M135.131 104.599L137.411 102.795C138.175 102.187 138.933 101.572 139.689 100.95C140.442 100.326 141.184 99.6902 141.921 99.0438C142.666 98.4033 143.41 97.7647 144.261 97.1743C143.891 98.1175 143.359 98.9703 142.769 99.7729C142.166 100.564 141.537 101.341 140.873 102.085C140.214 102.833 139.529 103.56 138.819 104.265C138.466 104.617 138.105 104.964 137.734 105.3C137.364 105.641 136.999 105.973 136.597 106.305L135.131 104.599Z" fill="#000072"/>
<path d="M151.155 87.1328C150.982 86.9591 150.835 86.763 150.692 86.5598C150.552 86.3548 150.418 86.1416 150.296 85.9173C150.171 85.6952 150.054 85.4644 149.955 85.2141C149.858 84.9644 149.775 84.6929 149.739 84.3937C150.028 84.4485 150.288 84.5132 150.534 84.5998C150.78 84.6846 151.01 84.7859 151.233 84.8949C151.459 85.0003 151.675 85.1169 151.886 85.2394C152.093 85.3642 152.298 85.495 152.478 85.6475L151.155 87.1328Z" fill="#000072"/>
<path d="M110.242 95.9301C109.722 98.5084 108.093 102.004 103.125 102.59C100.632 102.885 98.8114 102.096 97.4856 100.868C94.5511 98.1463 94.0439 93.276 94.0439 93.276C100.711 95.8516 101.369 88.0437 101.369 88.0437C102.126 96.3931 110.465 93.1131 110.465 93.1131C110.465 93.1131 110.562 94.3478 110.242 95.9301Z" fill="#000072"/>
<path d="M110.478 96.0247C109.957 98.5667 108.325 102.013 103.347 102.591C100.849 102.882 99.0243 102.104 97.6958 100.893C99.2522 98.3592 103.268 93.579 110.478 96.0247Z" fill="#FF459A"/>
<path d="M95.6929 94.8422C96.1129 96.4063 97.008 98.7306 98.8113 100.14C100.096 101.144 101.621 101.532 103.477 101.324C108.7 100.74 109.804 96.7646 110.016 94.6165C108.396 94.9528 105.804 95.1799 103.718 93.9058C102.909 93.4119 102.258 92.7514 101.764 91.9269C101.294 92.7591 100.634 93.5662 99.713 94.1367C98.5652 94.8474 97.2193 95.0834 95.6929 94.8422ZM102.546 103.566C100.593 103.566 98.8697 102.99 97.409 101.844C93.7866 99.0033 93.1612 93.6717 93.137 93.446C93.095 93.0691 93.2557 92.6973 93.5615 92.4645C93.8673 92.2317 94.2742 92.1713 94.6371 92.3031C96.2422 92.8903 97.5468 92.8858 98.514 92.2902C100.377 91.1442 100.679 88.1568 100.682 88.1266C100.735 87.5638 101.216 87.1323 101.793 87.1316H101.794C102.37 87.1316 102.852 87.56 102.905 88.1227C103.088 90.0315 103.759 91.3519 104.898 92.0478C107.157 93.4273 110.729 92.159 110.765 92.1455C111.093 92.024 111.461 92.0594 111.757 92.2433C112.054 92.4272 112.246 92.7366 112.274 93.0794C112.545 96.3221 111.11 102.673 103.73 103.499C103.327 103.544 102.932 103.566 102.546 103.566Z" fill="#000072"/>
<path d="M102.555 87.247L102.599 87.657C102.617 87.8047 102.642 87.9523 102.666 88.1C102.715 88.3953 102.783 88.6864 102.863 88.9689C103.014 89.5369 103.246 90.0605 103.522 90.5169C104.095 91.4218 104.914 91.988 106.02 92.1583C106.157 92.182 106.294 92.2034 106.438 92.2107L106.652 92.229L106.889 92.2333C107.204 92.2364 107.523 92.2565 107.832 92.2284L108.3 92.2071L108.757 92.1503L108.987 92.1222L109.21 92.0759C109.357 92.0429 109.51 92.0216 109.656 91.9831C110.248 91.8446 110.773 91.589 111.319 91.3504C111.46 91.2942 111.585 91.2186 111.732 91.16C111.863 91.0874 112.015 91.0264 112.153 90.9495C112.443 90.8031 112.743 90.642 113.071 90.44L113.083 90.4327C113.122 90.4089 113.173 90.4205 113.197 90.4589C113.204 90.4699 113.208 90.4821 113.209 90.4937C113.249 90.9111 113.141 91.3095 112.97 91.6677C112.888 91.8526 112.778 92.0155 112.665 92.1821C112.543 92.3352 112.419 92.4981 112.273 92.6311C111.702 93.1919 110.972 93.5385 110.251 93.8137C110.069 93.882 109.884 93.9339 109.7 93.9924L109.423 94.0754L109.143 94.1364L108.582 94.2573L108.02 94.3329C107.644 94.3915 107.273 94.3976 106.898 94.4196L106.618 94.4336L106.315 94.4263C106.114 94.4251 105.91 94.4067 105.705 94.3823C104.884 94.3006 104.04 94.0205 103.294 93.5574C102.544 93.0979 101.94 92.4359 101.508 91.7281C101.071 91.0191 100.805 90.2563 100.634 89.5022C100.552 89.1232 100.498 88.7431 100.464 88.363C100.446 88.1732 100.44 87.9822 100.436 87.79C100.434 87.5905 100.435 87.4215 100.452 87.1798C100.493 86.6093 100.994 86.1785 101.573 86.2188C102.089 86.2542 102.492 86.6526 102.544 87.1432L102.555 87.247Z" fill="#000072"/>
<path d="M102.231 87.2447C102.252 87.4788 102.257 87.6348 102.26 87.8231C102.262 88.0041 102.261 88.1837 102.251 88.3626C102.232 88.7204 102.199 89.0782 102.14 89.4354C102.019 90.1477 101.822 90.8694 101.485 91.5521C101.156 92.2335 100.687 92.8819 100.087 93.3628C99.4974 93.8545 98.8018 94.1666 98.1203 94.3112C97.7786 94.3858 97.44 94.4195 97.1063 94.4336C96.7847 94.4322 96.4718 94.4242 96.1552 94.4114C95.5134 94.3253 94.8636 94.2379 94.2255 93.9318C94.0654 93.8747 93.9107 93.7731 93.7561 93.6863C93.6791 93.6399 93.6014 93.5989 93.5269 93.5471L93.308 93.3769C93.2371 93.3177 93.165 93.2612 93.0966 93.1987C93.0299 93.1314 92.9688 93.0574 92.9059 92.9861C92.7757 92.8516 92.6748 92.6828 92.5764 92.518C92.4737 92.3579 92.4126 92.1649 92.3429 91.9907C92.294 91.8017 92.242 91.6201 92.2298 91.4284C92.1944 91.051 92.2304 90.6717 92.3857 90.3306C92.401 90.297 92.4376 90.2836 92.4682 90.3004C92.478 90.3051 92.4853 90.3132 92.4914 90.3219L92.4969 90.3306C92.6797 90.6185 92.8576 90.8587 93.0415 91.0618C93.1241 91.1674 93.228 91.2528 93.3093 91.3436L93.4486 91.4627C93.4902 91.5044 93.5342 91.5427 93.5849 91.5736C93.9505 91.8494 94.3239 92.07 94.7726 92.1965C95.2108 92.3344 95.7175 92.3445 96.2126 92.3465L96.9761 92.2886C97.2126 92.253 97.4424 92.2066 97.6576 92.1359C98.0836 91.9873 98.4675 91.7963 98.7749 91.5023C99.0836 91.2145 99.3397 90.8533 99.542 90.4228C99.7382 89.9903 99.8953 89.5013 99.9901 88.9787C100.039 88.7177 100.081 88.4507 100.106 88.1816C100.118 88.0464 100.132 87.9112 100.14 87.7781L100.156 87.4135L100.161 87.3019C100.19 86.6716 100.677 86.1867 101.249 86.2176C101.769 86.2459 102.181 86.6911 102.231 87.2447Z" fill="#000072"/>
<path d="M83.1022 79.5403C82.8878 83.0661 84.9552 86.0531 87.7203 86.2121C90.4847 86.3712 92.9006 83.641 93.115 80.1151C93.3301 76.5887 91.2626 73.6017 88.4976 73.4427C85.7325 73.2843 83.3172 76.0139 83.1022 79.5403Z" fill="#000072"/>
<path d="M87.658 78.3526C87.5795 79.6125 88.3319 80.6794 89.3373 80.7359C90.3428 80.7931 91.2205 79.8179 91.299 78.558C91.3767 77.2989 90.6251 76.232 89.6196 76.1755C88.6142 76.1182 87.7357 77.0934 87.658 78.3526Z" fill="white"/>
<path d="M122.333 79.5403C122.548 83.0661 120.48 86.0531 117.715 86.2121C114.95 86.3712 112.535 83.641 112.32 80.1151C112.106 76.5887 114.173 73.6017 116.938 73.4427C119.702 73.2843 122.118 76.0139 122.333 79.5403Z" fill="#000072"/>
<path d="M117.777 78.3526C117.855 79.6125 117.103 80.6794 116.098 80.7359C115.092 80.7931 114.214 79.8179 114.136 78.558C114.058 77.2989 114.809 76.232 115.815 76.1755C116.82 76.1182 117.699 77.0934 117.777 78.3526Z" fill="white"/>
<path d="M102.128 88.9551C105.968 89.0498 108.691 85.6824 107.425 84.6825C106.919 84.2823 106.002 83.9998 105.084 83.8055C103.277 83.4222 101.381 83.3754 99.5485 83.6689C98.6184 83.8181 97.683 84.0543 97.1486 84.4293C95.8122 85.3653 98.2875 88.8604 102.128 88.9551Z" fill="#000072"/>
<path d="M100.307 85.3008C99.3671 85.3008 98.6202 85.1202 98.6085 84.8813C98.5962 84.6299 99.404 84.4095 100.413 84.3894C100.463 84.3882 100.513 84.3877 100.562 84.3877C101.502 84.3877 102.249 84.5688 102.26 84.8076C102.273 85.0586 101.465 85.279 100.457 85.2995C100.406 85.3004 100.356 85.3008 100.307 85.3008Z" fill="#4D4D9D"/>
<path d="M40.5645 42.3203C42.6095 39.5565 43.8261 36.1076 43.8261 32.3653C43.8261 23.2807 36.6725 15.9166 27.8479 15.9166C19.0234 15.9166 11.8696 23.2807 11.8696 32.3653C11.8696 41.4493 19.0234 48.8134 27.8479 48.8134C30.3024 48.8134 32.6269 48.2422 34.7049 47.2242L41.8912 49.6992L40.5645 42.3203Z" fill="white"/>
<path d="M42.9131 29.6094C40.3228 23.5771 34.5524 19.3789 27.848 19.3789C21.1434 19.3789 15.3728 23.5764 12.7827 29.6087C14.2793 22.312 20.4658 16.8268 27.848 16.8268C35.2301 16.8268 41.417 22.312 42.9131 29.6094Z" fill="white"/>
<path d="M35.0066 46.7643C35.1267 46.7643 35.2471 46.784 35.363 46.8227L41.0576 48.7286L40.0193 43.1173C39.9622 42.8059 40.0384 42.4847 40.2308 42.2324C42.3081 39.5039 43.4055 36.2466 43.4055 32.8125C43.4055 24.231 36.4265 17.2493 27.8479 17.2493C19.2693 17.2493 12.29 24.231 12.29 32.8125C12.29 41.3947 19.2693 48.3765 27.8479 48.3765C30.1822 48.3765 32.4284 47.8713 34.524 46.8733C34.6761 46.801 34.8412 46.7643 35.0066 46.7643ZM42.509 51.5234C42.3895 51.5234 42.2693 51.5044 42.1524 51.4656L35.072 49.0952C32.7927 50.1103 30.3645 50.624 27.8479 50.624C18.0306 50.624 10.0435 42.6338 10.0435 32.8125C10.0435 22.9919 18.0306 15.0017 27.8479 15.0017C37.6653 15.0017 45.6521 22.9919 45.6521 32.8125C45.6521 36.5744 44.5009 40.151 42.3172 43.1889L43.6136 50.195C43.6859 50.5866 43.546 50.9867 43.2459 51.2475C43.0383 51.4282 42.7757 51.5234 42.509 51.5234Z" fill="#000072"/>
<path d="M41.0871 48.7812L35.4796 46.9324C35.3655 46.8948 35.2469 46.8757 35.1287 46.8757C34.9658 46.8757 34.8032 46.9113 34.6534 46.9815C32.5899 47.9495 30.3781 48.4396 28.0796 48.4396C19.9148 48.4396 13.2214 42.1129 12.7827 34.1726C14.6755 39.1086 18.662 43.2295 24.0938 45.1613C26.2193 45.9165 28.3913 46.2753 30.5275 46.2753C33.9339 46.2747 37.2485 45.3633 40.1326 43.6986L41.0871 48.7812Z" fill="#B2B2D4"/>
<path d="M42.0001 49.6992L34.7877 47.3118C32.7022 48.2937 30.3693 48.8447 27.9059 48.8447C19.0493 48.8447 11.8696 41.7411 11.8696 32.9784C11.8696 32.1438 11.9355 31.3249 12.0609 30.5253C12.2629 31.6428 12.5688 32.7366 12.9719 33.7923C13.4001 41.5749 19.9348 47.7759 27.9059 47.7759C30.1499 47.7759 32.3092 47.2955 34.3238 46.3467C34.47 46.278 34.6287 46.243 34.7877 46.243C34.9032 46.243 35.0189 46.2617 35.1304 46.2986L40.6048 48.1107L39.6729 43.1291C40.048 42.9123 40.4148 42.6818 40.774 42.4388C40.7386 42.4863 40.7045 42.535 40.6686 42.5812L42.0001 49.6992Z" fill="#000072"/>
<path d="M33.485 27.9636C31.8715 26.3222 29.2555 26.6161 27.6419 28.2581L27.3908 28.5136L27.1397 28.2581C25.5261 26.6161 22.9101 26.3222 21.2966 27.9636H21.2966C19.683 29.6057 19.683 32.2677 21.2966 33.9097L21.5477 34.1652L26.6206 39.3277C27.046 39.7606 27.7357 39.7606 28.161 39.3277L33.2339 34.1652L33.485 33.9097C35.0985 32.2677 35.0985 29.6057 33.485 27.9636Z" fill="#FF0068"/>
</svg>
