<svg width="498" height="325" viewBox="0 0 498 325" fill="none" xmlns="http://www.w3.org/2000/svg">
<path fill-rule="evenodd" clip-rule="evenodd" d="M260.242 250.012C245.718 257.183 228.017 260.346 209.475 258.024C179.41 254.258 155.052 237.067 144.479 215.001C131.149 218.552 116.511 219.653 101.412 217.762C48.7906 211.172 10.5222 170.778 15.9368 127.544C21.1592 85.8452 65.1067 56.735 115.43 60.6309C125.961 10.6582 182.143 -22.828 244.673 -14.9967C289.981 -9.32226 326.705 16.5511 342.696 49.7875C354.801 45.8542 368.421 44.4478 382.527 46.2144C412.933 50.0225 437.513 67.5577 447.884 89.9878C459.987 87.318 473.049 86.6339 486.482 88.3162C539.103 94.9065 577.372 135.3 571.957 178.534C566.542 221.767 519.494 251.476 466.873 244.886C457.425 243.702 448.443 241.422 440.09 238.242C430.407 277.262 385.884 303.123 336.433 296.929C302.366 292.663 274.316 274.221 260.242 250.012Z" fill="#ECF1F7"/>
<path fill-rule="evenodd" clip-rule="evenodd" d="M20.6216 110.116C34.1616 78.0374 72.471 57.3107 115.43 60.6349C125.96 10.6622 182.142 -22.824 244.672 -14.9927C289.981 -9.31825 326.705 16.5551 342.695 49.7915C354.801 45.8582 368.421 44.4519 382.527 46.2185C412.933 50.0265 437.512 67.5617 447.883 89.9918C459.987 87.322 473.049 86.6379 486.481 88.3202C531.671 93.9797 566.276 124.57 571.721 160.48C557.592 193.94 516.512 215.055 471.318 209.395C461.87 208.212 452.888 205.936 444.535 202.751C434.852 241.771 390.329 267.632 340.878 261.439C306.807 257.172 278.757 238.73 264.683 214.525C250.159 221.692 232.458 224.859 213.915 222.537C183.85 218.772 159.492 201.58 148.92 179.514C135.59 183.061 120.952 184.162 105.853 182.271C60.6678 176.612 26.067 146.023 20.6216 110.116Z" fill="#F8FAFB"/>
</svg>
