<svg width="817" height="174" viewBox="0 0 817 174" fill="none" xmlns="http://www.w3.org/2000/svg">
<path fill-rule="evenodd" clip-rule="evenodd" d="M406.79 117.141C422.297 101.778 443.575 90.1822 468.269 85.2402C508.308 77.2269 546.781 88.8113 569.71 112.508C585.236 102.282 603.478 94.6294 623.586 90.6051C693.666 76.5798 759.818 111.89 771.341 169.467C782.456 225.001 738.695 280.962 672.704 297.451C680.562 365.826 623.028 432.601 539.753 449.267C479.413 461.344 421.429 443.936 386.808 408.271C373.011 418.464 356.2 426.072 337.415 429.832C296.921 437.936 258.019 426.007 235.193 401.758C220.86 410.335 204.454 416.782 186.565 420.362C116.485 434.387 50.3323 399.077 38.8092 341.5C27.2862 283.923 74.7546 225.874 144.834 211.848C157.417 209.33 169.871 208.414 181.906 208.915C177.637 154.904 223.519 102.85 289.377 89.6697C334.746 80.5898 378.47 92.1974 406.79 117.141Z" fill="#ECF1F7"/>
<path fill-rule="evenodd" clip-rule="evenodd" d="M772.788 193.746C769.165 240.53 729.036 283.369 672.702 297.447C680.56 365.822 623.027 432.597 539.752 449.263C479.411 461.339 421.428 443.932 386.807 408.267C373.01 418.46 356.199 426.068 337.413 429.828C296.92 437.932 258.018 426.003 235.191 401.754C220.858 410.33 204.452 416.778 186.563 420.358C126.382 432.402 69.0944 408.062 46.8134 364.479C50.5995 315.679 94.1058 271.16 154.293 259.115C166.876 256.596 179.329 255.674 191.365 256.181C187.096 202.17 232.978 150.116 298.836 136.936C344.21 127.855 387.935 139.462 416.253 164.4C431.761 149.043 453.039 137.441 477.732 132.499C517.772 124.486 556.245 136.071 579.173 159.768C594.7 149.547 612.943 141.894 633.051 137.87C693.227 125.827 750.508 150.169 772.788 193.746Z" fill="#F8FAFB"/>
</svg>
