<svg width="131" height="160" viewBox="0 0 131 160" fill="none" xmlns="http://www.w3.org/2000/svg">
<path d="M71.2171 14.2643C76.1455 8.32271 85.8687 1.03599 93.7903 -0.0225106C95.1348 -0.202331 96.6502 0.120903 97.6899 1.01978C100.722 3.64138 102.093 10.5622 102.334 14.4017C102.892 23.2931 101.556 30.4146 98.303 38.5638C102.4 45.5366 104.416 54.2615 111.014 59.4469C111.884 60.1305 114.191 61.1088 113.745 62.3199C112.994 64.3596 111.133 66.4688 109.752 68.1431C110.677 68.1613 113.099 67.9562 112.626 69.6043C112.269 70.846 111.074 72.0155 110.248 72.9736C106.06 77.6454 100.999 81.1346 95.5283 84.1742C90.6639 86.8285 85.5314 88.9597 80.2169 90.5323C78.3351 91.0911 76.3542 91.4787 74.5303 92.023C81.3417 98.3006 82.5113 106.991 79.5164 115.494C80.4616 119.164 81.6781 123.381 82.3419 127.045C87.5904 124.289 86.8039 118.72 87.2082 113.696C87.3418 112.036 87.4719 110.267 87.8224 108.641C89.1769 102.151 93.3328 96.5905 99.1773 93.4474C105.431 90.0377 113.479 89.5253 120.41 91.5675C123.615 92.5121 131.787 96.1618 130.939 101.004C130.738 102.15 128.161 103.25 127.279 103.907C126.614 104.388 126.136 104.748 125.517 105.296C124.169 106.476 123.016 107.861 122.098 109.399C120.32 112.345 119.281 116.129 118.668 119.523C118.332 121.384 118.139 123.532 117.717 125.351C116.861 129.147 115.104 132.682 112.592 135.658C110.446 138.266 107.751 140.37 104.698 141.821C98.6958 144.689 91.0316 144.84 84.7892 142.632C83.1059 142.037 81.5752 141.216 80.0346 140.323C79.2595 143.457 77.8745 146.927 76.7264 149.983C77.4177 150.403 81.4931 150.813 82.6424 151.04C84.2354 151.355 85.8106 151.721 87.3425 152.27C88.3671 152.636 89.71 153.117 90.1691 154.195C90.2786 154.452 90.3124 154.709 90.1742 154.967C89.3548 156.495 84.7336 157.431 83.0457 157.784C77.413 158.965 71.5501 159.439 65.8105 159.733C57.0528 160.182 28.4731 160.242 21.6902 155.621C21.3421 155.383 20.8973 155.019 20.8733 154.563C20.8597 154.305 20.9918 154.056 21.1503 153.862C23.406 151.108 33.9363 150.245 37.4637 149.849C34.3673 145.451 31.6813 139.895 31.0451 134.51C30.1041 134.038 28.909 133.37 28.1454 132.657C28.1467 130.814 28.8321 127.407 29.2442 125.586C25.8392 125.391 25.1237 125.146 24.1329 121.667C23.8872 120.805 23.5647 119.81 23.3086 118.933C19.7931 118.298 17.7942 115.941 17.2318 112.44C16.7885 109.679 17.2949 107.946 18.9626 105.723C18.3413 103.721 17.7082 101.722 17.0629 99.7276C15.9049 96.249 14.305 93.8892 18.3137 91.5184C20.232 91.4041 23.1196 91.7666 25.1397 91.8656L38.0131 92.4024C38.5259 92.7266 39.4304 93.1253 40.0133 93.3222C40.7009 92.4417 41.9844 92.6389 42.9695 92.7183L43.6388 92.8833C44.9097 93.3158 44.0363 93.6641 44.6825 94.0366C44.9828 93.9314 45.0333 93.9005 45.3116 93.7409L45.4165 93.6254C46.354 93.5788 47.2927 93.5679 48.2311 93.5924C48.6321 93.4976 48.6643 93.5666 48.86 93.3129L48.6301 92.7998L48.9042 92.1602C48.99 91.1299 49.0565 90.7137 48.8533 89.718L49.5122 89.669C51.4789 89.3721 52.1913 89.1872 54.0106 88.533C60.3426 86.0237 63.1645 81.0727 60.9889 74.4988C60.7508 74.3059 59.7913 74.0155 59.4459 73.8985C56.9377 73.0513 55.0137 71.4612 53.3315 69.4574C52.5346 68.5081 51.7936 66.5301 50.7284 66.0033C47.6182 64.4653 44.235 63.4865 40.7449 64.097C39.5978 64.2976 38.6357 64.7254 37.5313 65.0258C36.2662 68.5925 33.6253 71.0473 30.3159 72.7072C29.5683 76.1014 30.1234 78.168 31.5397 81.1539C30.0821 81.2034 28.5108 81.2556 27.0583 81.1839C25.3995 82.2655 26.0607 83.8055 26.072 85.6104L26.114 87.4934C23.7383 86.5421 21.3079 85.0573 19.118 83.7065C16.6923 82.3307 13.8353 80.037 11.6872 78.257C9.8341 76.7217 0.597098 68.6533 1.31468 66.414C1.6837 65.9333 2.01915 65.8969 2.61158 65.8206C2.89323 65.7846 3.17533 65.7511 3.45765 65.72C2.35571 64.3949 0.0522405 61.4574 0 59.7027C0.52774 58.7332 2.14964 57.9695 3.02683 57.2143C6.31821 54.3809 7.87519 49.9928 9.48509 46.0439C10.5535 43.3615 11.6605 40.6943 12.8058 38.0437C8.50808 29.0908 6.50249 16.7996 9.46019 7.15187C11.1103 1.76992 15.0199 1.89491 19.5664 3.57212C25.9059 5.91067 32.4098 10.1222 37.1652 14.9263C40.9854 13.629 44.0772 12.8468 48.0824 12.4166C47.7587 12.0066 47.1907 11.3672 47.2838 10.8044C47.3354 10.4919 47.648 10.1544 47.9427 10.0352C48.9566 9.62496 63.9568 12.2623 66.2207 12.7705C67.9055 13.1485 69.607 13.6414 71.2171 14.2643Z" fill="black"/>
<path d="M47.2959 59.4594C46.0016 52.9805 46.5712 46.3918 50.2573 40.7198C51.2853 39.1383 54.3236 35.6415 56.0961 35.0131L56.208 35.1257L56.1515 35.7093L56.3008 35.7629C57.4144 35.2101 58.599 34.5326 59.7241 34.095C64.0657 32.4069 69.1914 32.6562 73.4785 34.1792C83.9961 37.9156 91.2917 47.1746 95.8249 57.036C96.4435 58.3822 98.3178 59.7764 98.9605 61.1519C99.1624 62.0804 98.5371 63.7716 98.2719 64.5469C96.4038 70.0079 92.571 75.1007 87.3417 77.6843C79.7627 81.4288 70.3152 80.1797 63.0707 76.2251C62.3233 75.8172 61.5928 75.2633 60.8423 74.8829C60.6058 74.6903 59.6525 74.4005 59.3093 74.2838C56.8172 73.4383 54.9056 71.8512 53.2342 69.8514C52.4424 68.9041 51.7063 66.93 50.6478 66.4042C47.5577 64.8692 44.1962 63.8924 40.7286 64.5017C39.5889 64.7019 38.633 65.1289 37.5357 65.4287C36.2787 68.9883 33.6548 71.4383 30.3667 73.0949C28.328 73.7564 26.7773 75.2196 24.2503 75.8509C20.6429 76.7517 17.0312 76.2669 13.7886 74.4672C9.31664 71.9848 6.86873 67.6044 5.48387 62.8216C5.19542 61.8245 4.7084 59.4337 5.23142 58.5009L5.28421 58.3031C7.02091 56.1318 9.43038 52.7694 10.9557 50.392C14.4545 44.9386 17.5995 39.0756 23.921 36.3731C27.7688 34.7282 30.1862 35.1164 33.8239 36.6203L34.5784 36.991C34.6502 36.6575 34.6538 36.5585 34.6197 36.2189L34.7233 36.1524C38.8503 39.4663 40.7129 43.301 41.3075 48.5283C41.6072 51.3818 41.4981 54.2638 40.9834 57.0863L41.0144 57.2021C41.222 57.9995 41.0228 58.7358 41.7934 59.0628C43.83 58.7697 45.3443 58.9339 47.2959 59.4594Z" fill="black"/>
<path d="M5.05333 58.4229C6.80791 56.2049 9.24217 52.7703 10.7832 50.3419C14.318 44.7713 17.4953 38.7824 23.8819 36.0217C27.7693 34.3415 30.2116 34.738 33.8867 36.2743L34.649 36.6529C35.3742 37.2547 36.2208 37.9359 36.8565 38.6208C39.8426 41.8375 41.3219 48.0393 40.9412 52.3794C40.6701 51.4108 40.4842 50.4666 40.1274 49.5312C36.3435 39.4688 25.9607 38.0554 18.9031 45.744C17.4395 47.4853 17.0769 47.3137 15.5036 48.6336C12.513 51.1426 11.2395 53.8252 10.5362 57.5658L9.53739 58.7001C8.54597 59.695 7.70628 60.3414 6.76484 61.2209L5.60606 61.9297C5.39385 60.7736 5.31642 59.7892 5 58.625L5.05333 58.4229Z" fill="white"/>
<path d="M19 45.7885C26.1376 38.1734 36.6382 39.5733 40.4649 49.5395C40.3963 49.6077 40.2672 49.7303 40.2146 49.8061C39.8488 50.3344 40.937 53.8075 40.9898 54.7207C41.0632 55.9892 40.7429 58.8932 39.9301 59.8026C39.7301 59.8766 39.054 60.1041 39.0544 59.6778C39.0554 58.7468 39.0012 57.8775 38.8283 56.9614C38.3542 54.5445 37.2746 52.2855 35.6888 50.3929C32.6374 46.7465 27.3434 44.6666 22.641 45.4451C21.4844 45.6365 20.5228 46.1422 19.4513 46.1812C19.2266 46.1895 19.1961 46.0364 19 45.7885Z" fill="#444444"/>
<path d="M9.729 57.9297C10.0289 58.0219 10.2456 57.9813 10.5513 58.0581C10.6105 58.904 10.4992 60.4386 10.59 61.1051C11.033 64.5544 12.6681 67.7164 15.1883 69.9978C18.4902 72.9887 21.767 73.6521 26 73.531C22.9722 75.1022 19.471 75.3609 16.261 74.2502C10.5418 72.2934 7.85412 67.4092 6.16657 61.7175C6.11556 61.4807 6.06858 61.311 6 61.0788L7.09914 60.3877C7.99212 59.5301 8.7886 58.8998 9.729 57.9297Z" fill="#444444"/>
<path d="M6 60.9692L6.9441 59.9297C7.07664 60.9005 6.98428 60.847 6.55068 61.4003L6.14308 61.9297C6.09926 61.5736 6.0589 61.3183 6 60.9692Z" fill="#363636"/>
<path d="M47.0395 51.5972C46.8392 46.363 48.9997 41.1189 52.6792 37.4412C53.3599 36.761 53.8554 36.0435 54.7569 35.6196L54.9023 35.6677L55.0233 36.1188C55.2805 36.2033 55.4519 36.1136 55.6896 35.9642C69.8389 27.0801 85.8116 39.3358 92.4542 51.6959C94.5171 55.5343 94.8383 56.868 98 60.1134C97.8211 61.7378 97.0896 64.157 96.2886 65.5897C96.1077 65.429 95.0826 64.5016 94.9476 64.4252C94.2193 64.1455 93.908 63.4434 93.1852 62.9676L93.3933 63.4467C94.451 64.4344 94.6783 65.0056 96.073 66.1033C95.9347 66.3695 95.7926 66.6337 95.6471 66.896C89.3457 78.2221 77.3899 80.1557 65.8452 75.7421C64.5922 75.263 63.4408 74.5848 62.2662 73.9443C64.78 74.0037 66.5895 73.9922 69.0175 73.1502C72.7415 71.8502 75.7971 69.1523 77.5229 65.6408C79.098 62.3983 79.3373 58.216 78.1359 54.8163C79.1855 53.6808 79.3845 53.2176 79.7146 51.6983C78.984 52.2798 78.3301 52.8366 77.48 53.2296C77.1772 52.6471 76.8206 52.1415 76.4561 51.5956C77.5876 50.4331 77.5527 50.0083 77.7482 48.4302C76.8884 49.2908 76.4009 49.6659 75.3504 50.2719C75.1143 49.9356 74.8593 49.6127 74.587 49.3045C72.3036 46.7693 68.4208 45.1982 65.0208 45.0322C61.1464 44.8314 57.3504 46.1616 54.4693 48.7296C50.9974 51.8409 49.8681 54.9095 49.6452 59.4316C48.9202 59.1082 48.27 58.8263 47.5289 58.5431C47.1717 56.5254 46.7071 53.8629 47.5125 51.8806C47.3705 51.8402 47.1568 51.8354 47 51.8225L47.0395 51.5972Z" fill="#444444"/>
<path d="M47.0128 51.7915C46.8124 46.5028 48.974 41.2042 52.6555 37.4882C53.3365 36.8009 53.8322 36.0759 54.7343 35.6476L54.8797 35.6962L55.0008 36.152C55.2581 36.2374 55.4296 36.1467 55.6674 35.9958C69.8241 27.0192 85.8052 39.4025 92.4513 51.8912C94.5153 55.7696 94.8366 57.1172 98 60.3963C97.821 62.0376 97.0891 64.4821 96.2877 65.9297C96.1067 65.7673 95.0811 64.8302 94.946 64.753C94.2173 64.4704 93.9059 63.761 93.1827 63.2803L93.3909 63.7644C93.0341 63.4627 92.2154 62.5753 91.937 62.1969C91.4776 61.7113 91.0327 61.2122 90.603 60.7001C89.8237 59.7569 89.1334 58.9591 89.2556 57.7339C89.2406 57.6975 89.2256 57.6609 89.2108 57.6245C82.6672 45.8956 69.1586 33.6811 55.1073 41.2662C52.2784 42.7934 48.5642 46.7437 47.782 49.633C47.5347 50.2124 47.2131 51.4707 47.0128 51.7915Z" fill="white"/>
<path d="M89.0197 57.9297C90.2879 59.148 91.5008 60.3473 93 61.4583L92.761 61.9297C92.1201 61.4944 91.4993 61.0471 90.8997 60.5882C89.8123 59.7428 88.8491 59.0278 89.0197 57.9297Z" fill="black"/>
<path d="M92.1708 61.9297C93.0769 62.9655 94.1939 63.989 95 64.9297C94.2735 64.6546 93.963 63.9641 93.242 63.4962L93.4495 63.9673C93.0939 63.6738 92.2777 62.81 92 62.4417L92.1708 61.9297Z" fill="#363636"/>
<path d="M47.0475 51.6954C47.288 51.433 47.6743 50.4037 47.9714 49.9297C48.0032 50.6311 48.0956 51.3171 47.6159 51.9297C47.4452 51.8963 47.1885 51.8923 47 51.8817L47.0475 51.6954Z" fill="#363636"/>
<path d="M23.317 46.9867C30.1986 46.3323 36.3045 51.3881 36.9453 58.2711C37.5862 65.1538 32.5185 71.25 25.6342 71.8773C18.7692 72.5029 12.6937 67.4522 12.0547 60.5883C11.4156 53.7246 16.4543 47.639 23.317 46.9867Z" fill="#444444"/>
<path d="M19.7514 52.6842L19.6155 52.5989C18.8145 52.0873 17.0715 50.1629 18.1502 49.395C18.6208 49.6518 19.8012 51.1875 20.9393 51.0019C21.4664 50.916 22.5785 50.087 23.0778 49.7916C25.0986 48.5911 27.821 48.7206 29.911 49.7117C32.1955 50.7953 33.719 53.0586 34.47 55.3146C35.7815 59.2542 34.7862 65.1787 30.0505 66.6868C29.0021 67.0206 26.7007 67.029 25.6801 66.5951C25.6118 66.4566 25.5851 66.4316 25.5527 66.2842C24.2802 65.7386 23.6474 65.3183 22.5331 64.5004L22.4394 64.6503C22.6331 64.7714 22.6221 64.7178 22.7039 64.8722C21.8031 64.7599 21.0158 63.903 20.4918 63.2393C18.6693 60.9307 18.3606 58.3977 18.7737 55.6424L18.7958 55.5006C17.1425 54.9892 16.3955 53.8132 16 52.3072L16.182 52.1464C17.2247 52.6664 18.0812 53.5766 19.2217 53.2737C19.541 53.0273 19.5372 53.0008 19.7514 52.6842Z" fill="black"/>
<path d="M22.2926 65.0622C20.1456 62.8314 20.0353 61.5724 20.0006 58.7551C19.9212 52.3026 27.8422 47.7997 33 53.6225C32.0608 53.1483 31.0653 52.6002 29.9939 52.4977C22.5 51.7807 19.9119 60.8165 24.0942 65.2882C24.5185 65.7419 25.7932 66.4024 26.0359 66.8514C25.7187 66.9727 25.8781 66.9275 25.4824 66.8851C24.1382 66.3275 23.4697 65.898 22.2926 65.0622Z" fill="white"/>
<path d="M27.2856 54.9297C30.5823 55.1131 31.0209 57.8921 27.8006 58.9297C24.4143 58.7356 23.9274 56.0508 27.2856 54.9297Z" fill="white"/>
<path d="M30.7568 61.9297C32.1807 61.9844 32.3996 63.1683 31.3197 63.9297C29.7542 63.7522 29.6009 62.781 30.7568 61.9297Z" fill="white"/>
<path d="M77.4252 55.8623C78.3956 59.4911 78.2127 63.146 76.2953 66.4525C74.5234 69.4562 71.6381 71.6405 68.2654 72.531C65.5483 73.2335 61.6659 73.0797 59.2643 71.4879C57.5131 70.3271 55.1052 68.5144 53.9669 66.727C51.3016 62.5425 51.391 57.4096 53.9562 53.2309C55.7852 50.2289 58.7387 48.0825 62.1594 47.2694C65.4086 46.4991 68.8308 47.0507 71.6732 48.803C72.4605 49.2946 73.4449 49.996 74.0239 50.7225L73.9426 50.8511C73.3728 50.8805 72.7164 50.0903 72.2371 49.7675C71.5401 49.3184 70.7204 48.797 69.932 48.5212C65.9212 47.1179 61.2293 48.2453 58.3573 51.391C54.5946 55.5126 54.3195 62.9042 58.5952 66.7497C60.3508 68.3286 62.6353 68.8803 64.9591 68.7909C65.3462 68.7778 66.7697 68.4049 67.0936 68.2083L66.986 68.1289C67.0974 68.029 68.1252 67.7525 68.3934 67.6464C69.5444 67.191 70.3481 66.6743 71.3001 65.9061C71.7709 66.0429 71.9798 66.1706 72.4251 65.8643C75.7443 63.5791 76.6302 59.6751 76.0806 56.016L77.4252 55.8623Z" fill="#444444"/>
<path d="M57 53.3301C57.2254 53.0367 57.4679 52.7564 57.7263 52.4908C59.3254 50.8473 61.7962 49.9222 64.0826 49.9297C72.3103 49.9565 75.9695 60.0905 70.1774 65.7189C69.2187 66.4826 68.4093 66.9964 67.2501 67.4491C66.9801 67.5546 65.945 67.8295 65.8327 67.9288C65.5179 67.9257 65.4682 67.9551 65.1901 67.8282C65.3955 67.4513 66.8299 66.7761 67.2508 66.4028C72.2025 62.012 70.3045 53.1413 63.6116 51.7002C60.9581 51.1289 59.1678 51.9275 57 53.3301Z" fill="white"/>
<path d="M43.3323 59.9302C45.0223 59.9167 46.05 60.1634 47.6688 60.6616C48.5736 62.2866 48.8485 63.2211 50 64.9297C48.5616 64.2068 47.1862 63.7702 45.652 63.3644C42.6653 62.6443 40.8229 63.0866 38 63.8824C38.9142 62.5961 39.1766 62.0891 39.7897 60.597C41.176 60.1812 41.8996 60.0261 43.3323 59.9302Z" fill="#9C9B9B"/>
<path d="M60.2913 54.9297C61.0154 55.0024 61.5848 55.3489 61.8828 56.5061C62.0444 57.1273 62.0387 57.8263 61.8668 58.4405C61.6418 59.2553 61.2786 59.6114 60.7873 59.9297C60.488 59.9079 60.164 59.9123 59.897 59.6901C59.5069 59.3638 59.213 58.8075 59.0785 58.1407C58.9445 57.4948 58.9832 56.7901 59.1855 56.191C59.4307 55.4585 59.8188 55.1677 60.2913 54.9297Z" fill="white"/>
<path d="M64.9573 61.9297C65.633 61.9546 66.1055 61.9827 66.6065 62.4724C66.9018 62.7555 67.042 63.1434 66.989 63.53C66.8982 64.2341 66.4891 64.5351 65.9055 64.9297C63.8633 64.7049 63.3302 63.2106 64.9573 61.9297Z" fill="white"/>
<path d="M49 61.9297C49.8229 62.2606 49.8888 62.9832 50 63.9297C49.8449 63.7643 49.1489 62.2379 49 61.9297Z" fill="#646463"/>
<path d="M75 52.9455C75.5019 52.9551 75.3675 52.791 75.752 53.3401C75.9415 54.0693 75.9274 54.0676 76 54.9297C75.578 54.822 75.0799 53.9886 75 52.9455Z" fill="#444444"/>
<path d="M81.7465 7.3372C82.4267 6.77619 85.0912 5.19923 86.0064 4.73035C88.6011 3.40123 92.6319 1.28231 95.5775 2.12018C96.5267 2.39017 97.4753 3.8865 97.8862 4.78528C98.6229 5.97597 99.1391 7.98526 99.4437 9.35159C100.886 15.8213 100.542 23.3114 99.0982 29.7404C98.6315 31.8173 97.5035 35.4533 96.4999 37.2533C95.816 36.4504 95.5165 36.0582 94.6913 35.4104C95.4428 37.2905 96.3225 38.8797 97.2447 40.6717C101.146 48.2524 103.389 57.0249 111 61.8973C107.713 64.1174 104.041 67.1646 100.932 69.6443C91.6131 77.075 81.9736 83.8788 70.4359 87.2947C67.238 88.2415 64.0295 88.8686 60.726 89.3662C59.2658 89.5862 56.8679 89.5724 55.5545 89.9297L55.4346 89.875C54.9918 88.7242 54.7826 89.3275 54.2287 88.4803C60.4965 85.9769 63.2897 81.0374 61.1362 74.4788C61.8839 74.8591 62.6116 75.4128 63.3562 75.8206C70.5737 79.7738 79.9859 81.0225 87.5366 77.2793C92.7464 74.6965 96.5648 69.6055 98.4259 64.1464C98.6902 63.3715 99.3132 61.6809 99.112 60.7527C98.4717 59.3777 96.6044 57.9839 95.9881 56.6382C91.4718 46.7802 84.2035 37.5244 73.7252 33.7893C69.4541 32.2669 64.3475 32.0177 60.0221 33.7052C58.9012 34.1426 57.7211 34.8199 56.6116 35.3725L56.4628 35.3189L56.5192 34.7355L56.4076 34.623C54.6417 35.2511 51.6148 38.7468 50.5907 40.3277C46.9184 45.9977 46.3509 52.5841 47.6403 59.0607C45.696 58.5354 44.1874 58.3713 42.1583 58.6643C41.3906 58.3374 41.5891 57.6014 41.3822 56.8043L41.3514 56.6884C41.8641 53.867 41.9728 50.9859 41.6742 48.1334C41.0819 42.908 39.2262 39.0746 35.1147 35.7619L35.0115 35.8283C35.0454 36.1678 35.0418 36.2668 34.9703 36.6002L34.2187 36.2296C33.9471 34.289 28.9651 34.1594 27.4391 34.4341C21.9241 35.4272 17.7716 39.4365 14.6108 43.8544C14.1377 44.5124 13.1387 46.1224 12.7211 46.611C12.459 46.6717 12.4137 46.7328 12.2236 46.9219L12.1025 46.91C12.0717 46.6838 12.1085 46.4929 12.1461 46.2697L12 46.2356C12.766 43.5233 16.716 34.9696 18.4577 32.9368C18.8049 32.0006 20.6214 29.9067 21.2837 29.0722C27.7555 20.9212 37.3059 15.7704 47.5503 14.4377C48.5465 14.3082 50.7819 14.4131 51.0515 13.3598C50.8459 12.521 50.3902 12.2838 49.7202 11.7232C50.4692 11.8067 51.3705 12.0081 52.1152 12.1713C55.5681 12.9274 59.0825 13.3312 62.5515 13.9509C64.5286 14.0293 69.7575 15.7008 71.7197 16.3372C72.604 15.4867 73.5421 14.3485 74.4432 13.4501C76.5083 11.3908 79.2697 8.85658 81.7465 7.3372Z" fill="#9C9B9B"/>
<path d="M48.905 11.9297C49.6694 12.0123 50.5893 12.2116 51.3492 12.3732C54.8731 13.1218 58.4597 13.5215 62 14.1349C60.4826 14.6022 52.4806 12.3678 50.311 12.4156C49.9739 13.0097 50.982 13.6046 50.1743 14.2685C49.843 14.3244 49.6344 14.3588 49.3065 14.4531C49.5426 14.8225 49.5309 14.9381 49.5695 15.3658C51.0067 15.2582 52.4139 14.9142 53.8455 14.8004C56.4269 14.5951 58.9526 14.8442 61.5149 15.0082C61.3207 15.1202 56.7624 14.8286 55.9591 14.8723C46.4249 15.3915 36.8846 17.7068 28.8772 22.9546C27.029 24.1659 24.9475 25.9945 23.3402 27.4381C22.1208 28.5407 20.9937 29.7367 19.9697 31.0147C19.3481 31.7808 19.1929 32.2375 18.4449 32.9227C18.4496 32.5955 20.7031 29.9424 21.1823 29.4149C25.2558 24.9318 30.4781 21.2666 36.155 18.9743C37.2297 18.5404 38.2437 17.9554 39.2499 17.7914C39.0063 17.5586 38.7763 17.5691 38.4934 17.4612C38.4119 17.4301 38.1916 16.8613 38.0076 16.8892C37.0429 17.0359 35.1637 17.9429 34.2764 18.3393C33.0074 20.3075 32.6609 20.9828 30.0844 20.6893C29.8556 20.663 28.3824 21.6476 28.1415 21.8368C25.6371 23.6218 23.6236 25.232 21.5592 27.5056C20.6596 28.4892 19.7945 29.5025 18.9659 30.5438C18.6003 31.0077 17.3714 32.7593 17 32.9297C17.3544 32.0029 19.2082 29.9301 19.8841 29.104C26.4889 21.035 36.2356 15.9361 46.6905 14.6168C47.7072 14.4886 49.9885 14.5925 50.2636 13.5497C50.0539 12.7194 49.5888 12.4846 48.905 11.9297Z" fill="#CFD0D0"/>
<path d="M81 6.84359C81.7164 6.33378 84.523 4.90077 85.4869 4.4747C88.22 3.2669 92.4657 1.3414 95.5682 2.10279C96.5681 2.34813 97.5673 3.70788 98 4.52461L97.7886 4.48396C97.5253 4.1086 96.9656 3.21921 96.5938 2.99802C96.3328 3.01834 96.283 2.9956 96.0573 3.08093C95.6938 3.59798 96.9387 4.37427 97.3869 4.72507L97.3026 4.82148C96.2093 3.8711 95.2933 3.25362 93.5919 3.28965C91.2686 3.33916 88.399 4.41029 86.326 5.29022C85.5905 5.60218 85.13 5.96345 84.3049 6.27964C84.6873 5.64505 87.8909 4.71159 88.6314 4.12087C88.4444 3.73002 88.5225 3.68956 88.1931 3.55693C86.6942 3.98522 85.1659 4.88306 83.7655 5.51946C83.3539 5.70664 81.2005 6.99977 81.0111 6.92671L81 6.84359Z" fill="#CFD0D0"/>
<path d="M91.691 6.96278C94.1699 6.66968 95.3639 8.36034 95.9855 10.5799C97.9408 17.5609 96.9661 25.521 93.9517 32.0573C93.7443 32.507 93.5249 32.7863 93.0602 32.9287C93.2213 33.0212 87.4006 26.4298 87.2312 26.1819C87.2921 25.5508 88.3938 24.8608 88.9394 23.9314C88.892 22.5923 85.6986 23.7062 84.7255 22.8876C84.6259 22.6164 84.5781 22.4538 84.6672 22.1677C85.023 21.0244 86.6631 19.644 87.1571 18.1559C87.2673 17.8231 87.3195 17.4935 87.1327 17.1769C86.1497 15.5124 79.6857 19.9089 78.2715 19.4228C78.121 19.3709 78.0492 19.1715 78.0181 19.0266C77.8945 18.449 78.4331 17.7626 78.7346 17.3157C81.4727 13.257 86.7812 7.90389 91.691 6.96278Z" fill="black"/>
<path d="M90.9349 7.93915C92.3485 7.83909 93.3988 8.53484 93.8458 9.92281C95.4772 14.989 95.2344 20.7297 94.0179 25.86C93.6206 27.5354 92.8234 29.3412 92.1632 30.9297C90.5314 28.7781 89.4495 27.5257 87.4965 25.7079C88.404 24.8901 89.127 24.2887 88.9868 22.9878C88.2574 21.6278 86.5423 21.7677 85.1704 21.68C90.923 13.5827 84.1696 15.5181 79 17.5481C79.665 16.7633 80.3237 15.733 81.0261 14.9883C83.7933 12.0544 86.9185 8.89847 90.9349 7.93915Z" fill="#363636"/>
<path d="M61.6129 147.93C62.2634 148.799 63.0499 149.903 63.736 150.717C62.6111 151.589 60.8249 153.52 61.9323 154.829C64.179 157.487 71.7744 156.357 74.2432 154.603C75.2154 153.913 76.1296 150.388 76.5379 149.266C77.2253 149.716 81.2776 150.156 82.4204 150.399C84.0044 150.737 85.5707 151.13 87.0939 151.717C88.1127 152.11 89.448 152.626 89.9045 153.781C90.0134 154.057 90.047 154.333 89.9096 154.61C89.0948 156.247 84.4998 157.25 82.8214 157.63C77.2207 158.896 71.3909 159.404 65.6838 159.719C56.9757 160.2 28.5577 160.265 21.8133 155.31C21.4671 155.056 21.0248 154.665 21.001 154.176C20.9875 153.9 21.1188 153.632 21.2764 153.425C23.5193 150.472 33.99 149.547 37.4975 149.122L37.6712 149.373C37.5857 149.746 31.2571 154.224 38.9692 154.967C41.6717 155.228 45.2492 154.866 47.823 153.946C49.1274 153.48 50.002 149.508 50.4844 148.047C51.4892 148.271 60.981 148.351 61.6129 147.93Z" fill="#CFD0D0"/>
<path d="M110.589 61.9297L110.985 62.1718C111.302 63.5787 106.476 67.559 106.244 68.8944C106.648 69.9202 109.058 69.6543 110.005 69.6327C99.5822 82.5315 80.254 89.7414 64.1724 91.4559C59.9595 91.8629 55.7253 92.0078 51.4942 91.8901L51.5059 91.788L49.0502 91.6978C49.1347 90.6847 49.2002 90.2754 49 89.2963L49.6492 89.248C51.5869 88.9562 52.2889 88.7743 54.0814 88.131C54.6326 88.966 54.8409 88.3713 55.2816 89.5056L55.401 89.5596C56.7083 89.2074 59.095 89.221 60.5485 89.0042C63.8367 88.5137 67.0303 87.8956 70.2133 86.9624C81.6974 83.5955 91.2922 76.8895 100.567 69.5655C103.662 67.1214 107.317 64.1179 110.589 61.9297Z" fill="#727272"/>
<path d="M49.6081 89.8335C51.4232 89.5973 52.0807 89.4502 53.7597 88.9297C54.2761 89.6053 54.4712 89.1242 54.884 90.0419L54.9958 90.0855C55.0051 90.7758 55.0051 91.2465 54.9304 91.9297C53.7095 91.8922 52.5698 91.8477 51.3472 91.8885L49.047 91.8156C49.1262 90.9959 49.1875 90.6647 49 89.8725L49.6081 89.8335Z" fill="url(#paint0_linear_16874_38912)"/>
<path d="M49 89.6691C51.0642 89.4759 51.812 89.3555 53.7214 88.9297C54.3087 89.4824 54.5306 89.0888 55 89.8396C53.7387 89.9568 50.0511 90.0121 49 89.6691Z" fill="#CFD0D0"/>
<path d="M61.5261 96.96C63.3606 96.9734 65.1932 96.8408 67.0066 96.5637C69.1987 96.2406 72.7891 95.1372 74.415 96.9214C75.8222 98.4654 76.0588 101.04 75.9892 103.035C75.7002 106.62 74.594 109.318 72.168 111.93C70.0034 109.592 67.7242 107.667 64.6172 106.715C64.9032 105.809 66.7037 103.686 66.7395 102.319C66.7486 101.969 66.57 101.909 66.3079 101.681C66.7351 100.818 67.121 100.253 67.5669 99.4499C65.56 101.321 63.6111 103.604 61.8205 105.701C61.2124 106.413 61.0172 107 60.9453 107.914C57.7459 109.943 54.5245 110.087 50.793 110.045C50.0495 108.846 49.1176 107.881 48 107.018C49.0054 106.416 51.0856 104.969 51.7834 103.991C51.9859 103.707 51.838 103.355 51.7659 103.023C54.7193 103.04 56.442 103.545 55.7679 99.8654C58.2426 99.2226 59.5001 98.4853 61.5261 96.96Z" fill="#61C8F2"/>
<path d="M1 60.2029C2.56066 59.4014 3.05334 58.8658 4.44622 57.9297L4.39091 58.1239C3.84292 59.0393 4.35319 61.3858 4.65542 62.3643C6.10638 67.0583 8.67115 71.3575 13.3566 73.7937C16.754 75.56 20.5381 76.0358 24.3177 75.1517C26.9654 74.5322 28.5901 73.0962 30.7261 72.4469C29.9478 75.7714 30.5257 77.7956 32 80.7203C30.4826 80.7688 28.847 80.8199 27.3349 80.7496C25.6081 81.809 26.2963 83.3175 26.3081 85.0853L26.3519 86.9297C23.8787 85.9979 21.3487 84.5436 19.069 83.2205C19.6591 82.8576 19.8466 82.4116 20.1951 81.8347C12.3819 76.8747 9.05344 73.7846 2.68608 67.341C3.57911 67.1418 4.52652 67.0033 5.19785 66.4214C5.42926 65.5012 3.69273 63.8827 3.08295 63.1373C2.32762 62.1986 1.63222 61.2188 1 60.2029Z" fill="#9C9B9B"/>
<path d="M20.0823 81.9297C20.8039 82.6 24.935 84.7411 25.958 85.1197L26 86.9297C23.6229 86.0153 21.1911 84.5881 19 83.2896C19.5672 82.9335 19.7474 82.4958 20.0823 81.9297Z" fill="#646463"/>
<path d="M65.127 93.9488C67.5465 93.7062 69.5984 93.361 71.999 92.9297C79.4912 97.66 80.971 109.405 76.4335 116.67C76.1632 117.094 75.8864 117.514 75.603 117.93C74.4174 115.252 73.8504 114.02 71.9149 111.813C74.1751 109.331 75.2058 106.768 75.475 103.361C75.5398 101.466 75.3194 99.019 74.0083 97.5519C72.4935 95.8565 69.1484 96.9049 67.106 97.2119C65.4166 97.4753 63.7091 97.6012 62 97.5885C63.3992 96.355 64.17 95.5386 65.127 93.9488Z" fill="#4E9DBF"/>
<path d="M40 93.5808C40.6745 92.7376 41.9335 92.9264 42.8997 93.0025L43.5563 93.1605C44.8029 93.5746 43.9462 93.9082 44.5801 94.265C44.8747 94.1642 44.9242 94.1347 45.1972 93.9818C45.2814 94.2994 45.3548 94.6035 45.4612 94.915C45.6257 95.3546 45.6492 95.3833 45.9377 95.765C46.76 96.9167 47.7227 97.7442 49.0974 98.2351C49.1536 98.8202 49.1728 99.1885 49.1791 99.7763C49.1785 100.871 49.1619 101.961 49.2437 103.053C49.6251 103.091 50.2374 103.107 50.5457 103.285L50.6783 104.087L50.8133 104.173C51.4522 103.93 51.4408 103.406 51.885 103.167C51.9541 103.479 52.0959 103.811 51.9018 104.078C51.233 104.999 49.2393 106.363 48.2757 106.93C46.7386 105.881 46.0007 105.482 44.0825 105.428C43.558 103.598 40.8138 94.636 40 93.5808Z" fill="#9FDAEF"/>
<path d="M45.0256 93.9297C45.2014 94.4724 45.2266 94.5078 45.535 94.9788C46.414 96.4003 47.4431 97.4216 48.9126 98.0275C48.9727 98.7496 48.9932 99.2041 49 99.9297C46.8641 99.6521 45.02 97.558 44 95.5543C44.5692 95.2701 44.7737 94.5529 45.0256 93.9297Z" fill="#646463"/>
<path d="M44 92.9297C45.3088 93.3343 44.4093 93.6602 45.0749 94.0088C45.3842 93.9103 45.4361 93.8814 45.7228 93.7321C45.8111 94.0424 45.8883 94.3394 46 94.6437C45.7525 95.1371 45.5517 95.7047 44.9927 95.9297C44.4018 94.9418 44.1449 94.0322 44 92.9297Z" fill="url(#paint1_linear_16874_38912)"/>
<path d="M51.7421 95.9297C52.9159 95.9632 53.9743 96.0051 55.1494 96.1028C55.8954 97.0006 55.8639 97.3902 55.8563 98.6433L55.856 100.252C56.5224 104.325 54.8195 103.766 51.9 103.748C51.4418 104.028 51.4535 104.645 50.7946 104.93L50.6554 104.828L50.5186 103.886C50.2006 103.677 49.5691 103.659 49.1757 103.614C49.0914 102.331 49.1085 101.049 49.1091 99.7629C49.1026 99.072 49.0828 98.6393 49.0248 97.9516C48.7851 95.8035 50.3277 96.0524 51.7421 95.9297Z" fill="white"/>
<path d="M50 98.4315C50.3575 98.2891 50.8216 98.1273 51.1383 97.9297C51.7075 98.0565 52.2767 98.182 52.8641 98.2488C53.3862 98.308 54.6351 98.0403 55 98.3893C54.882 99.5203 53.6476 99.8227 53.6256 101.741C52.9191 101.914 52.5669 102.072 51.9388 101.716C51.3662 100.599 50.7256 99.4648 50 98.4315Z" fill="#E27876"/>
<path d="M52.7234 100.93C53.2555 101.41 53.5538 101.196 54.1522 100.964L54.2786 101.584C54.745 101.351 54.6192 101.295 55 101.49L54.9758 101.72C54.74 101.86 54.7562 101.862 54.5047 101.852C53.998 101.935 52.3366 102.07 52 101.523C52.1898 101.098 52.392 101.079 52.7234 100.93Z" fill="#D8595E"/>
<path d="M52.0296 144.93C54.5251 145.014 57.0223 145.057 59.5195 145.058C60.3551 146.362 61.0695 147.41 62 148.66C61.3186 149.038 51.0835 148.966 50 148.765C50.64 147.139 51.0135 146.413 52.0296 144.93Z" fill="white"/>
<path d="M48.5315 91.9297L50.9815 92.021L50.9699 92.1246C50.6478 92.776 50.7693 93.056 50.5342 93.6999C51.8012 93.7099 53.175 93.8143 54.3926 93.8085C55.242 94.2702 54.9946 95.4452 54.8591 96.293C53.7174 96.2066 52.689 96.1694 51.5486 96.1398C50.1743 96.2484 48.6755 96.028 48.9084 97.9297C47.5309 97.4189 46.5661 96.558 45.7421 95.3598C45.453 94.9628 45.4294 94.9329 45.2646 94.4755C45.158 94.1514 45.0843 93.8351 45 93.5046L45.1031 93.3896C46.0246 93.3431 46.9474 93.3323 47.8698 93.3566C48.264 93.2622 48.2957 93.331 48.488 93.0782L48.2621 92.567L48.5315 91.9297Z" fill="url(#paint2_linear_16874_38912)"/>
<path d="M46 95.9297C47.3887 95.9827 49.1023 96.344 50.495 96.4976C50.8021 96.5313 51.5922 96.5181 52 96.5367C50.5799 96.6212 49.0312 96.4497 49.2719 97.9297C47.8484 97.5322 46.8515 96.8622 46 95.9297Z" fill="#CFD0D0"/>
<path d="M48.8506 91.9297L52 92.0329L51.9851 92.1499C51.5711 92.8858 51.7272 93.2022 51.425 93.9297C51.411 93.9264 51.3972 93.9232 51.3834 93.9199C50.6635 93.5068 48.9331 93.5701 48 93.5418C48.5067 93.4351 48.5475 93.5128 48.7947 93.2272L48.5042 92.6497L48.8506 91.9297Z" fill="url(#paint3_linear_16874_38912)"/>
<path d="M55 94.021C56.9143 94.1439 60.0943 94.1563 62 93.9297C60.912 95.3985 59.6053 96.6369 58.1401 97.5882C57.63 97.9206 56.4951 98.5707 56.0617 98.9297C56.0685 97.7793 56.0967 97.4217 55.4295 96.5975C55.5542 95.7182 55.7819 94.4997 55 94.021Z" fill="#646463"/>
<path d="M65.6422 101.93C65.8593 102.156 66.0073 102.216 65.9997 102.563C65.9701 103.921 64.4785 106.03 64.2415 106.93C63.8738 106.802 63.383 106.691 63 106.59C63.9933 104.993 64.7966 103.638 65.6422 101.93Z" fill="#9FDAEF"/>
<path d="M11.1968 45.9297L11.3596 45.9641C11.3176 46.1897 11.2767 46.3825 11.311 46.611L11.4458 46.6231C11.6576 46.432 11.7081 46.3702 12 46.3089C11.7297 47.028 9.4973 50.2189 9 50.9297C9.31397 49.8721 10.6924 47.0397 11.1968 45.9297Z" fill="#CFD0D0"/>
<path d="M71.1359 120.607C74.4516 123.383 75.8693 120.345 77.7577 117.93C78.8913 122.48 80.0707 126.928 81 131.527C77.6651 133.145 74.7272 134.036 71.1738 134.962C66.5278 135.984 61.8066 136.623 57.057 136.873C49.0475 137.217 37.0355 136.062 30 131.899C30.1175 129.805 30.5676 127.854 31.0228 125.819C35.7373 126.029 41.4624 126.624 45.9987 126.544C48.7442 124.813 48.6481 123.349 47.8893 120.59C49.9119 121.509 51.8195 122.146 53.866 122.961C61.0526 124.323 64.85 124.323 71.1359 120.607Z" fill="#61C8F2"/>
<path d="M71.1846 120.602C74.4839 123.373 75.8946 120.34 77.7738 117.93C78.9017 122.472 80.0753 126.91 81 131.501C77.6815 133.116 74.7582 134.005 71.2223 134.93C71.3347 134.328 71.5634 133.729 71.6645 133.089C72.1217 130.198 72.149 126.549 70.2328 124.192C65.7047 125.506 62.027 126.418 57.2317 124.887C56.3159 124.595 54.4255 123.846 54 122.952C61.1511 124.311 64.9297 124.311 71.1846 120.602Z" fill="#4E9DBF"/>
<path d="M17 94.935C19.7973 94.8851 22.5802 95.1991 25.3725 95.282C28.1858 95.3621 31.003 95.4453 33.815 95.5595C34.8164 95.6 36.2687 95.5742 37.1388 96.0884C37.826 97.0698 40.4195 106.39 40.8559 108.14C36.4832 109.167 35.669 113.454 37.662 116.995C39.3506 118.952 40.7359 120.064 43.4371 120.243C43.5973 120.255 43.758 120.261 43.9187 120.264C44.2318 121.249 45.2404 124.012 44.9471 124.894C43.8435 125.145 28.2216 124.014 26.5699 123.735C26.2184 123.048 26.0449 122.63 25.7706 121.904C25.3507 120.628 24.9941 119.523 24.6531 118.221C30.506 115.986 28.6734 107.086 22.7634 106.709C22.3375 106.682 21.5041 106.826 21.0493 106.883C20.8312 106.519 19.8498 103.567 19.644 102.93C18.8007 100.319 17.7193 97.5629 17 94.935Z" fill="#CFD0D0"/>
<path d="M37.7496 116.93C39.418 118.903 40.7867 120.024 43.4557 120.205C43.6141 120.216 43.7728 120.223 43.9316 120.226C44.241 121.219 45.2375 124.004 44.9478 124.893C43.8573 125.146 28.4218 124.007 26.7898 123.726C26.4425 123.032 26.2711 122.611 26 121.88C26.7759 121.31 27.8883 121.112 28.6857 120.778C30.2664 120.116 36.9029 118.129 37.7496 116.93Z" fill="#9C9B9B"/>
<path d="M28.0661 101.932C31.8664 101.823 33.6393 105.604 30.0421 106.918C26.2235 107.188 24.2333 102.848 28.0661 101.932Z" fill="black"/>
<path d="M27.8103 101.946C29.7547 101.694 30.806 104.445 29.2485 105.924C27.4293 106.06 26.0586 103.764 27.8103 101.946Z" fill="#CFD0D0"/>
<path d="M26.7553 97.935C28.7354 97.8409 29.9045 99.0251 28.1189 99.9244C26.2297 100.012 25.2055 99.0117 26.7553 97.935Z" fill="black"/>
<path d="M59.8618 138.02C66.3919 137.524 72.8278 136.149 79 133.93C78.3301 139.675 76.3066 144.823 74.2104 150.187C73.0537 150.562 72.4415 150.57 71.221 150.613L70.027 150.641C68.2484 151.027 67.1398 151.02 65.3865 150.657C63.5656 148.566 62.018 146.545 60.7006 144.095C60.4319 143.595 59.7293 142.219 59.218 142.156C59.1506 142.299 58.8557 142.942 58.6887 142.948C52.7248 143.186 47.1184 142.415 41.5118 140.29C41.8558 140.653 42.2255 141.014 42.5794 141.37C45.6827 142.845 47.1507 143.432 50.5402 144.162C49.8393 145.542 48.4169 148.603 48.2198 150.067L47.1753 150.094C45.9632 150.053 44.9216 150.186 43.757 150.197C42.2288 150.397 41.6257 150.276 40.1577 149.854C39.781 149.571 38.9 148.366 38.6057 147.956C35.7982 144.034 33.8836 139.528 33 134.765C36.98 136.259 41.746 137.437 45.989 137.771C47.725 137.873 49.2547 137.99 51.0034 138.029C53.9404 138.095 56.9429 137.965 59.8618 138.02Z" fill="#9C9B9B"/>
<path d="M59.8682 138.09C66.3962 137.586 72.8299 136.187 79 133.93C78.3303 139.775 76.3075 145.011 74.212 150.467C73.0557 150.849 72.4436 150.857 71.2236 150.901L70.03 150.93C72.8635 148.847 73.9838 143.211 73.442 139.805C73.3435 139.187 72.9859 138.695 72.6051 138.222C70.569 138.212 67.9121 138.791 65.7751 138.979C60.7327 139.449 55.6569 139.38 50.6287 138.771C49.3454 138.785 47.0572 138.563 46 137.838C47.7354 137.941 49.2646 138.06 51.0127 138.1C53.9488 138.167 56.9503 138.034 59.8682 138.09Z" fill="#727272"/>
<path d="M46 137.93C47.7519 138.04 49.2957 138.168 51.0604 138.211C54.0243 138.282 57.0543 138.141 60 138.2C56.6087 139.231 53.9902 138.603 50.6727 138.929C49.3772 138.944 47.0673 138.707 46 137.93Z" fill="#646463"/>
<path d="M43 141.93C45.7288 143.267 47.0196 143.798 50 144.46C49.3837 145.71 48.133 148.485 47.9597 149.811L47.0413 149.836C45.9754 149.799 45.0595 149.919 44.0355 149.93C46.8789 148.204 45.8925 145.22 43.9501 143.282C43.6019 142.935 43.1731 142.399 43 141.93Z" fill="#727272"/>
<path d="M95 97.7375C102.625 91.6849 111.606 90.4913 120.818 93.5595C123.648 94.3638 127.284 96.6957 128.794 99.2277C128.971 99.6086 129.017 99.6579 128.995 100.087C128.682 100.812 126.453 102.049 125.654 102.564C119.685 106.414 118.395 111.66 116.554 117.93C115.676 115.992 114.121 113.389 112.922 111.624C109.931 107.309 106.272 103.239 101.734 100.429C100.471 99.6462 98.915 98.9906 97.5486 98.3591C96.6263 98.0441 95.9588 97.8749 95 97.7375Z" fill="#444444"/>
<path d="M128.795 99.9297C128.971 100.296 129.017 100.344 128.995 100.757C128.683 101.454 126.466 102.645 125.67 103.141C119.73 106.847 118.446 111.895 116.615 117.93C115.741 116.065 114.193 113.559 113 111.86C113.945 110.23 114.949 108.451 116.117 106.971C119.202 103.125 123.758 100.595 128.795 99.9297Z" fill="#363636"/>
<path d="M95 97.3496C102.679 91.7012 111.723 90.5874 121 93.4507L120.915 93.5807C120.313 93.3978 119.985 93.2114 119.418 93.3411L119.175 93.5952L119.211 93.7333C119.677 93.8825 119.845 93.8924 120.343 93.9535L120.285 94.0281C119.043 93.9721 117.316 93.6067 115.819 93.5396C108.333 93.2036 103.818 94.3969 97.5666 97.9297C96.6377 97.6357 95.9656 97.4778 95 97.3496Z" fill="#727272"/>
<path d="M89.7474 108.93C90.34 108.976 90.933 109.016 91.5262 109.05C93.1322 109.493 94.428 109.785 96.0172 110.411C100.373 112.126 106.024 117.079 108.648 121.21C110.571 124.142 112.1 126.739 113 130.253C111.838 133.868 108.602 136.763 105.784 138.93C104.993 135.561 104.341 133.409 102.839 130.276C99.657 124.317 96.0596 121.38 90.3182 118.585C89.9832 118.43 89.3685 118.251 89 118.131C89.2639 114.69 89.2932 112.451 89.7474 108.93Z" fill="#444444"/>
<path d="M108.717 120.93C110.609 123.908 112.114 126.546 113 130.115C111.857 133.787 108.672 136.729 105.898 138.93C105.12 135.508 104.478 133.322 103 130.139C104.898 128.505 107.932 123.339 108.717 120.93Z" fill="#363636"/>
<path d="M89.5813 108.93C90.0421 108.973 90.5033 109.01 90.9646 109.042C91.0626 109.353 90.9326 110.072 90.87 110.423C90.4411 112.818 90.4247 115.561 90.0252 117.93C89.7647 117.785 89.2866 117.618 89 117.507C89.2052 114.299 89.228 112.212 89.5813 108.93Z" fill="#727272"/>
<path d="M95.0196 97.9297C95.989 98.1714 96.6434 98.3673 97.5851 98.6993C103.211 101.03 107.077 104.419 110.796 109.183C111.387 109.941 112.529 111.391 113 112.199C112.957 113.225 110.198 119.855 109.6 120.93C104.912 114.696 98.982 110.252 91.2259 108.664C90.51 108.539 89.7259 108.456 89 108.366C90.2163 103.924 91.731 101.162 95.0196 97.9297Z" fill="#9C9B9B"/>
<path d="M94.6094 97.9297C95.5127 98.1774 96.1225 98.3781 97 98.7184C94.2835 102.19 92.2205 104.017 91.0742 108.93C90.4071 108.802 89.6764 108.716 89 108.624C90.1334 104.072 91.5449 101.242 94.6094 97.9297Z" fill="#CFD0D0"/>
<path d="M62.9246 107.93C63.652 108.179 64.4649 108.558 65.1782 108.871C68.1915 110.214 71.6809 113.564 73 116.577C68.8897 120.414 66.0172 121.991 60.0388 121.928C56.3765 121.889 52.3365 120.733 49 119.187C49.5131 118.66 49.7802 118.131 50.1509 117.502C51.1393 115.116 51.184 114.198 51.1399 111.692C51.9846 111.703 52.8386 111.74 53.6736 111.623C57.7262 111.595 60.0712 110.461 62.9246 107.93Z" fill="#9C9B9B"/>
<path d="M65.1782 108.93C68.1915 110.267 71.6809 113.602 73 116.601C68.8897 120.421 66.0172 121.991 60.0388 121.928C56.3765 121.889 52.3365 120.738 49 119.199C49.5131 118.675 49.7802 118.148 50.1509 117.522C53.8481 119.421 60.722 119.361 64.6104 118.046C65.6545 117.693 68.8023 116.293 69.1459 115.212C69.8987 112.844 65.7569 110.552 65.1782 108.93Z" fill="#727272"/>
<path d="M87.8961 117.93C87.9357 117.94 87.9753 117.95 88.0149 117.96C92.6019 119.59 96.8232 122.448 99.8587 126.322C101.048 127.84 101.858 129.151 102.759 130.721C104.241 133.522 105.332 136.519 106 139.626C102.642 141.482 99.8825 142.502 96.0208 142.93C95.9708 139.609 95.8466 138.451 94.7734 135.182C93.1025 130.681 90.3195 127.078 86 124.96C87.3393 122.729 87.7339 120.48 87.8961 117.93Z" fill="#9C9B9B"/>
<path d="M102.824 129.93C104.276 132.912 105.345 136.104 106 139.412C102.71 141.388 100.006 142.474 96.2223 142.93C96.1733 139.394 96.0515 138.161 95 134.679C95.4449 134.433 96.6894 134.044 97.2295 133.811C99.3799 132.885 101.202 131.743 102.824 129.93Z" fill="#727272"/>
<path d="M13.8602 3.96495C20.3352 3.35157 30.4862 10.8838 35 15.4246C32.7934 16.3442 30.4101 17.7598 28.4243 19.1175C26.7397 15.544 16.0614 4.05124 13.2629 10.8029C11.4785 17.8058 12.8367 25.8142 16.0766 32.1787C15.3357 33.3961 14.6491 34.6478 14.0199 35.9297C13.9329 35.7547 13.8494 35.5776 13.7695 35.399C10.4689 28.022 8.60093 14.9304 11.2758 7.11948C11.7499 5.73525 12.5191 4.59012 13.8602 3.96495Z" fill="url(#paint4_linear_16874_38912)"/>
<path d="M14.1962 10.8127C14.5082 10.3635 14.6444 10.0995 15.2435 9.96823C16.7466 9.63882 19.5921 11.5069 20.7517 12.2994C23.2928 14.0362 26.6062 17.151 28 19.7612C27.1925 19.6505 26.4818 19.3627 25.7225 19.0834C23.824 18.3857 22.6718 17.9615 20.6407 17.8672C17.618 18.7769 19.2314 21.4182 20.6815 22.9685C19.8214 23.2414 18.9912 23.494 18.4631 24.216C18.2127 24.5517 18.1297 24.9718 18.2349 25.3688C18.426 26.0839 19.0387 26.5541 19.6903 26.8988C18.6699 28.2633 17.5967 29.5207 16.5847 30.9297C13.5099 27.078 11.6495 15.1525 14.1962 10.8127Z" fill="#444444"/>
<path d="M14 10.8278C14.3165 10.3709 14.4546 10.1024 15.0621 9.96889C16.5866 9.63383 19.4726 11.534 20.6487 12.34C23.2259 14.1066 26.5864 17.2747 28 19.9297C27.181 19.817 26.4602 19.5244 25.6901 19.2403C23.7646 18.5306 22.596 18.0992 20.5361 18.0032C20.7797 17.9551 21.0034 17.9161 21.248 17.8739L21.298 17.6976C20.4142 15.9266 15.9302 11.9118 14 10.8278Z" fill="#363636"/>
<path d="M86.5421 125.93C89.9563 128.003 92.4069 131.189 93.7926 135.304C94.481 137.239 95.0271 140.828 94.999 142.898C92.1647 143.028 89.327 142.761 86.5509 142.103C87.0779 139.375 87.1724 138.743 86.9513 135.961C86.5678 133.185 85.9836 130.354 84 128.419C85.0363 127.629 85.6579 126.933 86.5421 125.93Z" fill="#444444"/>
<path d="M93.7139 133.93C94.4472 136.213 95.0288 140.449 94.9989 142.892C91.9798 143.046 88.9571 142.731 86 141.953C86.5614 138.734 86.662 137.988 86.4265 134.705C88.1155 134.812 92.2909 134.916 93.7139 133.93Z" fill="#363636"/>
<path d="M45.2276 106.93C48.156 107.935 48.6625 109.492 50.534 111.417L50.6135 111.498C51.5152 111.604 53.0239 111.572 54 111.596C53.2117 111.709 52.4054 111.674 51.608 111.663C51.6496 114.093 51.6074 114.983 50.6743 117.296C50.3243 117.905 50.0722 118.419 49.5877 118.93C46.801 117.719 44.8689 119.462 42.0485 117.908C40.7314 117.182 39.57 116.027 39.1534 114.535C38.8582 113.504 38.9927 112.396 39.5253 111.468C41.12 108.65 44.0208 110.006 45.9468 109.448C46.2311 108.94 45.5452 108.2 45.368 107.766C45.3116 107.628 45.2471 107.096 45.2276 106.93Z" fill="#444444"/>
<path d="M112.168 111.93C113.333 113.588 115.269 117.152 116 119.037C115.493 122.136 114.723 126.084 113.425 128.93C112.221 125.741 110.949 123.076 109 120.281C109.558 119.253 112.128 112.911 112.168 111.93Z" fill="#727272"/>
<path d="M19.7962 106.93L19.9595 107.085C20.273 108.838 21.0298 107.676 22.273 107.879C23.4356 108.07 24.3658 108.463 25.1052 109.612C26.4066 111.636 26.3408 114.723 24.5619 116.32C20.4843 119.191 17.506 111.224 19.7962 106.93Z" fill="#444444"/>
<path d="M82.3663 132.926C83.5704 131.8 82.0565 129.774 82.6982 128.93C83.0982 128.989 83.4195 129.483 83.6734 129.803C84.9273 131.382 85.3828 133.22 85.7881 135.098C86.1612 137.214 86.0279 138.864 85.496 140.93C83.3717 140.108 81.8646 139.619 80 138.348C80.5292 136.819 80.7618 135.182 80.7766 133.582L82.3663 132.926Z" fill="#727272"/>
<path d="M82 132.81C83.4075 131.716 81.6378 129.75 82.3879 128.93C82.8556 128.987 83.2311 129.467 83.528 129.777C84.9938 131.31 85.5263 133.095 86 134.918C85.0473 134.992 83.7757 134.703 82.8369 134.521C82.4811 134.026 82.08 133.368 82 132.81Z" fill="#9C9B9B"/>
<path d="M18.5166 92.9298C19.0588 92.9245 23.4255 93.1754 23.8836 93.2162C26.382 93.4393 37.6083 93.5424 39.266 94.1345C40.1743 95.0381 43.423 105.936 44 107.892L42.5848 107.93C41.7411 105.573 39.79 97.3393 38.4654 95.8789C38.1093 95.4863 37.6501 95.2353 37.1178 95.1241C35.4959 94.7855 32.6505 94.8447 30.8942 94.7624L17 94.1059C17.6434 93.4998 17.7577 93.3989 18.5166 92.9298Z" fill="#CFD0D0"/>
<path d="M71.7703 150.414C73.0889 150.364 73.7504 150.355 75 149.93C73.9928 153.187 73.3549 154.269 69.9436 154.617C68.3299 154.831 64.3225 155.362 63.0318 154.232C62.6353 152.658 66.0912 152.294 65.4669 150.463C67.3611 150.875 68.5588 150.883 70.4804 150.446L71.7703 150.414Z" fill="#444444"/>
<path d="M71.8064 150.446C73.1102 150.393 73.7643 150.384 75 149.93C74.004 153.405 73.3732 154.559 70 154.93C70.073 154.529 71.2026 152.904 71.4118 152.219C71.6247 151.521 71.6797 151.175 71.8064 150.446Z" fill="#363636"/>
<path d="M39.9978 149.93C41.4548 150.427 42.0535 150.57 43.5703 150.334C44.7262 150.321 45.7601 150.164 46.9633 150.212L48 150.18C47.3756 152.484 47.0612 153.466 44.7947 153.615C44.1833 153.656 43.5608 153.772 42.9368 153.733C41.9895 153.829 37.0994 154.367 37 153.112C37.8017 151.487 39.6205 151.669 39.9978 149.93Z" fill="#444444"/>
<path d="M46.9762 149.957L48 149.93C47.3834 151.871 47.0729 152.698 44.8347 152.824C44.2309 152.858 43.6162 152.956 43 152.923L43.3661 152.683C44.588 151.883 44.8381 151.374 45.4464 150.079C46.0519 150.064 46.3645 150.046 46.9762 149.957Z" fill="#363636"/>
<path d="M20.0415 18.9451C22.1975 18.8118 24.1281 19.56 26 20.5799C24.4625 21.8813 23.1886 22.9586 21.8062 24.4372C21.3219 24.9482 20.9536 25.3848 20.5054 25.9297C19.9565 25.7981 19.2727 25.607 19 25.057C19.364 23.9667 21.0336 24.1693 21.5936 23.6465C21.8398 22.5058 19.0838 20.3652 20.0415 18.9451Z" fill="#9C9B9B"/>
<path d="M46.1432 120.93L46.2827 120.938C47.0622 121.677 47.4339 123.237 46.1986 123.93C45.8857 122.957 45.2487 121.968 45 121.031C45.3256 120.92 45.731 120.944 46.1432 120.93Z" fill="#9C9B9B"/>
<path d="M73.5895 117.93C73.999 118.275 74.1333 119.241 73.849 119.889L73.5294 119.93C73.1984 119.718 73.0565 119.741 73 119.107C73.1282 118.568 73.3381 118.322 73.5895 117.93Z" fill="#65808A"/>
<path d="M41.3041 76.1659C44.4965 78.5073 47.5251 79.5185 50.9149 76.6029C51.6569 75.9649 51.7832 74.5431 52.9226 75.029C53.3385 75.8271 51.9662 77.3878 51.4568 78.0116C51.0588 81.0654 50.4226 84.1447 47.4347 85.4998C44.0134 86.7187 41.9077 85.2489 40.0604 82.3114C39.5224 81.4579 39.1136 80.7397 38.7121 79.7981C37.4334 79.6106 36.316 79.479 35.4809 78.3032C35.1693 77.8643 34.8805 77.2532 35.0505 76.7052C35.5728 76.5426 35.7298 77.15 36.1425 77.4564C38.3372 79.0849 39.875 78.0136 41.3041 76.1659Z" fill="black"/>
<path d="M43.2167 82.1914C45.1024 80.7129 46.6973 79.6382 49.1642 80.0004C49.5034 80.0502 49.6742 80.0631 49.9573 80.2764C50.3688 81.6081 47.7006 84.1818 46.5516 84.5349L46.5118 84.7224C47.0055 85.2086 47.2725 85.1292 47.7371 85.4826C44.1475 86.7504 41.9382 85.2216 40 82.1663C41.0695 82.2732 42.1457 82.2816 43.2167 82.1914Z" fill="#ED7C50"/>
<path d="M40 81.9297C41.1058 82.0433 42.2186 82.0523 43.3261 81.9564L42.3797 83.1666C43.9034 84.0979 44.9766 84.5012 46.7743 84.4472L46.7331 84.6465C47.2436 85.1633 47.5196 85.0789 48 85.4544C44.2884 86.802 42.0041 85.177 40 81.9297Z" fill="#646463"/>
<path d="M39.7434 66.9749C41.5958 66.7631 47.0558 67.1712 45.8198 70.9149C45.2407 72.6685 43.5027 73.993 42.0524 74.6986C40.8375 75.1205 39.7028 74.9904 38.6787 74.0944C35.1382 70.9968 34.7339 67.7126 39.7434 66.9749Z" fill="black"/>
<path d="M39.4263 69.0007C40.064 68.9322 40.7552 68.6665 41 69.9152L40.8688 70.3078C40.4798 70.741 40.3586 70.7171 39.8814 70.8427C39.6703 70.8725 39.4589 70.8946 39.2474 70.9095C38.6627 70.9517 38.4591 70.9925 38.0156 70.3116C37.8587 69.1052 38.9283 69.1045 39.4263 69.0007Z" fill="white"/>
<path d="M33.0135 83.9297C35.5151 86.2068 37.792 87.551 41.2119 88.5469C41.5512 88.6458 42.5232 88.987 42.7334 89.0325L42.4822 89.1971C42.4726 89.8615 42.5288 90.3202 42.8076 90.9369C42.8567 91.3926 42.8366 91.9993 43 92.3796C42.0123 92.3072 40.7253 92.1276 40.0359 92.9297C39.4515 92.7503 38.5445 92.387 38.0303 92.0918C38.2928 92.0614 38.3604 92.0335 38.6172 91.9655L38.7039 91.8217C38.4776 91.6448 30.6238 89.6546 29 88.7728C29.3642 88.5791 29.2418 88.7158 29.3693 88.3408C29.6785 88.1572 30.1477 88.2241 30.5425 88.2364C31.6066 88.2563 32.3613 88.4433 33.0075 87.5407C33.0238 86.2985 32.8599 85.1497 33.0135 83.9297Z" fill="#9C9B9B"/>
<path d="M38.0303 92.0412C38.2928 92.009 38.3604 91.9794 38.6172 91.9073L38.7039 91.7548C38.4776 91.5672 30.6238 89.4569 29 88.5218C29.3642 88.3163 29.2418 88.4613 29.3693 88.0637C29.6785 87.869 30.1477 87.94 30.5425 87.953C33.1559 88.3449 35.2168 88.9559 37.7467 89.7123C39.2972 90.1757 41.2928 90.3096 42.8076 90.8166C42.8567 91.2998 42.8366 91.9431 43 92.3463C42.0123 92.2696 40.7253 92.0791 40.0359 92.9297C39.4515 92.7395 38.5445 92.3543 38.0303 92.0412Z" fill="#444444"/>
<path d="M33.0677 83.9297C35.6239 86.0912 37.9506 87.3671 41.4453 88.3125C41.7919 88.4063 42.7852 88.7302 43 88.7734L42.7433 88.9297C40.8551 88.5427 38.5893 88.4184 36.6348 87.9782C36.0355 87.8433 33.4927 87.2969 33.0615 87.3573C33.0782 86.1782 32.9108 85.0877 33.0677 83.9297Z" fill="#CFD0D0"/>
<path d="M43.2309 89.1414C43.0432 87.9196 43.2046 87.056 44.6606 86.9606C45.6711 86.8943 47.7376 86.9033 48.6526 87.3098C48.9562 88.0442 48.7293 89.0088 48.8771 89.7875C49.0636 90.7425 49.0026 91.1417 48.9238 92.13L48.6721 92.7434L48.8832 93.2355C48.7036 93.4789 48.674 93.4127 48.3058 93.5036C47.4443 93.4802 46.5824 93.4906 45.7217 93.5353L45.6254 93.6461C45.3699 93.7992 45.3235 93.8288 45.0478 93.9297C44.4545 93.5724 45.2564 93.2383 44.0896 92.8235L43.475 92.6653C43.3254 92.265 43.3438 91.6262 43.2989 91.1464C43.0436 90.4972 42.9921 90.0142 43.0009 89.3148L43.2309 89.1414Z" fill="#E27876"/>
<path d="M45 93.9297C45.822 92.9203 47.1511 93.2303 48.733 92.9297L49 93.5511C48.7728 93.8584 48.7353 93.7748 48.2695 93.8896C47.1795 93.86 46.089 93.8732 45 93.9297Z" fill="#896161"/>
<path d="M44.7438 87.9776C44.9071 87.9284 44.9515 87.9488 45.1206 87.9538C45.7036 88.6477 45.6294 88.1486 46.3685 87.9297C47.0475 88.2174 46.9802 89.0904 47 89.9799L46.2339 91.0504L45.5657 91.9297C44.8135 91.0133 42.9775 89.0153 44.7438 87.9776Z" fill="white"/>
<path d="M9.66537 97.951C10.7305 97.9409 13.7941 97.865 14.6655 98.0782C14.9988 98.4994 15.1416 103.299 14.8173 103.807C14.4312 103.977 14.3953 103.979 13.9718 104.026L13.865 104.037L13.8722 104.217C13.7995 104.694 13.8789 104.695 13.6204 104.93C13.2808 104.88 12.7507 104.301 12.3225 103.999C11.5006 104.006 9.97106 104.209 9.4185 103.691C8.86123 102.587 8.97771 99.8894 9.10788 98.579C9.14177 98.2383 9.4176 98.1183 9.66537 97.951Z" fill="#D8595E"/>
<path d="M11.0085 99.9404C12.2533 99.9151 14.6323 99.8204 13.8429 101.333C13.7488 101.512 13.3229 101.813 13.0222 101.875C12.0818 101.891 11.3203 102.036 10.514 101.775C9.98559 101.379 9.98174 100.818 10.0087 100.326L11.0085 99.9404Z" fill="white"/>
<path d="M10.7785 86.9297C11.1802 87.0581 11.0227 86.9289 11.2868 87.2888C11.3752 87.7872 11.3798 87.9205 11.3959 88.4368L11.5215 88.4808C11.7799 88.0501 11.5529 87.8359 11.9359 87.3483C12.1765 87.2593 12.2677 87.341 12.5121 87.4413C12.7991 87.0987 13.1618 86.8441 13.5668 87.0453C13.7625 87.4937 13.6901 87.5619 13.493 88.0405C13.4859 89.0823 14.9472 90.4981 12.9402 91.0656C12.7606 91.3288 12.741 91.4506 12.6342 91.7723C11.2343 92.5491 10.1484 90.279 10.1031 88.7067C10.0056 88.2853 10.0081 88.2885 10 87.8477C10.1261 87.4325 10.4787 87.1968 10.7785 86.9297Z" fill="#E3AA42"/>
<path d="M10.89 86.9297C11.3494 87.0552 11.1693 86.929 11.4713 87.2806C11.5723 87.7676 11.5776 87.8979 11.596 88.4024L11.7396 88.4455C12.035 88.0246 11.7755 87.8152 12.2134 87.3388C12.4885 87.2518 12.5928 87.3316 12.8722 87.4296L13 87.6251C12.8692 87.8493 12.7471 88.0527 12.6081 88.2709C12.204 88.7543 11.4638 90.1499 11.5204 90.7956L11.4069 90.9297L11.2068 90.5499C11.3198 89.9413 11.6142 89.2598 11.3003 88.6954C10.75 89.0637 11.1583 89.5954 10.7171 90.0004L10.6759 89.9963L10.5687 89.7463C10.6398 89.2928 10.6803 89.1755 10.6047 88.7125L10.2321 88.5354L10.1179 88.6661C10.0064 88.2544 10.0092 88.2575 10 87.8267C10.1442 87.421 10.5473 87.1907 10.89 86.9297Z" fill="#834620"/>
<path d="M10.0991 88.9297C10.0053 88.4554 10.0077 88.459 10 87.9629C10.1212 87.4956 10.46 87.2304 10.7481 86.9297C10.885 87.3718 11.0271 87.686 10.9956 88.1586C10.8108 88.3995 10.6251 88.3973 10.3778 88.4576L10.1951 88.7791L10.0991 88.9297Z" fill="#F3E9D6"/>
<path d="M12.6113 87.9297C12.8075 88.2079 12.8405 88.4144 13 88.6881C12.7735 89.3364 12.6453 89.8409 12.8465 90.6403L12.8271 90.8883C12.4632 90.8277 12.3612 90.818 12.0017 90.9297C11.97 90.1625 12.3848 88.5041 12.6113 87.9297Z" fill="#EFBA26"/>
<path d="M13.7233 88.9297L14 89.0273C13.8963 89.4125 13.7002 89.5783 13.2855 89.9297C12.7117 89.5202 13.0774 89.2618 13.7233 88.9297Z" fill="#493F16"/>
<path d="M27.9582 85.8747C27.4892 85.0307 27.8174 84.1687 27.7601 83.0273C27.355 82.4992 27.6449 83.1249 27 82.7656C27.0082 82.4229 26.955 82.5687 27.1894 82.3303C28.1589 82.251 28.1745 82.844 29.3001 81.9746C29.685 81.6772 30.0633 82.9444 30.5862 83.185C31.0276 82.6473 31.0246 82.2259 31.8184 82.2634C32.037 82.7461 32.0403 82.523 31.9232 82.9495C31.6845 83.0767 31.5516 83.1432 31.3019 83.2365L31.0931 83.3133C30.886 84.0599 31.4874 84.2222 31.0079 85.7748C30.6302 85.9173 30.6524 85.9046 30.3526 86.1744L30.4196 86.3316L30.2169 86.6784C29.7341 87.0696 27.9442 87.0063 27.4695 86.4726C27.5677 86.0672 27.5362 86.1957 27.9582 85.8747Z" fill="#EFBA26"/>
<path d="M28.3313 85.9297C28.8506 86.2926 29.3748 86.2366 29.9546 86.2138L30 86.3628L29.8626 86.6915C29.5353 87.0623 28.3218 87.0023 28 86.4964C28.0665 86.1121 28.0452 86.2339 28.3313 85.9297Z" fill="#E3AA42"/>
<path d="M30 86.1267C30.2257 85.9938 30.2089 86.0001 30.4932 85.9298C31.3235 85.9247 32.5012 86.0482 31.7712 86.7963C30.8162 87.2044 30.4242 86.5805 30.0504 86.2042L30 86.1267Z" fill="#E27876"/>
<defs>
<linearGradient id="paint0_linear_16874_38912" x1="54.8381" y1="90.3077" x2="49.2271" y2="91.7523" gradientUnits="userSpaceOnUse">
<stop stop-color="#787777"/>
<stop offset="1" stop-color="#909093"/>
</linearGradient>
<linearGradient id="paint1_linear_16874_38912" x1="43.7214" y1="93.8547" x2="45.5649" y2="95.1268" gradientUnits="userSpaceOnUse">
<stop stop-color="#6E5050"/>
<stop offset="1" stop-color="#626566"/>
</linearGradient>
<linearGradient id="paint2_linear_16874_38912" x1="53.5735" y1="92.3312" x2="46.797" y2="96.7394" gradientUnits="userSpaceOnUse">
<stop stop-color="#7B7A7A"/>
<stop offset="1" stop-color="#A2A3A3"/>
</linearGradient>
<linearGradient id="paint3_linear_16874_38912" x1="51.4641" y1="92.6048" x2="48.9572" y2="92.906" gradientUnits="userSpaceOnUse">
<stop stop-color="#4F5051"/>
<stop offset="1" stop-color="#6A5F5E"/>
</linearGradient>
<linearGradient id="paint4_linear_16874_38912" x1="25.5794" y1="27.3434" x2="10.9593" y2="5.99727" gradientUnits="userSpaceOnUse">
<stop stop-color="#8E8E8E"/>
<stop offset="1" stop-color="#ADABAC"/>
</linearGradient>
</defs>
</svg>
