<svg width="160" height="160" viewBox="0 0 160 160" fill="none" xmlns="http://www.w3.org/2000/svg">
<path d="M70.2632 151.824C41.8101 151.824 18.7441 149.663 18.7441 146.998C18.7441 145.917 22.5406 144.919 28.955 144.114C31.6712 146.166 35.0546 147.306 38.5881 147.306H57.0742H83.614H102.608C106.099 147.306 109.444 146.193 112.144 144.187C118.209 144.979 121.782 145.95 121.782 146.998C121.782 149.663 98.7162 151.824 70.2632 151.824Z" fill="#96BFE3"/>
<path d="M44.7114 133.926C31.8891 141.273 19.7137 134.566 17.867 124.408C17.5047 122.413 17.5438 120.284 18.0516 118.105C18.3494 116.825 18.8107 115.53 19.4502 114.228C20.0136 113.078 20.5907 111.926 21.1514 110.771C23.1113 106.742 24.8654 102.722 25.1748 98.97C25.3224 97.1899 25.1447 95.467 24.5051 93.8346C24.166 92.9736 23.6191 92.2302 22.9473 91.6391C22.1512 90.9396 21.1795 90.4522 20.1776 90.2395C19.7295 90.1453 19.2773 90.1035 18.8292 90.1241C15.9419 90.2464 13.3221 92.8604 14.3792 99.3764C15.8611 108.531 5.91032 111.395 2.25414 103.544C2.0926 103.195 1.94718 102.829 1.81097 102.445C1.76712 102.311 1.72094 102.175 1.67714 102.039C-0.605761 94.7283 2.15951 82.0704 13.449 79.4172C13.9661 79.2929 14.5039 79.1934 15.0602 79.1151C15.8218 79.0087 16.5721 78.9442 17.3063 78.9256C18.6679 78.8886 19.9813 78.9997 21.2297 79.2442C30.4006 81.0407 36.1733 90.0712 33.2813 101.399C31.7277 107.479 25.4425 118.943 28.1037 124.48C28.9464 126.235 31.5315 127.597 34.5948 127.454C34.6731 127.452 34.754 127.447 34.8344 127.442H34.8371C37.0461 127.283 39.4857 126.336 41.681 124.194L44.7114 133.926Z" fill="#8E8FB3"/>
<path d="M23.0554 132.012C23.0401 131.997 23.0247 131.983 23.0099 131.969C21.5722 130.62 20.474 129.07 19.7266 127.392C20.6703 128.321 21.8821 129.075 23.2569 129.57C23.1363 130.297 23.0649 131.107 23.0554 132.012Z" fill="#797AA9"/>
<path d="M114.711 68.8912C112.706 88.9118 88.9013 91.4644 77.6786 93.6953H63.5179C56.2651 92.2534 43.7549 90.6781 35.2722 84.3367C33.2235 82.8058 31.4102 80.9972 29.9608 78.8456C28.9298 77.3132 28.0834 75.6046 27.4688 73.698C27.054 72.4064 26.7457 71.0237 26.5589 69.541C26.4875 68.978 26.4336 68.4017 26.3986 67.8096C26.295 66.0766 26.3505 64.2161 26.5838 62.2223C26.7864 60.4951 28.1083 54.5855 29.9105 48.7939C30.5236 46.8212 31.1922 44.8623 31.8921 43.0886C29.3323 31.7192 28.2897 17.3997 32.1364 12.4659C34.6385 9.25759 41.411 12.4775 51.6763 21.2752C59.0079 18.0458 69.0573 17.8569 70.5993 17.8627C72.1413 17.8569 82.1902 18.0458 89.5202 21.2752C99.785 12.4775 106.558 9.25759 109.06 12.4659C112.907 17.3997 111.864 31.7192 109.304 43.0886C112.057 50.0739 114.341 59.9067 114.612 62.2223C114.896 64.6384 114.917 66.8555 114.711 68.8912Z" fill="#8E8FB3"/>
<path d="M89.5203 24.1289C82.2897 20.9429 72.4127 20.7159 70.666 20.7159C70.6422 20.7159 70.62 20.7159 70.5994 20.7164C70.5782 20.7159 70.556 20.7159 70.5322 20.7159C68.7866 20.7159 58.909 20.9429 51.6763 24.1289C44.0168 17.5642 38.3017 14.1051 34.8544 14.1051C33.6817 14.1051 32.7718 14.5052 32.1365 15.3195C31.8789 15.6497 31.6435 16.0228 31.4282 16.4334C31.6932 15.4174 32.0635 14.447 32.565 13.6178C32.6237 13.5077 32.6956 13.413 32.7655 13.3156L32.8686 13.1685C32.9035 13.1188 32.9379 13.0685 32.9702 13.0378C33.0363 12.9674 33.0934 12.8849 33.168 12.8288L33.2722 12.7336C33.3087 12.7045 33.3489 12.6817 33.3865 12.6542C33.6896 12.4441 34.0588 12.3155 34.492 12.2743C34.6079 12.2631 34.7269 12.2573 34.8486 12.2573C35.1808 12.2573 35.532 12.2981 35.8875 12.369C36.3741 12.4669 36.8693 12.6066 37.3617 12.7875C38.3483 13.1458 39.3226 13.6284 40.2764 14.157C42.1844 15.2243 44.0125 16.498 45.7947 17.8325C47.5752 19.1734 49.3065 20.5936 51.0088 22.0514L51.4938 22.4674L52.09 22.2112C53.5124 21.6006 54.9978 21.1064 56.5122 20.6936C58.0283 20.282 59.5803 19.9745 61.1402 19.7136C62.7012 19.4559 64.2776 19.2644 65.8592 19.1294C67.4377 18.9935 69.0352 18.912 70.5983 18.8998C72.1614 18.9072 73.7589 18.9913 75.3374 19.1263C76.9196 19.2607 78.4959 19.4522 80.0574 19.7099C81.6174 19.9708 83.1694 20.2772 84.686 20.6889C86.201 21.1016 87.6863 21.5958 89.1087 22.206L89.7017 22.4605L90.1847 22.0472C91.8864 20.5889 93.6177 19.1681 95.3983 17.8272C97.1804 16.4921 99.0085 15.2174 100.917 14.1501C101.87 13.621 102.845 13.1378 103.832 12.7791C104.325 12.5981 104.82 12.4579 105.308 12.36C105.664 12.2885 106.016 12.2478 106.349 12.2478C106.471 12.2478 106.59 12.2536 106.706 12.2647C107.14 12.306 107.511 12.4351 107.816 12.6463C107.854 12.6738 107.894 12.697 107.931 12.7262L108.035 12.8214C108.111 12.8775 108.168 12.9611 108.234 13.0315C108.267 13.0622 108.302 13.1124 108.336 13.1627L108.44 13.3098C108.509 13.4072 108.581 13.5024 108.641 13.6125C109.149 14.4544 109.524 15.4412 109.79 16.4726C109.79 16.4742 109.791 16.4757 109.791 16.4773C109.57 16.0487 109.327 15.6619 109.06 15.3195C108.425 14.5052 107.514 14.1051 106.342 14.1051C102.895 14.1051 97.1804 17.5637 89.5203 24.1289Z" fill="#C7C7D9"/>
<path d="M114.711 68.8912C112.706 88.9118 88.9015 91.4644 77.6787 93.6953H63.5181C56.2653 92.2534 43.755 90.6781 35.2724 84.3367C33.2236 82.8058 31.4103 80.9972 29.9609 78.8456C28.9299 77.3132 28.0836 75.6046 27.4689 73.698C27.0542 72.4064 26.7458 71.0237 26.5591 69.541C43.8957 84.4351 56.4081 77.7545 62.0031 66.3772C64.1639 61.9852 68.4174 61.5629 70.2641 61.5629C72.1102 61.5629 76.3642 61.9852 78.5224 66.3772C84.1968 77.9165 96.9906 84.6261 114.711 68.8912Z" fill="white"/>
<path d="M93.3878 89.3203C92.5986 89.1028 91.7771 88.9896 90.9439 88.9896H49.7087C49.2898 88.9896 48.874 89.0182 48.4635 89.0743C48.163 88.5573 47.8864 87.9927 47.641 87.3778C47.8885 87.2513 48.126 87.1021 48.3498 86.9333C48.9555 86.4761 49.2136 85.767 49.2136 84.9474C49.2136 84.6669 49.1834 84.3738 49.1263 84.0732C56.9573 85.3278 65.3537 85.9565 70.5964 85.9565C80.0968 85.9565 102.324 83.2308 110.898 77.6355L110.329 78.5134C109.465 79.7246 108.513 80.8866 107.397 81.892L106.989 82.2799C106.852 82.408 106.701 82.5212 106.558 82.6429L105.688 83.3615L104.772 84.0256C104.618 84.1351 104.468 84.2489 104.312 84.3558L103.833 84.6606C103.513 84.8622 103.198 85.0717 102.873 85.2675L101.882 85.8279C101.555 86.021 101.212 86.1882 100.872 86.3592C100.531 86.5269 100.196 86.7084 99.8487 86.8661C99.151 87.1767 98.4617 87.5037 97.7465 87.7784C97.0414 88.0747 96.3194 88.3329 95.5979 88.5938C94.8668 88.8509 94.1299 89.0917 93.3878 89.3203ZM41.8191 85.576C41.79 85.3284 41.7471 85.1088 41.6974 84.9267C41.8217 85.1432 41.9492 85.3458 42.0793 85.5353L41.8191 85.576ZM32.3319 80.366C31.8108 79.7738 31.3242 79.1526 30.8783 78.5033C30.7862 78.371 30.6958 78.2372 30.6074 78.1028C30.8624 78.307 31.1211 78.507 31.3834 78.7034C31.8521 79.0537 32.4054 79.3913 33.0317 79.7167C32.7921 79.9204 32.5583 80.1368 32.3319 80.366Z" fill="#D9D9EA"/>
<path d="M44.7253 41.2851C44.2048 40.4733 47.6526 33.2181 54.1532 35.3607C56.4945 36.1322 56.7145 38.416 54.8996 38.9033C53.1704 39.3674 52.3917 38.9933 49.7114 39.9368C48.1948 40.4707 45.2458 42.0963 44.7253 41.2851Z" fill="#000072"/>
<path d="M96.4714 41.2851C96.9924 40.4733 93.544 33.2181 87.044 35.3607C84.7027 36.1322 84.4821 38.416 86.2971 38.9033C88.0268 39.3674 88.8055 38.9933 91.4852 39.9368C93.0018 40.4707 95.9509 42.0963 96.4714 41.2851Z" fill="#000072"/>
<path d="M41.0976 29.8494C37.9412 33.2164 35.9522 37.928 35.6713 37.3777C35.6438 37.3248 35.6168 37.2618 35.5893 37.1877C34.9916 35.6447 34.004 29.5272 34.0172 24.0779C34.0215 23.199 34.0453 22.4227 34.0913 21.7386C34.2151 19.8913 34.479 18.7081 34.8022 17.9509C35.2032 17.0254 36.1014 16.7428 36.8964 17.055C39.0092 17.8879 45.0083 21.847 46.9607 24.3822C47.3093 24.833 44.2561 26.4819 41.0976 29.8494Z" fill="#F27E80"/>
<path d="M41.0976 29.8494C37.9412 33.2164 35.9522 37.928 35.6714 37.3777C35.6438 37.3248 35.6169 37.2618 35.5894 37.1877C36.2961 34.3293 38.2364 30.3802 39.7233 27.5259C41.7556 23.6271 38.969 20.522 36.5495 19.5907C35.72 19.2706 34.7319 20.6347 34.0913 21.7386C34.2151 19.8913 34.479 18.7081 34.8022 17.9509C35.2032 17.0254 36.1014 16.7428 36.8965 17.055C39.0092 17.8879 45.0083 21.847 46.9607 24.3822C47.3093 24.833 44.2561 26.4819 41.0976 29.8494Z" fill="#FF5C64"/>
<path d="M35.0668 24.0834C35.0557 28.1557 35.6206 32.5625 36.111 35.0369C37.0785 33.4245 38.5035 31.0862 40.3338 29.1341C42.0249 27.3302 43.7055 25.9899 44.8174 25.103C45.0967 24.8803 45.3961 24.6421 45.6325 24.4432C43.4056 22.0636 38.2618 18.723 36.5119 18.0346C36.3199 17.9595 35.9676 17.9018 35.7656 18.3696C35.4524 19.0998 35.0758 20.6867 35.0668 24.0834ZM35.7471 38.4727C35.7296 38.4727 35.7116 38.4727 35.6936 38.4721C35.29 38.4584 34.9234 38.2224 34.7367 37.8557C34.0279 36.465 32.9541 29.739 32.9694 24.0775C32.9779 21.0243 33.2625 18.886 33.8396 17.5398C34.4415 16.1466 35.8878 15.5349 37.2795 16.0825C39.5149 16.9615 45.659 20.9751 47.7923 23.7436C48.0494 24.0765 48.3393 24.7713 47.3967 25.6798C47.0973 25.9682 46.6683 26.3106 46.125 26.7434C44.9962 27.6435 43.4505 28.8759 41.8636 30.5692C40.118 32.4308 38.7252 34.7559 37.8026 36.2941C36.8373 37.9054 36.4966 38.4727 35.7471 38.4727Z" fill="#000072"/>
<path d="M100.209 29.8494C103.365 33.2164 105.354 37.928 105.635 37.3777C105.662 37.3248 105.689 37.2618 105.717 37.1877C106.315 35.6447 107.302 29.5272 107.289 24.0779C107.285 23.199 107.261 22.4227 107.215 21.7386C107.091 19.8913 106.827 18.7081 106.504 17.9509C106.103 17.0254 105.205 16.7428 104.41 17.055C102.297 17.8879 96.2981 21.847 94.3456 24.3822C93.997 24.833 97.0503 26.4819 100.209 29.8494Z" fill="#F27E80"/>
<path d="M100.209 29.8494C103.365 33.2164 105.354 37.928 105.635 37.3777C105.662 37.3248 105.689 37.2618 105.717 37.1877C105.01 34.3293 103.07 30.3802 101.583 27.5259C99.5507 23.6271 102.337 20.522 104.757 19.5907C105.586 19.2706 106.574 20.6347 107.215 21.7386C107.091 19.8913 106.827 18.7081 106.504 17.9509C106.103 17.0254 105.205 16.7428 104.41 17.055C102.297 17.8879 96.2981 21.847 94.3456 24.3822C93.997 24.833 97.0503 26.4819 100.209 29.8494Z" fill="#FF5C64"/>
<path d="M95.674 24.4432C95.9104 24.6421 96.2098 24.8803 96.4891 25.103C97.601 25.9899 99.2816 27.3302 100.973 29.1341C102.803 31.0862 104.228 33.4245 105.196 35.0369C105.686 32.5625 106.251 28.1557 106.24 24.0834C106.231 20.6867 105.854 19.0998 105.539 18.3669C105.339 17.9023 104.987 17.9589 104.795 18.0346C103.045 18.723 97.9004 22.0636 95.674 24.4432ZM105.559 38.4727C104.809 38.4727 104.469 37.9054 103.503 36.2941C102.581 34.7559 101.188 32.4308 99.4429 30.5692C97.8555 28.8759 96.3103 27.6435 95.1815 26.7434C94.6382 26.3106 94.2092 25.9682 93.9098 25.6798C92.9672 24.7713 93.2571 24.0765 93.5142 23.7436C95.6475 20.9751 101.792 16.9615 104.027 16.0825C105.418 15.5349 106.865 16.1466 107.466 17.5372C108.044 18.886 108.329 21.0243 108.337 24.0775C108.352 29.739 107.279 36.465 106.569 37.8557C106.383 38.2224 106.016 38.4584 105.613 38.4721C105.595 38.4727 105.577 38.4727 105.559 38.4727Z" fill="#000072"/>
<path d="M77.5907 93.2514C80.6255 92.4301 83.6824 91.8263 86.6955 91.0998C89.7096 90.3839 92.7009 89.6145 95.5976 88.5959C96.3191 88.335 97.0412 88.0768 97.7463 87.7804C98.4615 87.5058 99.1507 87.1788 99.8484 86.8682C100.196 86.7105 100.53 86.529 100.872 86.3612C101.212 86.1903 101.555 86.0231 101.881 85.83L102.873 85.2696C103.197 85.0738 103.513 84.8643 103.833 84.6626L104.311 84.3579C104.467 84.251 104.618 84.1372 104.772 84.0277L105.688 83.3636L106.558 82.645C106.701 82.5233 106.852 82.41 106.989 82.282L107.396 81.8941C108.513 80.8887 109.465 79.7267 110.329 78.5155L110.937 77.5773C110.987 77.499 111.039 77.4222 111.088 77.3423L111.218 77.0952L111.48 76.602L111.742 76.1094C111.785 76.0269 111.832 75.9459 111.872 75.8623L111.981 75.6046L112.417 74.5759L112.527 74.3187L112.614 74.0526L112.786 73.5202C112.895 73.1631 113.031 72.8149 113.118 72.4508L113.37 71.3571L113.497 70.8104L113.576 70.2527L113.737 69.1378C113.749 69.0452 113.766 68.9526 113.775 68.8589L113.793 68.5769L113.828 68.0128L113.899 66.8846C113.902 66.5068 113.891 66.128 113.887 65.7501L113.87 64.6151L113.774 63.4801L113.678 62.3445L113.601 61.8074L113.503 61.2502C113.219 59.75 112.868 58.2356 112.5 56.7323C112.13 55.2284 111.736 53.7277 111.311 52.2371C110.466 49.2564 109.527 46.2995 108.409 43.4378L108.301 43.1621L108.365 42.8732C109.336 38.5087 110.035 34.0728 110.392 29.6242C110.563 27.4002 110.653 25.1719 110.589 22.9601C110.526 20.7524 110.322 18.5432 109.789 16.4726C109.524 15.4413 109.149 14.4544 108.641 13.6125C108.581 13.5025 108.509 13.4072 108.44 13.3099L108.336 13.1628C108.301 13.1125 108.267 13.0622 108.234 13.0315C108.168 12.9612 108.11 12.8775 108.035 12.8215L107.931 12.7262C107.894 12.6971 107.853 12.6738 107.816 12.6463C107.511 12.4352 107.14 12.3061 106.706 12.2648C106.273 12.2225 105.794 12.2627 105.307 12.36C104.82 12.4579 104.325 12.5982 103.832 12.7791C102.845 13.1379 101.87 13.621 100.916 14.1502C99.0084 15.2175 97.1803 16.4922 95.3982 17.8273C93.6176 19.1681 91.8863 20.5889 90.1846 22.0473L89.7016 22.4605L89.1086 22.206C87.6862 21.5959 86.2009 21.1017 84.6859 20.6889C83.1693 20.2772 81.6173 19.9709 80.0573 19.71C78.4958 19.4523 76.9195 19.2607 75.3373 19.1263C73.7588 18.9914 72.1613 18.9073 70.5982 18.8999C69.0351 18.912 67.4376 18.9935 65.8591 19.1295C64.2775 19.2644 62.7011 19.456 61.1401 19.7137C59.5802 19.9746 58.0282 20.282 56.5121 20.6937C54.9977 21.1064 53.5123 21.6007 52.0899 22.2113L51.4937 22.4674L51.0087 22.0515C49.3064 20.5937 47.5751 19.1734 45.7945 17.8326C44.0124 16.498 42.1843 15.2243 40.2763 14.157C39.3225 13.6284 38.3482 13.1458 37.3616 12.7876C36.8691 12.6066 36.374 12.4669 35.8874 12.369C35.4012 12.2717 34.923 12.232 34.4919 12.2743C34.0587 12.3156 33.6895 12.4442 33.3864 12.6542C33.3488 12.6818 33.3086 12.7045 33.2721 12.7336L33.1679 12.8289C33.0933 12.885 33.0362 12.9675 32.9701 13.0379C32.9378 13.0686 32.9034 13.1188 32.8685 13.1686L32.7654 13.3157C32.6955 13.413 32.6236 13.5078 32.5649 13.6178C32.0565 14.4587 31.6825 15.4445 31.4175 16.4753C30.8854 18.5448 30.6823 20.7535 30.6198 22.9601C30.5564 25.1714 30.6463 27.3997 30.8177 29.6232C31.1758 34.0707 31.8751 38.5061 32.8463 42.87L32.9119 43.1642L32.8019 43.4436C31.6788 46.3021 30.7478 49.2627 29.9004 52.2424C29.4788 53.7336 29.0832 55.2332 28.7129 56.7376C28.3452 58.2404 27.9945 59.7559 27.7131 61.2544C27.6417 61.6296 27.5819 61.9984 27.537 62.3482C27.4925 62.726 27.4544 63.1038 27.4217 63.4822C27.3576 64.2389 27.319 64.9961 27.309 65.7523C27.2889 67.264 27.3852 68.7727 27.6248 70.2527C28.0956 73.2133 29.1779 76.0575 30.878 78.5054C32.5665 80.9628 34.8294 83.0112 37.3696 84.6484C39.9155 86.2866 42.7191 87.5439 45.6078 88.5662C48.5003 89.5933 51.4937 90.3532 54.5115 91.0474L55.643 91.3141L56.7793 91.5697L59.0533 92.0941C60.572 92.447 62.0944 92.8111 63.6057 93.2514C63.8448 93.3207 63.9823 93.5715 63.9125 93.8107C63.8506 94.0234 63.6453 94.1557 63.4327 94.1329H63.4306C60.3297 93.807 57.2241 93.3985 54.137 92.7862C51.052 92.1756 47.9893 91.3692 44.9926 90.3188C42.0007 89.2658 39.0644 87.9603 36.3523 86.2226C33.6482 84.4864 31.1811 82.2746 29.3223 79.5801C27.4507 76.8978 26.2553 73.761 25.7422 70.5591C25.4808 68.9573 25.3756 67.3381 25.3936 65.7284C25.4031 64.9236 25.4428 64.1209 25.5094 63.3213C25.5427 62.9218 25.5824 62.5234 25.6284 62.1254C25.6819 61.701 25.7474 61.2989 25.821 60.9073C26.1135 59.3368 26.4653 57.8081 26.8366 56.2783C27.2095 54.7501 27.6078 53.2298 28.0331 51.7159C28.8885 48.6891 29.8264 45.683 30.9817 42.7261L30.9372 43.2997C29.9385 38.8479 29.2186 34.3385 28.8435 29.7814C28.6637 27.5018 28.5658 25.21 28.6277 22.9056C28.6917 20.6027 28.8901 18.2802 29.4778 15.9678C29.7756 14.8148 30.1935 13.6591 30.8526 12.5638C30.9282 12.4251 31.0245 12.2928 31.1181 12.16L31.2594 11.9611C31.3054 11.8954 31.3514 11.8293 31.417 11.7579C31.5397 11.6187 31.6535 11.4742 31.7994 11.352L32.0105 11.1641C32.084 11.1054 32.1634 11.0525 32.2406 10.9975C32.8643 10.5609 33.6043 10.3307 34.2936 10.2667C34.9881 10.199 35.6467 10.2641 36.2666 10.3842C36.8866 10.5069 37.4806 10.6773 38.0482 10.8842C39.185 11.2959 40.2408 11.8203 41.2618 12.3833C43.2988 13.5189 45.1857 14.8322 47.0197 16.2001C48.8494 17.5727 50.6135 19.0157 52.3443 20.4921L51.2626 20.3323C52.8029 19.6666 54.3819 19.1401 55.9763 18.7025C57.5722 18.2665 59.1861 17.9442 60.8042 17.6706C62.4234 17.4002 64.0495 17.1997 65.6798 17.0579C67.3127 16.9166 68.9378 16.8234 70.5982 16.8166C72.2587 16.8282 73.8837 16.9187 75.5166 17.0611C77.1464 17.2034 78.7725 17.4039 80.3917 17.6743C82.0098 17.9484 83.6237 18.2707 85.2186 18.7072C86.8129 19.1449 88.3919 19.6719 89.9317 20.3376L88.8563 20.4963C90.5871 19.0205 92.3513 17.578 94.181 16.2054C96.0149 14.8386 97.9018 13.5252 99.9389 12.3907C100.96 11.8277 102.015 11.3038 103.151 10.8927C103.718 10.6858 104.312 10.5159 104.931 10.3932C105.551 10.273 106.209 10.2085 106.902 10.2762C107.59 10.3402 108.328 10.5699 108.951 11.0059C109.027 11.0604 109.107 11.1128 109.18 11.1721L109.39 11.3594C109.536 11.4811 109.649 11.6256 109.772 11.7642C109.837 11.8356 109.883 11.9013 109.929 11.9669L110.07 12.1658C110.164 12.2986 110.26 12.4304 110.335 12.5691C110.993 13.6633 111.411 14.8185 111.708 15.971C112.295 18.2818 112.494 20.6032 112.557 22.9056C112.618 25.21 112.52 27.5013 112.34 29.7803C111.964 34.3369 111.243 38.8453 110.244 43.2965L110.2 42.7319C111.348 45.6894 112.294 48.6934 113.145 51.7201C113.572 53.2335 113.968 54.7538 114.341 56.2814C114.712 57.8118 115.063 59.3405 115.357 60.9089L115.46 61.5053L115.548 62.1265L115.648 63.3245L115.746 64.523L115.762 65.729C115.765 66.1311 115.775 66.5333 115.771 66.9354L115.693 68.144L115.654 68.7483L115.634 69.0505C115.624 69.151 115.606 69.251 115.592 69.351L115.417 70.5538L115.329 71.1549L115.191 71.7486L114.914 72.9355C114.817 73.3303 114.67 73.7123 114.55 74.1013L114.36 74.6817L114.264 74.9717L114.144 75.2532L113.664 76.3787L113.544 76.6602C113.499 76.7518 113.449 76.8407 113.402 76.9312L113.114 77.4714L112.824 78.0112L112.68 78.2805C112.627 78.3684 112.57 78.4525 112.515 78.5382L111.847 79.5642C110.901 80.8887 109.856 82.1518 108.649 83.236L108.207 83.653C108.059 83.7911 107.897 83.9128 107.742 84.0435L106.806 84.8135L105.825 85.5215C105.661 85.6379 105.499 85.7585 105.333 85.8723L104.824 86.1956C104.484 86.4089 104.148 86.6306 103.804 86.8364L102.756 87.4259C102.41 87.6296 102.051 87.8042 101.693 87.9826C101.335 88.1588 100.982 88.3477 100.619 88.5122C99.8902 88.8356 99.1676 89.1753 98.425 89.4589C97.6902 89.7658 96.9422 90.0315 96.1953 90.2997C94.6952 90.8141 93.1844 91.293 91.6546 91.684C90.8929 91.893 90.1243 92.0666 89.3583 92.2544C88.5892 92.4201 87.8195 92.5889 87.0478 92.7354C83.9607 93.3381 80.8572 93.7572 77.7658 94.1329L77.7626 94.1335C77.5161 94.1631 77.2913 93.9874 77.2617 93.7403C77.2342 93.5149 77.3781 93.3085 77.5907 93.2514Z" fill="#000072"/>
<path d="M78.2721 69.5544C78.2721 69.5544 78.2737 74.2338 74.0895 73.9866C71.1251 73.8131 70.5104 71.3726 70.466 71.1758C70.42 71.3726 69.8053 73.8131 66.8409 73.9866C62.6546 74.2338 62.6567 69.5544 62.6567 69.5544L70.4295 63.4909H70.5009L78.2721 69.5544Z" fill="#E8E8E8"/>
<path d="M78.2308 69.5848C78.2308 69.5848 76.8655 73.145 73.689 72.3163C70.0724 71.3728 70.5157 67.0571 70.5157 67.0571H70.3819C70.3819 67.0571 70.8082 71.3739 67.1885 72.3031C64.0083 73.1196 62.6573 69.5536 62.6573 69.5536C62.6573 69.5536 61.7665 61.5607 70.429 61.5607C79.092 61.5607 78.2308 69.5848 78.2308 69.5848Z" fill="white"/>
<path d="M77.8219 70.3795C77.2078 71.3759 75.8779 72.8882 73.6896 72.3157C70.0708 71.3727 70.5141 67.057 70.5141 67.057H70.3824C70.3824 67.057 70.8088 71.3759 67.1869 72.3046C64.999 72.866 63.6745 71.3505 63.063 70.3515C63.6745 70.4076 64.3394 70.3599 65.063 70.1747C71.0415 68.6397 70.3375 62.7803 70.3375 62.7803H70.5591C70.5591 62.7803 69.8265 68.637 75.7991 70.197C76.5312 70.388 77.2046 70.4383 77.8219 70.3795Z" fill="#E8E8E8"/>
<path d="M63.147 69.3656C63.255 69.5407 63.3925 69.7582 63.5327 69.9418C63.6686 70.1344 63.822 70.3117 63.9744 70.4826C64.2849 70.8197 64.6276 71.1044 64.9905 71.2954C65.3508 71.4944 65.7295 71.5912 66.1194 71.6214C66.3188 71.6044 66.515 71.6272 66.7197 71.569C66.8208 71.5452 66.9234 71.5383 67.0255 71.5097L67.3307 71.4092C68.1464 71.1425 68.7642 70.5705 69.1848 69.7926C69.3958 69.4053 69.5482 68.965 69.6577 68.5068C69.7164 68.2787 69.7545 68.0422 69.791 67.8051C69.8232 67.5739 69.8507 67.3146 69.8597 67.1061L69.8613 67.0659C69.8746 66.7764 70.1195 66.5521 70.4088 66.5648C70.6611 66.5759 70.8637 66.7637 70.9034 67.0034C70.9553 67.3151 70.9748 67.5791 70.9806 67.8681C70.988 68.1517 70.9738 68.4353 70.9426 68.7205C70.877 69.2888 70.7564 69.8677 70.5067 70.4186C70.0544 71.5272 69.0546 72.5273 67.8777 72.9136L67.4413 73.0617C67.2937 73.1062 67.1345 73.1263 66.9805 73.1548C66.6764 73.2247 66.3447 73.2067 66.0247 73.2109C65.3719 73.1617 64.7361 72.9315 64.205 72.5897C63.6739 72.2426 63.2486 71.7954 62.9169 71.3123C62.7524 71.0689 62.6064 70.8181 62.4816 70.5588C62.3536 70.2948 62.2568 70.0445 62.1663 69.7376C62.0849 69.4592 62.2441 69.1682 62.5218 69.0867C62.7535 69.019 62.9947 69.1185 63.1153 69.3142L63.147 69.3656Z" fill="#000072"/>
<path d="M78.7197 69.7724C78.6288 70.0794 78.5304 70.3291 78.4013 70.5926C78.2754 70.8514 78.1283 71.1017 77.9633 71.344C77.6295 71.8261 77.2021 72.2716 76.67 72.6166C76.1378 72.9558 75.5009 73.1839 74.8476 73.2305C74.5276 73.2246 74.1965 73.2416 73.8923 73.1701C73.7384 73.1416 73.5797 73.1209 73.4321 73.0759L72.9962 72.9257C71.8208 72.5346 70.8248 71.5308 70.3767 70.4201C70.1297 69.8682 70.0112 69.2888 69.9477 68.721C69.9181 68.4353 69.9044 68.1511 69.9134 67.868C69.9202 67.5791 69.9409 67.315 69.9938 67.0034C70.0424 66.7176 70.3138 66.5255 70.5994 66.5742C70.8481 66.6166 71.0258 66.8277 71.0353 67.07L71.0369 67.1108C71.0454 67.3188 71.0718 67.578 71.103 67.8098C71.1385 68.0474 71.1755 68.2834 71.2337 68.512C71.3416 68.9708 71.4918 69.4116 71.7013 69.7994C72.1187 70.5794 72.7344 71.1535 73.549 71.4234L73.8537 71.525C73.9558 71.5546 74.0584 71.5615 74.1594 71.5859C74.3642 71.6446 74.5599 71.6224 74.7598 71.6404C75.1492 71.6123 75.5284 71.5171 75.8897 71.3192C76.2537 71.1292 76.597 70.8461 76.9091 70.5106C77.0619 70.3397 77.2159 70.1635 77.3529 69.9714C77.4936 69.7883 77.6322 69.5714 77.7406 69.3967L77.7723 69.3459C77.9252 69.0999 78.2484 69.0247 78.4944 69.1777C78.6991 69.3052 78.7853 69.5518 78.7197 69.7724Z" fill="#000072"/>
<path d="M74.8111 64.8008C74.8095 65.8221 73.4759 66.7211 72.2529 67.3318C70.9734 67.9704 69.5409 67.9673 68.2639 67.3238C67.0431 66.7084 65.7132 65.8041 65.7153 64.7828C65.7212 61.7031 74.8174 61.7211 74.8111 64.8008Z" fill="#000072"/>
<path d="M70.2673 65.0586C69.9976 65.0586 69.7273 65.012 69.4723 64.9184C68.9883 64.7411 68.4609 64.4797 68.4614 64.1855C68.462 63.7431 69.357 63.523 70.2552 63.523C71.1603 63.523 72.069 63.7468 72.068 64.1924C72.0674 64.4871 71.539 64.7459 71.0539 64.9216C70.8021 65.0131 70.5345 65.0586 70.2673 65.0586Z" fill="#8080B9"/>
<path d="M31.8642 67.3556C31.6907 67.2562 31.4902 67.1493 31.2971 67.0503C31.1051 66.9461 30.9067 66.8492 30.7073 66.7545C30.51 66.6566 30.31 66.5646 30.1053 66.4783C29.9011 66.3931 29.7044 66.2947 29.4991 66.2121C28.6797 65.8777 27.8561 65.5549 27.0119 65.2898C25.3281 64.7517 23.61 64.3088 21.8581 64.0415C21.4227 63.9601 20.9794 63.9315 20.5409 63.8685L19.8813 63.786C19.6612 63.7606 19.4396 63.7553 19.2185 63.7389C18.7757 63.7114 18.3335 63.6828 17.8908 63.6489L16.5586 63.633C15.6685 63.5939 14.7829 63.6997 13.8913 63.7225L13.5571 63.7368L13.2249 63.7733L12.5599 63.8468L11.2257 63.9844L11.1945 63.9876C10.9412 64.014 10.7146 63.8299 10.6885 63.5764C10.6636 63.3357 10.8305 63.1187 11.0643 63.0753L12.4192 62.8277L13.0987 62.7086L13.4388 62.6488L13.7818 62.6123C14.239 62.5604 14.6975 62.516 15.1564 62.4737C15.386 62.4557 15.6148 62.4218 15.8454 62.417L16.5367 62.3964C16.9978 62.3842 17.4591 62.3657 17.9209 62.3594L19.3058 62.4128C19.5364 62.4255 19.7681 62.4271 19.9982 62.4488L20.688 62.5208C21.1471 62.5742 21.61 62.6049 22.066 62.6859L23.4344 62.9192C23.8893 63.0065 24.3384 63.1203 24.7896 63.2251C25.243 63.3214 25.6831 63.4695 26.129 63.5944C26.5749 63.7193 27.0108 63.8791 27.4467 64.0368C29.1913 64.6792 30.8575 65.4713 32.3953 66.6005C32.6005 66.7514 32.6449 67.0397 32.4942 67.245C32.354 67.4366 32.0937 67.4879 31.8927 67.3726L31.8642 67.3556Z" fill="#000072"/>
<path d="M33.0364 74.2717C32.2815 74.1813 31.4854 74.1199 30.7073 74.0876C29.9249 74.0543 29.1426 74.0421 28.3618 74.059C26.8019 74.0982 25.2451 74.2246 23.7232 74.5215C22.962 74.6681 22.2077 74.848 21.4708 75.0798C21.0995 75.1872 20.7393 75.3253 20.3737 75.4491C20.0167 75.5941 19.6528 75.7253 19.3057 75.8925C17.8929 76.5138 16.5808 77.3461 15.3816 78.3341L15.3745 78.3399C15.1776 78.5023 14.8864 78.4738 14.7243 78.2769C14.5721 78.0917 14.5891 77.8224 14.7544 77.6562C15.9211 76.4905 17.2824 75.5004 18.7699 74.7654C19.511 74.394 20.2769 74.0707 21.0641 73.8151C21.8485 73.5505 22.6478 73.333 23.4577 73.1764C25.0742 72.8473 26.7215 72.7007 28.3602 72.7324C30.0037 72.7663 31.6198 72.9457 33.2331 73.3695C33.4796 73.4341 33.6272 73.6865 33.5627 73.9336C33.5034 74.159 33.2866 74.3019 33.0612 74.2749L33.0364 74.2717Z" fill="#000072"/>
<path d="M108.801 66.6006C110.339 65.4714 112.005 64.6793 113.75 64.0369C114.186 63.8792 114.622 63.7194 115.068 63.5945C115.514 63.4696 115.954 63.3215 116.407 63.2252C116.858 63.1204 117.308 63.0066 117.762 62.9193L119.131 62.6859C119.587 62.605 120.05 62.5743 120.509 62.5209L121.198 62.4489C121.429 62.4272 121.66 62.4256 121.891 62.4129L123.276 62.3595C123.738 62.3658 124.199 62.3843 124.66 62.3965L125.351 62.4171C125.582 62.4219 125.811 62.4558 126.04 62.4738C126.499 62.5161 126.958 62.5605 127.415 62.6124L127.758 62.6489L128.098 62.7087L128.778 62.8278L130.132 63.0754C130.383 63.1209 130.549 63.3611 130.503 63.612C130.46 63.8501 130.241 64.012 130.004 63.9882L129.971 63.9845L128.637 63.8469L127.972 63.7734L127.64 63.7368L127.305 63.7226C126.414 63.6998 125.528 63.594 124.638 63.6331L123.306 63.649C122.864 63.6829 122.421 63.7114 121.978 63.739C121.758 63.7554 121.535 63.7607 121.315 63.7861L120.656 63.8686C120.217 63.9316 119.774 63.9601 119.339 64.0416C117.587 64.3089 115.869 64.7518 114.185 65.2899C113.341 65.555 112.517 65.8778 111.698 66.2122C111.492 66.2948 111.296 66.3932 111.091 66.4784C110.887 66.5646 110.687 66.6567 110.489 66.7546C110.29 66.8493 110.092 66.9462 109.9 67.0504C109.706 67.1494 109.506 67.2563 109.333 67.3557L109.304 67.3721C109.083 67.4991 108.801 67.4229 108.674 67.2023C108.556 66.9964 108.615 66.7377 108.801 66.6006Z" fill="#000072"/>
<path d="M107.964 73.3697C109.577 72.9458 111.194 72.7664 112.837 72.7326C114.475 72.7008 116.123 72.8474 117.74 73.1765C118.549 73.3332 119.349 73.5506 120.133 73.8152C120.92 74.0708 121.686 74.3941 122.427 74.7656C123.914 75.5006 125.276 76.4906 126.442 77.6563C126.623 77.8368 126.623 78.1294 126.443 78.3098C126.274 78.4792 126.005 78.4898 125.824 78.3416L125.815 78.3342C124.616 77.3463 123.304 76.5139 121.891 75.8927C121.544 75.7255 121.18 75.5942 120.824 75.4492C120.457 75.3254 120.097 75.1873 119.726 75.0799C118.989 74.8481 118.235 74.6682 117.474 74.5216C115.952 74.2248 114.395 74.0983 112.835 74.0591C112.055 74.0422 111.272 74.0544 110.49 74.0877C109.711 74.12 108.915 74.1814 108.161 74.2719L108.136 74.275C107.883 74.3052 107.653 74.1242 107.622 73.8713C107.595 73.639 107.744 73.4268 107.964 73.3697Z" fill="#000072"/>
<path d="M23.4794 107.965C25.689 102.944 27.1109 97.9649 25.3652 93.5004C24.5215 91.3436 22.4913 89.7725 20.2992 89.3259C20.3172 89.1095 20.3262 88.9058 20.3283 88.7142C20.3289 88.6856 20.3289 88.6576 20.3289 88.6295C20.3294 87.7771 20.1924 87.1775 20.104 86.8167C20.1035 86.8151 20.1035 86.8135 20.1035 86.8119C20.1035 86.8055 20.1067 86.8008 20.1125 86.7971C20.1263 86.7891 20.1522 86.7854 20.1876 86.7854C20.2982 86.7854 20.5002 86.8182 20.7044 86.851C20.9091 86.8839 21.1149 86.9167 21.2324 86.9167C21.28 86.9167 21.3133 86.9114 21.3254 86.8981C21.3482 86.8743 21.3625 86.8436 21.3699 86.8061C21.3731 86.7875 21.3746 86.7674 21.3752 86.7463C21.3752 86.6976 21.3662 86.6415 21.3508 86.5796C23.7175 87.1865 26.0217 88.5946 27.3653 90.7678C27.1399 93.1512 27.0728 96.4287 27.7588 99.8005C26.7665 103.032 25.0399 105.864 23.4794 107.965Z" fill="#797AA9"/>
<path d="M21.3249 86.8967C21.2821 86.9422 20.9906 86.8962 20.7039 86.8496C20.3934 86.7998 20.0871 86.7501 20.1041 86.8157C20.2405 87.3724 20.4918 88.4968 20.1781 90.2399C20.1712 90.2378 20.1665 90.2378 20.1596 90.2378C20.0718 90.2171 19.9866 90.2007 19.8988 90.1891C19.8227 90.1753 19.7465 90.1663 19.6703 90.1568C19.61 90.1499 19.5476 90.143 19.4857 90.1383C19.4302 90.134 19.3725 90.1293 19.3148 90.1272C19.153 90.1176 18.9916 90.1176 18.8298 90.1245C15.9424 90.2468 13.3226 92.8608 14.3798 99.3768C15.8616 108.532 5.91087 111.395 2.2547 103.544C2.09315 103.196 1.94773 102.829 1.81152 102.445C3.65119 103.826 8.24682 106.198 10.7951 103.365C14.3798 99.3768 9.49558 92.72 14.2044 87.8158C15.7024 86.2569 18.569 85.8643 21.3503 86.5781C21.3874 86.7236 21.3853 86.8342 21.3249 86.8967Z" fill="#686868"/>
<path d="M20.1776 90.2399C19.7295 90.1457 19.2773 90.1039 18.8292 90.1245C15.9419 90.2468 13.3221 92.8608 14.3792 99.3768C15.8611 108.532 5.91032 111.395 2.25414 103.544C2.0926 103.196 1.94718 102.829 1.81097 102.445C1.76712 102.311 1.72094 102.175 1.67714 102.039C-0.605761 94.7287 2.15951 82.0708 13.449 79.4176C13.9661 79.2933 14.5039 79.1938 15.0602 79.1155C15.8218 79.0091 16.5721 78.9445 17.3063 78.926C18.05 79.3917 19.9131 81.2067 20.4288 83.1079C20.4606 83.2244 20.1855 83.1709 19.9104 83.1175C19.6301 83.063 19.3497 83.009 19.3968 83.1349C19.7105 83.9758 21.7116 86.4898 21.3249 86.8972C21.2821 86.9427 20.9911 86.8962 20.7039 86.8501C20.3934 86.8004 20.0866 86.7501 20.103 86.8157C20.2389 87.3729 20.4918 88.4963 20.1776 90.2399Z" fill="white"/>
<path d="M20.328 88.7148C20.3375 87.8174 20.1942 87.1904 20.1032 86.8173C20.1011 86.8088 20.1042 86.8025 20.1122 86.7977C20.1064 86.8014 20.1032 86.8062 20.1032 86.8125C20.1032 86.8141 20.1032 86.8157 20.1037 86.8173C20.192 87.1782 20.329 87.7777 20.3285 88.6302C20.3285 88.6582 20.3285 88.6863 20.328 88.7148Z" fill="#595969"/>
<path d="M21.3697 86.8047C21.3808 86.7444 21.3734 86.6676 21.3501 86.5777C21.366 86.6401 21.375 86.6962 21.375 86.7449C21.3744 86.7661 21.3728 86.7862 21.3697 86.8047Z" fill="#595969"/>
<path d="M8.53293 107.18C6.6319 107.18 4.51282 106.067 3.17383 103.326C4.43866 104.034 6.0916 104.695 7.65779 104.695C8.81488 104.695 9.9244 104.334 10.7951 103.367C14.3797 99.3789 9.49556 92.7221 14.2043 87.8179C15.2233 86.7575 16.8757 86.2368 18.7039 86.2368C19.5629 86.2368 20.4611 86.3522 21.3503 86.5802C21.3736 86.6702 21.381 86.7469 21.3699 86.8072C21.3625 86.8443 21.3482 86.875 21.3249 86.8988C21.3128 86.912 21.2789 86.9173 21.2313 86.9173C21.1133 86.9173 20.9076 86.8845 20.7039 86.8517C20.4997 86.8189 20.2982 86.7861 20.1882 86.7861C20.1522 86.7861 20.1257 86.7898 20.1125 86.7982C20.1046 86.803 20.1014 86.8094 20.1035 86.8178C20.1945 87.1909 20.3379 87.8179 20.3283 88.7154C20.3262 88.9069 20.3172 89.1106 20.2992 89.3271C19.8829 89.2424 19.4603 89.198 19.0392 89.198C18.5341 89.198 18.0305 89.2615 17.5412 89.3953C16.2576 89.7467 12.17 91.5141 13.4678 99.5281C14.1914 103.996 12.0085 106.331 9.91948 106.974C9.48202 107.108 9.01461 107.18 8.53293 107.18Z" fill="#D9D9EA"/>
<path d="M33.7618 137.934C29.2427 137.934 25.0104 136.381 21.7461 133.317C16.4643 128.359 15.2372 120.707 18.6199 113.823C18.833 113.389 19.0483 112.954 19.2636 112.519C22.4364 106.104 25.7171 99.4715 23.6451 94.173C22.7919 91.9913 20.1666 90.5907 18.0279 91.1759C15.604 91.8384 14.5806 94.8498 15.2902 99.2312C16.1451 104.51 13.481 107.809 10.4616 108.738C7.49646 109.649 3.55163 108.517 1.41811 103.934C-0.819559 99.127 -0.373264 92.0697 2.50357 86.7718C4.33319 83.4026 7.97466 79.181 14.9325 78.2021C21.0854 77.3369 26.7798 79.2599 30.5567 83.4799C34.6378 88.0396 35.957 94.6551 34.176 101.629C33.7184 103.42 32.8683 105.648 31.9685 108.007C29.8474 113.567 27.2072 120.486 28.9343 124.079C29.4665 125.186 30.9582 126.104 32.734 126.419C35.6084 126.928 38.6347 125.876 41.0362 123.534C41.4018 123.178 41.9863 123.186 42.3418 123.551C42.6978 123.916 42.6904 124.5 42.3248 124.857C39.4922 127.618 35.8782 128.851 32.4129 128.237C30.0341 127.817 28.0637 126.53 27.2702 124.879C25.1987 120.57 27.8785 113.545 30.243 107.348C31.1238 105.04 31.9553 102.86 32.3864 101.172C34.0125 94.8043 32.844 88.8053 29.1808 84.7118C25.8213 80.9585 20.7209 79.2525 15.1898 80.0314C8.99335 80.9029 5.75322 84.6578 4.12615 87.6539C1.21007 93.0237 1.39859 99.5164 3.09211 103.154C4.75663 106.73 7.71985 107.649 9.91906 106.972C12.008 106.33 14.191 103.995 13.4674 99.5265C12.1695 91.5125 16.2572 89.7451 17.5407 89.3937C20.5861 88.5614 24.1688 90.442 25.3648 93.5C27.7341 99.5588 24.2693 106.564 20.9188 113.338C20.704 113.772 20.4898 114.205 20.2771 114.638C17.2144 120.871 18.2612 127.512 23.0098 131.97C28.3662 136.999 36.7045 137.452 44.2514 133.125C44.6941 132.872 45.258 133.025 45.5114 133.467C45.7648 133.91 45.6119 134.475 45.1691 134.728C41.4282 136.873 37.4969 137.934 33.7618 137.934Z" fill="#000072"/>
<path d="M117.22 132.317C117.197 136.371 115.643 139.364 113.709 141.52C110.893 144.66 106.824 146.383 102.609 146.383H38.5884C34.3735 146.383 30.3041 144.66 27.4879 141.52C25.5534 139.364 24.0003 136.371 23.9771 132.317C23.9749 132.04 23.9797 131.769 23.9908 131.508C24.3119 123.57 30.0084 123.025 33.533 125.371C33.6372 125.438 33.7388 125.51 33.8377 125.583L34.1307 125.124C36.4577 121.28 39.4168 120.698 42.1569 121.418C46.4294 122.538 50.173 126.824 50.173 126.824H91.0236C91.0236 126.824 94.4746 122.873 98.5324 121.566C101.411 120.638 104.594 121.039 107.066 125.124L107.355 125.586C107.548 125.443 107.749 125.309 107.957 125.184C111.509 123.055 116.936 123.792 117.208 131.594C117.217 131.827 117.222 132.07 117.22 132.317Z" fill="#8E8FB3"/>
<path d="M35.9674 126.105C35.813 126.105 35.7474 126.003 35.7992 125.749C36.0304 124.626 38.0611 122.668 39.9813 122.668C40.0903 122.668 40.1992 122.674 40.3071 122.688C41.9829 122.891 41.1413 123.918 39.8591 124.275C38.3208 124.704 36.5387 126.105 35.9674 126.105Z" fill="#C7C7D9"/>
<path d="M105.2 126.105C104.629 126.105 102.847 124.704 101.309 124.275C100.656 124.094 100.119 123.739 99.9678 123.407C100.404 123.178 100.814 122.932 101.199 122.668C103.115 122.676 105.138 124.628 105.369 125.749C105.42 126.003 105.355 126.105 105.2 126.105Z" fill="#C7C7D9"/>
<path d="M96.2944 137.32C95.4856 137.32 94.6942 137.172 93.9389 136.881L94.2224 135.248H95.876C95.8828 135.416 95.9834 135.575 96.1479 135.649C96.2092 135.677 96.2738 135.69 96.3367 135.69C96.5129 135.69 96.6811 135.588 96.7578 135.417C96.9059 135.088 97.054 134.757 97.1952 134.42C97.2635 134.252 97.347 134.086 97.4005 133.913L97.5623 133.396C97.6692 133.05 97.7803 132.701 97.8713 132.351C97.9485 131.999 98.0263 131.646 98.0971 131.292L98.2061 130.76L98.2817 130.226L98.4209 129.157C98.4976 128.443 98.5357 127.728 98.5769 127.013C98.5901 126.301 98.6134 125.587 98.6039 124.875C98.5965 124.598 98.5907 124.32 98.5849 124.042C98.716 123.99 98.8451 123.936 98.9731 123.881C99.6814 129.191 98.1395 132.976 98.2812 133.768C98.387 134.357 98.6414 134.598 98.9874 134.598C100.57 134.598 104.07 129.547 104.07 129.547L104.645 129.637C103.633 131.744 103.154 133.672 101.94 134.816C101.549 135.184 101.152 135.511 100.748 135.793V135.795C100.167 136.207 99.5751 136.532 98.9805 136.775L98.98 136.776C98.9747 136.778 98.9694 136.78 98.9636 136.782C98.9625 136.783 98.961 136.783 98.9599 136.784C98.9567 136.785 98.9535 136.786 98.9504 136.788C98.0622 137.146 97.1688 137.32 96.2944 137.32ZM44.9848 137.32C43.2133 137.32 41.3608 136.604 39.6406 135.091L39.6385 135.09C39.5935 135.05 39.5486 135.01 39.5036 134.969C39.4486 134.919 39.3936 134.868 39.3386 134.816C38.1166 133.664 37.64 131.716 36.6133 129.591C36.9608 130.086 40.1691 134.598 41.665 134.598C42.0109 134.598 42.2654 134.357 42.3712 133.768C42.5278 132.9 40.661 128.441 41.948 122.316C42.0125 122.333 42.076 122.351 42.14 122.369C42.1337 122.495 42.1268 122.62 42.1199 122.746C42.0876 123.454 42.0797 124.166 42.0628 124.876C42.0617 125.587 42.0861 126.301 42.0966 127.013C42.1448 127.728 42.1887 128.441 42.2585 129.154L42.4019 130.223L42.4749 130.756L42.5812 131.288L42.8055 132.346C42.8917 132.697 43.007 133.044 43.1091 133.391L43.2662 133.909C43.3207 134.081 43.4016 134.248 43.4683 134.417C43.6058 134.754 43.7518 135.086 43.8941 135.417C43.9676 135.587 44.1358 135.696 44.3178 135.696C44.358 135.696 44.3993 135.691 44.4405 135.679C44.6405 135.624 44.7733 135.445 44.7791 135.248H46.467L46.7823 137.067C46.1983 137.235 45.5963 137.32 44.9848 137.32Z" fill="#797AA9"/>
<path d="M117.22 132.317C117.197 136.371 115.643 139.364 113.708 141.52C110.893 144.66 106.823 146.383 102.608 146.383H38.5882C34.3733 146.383 30.3039 144.66 27.4876 141.52C25.5532 139.364 24.0001 136.371 23.9768 132.317C23.9329 123.61 29.8929 122.949 33.5327 125.371C37.3345 128.828 37.3186 132.91 39.3382 134.815C45.0877 140.239 52.4764 136.526 53.3857 126.824C53.5222 125.369 53.5106 123.778 53.3281 122.062C51.9157 108.804 70.6398 115.025 70.6398 115.025C70.6398 115.025 89.364 108.804 87.949 122.062C87.7665 123.778 87.7575 125.369 87.8913 126.824C88.8033 136.526 96.1893 140.239 101.939 134.815C103.998 132.875 103.943 128.68 107.957 125.184C111.615 122.99 117.263 123.838 117.22 132.317Z" fill="white"/>
<path d="M117.22 132.317C117.206 134.746 116.643 136.793 115.777 138.51C115.198 139.657 114.484 140.657 113.708 141.52C110.893 144.66 106.823 146.383 102.608 146.383H38.5882C34.3733 146.383 30.3039 144.66 27.4876 141.52C26.9015 140.867 26.3519 140.137 25.8674 139.324C24.7523 137.454 23.9932 135.143 23.9768 132.317C23.9329 123.61 29.8929 122.949 33.5327 125.371C37.3345 128.828 37.3186 132.91 39.3382 134.815C39.4372 134.907 39.5366 135 39.6361 135.087L39.6403 135.09C44.6079 139.458 50.6689 137.179 52.7419 130.222C53.0514 129.19 53.2704 128.057 53.3857 126.824C53.5222 125.369 53.5106 123.778 53.3281 122.062C51.9157 108.804 70.6398 115.025 70.6398 115.025C70.6398 115.025 89.364 108.804 87.949 122.062C87.7665 123.778 87.7575 125.369 87.8913 126.824C88.0066 128.057 88.2283 129.195 88.5356 130.227C90.4902 136.771 95.9704 139.174 100.748 135.794V135.792C101.152 135.51 101.549 135.182 101.939 134.815C103.998 132.875 103.943 128.68 107.957 125.184C111.615 122.99 117.263 123.838 117.22 132.317Z" fill="white"/>
<path d="M102.608 145.461H89.4533C91.5803 143.96 93.1122 141.647 93.5862 138.914L93.9385 136.881C94.6938 137.171 95.4852 137.32 96.2935 137.32C97.7635 137.32 99.2885 136.827 100.748 135.794C99.9862 137.491 98.5622 141.594 101.821 143.033C102.871 143.498 103.948 143.698 105.023 143.698C108.062 143.698 111.089 142.1 113.487 140.357C113.338 140.542 113.183 140.724 113.021 140.904C110.423 143.8 106.628 145.461 102.608 145.461ZM51.2354 145.461H38.5881C34.717 145.461 31.0544 143.921 28.4683 141.22C30.6228 142.593 33.1407 143.697 35.666 143.697C36.7409 143.697 37.8168 143.497 38.8674 143.033C43.0172 141.2 39.5736 135.046 39.5736 135.046C39.5736 135.046 39.5942 135.06 39.636 135.088L39.6402 135.09C41.3604 136.603 43.2129 137.319 44.9845 137.319C45.596 137.319 46.1979 137.234 46.7819 137.066L47.1019 138.914C47.5759 141.647 49.1078 143.96 51.2354 145.461Z" fill="#D9D9EA"/>
<path d="M101.553 134.456C102.118 133.929 102.49 133.163 102.805 132.348C103.119 131.528 103.397 130.661 103.731 129.795C104.062 128.928 104.449 128.056 104.947 127.229C105.441 126.399 106.039 125.617 106.725 124.91C107.081 124.544 107.666 124.535 108.032 124.891C108.399 125.247 108.407 125.832 108.052 126.199C108.034 126.217 108.016 126.234 107.997 126.25L107.984 126.262C107.361 126.805 106.796 127.422 106.302 128.109C105.805 128.794 105.385 129.55 105.002 130.345C104.615 131.138 104.268 131.971 103.862 132.811C103.651 133.231 103.433 133.654 103.153 134.061L102.941 134.363C102.862 134.461 102.775 134.556 102.693 134.651L102.567 134.793C102.523 134.839 102.471 134.88 102.423 134.923L102.129 135.177C101.937 135.343 101.646 135.322 101.48 135.129C101.318 134.942 101.334 134.66 101.514 134.492L101.553 134.456Z" fill="#000072"/>
<path d="M39.0506 135.178L38.757 134.924C38.7088 134.881 38.6575 134.84 38.6126 134.794L38.4872 134.652C38.4047 134.556 38.3185 134.461 38.2391 134.364L38.0265 134.061C37.7466 133.654 37.5287 133.231 37.3182 132.812C36.9119 131.972 36.5654 131.139 36.1782 130.345C35.7952 129.551 35.3747 128.794 34.878 128.109C34.3839 127.422 33.819 126.806 33.1959 126.262L33.1842 126.252C32.7991 125.917 32.7595 125.333 33.0948 124.948C33.4302 124.563 34.0142 124.523 34.3993 124.858C34.4178 124.875 34.4374 124.894 34.4548 124.911C35.1409 125.618 35.7392 126.4 36.2332 127.229C36.7305 128.057 37.1182 128.928 37.4494 129.795C37.7831 130.661 38.0608 131.529 38.3751 132.348C38.6898 133.163 39.0622 133.929 39.6271 134.456L39.6652 134.492C39.8514 134.665 39.8615 134.957 39.6885 135.143C39.5192 135.324 39.2368 135.338 39.0506 135.178Z" fill="#000072"/>
<path d="M29.6841 125.085C28.9843 125.085 28.3146 125.229 27.7322 125.524C25.8617 126.474 24.8826 128.821 24.9011 132.312C24.9186 135.612 26.0199 138.503 28.1749 140.904C30.7733 143.8 34.5687 145.461 38.5883 145.461H102.609C106.628 145.461 110.424 143.8 113.022 140.904C115.177 138.503 116.278 135.612 116.295 132.312C116.314 128.82 115.335 126.473 113.464 125.524C111.875 124.718 109.641 125.041 107.904 126.329L107.102 126.923L106.283 125.614C104.967 123.441 103.354 122.261 101.48 122.096C96.809 121.686 91.7678 127.376 91.7176 127.434L91.4414 127.748L91.0225 127.749H49.7545L49.4789 127.433C49.4286 127.376 44.387 121.686 39.7166 122.096C37.843 122.261 36.2291 123.441 34.9209 125.603L34.0831 126.915L33.288 126.327C32.1893 125.513 30.8912 125.085 29.6841 125.085ZM102.609 147.309H38.5883C34.045 147.309 29.7486 145.424 26.8006 142.138C24.3351 139.39 23.0745 136.088 23.055 132.322C23.0264 126.968 25.1286 124.775 26.8969 123.877C28.8684 122.877 31.3953 123.057 33.5578 124.299C35.1474 121.83 37.1686 120.464 39.5595 120.256C44.5086 119.823 49.3556 124.597 50.5807 125.902H90.6157C91.8413 124.597 96.6878 119.824 101.637 120.256C104.023 120.464 106.04 121.823 107.638 124.299C109.801 123.056 112.327 122.876 114.299 123.877C116.068 124.773 118.17 126.967 118.142 132.322C118.122 136.088 116.862 139.39 114.396 142.138C111.448 145.424 107.152 147.309 102.609 147.309Z" fill="#000072"/>
<path d="M47.0869 113.713C32.3608 113.431 28.5495 103.673 28.1549 95.5341C28.0046 92.4745 28.3374 89.6435 28.7553 87.6301L45.956 84.9309C46.1474 85.515 46.3945 86.0786 46.6902 86.6189C49.8339 92.4099 58.2197 95.7119 58.2197 95.7119C58.2197 95.7119 67.3482 114.103 47.0869 113.713Z" fill="#8E8FB3"/>
<path d="M42.4832 112.328C38.3498 111.526 35.1294 109.704 32.8775 106.883C31.5144 105.175 30.6077 103.245 30.02 101.281C32.4866 103.983 36.1477 105.995 41.4882 106.597L42.4832 112.328Z" fill="#797AA9"/>
<path d="M46.6902 86.6167C45.1942 89.7107 42.5996 92.1745 39.539 93.7725C36.0398 95.5986 31.9333 96.3008 28.1549 95.532C28.0046 92.4724 28.3374 89.6414 28.7553 87.628L45.956 84.9287C46.0877 85.333 46.2469 85.7257 46.4294 86.1088C46.5124 86.2797 46.5976 86.4506 46.6902 86.6167Z" fill="white"/>
<path d="M39.5283 93.7812C39.5315 93.7797 39.5352 93.7775 39.5389 93.776C39.5352 93.7781 39.5315 93.7802 39.5283 93.7812Z" fill="#797AA9"/>
<path d="M36.6497 94.3672C35.1755 94.3672 33.7795 93.8947 33.231 92.7422C33.4886 92.7543 33.7372 92.7612 33.9789 92.7612C34.0144 92.7612 34.0498 92.7607 34.0847 92.7607C39.2703 92.7406 41.1518 90.1662 41.684 87.8713C42.3447 87.612 42.9964 87.3628 43.6206 87.1289C44.3394 87.6205 45.0863 87.8337 45.8095 87.8337C45.8184 87.8337 45.828 87.8337 45.8375 87.8337C45.8613 87.8962 45.8851 87.9581 45.9094 88.0195C44.3706 90.4578 42.1209 92.422 39.539 93.7698C39.5353 93.7714 39.5316 93.7735 39.5284 93.7751C39.5247 93.7767 39.5215 93.7777 39.5184 93.7788C38.6868 94.1492 37.65 94.3672 36.6497 94.3672Z" fill="#D9D9EA"/>
<path d="M47.7081 114.641C47.497 114.641 47.2849 114.639 47.0691 114.634C40.0855 114.5 34.8254 112.278 31.4347 108.031C25.5064 100.604 27.4086 89.5756 27.8503 87.4405C27.9535 86.941 28.4423 86.6187 28.9411 86.723C29.4404 86.8267 29.7615 87.3151 29.6584 87.8146C29.2463 89.8079 27.4642 100.096 32.8777 106.878C35.9098 110.676 40.696 112.665 47.1045 112.788C52.6937 112.897 56.4087 111.55 58.1559 108.79C60.778 104.649 58.3796 98.3681 57.611 96.5986C55.2867 96.3933 47.0786 94.9683 45.0521 85.1149C44.9495 84.6153 45.2706 84.1269 45.7704 84.0237C46.2698 83.9211 46.758 84.2428 46.8607 84.7423C48.9004 94.6582 57.7829 94.7857 58.213 94.7857H58.2167L58.7901 94.7846L59.0477 95.299C59.2239 95.654 63.3282 104.073 59.7158 109.778C57.6724 113.006 53.6337 114.641 47.7081 114.641Z" fill="#000072"/>
<path d="M48.3495 86.9362C46.487 88.3401 43.694 88.4046 41.6971 84.9297C42.2144 86.8209 41.9536 92.7342 34.0846 92.7644C33.8101 92.7665 33.526 92.7596 33.2308 92.7458L28.1225 93.5078C27.7649 79.5223 37.3256 74.463 45.3698 78.7047C46.7409 79.4275 48.0538 81.0854 48.7325 82.7665C49.4021 84.4217 49.4572 86.1007 48.3495 86.9362Z" fill="white"/>
<path d="M34.0845 92.7656C35.4328 92.1836 37.9947 90.8215 39.4652 88.3805C40.5681 86.5449 40.693 84.6331 41.014 84.4415C41.0712 84.4071 41.1632 84.3923 41.2859 84.3923C41.6483 84.3923 42.273 84.5219 43.013 84.6516C43.7526 84.7812 44.6079 84.9109 45.4305 84.9109C46.9502 84.9109 48.3594 84.469 48.7323 82.7678C49.036 83.5176 49.2132 84.2727 49.2132 84.9516C49.2132 85.7713 48.955 86.4803 48.3494 86.9375C48.1256 87.1063 47.8881 87.2555 47.6405 87.382C47.0809 87.6667 46.4683 87.8339 45.8372 87.8387C45.8277 87.8387 45.8182 87.8387 45.8092 87.8387C44.4016 87.8387 42.9041 87.0317 41.697 84.931C41.7922 85.2781 41.8609 85.7612 41.8609 86.3179C41.862 88.7954 40.5089 92.7408 34.0845 92.7656Z" fill="#D9D9EA"/>
<path d="M27.1995 93.5322C27.1524 91.5494 27.2958 89.5471 27.7036 87.576C28.1236 85.6107 28.8245 83.6687 29.9296 81.9278C31.033 80.1969 32.5437 78.6613 34.4005 77.6687C36.246 76.6654 38.3842 76.2198 40.463 76.3548C41.5035 76.4183 42.5303 76.6183 43.5152 76.9305C43.7591 77.0151 44.0061 77.0919 44.2463 77.1845L44.9604 77.4792L45.6539 77.8152C45.765 77.8666 45.8914 77.9369 46.0183 78.011C46.1469 78.0814 46.2596 78.1639 46.3796 78.2407C47.3016 78.8884 48.0062 79.6948 48.5987 80.5668C49.1827 81.4442 49.654 82.3966 49.9328 83.4597C50.0676 83.9926 50.1528 84.5567 50.1306 85.1594C50.0989 85.7573 49.956 86.4267 49.544 87.0061C49.4487 87.1537 49.3271 87.2818 49.2075 87.4109C49.1456 87.4728 49.0774 87.5279 49.0118 87.585L48.9113 87.6691L48.8224 87.7316L48.468 87.9734L48.0914 88.1851C47.5767 88.4481 47.0123 88.6359 46.4204 88.7174C45.2349 88.8851 43.9643 88.5311 43.045 87.8491C42.1029 87.1807 41.4189 86.2997 40.8973 85.3906L42.5885 84.6874L42.589 84.6884C42.6953 85.0366 42.7588 85.3631 42.7937 85.6912C42.8297 86.0187 42.8477 86.3447 42.8355 86.6696C42.8244 87.3194 42.7122 87.966 42.5303 88.5989C42.3414 89.2291 42.0558 89.8408 41.6834 90.3975C41.3073 90.952 40.845 91.4515 40.3223 91.8622C39.7976 92.2707 39.2205 92.5924 38.628 92.8406C38.0308 93.0813 37.4188 93.2401 36.8062 93.3353C35.5806 93.5126 34.3661 93.4629 33.2103 93.2073C32.9574 93.1517 32.7982 92.9014 32.8537 92.649C32.8971 92.4522 33.0584 92.3114 33.2473 92.2855L33.2531 92.285C34.3698 92.1331 35.4462 91.9691 36.4508 91.6822C37.4489 91.3902 38.3762 90.9785 39.0893 90.3514C39.8098 89.7371 40.3239 88.9296 40.6043 88.011C40.7476 87.5533 40.836 87.0696 40.8704 86.5817C40.9016 86.1007 40.8878 85.588 40.8069 85.1742V85.1731L40.7979 85.135C40.6831 84.6387 40.992 84.1429 41.4882 84.0275C41.895 83.9333 42.3012 84.1249 42.498 84.4699C42.9291 85.2271 43.4724 85.8901 44.105 86.3362C44.2574 86.4616 44.4298 86.532 44.5912 86.6309C44.7636 86.695 44.9297 86.7802 45.1069 86.8151C45.4555 86.9061 45.8168 86.9431 46.1786 86.886C46.5404 86.8352 46.9001 86.7182 47.2424 86.5442L47.4952 86.4034L47.7365 86.2378L47.7957 86.197L47.8322 86.1637C47.856 86.1415 47.884 86.123 47.9068 86.0997C47.9475 86.0489 47.9967 86.0071 48.0295 85.9494C48.1845 85.7425 48.2654 85.4324 48.2861 85.0763C48.2988 84.7165 48.2464 84.3185 48.1448 83.9195C47.9364 83.1184 47.5481 82.3178 47.0657 81.5966C46.5817 80.8785 45.9882 80.2192 45.3307 79.7609C45.2476 79.7096 45.1667 79.6477 45.0831 79.6038C45.0022 79.5567 44.9197 79.5085 44.8117 79.4593L44.2066 79.1656L43.5866 78.9095C43.3788 78.8296 43.1656 78.7645 42.955 78.6904C42.106 78.4222 41.2306 78.2523 40.3509 78.1983C38.5921 78.0856 36.8195 78.4581 35.2791 79.2937C33.7302 80.1208 32.4496 81.4135 31.4879 82.9184C30.5268 84.4318 29.8931 86.1658 29.5101 87.9591C29.1382 89.7588 29.0012 91.6198 29.0456 93.4845V93.4883C29.0578 93.9984 28.6542 94.4217 28.1443 94.4333C27.6343 94.4455 27.2117 94.0417 27.1995 93.5322Z" fill="#000072"/>
<path d="M96.3288 135.25C99.1694 128.056 96.9667 115.433 95.0412 101.954H45.6112C43.6852 115.433 41.483 128.056 44.3236 135.25H96.3288Z" fill="#8E8FB3"/>
<path d="M95.8759 135.25H94.2223L94.3932 134.262C94.3948 134.253 94.3964 134.244 94.3979 134.234L96.0245 124.851C96.262 124.793 96.4953 124.733 96.7238 124.669C96.7275 124.752 96.7318 124.835 96.736 124.918L96.7762 126.981C96.7762 129.726 96.5884 132.447 95.8992 135.08L95.8902 135.113C95.8785 135.159 95.8738 135.204 95.8759 135.25ZM46.467 135.25H44.779C44.7801 135.205 44.7748 135.16 44.7626 135.114L44.7531 135.08C44.03 132.457 43.8448 129.727 43.8543 126.981C43.8655 125.198 43.9543 123.408 44.0961 121.616L46.2882 134.239C46.3072 134.349 46.3273 134.458 46.3485 134.567L46.467 135.25Z" fill="#797AA9"/>
<path d="M95.8995 135.077C96.5887 132.443 96.7765 129.723 96.7765 126.978L96.7363 124.915C96.7009 124.225 96.6808 123.537 96.6332 122.847C96.5787 122.157 96.5358 121.467 96.4724 120.777L96.2745 118.704C95.9852 115.942 95.6101 113.177 95.2346 110.408L94.6712 106.25C94.4845 104.863 94.2962 103.474 94.1274 102.082V102.082L95.0415 102.875H45.6114L46.5249 102.082V102.082C46.3567 103.474 46.1673 104.863 45.9811 106.25L45.4157 110.408C45.0385 113.176 44.6592 115.941 44.3694 118.704C44.0731 121.466 43.8721 124.23 43.8547 126.978C43.8451 129.724 44.0303 132.454 44.7534 135.077L44.7629 135.111C44.8306 135.357 44.6862 135.611 44.4408 135.679C44.216 135.741 43.9843 135.625 43.8943 135.416C43.752 135.085 43.606 134.753 43.4685 134.416C43.4019 134.247 43.3209 134.081 43.2664 133.909L43.1093 133.39C43.0072 133.043 42.8919 132.696 42.8057 132.346L42.5814 131.287L42.4751 130.755L42.4021 130.223L42.2587 129.154C42.1889 128.44 42.145 127.727 42.0969 127.012C42.0863 126.3 42.062 125.586 42.063 124.875C42.0799 124.165 42.0879 123.453 42.1202 122.745C42.1598 122.039 42.1884 121.33 42.2376 120.624C42.2921 119.919 42.3407 119.214 42.4047 118.511C42.6587 115.698 43.021 112.908 43.4146 110.128C43.6119 108.739 43.8187 107.352 44.0382 105.968C44.2556 104.584 44.4656 103.201 44.6973 101.821V101.82L44.8116 101.028H45.6114H95.0415H95.8413L95.9556 101.82V101.821C96.1873 103.201 96.3983 104.584 96.6152 105.968C96.8342 107.352 97.0452 108.738 97.241 110.128C97.6361 112.908 98.0022 115.697 98.2561 118.51L98.4285 120.623C98.4777 121.329 98.5063 122.038 98.5459 122.745C98.5787 123.453 98.584 124.165 98.6041 124.874C98.6137 125.586 98.5904 126.3 98.5772 127.013C98.5359 127.728 98.4978 128.442 98.4211 129.156L98.282 130.226L98.2063 130.759L98.0974 131.291C98.0265 131.645 97.9487 131.998 97.8715 132.35C97.7805 132.701 97.6694 133.049 97.5626 133.395L97.4007 133.912C97.3473 134.085 97.2637 134.251 97.1955 134.419C97.0542 134.756 96.9061 135.088 96.758 135.416C96.6538 135.649 96.3809 135.753 96.1481 135.649C95.9392 135.555 95.8344 135.325 95.8905 135.11L95.8995 135.077Z" fill="#000072"/>
<path d="M95.2403 94.1914C95.2403 94.1914 116.912 120.677 93.8872 124.332L95.2403 94.1914Z" fill="#8E8FB3"/>
<path d="M96.0477 96.7973L94.8617 123.216C99.1909 122.321 101.929 120.437 103.007 117.605C105.486 111.097 99.1031 101.056 96.0477 96.7973ZM92.9141 125.422L94.4264 91.7391L95.9551 93.607C96.4608 94.2256 108.31 108.864 104.733 118.261C103.313 121.993 99.713 124.343 94.0318 125.245L92.9141 125.422Z" fill="#000072"/>
<path d="M78.8635 146.387H61.8215C54.6041 146.387 48.4326 141.193 47.1974 134.08L41.9341 103.766L41.4543 99.0597C40.9555 94.1687 44.7932 89.9185 49.7085 89.9185H90.9437C95.8721 89.9185 99.7135 94.1904 99.1941 99.0925L98.6313 104.406L93.4886 134.075C92.255 141.191 86.0829 146.387 78.8635 146.387Z" fill="#00BDFF"/>
<path d="M97.9279 95.8555C96.46 93.5701 93.8966 92.036 90.9434 92.036H87.1093C85.707 92.036 84.5703 93.1732 84.5703 94.576V95.5337H77.0223V94.576C77.0223 93.1732 75.8855 92.036 74.4832 92.036H59.0435C57.5968 92.036 56.424 93.2092 56.424 94.6569V95.5337H52.3292V94.6569C52.3292 93.2092 51.1559 92.036 49.7092 92.036C46.7559 92.036 44.1925 93.5695 42.7246 95.8549C43.0441 94.9093 43.5546 94.0283 44.2364 93.2732C45.6324 91.7275 47.6266 90.8412 49.7087 90.8412H90.9439C93.0312 90.8412 95.0297 91.7312 96.4257 93.2843C97.1027 94.0373 97.61 94.9146 97.9279 95.8555Z" fill="#66D7FF"/>
<path d="M42.8494 103.639L48.1075 133.92C49.2686 140.607 55.0365 145.461 61.8217 145.461H78.8637C85.6515 145.461 91.4194 140.606 92.5789 133.916L97.7164 104.276L98.2765 98.9931C98.4966 96.9167 97.8216 94.835 96.4257 93.283C95.0297 91.7299 93.0312 90.8399 90.9439 90.8399H49.7087C47.6266 90.8399 45.6324 91.7262 44.2364 93.2719C42.841 94.8175 42.1618 96.8923 42.3728 98.964L42.8494 103.639ZM78.8637 147.309H61.8217C54.1362 147.309 47.6033 141.811 46.2883 134.236L41.0245 103.923C41.0208 103.901 41.0181 103.88 41.016 103.858L40.5362 99.1513C40.2717 96.5606 41.1213 93.9661 42.8664 92.0336C44.6115 90.1012 47.1051 88.9926 49.7087 88.9926H90.9439C93.5544 88.9926 96.0527 90.1059 97.7983 92.0474C99.544 93.9883 100.388 96.5912 100.113 99.1878L99.5498 104.501C99.5477 104.521 99.5445 104.541 99.5413 104.561L94.3981 134.231C93.0852 141.809 86.5518 147.309 78.8637 147.309Z" fill="#000072"/>
<path d="M98.6319 104.403L98.2119 106.825L97.3624 111.727L95.2481 123.923L94.389 128.871L92.6767 138.756C91.9123 143.164 88.0878 146.383 83.6143 146.383H57.0745C52.6015 146.383 48.7765 143.164 48.0127 138.756L47.5302 135.97L46.877 132.199L46.5352 130.231L45.453 123.986L45.1271 122.115L42.0575 104.403C41.2614 100.282 44.4188 96.4555 48.6152 96.4555H92.0742C94.8741 96.4555 97.2074 98.1573 98.2188 100.513C98.4261 100.997 98.5785 101.51 98.6642 102.043C98.7911 102.801 98.7885 103.595 98.6319 104.403Z" fill="#00BDFF"/>
<path d="M83.6146 145.461H57.0749C53.0404 145.461 49.6115 142.574 48.9223 138.598L48.3817 135.481L52.5357 133.092C56.5977 136.318 62.3064 138.628 70.3262 138.632H70.3447C81.4522 138.627 88.1273 134.196 92.1322 129.038C87.3174 128.93 84.3695 125.575 85.6829 116.087C85.8252 115.058 86.2394 114.25 86.8345 113.619C86.4261 115.255 86.233 116.695 86.233 117.943C86.232 122.377 88.6547 124.419 92.4691 124.419C92.923 124.419 93.3975 124.39 93.8889 124.332C94.0106 124.318 94.1306 124.301 94.2491 124.281L91.7677 138.598C91.0779 142.574 87.6496 145.461 83.6146 145.461ZM47.7273 131.705L47.3872 129.742L48.5605 129.068C48.9413 129.557 49.346 130.039 49.7766 130.511L47.7273 131.705Z" fill="#00A1EA"/>
<path d="M52.535 133.094C51.5151 132.284 50.5984 131.416 49.7759 130.513L97.7989 102.549C97.8555 103.107 97.8312 103.679 97.7211 104.247L97.1996 107.257C95.856 107.345 93.218 107.663 90.9148 108.816C89.1147 109.713 87.5209 111.121 86.9099 113.327L52.535 133.094Z" fill="#66D7FF"/>
<path d="M48.3809 135.48L47.7266 131.704L49.7758 130.511C50.5984 131.414 51.5151 132.282 52.5349 133.092L48.3809 135.48Z" fill="#66C7F2"/>
<path d="M48.5604 129.066C47.9203 128.245 47.3475 127.404 46.8359 126.56L45.979 121.619L87.6088 97.3775H92.0744C93.7984 97.3775 95.416 98.1405 96.5136 99.4703C96.8924 99.9296 97.1933 100.438 97.4113 100.976L48.5604 129.066Z" fill="#66D7FF"/>
<path d="M47.3866 129.742L46.8354 126.561C47.347 127.405 47.9198 128.246 48.5599 129.068L47.3866 129.742Z" fill="#66C7F2"/>
<path d="M48.6145 97.3792C46.8906 97.3792 45.273 98.1422 44.1759 99.472C43.0788 100.802 42.6371 102.535 42.964 104.229L48.9218 138.598C49.6111 142.575 53.0399 145.461 57.0744 145.461H83.6142C87.6492 145.461 91.0775 142.575 91.7672 138.598L97.7214 104.246C98.0515 102.535 97.6098 100.802 96.5132 99.472C95.4156 98.1422 93.798 97.3792 92.074 97.3792H48.6145ZM83.6142 147.309H57.0744C52.1396 147.309 47.9453 143.778 47.1022 138.914L41.148 104.561C40.719 102.343 41.3025 100.053 42.7513 98.2962C44.2007 96.5394 46.3378 95.5324 48.6145 95.5324H92.074C94.3513 95.5324 96.4878 96.5394 97.9372 98.2962C99.3861 100.052 99.9695 102.343 99.5379 104.579L93.5864 138.914C92.7432 143.778 88.5495 147.309 83.6142 147.309Z" fill="#000072"/>
<path d="M99.421 120.296C98.29 122.466 96.4111 124.036 93.8884 124.332C88.0623 125.011 84.7593 121.709 86.8758 113.452C87.4598 111.173 89.08 109.728 90.915 108.813C94.1677 107.186 98.0869 107.222 98.0869 107.222C101.106 111.035 101.374 116.555 99.421 120.296Z" fill="white"/>
<path d="M92.469 124.418C88.6546 124.418 86.2319 122.376 86.2329 117.943C86.2329 116.652 86.4392 115.157 86.8761 113.452C87.4601 111.173 89.0804 109.728 90.9154 108.813C89.7178 111.653 88.5451 116.003 90.4356 119.589C91.318 121.263 92.9641 122.006 94.7372 122.006C96.3538 122.006 98.0761 121.389 99.4213 120.296C98.6755 121.727 97.6048 122.897 96.239 123.613C95.6328 123.93 94.9689 124.158 94.249 124.28C94.1305 124.3 94.0104 124.317 93.8888 124.332C93.3973 124.389 92.9229 124.418 92.469 124.418Z" fill="#D9D9EA"/>
<path d="M98.0785 108.148C95.4288 108.244 92.5803 108.825 90.4252 110.214C89.3535 110.914 88.5072 111.855 88.0576 112.983C88.0025 113.125 87.9507 113.267 87.9052 113.413C87.8618 113.561 87.8222 113.7 87.782 113.875C87.7005 114.21 87.6206 114.544 87.554 114.88C87.418 115.549 87.3059 116.222 87.2519 116.889C87.1377 118.218 87.2064 119.556 87.6418 120.687C87.8528 121.255 88.1771 121.744 88.5744 122.155C88.9806 122.557 89.4768 122.868 90.0375 123.087C91.1632 123.518 92.5099 123.596 93.8318 123.479C94.1249 123.445 94.4809 123.379 94.8168 123.312C95.1575 123.245 95.5008 123.176 95.8425 123.1C96.1837 123.024 96.5233 122.944 96.8565 122.856L97.3453 122.722C97.5019 122.678 97.6595 122.625 97.7574 122.586L97.8161 122.564C98.1954 122.416 98.6233 122.603 98.7714 122.983C98.9105 123.339 98.7503 123.74 98.4159 123.91C98.1901 124.024 98.0107 124.092 97.8283 124.161C97.6468 124.229 97.4696 124.289 97.2929 124.346C96.939 124.459 96.5878 124.563 96.236 124.663C95.8832 124.761 95.5309 124.857 95.1733 124.943C94.8104 125.027 94.4656 125.109 94.0503 125.174C93.2859 125.282 92.5269 125.351 91.7387 125.307C90.9542 125.267 90.1534 125.129 89.3742 124.845C88.5955 124.565 87.8497 124.104 87.236 123.503C86.6304 122.895 86.1559 122.16 85.8612 121.389C85.2593 119.837 85.2027 118.237 85.3169 116.728C85.3735 115.968 85.4931 115.225 85.6364 114.492C85.7073 114.125 85.7904 113.763 85.8803 113.403C85.92 113.23 85.9771 113.025 86.0369 112.83C86.0982 112.634 86.1686 112.44 86.2442 112.249C86.5547 111.485 86.9985 110.773 87.536 110.158C88.0734 109.541 88.6976 109.021 89.3594 108.588C90.6871 107.722 92.1471 107.191 93.6118 106.84C94.346 106.666 95.085 106.536 95.8277 106.445C96.199 106.399 96.5714 106.364 96.9454 106.339C97.3257 106.315 97.6812 106.299 98.0954 106.302C98.6048 106.304 99.0153 106.72 99.0126 107.23C99.0095 107.726 98.6159 108.129 98.125 108.147L98.0785 108.148Z" fill="#000072"/>
<path d="M91.9614 113.722C91.4345 113.808 90.8707 113.956 90.3528 114.14C89.8307 114.327 89.3287 114.553 88.8812 114.835C88.4315 115.112 88.0401 115.447 87.7423 115.819C87.5974 116.008 87.4762 116.206 87.3778 116.409C87.2837 116.614 87.2191 116.827 87.171 117.043L87.1699 117.049C87.0589 117.548 86.5643 117.862 86.0654 117.751C85.5666 117.64 85.2524 117.145 85.363 116.646C85.3714 116.609 85.3841 116.568 85.3963 116.532C85.5217 116.186 85.6798 115.853 85.8766 115.546C86.0771 115.243 86.3072 114.966 86.5584 114.72C87.0668 114.235 87.6444 113.875 88.2353 113.609C88.8272 113.339 89.435 113.159 90.0439 113.027C90.6591 112.899 91.2536 112.82 91.8974 112.8C92.1524 112.793 92.3655 112.993 92.3735 113.248C92.3804 113.482 92.2116 113.681 91.9868 113.718L91.9614 113.722Z" fill="#000072"/>
<path d="M92.5837 121.608C91.9654 121.814 91.3771 121.933 90.7461 122C90.1214 122.062 89.4755 122.055 88.8211 121.941C88.1705 121.82 87.505 121.583 86.9168 121.178C86.3223 120.782 85.8356 120.22 85.4796 119.611L85.4759 119.605C85.2178 119.164 85.3664 118.596 85.8076 118.338C86.2487 118.08 86.8153 118.229 87.0734 118.67C87.093 118.703 87.112 118.742 87.1274 118.777C87.3072 119.203 87.5532 119.588 87.8965 119.893C88.234 120.204 88.6661 120.435 89.1465 120.594C89.6299 120.747 90.1589 120.829 90.7006 120.846C91.2359 120.863 91.8114 120.819 92.3214 120.722L92.3515 120.717C92.6017 120.669 92.8435 120.833 92.8911 121.083C92.935 121.314 92.7996 121.536 92.5837 121.608Z" fill="#000072"/>
<path d="M46.1251 104.527L46.9662 109.278C47.2376 110.81 48.568 111.926 50.1231 111.926C52.11 111.926 53.6186 110.136 53.2827 108.177L52.4676 103.425C52.2036 101.886 50.8695 100.761 49.3085 100.761H49.2815C47.2878 100.761 45.7776 102.563 46.1251 104.527Z" fill="#000072"/>
<path d="M47.035 104.368L47.8761 109.119C48.0697 110.212 49.0144 111.005 50.1237 111.005C50.7976 111.005 51.434 110.708 51.8688 110.193C52.3031 109.677 52.4872 109 52.3729 108.335L51.5583 103.584C51.37 102.485 50.4236 101.687 49.3086 101.687H49.2821C48.6055 101.687 47.9681 101.984 47.5333 102.503C47.0985 103.022 46.9171 103.702 47.035 104.369V104.368ZM50.1237 112.852C48.1173 112.852 46.4077 111.418 46.058 109.442L45.2164 104.69C45.0032 103.484 45.3317 102.255 46.1183 101.317C46.9049 100.378 48.0581 99.8397 49.2821 99.8397H49.3086C51.3255 99.8397 53.0373 101.283 53.3785 103.272L54.1931 108.023C54.3994 109.226 54.0667 110.451 53.2801 111.384C52.4941 112.317 51.3435 112.852 50.1237 112.852Z" fill="#000072"/>
<path d="M50.9914 103.619C50.9914 104.602 50.1953 105.398 49.213 105.398C48.2307 105.398 47.4346 104.602 47.4346 103.619C47.4346 102.636 48.2307 101.84 49.213 101.84C50.1953 101.84 50.9914 102.636 50.9914 103.619Z" fill="#000072"/>
<path d="M49.7028 103.615C49.7028 103.886 49.4832 104.105 49.2129 104.105C48.9426 104.105 48.7236 103.886 48.7236 103.615C48.7236 103.345 48.9426 103.126 49.2129 103.126C49.4832 103.126 49.7028 103.345 49.7028 103.615Z" fill="#000072"/>
<path d="M49.2129 102.301C48.4866 102.301 47.8962 102.892 47.8962 103.618C47.8962 104.345 48.4866 104.936 49.2129 104.936C49.9391 104.936 50.53 104.345 50.53 103.618C50.53 102.892 49.9391 102.301 49.2129 102.301ZM49.2129 105.859C47.9777 105.859 46.9727 104.854 46.9727 103.618C46.9727 102.383 47.9777 101.377 49.2129 101.377C50.448 101.377 51.4531 102.383 51.4531 103.618C51.4531 104.854 50.448 105.859 49.2129 105.859Z" fill="#61619B"/>
<path d="M51.9148 108.806C51.9148 109.789 51.1181 110.586 50.1358 110.586C49.1541 110.586 48.3574 109.789 48.3574 108.806C48.3574 107.824 49.1541 107.027 50.1358 107.027C51.1181 107.027 51.9148 107.824 51.9148 108.806Z" fill="#000072"/>
<path d="M50.1362 107.489C49.4105 107.489 48.8196 108.08 48.8196 108.806C48.8196 109.532 49.4105 110.124 50.1362 110.124C50.8625 110.124 51.4534 109.532 51.4534 108.806C51.4534 108.08 50.8625 107.489 50.1362 107.489ZM50.1362 111.047C48.901 111.047 47.896 110.042 47.896 108.806C47.896 107.57 48.901 106.565 50.1362 106.565C51.3719 106.565 52.3769 107.57 52.3769 108.806C52.3769 110.042 51.3719 111.047 50.1362 111.047Z" fill="#61619B"/>
<path d="M58.5523 61.0196C58.209 65.6926 55.1393 69.2755 51.6952 69.0225C48.2516 68.7696 45.7379 64.7761 46.0812 60.1031C46.4245 55.4296 49.4941 51.8467 52.9383 52.0997C56.3819 52.3526 58.8956 56.3461 58.5523 61.0196Z" fill="#000072"/>
<path d="M56.6635 59.2825C56.5275 61.1382 55.478 62.5733 54.3201 62.4886C53.1622 62.4034 52.3338 60.8303 52.4703 58.9745C52.6062 57.1188 53.6557 55.6837 54.8136 55.7689C55.9716 55.8541 56.7999 57.4273 56.6635 59.2825Z" fill="white"/>
<path d="M50.1302 65.9102C49.6086 65.9102 48.9538 65.218 48.5829 64.2296C48.1656 63.1168 48.2666 62.0494 48.8093 61.8462C48.8696 61.8235 48.9336 61.8124 48.9992 61.8124C49.5213 61.8124 50.1762 62.5045 50.547 63.493C50.9644 64.6058 50.8628 65.6731 50.3206 65.8763C50.2598 65.899 50.1963 65.9102 50.1302 65.9102Z" fill="#5959A3"/>
<path d="M81.9751 61.0196C82.3184 65.6926 85.3886 69.2755 88.8322 69.0225C92.2759 68.7696 94.7896 64.7761 94.4463 60.1031C94.1035 55.4296 91.0333 51.8467 87.5897 52.0997C84.1455 52.3526 81.6324 56.3461 81.9751 61.0196Z" fill="#000072"/>
<path d="M83.8638 59.2825C84.0003 61.1382 85.0493 62.5733 86.2072 62.4886C87.3656 62.4034 88.1935 60.8303 88.0576 58.9745C87.9211 57.1188 86.8721 55.6837 85.7142 55.7689C84.5557 55.8541 83.7274 57.4273 83.8638 59.2825Z" fill="white"/>
<path d="M90.3977 65.9102C90.3321 65.9102 90.2681 65.899 90.2073 65.8763C89.6651 65.6731 89.5641 64.6058 89.9814 63.493C90.3517 62.5045 91.0071 61.8124 91.5287 61.8124C91.5948 61.8124 91.6583 61.8235 91.7191 61.8462C92.2613 62.0494 92.3623 63.1168 91.945 64.2296C91.5747 65.218 90.9193 65.9102 90.3977 65.9102Z" fill="#5959A3"/>
<path d="M33.1575 135.319C33.4807 137.263 32.5741 139.034 31.1321 139.274C29.6901 139.513 28.2592 138.133 27.9355 136.189C27.6123 134.246 28.519 132.475 29.9609 132.235C31.4029 131.995 32.8338 133.376 33.1575 135.319Z" fill="#FF9499"/>
<path d="M33.1313 130.676C33.1149 131.335 32.706 131.86 32.2172 131.847C31.7284 131.835 31.3454 131.292 31.3618 130.633C31.3777 129.975 31.7871 129.45 32.2754 129.463C32.7642 129.474 33.1471 130.018 33.1313 130.676Z" fill="#FF9499"/>
<path d="M30.6056 129.8C30.6871 130.719 30.2004 131.514 29.5186 131.574C28.8368 131.635 28.2178 130.939 28.1359 130.02C28.0544 129.101 28.5411 128.306 29.2229 128.246C29.9053 128.185 30.5242 128.881 30.6056 129.8Z" fill="#FF9499"/>
<path d="M28.1054 131.798C28.2885 132.439 28.0515 133.068 27.5759 133.204C27.1009 133.34 26.5666 132.931 26.3836 132.29C26.2006 131.649 26.4376 131.02 26.9131 130.884C27.3887 130.748 27.9224 131.157 28.1054 131.798Z" fill="#FF9499"/>
<path d="M107.981 135.319C107.657 137.263 108.565 139.034 110.007 139.274C111.448 139.513 112.879 138.133 113.203 136.189C113.526 134.246 112.62 132.475 111.178 132.235C109.736 131.995 108.305 133.376 107.981 135.319Z" fill="#FF9499"/>
<path d="M108.008 130.676C108.024 131.335 108.433 131.86 108.922 131.847C109.411 131.835 109.794 131.292 109.777 130.633C109.761 129.975 109.352 129.45 108.863 129.463C108.375 129.474 107.992 130.018 108.008 130.676Z" fill="#FF9499"/>
<path d="M110.532 129.8C110.451 130.719 110.938 131.514 111.619 131.574C112.301 131.635 112.92 130.939 113.002 130.02C113.084 129.101 112.597 128.306 111.915 128.246C111.233 128.185 110.614 128.881 110.532 129.8Z" fill="#FF9499"/>
<path d="M113.033 131.798C112.85 132.439 113.087 133.068 113.563 133.204C114.038 133.34 114.572 132.931 114.755 132.29C114.938 131.649 114.701 131.02 114.225 130.884C113.75 130.748 113.216 131.157 113.033 131.798Z" fill="#FF9499"/>
<path d="M121.39 41.5875C120.117 39.3619 119.533 36.7177 119.894 33.9793C120.771 27.3326 126.868 22.6549 133.512 23.5317C140.157 24.4085 144.832 30.5076 143.956 37.1543C143.079 43.801 136.983 48.4782 130.338 47.6014C128.49 47.3574 126.795 46.7087 125.329 45.7573L119.679 46.8547L121.39 41.5875Z" fill="white"/>
<path d="M142.923 33.457C141.363 29.4767 137.745 26.4431 133.208 25.8441C132.669 25.7732 132.134 25.7388 131.605 25.7388C127.678 25.7388 124.088 27.6459 121.851 30.6774C123.694 26.8823 127.589 24.3635 131.918 24.3635C132.404 24.3635 132.896 24.3953 133.39 24.4609C138.29 25.107 142.037 28.8492 142.923 33.457Z" fill="white"/>
<path d="M125.522 44.766L125.84 44.9719C127.241 45.881 128.796 46.4535 130.461 46.6731C136.582 47.4811 142.218 43.1563 143.026 37.034C143.833 30.9112 139.51 25.273 133.389 24.4655C127.269 23.6575 121.633 27.9818 120.825 34.1046C120.502 36.5541 120.979 38.9813 122.205 41.1239L122.411 41.4847L121.064 45.6317L125.522 44.766ZM131.935 48.6484C131.367 48.6484 130.793 48.6114 130.215 48.5352C128.399 48.2955 126.695 47.696 125.144 46.7525L118.294 48.0828L120.371 41.6869C119.092 39.2771 118.605 36.58 118.964 33.8586C119.907 26.7092 126.488 21.66 133.635 22.6034C140.782 23.5464 145.83 30.1301 144.887 37.2796C144.02 43.8511 138.389 48.6484 131.935 48.6484Z" fill="#000072"/>
<path d="M131.933 46.7695C131.447 46.7695 130.956 46.7378 130.461 46.6727C128.795 46.4531 127.24 45.8805 125.84 44.9715L125.522 44.7656L121.064 45.6313L122.184 42.1823C124.583 44.0137 127.557 45.0667 130.683 45.0667C131.673 45.0667 132.678 44.9609 133.686 44.7408C137.711 43.8613 140.949 41.333 142.85 38.0194C141.708 43.1348 137.133 46.7695 131.933 46.7695Z" fill="#D9D9EA"/>
<path d="M131.94 47.707C131.412 47.707 130.877 47.6726 130.338 47.6012C128.49 47.3573 126.795 46.7085 125.329 45.7571L119.679 46.8546L121.39 41.5874C121.367 41.5482 121.347 41.508 121.325 41.4688C121.602 41.7175 121.889 41.9546 122.184 42.18L121.064 45.629L125.522 44.7633L125.84 44.9692C127.24 45.8783 128.796 46.4508 130.461 46.6704C130.956 46.7355 131.447 46.7673 131.933 46.7673C137.133 46.7673 141.708 43.1325 142.85 38.0172C143.348 37.152 143.753 36.2323 144.058 35.2745C144.072 35.8937 144.04 36.5212 143.956 37.1541C143.151 43.2621 137.937 47.707 131.94 47.707Z" fill="#000072"/>
<path d="M128.039 32.1547C129.089 31.1038 130.792 31.2921 131.842 32.3425L132.006 32.506L132.169 32.3425C133.219 31.2921 134.922 31.1038 135.972 32.1547C137.022 33.205 137.022 34.9084 135.972 35.9588L135.808 36.1223L132.507 39.4253C132.23 39.702 131.781 39.702 131.504 39.4253L128.203 36.1223L128.039 35.9588C126.989 34.9084 126.989 33.205 128.039 32.1547Z" fill="#FF0068"/>
</svg>
