<svg width="180" height="180" viewBox="0 0 180 180" fill="none" xmlns="http://www.w3.org/2000/svg">
<path d="M180 90C180 95.7427 172.045 100.685 170.962 106.098C169.833 111.7 175.293 119.278 173.175 124.456C171.009 129.728 161.783 131.187 158.63 135.847C155.476 140.554 157.594 149.639 153.64 153.64C149.639 157.641 140.554 155.476 135.847 158.63C131.187 161.736 129.681 170.962 124.456 173.175C119.278 175.293 111.747 169.88 106.098 170.962C100.638 172.045 95.7427 180 90 180C84.2573 180 79.3148 172.045 73.9017 170.962C68.3002 169.833 60.7218 175.293 55.5439 173.175C50.272 171.009 48.8128 161.783 44.1527 158.63C39.4456 155.476 30.3609 157.594 26.3598 153.64C22.3588 149.639 24.5241 140.554 21.3703 135.847C18.2636 131.187 9.03766 129.681 6.82531 124.456C4.70711 119.278 10.1203 111.747 9.03766 106.098C7.95503 100.638 0 95.7427 0 90C0 84.2573 7.95503 79.3148 9.03766 73.9017C10.1674 68.3002 4.70711 60.7218 6.82531 55.5439C8.99059 50.272 18.2165 48.8128 21.3703 44.1527C24.5241 39.4456 22.4059 30.3609 26.3598 26.3598C30.3609 22.3588 39.4456 24.5241 44.1527 21.3703C48.8128 18.2636 50.319 9.03766 55.5439 6.82531C60.7218 4.70711 68.2531 10.1203 73.9017 9.03765C79.3619 7.95501 84.2573 0 90 0C95.7427 0 100.685 7.95501 106.098 9.03765C111.7 10.1674 119.278 4.70711 124.456 6.82531C129.728 8.99059 131.187 18.2165 135.847 21.3703C140.554 24.5241 149.639 22.4059 153.64 26.3598C157.641 30.3609 155.476 39.4456 158.63 44.1527C161.736 48.8128 170.962 50.319 173.175 55.5439C175.293 60.7218 169.88 68.2531 170.962 73.9017C172.045 79.3619 180 84.2573 180 90Z" fill="#7DADFE"/>
<g clip-path="url(#clip0_16154_2876)">
<path d="M86.6665 81.3359H98.6665V93.3359" stroke="white" stroke-width="2" stroke-linecap="round" stroke-linejoin="round"/>
<path d="M81.6963 98.3065L98.6668 81.3359" stroke="white" stroke-width="2" stroke-linecap="round" stroke-linejoin="round"/>
</g>
<path d="M38.9563 80.8319L25.987 77.6013L27.9438 69.7456L29.6113 70.1609L28.1067 76.201L32.1828 77.2163L33.4935 71.9544L35.161 72.3698L33.8503 77.6316L39.4086 79.0162L38.9563 80.8319ZM41.5852 71.1127L32.7604 67.4706L33.4524 65.7939L42.2773 69.436L41.5852 71.1127ZM31.2391 65.8513C31.1274 66.1219 30.9303 66.316 30.6477 66.4334C30.3534 66.5461 30.0709 66.5465 29.8002 66.4348C29.5178 66.3183 29.3238 66.1211 29.2181 65.8434C29.1006 65.5608 29.0977 65.2842 29.2094 65.0136C29.326 64.7312 29.5231 64.5371 29.8008 64.4314C30.0716 64.3091 30.3483 64.3062 30.6306 64.4227C30.9013 64.5344 31.1012 64.734 31.2305 65.0215C31.3528 65.2923 31.3557 65.5689 31.2391 65.8513ZM43.4556 67.0623L35.2556 62.1731L36.1259 60.7135L37.6933 61.5147L44.3845 65.5043L43.4556 67.0623ZM46.8389 61.3879L42.6405 58.8846L43.5694 57.3266L47.7678 59.8299L46.8389 61.3879ZM42.6405 58.8846C41.897 58.4413 41.2818 58.1931 40.7948 58.1398C40.3035 58.0692 39.89 58.1413 39.5544 58.3561C39.2253 58.5601 38.938 58.8556 38.6923 59.2427C38.2947 59.9096 38.2201 60.5691 38.4686 61.2211C38.7171 61.8732 39.2677 62.4534 40.1205 62.9619L39.7196 63.6343C38.8559 63.1193 38.1929 62.5535 37.7305 61.937C37.2638 61.303 37.0066 60.6532 36.9589 59.9875C36.9177 59.3109 37.0927 58.6446 37.4838 57.9886C37.8684 57.3435 38.3321 56.8641 38.8748 56.5504C39.424 56.2258 40.0524 56.104 40.76 56.185C41.4631 56.2486 42.2629 56.5476 43.1594 57.0822L43.5694 57.3266L42.6405 58.8846ZM53.8904 52.9209L52.5366 51.7694L44.0389 43.888L45.2594 42.572L55.059 51.661L53.8904 52.9209ZM51.8771 55.4287C51.2885 56.0633 50.6195 56.4758 49.87 56.6661C49.1292 56.8471 48.358 56.8176 47.5563 56.5775C46.7633 56.3281 46.0028 55.8659 45.2748 55.1907C44.5375 54.5069 44.0194 53.7833 43.7204 53.0199C43.4208 52.2385 43.3334 51.4717 43.4582 50.7194C43.5917 49.9577 43.9527 49.2596 44.5414 48.6249C45.0867 48.037 45.7124 47.6711 46.4186 47.5275C47.1334 47.3745 47.8744 47.4367 48.6414 47.7141C49.3991 47.9828 50.1467 48.4591 50.884 49.1429C51.6119 49.8181 52.1431 50.5277 52.4773 51.2717C52.8115 52.0158 52.9292 52.7499 52.8304 53.4742C52.7402 54.1892 52.4224 54.8407 51.8771 55.4287ZM50.9588 54.004C51.3224 53.612 51.54 53.1715 51.6116 52.6824C51.674 52.1847 51.6011 51.683 51.3929 51.1774C51.1754 50.6632 50.8239 50.181 50.3386 49.7309C49.8533 49.2808 49.3508 48.9709 48.831 48.8013C48.3018 48.6231 47.7961 48.588 47.3138 48.6963C46.8221 48.7958 46.3902 49.0463 46.018 49.4476C45.6371 49.8582 45.4069 50.3218 45.3272 50.8382C45.2382 51.346 45.2982 51.8616 45.507 52.3852C45.7065 52.9001 46.049 53.3826 46.5343 53.8327C47.0196 54.2829 47.5311 54.5924 48.0689 54.7613C48.606 54.9122 49.1291 54.9286 49.638 54.8103C50.1377 54.6834 50.5779 54.4147 50.9588 54.004ZM65.6878 44.2472L64.7796 42.8543L63.0946 39.9909C62.7395 39.3875 62.3713 38.9248 61.9898 38.6029C61.6193 38.2744 61.2301 38.0899 60.8222 38.0493C60.4253 38.0022 59.9964 38.1143 59.5356 38.3854C59.1078 38.6372 58.7864 38.9444 58.5716 39.3072C58.3677 39.6635 58.2712 40.0895 58.2823 40.5851L56.5901 40.8719C56.5681 40.3827 56.6213 39.9084 56.7496 39.4488C56.8715 38.9783 57.0925 38.5381 57.4126 38.1282C57.7262 37.7074 58.1627 37.3323 58.7222 37.0031C59.5011 36.5447 60.2388 36.3174 60.9352 36.3212C61.6316 36.325 62.277 36.5433 62.8715 36.9763C63.4769 37.4028 64.0259 38.0472 64.5185 38.9093L67.136 43.3951L65.6878 44.2472ZM63.385 45.8682C62.4086 46.4428 61.517 46.672 60.7103 46.556C59.908 46.4225 59.2745 45.9608 58.8097 45.1709C58.3126 44.3262 58.2147 43.5198 58.516 42.7517C58.8217 41.9662 59.4793 41.2765 60.4886 40.6826L62.776 39.3365L63.5023 40.5708L61.6427 41.665C60.8857 42.1104 60.4247 42.5442 60.2595 42.9663C60.0879 43.3775 60.1248 43.7915 60.3701 44.2084C60.596 44.5924 60.9162 44.8101 61.3305 44.8617C61.7494 44.8958 62.2167 44.7612 62.7323 44.4578C63.1821 44.1931 63.5167 43.8707 63.736 43.4905C63.949 43.0994 64.0454 42.6734 64.0253 42.2126C64.0052 41.7518 63.8628 41.2964 63.5982 40.8466L64.1412 40.5271C64.7997 41.6461 65.0812 42.6768 64.9859 43.6191C64.895 44.5439 64.3614 45.2936 63.385 45.8682ZM73.986 40.7267L71.0794 27.6808L75.105 26.7839C76.3474 26.5071 77.5093 26.5417 78.5906 26.8877C79.6815 27.2184 80.6096 27.8137 81.375 28.6734C82.1404 29.5332 82.6656 30.6029 82.9507 31.8826C83.2331 33.1499 83.2102 34.3353 82.8823 35.4386C82.5543 36.542 81.968 37.4811 81.1234 38.2562C80.2913 39.0284 79.254 39.553 78.0116 39.8298L73.986 40.7267ZM75.4304 38.6051L77.6295 38.1152C78.2632 37.974 78.8271 37.7245 79.3212 37.3666C79.8125 36.9963 80.2147 36.5481 80.5278 36.0219C80.8506 35.4805 81.0588 34.8929 81.1523 34.2591C81.2583 33.6225 81.2365 32.9688 81.087 32.2979C80.9375 31.6269 80.6797 31.0258 80.3136 30.4944C79.9598 29.9603 79.5233 29.5229 79.0039 29.1821C78.4943 28.8262 77.9398 28.5911 77.3405 28.4768C76.7385 28.3501 76.1206 28.3574 75.487 28.4985L73.2878 28.9885L75.4304 38.6051ZM92.2979 38.2325L92.2213 36.5714L92.2208 33.249C92.2207 32.5489 92.1379 31.9634 91.9723 31.4924C91.8195 31.0215 91.5776 30.6651 91.2466 30.4233C90.9283 30.1815 90.5019 30.0606 89.9673 30.0607C89.4708 30.0608 89.038 30.1627 88.6689 30.3664C88.3125 30.5701 88.0134 30.8884 87.7716 31.3212L86.1677 30.7104C86.3967 30.2776 86.6831 29.8957 87.0267 29.5647C87.3704 29.2209 87.784 28.9536 88.2677 28.7626C88.7514 28.5588 89.3178 28.4569 89.967 28.4568C90.8708 28.4567 91.6218 28.6348 92.2202 28.9911C92.8185 29.3474 93.2641 29.8629 93.557 30.5375C93.8626 31.2121 94.0091 32.0458 93.9965 33.0387L93.9782 38.2323L92.2979 38.2325ZM89.4912 38.4621C88.3583 38.4622 87.4735 38.2078 86.837 37.6987C86.2132 37.1769 85.9012 36.4577 85.9011 35.5412C85.9009 34.5611 86.2254 33.8164 86.8745 33.3071C87.5364 32.7851 88.4528 32.524 89.6239 32.5238L92.278 32.5234L92.2782 33.9555L90.1206 33.9558C89.2423 33.9559 88.6249 34.0961 88.2685 34.3762C87.9122 34.6435 87.734 35.0191 87.7341 35.5028C87.7342 35.9483 87.8997 36.2983 88.2307 36.5529C88.5744 36.7947 89.0454 36.9155 89.6437 36.9154C90.1656 36.9153 90.6175 36.8071 90.9993 36.5906C91.3811 36.3614 91.6802 36.0432 91.8966 35.6358C92.1129 35.2284 92.221 34.7638 92.221 34.2419L92.851 34.2418C92.8512 35.5402 92.5714 36.5713 92.0114 37.3351C91.4641 38.0862 90.6241 38.4619 89.4912 38.4621ZM96.4583 42.6641C96.1833 42.6114 95.8866 42.5027 95.5682 42.338C95.2623 42.1757 94.9499 41.9797 94.631 41.7501L95.5677 40.4132C95.8188 40.5909 96.0383 40.7302 96.2264 40.831C96.4269 40.9343 96.5897 40.9979 96.7147 41.0218C97.0273 41.0817 97.3066 41.0446 97.5527 40.9103C97.8112 40.7784 98.0392 40.5693 98.2367 40.2831L99.8167 37.9225L104.718 30.4049L106.631 30.7715L100.167 40.4586C99.8189 40.9882 99.473 41.4403 99.129 41.8151C98.785 42.1898 98.3976 42.4525 97.967 42.6033C97.5488 42.7564 97.0459 42.7767 96.4583 42.6641ZM99.0955 39.048L96.7857 28.8846L98.6797 29.2476L100.514 38.0367L100.821 39.3786L99.0955 39.048ZM109.824 42.4517C108.94 42.0919 108.235 41.5784 107.71 40.9111C107.189 40.232 106.875 39.4655 106.769 38.6116C106.675 37.7624 106.812 36.8839 107.182 35.976C107.551 35.0681 108.066 34.343 108.726 33.8008C109.398 33.2634 110.149 32.9369 110.98 32.8212C111.827 32.6985 112.687 32.8146 113.559 33.1695C114.42 33.5197 115.111 34.0343 115.631 34.7134C116.164 35.3973 116.45 36.1802 116.49 37.0621L114.71 37.0801C114.663 36.5527 114.478 36.0788 114.154 35.6586C113.842 35.2431 113.415 34.925 112.873 34.7044C112.342 34.4885 111.818 34.4264 111.3 34.5179C110.781 34.6094 110.309 34.8431 109.881 35.2188C109.458 35.5827 109.124 36.0653 108.88 36.6667C108.635 37.268 108.537 37.8466 108.586 38.4023C108.635 38.9581 108.816 39.4579 109.13 39.9018C109.449 40.3339 109.874 40.6578 110.405 40.8737C110.947 41.0943 111.485 41.1554 112.02 41.0568C112.56 40.9465 113.032 40.6987 113.436 40.3134L114.723 41.5584C114.064 42.1975 113.298 42.5937 112.425 42.747C111.564 42.905 110.697 42.8066 109.824 42.4517ZM120.231 47.9286L121.08 46.4986L122.905 43.7223C123.289 43.1373 123.542 42.6025 123.662 42.1181C123.793 41.6406 123.787 41.2099 123.643 40.826C123.51 40.4491 123.22 40.1138 122.773 39.8202C122.358 39.5475 121.941 39.3948 121.521 39.3623C121.111 39.3367 120.686 39.4383 120.246 39.6671L119.242 38.2755C119.671 38.0397 120.12 37.8779 120.589 37.7902C121.065 37.6918 121.557 37.6956 122.066 37.8018C122.583 37.8973 123.112 38.1233 123.654 38.4799C124.41 38.9763 124.939 39.5378 125.243 40.1642C125.548 40.7907 125.637 41.4662 125.511 42.1908C125.395 42.9224 125.06 43.6995 124.504 44.5222L121.635 48.8516L120.231 47.9286ZM117.76 46.5784C116.813 45.9561 116.214 45.2574 115.961 44.4823C115.727 43.7036 115.861 42.9313 116.365 42.1654C116.903 41.3464 117.583 40.9024 118.406 40.8335C119.245 40.761 120.155 41.0464 121.133 41.6896L123.351 43.1475L122.564 44.3441L120.761 43.159C120.027 42.6765 119.435 42.4544 118.983 42.4927C118.538 42.5203 118.183 42.7362 117.917 43.1404C117.673 43.5127 117.619 43.8961 117.755 44.2906C117.91 44.6815 118.237 45.0413 118.737 45.3699C119.173 45.6565 119.61 45.8143 120.048 45.8433C120.493 45.8616 120.918 45.76 121.322 45.5384C121.727 45.3169 122.072 44.9881 122.359 44.552L122.886 44.8981C122.173 45.9831 121.372 46.6908 120.485 47.0214C119.615 47.3483 118.706 47.2007 117.76 46.5784ZM127.704 47.2173C128.399 46.4556 129.111 45.968 129.84 45.7544C130.569 45.5408 131.272 45.5267 131.947 45.712C132.622 45.8973 133.214 46.2216 133.721 46.6849L132.563 47.9544C132.14 47.5683 131.676 47.2652 131.17 47.0451C130.682 46.8241 130.183 46.7479 129.673 46.8163C129.18 46.8839 128.711 47.1622 128.265 47.6512L127.704 47.2173ZM123.424 50.2651L129.859 43.2126L131.199 44.4352L124.764 51.4877L123.424 50.2651ZM130.619 58.344C130.044 57.6143 129.701 56.8395 129.589 56.0196C129.488 55.1919 129.606 54.3856 129.943 53.6007C130.281 52.8159 130.835 52.1201 131.605 51.5133C132.374 50.9065 133.18 50.5305 134.022 50.3855C134.864 50.2404 135.671 50.3178 136.442 50.6175C137.231 50.9194 137.913 51.4352 138.488 52.165C139.032 52.8547 139.334 53.5974 139.394 54.3931C139.464 55.1808 139.293 55.9718 138.882 56.7661C138.488 57.5624 137.862 58.2995 137.002 58.9772L132.227 52.9193L132.664 53.0119C132.135 53.4295 131.757 53.897 131.533 54.4143C131.309 54.9315 131.233 55.4529 131.307 55.9782C131.391 56.4957 131.614 56.9844 131.977 57.4442C132.371 57.944 132.813 58.2683 133.303 58.4169C133.81 58.5677 134.319 58.5962 134.829 58.5024L135.228 60.1812C134.681 60.2886 134.131 60.3005 133.579 60.2171C133.037 60.1257 132.512 59.9231 132.006 59.6094C131.507 59.3056 131.045 58.8838 130.619 58.344ZM133.41 52.5699L133.41 52.1077L137.146 56.8461L136.708 56.7535C137.148 56.4067 137.452 56.0213 137.62 55.597C137.798 55.1649 137.849 54.7359 137.772 54.3099C137.706 53.876 137.527 53.4741 137.235 53.1043C136.951 52.7444 136.591 52.4615 136.153 52.2556C135.733 52.0518 135.281 51.9621 134.798 51.9864C134.322 52.0208 133.86 52.2153 133.41 52.5699ZM144.63 75.4003L147.351 68.9646L148.817 69.5583L145.927 76.6013L144.63 75.4003ZM141.231 65.7066L142.724 65.1766L146.236 75.0735L144.743 75.6035L141.231 65.7066ZM139.286 72.9004L140.05 71.5148L146.214 74.8384L145.927 76.6013L139.286 72.9004Z" fill="white"/>
<path d="M141.044 99.1681L154.013 102.399L152.056 110.254L150.389 109.839L151.893 103.799L147.817 102.784L146.506 108.046L144.839 107.63L146.15 102.368L140.591 100.984L141.044 99.1681ZM138.415 108.887L147.24 112.529L146.548 114.206L137.723 110.564L138.415 108.887ZM148.761 114.149C148.873 113.878 149.07 113.684 149.352 113.567C149.647 113.454 149.929 113.453 150.2 113.565C150.482 113.682 150.676 113.879 150.782 114.157C150.899 114.439 150.902 114.716 150.791 114.986C150.674 115.269 150.477 115.463 150.199 115.569C149.928 115.691 149.652 115.694 149.369 115.577C149.099 115.466 148.899 115.266 148.77 114.979C148.647 114.708 148.644 114.431 148.761 114.149ZM136.544 112.938L144.744 117.827L143.874 119.287L142.307 118.485L135.615 114.496L136.544 112.938ZM133.161 118.612L137.36 121.115L136.431 122.673L132.232 120.17L133.161 118.612ZM137.36 121.115C138.103 121.559 138.718 121.807 139.205 121.86C139.697 121.931 140.11 121.859 140.446 121.644C140.775 121.44 141.062 121.144 141.308 120.757C141.705 120.09 141.78 119.431 141.531 118.779C141.283 118.127 140.732 117.547 139.879 117.038L140.28 116.366C141.144 116.881 141.807 117.446 142.269 118.063C142.736 118.697 142.993 119.347 143.041 120.012C143.082 120.689 142.907 121.355 142.516 122.011C142.132 122.657 141.668 123.136 141.125 123.45C140.576 123.774 139.948 123.896 139.24 123.815C138.537 123.751 137.737 123.452 136.841 122.918L136.431 122.673L137.36 121.115ZM126.11 127.079L127.463 128.231L135.961 136.112L134.741 137.428L124.941 128.339L126.11 127.079ZM128.123 124.571C128.712 123.937 129.381 123.524 130.13 123.334C130.871 123.153 131.642 123.182 132.444 123.422C133.237 123.672 133.997 124.134 134.725 124.809C135.463 125.493 135.981 126.217 136.28 126.98C136.579 127.761 136.667 128.528 136.542 129.281C136.408 130.042 136.047 130.74 135.459 131.375C134.913 131.963 134.288 132.329 133.581 132.473C132.867 132.626 132.126 132.563 131.359 132.286C130.601 132.017 129.853 131.541 129.116 130.857C128.388 130.182 127.857 129.472 127.523 128.728C127.188 127.984 127.071 127.25 127.17 126.526C127.26 125.811 127.578 125.159 128.123 124.571ZM129.041 125.996C128.678 126.388 128.46 126.828 128.388 127.318C128.326 127.815 128.399 128.317 128.607 128.823C128.825 129.337 129.176 129.819 129.661 130.269C130.147 130.719 130.649 131.029 131.169 131.199C131.698 131.377 132.204 131.412 132.686 131.304C133.178 131.204 133.61 130.954 133.982 130.552C134.363 130.142 134.593 129.678 134.673 129.162C134.762 128.654 134.702 128.138 134.493 127.615C134.293 127.1 133.951 126.617 133.466 126.167C132.98 125.717 132.469 125.408 131.931 125.239C131.394 125.088 130.871 125.071 130.362 125.19C129.862 125.317 129.422 125.585 129.041 125.996ZM114.312 135.753L115.22 137.146L116.905 140.009C117.26 140.612 117.629 141.075 118.01 141.397C118.381 141.726 118.77 141.91 119.178 141.951C119.575 141.998 120.004 141.886 120.464 141.615C120.892 141.363 121.214 141.056 121.428 140.693C121.632 140.337 121.729 139.911 121.718 139.415L123.41 139.128C123.432 139.617 123.379 140.092 123.25 140.551C123.128 141.022 122.907 141.462 122.587 141.872C122.274 142.293 121.837 142.668 121.278 142.997C120.499 143.455 119.761 143.683 119.065 143.679C118.368 143.675 117.723 143.457 117.129 143.024C116.523 142.597 115.974 141.953 115.481 141.091L112.864 136.605L114.312 135.753ZM116.615 134.132C117.591 133.557 118.483 133.328 119.29 133.444C120.092 133.578 120.726 134.039 121.19 134.829C121.687 135.674 121.785 136.48 121.484 137.248C121.178 138.034 120.521 138.724 119.511 139.317L117.224 140.663L116.498 139.429L118.357 138.335C119.114 137.89 119.575 137.456 119.74 137.034C119.912 136.623 119.875 136.209 119.63 135.792C119.404 135.408 119.084 135.19 118.669 135.138C118.251 135.104 117.783 135.239 117.268 135.542C116.818 135.807 116.483 136.129 116.264 136.51C116.051 136.901 115.955 137.327 115.975 137.787C115.995 138.248 116.137 138.704 116.402 139.153L115.859 139.473C115.2 138.354 114.919 137.323 115.014 136.381C115.105 135.456 115.639 134.706 116.615 134.132ZM106.014 139.273L108.921 152.319L104.895 153.216C103.653 153.493 102.491 153.458 101.409 153.112C100.319 152.782 99.3904 152.186 98.625 151.327C97.8596 150.467 97.3344 149.397 97.0493 148.117C96.7669 146.85 96.7898 145.665 97.1177 144.561C97.4457 143.458 98.032 142.519 98.8766 141.744C99.7087 140.972 100.746 140.447 101.988 140.17L106.014 139.273ZM104.57 141.395L102.37 141.885C101.737 142.026 101.173 142.276 100.679 142.633C100.188 143.004 99.7853 143.452 99.4722 143.978C99.1494 144.52 98.9412 145.107 98.8477 145.741C98.7417 146.377 98.7635 147.031 98.913 147.702C99.0625 148.373 99.3203 148.974 99.6864 149.506C100.04 150.04 100.477 150.477 100.996 150.818C101.506 151.174 102.06 151.409 102.659 151.523C103.262 151.65 103.879 151.643 104.513 151.501L106.712 151.011L104.57 141.395ZM87.7021 141.767L87.7787 143.429L87.7792 146.751C87.7793 147.451 87.8621 148.037 88.0277 148.508C88.1805 148.979 88.4224 149.335 88.7534 149.577C89.0717 149.819 89.4981 149.939 90.0327 149.939C90.5292 149.939 90.962 149.837 91.3311 149.634C91.6875 149.43 91.9866 149.112 92.2284 148.679L93.8323 149.29C93.6033 149.722 93.3169 150.104 92.9733 150.435C92.6296 150.779 92.216 151.046 91.7323 151.237C91.2486 151.441 90.6822 151.543 90.033 151.543C89.1292 151.543 88.3782 151.365 87.7798 151.009C87.1815 150.653 86.7359 150.137 86.443 149.463C86.1374 148.788 85.9909 147.954 86.0035 146.961L86.0218 141.768L87.7021 141.767ZM90.5088 141.538C91.6417 141.538 92.5265 141.792 93.163 142.301C93.7868 142.823 94.0988 143.542 94.0989 144.459C94.0991 145.439 93.7746 146.184 93.1255 146.693C92.4636 147.215 91.5472 147.476 90.3761 147.476L87.722 147.477L87.7218 146.045L89.8794 146.044C90.7577 146.044 91.3751 145.904 91.7315 145.624C92.0878 145.356 92.266 144.981 92.2659 144.497C92.2658 144.052 92.1003 143.702 91.7693 143.447C91.4256 143.205 90.9546 143.084 90.3563 143.085C89.8344 143.085 89.3825 143.193 89.0007 143.409C88.6189 143.639 88.3198 143.957 88.1034 144.364C87.8871 144.772 87.779 145.236 87.779 145.758L87.149 145.758C87.1488 144.46 87.4286 143.429 87.9886 142.665C88.5359 141.914 89.3759 141.538 90.5088 141.538ZM83.5417 137.336C83.8167 137.389 84.1134 137.497 84.4318 137.662C84.7377 137.824 85.0501 138.02 85.369 138.25L84.4323 139.587C84.1812 139.409 83.9617 139.27 83.7736 139.169C83.5731 139.066 83.4103 139.002 83.2853 138.978C82.9727 138.918 82.6934 138.955 82.4473 139.09C82.1888 139.222 81.9608 139.431 81.7633 139.717L80.1833 142.078L75.282 149.595L73.3692 149.229L79.8334 139.541C80.1811 139.012 80.527 138.56 80.871 138.185C81.215 137.81 81.6024 137.547 82.033 137.397C82.4512 137.244 82.9541 137.223 83.5417 137.336ZM80.9045 140.952L83.2143 151.115L81.3203 150.752L79.4859 141.963L79.1793 140.621L80.9045 140.952ZM70.1756 137.548C71.0599 137.908 71.7649 138.422 72.2904 139.089C72.8112 139.768 73.1247 140.534 73.2308 141.388C73.3251 142.238 73.1876 143.116 72.8183 144.024C72.449 144.932 71.9342 145.657 71.2739 146.199C70.6018 146.737 69.8506 147.063 69.0202 147.179C68.1732 147.302 67.3135 147.185 66.4409 146.83C65.5802 146.48 64.8894 145.966 64.3686 145.287C63.836 144.603 63.5499 143.82 63.5101 142.938L65.2901 142.92C65.3367 143.447 65.5219 143.921 65.8456 144.341C66.1576 144.757 66.5847 145.075 67.1271 145.296C67.6577 145.511 68.1821 145.574 68.7003 145.482C69.2185 145.391 69.6915 145.157 70.1192 144.781C70.542 144.417 70.8758 143.935 71.1204 143.333C71.365 142.732 71.463 142.153 71.4142 141.598C71.3654 141.042 71.184 140.542 70.8698 140.098C70.5509 139.666 70.1261 139.342 69.5955 139.126C69.0531 138.906 68.5145 138.845 67.9797 138.943C67.4401 139.053 66.9683 139.301 66.5642 139.687L65.2773 138.442C65.9358 137.803 66.7016 137.406 67.5747 137.253C68.4361 137.095 69.303 137.193 70.1756 137.548ZM59.769 132.071L58.9204 133.501L57.0955 136.278C56.7109 136.863 56.4584 137.397 56.338 137.882C56.2069 138.359 56.2133 138.79 56.357 139.174C56.49 139.551 56.78 139.886 57.2267 140.18C57.6416 140.453 58.0591 140.605 58.4795 140.638C58.8892 140.663 59.314 140.562 59.7538 140.333L60.7584 141.724C60.3292 141.96 59.8802 142.122 59.4112 142.21C58.9352 142.308 58.4427 142.304 57.9336 142.198C57.4175 142.103 56.8882 141.877 56.3457 141.52C55.5905 141.024 55.0608 140.462 54.7566 139.836C54.4525 139.209 54.3634 138.534 54.4893 137.809C54.6046 137.078 54.9402 136.301 55.4962 135.478L58.3649 131.148L59.769 132.071ZM62.2403 133.422C63.187 134.044 63.7864 134.743 64.0386 135.518C64.2731 136.296 64.1387 137.069 63.6353 137.835C63.0969 138.654 62.4166 139.098 61.5945 139.166C60.7547 139.239 59.8455 138.954 58.8669 138.31L56.6491 136.853L57.4357 135.656L59.2386 136.841C59.9726 137.323 60.5654 137.546 61.017 137.507C61.4617 137.48 61.8169 137.264 62.0826 136.86C62.3273 136.487 62.3813 136.104 62.2446 135.709C62.0902 135.319 61.7631 134.959 61.2631 134.63C60.827 134.343 60.39 134.186 59.952 134.157C59.507 134.138 59.0823 134.24 58.6777 134.462C58.2731 134.683 57.9275 135.012 57.6408 135.448L57.1143 135.102C57.8275 134.017 58.6279 133.309 59.5154 132.979C60.3853 132.652 61.2936 132.799 62.2403 133.422ZM52.2957 132.783C51.6008 133.544 50.8888 134.032 50.1597 134.246C49.4307 134.459 48.7285 134.473 48.0532 134.288C47.378 134.103 46.7865 133.778 46.2787 133.315L47.4369 132.046C47.8601 132.432 48.3245 132.735 48.8301 132.955C49.3178 133.176 49.8169 133.252 50.3273 133.184C50.8198 133.116 51.2891 132.838 51.7353 132.349L52.2957 132.783ZM56.5757 129.735L50.141 136.787L48.801 135.565L55.2358 128.512L56.5757 129.735ZM49.3808 121.656C49.9561 122.386 50.2994 123.161 50.4108 123.98C50.5122 124.808 50.3941 125.614 50.0565 126.399C49.7189 127.184 49.1652 127.88 48.3955 128.487C47.6257 129.094 46.8199 129.469 45.9779 129.615C45.1359 129.76 44.3294 129.682 43.5582 129.382C42.7691 129.081 42.0869 128.565 41.5116 127.835C40.9679 127.145 40.6661 126.403 40.6062 125.607C40.5363 124.819 40.7069 124.028 41.1182 123.234C41.5116 122.438 42.1381 121.701 42.9978 121.023L47.7734 127.081L47.3357 126.988C47.8655 126.57 48.2426 126.103 48.467 125.586C48.6913 125.068 48.7666 124.547 48.6929 124.022C48.6091 123.504 48.386 123.016 48.0235 122.556C47.6294 122.056 47.1874 121.732 46.6975 121.583C46.1896 121.432 45.6809 121.404 45.1713 121.498L44.7718 119.819C45.3193 119.711 45.869 119.699 46.4211 119.783C46.9632 119.874 47.4876 120.077 47.9943 120.391C48.4931 120.694 48.9552 121.116 49.3808 121.656ZM46.59 127.43L46.5896 127.892L42.8543 123.154L43.292 123.247C42.8521 123.593 42.5482 123.979 42.3802 124.403C42.2021 124.835 42.1513 125.264 42.2278 125.69C42.2943 126.124 42.4733 126.526 42.7649 126.896C43.0486 127.256 43.4094 127.539 43.8472 127.744C44.2672 127.948 44.7189 128.038 45.2021 128.014C45.6775 127.979 46.1401 127.785 46.59 127.43ZM35.3699 104.6L32.6495 111.035L31.1826 110.442L34.0725 103.399L35.3699 104.6ZM38.7695 114.293L37.276 114.823L33.7638 104.927L35.2573 104.397L38.7695 114.293ZM40.7144 107.1L39.95 108.485L33.7864 105.162L34.0725 103.399L40.7144 107.1Z" fill="white"/>
<defs>
<clipPath id="clip0_16154_2876">
<rect width="32" height="32" fill="white" transform="translate(74 74)"/>
</clipPath>
</defs>
</svg>
