<svg width="200" height="160" viewBox="0 0 200 160" fill="none" xmlns="http://www.w3.org/2000/svg">
<path d="M60.2265 128.076L34.8099 61.9922C33.2416 57.9147 34.8973 53.3039 38.7013 51.1555L102.787 14.9619C102.787 14.9619 108.583 10.993 114.955 9.94196C119.802 9.14247 124.543 11.8544 126.384 16.4096C132.869 32.4674 149.6 79.9702 149.6 79.9702C149.6 79.9702 152.368 87.1344 141.784 92.6705L138.04 85.9949L84.3067 114.978L87.7261 123.77C87.7261 123.77 76.3789 132.429 65.1944 131.729C62.9675 131.59 61.0275 130.158 60.2265 128.076Z" fill="white"/>
<path d="M66.4898 130.934C66.0749 130.934 65.6601 130.921 65.2464 130.895C63.3547 130.777 61.6908 129.552 61.0072 127.776L35.5905 61.6923C35.2942 60.922 35.1272 60.1271 35.0801 59.3344C36.0305 60.2015 37.957 61.2453 41.7233 61.2453C44.9461 61.2453 49.5155 60.4817 55.9748 58.1893L84.2963 125.049C80.4927 127.367 73.5022 130.934 66.4898 130.934Z" fill="#CCCDE2"/>
<path d="M83.3279 112.746L77.9956 99.2172C77.9956 99.2172 97.3335 91.2031 113.453 80.1309C124.904 72.2655 119.675 45.0887 115.686 30.0077L130.55 68.789C128.924 75.3886 127.111 82.8605 125.606 89.0999L83.3279 112.746ZM131.252 65.9466L121.673 40.9541C124.91 48.4452 128.558 56.7489 131.791 63.7774C131.616 64.4817 131.436 65.2063 131.252 65.9466Z" fill="#CCCDE2"/>
<path d="M61.0075 127.779C61.6911 129.555 63.355 130.779 65.2467 130.898C74.6793 131.488 84.4135 125.093 86.7127 123.475L83.5272 115.284C83.3744 114.891 83.5381 114.445 83.9098 114.245L137.643 85.262C138.045 85.0441 138.546 85.1902 138.769 85.5889L142.111 91.545C151.088 86.4825 148.844 80.3377 148.82 80.2748C148.644 79.7763 132.012 32.5827 125.608 16.7261C123.92 12.5478 119.497 10.0428 115.091 10.7705C108.974 11.7795 103.317 15.6163 103.26 15.6547C103.24 15.6688 103.22 15.6813 103.199 15.6932L39.1131 51.8868C35.6964 53.8164 34.1822 58.0327 35.5908 61.6948L61.0075 127.779ZM66.5114 132.609C66.0555 132.609 65.5996 132.596 65.1422 132.567C62.5997 132.408 60.3635 130.765 59.446 128.379L34.0294 62.2957C32.3255 57.8653 34.157 52.7643 38.2902 50.4303L102.346 14.2533C102.867 13.9014 108.511 10.1602 114.819 9.11954C119.99 8.26651 125.181 11.202 127.159 16.0997C133.577 31.9912 150.222 79.2201 150.389 79.6952C150.413 79.755 151.161 81.7428 150.472 84.4536C149.854 86.8838 147.913 90.4118 142.172 93.4148C141.771 93.6248 141.277 93.4772 141.055 93.0827L137.713 87.1245L85.3539 115.366L88.5061 123.47C88.6412 123.818 88.53 124.212 88.2337 124.438C87.7794 124.785 77.3944 132.609 66.5114 132.609Z" fill="#01046C"/>
<path d="M84.3068 115.816C83.9752 115.816 83.6612 115.618 83.5302 115.291L58.9058 53.8095C55.9017 54.7379 44.7612 58.0533 38.9191 58.0533C36.5791 58.0533 35.2017 57.4857 34.7077 56.3171C33.9191 54.452 36.0905 52.1393 36.3408 51.8815C36.6626 51.5504 37.1924 51.5426 37.5236 51.8643C37.8551 52.1861 37.8627 52.7158 37.5408 53.0475C36.8413 53.7716 36.0022 55.0852 36.2487 55.6663C36.32 55.8337 36.7225 56.3805 38.9191 56.3805C45.3092 56.3805 59.0025 52.027 59.1397 51.9834C59.5571 51.8503 60.0078 52.0613 60.171 52.4689L85.0829 114.669C85.255 115.097 85.0466 115.585 84.6177 115.756C84.5158 115.797 84.4108 115.816 84.3068 115.816Z" fill="#01046C"/>
<path d="M138.04 86.8359C137.703 86.8359 137.386 86.6316 137.258 86.2984L111.857 20.0285C111.77 19.8003 111.787 19.5451 111.904 19.3298C112.02 19.1152 112.225 18.9623 112.464 18.9109C114.355 18.5065 119.356 16.8612 119.791 14.142C119.897 13.4813 119.766 12.9792 119.38 12.5613C118.067 11.1416 114.31 11.1104 112.974 11.218C112.515 11.2565 112.11 10.9124 112.073 10.4523C112.035 9.99178 112.378 9.5884 112.838 9.55045C113.412 9.50315 118.508 9.15694 120.606 11.4239C121.339 12.215 121.628 13.2469 121.443 14.4066C120.878 17.9367 115.884 19.7083 113.756 20.3082L138.821 85.7001C138.986 86.1316 138.77 86.615 138.339 86.7803C138.24 86.8183 138.139 86.8359 138.04 86.8359Z" fill="#01046C"/>
<path d="M64.6873 49.0078C64.3853 49.0078 64.0942 48.8441 63.945 48.5582C63.7308 48.1485 63.8894 47.6433 64.2995 47.4296L80.4192 39.0132C80.8288 38.799 81.3341 38.9576 81.5477 39.3672C81.7614 39.7768 81.6028 40.2821 81.1932 40.4957L65.0735 48.9122C64.9498 48.9771 64.8178 49.0078 64.6873 49.0078Z" fill="#01046C"/>
<path d="M62.8973 62.3594C62.5922 62.3594 62.298 62.1915 62.1503 61.9009C61.9419 61.4887 62.1067 60.9855 62.5189 60.7765L112.261 35.5875C112.674 35.3786 113.177 35.5444 113.385 35.9561C113.594 36.3683 113.429 36.8715 113.017 37.0799L63.2747 62.2689C63.1536 62.3303 63.0241 62.3594 62.8973 62.3594Z" fill="#01046C"/>
<path d="M72.7468 66.0391C72.4421 66.0391 72.149 65.8727 72.0008 65.5832C71.7908 65.1715 71.954 64.6678 72.3652 64.4578L107.047 46.75C107.459 46.54 107.963 46.7033 108.173 47.1144C108.383 47.5261 108.22 48.0298 107.808 48.2398L73.1262 65.9476C73.0046 66.0099 72.8746 66.0391 72.7468 66.0391Z" fill="#01046C"/>
<path d="M77.996 86.0508C77.695 86.0508 77.4039 85.8876 77.2542 85.6022C77.0401 85.1931 77.1981 84.6878 77.6072 84.4736L123.768 60.2936C124.178 60.0789 124.683 60.2375 124.897 60.6466C125.112 61.0557 124.954 61.5609 124.545 61.7756L78.3833 85.9551C78.2596 86.0201 78.127 86.0508 77.996 86.0508Z" fill="#01046C"/>
<path d="M76.1664 95.4883C75.8644 95.4883 75.5733 95.3245 75.4236 95.0381C75.2099 94.629 75.369 94.1237 75.7786 93.9096L107.041 77.6007C107.45 77.3865 107.956 77.5461 108.17 77.9552C108.383 78.3648 108.225 78.8701 107.815 79.0838L76.5521 95.3931C76.4289 95.4576 76.2963 95.4883 76.1664 95.4883Z" fill="#01046C"/>
<path d="M156.765 68.0625L159.085 59.6596C159.085 59.6596 159.258 59.1023 159.426 58.1906C151.087 51.8685 135.516 52.7803 135.516 52.7803C135.114 54.0835 134.217 57.5444 133.081 62.0731C133.082 62.0731 149.072 61.2009 156.765 68.0625Z" fill="white"/>
<path d="M126.602 119.99L126.736 129.637L132.219 120.967C132.219 120.967 130.021 118.036 126.602 119.99Z" fill="#7A7C87"/>
<path d="M159.426 58.1875C160.101 54.5389 160.719 45.1977 150.005 43.0482C140.645 41.3385 137.226 47.2411 135.517 52.7772C135.517 52.7772 151.087 51.8654 159.426 58.1875Z" fill="#F95568"/>
<path d="M136.402 52.7459C136.402 52.7454 136.402 52.7465 136.402 52.7459C136.564 52.7418 136.747 52.7387 136.949 52.7361C136.747 52.7387 136.564 52.7423 136.402 52.7459Z" fill="white"/>
<path d="M136.402 52.7461C137.811 48.3141 140.312 43.5816 146.866 43.5816C147.777 43.5816 148.765 43.6731 149.84 43.8691C153.394 44.5823 155.939 46.1922 157.406 48.6535C157.453 48.7315 157.497 48.8095 157.541 48.888C156.063 47.275 153.859 45.964 150.614 45.3126C149.492 45.1078 148.457 45.0127 147.498 45.0127C141.57 45.0127 138.629 48.6712 136.949 52.7362C136.747 52.7388 136.564 52.7419 136.402 52.7461Z" fill="#FB99A4"/>
<path d="M123.182 102.769L126.601 119.988C130.02 118.034 132.219 120.965 132.219 120.965L145.382 109.289C138.395 102.131 123.182 102.769 123.182 102.769Z" fill="#F9D298"/>
<path d="M156.765 68.0602C149.071 61.1986 133.082 62.0708 133.081 62.0708C129.392 76.7802 123.182 102.766 123.182 102.766C123.182 102.766 138.395 102.128 145.382 109.285L156.765 68.0602Z" fill="#4DB2F7"/>
<path d="M131.633 120.367C131.321 120.104 130.893 119.806 130.361 119.594C130.893 119.805 131.321 120.103 131.633 120.367Z" fill="#B4B5D5"/>
<path d="M127.532 126.805L127.517 125.688L130.361 119.591C130.361 119.591 130.361 119.591 130.361 119.59C130.892 119.802 131.321 120.1 131.633 120.363C131.587 120.408 131.546 120.458 131.512 120.512L127.532 126.805Z" fill="#626482"/>
<path d="M127.88 119.457V119.456C128.246 119.36 128.594 119.319 128.921 119.318C128.921 119.318 128.921 119.318 128.922 119.318C128.922 119.318 128.922 119.318 128.923 119.318C129.047 119.319 129.168 119.324 129.286 119.336C129.228 119.339 129.168 119.343 129.105 119.349C127.88 119.457 127.88 119.457 127.88 119.457Z" fill="#626482"/>
<path d="M133.763 103.724C133.763 103.724 133.762 103.724 133.762 103.724C131.007 103.147 128.394 102.905 126.454 102.809H126.453C128.394 102.905 131.007 103.147 133.763 103.724ZM151.231 64.7536C151.231 64.7536 151.23 64.7536 151.23 64.7531C149.191 63.9292 147.014 63.3511 144.901 62.9467C144.9 62.9467 144.9 62.9462 144.898 62.9462C147.013 63.3506 149.19 63.9292 151.231 64.7536ZM148.031 53.6648C148.03 53.6648 148.028 53.6643 148.027 53.6643C147.451 53.5551 146.877 53.4579 146.314 53.3721C146.312 53.3716 146.311 53.3716 146.31 53.3716C146.876 53.4574 147.452 53.5551 148.031 53.6648Z" fill="#B4B5D5"/>
<path d="M136.343 62.0547C136.343 62.0547 136.342 62.0547 136.342 62.0542C136.275 62.0526 136.209 62.051 136.144 62.0495H136.144C136.209 62.051 136.276 62.0526 136.343 62.0547Z" fill="#CCCDE2"/>
<path d="M155.124 66.7891C154.44 66.3275 153.716 65.9106 152.962 65.5332C152.973 65.4432 152.979 65.3965 152.979 65.3965C152.979 65.3965 152.322 65.1329 151.231 64.755C149.19 63.9306 147.012 63.352 144.898 62.9476C141.251 62.1419 137.611 62.0847 136.342 62.0556C136.275 62.0535 136.208 62.0519 136.143 62.0504C136.001 62.0462 135.912 62.0415 135.882 62.0348C135.638 61.9771 135.638 61.9771 135.638 61.9771L136.292 59.8105C136.292 59.8105 137.291 59.5708 139.451 59.5708C141.296 59.5708 143.99 59.746 147.631 60.3958C148.178 60.4935 148.69 60.5382 149.167 60.5382C154.029 60.5382 155.329 55.9082 155.347 55.8411C156.308 56.2622 157.234 56.7394 158.102 57.28C158.102 57.2805 158.102 57.28 158.102 57.2805L155.124 66.7891ZM148.027 53.6657C147.422 53.5601 146.849 53.4624 146.314 53.3735C146.877 53.4593 147.451 53.5565 148.027 53.6657Z" fill="#CCCDE2"/>
<path d="M158.103 57.2852C157.234 56.7445 156.309 56.2674 155.348 55.8463C155.348 55.8458 155.348 55.8453 155.348 55.8453C155.348 55.8453 153.756 54.7048 149.41 53.9167C148.935 53.8304 148.474 53.7488 148.031 53.6714C147.452 53.5617 146.877 53.464 146.31 53.3782C143.65 52.9353 141.927 52.7003 141.927 52.7003H138.325H137.348C137.348 52.7003 138.382 50.883 143.698 50.4734C152.033 49.8314 154.506 46.7177 154.506 46.7177C154.506 46.7177 158.551 49.7238 158.103 57.2852Z" fill="#C74569"/>
<path d="M131.633 120.367C131.321 120.103 130.892 119.805 130.361 119.594C130.358 119.574 130.305 119.325 129.528 119.325C129.454 119.325 129.373 119.328 129.286 119.333C129.168 119.321 129.047 119.316 128.923 119.315C128.922 119.315 128.922 119.315 128.922 119.315C128.921 119.315 128.921 119.315 128.921 119.315C128.594 119.316 128.246 119.357 127.88 119.453L127.456 115.408C127.456 115.408 127.686 115.436 128.091 115.436C129.024 115.436 130.885 115.287 133.013 114.308C135.937 112.963 139.982 106.379 140.317 105.827C141.521 106.386 142.668 107.046 143.706 107.824V107.825L134.976 117.4L131.664 120.338C131.653 120.347 131.642 120.357 131.633 120.367ZM133.762 103.728C130.237 103.144 128.196 102.93 128.196 102.93L126.454 102.813C128.394 102.91 131.007 103.151 133.762 103.728Z" fill="#C7A98F"/>
<path d="M143.706 107.82C142.668 107.042 141.521 106.382 140.318 105.823C140.333 105.799 140.34 105.786 140.34 105.786C140.34 105.786 137.456 104.338 133.868 103.741C133.833 103.735 133.798 103.729 133.764 103.724C131.008 103.147 128.394 102.905 126.453 102.809L125.563 102.749L126.602 98.7338C126.602 98.7338 127.202 98.8227 128.211 98.8227C131.47 98.8227 138.993 97.8974 144.309 90.0632C150.874 80.3893 152.768 67.0232 152.962 65.5318C153.716 65.9092 154.441 66.3261 155.124 66.7877L155.124 66.7887L143.706 107.82ZM151.231 64.7531C149.747 64.2395 147.458 63.5139 144.923 62.9514C144.916 62.9498 144.908 62.9483 144.901 62.9467C147.014 63.3511 149.191 63.9292 151.231 64.7531ZM136.341 62.0537C136.267 62.0521 136.202 62.0506 136.144 62.049C136.209 62.0506 136.275 62.0521 136.341 62.0537Z" fill="#3E8FDB"/>
<path d="M124.038 102.783L127.422 119.822C127.432 119.872 127.437 119.922 127.438 119.973L127.533 126.807L131.512 120.514C131.554 120.448 131.605 120.388 131.664 120.336L144.642 108.824L158.279 59.4351C158.305 59.3499 160.136 53.2337 157.407 48.6535C155.94 46.1922 153.395 44.5823 149.841 43.8691C140.867 42.2317 137.898 47.9014 136.316 53.0247C134.688 58.2957 124.775 99.7016 124.038 102.783ZM126.735 130.469C126.66 130.469 126.583 130.458 126.508 130.437C126.152 130.337 125.904 130.014 125.899 129.644L125.766 120.073L122.362 102.929C122.338 102.811 122.341 102.689 122.369 102.571C122.803 100.755 133.019 58.0301 134.717 52.5314C135.835 48.9124 137.347 46.3071 139.342 44.5667C142.054 42.1984 145.693 41.4119 150.156 42.2265C154.211 43.04 157.132 44.9165 158.85 47.8073C161.957 53.0346 159.971 59.627 159.884 59.9051L146.189 109.509C146.145 109.664 146.058 109.804 145.937 109.911L132.863 121.509L127.442 130.079C127.286 130.326 127.017 130.469 126.735 130.469Z" fill="#01046C"/>
<path d="M132.22 121.797C131.967 121.797 131.717 121.683 131.553 121.466C131.368 121.226 129.686 119.185 127.017 120.709C126.615 120.939 126.105 120.8 125.876 120.399C125.646 119.997 125.786 119.486 126.187 119.258C129.398 117.422 131.975 119.24 132.888 120.459C133.166 120.828 133.091 121.352 132.721 121.629C132.571 121.742 132.395 121.797 132.22 121.797Z" fill="#01046C"/>
<path d="M145.382 110.125C145.165 110.126 144.948 110.041 144.784 109.873C138.142 103.069 123.365 103.597 123.217 103.605C122.757 103.63 122.366 103.265 122.347 102.804C122.327 102.342 122.686 101.953 123.147 101.933C123.784 101.907 138.816 101.364 145.981 108.704C146.303 109.035 146.297 109.565 145.967 109.887C145.804 110.046 145.593 110.125 145.382 110.125Z" fill="#01046C"/>
<path d="M156.764 68.8984C156.566 68.8984 156.368 68.8283 156.208 68.6858C148.864 62.1361 133.283 62.8981 133.126 62.9075C132.665 62.9298 132.271 62.579 132.246 62.1179C132.221 61.6568 132.574 61.2623 133.035 61.2368C133.702 61.2004 149.461 60.4264 157.322 67.4377C157.666 67.745 157.696 68.2736 157.389 68.6183C157.224 68.8038 156.995 68.8979 156.764 68.8984Z" fill="#01046C"/>
<path d="M158.902 59.0273C158.718 59.0273 158.534 58.9676 158.38 58.8444C150.476 52.529 135.73 53.603 135.582 53.6139C135.128 53.6519 134.718 53.3062 134.683 52.8456C134.646 52.3851 134.991 51.9827 135.451 51.9463C136.083 51.8975 151.01 50.8147 159.424 57.5375C159.786 57.8255 159.844 58.3521 159.556 58.7129C159.39 58.9197 159.147 59.0273 158.902 59.0273Z" fill="#01046C"/>
<path d="M132.182 81.6133C132.088 81.6133 131.992 81.6013 131.896 81.5758C131.301 81.4183 130.946 80.8081 131.103 80.2124L135.047 65.2945C135.18 64.7945 135.632 64.4644 136.126 64.4644C136.22 64.4644 136.315 64.4763 136.411 64.5018C137.006 64.6588 137.361 65.2696 137.204 65.8648L133.26 80.7826C133.127 81.2827 132.676 81.6133 132.182 81.6133Z" fill="#94D1FA"/>
<path d="M130.635 87.7461C130.549 87.7461 130.462 87.7362 130.374 87.7154C129.775 87.5714 129.406 86.9695 129.549 86.3706L130.012 84.4437C130.135 83.9316 130.593 83.5891 131.098 83.5891C131.183 83.5891 131.27 83.599 131.357 83.6192C131.956 83.7632 132.325 84.3652 132.181 84.964L131.719 86.891C131.596 87.4025 131.139 87.7461 130.635 87.7461Z" fill="#94D1FA"/>
<path d="M36.9198 52.4873C36.9035 52.5044 36.8837 52.5257 36.8609 52.5502C36.8535 52.5585 36.8459 52.5663 36.8383 52.5736C34.3577 55.051 33.5615 58.7485 34.81 61.9948L60.2271 128.078C61.0272 130.159 62.977 131.593 65.1946 131.732C65.6255 131.759 66.0684 131.773 66.5107 131.773C77.1219 131.773 87.2979 124.1 87.7262 123.773L84.5745 115.669C84.4217 115.276 84.5855 114.83 84.9571 114.63L123.948 93.5984C124.237 93.4419 124.594 93.4705 124.855 93.6717C125.116 93.8734 125.235 94.2097 125.158 94.5304C124.086 98.9874 123.333 102.133 123.192 102.726C123.19 102.738 123.188 102.749 123.186 102.761L123.185 102.765C123.187 102.776 123.188 102.793 123.19 102.81L126.586 119.912C126.596 119.963 126.602 120.013 126.602 120.064L126.735 129.635L132.155 121.064C132.197 120.998 132.248 120.938 132.307 120.886L145.359 109.308L145.368 109.299L145.378 109.289L145.381 109.285L145.382 109.282L145.385 109.276L145.384 109.281L159.077 59.6853C159.166 59.3967 161.049 53.1464 158.13 48.2372C156.539 45.5586 153.8 43.813 149.99 43.0489C145.805 42.2847 142.403 43.0073 139.891 45.1989C139.538 45.5076 139.192 45.8559 138.863 46.2343C138.669 46.4573 138.371 46.5618 138.079 46.5078C137.788 46.4532 137.546 46.2489 137.446 45.9703C132.342 31.8956 128.621 21.9509 126.384 16.4122C124.522 11.8029 119.824 9.14144 114.954 9.94456C108.855 10.9509 103.415 14.5398 102.815 14.9458C102.796 14.9583 102.778 14.9702 102.758 14.9811L38.7016 51.1576C38.0873 51.5048 37.5124 51.9311 36.9926 52.4254C36.9766 52.4405 36.9598 52.455 36.9426 52.4691C36.94 52.4712 36.9284 52.4805 36.9198 52.4873ZM66.5107 133.445C66.0336 133.445 65.5558 133.431 65.0901 133.402C62.2217 133.222 59.7001 131.369 58.6656 128.679L33.2485 62.5952C31.7647 58.7371 32.7053 54.3456 35.6445 51.4014C35.6872 51.3556 35.7209 51.3203 35.742 51.2984C35.7806 51.2589 35.8235 51.2215 35.8682 51.1862C36.4799 50.6086 37.1563 50.1091 37.8787 49.701L101.906 13.5407C102.664 13.0313 108.319 9.34364 114.683 8.2936C120.328 7.36624 125.778 10.4451 127.935 15.7858C130.112 21.1763 133.686 30.7135 138.563 44.1441C138.638 44.074 138.714 44.0059 138.791 43.9388C141.706 41.3948 145.58 40.5423 150.305 41.4063C154.613 42.2702 157.724 44.2798 159.569 47.3826C162.862 52.9239 160.774 59.862 160.683 60.1546L146.995 109.734C146.981 109.781 146.964 109.83 146.945 109.878L146.949 109.867C146.942 109.888 146.929 109.924 146.92 109.943C146.882 110.033 146.837 110.118 146.783 110.201C146.772 110.217 146.747 110.253 146.735 110.268C146.696 110.322 146.654 110.373 146.608 110.422C146.588 110.447 146.565 110.471 146.545 110.491C146.537 110.498 146.528 110.507 146.518 110.517C146.508 110.525 146.498 110.535 146.487 110.544L133.506 122.059L128.149 130.529C127.84 131.017 127.312 131.307 126.735 131.307C126.583 131.307 126.431 131.286 126.283 131.245C125.574 131.045 125.073 130.393 125.062 129.658L124.93 120.163L121.541 103.094C121.533 103.053 121.528 103.012 121.524 102.97C121.518 102.931 121.513 102.886 121.51 102.838C121.509 102.813 121.51 102.783 121.511 102.753C121.511 102.719 121.514 102.677 121.518 102.634C121.523 102.579 121.529 102.529 121.536 102.48C121.541 102.443 121.547 102.407 121.557 102.371C121.651 101.975 122.231 99.5493 123.094 95.9599L86.4017 115.752L89.2852 123.167C89.5539 123.857 89.3304 124.653 88.7414 125.103C88.2949 125.444 77.6807 133.445 66.5107 133.445Z" fill="#01046C"/>
<path d="M107.428 152.316C73.9756 152.316 46.8569 150.66 46.8569 148.616C46.8569 146.573 73.9756 144.917 107.428 144.917C140.881 144.917 168 146.573 168 148.616C168 150.66 140.881 152.316 107.428 152.316Z" fill="#C0C0DB"/>
</svg>
