<svg width="120" height="163" viewBox="0 0 120 163" fill="none" xmlns="http://www.w3.org/2000/svg">
<g clip-path="url(#clip0_16872_36084)">
<circle cx="60" cy="103" r="60" fill="#7DADFE"/>
<path d="M62.2245 24.0549C61.3978 23.95 60.8619 23.9932 60.0536 24.2038C56.2849 25.1853 52.5111 26.2998 48.7741 27.3863L30.6981 32.6295C26.4366 33.835 22.1835 35.0698 17.939 36.3337C16.0284 36.8899 14.0627 37.4416 12.1636 38.0243C11.6135 38.2382 10.8689 38.7549 10.676 39.3291C10.1832 40.7959 11.2933 41.6213 12.527 42.0984C14.8153 42.983 17.2041 43.703 19.5471 44.4525L33.0418 48.6964C32.8067 51.6039 32.3021 53.501 32.2727 56.5921C29.3755 56.0085 26.2301 54.1491 23.7718 52.5334C21.0717 50.7592 20.2986 52.3673 20.6723 54.9669C20.9479 56.8849 21.6537 58.2213 22.5044 59.9221C21.5971 59.4807 17.6209 56.9765 17.3387 59.3103C16.9989 62.1186 19.1531 65.479 20.6374 67.7393C16.5538 73.3272 14.6936 80.55 13.5767 87.2797C13.4713 87.9148 13.6927 88.6104 13.6165 89.2283C13.4878 90.2734 13.09 91.3107 13.1716 92.3766C13.2478 93.1629 13.4305 93.971 13.6184 94.7413C13.8806 95.8164 14.016 97.0236 14.3352 98.0748C14.5953 98.9311 15.0869 99.8968 15.4703 100.712C15.0633 102.443 15.194 102.845 16.3392 104.109C14.7528 105.638 13.3147 107.315 12.0443 109.116C5.11565 118.751 3.15223 131.293 5.23142 142.779C5.49644 144.243 5.8447 146.963 7.10782 147.803C8.89368 148.99 12.3044 148.285 14.2489 147.857C12.9978 149.463 11.4511 150.865 10.2238 152.501C9.11816 153.974 8.55981 155.625 10.3591 156.826C11.8927 157.85 13.5918 157.488 15.2767 157.205C15.5844 162.26 20.0095 160.756 22.9106 159.005C25.3284 163.993 29.9053 160.811 32.3028 157.782C33.237 158.059 34.7711 158.706 35.7539 159.053C37.186 159.559 39.2122 159.907 40.3789 160.697C39.322 161.685 34.9048 165.85 37.5899 167.625C38.9229 168.506 41.9633 167.288 43.5082 166.79C45.7228 170.793 47.6669 171.34 49.644 166.785C51.3329 167.353 53.9905 168.445 55.5163 167.199C56.9843 166 54.2642 163.059 53.4956 162.247C55.2814 162.24 57.4497 162.203 59.2243 161.997C60.9805 161.794 62.8059 161.456 64.5843 161.223C63.6998 161.997 62.2462 163.026 62.3794 164.322C62.4353 164.832 62.6963 165.297 63.1023 165.609C64.6371 166.77 67.8405 165.692 69.3142 165.871C71.7598 166.168 74.4108 168.86 77.2207 168.517C77.8738 168.438 78.2784 167.82 78.6205 167.321C78.6477 166.788 78.6451 166.226 78.6521 165.69C79.0978 165.697 79.6924 165.696 80.1308 165.705C83.7848 165.785 83.8951 163.424 81.2588 161.407C80.1421 160.553 79.1834 160.19 77.8297 159.735C77.4348 159.62 76.5595 159.45 76.452 159.047C76.92 158.304 80.1374 156.881 81.2295 156.216C82.3602 155.516 83.4521 154.754 84.5002 153.936C87.362 151.74 89.8415 149.085 91.8382 146.077C92.484 145.769 93.3725 145.158 94.0223 145.443C94.2057 145.752 94.1977 145.771 94.4609 146.006C95.2856 146.118 96.2927 145.499 97.0687 145.124C100.152 148.917 100.109 144.111 100.645 141.654C101.771 143.916 102.264 148.169 104.589 143.78C105.355 143.893 106.882 144.282 107.451 143.736C107.784 142.516 105.831 139.052 105.197 137.597C106.885 137.446 108.668 137.284 110.338 137.08C112.591 136.806 115.888 137.323 117.086 134.941C118.078 132.969 118.26 130.391 117.643 128.33C116.738 125.307 114.397 122.025 110.909 123.937C109.389 124.684 106.641 125.444 105.033 125.883C105.062 123.973 105.081 122.032 104.832 120.137C104.249 115.696 101.597 110.182 98.6346 106.854C99.7737 105.598 101.416 103.914 101.722 102.211C101.791 101.821 101.651 101.027 101.588 100.61C104.429 97.7925 104.569 94.4812 103.386 90.8348C103.649 90.6065 103.931 90.4173 104.214 90.2134C104.593 85.7573 102.23 76.5239 100.356 72.4468C99.3973 70.3975 98.1983 68.4702 96.7848 66.7051C98.4879 65.6281 99.8062 64.0374 100.55 62.162C102.081 58.3501 100.702 57.2161 97.1929 59.3351C97.3736 58.9708 97.5471 58.6029 97.7133 58.2317C98.3634 56.7438 98.8133 54.6215 98.221 53.0459C97.9326 52.2787 97.1366 51.7357 96.3571 52.2728C95.6419 52.7652 94.9768 53.4776 94.3298 54.0797C93.0869 55.2363 91.5225 55.8832 89.9754 56.5316C89.5996 54.8348 89.2058 51.5394 88.9476 49.7613C90.2492 49.5673 92.2381 48.7992 93.5458 48.3951C96.2043 47.5731 98.9592 46.5854 101.654 45.9158C101.822 47.9975 102.257 49.9929 102.525 52.045C102.903 54.9386 103.291 57.7811 103.729 60.6678C102.544 62.4061 102.51 64.1313 103.96 65.7337C102.607 70.2945 103.147 72.9565 104.148 77.5615C104.328 78.3181 104.607 79.2486 105.258 79.6592C106.467 80.4234 114.797 78.4542 114.64 76.963C114.414 74.8196 113.029 70.0689 112.073 67.9047C111.641 66.9277 110.789 65.6161 110.005 64.7038C110.752 62.2967 110.036 61.2729 108.349 59.6534C108.179 55.5012 107.007 48.6328 106.35 44.4515C107.996 43.8988 109.659 43.3982 111.238 42.6669C113.428 41.6522 113.744 39.4364 111.27 38.547C108.949 37.7122 106.568 37.0329 104.214 36.2895C98.1514 34.3938 92.0643 32.5779 85.9541 30.8424L70.1239 26.2665C67.6174 25.5511 64.7274 24.6376 62.2245 24.0549Z" fill="#340F07"/>
<path d="M31.6674 58.5231C28.7403 57.7161 26.5609 56.8374 23.9535 55.2577C23.242 54.8268 22.6589 54.3229 21.9602 53.9453L21.8143 54.009C21.774 54.5519 21.9143 54.9264 22.0518 55.4548C22.4854 57.1191 22.9661 57.8947 23.9144 59.3426C24.4026 60.0888 25.8593 61.84 26.0269 62.5423C24.6576 63.2661 19.9058 60.9503 18.6122 60.2535C19.2281 64.3741 23.6983 67.8874 22.9073 70.3625L22.7044 70.405C22.0819 69.9955 21.9195 69.5031 21.3967 68.9949C18.1365 73.5069 16.3568 79.3335 15.2826 84.7519C15.1517 85.4116 14.6818 87.5857 14.9918 88.0932L15.1397 88.0251L15.3358 87.4504L15.3946 87.6062L15.3635 87.801C15.1955 88.8286 14.6387 90.1551 14.5184 91.1223C14.323 92.6917 15.4622 95.6372 15.4617 97.2991C15.4617 97.5764 16.7569 100.079 16.9665 100.77L17.0256 100.959L16.4048 101.86C18.8462 104.897 20.2222 106.026 23.2234 108.54C21.3107 108.114 18.8914 105.774 17.3372 104.709C15.9653 105.971 14.7531 107.509 13.6126 108.985C10.4032 113.482 8.0976 117.916 6.93162 123.381C6.68844 124.521 6.397 125.938 6.34944 127.086C5.66863 131.184 5.55799 133.755 5.83131 137.878C6.84192 135.923 7.08064 134.884 8.53406 133.192C6.98553 136.683 5.53539 139.397 6.69643 143.249C8.84903 142.186 11.7519 139.87 13.3988 138.067L13.8892 138.138L13.3988 138.728C11.5273 140.702 9.78125 142.337 7.61924 144.005C7.35088 144.217 7.09687 144.477 7.15054 144.858C7.34005 146.198 9.13129 146.155 10.0362 146.089C15.8254 145.664 21.9946 141.783 25.6712 137.49C26.4968 136.672 27.2537 135.787 27.9338 134.844C32.7776 128.2 33.8376 122.554 32.5805 114.557C36.1018 121.317 34.4643 128.051 30.6514 134.308C31.3557 135.108 30.0529 138.331 30.0077 139.257C29.9993 139.431 31.7804 141.235 31.9965 141.51C31.9162 141.927 31.7639 142.429 31.8847 142.816C32.3065 142.254 33.1651 140.923 33.7748 140.804L33.8609 140.946C33.6566 141.475 33.4619 142.009 33.2774 142.545C31.7081 147.084 32.9344 150.363 34.8607 154.581C35.22 155.368 35.8506 156.356 36.4858 156.94C36.6856 156.991 37.3605 157.308 37.579 157.404L37.1035 155.588C38.0995 156.353 38.85 157.42 39.9143 158.129C40.3816 158.747 41.6688 158.361 41.8348 158.449C44.2096 159.714 43.5563 160.2 46.3966 159.093C49.2989 161.015 50.5555 159.478 53.5342 158.528C53.2305 159.05 52.9549 159.396 52.5923 159.873C55.5354 159.937 61.5278 159.55 64.078 158.213C64.8716 158.514 66.8399 159.168 67.6395 158.967C68.213 158.823 69.5918 157.891 70.2138 157.772C70.7415 157.672 71.1483 158.393 71.9473 158.342C73.7153 158.227 75.0472 156.616 76.2341 155.446C76.5461 155.418 76.9161 155.344 77.2177 155.212C83.3723 152.513 88.2681 147.42 91.2992 141.484C91.5354 141.022 91.8445 140.239 91.6733 139.776C91.1862 139.751 90.1455 140.111 89.6893 140.287C87.4729 140.856 85.2982 141.503 83.0662 142.092C79.7735 142.96 78.0786 139.035 77.5225 136.46C77.0435 134.242 77.2805 131.794 78.5454 129.853C79.4378 128.814 80.2121 128.83 81.521 128.669C84.3596 128.597 87.1958 128.456 90.0273 128.244C91.2917 128.154 93.1166 128.064 94.3172 127.835C94.8516 127.535 96.3001 127.396 96.9425 127.317C97.2412 125.27 97.133 122.186 96.7379 120.127C96.5769 119.288 95.8874 117.693 95.9095 116.927C96.2462 117.325 96.5821 117.76 96.9091 118.168C96.532 115.647 96.0873 114.515 95.0376 112.259C94.6786 111.483 94.3502 110.681 93.8327 110.004C92.808 110.525 89.8369 112.227 88.846 111.781L88.8931 111.512C90.9483 110.923 96.8698 105.521 98.0285 103.526C98.3578 103.166 98.9772 102.27 99.2929 101.835C99.2622 101.252 99.2166 101.07 99.0702 100.5C99.0311 99.4982 99.521 99.0436 100.124 98.2391C101.951 96.2974 101.577 94.2773 101.084 91.8509C100.936 91.1773 100.736 90.6426 101.094 90.0585L101.778 89.0699C101.605 86.4759 100.965 83.2856 100.44 80.7379C100.248 79.8076 99.7886 78.6608 99.5389 77.5991C97.8439 72.039 96.342 69.4718 92.5964 65.1156C93.0015 65.008 94.0093 65.4146 94.5048 65.5702C96.0983 64.715 97.2337 63.4613 97.967 61.8191C98.097 61.4237 98.4856 60.5495 98.6568 60.1325C96.6711 61.3022 96.2989 61.5095 94.0109 61.8036C93.6188 61.7956 93.0599 61.8435 92.7708 61.6335C92.8242 61.3988 92.7816 61.4592 92.9149 61.291C94.0095 59.9095 94.9081 58.6585 95.6002 57.0303C95.8194 56.2379 96.0119 55.3108 96.0896 54.4923C93.8709 56.2501 92.2242 57.4985 89.5586 58.4611C89.4362 58.5053 89.4183 58.9054 89.3931 59.06C89.5501 59.8292 89.419 60.2351 89.1815 60.9881C87.5986 62.5763 85.3026 63.092 83.1919 63.7294C78.4009 65.1757 73.6199 66.8092 68.995 68.7165C64.3749 70.6219 64.8742 71.0795 60.343 69.4044C59.9659 69.1577 59.782 69.2296 59.3343 69.2843C58.3594 68.7156 57.9548 68.4787 56.8222 68.2048C58.0047 68.9984 58.8098 69.652 59.8446 70.6524C60.0716 70.8718 60.8027 71.6624 60.9715 71.798L61.0174 71.9537C60.7309 72.1248 60.8216 72.0754 60.4861 72.1595C55.5288 67.5641 51.424 66.5722 44.9081 66.025C43.0224 65.604 37.4863 66.0255 35.4742 66.4726C39.5181 64.9274 42.0984 65.4165 46.0065 64.9074L46.152 64.8872C44.9542 64.7862 44.0895 64.4514 42.9339 64.1967C39.6718 63.478 36.442 62.7156 33.4633 61.135C33.1855 60.9874 32.246 60.0921 31.9788 59.84C31.8637 59.4676 31.7568 58.9167 31.6674 58.5231Z" fill="#B06F43"/>
<path d="M96.124 53.9453C93.9187 55.7291 92.2819 56.996 89.6325 57.9728C89.5108 58.0176 89.493 58.4236 89.468 58.5805C89.624 59.3611 89.4937 59.773 89.2576 60.5372C87.6843 62.1488 85.4022 62.6721 83.3042 63.3189C78.5421 64.7866 73.79 66.4443 69.1931 68.3797C64.6009 70.3132 65.0972 70.7777 60.5933 69.0778C60.2185 68.8275 60.0358 68.9004 59.5907 68.956C58.6218 68.3788 58.2195 68.1384 57.0938 67.8605C58.2691 68.6658 59.0694 69.3291 60.098 70.3442C60.3236 70.5669 61.0503 71.3692 61.2181 71.5067L61.2637 71.6648C60.979 71.8384 61.069 71.7883 60.7356 71.8736C55.8083 67.2103 51.7282 66.2037 45.2517 65.6485C44.6578 65.6489 44.1763 65.5839 43.6559 65.8299L43.4933 65.9052C43.1966 66.0454 43.0033 66.0945 42.8554 66.3809C42.6202 66.4212 42.5304 66.4267 42.2913 66.434C37.8993 67.9246 32.7122 69.609 29.4357 73.2228C28.8479 73.954 28.0491 74.7856 27.8731 75.6897L27.9466 75.8713C28.5992 75.2977 28.8425 75.1175 29.5796 74.6626C28.1158 76.557 26.8759 78.0011 25.8548 80.2002C25.6748 81.1083 25.369 82.358 25.5208 83.258C25.5538 83.4531 25.541 83.4788 25.5078 83.6743C25.1322 83.644 25.2763 83.6419 24.8947 83.7809C24.6041 84.1814 24.5807 84.3164 24.4108 84.796L24.9237 85.3744L24.6986 85.9225C24.9604 87.1198 24.5484 87.9331 24.927 89.4837C24.908 89.8747 24.8973 90.3601 24.8495 90.7382C24.8549 91.8104 24.8591 92.6529 24.9668 93.7272C25.9916 94.2407 25.618 94.6899 26.2827 95.3796L26.4839 95.5947C28.6898 99.4729 31.1548 102.99 35.401 104.971C36.9746 105.705 38.9031 106.035 40.5455 106.59C41.7004 106.903 44.1622 107.521 45.2865 107.576C49.0439 107.757 53.0875 107.062 56.4117 105.201C57.0781 104.828 58.5045 103.605 59.1117 103.102L59.2348 103.147L59.1534 103.823L59.2589 103.951C60.3675 103.509 62.9648 100.524 63.2355 99.2986C63.1829 99.1275 62.9789 98.6561 63.1256 98.5274C65.4413 96.4947 66.3132 89.9925 70.2699 93.9713C72.1531 95.8648 72.6014 98.1366 72.574 100.734C72.5691 101.119 72.4514 101.542 72.844 101.675C73.1667 102.416 73.3801 102.92 73.7917 103.615C74.2363 104.299 74.9534 105.408 75.5178 105.997C76.0115 106.098 76.4112 106.383 76.7301 106.244L76.7317 105.832C76.2975 105.279 76.1807 105.029 76.1421 104.321L76.7963 105.059C77.2327 105.078 77.7618 104.981 78.1851 105.054C79.2537 105.237 80.7355 105.865 81.7896 105.929C83.6066 106.039 85.7356 105.926 87.5572 105.858C88.1616 105.429 88.9207 104.859 89.6722 104.924C90.213 105.191 90.7509 104.911 91.33 104.714C91.9529 104.478 92.5084 104.182 93.1009 103.881C94.9721 102.71 99.1803 98.6051 97.8981 96.1552C98.0109 95.3994 98.2771 94.7006 98.9405 94.296L98.9206 95.4635C98.9323 95.881 98.8659 96.2033 99.0514 96.4973L99.2566 96.4515C99.145 96.9927 99.0332 97.6133 98.8946 98.1409C98.8953 98.1497 98.871 100.577 98.8876 100.503L99.0865 100.633C99.0477 99.6162 99.5346 99.1549 100.134 98.3386C101.95 96.3681 101.578 94.3182 101.088 91.8559C100.942 91.1724 100.742 90.6297 101.098 90.0371L101.778 89.0338C101.606 86.4015 100.97 83.1641 100.448 80.5788C100.257 79.6347 99.8007 78.471 99.5524 77.3936C97.8677 71.7513 96.3748 69.1462 92.6518 64.7256C93.0545 64.6164 94.0562 65.0291 94.5488 65.1869C96.1327 64.3191 97.2612 63.0469 97.9901 61.3804C98.1192 60.9792 98.5055 60.092 98.6756 59.6689C96.7019 60.8559 96.332 61.0662 94.0579 61.3647C93.6681 61.3566 93.1126 61.4052 92.8252 61.1921C92.8783 60.9539 92.836 61.0152 92.9684 60.8445C94.0565 59.4426 94.9496 58.1731 95.6375 56.5209C95.8554 55.7167 96.0468 54.7759 96.124 53.9453Z" fill="#FFFEFC"/>
<path d="M95.8568 53.9453C93.6531 55.7651 92.0176 57.0576 89.3701 58.0541C89.2485 58.0998 89.2307 58.514 89.2057 58.674C89.3617 59.4703 89.2314 59.8906 88.9955 60.6702C87.4233 62.3143 85.1429 62.8482 83.0465 63.5081C78.2879 65.0054 73.5393 66.6965 68.9458 68.671C64.3569 70.6435 64.8528 71.1173 60.3523 69.3831C59.9777 69.1277 59.7951 69.2022 59.3504 69.2588C58.3822 68.67 57.9803 68.4248 56.8554 68.1412C58.0298 68.9628 58.8295 69.6395 59.8573 70.6751C60.0827 70.9023 60.809 71.7207 60.9766 71.8611L61.3909 71.506C64.1623 74.9393 65.591 77.0008 66.8456 81.3983C67.5041 78.817 68.1148 76.2366 69.2062 73.81C69.438 73.2949 69.6757 72.7734 69.8289 72.2259L70.1544 72.3346L70.2439 72.7466L70.4057 72.824C71.0508 72.4285 72.0908 70.7491 72.573 70.0333C72.8685 70.1527 72.89 70.1777 73.2005 70.2067C73.8697 69.8579 75.2219 68.7831 75.9062 68.3005C77.1759 67.4055 78.0805 66.883 79.4551 66.195L79.8596 66.5155C79.7205 66.8025 79.7852 66.7116 79.5606 66.9227L79.51 67.0912C79.839 67.1496 81.2784 66.7162 81.8197 66.6357C85.2376 66.1276 88.6906 66.4105 91.7167 68.2081L92.0185 68.6449C91.81 68.8587 91.929 68.7799 91.6648 68.8867C93.6702 70.4248 94.2204 70.716 96.1699 72.5893C96.6153 73.2662 96.9714 73.8069 96.8777 74.6443C96.7603 74.9099 96.8456 74.8415 96.6544 74.9789C97.2801 75.7633 98.6114 77.5916 98.9893 78.5278L99.1644 78.5088L99.2827 77.8667C97.5992 72.1106 96.1075 69.4529 92.3872 64.9431C92.7896 64.8317 93.7906 65.2527 94.2828 65.4137C95.8655 64.5284 96.9932 63.2306 97.7215 61.5304C97.8506 61.1211 98.2366 60.2161 98.4066 59.7843C96.4344 60.9954 96.0647 61.2099 93.7922 61.5144C93.4027 61.5061 92.8476 61.5557 92.5605 61.3383C92.6136 61.0953 92.5713 61.1578 92.7036 60.9837C93.7908 59.5535 94.6833 58.2584 95.3707 56.5728C95.5884 55.7524 95.7797 54.7927 95.8568 53.9453Z" fill="#B06F43"/>
<path d="M59.3522 69.9739C58.3828 69.4196 57.9804 69.1888 56.8541 68.9219C58.03 69.6952 58.8306 70.3321 59.8598 71.307C60.0855 71.5208 60.8126 72.2912 60.9805 72.4233L61.3953 72.089C64.1702 75.3208 65.6006 77.2613 66.8568 81.4005C67.5161 78.9708 68.1276 76.5419 69.2204 74.2578C69.4524 73.7729 69.6905 73.2821 69.8438 72.7667C69.8801 72.3908 70.3949 71.348 70.5806 70.9382C68.4057 73.2605 67.4381 75.7745 66.7754 78.773C65.7551 76.1356 64.483 74.1607 62.4701 72.1122C61.7729 71.4024 61.0521 70.8143 60.3554 70.0908C59.9804 69.8505 59.7975 69.9205 59.3522 69.9739Z" fill="#340F07"/>
<path d="M58.9139 69.6717C58.1148 69.2766 57.783 69.1121 56.8546 68.9219C57.8239 69.4731 58.484 69.9271 59.3323 70.6219C59.5184 70.7743 60.1178 71.3234 60.2562 71.4176L60.5981 71.1794C60.3123 70.8125 59.3016 69.9811 58.9139 69.6717Z" fill="#A97D61"/>
<path d="M92.5228 65.3197C91.7779 64.6888 91.4279 64.3509 90.5477 63.9297C91.843 66.2124 94.1838 68.3322 95.3752 70.7872C95.6576 71.3692 96.0727 71.5254 96.2311 72.2633C96.6678 72.878 97.0169 73.369 96.925 74.1295C96.8099 74.3707 96.8936 74.3086 96.7061 74.4334C97.3195 75.1457 98.6246 76.806 98.995 77.6562L99.1667 77.639L99.2827 77.0558C97.6323 71.8286 96.1699 69.4151 92.5228 65.3197Z" fill="#CCAC97"/>
<path d="M92.2073 68.9018C92.5516 68.9194 92.7597 68.9854 93.042 68.7421L93.022 68.4719C92.318 67.696 89.4013 66.1264 88.2587 65.6714C85.8269 64.8911 82.9329 65.0232 80.5907 66.1844C80.3512 66.303 79.8837 66.9477 79.3688 67.2074L79.3155 67.4296C79.6629 67.5065 81.1831 66.9352 81.7548 66.8291C85.3646 66.1594 89.0114 66.5322 92.2073 68.9018Z" fill="url(#paint0_linear_16872_36084)"/>
<path d="M79.7401 66.4241C80.7616 65.7662 82.1018 65.7946 83.0596 65.2703C82.6652 65.0218 81.0269 65.3548 80.4983 65.4325C78.1623 65.7756 75.5921 67.244 73.9846 68.8038L73.7584 69.0191C73.5268 69.3435 73.131 69.8113 73.0767 70.1711C73.7896 69.8454 75.2301 68.8415 75.9592 68.3908C77.3119 67.5548 78.2756 67.0668 79.7401 66.4241Z" fill="#340F07"/>
<path d="M96.7856 53.9453C94.3049 55.8655 92.4638 57.2293 89.4835 58.2808C89.3466 58.3291 89.3266 58.7661 89.2985 58.935C91.6618 59.0059 93.7611 56.8978 96.2384 56.7179C96.4835 55.8522 96.6988 54.8395 96.7856 53.9453Z" fill="#C49F7E"/>
<path d="M98.0337 60.1875C96.4349 61.2174 96.1352 61.3998 94.293 61.6588L94.1994 61.6991C93.7955 61.8687 93.228 61.9269 93.0422 62.0739C93.5912 63.6766 96.7977 61.6029 97.4783 61.6724C97.583 61.3243 97.8959 60.5546 98.0337 60.1875Z" fill="#C49F7E"/>
<path d="M73.674 68.9233C74.2119 68.1275 75.2307 66.9976 75.5728 66.4297C74.1172 67.3044 73.4514 67.9234 72.4156 69.3124C71.9885 69.8852 70.9245 71.966 70.5813 72.206L70.667 72.5958L70.8218 72.669C71.439 72.2948 72.4342 70.7058 72.8955 70.0286C73.1783 70.1416 73.1988 70.1653 73.4959 70.1927C73.5447 69.8281 73.9002 69.3543 74.1083 69.0257L73.674 68.9233Z" fill="#340F07"/>
<path d="M95.3814 73.9208C94.5116 73.2663 94.0882 73.1003 93.0433 72.668C93.7084 73.3246 95.2094 74.8645 95.6464 75.6554C97.2228 78.5093 98.7838 82.2839 99.4667 85.3706C99.6096 85.7226 100.089 87.1085 100.271 87.254L100.381 87.0432C100.707 87.8027 100.498 89.4255 101.03 90.1381L101.778 89.1445C101.589 86.5376 100.889 83.3315 100.314 80.7712C100.104 79.8362 99.6019 78.6838 99.3287 77.6168L99.1984 78.2401L99.0055 78.2585C98.5894 77.3497 97.1232 75.5749 96.4341 74.8135C96.6447 74.6801 96.5507 74.7464 96.68 74.4886L95.8709 73.7741L95.3814 73.9208Z" fill="#340F07"/>
<path d="M99.1369 77.6562L98.9964 78.2775L98.7885 78.2958L98.116 78.2916C97.9116 78.6259 98.1415 79.2191 98.2729 79.573C98.7665 80.9027 99.6387 82.3496 99.9391 83.7116C100.162 84.7217 100.146 85.9902 100.272 87.0505C100.624 87.8075 100.398 89.4247 100.971 90.1349L101.778 89.1447C101.574 86.5467 100.819 83.3515 100.2 80.7999C99.9732 79.8681 99.4315 78.7196 99.1369 77.6562Z" fill="#C49F7E"/>
<path d="M99.5474 78.9023L99.2925 79.0585C99.1816 79.9 100.009 80.5126 100.483 81.316L100.53 81.3981C100.258 80.1437 100.838 80.2142 99.5474 78.9023Z" fill="#CCAC97"/>
<path d="M96.0082 73.9102L95.5378 74.0862L96.5493 75.158C96.7517 74.9979 96.6614 75.0775 96.7856 74.768L96.0082 73.9102Z" fill="#C49F7E"/>
<path d="M100.839 86.9224L100.743 87.1465C100.585 86.9919 100.168 85.5187 100.044 85.1445C99.9544 85.6051 99.9277 85.9088 99.7012 86.3091C100.038 86.9759 100.113 87.4781 100.215 88.2375C100.299 90.5503 100.326 92.6248 100.018 94.9446L99.6412 96.9647C99.5344 97.5344 99.4274 98.1877 99.2949 98.7431C99.2955 98.7523 99.2723 101.308 99.2882 101.23L99.4784 101.367C99.4413 100.296 99.9071 99.8105 100.481 98.9511C102.218 96.8768 101.863 94.7189 101.394 92.1269C101.253 91.4073 101.062 90.8361 101.403 90.2122C100.941 89.4548 101.123 87.7298 100.839 86.9224Z" fill="url(#paint1_linear_16872_36084)"/>
<path d="M100.385 98.8633C100.202 98.4369 100.388 97.7383 100.432 97.2375C100.533 96.1436 100.556 95.0407 100.502 93.9417L100.405 93.875C100.275 94.2346 100.223 94.4771 99.959 94.7185L99.6123 96.8083C99.514 97.3976 99.4156 98.0735 99.2937 98.648C99.2943 98.6576 99.2729 101.301 99.2875 101.221L99.4626 101.362C99.4284 100.255 99.8569 99.7522 100.385 98.8633Z" fill="#A97D61"/>
<path d="M100.117 86.881L100.046 87.0998C99.9307 86.9489 99.6249 85.51 99.5339 85.1445C99.468 85.5943 99.4485 85.8909 99.2824 86.2819C99.5294 86.9332 99.5844 87.4237 99.6588 88.1654L99.6878 88.3304C99.8472 89.2616 99.9059 89.9138 99.945 90.8703C99.9629 91.3093 99.8477 92.456 99.8813 92.6317C100.289 92.4153 100.057 92.2091 100.523 91.964C100.42 91.2612 100.28 90.7034 100.53 90.094C100.191 89.3542 100.325 87.6695 100.117 86.881Z" fill="#A97D61"/>
<path d="M92.8367 103.98C94.7677 102.827 99.1103 98.7893 97.7871 96.3789C96.3323 100.101 93.8105 103.128 89.9743 104.752C89.7528 104.846 89.5276 104.931 89.2986 105.006C89.8567 105.269 90.4118 104.993 91.0094 104.799C91.6521 104.567 92.2254 104.276 92.8367 103.98Z" fill="#340F07"/>
<path d="M92.0458 68.6935C90.6696 67.8466 89.5692 67.7799 88.0506 67.6758C91.4052 69.0617 93.7353 71.0578 96.1059 74.336L96.772 75.163C96.857 74.222 96.5341 73.6145 96.1303 72.8539C94.3628 70.749 93.864 70.4218 92.0458 68.6935Z" fill="url(#paint2_linear_16872_36084)"/>
<path d="M99.2054 86.7882C98.5672 86.1125 98.5115 85.693 98.0347 85.1445C98.017 87.7431 99.2533 90.29 98.5599 92.9077C98.4902 93.1702 98.3122 94.0842 98.3627 94.2998L98.3184 95.4006C98.3444 95.7942 98.1966 96.0981 98.6094 96.3753L99.0659 96.3321L99.9425 94.5228C100.659 92.4451 100.596 90.5869 100.399 88.5155C100.163 87.8353 99.9888 87.3855 99.2054 86.7882Z" fill="url(#paint3_linear_16872_36084)"/>
<path d="M25.5827 95.1282C25.4838 94.3707 25.7291 93.7226 25.638 93.0714C25.4976 92.0683 24.7288 91.1514 24.4742 90.1367C24.4587 90.4677 24.4499 90.8787 24.4108 91.1988C24.4152 92.1065 24.4187 92.8198 24.5067 93.7292C25.3447 94.164 25.0392 94.5443 25.5827 95.1282Z" fill="#CCAC97"/>
<path d="M74.0817 102.613C73.7766 103.262 73.9148 103.235 73.0767 103.371C73.6428 104.136 74.556 105.379 75.2746 106.039C75.9033 106.151 76.4121 106.471 76.8182 106.315L76.8203 105.854C76.2673 105.234 76.1187 104.955 76.0695 104.162C75.7367 103.616 74.657 102.975 74.0817 102.613Z" fill="#CCAC97"/>
<path d="M74.3247 102.992C73.907 102.226 73.6331 101.742 73.0768 101.367C73.3087 102.32 73.462 102.969 73.7577 103.863C74.2306 103.706 74.1526 103.737 74.3247 102.992Z" fill="#D0C4AF"/>
<path d="M25.6587 83.9067C25.2315 83.8847 25.3954 83.8831 24.9613 83.9841C24.6307 84.2753 24.6041 84.3734 24.4108 84.722L24.9943 85.1424C25.1439 84.7421 25.4308 84.2969 25.6587 83.9067Z" fill="#603017"/>
<path d="M61.2247 72.668C60.8868 72.8418 60.9937 72.7916 60.598 72.8771C61.5974 73.6082 62.2849 74.2888 63.0938 75.1637C62.6142 74.4063 61.8639 73.3146 61.2247 72.668Z" fill="#603017"/>
<path d="M48.4096 76.4541C42.5671 75.9489 37.4235 80.2806 36.9275 86.1239C36.4315 91.967 40.7714 97.1038 46.6154 97.5905C52.4461 98.0763 57.5689 93.7482 58.0639 87.9182C58.5587 82.0879 54.2389 76.9584 48.4096 76.4541Z" fill="#340F07"/>
<path d="M39.4194 83.8945C39.1779 84.375 39.1288 84.6102 38.6904 84.9147C37.8985 86.8543 37.9645 89.228 38.8385 91.1349C39.8041 93.2682 41.6355 94.9406 43.917 95.7725C47.955 97.2579 51.8313 95.903 54.3594 92.6503C52.9883 93.5681 51.8646 94.4364 50.2059 94.909C45.3343 96.297 40.2157 93.087 39.9166 88.2057C39.866 87.3809 40.0143 86.2906 40.1648 85.4687C40.0633 85.1488 40.1039 85.0471 40.1547 84.7202L40.1729 84.6089C39.993 84.1783 39.8921 84.224 39.4194 83.8945Z" fill="#E9B25A"/>
<path d="M51.8291 81.4435C50.9107 81.3244 50.0883 81.3867 49.5726 82.6991C49.3586 83.2421 49.3094 83.8867 49.4366 84.4829C49.6564 85.5058 50.1512 85.8945 50.7696 86.3275C50.8851 86.3512 51.0011 86.3688 51.1175 86.3798C51.9468 86.4704 52.2691 86.12 52.8826 85.3654C53.34 83.3248 53.1686 82.5422 51.8291 81.4435Z" fill="#FFFEFC"/>
<path d="M51.8633 79.5846C46.8101 75.5832 40.2113 78.0945 38.1368 84.4842C38.5873 84.1219 38.6377 83.842 38.886 83.2704C39.3719 83.6624 39.4755 83.608 39.6604 84.1203L39.6418 84.2528C39.5895 84.6417 39.5478 84.7628 39.6522 85.1434C41.7745 78.7118 46.2869 77.4944 51.8633 79.5846Z" fill="url(#paint4_linear_16872_36084)"/>
<path d="M44.795 90.1373C42.9233 90.0957 42.5328 92.266 44.1117 93.8803C45.8737 93.6441 46.0887 91.7885 44.795 90.1373Z" fill="#FFFEFC"/>
<path d="M84.9462 76.4813C82.8803 76.2964 81.2023 76.452 79.3193 77.4689C73.1204 80.8165 72.4786 91.523 78.5924 95.2427C79.3262 95.6892 80.1367 95.9264 80.9673 96.1605C86.1781 97.3631 90.5407 93.4553 91.5157 88.4855C92.567 83.1268 90.7017 77.6442 84.9462 76.4813Z" fill="#340F07"/>
<path d="M86.2335 94.4701C86.2763 94.451 86.3193 94.432 86.3621 94.413C90.3719 91.9042 91.7112 85.9146 89.4536 81.7461C88.1029 79.2518 86.2319 77.8863 83.599 77.6774C82.7397 77.6094 81.2786 77.6917 80.564 78.1239C80.9122 78.3059 82.8842 78.0992 84.5526 78.8063C86.2338 79.5156 87.5697 80.9045 88.2574 82.6576C90.0419 87.21 88.1785 92.2313 83.7369 94.0742L83.9374 94.3157L83.6263 95.1104C84.5433 95.2631 85.8635 94.2645 86.2335 94.4701Z" fill="#E9B25A"/>
<path d="M84.5027 80.1872C83.8189 79.9711 83.1778 80.9094 83.0742 82.2787C82.9706 83.6477 83.4441 84.9238 84.1293 85.1218C84.8081 85.3178 85.4388 84.3814 85.5415 83.0252C85.644 81.6691 85.1801 80.4014 84.5027 80.1872Z" fill="#FFFEFC"/>
<path d="M83.0282 94.2972C80.5584 94.658 79.0979 94.4905 76.8206 93.875C79.3621 95.1273 82.5815 95.6036 85.5557 94.5209C85.181 94.4048 83.8445 94.969 82.9162 94.8827L83.2312 94.4336L83.0282 94.2972Z" fill="url(#paint5_linear_16872_36084)"/>
<path d="M78.252 90.1505C77.5678 90.0487 76.9313 90.5226 76.833 91.2073C76.7348 91.8921 77.212 92.5261 77.8974 92.6205C78.5773 92.7145 79.2056 92.2415 79.3031 91.5619C79.4006 90.8825 78.931 90.2516 78.252 90.1505Z" fill="#FFFEFC"/>
<path d="M66.7803 113.844C66.111 114.751 65.3959 115.687 64.6122 116.501L64.7647 114.287C62.6628 115.208 60.6747 116.108 58.5247 116.915C58.9245 116.264 59.337 115.646 59.637 114.945C55.7848 116.39 54.22 117.203 49.9317 117.742C50.6431 117.088 51.1545 116.64 51.7578 115.892C45.4443 118.147 41.238 119.764 37.3801 125.713C38.7039 124.867 39.4018 124.522 40.88 123.988C37.1769 127.501 34.9912 130.138 33.6662 135.158C34.7586 133.604 35.3379 133.085 36.7799 131.815C36.1862 133.247 35.6941 134.405 34.9578 135.78C33.9533 137.657 32.5081 139.507 32.0533 141.592C31.9732 142.007 31.8212 142.507 31.9417 142.892C32.3627 142.332 33.2194 141.007 33.8279 140.889L33.9139 141.03C33.7099 141.557 33.5157 142.088 33.3315 142.622C31.7655 147.141 32.9892 150.406 34.9116 154.606C35.27 155.389 35.8994 156.373 36.5332 156.955C36.7327 157.005 37.4062 157.32 37.6242 157.417L37.1497 155.608C38.1436 156.37 38.8925 157.433 39.9546 158.138C40.4209 158.753 41.7055 158.369 41.8711 158.457C44.241 159.716 43.5891 160.201 46.4234 159.098C49.3198 161.012 50.5738 159.482 53.5462 158.536C53.2432 159.055 52.9681 159.4 52.6063 159.874C55.5433 159.938 61.5232 159.553 64.0681 158.222C64.86 158.522 66.8242 159.173 67.6222 158.973C68.1945 158.829 69.5704 157.901 70.1911 157.783C70.7178 157.683 71.1237 158.401 71.9211 158.35C73.6853 158.236 75.0145 156.631 76.199 155.467C76.5103 155.439 76.8796 155.365 77.1805 155.233C83.3223 152.547 88.2079 147.476 91.2328 141.566C91.4684 141.106 91.7768 140.326 91.6061 139.866C91.12 139.841 90.0814 140.199 89.6261 140.374C87.4144 140.941 85.2442 141.585 83.0169 142.171C79.731 143.036 78.0396 139.128 77.4847 136.564C77.0066 134.356 77.2432 131.918 78.5054 129.985C79.396 128.951 80.1687 128.967 81.4748 128.807C84.3075 128.736 87.1379 128.594 89.9635 128.384C91.2253 128.294 93.0464 128.204 94.2445 127.977C93.8911 125.436 93.0309 123.512 91.9519 121.212C92.9599 122.125 93.4215 123.072 94.29 123.916C93.3706 120.028 90.9224 116.671 87.4949 114.597C87.1717 114.398 86.8299 114.217 86.4925 114.043C84.6731 114.367 82.8877 114.442 81.1413 114.74L82.4505 115.586C79.3209 115.534 76.9153 115.156 73.8526 114.582C72.6745 114.361 71.587 114.354 70.3696 114.028C71.2673 114.967 71.7752 115.431 72.3728 116.595C70.4284 115.547 68.8267 114.686 66.7803 113.844Z" fill="#FFFEFC"/>
<path d="M76.4399 155.514C76.7491 155.487 77.116 155.414 77.4149 155.283C83.5162 152.621 88.3696 147.596 91.3745 141.741C91.6086 141.285 91.915 140.512 91.7454 140.056C91.2625 140.031 90.2308 140.386 89.7785 140.559L90.7519 140.601L90.8336 140.731C89.1486 143.273 82.4203 147.593 79.3031 147.826C78.5239 148.429 78.4747 148.352 77.5302 148.158C76.5785 148.487 75.5647 149.166 74.5554 149.527C66.0289 152.569 55.4641 152.272 46.9813 149.205C45.8931 148.811 44.6602 148.731 43.6032 148.32C40.0711 146.947 36.8254 145.122 33.855 142.787C32.2994 147.265 33.515 150.5 35.4247 154.661C35.7808 155.437 36.406 156.412 37.0357 156.989C37.2338 157.038 37.9029 157.351 38.1194 157.446L37.648 155.654C38.6354 156.409 39.3794 157.462 40.4345 158.161C40.8977 158.771 42.1738 158.39 42.3383 158.477C44.6926 159.725 44.045 160.205 46.8606 159.112C49.7379 161.009 50.9836 159.492 53.9365 158.555C53.6354 159.07 53.3622 159.411 53.0028 159.881C55.9204 159.945 61.8609 159.563 64.389 158.244C65.1757 158.541 67.1269 159.186 67.9197 158.988C68.4882 158.846 69.855 157.926 70.4716 157.809C70.9948 157.71 71.3981 158.422 72.1902 158.371C73.9428 158.258 75.2632 156.668 76.4399 155.514Z" fill="#CCAC97"/>
<path d="M69.3335 152.563C67.9134 152.687 67.0002 152.725 65.5899 152.523C65.6161 153.766 65.6994 154.694 65.971 155.881C66.1297 156.178 66.057 156.072 66.3213 156.266C67.4949 156.318 68.8446 153.762 69.3335 152.563Z" fill="#A97D61"/>
<path d="M80.3865 125.078C79.0922 125.381 78.1395 125.441 76.8204 125.483C77.1727 127.091 77.5728 128.709 78.3459 130.07C79.0111 129.062 79.5883 129.077 80.564 128.921L79.9145 128.869C79.8685 128.66 79.8673 128.771 79.9122 128.591C80.1698 127.556 80.3425 126.166 80.3865 125.078Z" fill="#C49F7E"/>
<path d="M80.564 143.797C79.2776 144.026 78.1217 144.196 76.8204 144.253C76.8896 146.369 77.0652 146.666 77.5101 148.616C78.2994 148.853 78.3406 148.948 78.9919 148.211C79.8676 147.001 80.2004 145.428 80.564 143.797Z" fill="#C49F7E"/>
<path d="M68.085 126.324C66.8885 126.683 64.3827 126.643 63.0935 126.636C63.405 128.091 63.5885 128.774 64.2289 130.118C66.2775 133.891 67.8036 127.664 68.085 126.324Z" fill="#C49F7E"/>
<path d="M49.4429 126.324C49.1195 126.636 49.9183 130.402 50.3929 130.889C51.3901 131.914 52.0737 130.858 52.642 130.168C53.4462 128.89 53.8721 127.911 54.3594 126.493C52.6228 126.535 51.1675 126.441 49.4429 126.324Z" fill="#C49F7E"/>
<path d="M73.0767 135.062C71.3093 135.296 69.8511 135.329 68.0852 135.36C68.2589 136.668 68.5583 137.658 69.089 138.865C69.4755 139.433 69.6031 139.57 70.1039 140.054C71.9702 138.837 72.5613 137.051 73.0767 135.062Z" fill="#C49F7E"/>
<path d="M52.0723 135.064C52.0015 135.054 51.9327 135.096 51.8641 135.117C51.8486 136.374 52.1443 138.486 52.8365 139.534C53.6369 140.744 54.58 139.551 55.1636 138.888C55.9275 137.661 56.3417 136.702 56.855 135.345C55.2636 135.385 53.6553 135.221 52.0723 135.064Z" fill="#C49F7E"/>
<path d="M89.2442 122.578C87.9294 123.106 86.9415 123.361 85.5552 123.49C85.9186 124.609 86.2245 125.291 86.7525 126.324C86.9906 126.695 87.487 127.48 87.8932 127.553C89.6416 127.868 89.2799 123.568 89.2442 122.578Z" fill="#C49F7E"/>
<path d="M65.5894 146.293C63.8716 146.319 62.3142 146.332 60.5979 146.307C60.7575 147.142 60.8535 147.53 61.3778 148.3C63.1375 149.9 65.0504 147.127 65.5894 146.293Z" fill="#C49F7E"/>
<path d="M43.6385 143.823L43.3056 143.797L43.1447 143.99C43.0219 145.643 43.5889 147.51 44.6329 148.788C45.4938 148.371 45.5697 148.356 46.3138 147.704C47.2661 146.517 47.571 145.957 48.1196 144.519C46.3393 144.439 45.3785 144.255 43.6385 143.823Z" fill="#C49F7E"/>
<path d="M18.902 93.6268C18.1855 92.3988 15.9109 88.7352 14.9598 87.6406L14.9288 87.8357C14.7609 88.8651 14.2047 90.1937 14.0845 91.1626C13.8893 92.7346 15.0273 95.685 15.0269 97.3497C15.0269 97.6274 16.3208 100.135 16.5301 100.827L16.5891 101.016L15.969 101.918C18.4079 104.96 19.7825 106.091 22.7807 108.609C20.87 108.183 18.4531 105.838 16.9005 104.772C15.5299 106.036 14.319 107.577 13.1796 109.055C13.6229 109.162 15.1148 109.954 15.6487 110.201C16.9198 110.79 18.0566 111.282 19.3999 111.706C22.939 112.824 26.3377 113.322 30.0006 113.771C31.2886 113.929 32.8737 114.362 34.1257 114.498C37.4485 114.858 42.3702 115.352 45.624 114.934C38.9491 113.452 31.5555 110.17 26.544 105.468C25.8481 104.814 21.9891 101.719 21.9158 100.941C22.2744 101.041 22.2549 101.059 22.6213 101.08C22.5451 100.322 17.3732 95.1242 16.8292 93.0559L17.0011 92.9784C17.637 93.0439 18.2976 93.3747 18.902 93.6268Z" fill="#925334"/>
<path d="M72.7678 101.68C72.3718 101.545 72.4905 101.118 72.4955 100.73C72.5231 98.1099 72.0708 95.8182 70.1712 93.9081C66.1799 89.8944 65.3004 96.4536 62.9644 98.5041C62.8164 98.6339 63.0223 99.1094 63.0754 99.2821L63.7986 100.314C62.8204 102.641 61.332 104.837 59.3314 106.373L58.7446 106.99C58.422 107.242 58.3556 107.27 58.1024 107.605L58.2567 107.607C60.4842 106.401 62.1083 105.258 63.5066 103.004C64.2829 103.618 65.0217 104.33 65.7827 104.963C67.3662 106.281 68.1038 106.023 69.4202 104.718C69.8774 105.169 69.7478 105.171 70.2845 105.317C71.2671 105.06 71.6948 103.425 72.1624 102.554C73.3761 104.998 74.1239 106.43 76.8203 107.465C76.4379 107.078 75.7782 106.449 75.465 106.039C74.8957 105.445 74.1723 104.326 73.7238 103.637C73.3086 102.935 73.0933 102.427 72.7678 101.68Z" fill="#340F07"/>
<path d="M69.3335 104.143C68.3981 103.327 67.5539 103.733 66.2482 103.094C65.0902 102.528 64.7657 102.172 63.8667 101.367C63.6171 101.8 63.3597 102.229 63.0942 102.656C63.9133 103.188 64.6927 103.806 65.4956 104.356C67.1664 105.499 67.9446 105.276 69.3335 104.143Z" fill="#925334"/>
<path d="M67.6796 94.0918L67.3528 93.875C66.5876 94.0798 64.8619 97.1914 64.3412 98.0285C65.3309 98.7467 66.224 99.3873 67.1521 100.19C68.0103 100.932 68.9904 101.989 69.8978 102.61C70.6204 102.464 70.6358 101.447 70.5372 100.848C70.7088 98.5696 70.3957 94.6233 67.6796 94.0918Z" fill="#603017"/>
<path d="M68.0932 93.875C67.9509 94.6056 69.6694 96.9142 69.735 98.1493C69.7505 98.4406 70.3251 101.338 70.3459 101.362C70.3985 101.312 70.5071 101.216 70.5477 101.16C70.695 98.7031 70.4261 94.448 68.0932 93.875Z" fill="#CCAC97"/>
<path d="M25.9973 95.1289C25.9776 95.391 25.979 95.8924 25.8682 96.0813C25.5856 96.5542 25.6523 96.9337 25.7037 97.5144C26.6443 103.386 31.8915 106.76 37.1408 107.664C36.2443 107.708 36.4738 107.556 35.9368 108.149L35.4714 108.035L35.4235 108.213C39.9191 109.741 43.5825 108.896 47.9653 108.352C47.3859 108.587 46.6191 108.864 46.096 109.184L45.531 109.813L45.5593 109.979C45.8572 110.028 46.156 110.069 46.4558 110.103C49.6442 109.461 52.5078 108.078 55.3066 106.389C56.1797 105.862 56.9356 105.135 57.8447 104.695L58.036 104.631C58.3604 105.143 58.3733 105.305 58.5374 105.913L58.7093 106.087C60.6729 104.532 62.1337 102.31 63.0938 99.9547L62.3839 98.9103C62.1159 100.161 59.5444 103.208 58.4468 103.66L58.3423 103.529L58.4229 102.839L58.3011 102.793C57.6999 103.307 56.2877 104.555 55.6279 104.936C52.3366 106.835 48.3332 107.545 44.6131 107.36C43.5 107.305 41.0626 106.673 39.9191 106.354C38.2931 105.788 36.3837 105.451 34.8258 104.701C30.6217 102.679 28.1812 99.0882 25.9973 95.1289Z" fill="#CCAC97"/>
<path d="M25.8741 96.3789C25.5839 96.8346 25.6524 97.2003 25.7052 97.76C26.6709 103.418 32.0586 106.67 37.4483 107.541C38.2647 107.749 37.6367 107.408 38.0773 107.523L37.9759 107.571L38.1367 107.504C37.8972 107.239 34.9612 106.218 34.3219 105.873C29.5779 103.314 27.2927 101.402 25.8741 96.3789Z" fill="url(#paint6_linear_16872_36084)"/>
<path d="M25.6587 137.551C25.0803 137.532 23.1863 138.618 22.3955 138.912C20.5257 139.607 14.2545 141.1 13.2604 138.805C11.3697 140.804 9.60573 142.46 7.42155 144.149C7.15043 144.364 6.89382 144.627 6.94805 145.013C7.1395 146.37 8.94911 146.327 9.86331 146.259C15.7119 145.83 21.9443 141.898 25.6587 137.551Z" fill="#925334"/>
<path d="M92.294 103.863C91.7318 104.144 91.2046 104.421 90.6134 104.641C90.0638 104.825 89.5532 105.086 89.04 104.837C88.3267 104.776 87.6063 105.309 87.0327 105.709C85.3039 105.773 83.2832 105.878 81.5588 105.775C80.5584 105.716 79.152 105.129 78.1378 104.958C77.7361 104.891 77.2339 104.981 76.8198 104.963C77.9965 106.035 79.9448 107.18 81.4782 107.578C82.0065 107.601 82.2572 107.704 82.6219 107.302C85.1542 107.592 87.4466 107.828 89.8548 106.73C90.6811 106.354 92.6045 105.118 93.042 104.419C92.7928 104.206 92.5608 104.052 92.294 103.863Z" fill="#CCAC97"/>
<path d="M92.2711 103.863C91.6915 104.149 91.1481 104.43 90.5388 104.654C90.8201 104.91 90.9489 104.994 91.1252 105.336C88.1099 106.788 86.2838 106.938 82.8993 106.647C82.4042 106.605 80.98 106.388 80.5764 106.467L80.5634 106.634C80.9937 107.001 81.7534 107.215 82.3016 107.36C84.9117 107.655 87.2747 107.895 89.7568 106.779C90.6086 106.396 92.5911 105.14 93.042 104.429C92.7852 104.212 92.546 104.055 92.2711 103.863Z" fill="url(#paint7_linear_16872_36084)"/>
<path d="M92.6577 103.863C92.3688 104.105 92.0979 104.343 91.7941 104.533C91.9344 104.75 91.9986 104.821 92.0865 105.111C92.4149 104.819 92.6859 104.533 93.042 104.342C92.914 104.159 92.7947 104.026 92.6577 103.863Z" fill="#A97D61"/>
<path d="M6.29101 127.57C5.66992 131.684 5.56899 134.264 5.81832 138.401C6.74029 136.44 6.95806 135.397 8.28398 133.699C6.87129 137.202 5.54837 139.927 6.60756 143.793C8.57132 142.726 11.2195 140.401 12.722 138.592L13.1792 137.986C12.1428 138.562 8.3454 143.18 6.75746 143.351C5.6972 140.669 7.18549 136.375 8.43002 134.011L8.50883 133.862C8.49853 133.325 8.44977 133.26 7.9962 132.761C6.93679 131.595 6.6067 129.224 6.29101 127.57Z" fill="#925334"/>
<path d="M95.5376 112.616C95.1697 111.752 94.8332 110.859 94.3029 110.105C93.2528 110.686 90.2081 112.58 89.1927 112.084L89.241 111.784C88.4741 111.445 83.8652 112.919 83.059 113.448L83.0662 113.601C84.7942 114.246 93.3445 113.532 95.12 112.633L95.5376 112.616Z" fill="#925334"/>
<path d="M41.8804 66.6095C41.1297 66.1329 39.1356 66.734 38.2516 66.9163C33.2441 67.9487 28.0181 71.7055 25.6581 76.4126C26.8895 75.2188 27.7252 74.3145 29.1589 73.3878C32.4013 69.7795 37.5342 68.0977 41.8804 66.6095Z" fill="#340F07"/>
<path d="M31.5918 58.7905C28.719 57.9363 26.58 57.0063 24.0209 55.3343C23.3227 54.8783 22.7504 54.3449 22.0647 53.9453L21.9214 54.0127C21.8819 54.5874 22.0196 54.9837 22.1546 55.543C24.1864 56.9116 29.7291 60.2258 31.8975 60.1842C31.7845 59.7901 31.6796 59.207 31.5918 58.7905Z" fill="#CCAC97"/>
<path d="M59.3506 106.341L59.1787 106.194C59.0146 105.68 59.0017 105.542 58.6773 105.109L58.4859 105.164C57.5767 105.536 56.8207 106.151 55.9475 106.596C53.1484 108.025 50.2844 109.195 47.0956 109.739C46.6776 109.831 46.1222 109.885 45.6241 109.989L45.777 110.09C49.3442 110.226 53.163 109.034 56.0828 107.238C56.1748 107.456 56.1609 107.445 56.368 107.586C57.3643 107.446 57.5619 106.313 58.7746 106.869L59.3506 106.341Z" fill="url(#paint8_linear_16872_36084)"/>
<path d="M59.3506 106.35L59.1536 106.202C58.9657 105.684 58.9509 105.545 58.5793 105.109L58.36 105.164L58.4091 105.308C57.7002 106.019 56.566 106.751 55.607 107.254C55.7124 107.474 55.6965 107.463 55.9337 107.605C57.0751 107.464 57.3015 106.322 58.6907 106.882L59.3506 106.35Z" fill="#C49F7E"/>
<path d="M23.9739 91.0795C23.9143 90.6915 23.8781 90.5154 23.7785 90.1367L23.6381 90.1817L23.4461 90.757C23.4715 91.5504 23.1888 92.2803 23.1685 93.0295C23.1075 95.2869 23.5494 98.0988 24.5414 100.12C24.5581 99.8407 24.5832 99.5338 24.5909 99.2577C24.9112 99.1706 25.0738 98.9072 25.3531 98.6261C25.2995 98.0293 25.2301 97.6393 25.5243 97.1533C25.6396 96.9592 25.6382 96.444 25.6587 96.1746L25.4512 95.949C24.766 95.2253 25.1512 94.7541 24.0947 94.2153C23.9838 93.0882 23.9794 92.2043 23.9739 91.0795Z" fill="#340F07"/>
<path d="M25.4932 95.1621C24.9464 94.6249 25.2538 94.275 24.4108 93.875C24.4772 95.01 24.6248 96.4877 24.8067 97.6186C25.0623 97.554 25.192 97.3584 25.4148 97.1497C25.3721 96.7066 25.3167 96.4171 25.5515 96.0563C25.6435 95.9122 25.6423 95.5296 25.6587 95.3296L25.4932 95.1621Z" fill="#A97D61"/>
<path d="M36.2012 108.031C35.7343 107.89 34.8213 107.552 34.3931 107.613C38.1652 109.723 42.3051 111.125 46.3433 109.161C46.8404 108.788 47.569 108.467 48.1196 108.193C43.9546 108.826 40.4734 109.81 36.2012 108.031Z" fill="url(#paint9_linear_16872_36084)"/>
<path d="M29.4019 75.1641C28.5864 75.6016 28.3172 75.7749 27.5952 76.3266L27.4761 76.4649C26.8887 77.1391 26.0494 77.8103 25.467 78.5131C23.5471 80.8295 22.421 83.5792 21.9147 86.3948C22.8585 84.7709 24.0623 81.8435 25.2808 80.4902C26.4106 78.375 27.7823 76.9861 29.4019 75.1641Z" fill="url(#paint10_linear_16872_36084)"/>
<path d="M23.6931 85.1445C22.0641 87.4778 21.5366 90.0907 22.1814 92.6317C22.3734 91.4724 22.5871 90.676 22.9285 89.5475C23.0555 89.8915 23.0246 90.1759 23.5914 90.3067L23.85 89.8044L24.039 89.765C24.1732 90.0957 24.2219 90.2495 24.3021 90.5882C24.3684 90.2418 24.3834 89.7972 24.4097 89.439C23.8841 88.0184 24.4561 87.2734 24.0926 86.1765L24.4051 85.6744L23.6931 85.1445Z" fill="#603017"/>
<path d="M24.1426 86.3945C23.7053 87.3792 23.4609 88.2492 23.1618 89.255C23.2688 89.5469 23.2428 89.7882 23.7203 89.8992L23.9382 89.473L24.0974 89.4396C24.2104 89.7202 24.2515 89.8507 24.3191 90.1381C24.3749 89.8442 24.3875 89.4668 24.4097 89.1629C23.9669 87.9575 24.4488 87.3253 24.1426 86.3945Z" fill="#CCAC97"/>
<path d="M75.5721 103.863C75.6145 104.627 75.7429 104.896 76.2202 105.493C78.9245 107.95 80.6363 108.385 84.3071 108.855C83.4407 108.453 82.3471 108.172 81.6862 107.681C79.9103 107.22 77.654 105.898 76.2912 104.659L75.5721 103.863Z" fill="url(#paint11_linear_16872_36084)"/>
<path d="M94.7444 111.352L94.3 111.371C94.1518 112.646 95.6926 115.279 95.6955 117.267C96.0626 117.77 96.429 118.321 96.7856 118.839C96.3743 115.644 95.8893 114.209 94.7444 111.352Z" fill="#C49F7E"/>
<path d="M98.8982 100.125C98.5009 100.675 97.7703 103.163 98.1329 103.869C98.4324 103.441 98.9956 102.377 99.2827 101.861C99.2549 101.169 99.2134 100.953 99.0802 100.277L98.8982 100.125Z" fill="#C49F7E"/>
<path d="M14.4272 136.312C14.0826 136.914 13.8682 137.535 13.5012 138.066L13.1794 138.731L13.4943 138.808C13.781 138.301 14.2324 136.965 14.4272 136.312Z" fill="#925334"/>
<path d="M98.507 95.1289C98.3017 95.7867 97.5908 97.1197 98.447 97.6246C98.7668 97.1328 99.025 96.5543 99.2827 96.0499L98.8089 96.0925C98.3805 95.8185 98.534 95.518 98.507 95.1289Z" fill="#925334"/>
<path d="M13.2038 123.832C11.984 124.791 11.8837 128.271 11.9446 129.784C13.5492 132.734 15.7825 130.81 17.5314 129.185C17.8152 128.888 18.0046 128.737 18.1704 128.341C17.863 128.355 16.2271 129.829 15.5673 130.127C11.2885 132.061 12.7102 126.895 13.2038 123.832Z" fill="#925334"/>
<path d="M18.9173 126.324C18.028 127.19 18.1222 129.908 18.26 131.195C18.6799 135.121 21.4035 133.96 23.1361 132.04C24.1821 130.881 24.7939 129.852 25.5298 128.379L25.6587 127.879L25.5586 127.849C24.7708 129.157 21.2051 134.839 19.248 132.823C18.3511 131.9 18.8547 127.897 18.9173 126.324Z" fill="#925334"/>
<path d="M109.811 40.9467C110.161 40.9409 110.369 40.9268 110.513 40.5865C110.053 39.5661 106.397 38.727 105.221 38.3666L97.4542 35.9894C88.672 33.2928 79.8703 30.6636 71.0502 28.1022C69.7167 27.7146 61.4059 25.1233 60.8464 25.2548C55.6294 26.482 46.0162 29.6884 40.9627 30.8714C36.4216 32.0221 31.3064 33.7658 26.7551 35.1001C22.6636 36.2993 18.2656 37.6445 14.2304 39.0105C13.3515 39.1231 12.6553 39.6647 11.9315 40.1666C18.6737 42.2666 25.3944 44.4397 32.092 46.6856C37.9137 48.6344 43.6987 50.6429 49.5969 52.3631C53.9836 53.6424 58.4655 55.4119 62.9017 56.4466L75.9923 52.0305C80.7108 50.4808 85.6194 49.0584 90.3596 47.4985C93.0323 46.6191 95.8786 45.62 98.5665 44.8729C97.5037 44.5657 95.5212 44.0448 94.4103 44.1072C93.9364 44.0931 92.6561 43.8509 92.128 43.7671L87.7976 43.104L76.2118 41.387C73.114 40.8962 69.7389 40.2397 66.6241 40.1001C65.9444 40.0695 64.4568 40.5122 63.5649 40.5974C61.3698 40.8159 58.9333 40.6363 57.1429 39.1688C55.9552 38.195 56.0844 36.7008 57.1719 35.718C59.194 33.8908 62.9348 33.7612 65.3869 34.6508C66.4581 35.0396 67.5035 35.8289 68.6504 36.0154C72.1964 36.6904 75.758 37.0991 79.3217 37.6166L95.0499 40.0178C97.9584 40.4681 101.157 40.7909 104.03 41.4465C104.585 41.5732 105.021 42.1421 105.429 42.5831C106.432 42.1812 109.349 41.4955 109.811 40.9467Z" fill="#454444"/>
<path d="M14.2159 38.9727C13.3424 39.0855 12.6505 39.6281 11.9311 40.131C18.6319 42.2351 25.3113 44.4124 31.9677 46.6627C37.7537 48.6153 43.5031 50.6277 49.365 52.3512C53.7248 53.6331 58.1792 55.406 62.5881 56.4427L75.5983 52.0181C80.2877 50.4653 85.1662 49.0402 89.8772 47.4772C92.5336 46.5961 95.3624 45.5951 98.0337 44.8465C96.9774 44.5386 95.0071 44.0167 93.9031 44.0792L93.7901 44.3776C93.2789 44.7059 88.9323 45.8101 87.9364 46.1055L68.5309 51.9721C67.7506 52.2136 63.0373 53.7693 62.4773 53.6528C59.705 53.0755 56.5015 52.0567 53.7484 51.218L37.3329 46.1204C35.9066 45.6892 34.2124 45.4839 32.8888 45.0309C27.954 43.3421 22.9466 41.954 18.0112 40.2791C17.0658 39.9581 14.946 39.4418 14.2159 38.9727Z" fill="url(#paint12_linear_16872_36084)"/>
<path d="M109.808 41.4722C110.159 41.4662 110.368 41.4517 110.513 41.1C110.051 40.0454 106.377 39.1782 105.196 38.8057L97.3921 36.3489C88.5683 33.562 79.7247 30.8449 70.8627 28.1977C69.5229 27.7971 61.1726 25.119 60.6105 25.255C55.3687 26.5233 45.7098 29.837 40.6324 31.0596L41.1291 31.3059L41.0746 31.4083L40.8389 31.4727C41.9086 31.4519 43.866 30.8153 44.943 30.5092L52.8182 28.2458C54.3631 27.7903 59.5235 26.0652 60.7033 26.2238C63.5615 26.6076 67.9984 28.2892 70.8604 29.2236L95.0748 37.1908C99.6647 38.7019 105.116 40.9439 109.808 41.4722Z" fill="#969495"/>
<path d="M63.0695 58.4181C60.4841 57.9094 59.3539 57.3561 56.9737 56.7016L39.466 51.7631C37.7555 51.2968 35.6671 50.4905 33.9992 50.2031C33.5364 51.9542 32.8867 57.5596 33.2526 59.2458C36.2271 61.585 42.4581 62.7256 46.2732 63.5588C51.7536 64.6504 58.7857 67.0327 64.0613 68.9211C64.7986 68.7002 67.2724 67.6899 68.0373 67.38C70.7492 66.281 73.6946 65.2372 76.3667 64.3266C78.0689 63.7464 85.9899 61.6194 86.7684 61.0431L88.0409 60.5506C88.158 58.4322 87.2503 53.5707 86.8891 51.1786C86.1756 51.305 85.8088 51.4523 85.1415 51.6941C84.0463 51.8677 81.3747 52.7188 80.2291 53.0547C76.2564 54.2385 72.2964 55.4606 68.3497 56.7205C67.4502 57.0043 63.6721 58.1077 63.0695 58.4181Z" fill="#454444"/>
<path d="M63.0884 57.8786C60.5014 57.4033 59.3705 56.8864 56.9888 56.2749L39.4701 51.6607C37.7585 51.225 35.6688 50.4716 33.9999 50.2031C33.5368 51.8392 32.8867 57.0766 33.2528 58.652C36.2291 60.8376 42.4641 61.9033 46.2816 62.6818C46.3099 60.2766 46.4421 58.853 46.7546 56.457C50.1762 57.134 53.7281 58.2624 57.166 58.962C58.981 59.3315 61.9869 60.6498 63.8029 60.0155C65.1057 59.5605 66.5514 58.963 67.8528 58.4805C70.2384 57.6042 72.6487 56.783 75.0816 56.0181C77.7926 55.1641 80.3458 54.4276 83.1482 53.8255C84.0735 53.6268 84.8069 53.6034 85.5557 53.4455C85.4706 52.744 85.3503 52.2824 85.1743 51.5962C84.0785 51.7583 81.4052 52.5536 80.2588 52.8674C76.2837 53.9735 72.3211 55.1154 68.3719 56.2926C67.4719 56.5576 63.6914 57.5887 63.0884 57.8786Z" fill="#2E2D2E"/>
<path d="M86.5561 50.2031C85.6382 50.331 85.1662 50.4801 84.3077 50.7248C84.534 51.468 84.6887 51.9681 84.798 52.7278C85.172 54.2815 85.4909 55.8422 85.7549 57.4085C85.8333 57.9017 85.9745 59.9584 86.4008 60.186L88.0379 59.6876C88.1886 57.5438 87.0208 52.6239 86.5561 50.2031Z" fill="#969495"/>
<path d="M30.7447 135.062C27.5344 139.348 24.3273 142.668 19.4186 145.341C22.9338 151.128 29.705 155.304 36.3716 157.424C36.5394 157.478 36.7141 157.499 36.8887 157.524C36.2198 156.944 35.5557 155.963 35.1774 155.182C33.1488 150.997 31.8575 147.742 33.51 143.237C33.7044 142.705 33.9094 142.176 34.1246 141.65L34.0338 141.509C33.3918 141.627 32.4877 142.948 32.0434 143.506C31.9163 143.122 32.0767 142.624 32.1612 142.21C31.9336 141.937 30.058 140.146 30.0669 139.974C30.1145 139.055 31.4864 135.856 30.7447 135.062Z" fill="#925334"/>
<path d="M112.371 123.832C110.556 124.258 108.763 125.148 107.007 125.744C105 126.425 102.566 127.208 100.53 127.676C101.895 129.798 102.368 131.042 102.443 133.667C102.372 134.608 102.286 135.376 102.158 136.311C105.317 135.636 109.49 135.624 112.742 135.17C113.418 135.076 114.194 135.009 114.605 134.392C115.387 133.218 115.62 131.109 115.453 129.715C115.285 127.22 114.465 125.186 112.371 123.832Z" fill="#FFFEFC"/>
<path d="M115.457 130.07C115.433 130.432 115.435 131.041 115.281 131.325C112.516 132.854 106.234 132.91 103.293 133.809C103.226 134.699 103.146 135.425 103.026 136.31C105.979 135.672 109.881 135.66 112.922 135.231C113.554 135.142 114.279 135.079 114.663 134.494C115.394 133.384 115.613 131.389 115.457 130.07Z" fill="#D0C4AF"/>
<path d="M17.9151 146.293C16.5169 147.289 15.5156 148.552 14.3838 149.952C13.878 150.578 9.37677 154.993 11.058 155.84C12.2933 156.463 15.7552 155.273 16.9556 154.619C17.4435 154.353 18.483 153.043 19.1461 152.862C19.0824 153.101 17.2536 155.079 16.8902 156.078C15.7231 159.289 17.0738 159.747 19.8147 158.422C21.3793 157.54 22.4132 156.74 23.7473 155.541C23.4353 156.843 23.1269 160.146 25.2135 160.016C26.8337 159.915 28.3365 158.412 29.4019 157.257C24.5949 154.884 20.5915 151.063 17.9151 146.293Z" fill="url(#paint13_linear_16872_36084)"/>
<path d="M95.1108 130.07C91.1064 130.519 87.0866 130.819 83.0591 130.971C84.5667 132.196 85.5105 133.962 85.6796 135.875C85.7104 136.237 85.7099 136.646 85.7099 137.011C85.6082 138.324 85.5383 138.813 85.1036 140.053C88.8512 139.213 92.6992 137.927 96.5187 137.031C96.6846 136.208 96.7325 135.719 96.7856 134.885C96.7759 132.828 96.3941 131.738 95.1108 130.07Z" fill="#FFFEFC"/>
<path d="M96.7856 135.062C93.2594 135.78 88.507 136.81 84.9546 137.116C84.846 138.384 84.7714 138.856 84.307 140.054C88.3102 139.243 92.4205 138 96.5005 137.135C96.6777 136.34 96.7289 135.867 96.7856 135.062Z" fill="#D0C4AF"/>
<path d="M101.582 42.7774C98.1788 42.1649 94.849 41.7355 91.4342 41.2399C86.7621 40.5316 82.0857 39.8519 77.4053 39.2008C74.2633 38.7578 71.1371 38.1438 67.9887 37.7325C67.3417 37.6482 66.7513 38.4768 66.8482 39.096C67.1845 39.4051 76.4858 40.5966 77.7497 40.7762L92.0141 42.9008C94.032 43.187 99.8758 43.847 101.585 44.4443C101.976 46.1447 102.311 48.6896 102.573 50.4927C103.024 53.5885 103.62 57.0856 103.913 60.1881L105.521 59.9509C105.5 57.8887 104.896 54.4485 104.595 52.3018C104.322 50.347 103.925 46.9201 103.468 45.0151C103.227 43.455 103.136 43.1382 101.582 42.7774Z" fill="url(#paint14_linear_16872_36084)"/>
<path d="M104.274 44.913C103.955 43.3804 103.835 43.0693 101.778 42.7148C101.871 43.3477 102.225 43.4057 102.916 43.7739C103.148 44.3132 103.269 44.6938 103.668 45.1799L103.939 45.2106L104.274 44.913Z" fill="#F2DB9D"/>
<path d="M112.15 74.5853C111.588 72.215 110.385 66.5475 108.361 65.1839C107.922 65.1697 108.062 65.1727 107.62 65.5081C106.875 65.7627 106.668 65.7259 105.883 65.7103C105.516 65.7188 105.215 65.6403 105.029 65.9467C103.821 67.9323 104.328 72.3389 104.732 74.3411C104.962 75.4612 105.248 76.5684 105.589 77.6583C105.999 77.6066 106.413 77.5481 106.825 77.5215C106.655 76.5662 106.043 73.7857 106.47 73.0424C106.552 73.3493 106.703 73.8549 106.758 74.1496L107.985 77.591C108.682 77.4578 109.584 77.3244 110.217 77.0251L110.774 76.8292C111.517 76.2308 112.915 76.645 113.008 75.6681C112.851 75.1763 112.528 74.9477 112.15 74.5853Z" fill="#F9C130"/>
<path d="M105.848 66.4326C105.489 66.4406 105.195 66.3668 105.013 66.6547C103.831 68.5206 104.327 72.6617 104.723 74.5432C104.947 75.5958 105.227 76.6363 105.561 77.6605C105.962 77.6119 106.366 77.5569 106.77 77.5319C106.603 76.6342 106.004 74.0212 106.422 73.3228C106.493 73.0532 106.149 71.2675 106.066 70.8966C105.725 69.3674 106.026 67.8765 105.848 66.4326Z" fill="#EF9B44"/>
<path d="M112.837 74.8693C112.239 72.4274 110.96 66.5888 108.806 65.184C108.338 65.1694 108.487 65.1724 108.017 65.518C109.348 66.5707 110.047 69.2151 110.578 70.7955C111.058 72.2223 111.74 73.8156 111.908 75.2889C112.079 75.8734 112.073 76.1956 112.68 76.4105L112.927 76.2004C113.107 75.7553 112.947 75.3475 112.837 74.8693Z" fill="#F2DB9D"/>
<path d="M110.513 77.163C108.908 76.6433 108.058 72.7941 107.303 71.4219C107.341 72.105 107.731 74.3489 107.19 74.7617L106.769 74.6315L108.097 77.6612C108.851 77.5439 109.827 77.4265 110.513 77.163Z" fill="#EF9B44"/>
<path d="M109.936 73.9102L109.465 73.9574C109.371 74.1083 109.316 74.1644 109.265 74.3281L110.258 77.6537C111.173 76.9832 112.894 77.4474 113.008 76.3526C112.815 75.8015 112.417 75.5454 111.952 75.1392C112.079 75.6594 112.264 76.103 112.057 76.5871L111.77 76.8156C111.068 76.5819 111.075 76.2315 110.877 75.5957C110.296 75.0041 110.238 74.6654 109.936 73.9102Z" fill="#603017"/>
<path d="M110.513 74.7324C110.207 73.6492 109.917 72.4192 109.402 71.4278L109.271 71.4219C109.218 72.8076 109.513 73.8271 109.841 75.1655C109.892 74.9958 109.947 74.9377 110.041 74.7814L110.513 74.7324Z" fill="#B06F43"/>
<path d="M97.092 108.855C96.7466 109.067 95.8967 109.765 95.5387 110.046C99.0918 114.685 100.02 121.929 99.261 127.573C99.882 127.501 100.576 127.352 101.196 127.236C101.76 127.108 102.322 126.975 102.884 126.838C103.628 120.47 101.412 113.672 97.092 108.855Z" fill="url(#paint15_linear_16872_36084)"/>
<path d="M73.5221 160.235C72.0198 160.302 71.2814 160.424 69.8218 160.02C67.9049 161.118 67.8331 160.75 65.7253 161.211C65.4749 161.266 65.4558 161.841 65.3579 161.933C64.6416 162.606 63.5824 162.854 63.0939 163.749L63.1383 164.004C64.0913 164.598 66.5834 163.767 67.8893 163.836C69.036 163.897 68.9756 163.867 70.0956 164.176C70.9474 164.692 74.6258 166.306 75.7544 166.258C76.1323 166.072 76.0016 166.206 76.1562 165.838C75.953 164.297 74.6781 163.23 73.8167 161.911L73.7359 161.786C76.3929 162.648 76.6377 164.133 80.1213 163.794C80.4655 163.76 80.4191 163.763 80.564 163.561C80.0156 162.379 75.7331 161.146 74.3832 160.717L73.5221 160.235Z" fill="#EF9B44"/>
<path d="M73.4681 160.211C71.9736 160.272 71.2389 160.38 69.787 160.02C67.88 160.999 67.8086 160.671 65.7117 161.081C65.4626 161.13 65.4436 161.643 65.3462 161.725C64.6337 162.325 63.58 162.546 63.0939 163.343L63.1382 163.571C64.0862 164.101 66.5654 163.36 67.8645 163.421C69.0052 163.476 68.9452 163.449 70.0594 163.724C69.7806 163.374 69.0509 163.015 69.0844 162.622C69.1964 161.307 73.2192 160.707 74.3247 160.641L73.4681 160.211Z" fill="#B06F43"/>
<path d="M46.2122 161.563C44.3411 162.637 43.5606 162.431 41.8657 161.266C41.4799 161.835 41.1625 162.211 40.7274 162.729C40.0837 163.381 37.439 165.829 38.3111 166.755C39.7576 166.902 41.8622 165.411 43.4102 165.453C43.6228 165.459 43.9002 165.819 44.033 165.966C44.6268 166.624 45.2305 168.506 46.0179 168.753C46.8625 168.361 47.5276 165.827 48.0631 164.826C49.1745 165.444 51.6807 166.795 52.9837 166.54C53.7491 165.757 50.8279 163.475 50.3732 162.762C49.73 162.026 47.9882 163.44 46.2122 161.563Z" fill="#EF9B44"/>
<path d="M45.7705 161.439C43.592 162.065 42.6832 161.945 40.7098 161.266C40.2606 161.597 39.8911 161.817 39.3845 162.119C42.0031 162.533 48.2688 162.738 50.6152 162.138C49.8663 161.709 47.8384 162.533 45.7705 161.439Z" fill="#B06F43"/>
<path d="M100.611 129.617C100.411 129.264 100.324 129.013 99.9668 128.82C99.1339 128.905 97.6191 129.234 96.8063 129.466C96.7758 129.758 96.7621 129.614 96.9148 129.893C97.6674 131.178 98.011 131.915 98.2127 133.407C98.2076 134.381 98.2204 135.338 98.1177 136.307C99.2198 136.164 100.411 136.024 101.489 135.786C101.666 135.038 101.717 134.723 101.778 133.958C101.774 132.376 101.552 130.963 100.611 129.617Z" fill="#E9342F"/>
<path d="M101.778 134.286C100.793 134.317 99.2007 134.662 98.3616 134.354C98.2162 134.301 98.1805 133.985 98.1319 133.812C98.1267 134.65 98.1398 135.474 98.0347 136.308C99.1619 136.185 100.38 136.064 101.483 135.86C101.664 135.216 101.716 134.945 101.778 134.286Z" fill="#CB2927"/>
<path d="M100.53 129.706C100.334 129.314 100.249 129.035 99.8993 128.82C99.084 128.914 97.6013 129.28 96.8057 129.538C96.7759 129.863 96.7625 129.703 96.9119 130.014C97.425 130.194 100.121 129.884 100.53 129.706Z" fill="#E5827B"/>
<path d="M66.6297 38.1826C66.9815 37.4188 66.9003 36.7124 66.2794 36.2792C64.3215 34.9135 61.2927 34.9983 59.248 35.8656C58.7074 35.9985 58.4179 36.3673 58.1025 36.9222C58.0704 38.8944 62.1501 38.9584 63.1581 38.9634C64.548 38.9704 65.41 39.1045 66.6297 38.1826Z" fill="#454444"/>
<path d="M66.6325 37.7262C66.9796 37.0805 66.8994 36.4833 66.2869 36.1171C64.3554 34.9625 61.3674 35.0342 59.3502 35.7674L59.4573 35.9597C61.8685 36.2937 64.4068 34.7763 66.6325 37.7262Z" fill="#969495"/>
<path d="M98.0337 138.805C97.3873 138.942 96.7982 139.065 96.1647 139.269L95.9655 141.071C95.8782 141.823 95.6775 142.788 95.538 143.546C95.9467 143.219 96.1587 142.993 96.526 142.607C96.9006 142.973 97.2248 143.386 97.5644 143.796C97.7432 142.536 97.8536 141.365 97.9707 140.097C98.0101 139.627 98.0272 139.277 98.0337 138.805Z" fill="#E9342F"/>
<path d="M98.0337 138.805C97.2537 138.956 96.5428 139.091 95.7784 139.316L95.538 141.3C96.2017 141.199 96.8187 140.444 97.9577 140.228C98.0052 139.71 98.0258 139.325 98.0337 138.805Z" fill="#CB2927"/>
<path d="M103.249 137.551C102.167 137.627 101.563 137.735 100.53 138.03L100.592 138.149C101.537 139.999 102.143 141.826 102.826 143.79C103.275 143.178 103.392 143.019 103.72 142.327C104.316 142.361 104.925 142.412 105.521 142.455C104.75 140.494 104.221 139.384 103.249 137.551Z" fill="#E9342F"/>
<path d="M80.3448 131.316C78.5226 131.866 79.1928 139.159 81.7873 140.051C82.1962 139.988 82.0475 140.043 82.385 139.682L83.0596 138.102C82.4466 138.225 82.1345 138.201 81.5218 138.188C80.3887 137.005 80.0964 135.426 80.2498 133.807C80.3254 133.009 80.4228 132.784 81.0153 132.289L81.1353 132.191C81.021 131.878 80.6132 131.569 80.3448 131.316Z" fill="#D0C4AF"/>
<path d="M107.493 64.4155C108.077 63.607 108.185 62.3777 107.756 61.4113C107.326 60.4452 106.466 59.9803 105.653 60.2755C105.585 60.3006 105.518 60.3306 105.452 60.3655C104.527 60.8581 104.053 62.2299 104.374 63.4872C104.695 64.7442 105.698 65.446 106.656 65.0838C106.974 64.9635 107.263 64.7329 107.493 64.4155Z" fill="#F9C130"/>
<path d="M105.508 61.4375C104.539 61.8206 104.043 62.8875 104.379 63.8654C104.715 64.843 105.766 65.3888 106.77 65.1071C105.694 64.4123 104.866 62.6373 105.508 61.4375Z" fill="#EF9B44"/>
<path d="M107.463 63.9311C108.081 63.2152 108.194 62.1267 107.741 61.2711C107.288 60.4156 106.379 60.004 105.521 60.2654C105.622 60.4034 105.987 60.8579 106.091 60.9128C107.105 61.4479 107.031 63.4571 107.463 63.9311Z" fill="#F2DB9D"/>
<path d="M81.3725 133.812L80.8226 133.883C80.0777 134.671 81.0732 136.931 82.135 137.556C82.5928 137.375 82.5863 137.396 82.9016 137.108C83.1878 136.358 83.0716 135.653 82.6617 134.942C82.2474 134.225 82.337 134.128 81.3725 133.812Z" fill="#D0C4AF"/>
<path d="M93.042 142.543C92.7207 142.678 92.0318 143.502 91.7941 143.791C92.6397 143.604 92.8213 143.321 93.042 142.543Z" fill="#603017"/>
</g>
<defs>
<linearGradient id="paint0_linear_16872_36084" x1="86.7496" y1="65.0271" x2="87.3334" y2="69.2002" gradientUnits="userSpaceOnUse">
<stop stop-color="#2D0A01"/>
<stop offset="1" stop-color="#663221"/>
</linearGradient>
<linearGradient id="paint1_linear_16872_36084" x1="100.038" y1="94.9377" x2="101.938" y2="95.648" gradientUnits="userSpaceOnUse">
<stop stop-color="#AF7D59"/>
<stop offset="1" stop-color="#DAB795"/>
</linearGradient>
<linearGradient id="paint2_linear_16872_36084" x1="93.5873" y1="70.0393" x2="92.4566" y2="71.5541" gradientUnits="userSpaceOnUse">
<stop stop-color="#3E170B"/>
<stop offset="1" stop-color="#633827"/>
</linearGradient>
<linearGradient id="paint3_linear_16872_36084" x1="101.842" y1="90.9709" x2="97.4998" y2="93.7765" gradientUnits="userSpaceOnUse">
<stop stop-color="#2E110D"/>
<stop offset="1" stop-color="#592B1C"/>
</linearGradient>
<linearGradient id="paint4_linear_16872_36084" x1="50.8269" y1="80.3794" x2="38.8694" y2="80.9432" gradientUnits="userSpaceOnUse">
<stop stop-color="#966944"/>
<stop offset="1" stop-color="#E09F4F"/>
</linearGradient>
<linearGradient id="paint5_linear_16872_36084" x1="80.4162" y1="94.1301" x2="80.425" y2="94.8616" gradientUnits="userSpaceOnUse">
<stop stop-color="#C6A464"/>
<stop offset="1" stop-color="#F1C472"/>
</linearGradient>
<linearGradient id="paint6_linear_16872_36084" x1="30.0608" y1="104.157" x2="31.6321" y2="102.213" gradientUnits="userSpaceOnUse">
<stop stop-color="#320802"/>
<stop offset="1" stop-color="#592412"/>
</linearGradient>
<linearGradient id="paint7_linear_16872_36084" x1="87.818" y1="107.501" x2="86.0947" y2="104.109" gradientUnits="userSpaceOnUse">
<stop stop-color="#2B0300"/>
<stop offset="1" stop-color="#532817"/>
</linearGradient>
<linearGradient id="paint8_linear_16872_36084" x1="52.9639" y1="108.61" x2="52.5052" y2="107.178" gradientUnits="userSpaceOnUse">
<stop stop-color="#3A0D05"/>
<stop offset="1" stop-color="#5C2C1C"/>
</linearGradient>
<linearGradient id="paint9_linear_16872_36084" x1="40.9912" y1="109.731" x2="41.164" y2="107.959" gradientUnits="userSpaceOnUse">
<stop stop-color="#350A00"/>
<stop offset="1" stop-color="#5B2315"/>
</linearGradient>
<linearGradient id="paint10_linear_16872_36084" x1="24.5667" y1="80.1658" x2="25.7675" y2="80.8653" gradientUnits="userSpaceOnUse">
<stop stop-color="#320B03"/>
<stop offset="1" stop-color="#713A19"/>
</linearGradient>
<linearGradient id="paint11_linear_16872_36084" x1="79.1242" y1="107.259" x2="79.6482" y2="106.106" gradientUnits="userSpaceOnUse">
<stop stop-color="#3C1104"/>
<stop offset="1" stop-color="#68331C"/>
</linearGradient>
<linearGradient id="paint12_linear_16872_36084" x1="56.4904" y1="56.7016" x2="54.0872" y2="34.7782" gradientUnits="userSpaceOnUse">
<stop stop-color="#302523"/>
<stop offset="1" stop-color="#2F3132"/>
</linearGradient>
<linearGradient id="paint13_linear_16872_36084" x1="23.5845" y1="151.725" x2="15.3506" y2="159.845" gradientUnits="userSpaceOnUse">
<stop stop-color="#864D36"/>
<stop offset="1" stop-color="#A66740"/>
</linearGradient>
<linearGradient id="paint14_linear_16872_36084" x1="84.8311" y1="55.1781" x2="88.5425" y2="39.7873" gradientUnits="userSpaceOnUse">
<stop stop-color="#E3A035"/>
<stop offset="1" stop-color="#F1C350"/>
</linearGradient>
<linearGradient id="paint15_linear_16872_36084" x1="95.6245" y1="120.184" x2="101.889" y2="116.591" gradientUnits="userSpaceOnUse">
<stop stop-color="#824121"/>
<stop offset="1" stop-color="#B57D57"/>
</linearGradient>
<clipPath id="clip0_16872_36084">
<rect width="120" height="163" rx="60" fill="white"/>
</clipPath>
</defs>
</svg>
