<svg width="16" height="16" viewBox="0 0 16 16" fill="none" xmlns="http://www.w3.org/2000/svg">
<g clip-path="url(#clip0_16859_2856)">
<path d="M16 0H0V16H16V0Z" fill="white" fill-opacity="0.01"/>
<path d="M7.99992 12C11.6818 12 14.6666 8 14.6666 8C14.6666 8 11.6818 4 7.99992 4C4.31802 4 1.33325 8 1.33325 8C1.33325 8 4.31802 12 7.99992 12Z" stroke="#1E1E1E" stroke-width="1.2" stroke-linejoin="round"/>
<path d="M7.99992 9.66927C8.92039 9.66927 9.66659 8.92307 9.66659 8.0026C9.66659 7.08214 8.92039 6.33594 7.99992 6.33594C7.07945 6.33594 6.33325 7.08214 6.33325 8.0026C6.33325 8.92307 7.07945 9.66927 7.99992 9.66927Z" stroke="#1E1E1E" stroke-width="1.2" stroke-linejoin="round"/>
</g>
<defs>
<clipPath id="clip0_16859_2856">
<rect width="16" height="16" fill="white"/>
</clipPath>
</defs>
</svg>
