<svg width="40" height="40" viewBox="0 0 40 40" fill="none" xmlns="http://www.w3.org/2000/svg">
<path d="M0 20C0 8.95431 8.95431 0 20 0C31.0457 0 40 8.95431 40 20C40 31.0457 31.0457 40 20 40C8.95431 40 0 31.0457 0 20Z" fill="#1E1E1E"/>
<g clip-path="url(#clip0_16645_954)">
<path d="M20 12C15.5818 12 12 15.5818 12 20C12 23.7517 14.583 26.8998 18.0675 27.7645V22.4448H16.4179V20H18.0675V18.9466C18.0675 16.2237 19.2998 14.9616 21.9731 14.9616C22.48 14.9616 23.3546 15.0611 23.7123 15.1603V17.3763C23.5235 17.3565 23.1955 17.3466 22.7882 17.3466C21.4765 17.3466 20.9696 17.8435 20.9696 19.1354V20H23.5827L23.1338 22.4448H20.9696V27.9414C24.9309 27.463 28.0003 24.0902 28.0003 20C28 15.5818 24.4182 12 20 12Z" fill="white"/>
</g>
<defs>
<clipPath id="clip0_16645_954">
<rect width="16" height="16" fill="white" transform="translate(12 12)"/>
</clipPath>
</defs>
</svg>
