<svg width="283" height="27" viewBox="0 0 283 27" fill="none" xmlns="http://www.w3.org/2000/svg">
<path d="M258.718 24.3652C259.539 25.2004 257.023 24.8193 258.776 26.0242C258.441 26.145 258.102 26.2661 257.77 26.3815C257.647 25.8903 257.522 25.4002 257.407 24.9082C257.842 24.7308 258.281 24.5492 258.718 24.3628C258.718 24.3636 258.718 24.3644 258.718 24.3652ZM258.715 18.0904C258.71 18.1238 258.704 18.1567 258.698 18.1891C258.446 19.5667 257.305 20.0573 258.739 21.2179C258.789 20.8136 258.839 20.4093 258.884 20.0051C258.885 19.914 258.895 19.822 258.905 19.73C259.383 20.0639 259.852 20.3983 260.308 20.7321C260.449 20.5312 260.588 20.3302 260.726 20.1317C261.008 20.9566 261.286 21.7841 261.563 22.6115C261.379 22.5049 261.19 22.3965 261.002 22.2903C260.443 22.9421 259.96 23.2125 259.208 23.4186L259.226 23.4169C259.095 23.4513 258.955 23.4837 258.807 23.5152C258.921 23.7063 259.035 23.8953 259.149 24.0859C258.553 23.8008 258.001 23.5022 257.448 23.1995C257.884 22.8324 258.356 22.4199 258.759 22.0682C257.955 20.8096 256.872 21.6286 256.286 21.939C255.491 22.363 255.639 21.7207 255.056 22.0136C254.963 22.0593 254.975 22.5552 254.784 22.5718C253.82 22.6558 251.994 22.4385 253.023 21.2533C254.583 21.3556 255.853 20.3705 257.421 20.5971C256.917 19.3015 257.686 18.7961 258.694 18.1073C258.698 18.102 258.707 18.0962 258.715 18.0904ZM230.797 22.165C231.298 21.5453 232.214 21.8626 232.821 22.3481C232.822 22.3481 232.822 22.3482 232.823 22.3482C232.956 22.4551 233.224 23.3349 232.771 23.2744C232.033 23.1725 231.749 21.7936 231.308 22.6915C231.144 22.5096 230.97 22.3458 230.797 22.165ZM229.176 22.1416C228.798 21.8304 228.947 21.0484 229.351 21.0258C229.418 21.0219 229.492 21.0397 229.572 21.0851C229.572 21.0843 229.572 21.0835 229.572 21.0827C229.802 21.2138 229.285 21.9918 230.188 21.2265C230.321 21.8756 230.453 22.4667 230.588 23.095C230.377 23.0921 230.188 23.097 229.968 23.0912C230.167 22.1254 229.692 22.4461 229.273 22.2068C229.24 22.1886 229.208 22.1671 229.176 22.1416ZM252.254 21.8522C252.201 22.7989 252.515 22.7864 253.055 23.4272C252.559 23.4104 252.063 23.3889 251.565 23.3672C251.801 22.862 252.029 22.3583 252.254 21.8522ZM263.775 21.1604C263.775 21.1603 263.776 21.1602 263.777 21.1602C263.913 20.9967 264.052 20.8326 264.195 20.6705C264.323 20.9968 264.449 21.3218 264.576 21.6481C265.081 21.2791 265.62 20.9065 266.12 20.5353C266.167 21.5665 265.149 21.5011 264.694 22.2705C263.836 22.0446 263.417 21.485 263.27 20.6219C263.439 20.8005 263.607 20.9817 263.775 21.1604ZM132.468 17.9553C132.337 18.2684 132.208 18.5814 132.077 18.8946C132.34 18.9804 132.596 19.0362 132.864 19.1423C133.284 17.8071 133.532 18.8787 134.352 18.656C136.86 17.971 135.842 16.1933 138.64 18.5624C136.77 18.7607 137.715 19.9401 136.776 21.1461C136.408 20.4212 137.209 18.4956 136.394 18.2707C135.248 19.3116 134.145 20.2862 132.806 21.0627C132.871 21.1878 132.936 21.3134 133.001 21.4385C133.213 21.315 133.423 21.1911 133.636 21.0673C133.453 21.4654 133.276 21.8592 133.091 22.2618C133.263 21.4013 132.541 21.9926 132.485 21.0487C132.46 20.6285 132.714 19.9947 132.853 19.5645C132.276 19.4456 131.689 19.347 131.107 19.2351C131.332 18.8573 131.556 18.4791 131.778 18.1018C132.007 18.051 132.235 18.0032 132.464 17.9525C132.465 17.9534 132.467 17.9544 132.468 17.9553ZM17.6603 18.8248C17.7978 18.2395 18.1509 17.8221 18.5902 17.6856C18.962 17.5694 19.4021 17.6891 19.79 18.1195C19.4604 18.2152 19.1346 18.3168 18.8163 18.4229C18.4248 18.5526 18.0421 18.6858 17.6603 18.8248ZM263.146 19.9106C263.241 20.0672 263.334 20.2224 263.428 20.3792C263.113 20.7184 262.784 21.0568 262.478 21.395C262.365 20.9259 262.25 20.4569 262.135 19.9901C262.472 19.963 262.799 19.9389 263.146 19.9106ZM240.427 21.1388C240.686 21.1181 240.708 21.1345 241.025 21.2123C241.025 21.2119 241.024 21.2114 241.024 21.211C241.153 21.2409 242.21 21.549 242.081 21.9133C241.556 21.906 240.983 21.8832 240.444 21.866C240.436 21.6236 240.44 21.3835 240.427 21.1388ZM246.665 21.4792C246.666 21.48 246.667 21.4808 246.667 21.4816C246.861 21.5389 247.038 21.6538 247.243 21.6754C246.522 22.2508 246.406 21.2106 245.757 21.4976C245.098 21.786 244.689 22.353 244.155 20.9199C244.366 20.7105 244.594 20.4093 244.807 20.1641C245.72 20.7467 245.975 20.2134 246.721 19.6583C246.702 20.2667 246.684 20.8709 246.665 21.4792ZM144.32 18.7535C144.364 18.0301 144.679 18.6743 144.701 18.6788C144.7 18.6797 144.7 18.6805 144.7 18.6814C146.093 17.7631 144.574 19.1005 146.019 18.9469C145.839 19.1588 145.664 19.3797 145.486 19.5933C145.1 19.3191 144.694 19.0026 144.32 18.7535ZM192.671 15.0472C192.663 15.2524 192.657 15.4584 192.649 15.6636C191.808 15.5264 191.514 16.3078 190.888 15.5084C191.478 15.3493 192.074 15.1953 192.671 15.0448C192.671 15.0456 192.671 15.0464 192.671 15.0472ZM236.039 19.474C237.028 19.1283 237.757 18.9867 238.67 19.6433C238.671 19.6441 238.671 19.6449 238.672 19.6458C238.725 19.686 238.447 20.1044 238.514 20.215C238.71 20.1584 238.91 20.0673 239.111 19.9981C239.125 20.3422 239.138 20.6861 239.152 21.0281C238.602 20.9107 238.053 20.7919 237.505 20.6716C237.578 20.8756 237.653 21.0779 237.726 21.2818C237.256 21.3661 236.774 21.4484 236.302 21.5305C236.491 20.9757 236.678 20.4206 236.866 19.8634C236.586 19.733 236.316 19.607 236.039 19.474ZM178.644 11.9658C178.794 12.1892 178.519 12.5644 178.749 12.7567C178.978 12.9464 179.408 12.5317 179.304 13.1623C178.992 13.2453 178.67 13.3423 178.355 13.4327C179.363 14.5649 180.374 13.5543 180.367 14.9597C179.414 14.579 178.618 14.7459 177.706 15.1462C177.724 14.0292 178.662 13.058 178.059 12.015C178.251 11.999 178.454 11.9768 178.642 11.9683C178.643 11.9675 178.643 11.9666 178.644 11.9658ZM275.833 4.50533C275.943 4.50682 276.074 4.49591 276.224 4.47823L275.935 4.50715C276.11 4.47153 276.181 4.38975 276.455 4.34136C276.716 4.29505 277.089 4.29382 277.423 4.50737C277.606 4.63244 278.618 6.53296 278.677 6.79973C278.863 7.70213 278.188 7.98079 279.07 8.39908C278.817 8.46232 278.579 8.55036 278.338 8.61935C278.512 9.21495 278.688 9.80845 278.863 10.4015C279.149 10.2439 279.444 10.0819 279.735 9.91842C279.795 10.1148 279.856 10.3117 279.917 10.508C278.789 10.7657 279.63 11.3878 279.2 12.237C279.822 12.4831 280.453 12.7198 281.086 12.9567C280.759 12.985 280.378 13.0372 280.089 13.0469C280.283 14.0791 280.892 13.6848 281.052 13.8474C281.933 14.7763 278.565 14.9705 278.49 16.5077C279.106 16.571 279.718 16.61 280.305 16.6534C280.188 16.872 280.065 17.0913 279.941 17.3101C279.115 16.8854 278.214 16.6855 277.309 16.4535C277.297 16.454 277.26 16.4595 277.248 16.4596C276.665 16.2449 276.01 16.0842 275.34 15.8665C275.214 15.9244 275.09 15.9834 274.966 16.039C275.058 16.5054 275.146 16.9704 275.237 17.437C275.045 17.5149 274.856 17.592 274.661 17.6702C275.071 16.0535 274.27 16.166 273.191 15.3273C273.647 14.7252 274.321 14.9841 274.162 13.9737C272.483 14.9539 270.294 14.0707 268.668 15.1322C268.256 15.3955 268.406 16.7055 267.38 16.689C267.398 16.5414 267.377 16.2806 267.379 16.0889C265.713 16.8946 264.69 17.3771 262.818 16.917C262.97 17.3779 263.121 17.841 263.272 18.3021C263.623 18.0299 263.995 17.7517 264.35 17.4788C264.693 18.2306 264.321 18.6153 265.484 18.4896C266.41 18.3895 265.827 18.1013 266.059 17.8448C266.381 17.4939 266.725 18.0847 267.076 17.6932C267.337 17.3938 266.959 16.7839 267.722 16.8696C267.5 17.7333 267.297 18.6221 267.069 19.4964C266.857 19.3288 266.671 19.1555 266.466 18.9849C266.631 18.7434 266.775 18.507 266.947 18.2647C266.342 18.7301 265.764 19.1695 265.127 19.6519C265.223 18.4272 264.578 18.9478 264.213 19.1279C263.638 19.41 264.062 18.5314 263.691 18.708C263.336 18.885 262.979 19.8546 262.282 19.7241C262.599 19.1519 262.048 18.7217 262.096 18.2178C262.147 17.7137 262.857 17.5326 262.109 17.0623C260.783 17.6076 262.46 19.3421 261.556 19.7395C260.505 20.2135 259.916 17.1731 260.191 16.4802C260.409 15.9347 261.288 15.9534 261.512 15.4091C259.832 14.633 259.974 16.4784 259.75 16.8645C258.993 18.1126 259.16 15.4528 258.464 15.7944C258.379 15.8381 258.28 15.9309 258.159 16.0875C258.121 15.4302 258.083 14.8393 258.045 14.209C257.859 14.3469 257.747 14.5171 257.517 14.6319C258.323 15.8491 257.757 15.8443 257.444 15.871C256.974 15.9122 257.754 16.4779 257.644 16.6484C257.336 17.1078 256.768 16.9509 257.149 17.4899C256.974 17.2392 256.799 16.9871 256.627 16.7371C256.098 17.1025 254.884 19.9159 256.148 19.2913C256.084 20.3174 255.638 19.8512 255.3 19.7121C254.964 19.573 255.006 20.2215 254.71 20.1144C253.549 19.6809 254.259 18.5398 254.392 17.6623C252.934 18.3164 254.409 18.6684 252.269 19.1302C252.075 19.8453 253.104 20.5774 252.272 21.0081C252.092 19.7781 251.462 18.909 250.282 18.5131C250.171 18.7979 250.06 19.0852 249.946 19.3698C249.291 18.2364 249.617 17.0523 248.438 18.4671C249.066 15.8677 248.631 17.5331 247.58 16.4731C247.368 16.2592 247.861 15.7218 247.565 15.4477C247.432 15.3241 247.098 15.7296 246.775 15.4132C246.614 15.2571 245.879 14.2492 245.352 14.7176C245.722 15.981 244.705 17.0383 245.552 18.0906C243.97 17.8132 242.861 18.3921 244.657 16.7094C244.259 16.322 243.875 15.9355 243.481 15.5484C243.193 15.8425 242.914 16.134 242.624 16.425C242.608 15.3896 242.653 15.1023 241.561 15.254C242.042 15.0235 242.519 14.7876 242.998 14.5524C243.019 14.3439 243.09 14.1284 243.079 13.9254C242.489 14.3108 240.852 14.4351 240.445 14.696C240.037 14.958 240.805 15.0585 240.682 15.3215C239.648 17.4909 239.787 15.8702 239.082 16.2227C238.67 16.4311 239.627 16.7093 239.407 16.7965C238.592 17.1159 238.263 15.9317 237.561 15.8872C237.783 16.5615 238.004 17.2457 238.227 17.9255C237.479 17.8606 236.648 17.8182 235.943 17.9982C235.665 18.0683 235.849 18.5716 235.803 18.6025C235.57 18.7617 234.661 18.9856 234.562 18.9823C233.843 18.9489 233.862 18.2646 233.164 18.1886C233.441 18.146 233.703 18.108 233.973 18.0665C234.153 16.9652 234.334 15.864 234.512 14.7604C233.844 14.6447 233.171 14.5282 232.498 14.4081C232.973 14.807 233.445 15.2027 233.925 15.5996C233.097 16.4525 232.266 17.3044 231.434 18.1537C231.059 17.5794 230.688 17.0046 230.32 16.4292C230.009 16.45 229.79 16.641 229.627 16.8616C229.206 17.427 229.167 18.1884 228.884 16.7563C228.549 16.8984 228.207 17.0387 227.869 17.1759C227.937 16.9011 228.005 16.6256 228.073 16.3508C227.668 16.4915 227.262 16.6289 226.851 16.7662C227.176 17.7891 227.505 18.861 227.85 19.8509C227.036 20.0024 227.088 19.1621 226.989 18.9438C226.725 18.3646 226.03 19.0504 225.829 18.5132C225.764 18.3302 226.592 17.8562 226.386 17.1959C226.338 17.0682 225.576 14.6381 224.888 15.0966C224.848 15.5192 224.835 16.0417 224.806 16.5032C223.893 16.6517 223.76 14.3921 223.959 13.7939C223.451 14.1632 222.786 14.0999 222.589 14.7564C222.355 14.7375 222.124 14.7174 221.886 14.6966C222.383 13.1015 221.381 13.248 221.084 14.6395C221.48 14.7396 221.873 14.84 222.267 14.9365C221.696 16.6093 222.752 17.8483 220.46 15.8423C220.123 14.8685 221.303 16.1054 221.017 15.3706C220.393 14.8689 219.7 15.0883 219.153 14.3565C218.471 13.4422 219.597 12.8627 217.545 13.535C220.428 15.9869 218.362 15.5971 216.302 15.4911C215.7 15.4614 215.08 15.454 214.612 15.5571C214.484 13.0183 212.955 11.9649 210.558 12.3294C210.685 13.0498 211.46 12.8137 211.834 13.105C212.212 13.397 211.699 13.7292 212.16 14.1313C212.624 14.5338 213.634 15.1446 214.078 15.7135C213.57 16.0252 211.262 16.5842 212.869 15.7217C211.91 14.8703 211.523 14.0937 210.212 13.7538C209.643 14.7553 209.566 15.4218 208.271 15.2497C209.271 13.8897 207.958 12.6299 208.521 11.1512C209.387 11.6516 208.641 13.0577 209.059 13.8525C209.099 13.9316 210.017 13.6952 210.212 13.7538C209.563 12.2816 209.334 11.7365 210.124 10.2332C209.484 10.2743 209.136 10.0155 208.959 10.7651C208.881 10.4156 208.806 10.0665 208.731 9.71756C208.53 9.69462 208.343 9.69677 208.132 9.65781C208.245 10.8476 207.792 10.0556 207.307 10.5126C206.824 10.9706 207.228 11.9568 206.121 11.8012C206.45 12.1253 206.748 12.406 207.065 12.7144C206.311 12.9001 205.554 13.0889 204.801 13.2782C205.195 14.052 206.113 15.2545 205.943 16.1708C205.67 15.7732 204.465 16.2171 204.342 16.2248C203.858 16.2491 204.2 15.7062 204.167 15.6866C203.467 15.2945 202.829 15.4042 202.674 14.483C202.059 14.8001 201.672 14.514 201.077 14.4538C200.75 14.4208 200.724 15.0771 200.551 14.9279C199.401 13.9357 200.712 13.2568 198.062 14.5286C198.299 15.0185 198.529 15.5185 198.762 16.013C198.465 16.1469 198.17 16.2823 197.874 16.4171C197.702 16.3111 197.532 16.205 197.359 16.0994C197.489 15.1207 197.619 14.1401 197.749 13.1614C197.553 13.0819 197.355 13.0042 197.159 12.9253C197.519 12.8725 197.882 12.821 198.243 12.7697C198.297 12.6016 198.349 12.4331 198.403 12.265C197.919 11.9307 197.436 11.5954 196.948 11.2615C196.896 11.601 196.843 11.943 196.791 12.2825C195.682 11.6643 195.681 11.3715 194.463 12.1828C193.605 12.0743 192.758 13.428 192.206 13.9784C192.051 13.7687 191.896 13.5569 191.737 13.3476C191.595 13.6204 191.453 13.892 191.313 14.1652C191.129 13.7478 190.945 13.3307 190.756 12.9159C190.545 13.8024 190.461 14.0756 191.292 14.4747C191.066 15.0813 190.508 15.1499 189.963 15.0215C189.521 14.9185 189.091 14.6912 188.828 14.5021C188.381 14.1779 188.981 13.289 188.932 13.1707C188.768 12.7684 187.954 13.0377 187.798 12.9618C187.12 12.6419 186.631 12.6541 186.015 12.4061C185.895 12.3567 185.591 11.7433 185.563 11.723C185.34 11.6072 184.8 11.2873 184.733 11.2755C181.463 10.673 184.843 13.3978 181.835 13.0084C181.915 13.3504 181.986 13.6899 182.062 14.032C181.837 14.045 181.606 14.0575 181.382 14.0719C181.105 13.781 181.463 13.2739 180.884 13.676C180.93 13.2588 180.977 12.8415 181.027 12.4266C180.771 12.6462 180.527 12.8651 180.268 13.0865C179.896 11.6258 178.414 11.292 178.511 9.59074C178.543 9.00968 179.628 8.41856 179.057 7.79767C178.589 7.67499 178.905 8.36769 178.715 8.40391C177.348 8.66137 177.412 7.69701 176.852 7.96546C176.772 8.38309 176.69 8.80907 176.61 9.23113C176.396 9.11437 176.183 8.99835 175.966 8.88332C175.926 9.16421 175.885 9.44549 175.846 9.72643C176.044 9.73821 176.264 9.75038 176.445 9.76414C176.217 10.8445 173.979 11.4341 174.799 10.4723C175.135 10.0803 175.8 10.2142 175.333 8.95296C174.717 9.16215 174.021 9.38733 173.383 9.61477C173.344 9.34144 173.307 9.06754 173.267 8.79426C172.395 9.03427 173.279 10.075 173.313 10.6643C173.117 10.6943 172.918 10.7233 172.722 10.7551C172.617 10.4956 172.516 10.2235 172.406 9.97299C172.432 10.3972 172.401 11.3875 171.785 11.0747C171.385 10.8724 171.886 9.74932 171.171 9.96663C171.291 10.6208 171.623 11.3964 170.851 11.6896C170.701 11.0104 170.523 10.3927 170.382 9.67739C169.744 10.1996 169.275 9.9101 168.693 9.95722C168.415 9.98004 168.116 10.078 167.773 10.3753C167.088 10.9599 166.306 12.8172 165.462 10.2371C164.907 10.243 165.169 10.8784 165.029 11.049C164.37 11.8556 163.621 10.683 163.471 10.6291C162.496 10.2859 162.153 10.7791 161.329 10.2957C161.441 10.7792 161.531 11.2393 161.633 11.7118C162.2 10.8796 162.547 10.864 163.518 10.8862C163.221 11.0288 162.907 11.1766 162.608 11.3204C162.717 11.7102 162.825 12.1002 162.932 12.4883C165.642 10.5046 165.293 13.0763 162.934 13.9668C162.62 13.2616 162.291 12.5607 161.973 11.8543C160.721 13.1764 159.918 12.308 158.279 12.325C158.084 12.3279 157.458 12.8593 157.165 12.9273C157.17 12.9293 157.175 12.9313 157.181 12.9334C157.107 13.6554 157.406 13.9349 157.534 14.5496C157.386 14.6527 157.242 14.7548 157.091 14.8585C156.655 14.4442 156.722 14.0354 156.033 14.2621C156.204 14.7165 156.376 15.1711 156.546 15.6259C155.774 15.7672 155.191 15.3389 154.508 15.6792C154.599 15.4815 154.689 15.2834 154.781 15.0856C153.143 14.8931 153.921 11.9252 152.969 13.4984C152.854 13.2703 152.737 13.0401 152.621 12.8123C153.099 12.6698 153.581 12.5298 154.058 12.3895C154.011 12.047 153.966 11.7059 153.917 11.3637C153.409 11.5531 152.9 11.7471 152.392 11.9387C152.739 11.6444 153.082 11.351 153.429 11.0578C152.79 10.9969 152.153 10.9371 151.516 10.8788C152.379 12.0196 151.566 12.3171 151.938 13.5299C150.688 12.6829 149.598 11.4717 148.088 12.641C147.789 12.874 148.126 13.7061 146.999 12.8232C147.475 14.1584 146.422 15.0175 146.812 16.299C147.124 16.1768 147.455 16.0754 147.755 15.9413C147.315 15.5521 147.027 14.3138 147.505 13.8441C148.117 13.245 149.289 13.9295 149.001 12.5494C149.289 12.5653 149.557 12.5574 149.837 12.5646C149.787 12.9284 149.738 13.2944 149.69 13.6579C150.363 12.982 150.877 13.0733 151.399 13.8771C150.52 14.2357 149.642 14.595 148.764 14.9565C148.909 14.9915 149.055 15.0265 149.2 15.0594C148.669 16.0696 149.531 16.7806 148.279 17.2021C148.214 16.7955 148.147 16.3888 148.081 15.9801C147.808 17.1483 146.524 17.3766 147.161 18.5481C146.703 18.2362 146.581 18.0085 146.484 18.7204C145.287 17.9611 144.407 16.8853 144.51 15.3891C144.171 15.689 143.833 15.9892 143.495 16.2888C143.788 16.6392 144.079 16.9877 144.371 17.3381C143.891 17.4081 143.408 17.4787 142.925 17.5496C142.742 17.5763 142.555 17.6038 142.365 17.632C142.229 17.0658 142.531 16.9157 142.787 16.7945C143.057 16.6692 143.293 16.5717 143.002 16.085C142.931 15.9663 142.8 16.1125 142.682 16.2201C142.611 16.2874 142.543 16.3396 142.499 16.301C141.6 15.5067 142.296 15.6322 142.532 15.3967C142.621 15.3105 142.652 15.1763 142.527 14.9323C142.499 14.9318 142.472 14.9306 142.447 14.929C141.031 14.8363 141.85 13.0953 140.106 14.7951C139.992 14.4708 139.873 14.1405 139.763 13.8175C139.054 13.9247 139.246 14.6689 138.668 14.92C138.304 15.0771 137.595 13.8367 137.333 14.8148C137.289 14.9943 138.284 16.4879 136.789 16.6815C135.631 16.831 135.904 15.6012 135.211 15.3061C134.518 15.0111 133.374 16.8512 132.639 15.125C133.006 15.306 133.445 15.3609 133.84 15.4926C133.924 15.1162 134.006 14.744 134.09 14.3698C133.345 14.9686 132.395 14.5866 131.987 15.5203C130.66 14.4369 129.636 15.8392 130.223 17.224C130.549 16.9522 130.044 16.3922 130.618 16.7047C130.729 17.032 130.842 17.3571 130.953 17.6843C130.088 17.7946 129.493 17.9085 129.704 16.8144C129.567 16.8133 129.431 16.812 129.293 16.8109C129.4 17.5571 129.509 18.3057 129.615 19.052C129.471 19.1635 129.326 19.2744 129.181 19.3858C128.975 19.2538 128.769 19.1199 128.562 18.9861C128.597 17.7696 129 17.6594 127.529 17.2395C127.596 17.646 127.661 18.0512 127.727 18.4576C126.502 18.1397 126.301 17.162 124.883 17.4454C125.732 15.847 126.764 18.2404 126.268 15.4149C126.573 15.5529 126.885 15.6925 127.19 15.8304C127.16 15.4133 127.13 14.9957 127.098 14.5789C125.667 15.0516 123.686 18.1711 122.392 16.552C122.31 16.7907 122.223 17.0008 122.143 17.256C120.99 16.3425 120.99 18.8362 119.772 17.6067C119.649 17.4766 119.468 15.1657 118.212 15.4609C118.293 15.7516 118.393 16.2471 118.482 16.6162C118.177 16.4806 117.869 16.3368 117.566 16.1966C117.562 16.4783 117.556 16.7602 117.553 17.0438C118.038 17.0722 118.526 17.1012 119.016 17.1278C118.638 17.288 118.268 17.4468 117.887 17.607C118.48 17.9673 118.7 17.9351 118.517 18.702C118.078 18.8197 117.64 18.9394 117.208 19.055C117.2 19.1526 117.193 19.2506 117.186 19.3487C117.178 19.4428 117.17 19.5369 117.162 19.6304C117.194 19.6834 117.226 19.7363 117.259 19.789C117.528 20.2464 117.802 20.6957 118.082 21.1606C117.867 21.1178 117.663 21.0858 117.468 21.0573C116.5 20.923 115.648 20.8875 114.769 20.1105C114.588 19.952 115.013 19.1553 114.081 19.9591C114.007 19.5832 113.933 19.2802 113.862 18.9332C112.765 20.1819 112.284 19.9327 110.89 19.3168C111.817 19.9356 111.013 19.5582 110.836 19.9663C110.716 20.2483 111.296 20.1432 111.262 20.4278C111.235 20.7113 110.572 21.9107 111.258 21.9703C112.599 19.4973 113.398 22.1484 115.286 20.7368C115.023 21.0783 114.751 21.4213 114.475 21.7634C114.656 21.9384 114.818 22.0974 115.011 22.283C113.793 22.0173 114.396 22.2189 113.974 22.6407C113.549 23.0627 112.715 23.4859 112.118 23.6582C111.93 23.7124 112.072 23.1767 111.633 23.1814C111.344 23.1845 110.594 24.029 110.322 23.1476C110.166 22.5718 111.251 20.8627 109.537 21.0084C109.175 20.4586 110.005 20.5772 110.014 20.5045C110.094 19.8139 109.054 19.3835 108.611 19.9182C108.572 19.9649 108.976 20.4805 108.57 20.7065C107.594 21.2404 107.004 20.6195 106.394 19.7851C106.337 20.4562 105.91 21.2118 105.306 21.4796C105.044 21.5982 104.742 21.6217 104.431 21.5016C104.369 21.7769 104.309 22.0547 104.246 22.3319C104.413 22.1909 104.576 22.0514 104.743 21.9098C104.911 22.0889 105.097 22.221 105.26 22.4305C104.212 22.6387 104.015 23.9653 103.486 24.4341C101.665 26.0264 102.885 22.5461 103.218 21.9517C103.429 22.2072 103.633 22.4905 103.847 22.7574C103.835 22.4193 103.822 22.0786 103.812 21.7386C101.26 21.6401 103.516 19.5368 102.269 18.8502C101.863 20.4915 100.888 20.6011 99.7711 19.4664C99.6369 19.4653 99.5047 19.458 99.3728 19.4587C99.3332 19.6985 99.3065 20.0674 99.2587 20.2238C97.781 20.3949 97.7506 17.8204 97.6364 17.5687C97.1348 16.4472 96.5378 17.8834 96.358 17.8792C95.6082 17.8592 95.461 17.1811 94.7235 17.389C93.9324 17.6127 94.3972 18.1714 94.1158 18.597C93.8911 18.935 93.2747 18.9311 92.9861 19.2733C93.1202 18.9816 93.2608 18.6964 93.3963 18.4034C92.6525 17.9008 92.0547 17.4219 91.1702 17.2093C89.8762 19.2975 89.4989 15.4457 89.4498 18.5209C90.2781 18.8415 90.708 19.2459 91.0757 20.0759C90.4971 20.1044 89.9213 20.1281 89.3431 20.1518C89.2202 19.7973 89.1481 19.4581 89.0007 19.0938C88.4853 19.7434 87.5455 19.3044 87.1393 19.4568C86.2243 19.7907 85.8348 20.2498 85.521 20.4072C85.1802 20.5861 84.9406 20.3819 84.2441 19.1805C85.012 19.1698 85.3599 18.7639 85.797 18.5533C86.0483 18.4359 86.3319 18.3804 86.7388 18.4891C86.5929 17.7528 85.9808 17.8107 86.4863 17.0274C86.2932 17.0345 86.1383 17.0625 86.0123 17.1074C85.3981 17.3314 85.4947 17.9714 85.0449 18.4695C84.5789 18.9856 83.8113 18.8994 83.7369 19.6503C83.7223 19.2288 83.7247 18.8232 83.7113 18.4023C82.9818 18.2924 82.2494 18.1756 81.5222 18.0615C81.9013 17.685 82.2812 17.3074 82.6597 16.932C82.4518 16.7333 82.2398 16.5343 82.0346 16.3355C80.0284 17.3762 77.3594 14.4165 77.2811 17.8317C76.3975 17.789 76.3635 17.3526 76.003 16.6409C75.9073 16.8847 75.8206 17.0862 75.7199 17.3585C75.2102 16.997 74.6154 17.8706 74.1677 17.5373C73.7195 17.2058 73.7568 16.2882 73.418 17.7815C73.1763 17.293 72.9242 16.8779 72.68 16.4201C72.4282 16.7281 72.1772 17.0321 71.9275 17.3382C71.6618 17.1055 71.3945 16.8732 71.129 16.6402C70.8402 17.3302 69.7246 16.8084 69.1193 17.1962C68.7701 16.3325 69.2283 13.8976 67.9989 14.1235C67.9175 14.7334 67.836 15.3414 67.7547 15.9514C67.515 15.7769 67.2711 15.602 67.0294 15.427C67.0499 15.2268 67.0725 15.027 67.093 14.8268C67.2164 14.9127 67.3382 14.9979 67.4618 15.0858C67.4059 14.7304 67.3524 14.377 67.2991 14.022C66.8085 14.443 66.3093 14.8622 65.8156 15.2823C66.2902 15.7573 66.768 16.233 67.2456 16.7079C66.4787 17.0257 66.0812 16.4945 65.3969 16.8794C65.031 15.9487 65.3125 15.5036 65.6913 14.6373C65.4837 14.6788 65.2749 14.7173 65.0688 14.759C65.3636 13.877 65.1382 13.2774 66.2488 13.5587C66.2196 13.2862 66.1868 13.0254 66.1617 12.7432C65.9693 12.7496 65.8894 12.509 65.669 12.5711C65.0706 12.7422 64.3485 14.2531 64.2832 14.8179C64.2486 15.1136 64.8998 14.6568 64.7995 15.0653C64.5591 16.0623 63.3934 15.3781 65.0061 16.7238C64.2908 17.2542 64.2441 16.7454 63.6215 16.4379C63.6103 16.783 63.5982 17.1257 63.5852 17.4704C63.3111 17.2595 63.0296 17.0476 62.7539 16.8362C63.5 15.1921 61.3702 14.1248 63.677 12.9952C63.0953 12.8068 62.5125 12.6174 61.9296 12.4242C62.0856 12.2702 62.2441 12.1185 62.3988 11.9643C62.6485 12.1078 62.8992 12.25 63.1539 12.3922C62.894 12.009 62.6395 11.6287 62.3832 11.2461C61.5559 11.5062 61.149 12.068 60.6628 12.7645C61.4353 13.4839 61.2862 12.6709 61.9965 12.6478C61.8825 13.1252 61.8311 13.5744 61.6767 14.0695C61.5113 13.0055 60.2329 13.5177 59.9558 13.5162C59.1185 13.5128 59.937 12.6511 59.4015 12.5294C58.8602 12.4069 58.1111 12.8709 57.8559 11.8166C57.7623 12.3633 57.6919 12.9338 57.6303 13.436C56.7475 13.4562 57.0426 12.845 56.9701 12.7451C56.4725 12.0356 56.0062 11.8264 55.5149 11.8059C54.8588 11.7762 54.1565 12.0648 53.2389 11.9783C53.418 12.1858 53.5826 12.3738 53.7617 12.5709C52.3498 13.5084 53.22 13.3014 54.1937 13.8771C53.2358 13.5801 52.5018 14.4647 51.7572 14.632C51.0188 14.7994 49.929 14.0818 49.5693 13.6127C50.6661 13.1477 51.6603 13.7609 52.786 13.7865C52.7622 13.2077 52.7314 12.716 52.7131 12.0817C51.8277 13.1251 51.5906 12.2768 51.3911 12.081C50.8284 11.5112 50.6685 12.5167 50.4653 11.3692C50.416 11.7428 50.3728 12.0567 50.3278 12.4059C49.0246 12.0146 47.6632 11.1185 46.5984 12.3776C46.6427 11.4707 46.6996 10.599 46.7278 9.67153C46.0494 10.2678 45.6256 9.51755 45.0994 9.6269C44.5805 9.73953 44.7063 10.4828 44.1094 10.7201C44.0005 10.7642 43.8051 10.2922 43.5224 10.6146C43.2334 10.9232 42.2742 13.2406 42.1575 11.4435C42.1529 11.3746 42.1495 11.2997 42.1474 11.2184C41.6633 11.1953 41.2049 11.1024 40.7292 11.0525C41.1972 10.9407 41.6649 10.833 42.1284 10.721C41.7491 10.1768 41.3691 9.63406 40.9884 9.08978C40.9252 9.56433 40.8617 10.0475 40.8006 10.5159C39.7202 11.0671 38.9666 10.2688 37.8837 10.4306C37.7033 10.4582 38.1078 11.4072 37.3161 11.1522C36.5251 10.8985 35.9521 9.13014 34.5746 9.80227C34.5034 9.83724 34.1004 11.1811 33.6099 10.2512C33.4973 10.0404 33.9672 9.72689 33.7097 9.45022C33.4524 9.17202 32.2974 8.95463 32.1952 8.2971C32.211 8.53072 32.2868 8.77195 32.325 9.00943C32.1292 9.12382 31.9318 9.23883 31.735 9.35221C31.7088 8.94078 31.6809 8.52879 31.6544 8.11945C30.5234 9.10345 30.0077 10.6757 28.3173 10.2478C28.8209 10.8185 29.3131 11.3964 29.7945 11.976C29.9038 11.5512 30.0151 11.1237 30.126 10.6994C30.8963 10.84 31.6641 10.989 32.4269 11.1468C32.5459 10.6671 32.664 10.189 32.786 9.70967C32.9909 9.76977 33.1932 9.82848 33.3971 9.88957C33.3479 10.2355 33.2986 10.5796 33.2482 10.9255C33.6473 10.8382 34.0487 10.7511 34.4474 10.6673C33.6387 12.7028 32.1828 10.5054 32.3064 12.2117C32.1249 11.9495 31.9418 11.6858 31.7578 11.4224C31.6947 12.2515 31.3299 12.019 30.6875 11.9073C30.8457 12.3106 31.017 12.7083 31.1599 13.1167C30.5314 12.5556 29.4394 12.6518 28.7925 12.4653C28.5072 12.3829 28.7556 11.7689 28.6683 11.7029C28.214 11.3567 27.4586 12.4555 27.286 12.386C26.2434 11.9694 25.3546 10.0558 24.365 11.4877C25.5633 11.6766 24.917 11.6133 25.4025 12.292C25.5566 12.5045 27.069 12.8356 25.2084 12.8067C25.0094 12.7735 21.4478 11.9024 22.3916 10.7031C21.8809 11.1218 21.512 11.579 21.0768 12.0231C19.2957 9.55025 20.2509 12.0173 20.8804 13.3495C20.687 13.3945 20.5064 13.4468 20.3074 13.4897C20.4369 11.9143 18.1521 12.3348 17.6375 13.3009C17.4676 13.614 18.2742 13.8792 17.786 14.2601C17.7045 14.2536 17.6196 14.2459 17.5328 14.2377C17.3035 14.2183 17.0641 14.1943 16.8361 14.1785C17.5287 14.9559 16.854 15.5587 17.1769 16.4737C16.4285 15.8126 15.4251 14.2292 15.3817 13.1932C15.0807 13.7232 14.7952 14.2549 14.5258 14.7912C14.8024 14.9308 15.0732 15.0722 15.3439 15.2175C13.7588 15.1399 12.6831 17.1583 11.5337 15.4631C11.3633 15.5617 11.1958 15.6586 11.027 15.7603C11.1285 16.0941 11.234 16.4268 11.3393 16.7589C10.4477 16.8818 9.5495 17.045 8.65142 17.2592C9.19684 16.6686 9.12262 16.1441 10.0396 16.0889C9.5715 15.8948 9.08783 15.7126 8.60655 15.5379C8.05043 17.1246 8.31743 17.7491 6.64591 18.5974C6.57389 18.6216 4.9071 18.8322 4.80879 18.8154C4.37359 18.6677 4.2602 18.0006 4.05045 17.917C3.46843 17.6523 1.12276 17.9398 0.991524 17.7892C-0.721622 15.5221 4.93479 10.9419 6.5665 10.1409C9.29105 8.36282 12.1716 7.07803 15.0423 6.11705C24.978 2.97998 34.0256 4.05059 42.3409 4.46843C47.6967 4.7321 52.1243 5.92076 56.4813 6.59016C56.6243 6.61399 56.7691 6.63801 56.9158 6.6622C57.0767 6.68708 57.0775 6.2944 57.1491 6.29088C57.587 6.27362 57.8919 6.94283 58.042 6.99609C58.3608 7.10769 58.2817 6.52718 58.524 6.57202C61.0281 7.04644 63.3162 7.80972 65.8222 8.17858C65.9858 8.20267 65.7405 8.60967 66.0378 8.5849C66.1912 8.56959 66.7768 7.98395 67.1104 8.03518C68.2749 8.21493 69.2046 8.60865 70.4264 8.82115C71.0961 8.93716 72.0836 9.17529 72.8307 9.29914C73.161 9.35412 73.5579 9.10803 73.8847 9.15586C74.3482 9.22396 74.1428 9.8303 74.2069 9.88169C74.488 10.1062 74.6528 9.42978 74.9451 9.49845C75.4885 9.62834 75.4376 10.0906 76.1411 10.1743C76.6449 10.2336 77.846 10.0708 78.4909 10.0722C79.8661 10.855 81.7474 10.9531 83.1352 10.9963C83.9616 11.0225 83.9269 11.674 84.2596 11.7247C85.1872 11.8608 86.0272 11.4444 86.8705 11.3433C87.0793 11.3193 87.2878 11.3137 87.4978 11.3391C88.9253 11.5121 90.1206 12.2295 91.4978 12.4439C91.7207 12.4783 91.7401 11.8809 91.9643 11.8935C92.7805 11.9393 93.8291 11.9529 94.5406 12.116C95.3335 12.2962 95.5379 13.186 96.3454 13.0892C96.5786 13.0594 96.7225 12.3126 97.1139 12.2517C97.7426 12.1571 98.3482 12.8795 98.7765 12.9889C99.3527 13.1345 98.9087 12.3262 99.6859 12.4893C99.718 12.4961 99.7963 13.0552 99.9661 13.041C100.467 13.0018 100.447 12.5659 101.162 12.6533C101.232 12.6644 102.152 13.2446 102.25 13.251C102.807 13.2906 103.928 13.5231 104.265 13.4224C105.463 13.0666 104.558 12.21 105.511 14.0243C105.513 14.0283 105.515 14.0323 105.517 14.0363C105.98 13.6081 106.425 13.1716 106.856 12.7477C106.571 13.1462 107.709 13.7277 107.773 13.6843C108.383 13.3685 107.996 12.684 108.738 12.7622C107.836 14.4344 109.715 12.9172 110.208 12.7986C111.984 12.4374 113.952 12.3142 115.984 12.0801C116.598 12.0089 117.234 11.9231 117.873 11.8132C118.789 11.6548 119.966 11.1077 120.939 10.9493C121.165 10.9112 121.059 11.318 121.259 11.2921C121.459 11.2636 121.165 10.8776 121.396 10.861C122.837 10.765 124.087 11.3721 125.209 10.1475C125.297 10.2811 125.315 10.3956 125.447 10.5361C126.353 9.45654 128.608 10.3021 129.406 10.3318C130.655 10.3768 130.854 9.71796 131.75 9.6855C132.934 9.64455 134.879 10.5171 133.756 8.70509C134.539 8.50295 135.298 8.35014 136.128 8.38881C136.22 8.39357 136.247 8.9 136.285 8.90379C136.526 8.93415 136.519 8.47734 136.668 8.42972C137.069 8.30131 136.494 8.95262 137.053 8.69929C137.354 8.56323 137.455 8.14575 138.317 7.98208C139.229 7.80998 140.155 7.64031 141.084 7.47285C145.463 6.68035 150.196 5.91352 154.714 5.24359C155.092 5.18686 154.764 4.7464 155.241 4.70142C156.901 4.54211 159.946 4.90908 161.342 4.59554C162.732 4.28155 162.31 3.62369 163.157 3.20238C163.321 3.12072 163.237 3.54231 163.391 3.52691C164.435 3.41747 165.749 3.876 166.605 3.85692C167.166 3.84588 167.035 3.21955 167.415 3.1228C167.535 3.09275 167.66 3.09395 167.786 3.11434C168.293 3.18578 168.798 3.53277 169.061 3.51848C170.631 3.42951 171.669 2.8175 173.156 2.98491C173.09 2.8484 173.043 2.72112 172.985 2.58622C174.73 2.49408 176.464 2.45975 178.183 2.47214C178.101 2.3443 178.022 2.21544 177.94 2.08574C179.964 2.14739 179.715 3.55131 179.563 0.609511C179.712 0.507186 179.871 0.388833 180.014 0.295376C179.943 1.80817 181.146 2.92506 182.64 3.36508C182.748 3.39736 183.556 1.95356 183.401 3.69179C183.612 3.274 183.744 2.98568 183.924 2.61892C184.218 3.16069 184.518 3.69772 184.804 4.23927C184.978 4.16981 185.157 4.10371 185.332 4.0349C185.376 3.69537 185.377 3.34023 185.451 3.00861C186.255 3.00071 187.847 3.53388 188.472 3.54043C189.327 3.54541 190.211 3.31048 191.021 3.28663C191.682 3.26753 192.293 3.38858 192.787 3.8878C193.379 3.84617 192.868 3.11905 193.73 3.29456C193.792 3.64239 193.849 3.97561 193.913 4.33422C194.783 2.90333 194.834 3.83632 195.759 4.26177C196.385 4.55134 196.852 4.23422 197.461 4.38187C197.615 4.41961 197.539 4.85858 197.647 4.85742C198.011 4.85571 199.107 4.3779 199.361 4.39471C201.666 4.5322 203.607 4.87625 205.736 5.35643C205.965 5.40712 205.73 4.92816 205.967 4.98213C206.347 5.06831 206.02 5.70203 206.239 5.76813C206.849 5.94911 206.958 5.24557 207.831 5.3409C210.705 5.65578 213.886 6.71328 216.825 7.25396C216.916 7.26925 216.98 6.85708 217.079 6.86949C217.3 6.89964 217.511 6.99409 217.71 7.10893C218.122 7.34092 218.5 7.65695 218.892 7.71873C219.874 7.87568 220.696 7.42056 221.643 7.57917C223.491 7.88538 224.965 8.42058 226.701 8.6181C227.839 8.74795 228.905 8.79687 230.157 8.86746C230.486 8.88599 230.824 8.90592 231.174 8.9285C238.712 9.40452 246.472 8.36141 253.754 8.80912C253.937 8.82059 253.877 9.1916 253.932 9.17345C254.462 8.99223 254.481 8.49265 254.717 9.52377C255.388 9.28474 255.549 8.49369 256.334 8.49618C256.754 8.49455 256.535 9.72871 257.182 9.04849C257.546 8.64568 257.369 8.24824 257.699 8.16471C257.703 8.16402 257.715 8.16339 257.719 8.16271C257.941 8.11378 258.347 8.14858 259.085 8.31233C259.143 8.32537 259.501 9.0326 259.92 8.79803C260.345 8.56479 259.763 8.09065 260.828 7.82521C263.276 7.20849 266.511 7.52486 269.371 7.02414C269.549 6.99327 271.246 6.41404 271.567 6.19505C272.189 5.77078 271.992 5.24027 272.832 5.01137C273.484 4.83459 274.089 5.39083 274.909 5.17472C275.013 5.14894 275.068 4.49538 275.833 4.50533ZM129.799 19.684C129.745 20.3308 129.848 22.6585 128.739 22.1384C128.634 22.0895 128.867 20.436 128.277 20.2823C128.783 20.0239 129.292 19.8797 129.799 19.6816C129.799 19.6824 129.799 19.6832 129.799 19.684ZM282.106 18.2694C281.332 18.3271 280.558 18.3851 279.727 18.4368C280.229 18.0493 280.692 17.6611 281.145 17.2708C281.465 17.604 281.783 17.9377 282.106 18.2694ZM188.156 14.1274C188.157 14.1274 188.157 14.1275 188.158 14.1275C187.369 14.3635 186.579 14.6052 185.8 14.8532C185.894 14.6395 185.989 14.425 186.085 14.2114C186.709 13.9067 187.343 13.6069 187.976 13.3099C188.036 13.5824 188.096 13.8548 188.156 14.1274ZM194.481 12.4109C194.946 12.7269 194.774 13.15 194.997 13.6073C194.997 13.6065 194.997 13.6057 194.997 13.6049C195.056 13.7241 195.378 13.8605 195.504 13.8925C195.49 13.6135 195.46 13.3363 195.441 13.0589C196.684 12.5352 198.625 15.1678 195.611 15.7545C195.696 15.4146 195.779 15.0763 195.865 14.7365C194.413 14.6567 192.881 13.7309 194.481 12.4109ZM118.252 22.6829C118.093 22.8794 117.953 23.053 117.823 23.2045C117.054 24.0836 116.58 24.2405 115.162 23.7901C115.328 23.4376 115.498 23.084 115.66 22.7314C115.97 23.0153 116.263 23.2993 116.573 23.5823C116.574 23.5822 116.575 23.5821 116.576 23.5819C116.572 23.2323 116.566 22.8825 116.558 22.5337C116.946 22.569 117.332 22.6039 117.729 22.6367C117.901 22.6527 118.075 22.6681 118.252 22.6829ZM242.4 18.8078C242.701 21.0892 242.624 19.7669 241.601 20.252C241.244 20.42 241.576 20.8274 241.355 20.8873C240.16 21.2141 240.114 19.6864 240.404 18.9032C241.069 18.8708 241.744 18.8411 242.397 18.8077C242.398 18.8078 242.399 18.8078 242.4 18.8078ZM272.806 16.5705C272.807 16.5704 272.808 16.5703 272.808 16.5702C272.899 17.1182 272.453 17.317 273.03 17.7826C272.637 17.8235 272.225 17.8638 271.823 17.9051C271.932 17.8414 272.05 17.779 272.165 17.7146C272.039 17.5367 271.908 17.357 271.788 17.1783C271.72 17.8267 271.532 17.4745 271.097 17.3064C271.286 17.9711 271.467 18.637 271.663 19.3009C271.151 19.1518 270.642 19.0013 270.119 18.8524C270.095 18.6824 270.071 18.5121 270.047 18.342C269.89 18.5791 269.731 18.8188 269.564 19.0567C269.492 18.8583 269.418 18.6619 269.348 18.4632C269.148 18.6402 268.941 18.8176 268.728 18.9979C268.612 18.5109 269.072 18.2476 268.223 18.4623C268.433 17.9288 268.653 17.3957 268.869 16.8613C270.176 16.7668 271.488 16.671 272.806 16.5705ZM233.182 19.1309C234.648 19.1156 234.215 19.4513 233.819 20.558C233.608 20.0826 233.393 19.6069 233.182 19.1309ZM159.638 13.8583C159.337 14.681 159.045 15.4952 158.736 16.2933C157.967 16.8466 156.915 15.5978 157.455 14.9563C158.116 14.1851 159.019 14.7902 159.638 13.8583ZM140.559 17.5153C141.651 17.6797 140.846 18.7526 140.706 19.3182C140.264 18.5294 139.882 18.6749 139.227 18.6915C139.815 18.5297 140.377 17.4868 140.558 17.5129C140.558 17.5137 140.559 17.5145 140.559 17.5153ZM176.16 12.812C176.563 12.7762 176.963 12.5523 177.331 12.8067C177.233 13.5421 176.504 12.8903 177.039 13.9672C176.785 13.9911 176.528 14.0158 176.277 14.0443C176.424 13.5886 176.198 13.2582 176.162 12.8144C176.161 12.8136 176.161 12.8128 176.16 12.812ZM218.796 18.4701C218.125 17.4761 217.908 17.8166 216.99 18.2728C216.993 17.5554 218.166 16.5509 218.821 16.3961C218.808 17.0866 218.803 17.7787 218.796 18.4701ZM26.8807 14.8129C26.9903 13.8956 28.3949 13.6783 29.1092 13.9147C29.0324 14.0524 28.9558 14.1921 28.8801 14.332C28.2075 14.4831 27.5396 14.6431 26.8807 14.8129ZM138.911 18.6863C139.023 18.6929 139.129 18.694 139.227 18.6915C139.122 18.7203 139.016 18.7237 138.911 18.6863ZM95.0394 18.9239C95.4658 18.1123 94.4854 17.7258 95.6772 18.181C95.6773 18.1802 95.6774 18.1794 95.6775 18.1786C96.4641 18.4761 96.6438 18.5516 97.3877 18.6841C97.0283 19.7496 95.4346 19.9986 97.5502 20.4135C97.5784 20.4168 97.5769 19.7644 97.9084 19.8815C98.0131 19.9179 98.3013 20.4777 98.8039 20.672C98.9651 20.7342 100.201 20.9921 98.5002 20.8736C98.4915 21.637 98.3387 22.3983 98.2844 23.1353C97.5937 23.2959 97.1998 21.7654 96.4953 21.7378C95.4446 21.6991 94.7575 23.1428 94.7594 21.1542C95.6866 20.763 97.1811 20.8868 97.2811 22.0884C98.1347 22.1758 98.4564 21.2222 97.8107 20.6854C94.8323 21.0352 97.146 19.183 94.5235 19.7024C94.4651 19.973 94.3298 20.2565 94.3185 20.5154C93.6452 19.4697 94.8852 19.2149 95.0394 18.9239ZM100.961 21.522C100.417 22.0719 99.8725 22.6236 99.3142 23.1688C99.3838 22.223 99.7252 21.3966 100.556 20.9148C100.692 21.1182 100.828 21.3213 100.961 21.522ZM58.8294 15.3941C58.6622 15.8871 58.3836 16.3154 58.1551 16.7717C58.0855 16.3159 54.5908 15.2395 56.4893 15.1599C56.7588 15.1469 58.2023 16.3442 58.8294 15.3941ZM224.716 18.5749C224.312 18.1791 223.918 17.7794 223.533 17.3776C224.228 17.2518 224.924 17.1108 225.612 16.96C225.318 17.4999 225.021 18.0387 224.716 18.5749ZM152.645 14.0723C152.827 14.0611 152.355 14.8605 153.037 14.6308C152.59 15.1666 152.169 15.6285 151.736 16.1366C151.526 15.8328 151.314 15.5306 151.105 15.2269C151.024 15.4595 150.94 15.6916 150.858 15.9245C150.845 15.4309 150.826 14.9498 150.816 14.4472C151.852 15.3293 151.848 14.125 152.645 14.0723ZM178.236 9.09514C178.396 10.1552 177.15 10.7967 178.382 10.9571C178.152 11.656 177.785 12.0226 177.076 12.0984C176.957 11.834 176.838 11.5718 176.716 11.3079C176.718 12.022 176.538 12.291 176.16 12.812C176.16 12.8112 176.16 12.8104 176.159 12.8096C175.093 12.8981 175.15 12.663 174.833 11.502C176.011 12.1116 175.996 11.0432 176.778 10.3846C177.314 9.93289 178.035 10.1243 178.236 9.09514ZM62.6364 16.0941C61.6542 16.8223 62.2347 17.7812 60.9613 16.5745C61.0964 16.3681 61.2318 16.1638 61.3675 15.9576C61.7929 16.0014 62.2119 16.0464 62.6364 16.0941ZM182.235 12.7959C182.207 11.1498 181.458 9.84658 181.259 12.5167C181.982 13.0815 181.673 11.5573 182.235 12.7959ZM140.45 14.9201C141.904 14.7347 141.969 16.6077 141.536 17.6287C141.386 17.3131 141.235 16.9969 141.086 16.6832C140.858 16.8801 140.635 17.0763 140.409 17.2706C140.425 16.4875 140.436 15.703 140.45 14.9201ZM207.808 13.7815C206.525 14.7699 208.895 14.6114 208.014 15.2157C207.311 15.6985 206.684 14.4058 207.102 13.7205C207.319 13.7329 207.555 13.7547 207.806 13.7812C207.807 13.7813 207.808 13.7814 207.808 13.7815ZM201.377 13.1683C201.384 14.4356 201.174 14.0364 202.075 13.9361C202.333 13.9066 204.239 14.6601 203.56 13.5112C202.853 13.4081 202.11 13.2834 201.377 13.1683ZM124.115 19.6665C124.007 19.1312 125.324 17.6868 125.572 17.9479C125.572 17.9471 125.572 17.9463 125.572 17.9455C126.238 18.6598 124.652 19.0525 125.54 20.0372C123.829 19.3315 123.773 21.7634 123.347 18.6444C124.232 18.352 123.913 19.0649 124.115 19.6665ZM8.92166 17.666C8.92107 17.6663 8.92047 17.6667 8.91988 17.6671C9.0221 17.6292 10.135 17.8942 10.1882 18.1875C9.24964 18.475 9.09009 17.9532 8.83006 19.1669C8.63298 18.9633 8.44537 18.7635 8.24169 18.5622C8.44683 18.2215 8.43327 17.826 8.92166 17.666ZM55.1744 13.5918C55.1777 13.5912 55.181 13.5907 55.1844 13.5903C55.5735 13.5302 56.1375 14.2271 56.5678 14.2719C55.8945 15.0235 55.304 15.1476 54.9235 14.9982C54.2811 14.75 54.1859 13.7667 55.1744 13.5918ZM258.718 18.0876C258.717 18.0886 258.716 18.0895 258.715 18.0904C258.715 18.0891 258.716 18.0879 258.716 18.0866C258.717 18.087 258.718 18.0873 258.718 18.0876ZM83.7581 20.0811C83.732 19.9277 83.7242 19.7968 83.7316 19.6841C83.7332 19.6737 83.7349 19.6632 83.7365 19.6527C83.7416 19.7933 83.7481 19.9357 83.7581 20.0811ZM120.978 20.3711C120.217 19.728 122.124 18.1754 122.854 18.3427C122.865 18.6935 122.911 19.0054 122.867 19.418C122.168 18.6248 121.1 20.4807 120.978 20.3711ZM169.02 12.0106C169.002 12.0128 168.984 12.0146 168.966 12.016C167.964 12.0951 168.286 10.8694 168.769 10.5303C169.051 10.3305 169.388 10.4424 169.528 11.3122C169.529 11.3584 169.061 12.0006 169.02 12.0106ZM134.087 17.7695C134.353 16.7978 133.455 16.7116 134.849 16.6239C134.97 16.842 135.09 17.0606 135.21 17.2788C134.839 17.4415 134.459 17.6069 134.087 17.7695ZM157.466 9.68193C155.421 10.5143 153.558 11.7343 155.336 13.9848C155.482 13.8791 155.627 13.7765 155.774 13.671C155.602 12.4582 156.294 13.0224 157.16 12.9255C157.204 12.4261 157.668 12.2393 157.693 11.8172C157.742 11.001 157.107 10.532 157.466 9.68193ZM247.249 16.1129C247.214 16.3218 247.179 16.5318 247.143 16.7386C246.808 16.9729 246.467 17.2051 246.125 17.4378C246.182 17.0371 246.242 16.6365 246.3 16.2358C246.621 16.1953 246.929 16.1537 247.247 16.1117C247.248 16.1121 247.249 16.1125 247.249 16.1129ZM103.169 19.0492C102.872 21.3382 103.582 20.9512 104.982 19.83C104.377 19.5738 103.769 19.3137 103.169 19.0492ZM192.09 9.12979C192.07 9.78472 192.049 10.4376 192.029 11.0926C192.819 10.4887 192.767 9.73134 192.504 8.83431C192.365 8.9323 192.231 9.03162 192.09 9.12979ZM202.607 10.1516C202.326 9.97388 202.405 10.5183 202.376 10.5033C201.653 10.1214 201.579 9.86614 200.591 10.1319C200.457 10.2537 200.325 10.3829 200.192 10.5089C200.438 11.9248 200.853 11.2272 201.65 12.1515C201.552 11.6633 201.454 11.1745 201.354 10.6842C201.847 10.8529 202.339 11.0212 202.831 11.192C202.911 11.0572 202.992 10.9237 203.073 10.7889C202.919 10.5787 202.762 10.3448 202.607 10.1516ZM251.145 16.6857C251.641 16.7312 252.139 16.7764 252.641 16.8167C252.65 16.479 252.658 16.139 252.666 15.8012C252.161 16.0987 251.653 16.3936 251.145 16.6857ZM92.9861 19.2733C92.9337 19.3878 92.882 19.5031 92.8342 19.6208C92.8545 19.473 92.9105 19.3621 92.9861 19.2733ZM6.80419 16.8511C6.18725 16.992 5.59881 17.6285 5.0724 17.9997C5.64464 18.6113 6.76345 17.4461 7.51973 17.5654C7.50622 17.3906 7.06419 16.791 6.80419 16.8511ZM142.453 14.6318C142.516 14.1911 142.579 13.7524 142.64 13.3121C142.983 13.2956 143.328 13.2812 143.673 13.2641C143.621 12.9223 143.567 12.5776 143.515 12.2358C142.429 12.7884 142.281 12.2883 141.847 11.6483C141.723 11.4607 141.574 11.2611 141.368 11.0727C141.682 12.095 141.992 13.1179 142.303 14.1421C142.353 14.3053 142.403 14.4686 142.453 14.6318ZM266.667 13.303C265.609 13.6464 265.259 14.1207 265.983 15.0894C266.336 14.8143 266.706 14.5371 267.06 14.2615C266.93 13.9421 266.798 13.6225 266.667 13.303ZM73.4918 15.4849C72.5254 15.7063 72.7559 14.3338 71.7411 14.9409C72.1661 15.2782 72.5896 15.6177 73.0133 15.9539C73.1717 15.7979 73.3335 15.6411 73.4918 15.4849ZM116.957 14.4405C116.782 14.2842 116.627 14.5275 116.435 14.8088C116.102 15.2751 115.668 15.8452 114.839 14.9079C114.677 15.4476 114.584 15.9529 114.452 16.4767C114.244 15.9626 114.011 15.4455 113.812 14.934C113.811 14.9341 113.811 14.9342 113.81 14.9343C112.895 15.2605 113.608 15.8355 113.675 16.4055C113.701 16.6424 112.937 16.3562 113.234 16.8344C113.745 17.6573 115.106 16.9247 115.282 17.9919C114.716 17.7254 113.78 18.1698 114.181 18.8382C114.623 19.5725 115.351 18.1117 116.051 18.6637C115.055 17.268 116.385 17.3059 117 18.2246C117.075 18.3402 117.138 18.4698 117.185 18.6122C117.799 17.7791 117.462 17.4101 116.854 17.3413C116.588 17.3149 116.299 17.3363 115.982 17.4023C116.47 16.2906 115.601 16.9903 115.312 16.1794C115.555 15.9244 116.096 15.7852 116.57 15.6207C117.215 15.3935 117.705 15.1223 116.957 14.4405ZM166.239 7.98505C165.521 8.14896 164.309 7.73011 163.938 8.65057C163.723 9.18656 164.898 9.41265 164.236 10.2999C164.919 10.1262 165.045 9.79913 164.827 9.13355C164.977 9.02915 165.132 8.9261 165.278 8.82444C165.37 8.94744 165.464 9.06841 165.556 9.19141C165.601 8.89895 165.647 8.60864 165.691 8.31639C165.869 8.34827 166.054 8.37942 166.231 8.41368C166.231 8.26972 166.248 8.14217 166.239 7.98505ZM47.6599 10.8211C47.8597 10.8431 48.0644 10.8667 48.2657 10.8883C48.2698 10.7191 48.2708 10.5422 48.2723 10.3678C48.2753 10.2303 48.2783 10.0928 48.2813 9.95523C48.3277 10.4545 49.1522 11.4096 49.6377 10.9663C49.8871 10.7446 49.5775 9.75057 50.4688 9.74134C49.8366 9.67922 49.235 9.70497 48.6101 9.68385C48.7084 9.42083 48.8048 9.15458 48.9042 8.89185C48.9039 8.89139 48.9036 8.89093 48.9033 8.89047C48.7134 8.79666 48.5086 8.69807 48.3133 8.60481C48.0905 9.34309 47.8739 10.0811 47.6599 10.8211ZM191.62 7.78462C190.87 8.25527 190.616 8.51509 190.861 9.41457C190.862 9.41504 190.863 9.41552 190.863 9.41599C191.156 9.05451 191.453 8.69416 191.747 8.33413C191.706 8.15121 191.664 7.9677 191.62 7.78462ZM87.5258 15.66C85.6102 18.7376 89.149 17.1868 88.6799 15.9777C88.6618 15.9235 87.6066 16.0423 87.5258 15.66ZM140.006 13.9634C140.394 13.8659 140.782 13.771 141.18 13.6714C141.016 13.2868 140.848 12.9042 140.683 12.5198C140.466 12.9988 140.224 13.4844 140.006 13.9634ZM261.795 12.2801C261.292 11.4149 260.182 11.193 259.748 12.2309C260.04 12.3186 260.328 12.4069 260.61 12.4955C260.114 12.6589 259.579 12.8373 259.081 12.9942C259.174 14.26 259.714 13.4676 260.659 13.7259C260.79 13.7697 261.88 15.2445 262.059 14.0338C262.1 13.7846 261.127 13.7143 261.722 12.9424C261.427 12.9155 261.174 12.953 260.887 12.9502C260.837 12.6515 260.786 12.3525 260.735 12.0539C261.096 12.1282 261.449 12.2045 261.795 12.2801ZM162.04 8.67555C161.031 8.75172 160.992 9.27087 160.912 10.1883C161.359 10.0195 161.804 9.85323 162.251 9.68603C162.18 9.35005 162.112 9.01356 162.04 8.67555ZM253.138 12.6476C252.6 12.5176 252.851 13.2394 252.642 13.3841C251.837 13.9276 251.281 13.417 250.474 13.7548C250.525 13.6134 250.572 13.4812 250.623 13.3438C250.622 13.3438 250.621 13.3439 250.621 13.3439C246.805 12.7576 248.813 14.4083 251.106 14.1068C251.163 14.377 251.219 14.6475 251.277 14.9156C252.299 14.424 253.225 13.937 253.138 12.6476ZM100.216 16.9327C100.184 16.7602 100.624 15.7098 99.9038 16.1658C99.246 17.6974 100.197 16.9822 100.382 17.6008C100.18 17.7388 99.9848 17.8727 99.7847 18.01C100.883 18.5323 101.069 18.1648 100.733 16.9913C100.711 16.9126 100.246 17.1045 100.216 16.9327ZM92.9637 15.4727C92.5416 17.7606 94.0821 16.8856 94.1053 16.1622C93.9155 16.1125 93.7195 16.4859 93.5301 16.2897C93.343 16.0935 93.3534 15.5494 92.9637 15.4727ZM132.972 13.0889C132.928 13.0862 132.34 12.1999 132.515 12.9443C133.348 14.632 134.189 13.3015 133.896 12.7143C133.555 12.8066 133.375 13.1138 132.972 13.0865C132.972 13.0873 132.972 13.0881 132.972 13.0889ZM268.271 11.0733C268.241 11.0114 267.157 10.7297 267.049 11.1066C266.974 11.5263 266.971 11.9681 266.93 12.3987C267.475 11.9476 268.677 12.1236 268.269 11.0736C268.269 11.0735 268.27 11.0734 268.271 11.0733Z" fill="#FEEA94"/>
</svg>
