<svg width="16" height="16" viewBox="0 0 16 16" fill="none" xmlns="http://www.w3.org/2000/svg">
<g clip-path="url(#clip0_17066_15003)">
<path d="M8.00065 14.6693C9.84158 14.6693 11.5083 13.9231 12.7147 12.7166C13.9211 11.5102 14.6673 9.84354 14.6673 8.0026C14.6673 6.16167 13.9211 4.495 12.7147 3.28856C11.5083 2.08213 9.84158 1.33594 8.00065 1.33594C6.15972 1.33594 4.49305 2.08213 3.2866 3.28856C2.08018 4.495 1.33398 6.16167 1.33398 8.0026C1.33398 9.84354 2.08018 11.5102 3.2866 12.7166C4.49305 13.9231 6.15972 14.6693 8.00065 14.6693Z" stroke="#7DADFE" stroke-width="2" stroke-linejoin="round"/>
<path fill-rule="evenodd" clip-rule="evenodd" d="M7.99935 3.66406C8.45958 3.66406 8.83268 4.03716 8.83268 4.4974C8.83268 4.95763 8.45958 5.33073 7.99935 5.33073C7.53912 5.33073 7.16602 4.95763 7.16602 4.4974C7.16602 4.03716 7.53912 3.66406 7.99935 3.66406Z" fill="#7DADFE"/>
<path d="M7.99902 4.41406C8.04493 4.41406 8.08283 4.4512 8.08301 4.49707C8.08301 4.54309 8.04504 4.58105 7.99902 4.58105C7.95315 4.58088 7.91602 4.54298 7.91602 4.49707C7.91619 4.45131 7.95326 4.41424 7.99902 4.41406Z" stroke="#1E1E1E" stroke-opacity="0.7" stroke-width="1.5"/>
<path d="M8.16667 11.3307V6.66406H7.5M7 11.3307H9.33333" stroke="#7DADFE" stroke-width="2" stroke-linecap="round" stroke-linejoin="round"/>
</g>
<defs>
<clipPath id="clip0_17066_15003">
<rect width="16" height="16" fill="white"/>
</clipPath>
</defs>
</svg>
