<svg width="16" height="16" viewBox="0 0 16 16" fill="none" xmlns="http://www.w3.org/2000/svg">
<g clip-path="url(#clip0_16571_27648)">
<path d="M7.99967 14.6693C9.84061 14.6693 11.5073 13.9231 12.7137 12.7166C13.9201 11.5102 14.6663 9.84354 14.6663 8.0026C14.6663 6.16167 13.9201 4.495 12.7137 3.28856C11.5073 2.08213 9.84061 1.33594 7.99967 1.33594C6.15874 1.33594 4.49207 2.08213 3.28563 3.28856C2.0792 4.495 1.33301 6.16167 1.33301 8.0026C1.33301 9.84354 2.0792 11.5102 3.28563 12.7166C4.49207 13.9231 6.15874 14.6693 7.99967 14.6693Z" stroke="#333333" stroke-width="1.33333" stroke-linejoin="round"/>
<path fill-rule="evenodd" clip-rule="evenodd" d="M8.00033 3.66406C8.46056 3.66406 8.83366 4.03716 8.83366 4.4974C8.83366 4.95763 8.46056 5.33073 8.00033 5.33073C7.54009 5.33073 7.16699 4.95763 7.16699 4.4974C7.16699 4.03716 7.54009 3.66406 8.00033 3.66406Z" fill="#333333"/>
<path d="M8.16667 11.3307V6.66406H7.5M7 11.3307H9.33333" stroke="#333333" stroke-width="1.33333" stroke-linecap="round" stroke-linejoin="round"/>
</g>
<defs>
<clipPath id="clip0_16571_27648">
<rect width="16" height="16" fill="white"/>
</clipPath>
</defs>
</svg>
