<svg width="134" height="24" viewBox="0 0 134 24" fill="none" xmlns="http://www.w3.org/2000/svg">
<path d="M29.44 0.599998H32.192C33.1733 0.599998 33.664 0.834665 33.664 1.304C33.664 1.53867 33.568 1.74133 33.376 1.912C33.184 2.08267 32.96 2.232 32.704 2.36C32.448 2.488 32.16 2.744 31.84 3.128C31.52 3.49067 31.264 3.96 31.072 4.536L25.088 22.136C24.9387 22.6267 24.4267 22.9467 23.552 23.096C22.5067 23.2667 21.9093 23.1067 21.76 22.616L16.832 8.344L12.16 22.136C11.9893 22.6267 11.4773 22.9467 10.624 23.096C9.6 23.2453 9.01333 23.0853 8.864 22.616L2.528 4.568C2.336 3.992 2.09067 3.52267 1.792 3.16C1.49333 2.776 1.22667 2.53067 0.992 2.424C0.778667 2.296 0.586667 2.14667 0.416 1.976C0.266667 1.80533 0.192 1.60267 0.192 1.368C0.192 1.06933 0.309333 0.866665 0.544 0.759998C0.778667 0.653332 1.16267 0.599998 1.696 0.599998H6.112C7.02933 0.599998 7.488 0.845332 7.488 1.336C7.488 1.592 7.33867 1.85867 7.04 2.136C6.76267 2.392 6.54933 2.65867 6.4 2.936C6.272 3.192 6.31467 3.74667 6.528 4.6L11.36 18.968L15.904 5.688L15.552 4.6C15.36 4.024 15.1147 3.55467 14.816 3.192C14.5387 2.808 14.2827 2.552 14.048 2.424C13.8347 2.296 13.6427 2.14667 13.472 1.976C13.3227 1.80533 13.248 1.60267 13.248 1.368C13.248 1.06933 13.3653 0.866665 13.6 0.759998C13.8347 0.653332 14.2187 0.599998 14.752 0.599998H19.168C20.1067 0.599998 20.576 0.845332 20.576 1.336C20.576 1.592 20.4267 1.85867 20.128 2.136C19.8293 2.392 19.6053 2.65867 19.456 2.936C19.3067 3.192 19.3387 3.74667 19.552 4.6L24.288 18.872L29.024 4.568C29.2587 3.65067 29.312 3.064 29.184 2.808C29.056 2.552 28.8427 2.31733 28.544 2.104C28.2667 1.86933 28.128 1.624 28.128 1.368C28.128 0.855998 28.5653 0.599998 29.44 0.599998ZM45.383 18.488C45.6817 18.1893 45.9483 18.1253 46.183 18.296C46.439 18.4667 46.4923 18.7653 46.343 19.192C45.959 20.1947 45.1057 21.1333 43.783 22.008C42.4817 22.8827 40.8923 23.32 39.015 23.32C36.775 23.32 34.951 22.616 33.543 21.208C32.1563 19.8 31.463 18.008 31.463 15.832C31.463 13.4213 32.2523 11.4053 33.831 9.784C35.4097 8.14133 37.351 7.32 39.655 7.32C41.4257 7.32 42.8763 7.77867 44.007 8.696C45.1377 9.61333 45.8417 10.7867 46.119 12.216C46.2257 12.8347 45.9803 13.2613 45.383 13.496C43.0363 14.4773 39.7403 15.7147 35.495 17.208C35.8577 18.168 36.4657 18.9893 37.319 19.672C38.1937 20.3547 39.2603 20.696 40.519 20.696C42.3323 20.696 43.9537 19.96 45.383 18.488ZM38.471 9.112C37.3403 9.176 36.455 9.656 35.815 10.552C35.1963 11.4267 34.887 12.4507 34.887 13.624C34.887 14.4773 34.9617 15.1387 35.111 15.608C37.8843 14.6907 40.0283 13.9227 41.543 13.304C42.119 13.0907 42.343 12.696 42.215 12.12C42.023 11.1813 41.5643 10.424 40.839 9.848C40.1137 9.272 39.3243 9.02667 38.471 9.112ZM62.3518 18.488C62.6504 18.1893 62.9171 18.1253 63.1518 18.296C63.4078 18.4667 63.4611 18.7653 63.3118 19.192C62.9278 20.1947 62.0744 21.1333 60.7518 22.008C59.4504 22.8827 57.8611 23.32 55.9838 23.32C53.7438 23.32 51.9198 22.616 50.5118 21.208C49.1251 19.8 48.4318 18.008 48.4318 15.832C48.4318 13.4213 49.2211 11.4053 50.7998 9.784C52.3784 8.14133 54.3198 7.32 56.6238 7.32C58.3944 7.32 59.8451 7.77867 60.9758 8.696C62.1064 9.61333 62.8104 10.7867 63.0878 12.216C63.1944 12.8347 62.9491 13.2613 62.3518 13.496C60.0051 14.4773 56.7091 15.7147 52.4638 17.208C52.8264 18.168 53.4344 18.9893 54.2878 19.672C55.1624 20.3547 56.2291 20.696 57.4878 20.696C59.3011 20.696 60.9224 19.96 62.3518 18.488ZM55.4398 9.112C54.3091 9.176 53.4238 9.656 52.7838 10.552C52.1651 11.4267 51.8558 12.4507 51.8558 13.624C51.8558 14.4773 51.9304 15.1387 52.0798 15.608C54.8531 14.6907 56.9971 13.9227 58.5118 13.304C59.0878 13.0907 59.3118 12.696 59.1838 12.12C58.9918 11.1813 58.5331 10.424 57.8078 9.848C57.0824 9.272 56.2931 9.02667 55.4398 9.112ZM93.7525 0.599998H96.5045C97.4858 0.599998 97.9765 0.834665 97.9765 1.304C97.9765 1.53867 97.8805 1.74133 97.6885 1.912C97.4965 2.08267 97.2725 2.232 97.0165 2.36C96.7605 2.488 96.4725 2.744 96.1525 3.128C95.8325 3.49067 95.5765 3.96 95.3845 4.536L89.4005 22.136C89.2512 22.6267 88.7392 22.9467 87.8645 23.096C86.8192 23.2667 86.2218 23.1067 86.0725 22.616L81.1445 8.344L76.4725 22.136C76.3018 22.6267 75.7898 22.9467 74.9365 23.096C73.9125 23.2453 73.3258 23.0853 73.1765 22.616L66.8405 4.568C66.6485 3.992 66.4032 3.52267 66.1045 3.16C65.8058 2.776 65.5392 2.53067 65.3045 2.424C65.0912 2.296 64.8992 2.14667 64.7285 1.976C64.5792 1.80533 64.5045 1.60267 64.5045 1.368C64.5045 1.06933 64.6218 0.866665 64.8565 0.759998C65.0912 0.653332 65.4752 0.599998 66.0085 0.599998H70.4245C71.3418 0.599998 71.8005 0.845332 71.8005 1.336C71.8005 1.592 71.6512 1.85867 71.3525 2.136C71.0752 2.392 70.8618 2.65867 70.7125 2.936C70.5845 3.192 70.6272 3.74667 70.8405 4.6L75.6725 18.968L80.2165 5.688L79.8645 4.6C79.6725 4.024 79.4272 3.55467 79.1285 3.192C78.8512 2.808 78.5952 2.552 78.3605 2.424C78.1472 2.296 77.9552 2.14667 77.7845 1.976C77.6352 1.80533 77.5605 1.60267 77.5605 1.368C77.5605 1.06933 77.6778 0.866665 77.9125 0.759998C78.1472 0.653332 78.5312 0.599998 79.0645 0.599998H83.4805C84.4192 0.599998 84.8885 0.845332 84.8885 1.336C84.8885 1.592 84.7392 1.85867 84.4405 2.136C84.1418 2.392 83.9178 2.65867 83.7685 2.936C83.6192 3.192 83.6512 3.74667 83.8645 4.6L88.6005 18.872L93.3365 4.568C93.5712 3.65067 93.6245 3.064 93.4965 2.808C93.3685 2.552 93.1552 2.31733 92.8565 2.104C92.5792 1.86933 92.4405 1.624 92.4405 1.368C92.4405 0.855998 92.8778 0.599998 93.7525 0.599998ZM111.84 20.792C112.245 20.7493 112.448 20.8987 112.448 21.24C112.448 21.7093 112.128 22.1573 111.488 22.584C110.869 23.0107 110.197 23.224 109.472 23.224C108.746 23.224 108.202 23.032 107.84 22.648C107.477 22.2427 107.2 21.624 107.008 20.792C106.325 21.6027 105.482 22.2213 104.48 22.648C103.477 23.0747 102.485 23.288 101.504 23.288C99.6688 23.288 98.2075 22.84 97.1195 21.944C96.0315 21.0267 95.4875 19.8747 95.4875 18.488C95.4875 16.952 96.1168 15.704 97.3755 14.744C98.6555 13.7627 100.341 13.272 102.432 13.272C103.349 13.272 104.352 13.3787 105.44 13.592C105.248 12.888 105.077 12.3547 104.928 11.992C104.8 11.608 104.597 11.2133 104.32 10.808C104.064 10.3813 103.722 10.0827 103.296 9.912C102.869 9.72 102.346 9.624 101.728 9.624C100.49 9.624 99.1142 10.0507 97.5995 10.904C97.2795 11.096 97.0128 11.096 96.7995 10.904C96.6075 10.712 96.6182 10.4347 96.8315 10.072C97.2795 9.38933 98.0688 8.77067 99.1995 8.216C100.33 7.64 101.589 7.352 102.976 7.352C103.893 7.352 104.693 7.49067 105.376 7.768C106.058 8.04533 106.613 8.45067 107.04 8.984C107.466 9.496 107.808 10.04 108.064 10.616C108.32 11.1707 108.544 11.8213 108.736 12.568L110.272 19.064C110.421 19.7253 110.624 20.184 110.88 20.44C111.136 20.6747 111.456 20.792 111.84 20.792ZM102.72 21.4C103.722 21.4 104.629 21.0907 105.44 20.472C106.272 19.8533 106.624 19.2133 106.496 18.552C106.474 18.4027 106.25 17.496 105.824 15.832C105.76 15.4907 105.418 15.2347 104.8 15.064C104.202 14.872 103.594 14.776 102.976 14.776C101.717 14.776 100.736 15.064 100.032 15.64C99.3488 16.216 99.0182 16.9947 99.0395 17.976C99.0822 18.9787 99.4342 19.8 100.096 20.44C100.757 21.08 101.632 21.4 102.72 21.4ZM116.429 5.24C115.896 5.21867 115.469 5.048 115.149 4.728C114.829 4.38667 114.691 3.97067 114.733 3.48C114.755 2.79733 115.085 2.168 115.725 1.592C116.387 0.994666 117.08 0.727999 117.805 0.792C118.296 0.813333 118.712 1.00533 119.053 1.368C119.395 1.70933 119.555 2.12533 119.533 2.616C119.512 3.27733 119.171 3.896 118.509 4.472C117.848 5.02667 117.155 5.28267 116.429 5.24ZM115.757 18.68L115.725 12.568C115.725 12.0133 115.64 11.5547 115.469 11.192C115.32 10.808 115.149 10.5627 114.957 10.456C114.765 10.328 114.584 10.1893 114.413 10.04C114.264 9.86933 114.189 9.67733 114.189 9.464C114.189 9.29333 114.253 9.144 114.381 9.016C114.509 8.888 114.765 8.73867 115.149 8.568C115.789 8.248 116.472 7.97067 117.197 7.736C117.944 7.48 118.445 7.34133 118.701 7.32C119.171 7.32 119.405 7.59733 119.405 8.152L119.373 12.568V18.68C119.373 19.3627 119.448 19.9173 119.597 20.344C119.768 20.7493 119.939 21.016 120.109 21.144C120.301 21.272 120.472 21.432 120.621 21.624C120.792 21.816 120.877 22.04 120.877 22.296C120.877 22.7653 120.44 23 119.565 23H115.565C114.648 23 114.189 22.7547 114.189 22.264C114.189 22.008 114.264 21.7947 114.413 21.624C114.584 21.432 114.765 21.272 114.957 21.144C115.171 21.016 115.352 20.7493 115.501 20.344C115.672 19.9173 115.757 19.3627 115.757 18.68ZM132.492 19.736C132.77 19.5227 133.004 19.5013 133.196 19.672C133.41 19.8213 133.463 20.0453 133.356 20.344C133.058 21.0907 132.503 21.7733 131.692 22.392C130.903 23.0107 129.932 23.32 128.78 23.32C127.415 23.32 126.37 22.9147 125.644 22.104C124.94 21.272 124.588 20.0773 124.588 18.52V17.208C124.588 13.6027 124.631 10.9893 124.716 9.368H123.66C122.999 9.368 122.668 9.13333 122.668 8.664C122.668 8.344 122.796 8.04533 123.052 7.768C124.162 6.57333 125.41 5.50667 126.796 4.568C127.18 4.312 127.522 4.184 127.82 4.184C128.247 4.184 128.439 4.46133 128.396 5.016C128.354 5.63467 128.311 6.50933 128.268 7.64H131.468C131.682 7.64 131.852 7.66133 131.98 7.704C132.108 7.72533 132.204 7.81067 132.268 7.96C132.354 8.10933 132.375 8.32267 132.332 8.6C132.204 9.28267 131.767 9.60267 131.02 9.56L128.236 9.464C128.236 9.912 128.226 10.9787 128.204 12.664C128.183 14.3493 128.162 15.864 128.14 17.208C128.119 18.488 128.247 19.3947 128.524 19.928C128.802 20.4613 129.335 20.728 130.124 20.728C130.914 20.728 131.703 20.3973 132.492 19.736Z" fill="#1E1E1E"/>
</svg>
