<svg width="57" height="40" viewBox="0 0 57 40" fill="none" xmlns="http://www.w3.org/2000/svg">
<rect width="57" height="40" rx="5.51724" fill="#F8FAFB"/>
<rect x="0.5" y="0.5" width="56" height="39" rx="5.01724" stroke="#1E1E1E" stroke-opacity="0.06"/>
<path d="M33.7185 28.9799H23.5459V10.5156H33.7185V28.9799Z" fill="#FF5F00"/>
<path d="M24.1975 19.7415C24.1975 15.9959 25.9339 12.6595 28.6379 10.5094C26.6606 8.93708 24.165 7.99864 21.4529 7.99864C15.0321 7.99864 9.82739 13.256 9.82739 19.7415C9.82739 26.227 15.0321 31.4844 21.4529 31.4844C24.165 31.4844 26.6606 30.5459 28.6379 28.9736C25.9339 26.8235 24.1975 23.4871 24.1975 19.7415Z" fill="#EB001B"/>
<path d="M47.4385 19.7415C47.4385 26.227 42.2337 31.4844 35.813 31.4844C33.1009 31.4844 30.6053 30.5459 28.6272 28.9736C31.3319 26.8235 33.0683 23.4871 33.0683 19.7415C33.0683 15.9959 31.3319 12.6595 28.6272 10.5094C30.6053 8.93708 33.1009 7.99864 35.813 7.99864C42.2337 7.99864 47.4385 13.256 47.4385 19.7415Z" fill="#F79E1B"/>
</svg>
