<svg width="266" height="280" viewBox="0 0 266 280" fill="none" xmlns="http://www.w3.org/2000/svg">
<path d="M244.004 22.1307C241.455 22.4985 237.395 21.5322 237.415 18.3C237.435 15.5155 239.601 14.274 241.997 13.7018C241.907 13.583 241.887 13.4643 242.006 13.366C244.075 11.6494 247.69 12.4512 248.97 14.7937C250.927 18.3651 247.328 21.6521 244.004 22.1307Z" fill="#FFA9CF"/>
<path d="M127.275 49.6846C121.996 48.6361 123.832 42.7656 121.84 39.2193C121.477 38.5706 122.382 38.4289 123.107 38.6299C122.411 36.4142 121.835 34.2408 123.465 32.1335C123.867 31.6127 125.21 31.9508 125.457 32.5104C127.804 37.8899 128.821 43.5011 128.504 49.3613C128.478 49.857 127.524 49.7348 127.275 49.6846Z" fill="#FFA9CF"/>
<path d="M4.65195 93.0193C4.70107 92.9085 4.76161 92.8092 4.83013 92.7121C4.6314 92.5145 4.63823 92.3249 5.07795 92.2415C5.16247 92.2267 5.24933 92.2255 5.33727 92.213C6.49082 91.4112 8.48724 91.6648 9.39751 92.7361C10.5374 93.2066 11.5675 93.9307 12.3202 94.8993C13.0317 95.8107 13.9809 97.5707 12.8239 98.4867C11.8805 99.2325 10.117 99.028 9.04687 98.7711C6.75349 98.2228 3.40932 95.7935 4.65195 93.0193Z" fill="#FFA9CF"/>
<path d="M71.3007 127.425C71.3144 127.432 71.327 127.438 71.3384 127.444C71.9951 127.748 72.2327 128.723 71.2664 128.734C64.3909 128.807 57.8945 127.233 51.8652 123.907C50.9812 123.418 51.1708 122.578 52.2124 122.619C58.5318 122.871 64.5062 124.608 70.5081 126.485C71.1317 126.68 71.3681 127.095 71.3007 127.425Z" fill="#FFA9CF"/>
<path d="M55.891 190.119C56.3102 190.085 57.538 190.638 57.5802 190.934C58.446 191.322 59.0056 192.147 58.0622 193.23C55.2983 196.415 49.2575 196.76 45.4531 196.183C45.2487 196.154 43.8347 195.748 44.279 195.319C47.4735 192.226 51.463 190.466 55.891 190.119Z" fill="#FFA9CF"/>
<path d="M31.5111 214.012C33.6663 213.799 36.0464 214.704 37.4318 216.27C40.5704 219.819 36.8585 224.802 32.7742 224.989C29.0315 225.159 24.8548 222.68 24.0187 218.871C22.9988 214.219 28.0756 213.696 31.5111 214.012Z" fill="#FFA9CF"/>
<path d="M1.6738 234.044C4.11452 232.359 8.15993 233.486 9.61499 235.971C9.82286 236.328 9.50077 236.46 9.0622 236.458C9.52361 237.264 9.6869 238.213 9.35226 239.242C8.42714 242.102 4.56338 242.606 2.23002 241.301C-0.358036 239.853 -0.88684 235.812 1.6738 234.044Z" fill="#FFA9CF"/>
<path d="M58.1105 226.799C59.2469 227.248 60.1434 228.058 60.389 229.44C60.9018 232.322 57.0094 233.471 54.8611 232.849C52.6248 232.202 50.8819 229.63 52.1623 227.386C53.3741 225.259 56.4076 225.382 58.1105 226.799Z" fill="#FFA9CF"/>
<path d="M84.8738 241.53C85.0017 241.562 85.2164 241.635 85.4129 241.743C85.5785 241.801 85.7315 241.863 85.8343 241.925C87.1638 242.726 87.9176 244.362 87.262 245.858C86.5242 247.542 84.5255 247.714 82.9699 247.19C81.4531 246.678 79.9318 245.278 80.5006 243.528C81.1025 241.671 83.1458 241.091 84.8738 241.53Z" fill="#FFA9CF"/>
<path d="M122.155 259.128C124.187 259.282 126.291 260.525 126.613 262.498C126.862 264.017 126.02 265.592 124.737 266.4C123.426 267.223 121.763 267.15 120.331 266.716C117.594 265.888 115.226 262.641 117.505 260.012C118.583 258.768 120.506 258.596 122.155 259.128Z" fill="#FFA9CF"/>
<path d="M167.173 245.402C167.586 246.207 167.887 247.011 168.109 247.817C170.502 248.29 171.098 251.544 171.515 253.529C172.457 258.012 171.719 262.821 173.238 267.193C174.272 270.166 179.796 274.294 177.92 277.865C177.237 279.164 176.134 279.465 174.791 279.222C172.307 278.771 172.163 277.06 171.87 274.976C171.37 271.37 170.764 269.685 168.859 266.681C167.777 264.972 167.031 263.36 166.699 261.334C166.017 257.207 166.942 253.097 166.344 249.096C166.227 249.008 166.143 248.914 166.146 248.805C166.152 248.634 166.176 248.49 166.211 248.363C165.987 247.239 165.634 246.121 165.069 245.017C164.93 244.744 166.898 244.861 167.173 245.402Z" fill="#FFA9CF"/>
<path d="M228.968 208.534C227.224 206.547 226.103 204.154 225.544 201.584C225.314 200.52 227.5 200.768 227.712 201.737C227.72 201.775 227.731 201.81 227.739 201.847C230.173 202.962 232.417 204.514 234.194 206.527C235.316 207.8 236.673 210.444 234.255 211.208C232.176 211.862 230.206 209.943 228.968 208.534Z" fill="#FFA9CF"/>
<path d="M203.035 221.8C203.564 221.92 204.07 222.232 204.467 222.66C204.552 222.752 204.559 222.82 204.537 222.881C209.087 226.406 212.518 231.028 214.547 236.462C214.638 236.703 214.323 236.815 214.15 236.839C207.669 237.752 203.909 230.288 202.01 224.659C201.539 224.561 201.075 224.353 200.982 224.064C200.672 223.11 200.83 222.446 201.529 221.717C201.858 221.374 202.558 221.569 203.035 221.8Z" fill="#FFA9CF"/>
<path d="M256.535 192.49C256.82 192.435 257.131 192.425 257.45 192.432C257.502 192.434 257.555 192.435 257.608 192.437C259.009 192.52 260.507 193.204 260.834 194.603C260.888 194.833 260.728 194.956 260.486 195.012C260.692 195.749 260.73 196.841 260.207 197.396C259.585 198.057 258.188 197.926 257.414 197.724C256.452 197.473 255.491 196.918 254.921 196.086C253.858 194.532 254.782 192.821 256.535 192.49Z" fill="#FFA9CF"/>
<path d="M258.155 162.697C258.572 162.506 259.046 162.398 259.54 162.362C259.69 162.175 260.134 162.24 260.334 162.271C260.733 162.331 261.12 162.457 261.492 162.621C262.347 162.905 263.112 163.404 263.551 164.126C263.632 164.26 263.535 164.328 263.382 164.357C263.647 164.921 263.748 165.567 263.563 166.282C262.961 168.623 259.891 168.176 258.32 167.196C256.593 166.12 256.004 163.677 258.155 162.697Z" fill="#FFA9CF"/>
<path d="M54.7366 163.313C50.0287 158.899 55.045 153.231 59.6181 151.652C63.877 150.181 69.8835 150.526 69.5317 144.555C69.3832 142.042 68.1862 139.23 69.1788 136.747C70.081 134.479 71.9461 133.739 74.2384 133.586C75.8179 133.482 82.1441 135.067 85.1182 134.397C85.0428 133.547 84.9664 132.697 84.891 131.849C84.2834 131.537 83.6929 131.186 83.1309 130.798C82.1624 129.835 81.3801 129.394 80.6617 128.138C80.423 127.721 80.8627 127.53 81.235 127.53C84.0104 127.534 86.7846 127.536 89.5577 127.539C92.3056 127.542 95.2866 128.263 95.2889 124.292C95.2889 119.576 88.1483 115.156 84.8955 112.58C80.7485 109.297 76.606 106.016 72.4601 102.734C69.4254 100.329 65.6702 98.0394 63.2032 95.0048C60.5306 91.7166 60.1583 85.4703 65.6599 85.1779C67.7945 85.0649 69.7624 86.368 71.4585 87.4611C76.373 90.6304 81.1619 89.8138 86.3471 91.4288C88.8564 92.21 90.7238 93.6399 92.5066 95.5507C93.9971 97.1451 95.2009 99.3643 96.9096 100.72C102.458 105.122 106.473 102.674 107.474 97.3393C108.325 92.8199 105.614 88.7482 103.936 84.7805C103.054 82.695 101.577 79.4273 104.224 78.0111C105.183 77.4972 106.406 77.5063 107.378 78.0831C107.986 78.4451 108.344 79.6329 108.817 79.8225C111.231 80.7865 112.322 75.4745 112.766 73.2462C113.727 68.4081 113.725 63.6912 113.789 58.7812C113.832 55.3434 114.125 51.2157 117.633 49.4649C121.47 47.5541 124.868 50.2187 126.047 53.7981C126.636 55.5684 126.764 57.4563 127.295 59.2392C128.278 62.5422 130.4 64.1709 133.134 66.2392C134.125 66.9885 135.157 67.6121 136.038 68.5041C136.862 69.3367 137.445 70.2264 138.113 71.1652C138.417 71.6438 138.717 72.1246 139.022 72.602C140.426 75.6149 143.145 75.8365 147.176 73.2679C147.149 72.9869 147.347 72.9013 147.584 72.835C148.938 72.4604 149.974 72.4684 151.231 73.2267C154.195 75.0119 153.254 77.6274 152.875 80.5066C152.357 81.8898 152.194 83.3174 152.386 84.7885C154.555 86.4057 156.266 86.344 157.516 84.6046C159.568 83.4693 161.593 80.4804 163.251 78.8015C166.097 75.9199 168.943 73.0394 171.791 70.1567C173.615 65.538 175.312 60.9969 177.586 57.8435C178.836 56.1097 180.242 54.5051 181.672 52.9186C185.462 45.1945 189.239 37.4509 192.538 29.512C193.943 26.1358 195.217 22.7117 196.36 19.2454C196.385 18.0062 196.383 16.7658 196.329 15.5164C196.231 13.2492 195.819 10.772 196.575 8.56425C197.367 6.24117 199.254 4.22646 201.776 4.06085C202.243 3.41327 202.755 2.79652 203.37 2.25401C206.623 -0.601299 212.275 -0.977053 215.28 2.48358C219.916 7.82187 215.264 16.3752 211.08 21.5936C210.968 23.1012 210.755 24.4706 210.481 25.5625C207.453 37.6462 199.532 48.4838 194.393 59.7291C190.872 67.4316 179.063 96.1652 195.561 96.517C201.976 96.6529 209.678 87.8996 214.237 84.166C220.351 79.1544 226.362 73.9646 232.606 69.114C235.125 67.1586 237.872 65.016 241.252 65.4318C243.762 65.7401 246.2 67.483 246.364 70.1385C246.988 80.1457 230.049 86.0677 223.756 90.5505C222.173 91.6778 215.299 96.7123 211.241 101.238C211.178 101.928 210.984 102.658 210.688 103.515C210.324 104.567 209.244 105.821 209.197 106.938C208.986 107.299 208.881 107.623 208.867 107.913C210.531 108.81 216.082 106.894 217.409 106.753C220.688 106.403 223.95 106.576 227.209 107.031C227.701 107.101 228.306 107.355 228.377 107.923C228.712 110.62 227.293 112.323 224.843 113.414C223.362 114.076 221.826 114.168 220.221 114.288C220.013 114.304 219.837 114.318 219.664 114.334C219.397 114.485 219.132 114.638 218.866 114.789C217.693 115.457 215.339 116.326 214.498 117.278C214.19 117.473 213.88 117.668 213.572 117.864C213.572 118.004 213.581 118.15 213.606 118.305C213.583 118.437 213.586 118.56 213.575 118.689C214.157 119.788 214.737 120.89 215.316 121.989C215.738 122.274 216.234 122.532 216.81 122.76C217.133 122.811 217.392 122.974 217.58 123.174C220.057 123.288 223.788 122.461 225.512 122.354C228.378 122.175 231.247 121.935 234.091 121.519C240.389 120.599 245.809 118.246 251.747 116.23C254.683 115.234 257.757 114.594 260.764 115.635C266.513 117.626 267.992 123.919 262.852 127.601C259.644 129.899 255.449 130.319 251.626 130.518C249.149 130.649 246.661 130.688 244.173 130.704C242.375 131.051 240.557 131.156 238.607 131.392C234.141 131.93 231.617 134.909 227.591 136.046C223.632 137.165 220.016 136.458 216.266 138.919C214.696 139.95 213.013 141.228 211.714 142.58C210.955 143.369 210.168 144.114 209.775 145.179C208.802 147.834 210.707 148.667 213.231 148.9C216.517 149.205 219.732 148.144 223.071 148.641C225.761 149.042 227.95 150.372 230.428 151.355C234.111 152.817 237.54 151.75 241.088 152.771C242.188 153.086 243.413 153.595 244.009 154.658C245.843 157.939 241.781 160.436 238.957 160.397C236.984 160.372 235.148 159.363 233.489 158.424C227.839 155.223 221.787 150.464 214.955 152.43C210.578 153.688 212.063 155.994 215.516 157.924C218.137 159.39 219.277 159.587 221.924 160.185C224.499 160.763 227.021 161.616 229.334 162.889C232.865 164.833 239.956 171.003 236.292 175.626C233.936 178.598 231.307 176.736 229.117 175.081C224.594 171.663 223.26 169.507 221.108 174.189C219.336 178.05 220.904 177.082 224.141 178.084C225.221 178.418 226.316 178.704 227.354 179.163C230.04 180.352 231.88 181.93 232.99 184.634C233.091 184.881 232.754 184.965 232.597 184.998C227.71 186.061 224.604 182.716 220.801 180.126C216.331 177.085 211.554 176.291 206.705 175.529C206.949 176.092 206.486 176.774 205.558 176.514C203.727 176.001 201.786 175.609 200.658 177.158C200.033 178.016 200.079 179.339 200.234 180.351C200.705 183.433 203.092 184.09 205.424 185.382C206.926 186.214 208.454 187.727 208.039 189.618C207.682 191.237 206.114 191.802 204.594 191.459C203.305 191.168 202.823 190.292 201.769 189.661C201.457 189.473 201.289 188.884 200.966 188.774C198.714 188.753 197.661 189.225 197.806 190.196C206.905 198.686 216.867 205.752 226.53 213.546C231.79 217.787 238.344 227.467 231.092 233.259C225.417 237.794 217.839 233.64 213.562 229.335C209.916 225.663 206.799 221.409 204.021 217.056C200.906 212.168 198.104 206.742 192.866 203.994C193.414 206.775 193.963 209.553 194.511 212.334C194.686 213.225 192.688 212.771 192.44 212.251C190.258 207.67 187.488 203.457 183.846 199.889C182.79 198.857 181.663 197.769 180.441 196.938C179.714 196.529 178.987 196.119 178.258 195.709C175.86 196.36 173.459 197.01 171.059 197.659C170.19 198.416 169.115 200.675 168.338 201.579C166.111 204.166 165.874 206.099 166.476 209.423C166.949 212.023 167.411 214.571 167.543 217.22C167.795 222.371 167.099 227.402 165.729 232.367C165.511 233.152 163.712 232.595 163.59 231.956C162.671 227.171 161.754 222.387 160.832 217.602C159.071 222.338 157.194 228.678 151.243 226.841C149.35 226.259 148.412 224.852 147.986 222.999C147.576 221.203 148.653 218.664 147.728 217.083C146.072 214.251 142.165 214.077 139.373 213.433C137.341 212.965 135.621 212.182 134.296 210.526C132.343 208.084 132.688 202.877 130.519 201.049C129.44 200.134 127.112 200.069 125.19 200.478C124.237 201.102 123.381 202.029 122.615 202.99C121.52 204.367 120.904 205.492 119.428 206.575C117.119 208.268 114.805 209.077 112.956 211.366C110.951 213.851 109.436 216.879 107.81 219.613C103.674 226.572 99.678 236.162 90.2429 235.882C89.7918 235.866 88.9421 235.689 88.7456 235.193C87.2597 231.452 89.472 228.888 91.5255 225.931C95.2603 220.569 95.3688 216.069 96.0255 209.896C96.5257 205.182 99.7443 203.263 101.359 199.074C102.722 195.548 102.508 191.928 105.399 189.152C105.407 189.147 105.422 189.144 105.432 189.139C105.867 188.223 106.226 187.272 106.327 186.265C106.867 180.882 98.8534 178.604 95.4202 182.432C92.0692 186.168 89.9505 189.222 84.3518 188.537C81.4611 188.183 76.9497 186.288 76.7761 182.776C76.703 181.256 77.3472 180.321 78.6275 179.653C79.2192 179.345 80.6594 179.577 81.1539 179.203C81.7798 175.21 80.6845 173.391 77.8692 173.742C77.2262 173.709 76.5957 173.598 75.971 173.408C75.6032 173.339 74.6929 173.12 74.7489 172.572C75.9241 160.867 60.3947 168.618 54.7366 163.313Z" fill="#FFA9CF"/>
<path d="M59.2491 213.582C60.4472 211.605 63.3001 212.36 65.131 213.184C66.5917 213.086 68.2136 213.856 68.6201 215.267C69.4927 218.286 65.7306 219.524 63.4669 219.011C61.4054 218.545 57.6844 216.173 59.2491 213.582Z" fill="#FFA9CF"/>
</svg>
