<svg width="48" height="48" viewBox="0 0 48 48" fill="none" xmlns="http://www.w3.org/2000/svg">
<path d="M44 10C44 11.5913 43.3679 13.1174 42.2426 14.2426C41.1174 15.3679 39.5913 16 38 16C36.4087 16 34.8826 15.3679 33.7574 14.2426C32.6321 13.1174 32 11.5913 32 10C32 8.4087 32.6321 6.88258 33.7574 5.75736C34.8826 4.63214 36.4087 4 38 4C39.5913 4 41.1174 4.63214 42.2426 5.75736C43.3679 6.88258 44 8.4087 44 10Z" fill="#4489FF"/>
<path opacity="0.5" d="M30.47 5.07001C28.3869 4.35978 26.2008 3.99826 24 4.00001C12.954 4.00001 4 12.954 4 24C4 27.2 4.752 30.224 6.086 32.906C6.442 33.618 6.56 34.432 6.354 35.202L5.164 39.654C5.04614 40.0946 5.04625 40.5584 5.16431 40.999C5.28237 41.4395 5.51424 41.8412 5.83663 42.1638C6.15902 42.4864 6.5606 42.7185 7.00105 42.8369C7.44151 42.9552 7.90534 42.9556 8.346 42.838L12.798 41.646C13.5708 41.4508 14.3883 41.5454 15.096 41.912C17.8619 43.2891 20.9102 44.004 24 44C35.046 44 44 35.046 44 24C44 21.736 43.624 19.56 42.93 17.53C41.2 18.6631 39.1326 19.1658 37.0756 18.9536C35.0185 18.7415 33.0972 17.8274 31.6349 16.3651C30.1726 14.9028 29.2585 12.9815 29.0464 10.9244C28.8342 8.86736 29.3369 6.79997 30.47 5.07001Z" fill="#4489FF"/>
</svg>
