<svg width="48" height="48" viewBox="0 0 48 48" fill="none" xmlns="http://www.w3.org/2000/svg">
<path opacity="0.5" fill-rule="evenodd" clip-rule="evenodd" d="M28 44H20C12.458 44 8.686 44 6.344 41.656C4.002 39.312 4 35.542 4 28V20C4 12.458 4 8.686 6.344 6.344C8.688 4.002 12.478 4 20.06 4C21.272 4 22.242 4 23.06 4.034C23.0333 4.194 23.02 4.35667 23.02 4.522L23 10.19C23 12.384 23 14.324 23.21 15.886C23.438 17.58 23.96 19.274 25.344 20.658C26.724 22.038 28.42 22.562 30.114 22.79C31.676 23 33.616 23 35.81 23H43.914C44 24.068 44 25.38 44 27.126V28C44 35.542 44 39.314 41.656 41.656C39.312 43.998 35.542 44 28 44Z" fill="#4489FF"/>
<path d="M17.7081 28.0477L17.9041 28.3997C18.1201 28.7877 18.2281 28.9797 18.3981 29.1077C18.5681 29.2357 18.7761 29.2837 19.1941 29.3777L19.5761 29.4657C21.0521 29.7997 21.7901 29.9657 21.9661 30.5297C22.1421 31.0937 21.6381 31.6837 20.6321 32.8597L20.3721 33.1637C20.0861 33.4977 19.9421 33.6637 19.8781 33.8717C19.8141 34.0797 19.8361 34.3017 19.8781 34.7477L19.9181 35.1537C20.0701 36.7237 20.1461 37.5097 19.6861 37.8577C19.2261 38.2057 18.5361 37.8877 17.1541 37.2517L16.7981 37.0877C16.4041 36.9077 16.2081 36.8157 16.0001 36.8157C15.7921 36.8157 15.5961 36.9077 15.2021 37.0877L14.8461 37.2517C13.4641 37.8897 12.7721 38.2057 12.3141 37.8577C11.8561 37.5097 11.9301 36.7237 12.0821 35.1537L12.1221 34.7477C12.1641 34.3017 12.1861 34.0797 12.1221 33.8717C12.0581 33.6637 11.9141 33.4977 11.6281 33.1637L11.3681 32.8597C10.3621 31.6837 9.85807 31.0957 10.0341 30.5297C10.2101 29.9657 10.9481 29.7997 12.4241 29.4657L12.8041 29.3777C13.2241 29.2837 13.4341 29.2377 13.6041 29.1077C13.7721 28.9797 13.8801 28.7877 14.0961 28.3997L14.2921 28.0477C15.0521 26.6817 15.4321 26.0017 16.0001 26.0017C16.5681 26.0017 16.9481 26.6817 17.7081 28.0477ZM23.0201 4.52172L23.0001 10.1917C23.0001 12.3857 23.0001 14.3237 23.2101 15.8877C23.4381 17.5817 23.9601 19.2757 25.3441 20.6577C26.7241 22.0397 28.4201 22.5637 30.1141 22.7917C31.6761 23.0017 33.6161 23.0017 35.8101 23.0017H43.9141C43.9407 23.3111 43.9594 23.6444 43.9701 24.0017H44.0001C44.0001 23.4657 44.0001 23.1977 43.9801 22.8817C43.8282 20.9808 43.1663 19.156 42.0641 17.5997C41.8761 17.3437 41.7481 17.1917 41.4941 16.8857C39.9081 14.9897 37.8201 12.6257 36.0001 11.0017C34.3801 9.55372 32.1581 7.97172 30.2201 6.67972C28.5561 5.56772 27.7241 5.01172 26.5821 4.59972C26.2494 4.48223 25.9118 4.37946 25.5701 4.29172C24.8021 4.10172 24.0541 4.03572 23.0001 4.01172L23.0201 4.52172Z" fill="#4489FF"/>
</svg>
