<svg width="411" height="201" viewBox="0 0 411 201" fill="none" xmlns="http://www.w3.org/2000/svg">
<path opacity="0.1" d="M454.231 133.066C481.37 171.094 469.059 208.48 445.226 231.691C421.608 254.692 376.073 255.14 337.602 221.215C347.715 230.898 371.455 271.241 353.674 307.061C335.245 344.187 303.434 350.397 275.421 344.273C231.466 334.665 197.228 306.573 169.254 280.517C179.133 305.47 189.62 345.672 169.075 377.48C148.53 409.288 101.081 416.759 59.5076 365.337C17.9339 313.914 -42.0708 193.202 43.5169 140.264C77.837 119.036 120.205 135.112 142.587 146.981C152.276 152.119 180.343 168.385 215.235 196.939C176.697 158.677 128.572 84.8883 163.341 35.8228C232.879 -62.3081 405.673 65.0235 454.231 133.066Z" fill="#7DADFE"/>
</svg>
