<svg width="457" height="133" viewBox="0 0 457 133" fill="none" xmlns="http://www.w3.org/2000/svg">
<path opacity="0.1" d="M456.478 40.2268C456.322 86.9459 424.505 110.119 391.606 115.057C359.003 119.951 321.766 93.739 310.327 43.7383C312.887 57.5033 308.619 104.118 273.275 122.828C236.643 142.219 207.188 128.696 188.014 107.374C157.929 73.9189 146.523 31.1256 139.014 -6.35849C132.473 19.6686 117.525 58.434 82.2784 72.2727C47.0314 86.1114 4.14166 64.4854 0.394292 -1.53426C-3.35311 -67.5539 18.3723 -200.595 118.767 -193.631C159.025 -190.838 184.047 -153.057 195.294 -130.357C200.163 -120.53 213.461 -90.9411 225.13 -47.3909C216.166 -100.952 220.153 -188.957 277.022 -208.507C390.76 -247.608 456.759 -43.3651 456.478 40.2268Z" fill="#7DADFE"/>
</svg>
