<svg width="421" height="246" viewBox="0 0 421 246" fill="none" xmlns="http://www.w3.org/2000/svg">
<path opacity="0.1" d="M-33.8509 133.066C-60.9901 171.094 -48.6789 208.48 -24.8458 231.691C-1.22753 254.692 44.3077 255.14 82.7782 221.215C72.6659 230.898 48.9257 271.241 66.7064 307.061C85.135 344.187 116.946 350.397 144.959 344.273C188.914 334.665 223.152 306.573 251.126 280.517C241.248 305.47 230.761 345.672 251.305 377.48C271.85 409.288 319.299 416.759 360.873 365.337C402.447 313.914 462.451 193.202 376.863 140.264C342.543 119.036 300.175 135.112 277.793 146.981C268.104 152.119 240.038 168.385 205.145 196.939C243.683 158.677 291.808 84.8883 257.039 35.8228C187.501 -62.3081 14.7078 65.0235 -33.8509 133.066Z" fill="#7DADFE"/>
</svg>
