<svg width="46" height="50" viewBox="0 0 46 50" fill="none" xmlns="http://www.w3.org/2000/svg">
<path d="M21.8871 50L22.4435 39.2928C22.4516 39.1167 22.4203 38.9411 22.3517 38.7787C22.2832 38.6164 22.1793 38.4716 22.0476 38.355C21.9159 38.2383 21.7598 38.1528 21.5907 38.1046C21.4217 38.0565 21.2441 38.0471 21.071 38.0769L10.4489 39.9504L11.8833 35.9801C11.9415 35.8222 11.949 35.6499 11.9046 35.4875C11.8603 35.325 11.7663 35.1806 11.636 35.0744L0 25.6203L2.62151 24.3921C2.79856 24.3081 2.93897 24.1622 3.01639 23.9817C3.0938 23.8013 3.10289 23.5986 3.04194 23.4119L0.741935 16.3151L7.44409 17.7419C7.62566 17.7799 7.81474 17.7537 7.97927 17.6678C8.14379 17.5819 8.27363 17.4415 8.34677 17.2705L9.64516 14.206L14.8758 19.8387C14.9954 19.9653 15.1527 20.0495 15.324 20.0788C15.4954 20.1082 15.6716 20.0809 15.8263 20.0013C15.9809 19.9216 16.1056 19.7938 16.1817 19.6369C16.2578 19.4801 16.2812 19.3028 16.2484 19.1315L13.7258 6.0794L17.7694 8.42432C17.8643 8.48014 17.9696 8.51582 18.0789 8.52913C18.1881 8.54244 18.2989 8.5331 18.4044 8.5017C18.5099 8.47029 18.6078 8.41749 18.6922 8.34655C18.7765 8.27562 18.8454 8.18807 18.8946 8.08933L23 0L27.1054 8.08933C27.1546 8.18807 27.2235 8.27562 27.3078 8.34655C27.3922 8.41749 27.4901 8.47029 27.5956 8.5017C27.7011 8.5331 27.8119 8.54244 27.9211 8.52913C28.0304 8.51582 28.1357 8.48014 28.2306 8.42432L32.2742 6.0794L29.7516 19.1315C29.7188 19.3028 29.7422 19.4801 29.8183 19.6369C29.8944 19.7938 30.0191 19.9216 30.1737 20.0013C30.3284 20.0809 30.5046 20.1082 30.676 20.0788C30.8473 20.0495 31.0046 19.9653 31.1242 19.8387L36.3548 14.206L37.6532 17.2705C37.7264 17.4415 37.8562 17.5819 38.0207 17.6678C38.1853 17.7537 38.3743 17.7799 38.5559 17.7419L45.2581 16.3151L42.9581 23.4119C42.8971 23.5986 42.9062 23.8013 42.9836 23.9817C43.061 24.1622 43.2014 24.3081 43.3785 24.3921L46 25.6203L34.364 35.0744C34.2337 35.1806 34.1397 35.325 34.0954 35.4875C34.051 35.6499 34.0585 35.8222 34.1167 35.9801L35.5511 39.9504L24.929 38.0769C24.7559 38.0471 24.5783 38.0565 24.4093 38.1046C24.2402 38.1528 24.0841 38.2383 23.9524 38.355C23.8207 38.4716 23.7168 38.6164 23.6483 38.7787C23.5797 38.9411 23.5484 39.1167 23.5565 39.2928L24.1129 50H21.8871Z" fill="#4489FF"/>
</svg>
