<svg width="208" height="191" viewBox="0 0 208 191" fill="none" xmlns="http://www.w3.org/2000/svg">
<path opacity="0.1" d="M464.137 -26.5941C485.225 15.0954 467.411 50.1946 440.347 69.5415C413.527 88.714 368.446 82.283 335.538 42.9387C344.072 54.0378 361.45 97.5023 338.466 130.228C314.644 164.146 282.26 165.482 255.493 155.2C213.492 139.067 183.887 106.128 160.167 76.1484C166.166 102.306 170.464 143.63 145.353 171.973C120.241 200.315 72.2084 200.538 38.8738 143.429C5.53912 86.3196 -35.5555 -42.0674 57.0428 -81.4787C94.174 -97.2822 133.63 -74.995 153.964 -59.8832C162.766 -53.3413 188.055 -33.0248 218.238 0.468588C185.917 -43.1717 149.483 -123.38 191.26 -166.635C274.815 -253.144 426.406 -101.187 464.137 -26.5941Z" fill="#7DADFE"/>
</svg>
