<svg width="96" height="127" viewBox="0 0 96 127" fill="none" xmlns="http://www.w3.org/2000/svg">
<g opacity="0.2">
<path d="M49.4628 126.273C32.7183 126.273 19.1445 124.328 19.1445 121.928C19.1445 120.292 25.4556 118.866 34.78 118.125C34.7576 118.499 34.7476 118.875 34.7556 119.258C34.774 120.128 34.901 121.157 35.4301 121.928C36.2685 123.371 37.9879 123.715 39.4945 123.715C39.5084 123.715 39.5224 123.715 39.5363 123.715C40.1605 123.717 41.0282 123.717 41.9511 123.717C42.3616 123.717 42.7826 123.717 43.1986 123.717C43.6224 123.717 44.0406 123.717 44.4364 123.717C45.0619 123.717 45.6322 123.717 46.0783 123.717C46.1754 123.72 46.2696 123.721 46.3632 123.721C50.644 123.721 51.6521 121.127 51.1564 117.589C51.3665 117.591 51.5746 117.593 51.7826 117.595C51.8056 118.166 51.8482 118.661 51.9146 119.06C52.4256 122.131 54.5967 123.755 58.1934 123.755H66.288C67.7337 123.755 68.8291 123.304 69.5439 122.414C70.4298 121.311 70.4927 119.764 70.2763 118.768C76.1292 119.56 79.781 120.683 79.781 121.928C79.781 124.328 66.207 126.273 49.4628 126.273Z" fill="#1E1E1E"/>
</g>
<path d="M93.5912 66.1038C93.3146 66.5588 92.9974 67.0125 92.6404 67.4659C87.9812 73.3833 73.4793 81.8735 57.942 79.0139C56.9099 78.8245 55.8738 78.5834 54.8346 78.2898L53.2031 62.7984C74.2284 66.0197 79.8097 57.9375 83.6615 55.7267C87.1882 53.3788 90.887 54.0769 93.2405 56.3715C95.5064 58.5831 95.8969 62.3313 93.5912 66.1038Z" fill="#FFAD40"/>
<path d="M53.2031 62.797L54.8346 78.2889C55.8746 78.5829 56.9099 78.8228 57.9428 79.0142C70.1838 81.2662 81.7816 76.4754 88.4293 71.4459C90.2201 70.0922 91.6531 68.7206 92.6406 67.4646C92.9976 67.0116 93.314 66.5574 93.5922 66.1025C95.8979 62.33 95.5058 58.5825 93.2399 56.3701C90.8888 54.0755 87.1892 53.379 83.6617 55.7253C82.9062 56.1605 82.0837 56.8188 81.0922 57.5759C77.0252 60.673 70.1033 65.3872 53.2031 62.797Z" fill="#FFAD40"/>
<path d="M53.2021 62.7976L53.5927 66.507L54.8344 78.2901C55.8744 78.5828 56.9097 78.8227 57.9434 79.0141C70.1843 81.2662 81.7821 76.4762 88.4289 71.446C90.2198 70.0922 91.6528 68.7205 92.641 67.4645C92.9973 67.0112 93.3145 66.5587 93.5926 66.1029C95.8975 62.3298 95.5062 58.5824 93.2395 56.3707C90.8884 54.0754 87.1888 53.3796 83.6622 55.7268C82.9066 56.1603 82.0849 56.8186 81.0919 57.5758C79.1289 59.0717 76.4989 60.9422 72.4015 62.1887C68.0141 63.5221 61.9427 64.1368 53.2021 62.7976Z" fill="#FF7F00"/>
<path d="M88.429 71.4453C90.2199 70.0916 91.6529 68.7199 92.6403 67.4639C92.9974 67.011 93.3138 66.5568 93.5919 66.1019C95.8976 62.3293 95.5055 58.5819 93.2397 56.3694C90.8885 54.0749 87.1889 53.3783 83.6614 55.7247C82.9059 56.1598 82.0834 56.8182 81.0919 57.5753C77.3564 64.2968 83.8798 71.1389 88.429 71.4453Z" fill="#8E3410"/>
<path d="M63.2833 66.6641C62.9078 66.1677 62.4337 65.5617 61.8877 64.9125C62.578 64.6814 63.265 64.4254 63.9501 64.1458C67.329 64.0257 70.1124 63.5339 72.438 62.841C69.8342 64.9791 66.6727 66.1625 63.2833 66.6641Z" fill="#D9640C"/>
<path d="M69.5666 78.5703C69.3264 77.9448 69.0699 77.3128 68.7999 76.6792C68.6948 76.4325 68.5874 76.1857 68.4785 75.939C68.9081 75.9795 69.3563 76.0103 69.8246 76.0292C70.0909 76.04 70.3623 76.0456 70.6383 76.0456C75.7281 76.0456 82.2193 74.2129 87.333 71.2528C87.4053 71.272 87.4769 71.2901 87.5485 71.3068C85.0591 73.122 81.8091 74.975 77.9102 76.4241C75.6103 77.2791 72.7741 78.105 69.5666 78.5703Z" fill="#D9640C"/>
<path d="M87.5485 71.3125C87.4769 71.2957 87.4053 71.2777 87.333 71.2585C87.8386 70.9657 88.3314 70.6617 88.8076 70.3477C88.412 70.6665 87.9923 70.9889 87.5485 71.3125Z" fill="#842C18"/>
<path d="M64.3045 80.2188C61.1703 80.2188 57.9333 79.8175 54.6644 78.8911C54.3322 78.7974 54.1395 78.4518 54.2335 78.1197C54.3275 77.7873 54.6724 77.5947 55.0053 77.6888C64.1604 80.2829 72.5142 78.4362 77.9097 76.4305C85.0871 73.7627 90.0668 69.7256 92.1497 67.0791C95.057 63.3973 95.319 59.2753 92.8029 56.8197C90.4245 54.4987 86.9716 54.2748 84.0078 56.2478C83.9959 56.2558 83.9847 56.2629 83.9728 56.2693C83.3762 56.6118 82.7135 57.1208 81.9448 57.7102C77.8317 60.866 70.9474 66.1496 53.108 63.4165C52.7671 63.3645 52.5329 63.0452 52.5855 62.7043C52.6381 62.3634 52.9551 62.1284 53.2976 62.181C70.6081 64.8327 77.2295 59.7532 81.1842 56.7185C81.9807 56.1076 82.6697 55.5787 83.3324 55.1964C86.8051 52.8953 90.8626 53.1804 93.6758 55.9252C95.0777 57.2928 95.8192 59.1973 95.7635 61.2873C95.7045 63.4762 94.7941 65.7463 93.131 67.8529C89.1445 72.9184 77.666 80.218 64.3045 80.2188Z" fill="#512717"/>
<path d="M7.9387 73.9754C7.93474 75.1842 7.64358 76.3756 7.14575 77.4771C6.70241 78.4591 6.29831 79.4222 5.94078 80.3752C4.81983 83.371 4.15775 86.2769 4.16947 89.4308C4.18315 92.9264 5.11277 96.3791 7.05603 99.2871C14.5942 110.565 32.5997 109.268 40.7263 97.303C34.9161 93.9108 31.7539 88.4856 30.4475 81.8324C29.8875 78.9828 29.6664 75.9066 29.725 72.6707C29.9813 58.442 11.8091 51.9953 3.36876 63.4532C1.64631 65.7931 0.585938 68.6711 0.585938 71.9678C3.14813 67.3546 7.95433 68.7224 7.9387 73.9754Z" fill="#FFDAB6"/>
<path d="M30.0568 83.3918C29.4963 80.5428 29.2757 77.4672 29.3343 74.2307C29.59 60.0025 11.4182 53.5553 2.97778 65.0132C2.05531 66.2661 1.32522 67.6752 0.84375 69.2189C1.25566 67.0527 2.1433 65.1154 3.36831 63.4511C11.8087 51.9932 29.9809 58.4399 29.7246 72.6686C29.666 75.9045 29.8871 78.9807 30.447 81.8303C31.7534 88.4835 34.9156 93.9087 40.7258 97.3009C40.4338 97.7306 40.1279 98.1448 39.8113 98.5469C34.3339 95.1386 31.3236 89.8428 30.0568 83.3918Z" fill="white"/>
<path d="M7.14573 77.4739C7.2596 77.2205 7.3621 76.9627 7.4532 76.7011C7.33078 77.5052 7.09163 78.2914 6.75529 79.0361C6.31177 80.0183 5.90751 80.9809 5.55009 81.9343C5.22627 82.7993 4.94219 83.6571 4.7002 84.5156C5.0012 83.1312 5.42076 81.761 5.94065 80.3717C6.29819 79.4184 6.70241 78.4557 7.14573 77.4739Z" fill="white"/>
<mask id="mask0_16470_35839" style="mask-type:luminance" maskUnits="userSpaceOnUse" x="4" y="76" width="25" height="27">
<path d="M22.2005 102.367C16.4085 102.367 10.8275 100.019 7.43529 95.1446C5.97972 93.052 5.11151 90.6558 4.78711 88.1723C4.94695 85.203 5.72684 82.2321 7.29231 78.5975C7.87704 77.9619 8.50423 77.4393 9.17827 77.046C9.06893 79.7666 9.4458 82.1628 10.5452 84.0764C11.2505 80.284 12.8144 77.7473 15.2322 76.4601C15.2126 78.821 15.5174 80.9224 16.2086 82.7095C16.4333 79.954 17.4334 77.9579 18.9428 76.4601C18.9156 78.821 19.1499 81.1079 19.7238 83.2954C21.8333 81.6938 23.2783 79.4266 24.4109 76.8506C25.2595 79.1991 25.6264 82.3158 25.6901 85.9167C25.0813 88.709 24.8406 91.5593 25.0521 94.3992C25.2455 97.385 26.2584 100.065 28.6826 101.392C26.5616 102.039 24.366 102.367 22.2005 102.367Z" fill="white"/>
</mask>
<g mask="url(#mask0_16470_35839)">
<path d="M22.2005 102.367C16.4084 102.367 10.8274 100.019 7.43516 95.1447C5.97969 93.0522 5.11151 90.656 4.78711 88.1725C4.94696 85.2031 5.72685 82.2322 7.29229 78.5975C7.87685 77.9619 8.50426 77.4394 9.17822 77.0459C9.06882 79.7666 9.4456 82.1628 10.5453 84.0765C11.2503 80.2842 12.8145 77.7472 15.2324 76.4601C15.2128 78.8212 15.5173 80.9227 16.2088 82.7094C16.4333 79.954 17.4334 77.9578 18.943 76.4601C18.9156 78.8212 19.15 81.108 19.7239 83.2956C21.8331 81.6938 23.2782 79.4266 24.411 76.8508C25.2596 79.1992 25.6262 82.3159 25.6899 85.9167C25.0812 88.7088 24.8404 91.5594 25.0518 94.3993C25.2453 97.3849 26.2585 100.065 28.6825 101.392C26.5614 102.039 24.3661 102.367 22.2005 102.367Z" fill="#FF7F00"/>
</g>
<path d="M8.27801 71.9844C7.82304 70.2874 6.76612 69.0647 5.33298 68.6909C5.05642 68.6183 4.75797 68.5787 4.44548 68.5787C3.45972 68.5787 2.33303 68.9753 1.30762 70.0058C1.33908 69.7819 1.37599 69.5585 1.41821 69.3379C2.42105 67.8285 3.71157 67.1289 4.90264 67.1289C6.71567 67.1289 8.29881 68.7491 8.29002 71.6022C8.28964 71.7302 8.28564 71.8578 8.27801 71.9844Z" fill="#D19E8D"/>
<mask id="mask1_16470_35839" style="mask-type:luminance" maskUnits="userSpaceOnUse" x="4" y="88" width="31" height="19">
<path d="M22.3079 106.469C16.1125 106.469 10.7342 103.735 7.54346 98.9614C5.73292 96.2532 4.76908 92.9563 4.75602 89.4271C4.75442 89.0074 4.76463 88.5892 4.78714 88.1711C5.11155 90.6546 5.97975 93.0508 7.43533 95.1434C10.8276 100.018 16.4085 102.366 22.2005 102.366C24.366 102.366 26.5616 102.038 28.6826 101.391C29.3326 101.746 30.0836 102.005 30.9479 102.146C31.6047 102.26 32.2603 102.306 32.9107 102.306C33.3757 102.306 33.8379 102.282 34.296 102.245C34.5223 102.28 34.7538 102.312 34.9885 102.338C34.9885 102.339 34.9885 102.34 34.9885 102.342C31.3492 104.954 26.9228 106.452 22.3872 106.468C22.3603 106.468 22.3343 106.469 22.3079 106.469Z" fill="white"/>
</mask>
<g mask="url(#mask1_16470_35839)">
<path d="M22.3076 106.469C16.1125 106.469 10.7343 103.735 7.54341 98.9616C5.7329 96.2532 4.76906 92.9565 4.75602 89.4273C4.75441 89.0074 4.76462 88.5892 4.78714 88.1713C5.11152 90.6545 5.97974 93.0509 7.4353 95.1433C10.8274 100.018 16.4084 102.366 22.2005 102.366C24.3658 102.366 26.5615 102.038 28.6827 101.391C29.3325 101.746 30.0835 102.005 30.9479 102.146C31.6044 102.26 32.2601 102.306 32.9108 102.306C33.3756 102.306 33.8378 102.282 34.2958 102.245C34.5223 102.28 34.7539 102.312 34.9884 102.338C34.9884 102.339 34.9884 102.34 34.9884 102.342C31.3492 104.954 26.9226 106.452 22.3872 106.468C22.3601 106.468 22.3343 106.469 22.3076 106.469Z" fill="#D15F0E"/>
</g>
<path d="M4.44587 68.5803C4.75837 68.5803 5.05679 68.62 5.33335 68.6923C7.28034 69.2002 8.5331 71.2747 8.52511 73.9776C8.5211 75.2275 8.23714 76.486 7.68044 77.7182C5.61697 82.2866 4.74251 85.7888 4.75644 89.4275C4.76952 92.9568 5.73334 96.2537 7.54388 98.9618C10.7346 103.735 16.1129 106.469 22.3082 106.469C22.3344 106.469 22.3607 106.469 22.3875 106.469C29.2548 106.443 35.873 103.022 39.8853 97.4804C32.5401 92.9031 28.9264 84.5577 29.1402 72.6601C29.2537 66.3479 25.4499 60.9565 19.4487 58.9249C14.7993 57.3504 8.25756 57.8047 3.84057 63.8003C2.48334 65.6423 1.62356 67.7596 1.308 70.0076C2.33338 68.9768 3.46008 68.5803 4.44587 68.5803ZM22.3082 107.641C15.7144 107.641 9.98168 104.718 6.56944 99.6131C4.63081 96.7126 3.59857 93.1919 3.58453 89.432C3.57007 85.6147 4.47571 81.9673 6.61273 77.2355C7.10054 76.1549 7.34961 75.0576 7.3532 73.9738C7.35963 71.8227 6.45088 70.1946 5.03761 69.8265C3.64137 69.4611 2.13161 70.3917 1.09803 72.2524C0.968541 72.4855 0.697288 72.6017 0.439053 72.5348C0.180444 72.4678 0 72.2347 0 71.9679C0 68.7427 1.00192 65.6782 2.89726 63.1055C6.84498 57.7463 13.4893 55.6692 19.8244 57.8149C26.3178 60.0136 30.4345 65.8491 30.3119 72.681C30.1024 84.3455 33.4659 92.1578 40.5893 96.5388C40.7779 96.4174 41.0286 96.4103 41.229 96.5416C41.4963 96.7178 41.5729 97.0759 41.4015 97.3454C41.4031 97.4483 41.3779 97.5529 41.3233 97.6486C41.2525 97.7703 41.1448 97.8577 41.0222 97.9037C36.8143 103.899 29.7381 107.613 22.3918 107.641C22.3639 107.641 22.3361 107.641 22.3082 107.641Z" fill="#1E1E1E"/>
<path d="M44.1748 63.2782C45.0565 65.0069 45.572 66.6108 45.8234 68.1346C48.2797 68.7217 51.0519 69.0025 54.2285 68.8633C58.0736 68.6961 61.1206 67.7899 63.3534 66.7553C61.6068 64.4305 57.5174 59.4738 54.2076 59.2259C49.632 58.8849 46.3652 60.9552 44.1748 63.2782Z" fill="#F9D3B7"/>
<path d="M41.6357 66.7374C45.031 68.2199 49.1024 69.0879 54.2293 68.8633C58.0744 68.696 61.1213 67.7899 63.3542 66.7553C61.6076 64.4305 57.5182 59.4738 54.2084 59.2259C49.6328 58.8848 46.366 60.9552 44.1756 63.2782C43.061 64.4603 42.2241 65.7094 41.6357 66.7374Z" fill="#FF9343"/>
<path d="M35.6294 90.8195C35.6841 96.1938 35.5201 109.923 35.6294 115.99C35.548 116.833 34.9999 119.962 35.8312 121.388C36.4439 122.441 37.2269 123.094 39.7188 123.094C41.4182 123.094 43.6841 123.094 46.3998 123.094C50.186 123.094 50.5244 120.845 50.6111 119.803C50.7493 118.135 50.2989 116.381 50.2989 116.381L51.6431 103.239L35.6294 90.8195Z" fill="#FFAD40"/>
<path d="M35.8309 121.39C36.4446 122.442 37.2266 123.094 39.7185 123.094H46.4001C50.1862 123.094 50.5241 120.845 50.6108 119.804C50.749 118.136 50.2992 116.383 50.2992 116.383L50.3176 116.199L51.644 103.239L35.6286 90.8191C35.6848 96.1646 35.5224 109.775 35.627 115.89C35.627 115.923 35.6286 115.957 35.6286 115.99C35.5482 116.834 35.0001 119.963 35.8309 121.39Z" fill="#FFAD40"/>
<path d="M35.8309 121.39C36.4446 122.442 37.2266 123.094 39.7185 123.094H46.4001C50.1862 123.094 50.5241 120.845 50.6108 119.804C50.749 118.136 50.2992 116.383 50.2992 116.383L50.3176 116.199L51.644 103.239L35.6286 90.8191C35.6848 96.1646 35.5224 109.775 35.627 115.89C35.627 115.923 35.6286 115.957 35.6286 115.99C35.5482 116.834 35.0001 119.963 35.8309 121.39Z" fill="#FFAD40"/>
<mask id="mask2_16470_35839" style="mask-type:luminance" maskUnits="userSpaceOnUse" x="36" y="105" width="15" height="12">
<path d="M48.9627 116.367C48.6026 116.367 48.2394 116.333 47.9206 116.252C45.5468 115.66 43.8799 115.47 42.6103 115.47C40.9719 115.47 39.9939 115.786 39.0058 115.96C38.5897 116.034 38.1247 116.063 37.663 116.063C37.1667 116.063 36.6745 116.03 36.2504 115.981C36.212 112.751 36.212 109.394 36.2236 106.012C38.2169 105.369 40.2935 105.126 42.2955 105.126C45.4955 105.126 48.5069 105.748 50.696 106.357L49.6772 116.319C49.6772 116.32 49.6772 116.322 49.6768 116.323C49.4501 116.351 49.207 116.367 48.9627 116.367Z" fill="white"/>
</mask>
<g mask="url(#mask2_16470_35839)">
<path d="M48.9628 116.367C48.6027 116.367 48.2394 116.333 47.9203 116.252C45.5464 115.66 43.8798 115.47 42.6103 115.47C40.9717 115.47 39.9937 115.786 39.0058 115.96C38.5895 116.034 38.1244 116.063 37.6629 116.063C37.1667 116.063 36.6745 116.03 36.2505 115.981C36.212 112.751 36.212 109.394 36.2234 106.012C38.2169 105.369 40.2935 105.126 42.2953 105.126C45.4955 105.126 48.5065 105.748 50.6959 106.357L49.6768 116.319C49.6768 116.32 49.6768 116.322 49.6768 116.323C49.4497 116.351 49.207 116.367 48.9628 116.367Z" fill="#FF7F00"/>
</g>
<mask id="mask3_16470_35839" style="mask-type:luminance" maskUnits="userSpaceOnUse" x="36" y="100" width="15" height="7">
<path d="M50.6961 106.352C48.507 105.742 45.4956 105.12 42.2956 105.12C40.2935 105.12 38.2169 105.364 36.2236 106.006C36.2276 104.813 36.2328 103.616 36.2384 102.421C36.339 102.423 36.4399 102.425 36.5408 102.425C38.2061 102.425 39.8954 102.079 41.1522 101.025C41.318 100.875 41.4698 100.711 41.6071 100.537L49.8783 104.208C50.1971 104.255 50.5395 104.299 50.9023 104.338L50.6961 106.352Z" fill="white"/>
</mask>
<g mask="url(#mask3_16470_35839)">
<path d="M50.6959 106.352C48.5069 105.742 45.4954 105.12 42.2957 105.12C40.2932 105.12 38.2168 105.364 36.2236 106.006C36.2273 104.813 36.2325 103.616 36.2382 102.421C36.3388 102.423 36.4398 102.425 36.5409 102.425C38.2058 102.425 39.8952 102.079 41.1523 101.025C41.3179 100.875 41.4695 100.711 41.607 100.537L49.878 104.208C50.1969 104.255 50.5391 104.299 50.9022 104.338L50.6959 106.352Z" fill="#D9640C"/>
</g>
<path d="M53.4112 97.8248C53.9355 101.63 52.3186 115.265 52.6965 119.012C53.0352 122.367 55.23 123.133 58.1936 123.133C60.193 123.133 62.0067 123.133 66.288 123.133C69.8759 123.133 69.9172 120.043 69.6624 118.891C69.2884 117.197 67.614 116.143 66.6014 115.853C70.2526 100.527 71.1188 89.448 71.1188 89.448L53.4112 97.8248Z" fill="#FFAD40"/>
<path d="M52.696 119.013C53.0347 122.367 55.2295 123.133 58.1931 123.133H66.288C69.8753 123.133 69.916 120.043 69.6631 118.891C69.2878 117.199 67.6141 116.144 66.6021 115.854H66.6008C70.2513 100.528 71.1175 89.4488 71.1175 89.4488L53.4107 97.8252C53.846 100.985 52.8044 110.922 52.6567 116.347C52.6238 117.457 52.6316 118.377 52.696 119.013Z" fill="#D9640C"/>
<mask id="mask4_16470_35839" style="mask-type:luminance" maskUnits="userSpaceOnUse" x="54" y="99" width="16" height="18">
<path d="M55.0957 116.664C54.9387 116.664 54.7829 116.662 54.6291 116.656C54.4981 114.839 54.7316 110.033 55.7028 108.479C56.4193 107.333 57.7626 106.652 62.6787 104.515C65.7289 103.189 67.8195 101.205 69.2341 99.288C68.542 103.705 67.5064 109.352 65.9929 115.705L65.9592 115.846C65.944 115.846 65.9288 115.846 65.9132 115.846C64.525 115.846 61.3078 115.895 58.8504 116.306C58.111 116.431 57.0545 116.582 55.966 116.64C55.6764 116.655 55.3844 116.664 55.0957 116.664Z" fill="white"/>
</mask>
<g mask="url(#mask4_16470_35839)">
<path d="M55.0957 116.664C54.9387 116.664 54.7828 116.662 54.6289 116.656C54.4984 114.839 54.7315 110.033 55.7025 108.479C56.4196 107.333 57.7624 106.652 62.6789 104.515C65.7288 103.189 67.8197 101.205 69.2341 99.288C68.5418 103.705 67.5061 109.352 65.9929 115.705L65.9594 115.846C65.9442 115.846 65.929 115.846 65.9131 115.846C64.5253 115.846 61.3076 115.895 58.8506 116.306C58.1108 116.431 57.0542 116.582 55.966 116.64C55.6766 116.655 55.3846 116.664 55.0957 116.664Z" fill="#FF7F00"/>
</g>
<path d="M52.6958 119.013C53.0344 122.367 55.229 123.133 58.1931 123.133H66.288C69.8757 123.133 69.9159 120.043 69.6628 118.891C69.2879 117.199 67.6136 116.145 66.6023 115.854H66.6004C66.6004 115.854 62.0729 115.77 58.8505 116.31C57.3043 116.569 54.3727 116.947 52.6569 116.347C52.6238 117.457 52.6314 118.377 52.6958 119.013Z" fill="#FFF3E9"/>
<path d="M52.6954 119.012C53.0339 122.367 55.2291 123.133 58.1931 123.133H66.2882C69.7865 123.133 69.9109 120.192 69.6807 118.98H69.6794C69.675 118.949 69.6686 118.919 69.6629 118.891C69.288 117.199 67.6137 116.144 66.6019 115.854H66.6006C66.6006 115.854 62.0727 115.77 58.8504 116.309C57.8074 116.485 56.1331 116.714 54.6291 116.659C53.9029 116.633 53.2163 116.543 52.6565 116.347C52.624 117.457 52.6316 118.376 52.6954 119.012Z" fill="#8E3410"/>
<path d="M66.2879 122.508H58.1933C55.2065 122.508 53.5554 121.314 53.1471 118.858C53.0502 118.273 53.0091 117.444 53.0078 116.452C53.4934 116.576 54.0486 116.638 54.6298 116.659C54.7146 120.229 58.2085 120.315 62.8471 120.335C62.8927 120.335 62.937 120.335 62.9826 120.335C66.2917 120.335 68.0187 119.818 69.0981 119.293C69.1804 119.928 69.1367 120.927 68.5695 121.634C68.1035 122.214 67.3356 122.508 66.2879 122.508Z" fill="#842C18"/>
<path d="M66.2872 123.758H58.1929C54.596 123.758 52.4245 122.134 51.9139 119.063C51.5701 116.994 51.8685 112.365 52.1572 107.889C52.4161 103.877 52.684 99.729 52.4394 97.9584L53.6773 97.7874C53.9394 99.6838 53.6799 103.708 53.4042 107.969C53.1207 112.375 52.8268 116.93 53.1466 118.858C53.5554 121.314 55.2059 122.508 58.1929 122.508H66.2872C67.3356 122.508 68.1032 122.214 68.569 121.634C69.2243 120.818 69.1808 119.611 69.0517 119.026C68.739 117.61 67.2773 116.697 66.4286 116.454L65.8545 116.289L65.9927 115.708C69.5889 100.613 70.4862 89.5098 70.4952 89.3994L71.7409 89.4971C71.7325 89.6068 70.8501 100.537 67.3363 115.46C68.4743 115.964 69.9036 117.089 70.2721 118.757C70.4927 119.752 70.4336 121.309 69.5435 122.417C68.8285 123.306 67.7334 123.758 66.2872 123.758Z" fill="#1E1E1E"/>
<path d="M58.8506 116.305C61.3087 115.577 63.8879 115 66.469 115.204C66.5624 115.214 66.6396 115.222 66.7596 115.244L66.4424 116.453C66.1797 116.364 65.8631 116.3 65.5837 116.249C63.3704 115.87 61.0719 116.011 58.8506 116.305Z" fill="#1E1E1E"/>
<path d="M66.11 117.574C68.0721 119.052 67.8636 122.927 65.3441 123.742L65.0479 122.528C67.0883 122.206 67.4271 118.895 66.11 117.574Z" fill="#1E1E1E"/>
<path d="M61.8233 117.574C63.7852 119.052 63.5764 122.927 61.0571 123.742L60.7607 122.528C62.8007 122.206 63.1397 118.895 61.8233 117.574Z" fill="#1E1E1E"/>
<path d="M35.8308 121.39C36.4444 122.442 37.2265 123.094 39.7184 123.094H46.4004C50.1861 123.094 50.5241 120.845 50.6109 119.804C50.7492 118.136 50.2994 116.383 50.2994 116.383L50.3176 116.199C49.6952 116.373 48.6822 116.443 47.9204 116.251C42.4827 114.895 40.7589 115.65 39.006 115.959C37.8973 116.156 36.4429 116.036 35.627 115.89C35.627 115.923 35.6285 115.957 35.6285 115.99C35.5485 116.834 34.9999 119.963 35.8308 121.39Z" fill="#8E3410"/>
<path d="M46.3204 122.469C46.241 122.469 46.1595 122.468 46.0776 122.466C45.792 122.466 45.4565 122.467 45.0874 122.467C44.2962 122.467 43.3535 122.466 42.4345 122.465C41.5237 122.464 40.6366 122.463 39.9444 122.463C39.8057 122.463 39.6743 122.463 39.5521 122.463C38.5243 122.448 37.4832 122.319 36.8956 121.759C36.3038 121.219 36.0843 120.477 36.0234 119.686C36.6997 120.095 37.677 120.324 39.2547 120.324H46.877C48.3069 120.324 49.3053 120.043 50.0047 119.624C49.8702 121.596 48.8012 122.469 46.3204 122.469Z" fill="#842C18"/>
<path d="M36.2539 90.8096C36.3015 98.9546 36.1517 107.905 36.2507 116.047C36.1241 117.114 35.9785 118.165 36.0039 119.227C36.014 120.184 36.1903 121.115 36.8956 121.758C37.4834 122.318 38.5244 122.448 39.5522 122.463C40.2808 122.462 41.3404 122.463 42.4344 122.464C43.7815 122.465 45.1805 122.467 46.0775 122.465C49.334 122.536 50.303 121.219 49.9514 118.053C49.8953 117.544 49.8079 117.011 49.693 116.533C49.6745 116.461 49.6697 116.385 49.6766 116.314L51.021 103.171C51.056 102.828 51.3626 102.578 51.7062 102.614C52.0493 102.649 52.2993 102.956 52.2638 103.299L50.9199 116.441L50.9035 116.223C51.8704 120.52 51.1508 123.846 46.0769 123.715C45.3488 123.714 44.2909 123.714 43.1979 123.714C41.8445 123.715 40.437 123.715 39.5347 123.712C38.0187 123.719 36.275 123.381 35.4289 121.926C34.8999 121.155 34.7728 120.125 34.7548 119.255C34.7363 118.395 34.8104 117.565 34.9105 116.723L35.0069 115.927L35.0037 115.998C34.9184 110.174 34.9978 102.96 35.0084 97.1066C35.0143 95.0097 35.0212 92.911 35.0037 90.82C35.0169 90.0133 36.2152 89.9667 36.2539 90.8096Z" fill="#1E1E1E"/>
<path d="M38.2285 116.508C41.0283 114.279 45.6065 114.807 48.4098 116.781C45.0341 116.076 41.6088 115.548 38.2285 116.508Z" fill="#1E1E1E"/>
<path d="M46.2576 117.572C46.8789 118.448 47.1363 119.54 47.1288 120.62C47.1224 121.784 46.4826 122.966 45.5069 123.633L44.8701 122.557C46.744 121.781 46.9815 119.252 46.2576 117.572Z" fill="#1E1E1E"/>
<path d="M40.7887 117.571C40.0467 118.817 40.1058 121.089 40.9546 122.248C41.0719 122.389 41.2027 122.467 41.3002 122.49L40.7429 123.609C39.0163 122.534 39.568 118.841 40.7887 117.571Z" fill="#1E1E1E"/>
<path d="M40.5403 69.0152C39.7195 75.0599 36.6312 82.2158 35.8203 86.4014C34.8899 91.2034 35.7047 95.7591 37.1475 98.5638L49.8774 104.214C56.5639 105.199 73.6223 104.923 71.638 86.2236C71.1177 81.3259 67.7929 73.514 64.2086 67.9454C64.2086 67.9454 58.5377 59.5546 54.2079 59.231C44.3227 58.4921 40.5403 69.0152 40.5403 69.0152Z" fill="#FFAD40"/>
<path d="M37.1473 98.5636L49.8788 104.214C55.664 105.066 69.2213 104.974 71.4755 92.8108C71.827 90.9212 71.9057 88.7394 71.6379 86.2242C71.1181 81.3253 67.7931 73.5141 64.2094 67.9453C64.2094 67.9453 58.5387 59.5544 54.2078 59.2308C49.6325 58.8897 46.3653 60.9599 44.1755 63.283C41.6322 65.9783 40.5405 69.0161 40.5405 69.0161C39.7198 75.0606 36.632 82.2152 35.8204 86.4016C34.8892 91.2036 35.706 95.7597 37.1473 98.5636Z" fill="#FFAD40"/>
<path d="M37.1473 98.5636L49.8788 104.214C55.664 105.066 69.2213 104.974 71.4755 92.8108C71.827 90.9212 71.9057 88.7394 71.6379 86.2242C71.1181 81.3253 67.7931 73.5141 64.2094 67.9453C64.2094 67.9453 58.5387 59.5544 54.2078 59.2308C49.6325 58.8897 46.3653 60.9599 44.1755 63.283C41.6322 65.9783 40.5405 69.0161 40.5405 69.0161C39.7198 75.0606 36.632 82.2152 35.8204 86.4016C34.8892 91.2036 35.706 95.7597 37.1473 98.5636Z" fill="#FFAD40"/>
<path d="M37.1473 98.5637L49.8788 104.214C55.4866 105.04 68.4007 104.98 71.2357 93.8914C71.328 93.5419 71.4066 93.1822 71.4755 92.8109C71.827 90.9213 71.9057 88.7394 71.6379 86.2243C71.1181 81.3254 67.7931 73.5141 64.2094 67.9454C64.2094 67.9454 58.5387 59.5545 54.2078 59.2309C49.6325 58.8898 46.3653 60.96 44.1755 63.2831C41.6322 65.9784 40.5405 69.0162 40.5405 69.0162C40.3209 70.631 39.9401 72.3257 39.4833 74.0216C38.2318 78.6725 36.415 83.3335 35.8204 86.4017C34.8892 91.2037 35.706 95.7598 37.1473 98.5637Z" fill="#FF7F00"/>
<path d="M54.2416 104.523C52.5712 104.523 51.0622 104.389 49.8787 104.214L41.6068 100.543C42.831 98.9889 42.9195 96.5575 41.7385 94.9851C41.765 94.9739 41.7908 94.9623 41.8173 94.9507C42.4565 94.688 42.9175 94.219 43.1939 93.6579C45.3931 98.1139 50.8337 100.308 56.8922 100.308C57.2925 100.308 57.6948 100.298 58.0996 100.279C60.4532 100.168 62.8719 99.7347 65.2074 98.9821C66.0539 98.7094 67.0954 98.1832 68.0988 97.4226C68.1013 97.421 68.1033 97.4198 68.1052 97.4181C69.1577 96.6192 70.1682 95.5615 70.8662 94.2663C70.9953 94.1425 71.118 94.0176 71.2362 93.8914C68.9989 102.64 60.4887 104.523 54.2416 104.523ZM42.113 89.6529C41.5332 89.1952 40.8558 88.8748 40.1533 88.6501C40.1604 88.4742 40.1714 88.2936 40.1869 88.1138C40.5846 83.0051 41.3769 77.8521 43.3372 73.083C43.3359 73.0837 43.3353 73.0849 43.3346 73.0862C43.3353 73.0849 43.3359 73.0837 43.3366 73.0824L43.3572 72.6278C43.5923 72.8712 43.6601 73.3432 43.5103 74.0987C42.1485 80.9817 41.4705 85.9988 42.113 89.6529Z" fill="#FF7F00"/>
<path d="M42.2217 90.1942C43.1578 99.4554 54.9799 102.274 65.2077 98.9792C66.943 98.4193 69.5012 96.7957 70.8652 94.2641C67.4062 97.5919 60.171 99.9528 50.9657 97.7136C45.709 96.4348 43.1006 94.1692 42.2217 90.1942Z" fill="#F9D3B7"/>
<path d="M45.8223 68.1406C45.046 67.9555 44.302 67.74 43.5859 67.4971L43.5874 67.4589C43.5908 67.4598 43.5933 67.4603 43.5967 67.4618L43.6834 65.5242C44.2124 65.6545 44.7394 65.7725 45.2654 65.8788C45.5201 66.6541 45.7023 67.4069 45.8223 68.1406Z" fill="#D9640C"/>
<path d="M65.2081 98.9783C67.2569 98.3179 70.45 96.1756 71.476 92.8078C71.8275 90.9182 71.9062 88.7363 71.6385 86.2212C71.1186 81.3223 67.7936 73.511 64.21 67.9423C64.21 67.9423 58.5392 59.5514 54.2083 59.2278C49.633 58.8867 46.3658 60.9569 44.176 63.28C49.0372 72.8132 42.7725 78.548 42.1857 88.1965C41.5261 99.04 54.2771 102.501 65.2081 98.9783Z" fill="#FFDAB6"/>
<path d="M58.0996 100.273C60.4532 100.162 62.8719 99.7284 65.2073 98.9754C66.0542 98.7026 67.096 98.1772 68.0989 97.4167C67.0954 98.1772 66.0536 98.7034 65.2073 98.9762C62.8719 99.7287 60.4532 100.162 58.0996 100.273Z" fill="#D4A395"/>
<path d="M68.0986 97.4219C68.1011 97.4202 68.103 97.4187 68.1049 97.4174C68.103 97.4191 68.1011 97.4202 68.0986 97.4219Z" fill="#D4A395"/>
<path d="M56.8955 100.305C50.8359 100.305 45.3939 98.1108 43.1953 93.6536C43.2745 93.4918 43.3388 93.3224 43.3877 93.1482C44.7698 95.3609 47.1819 96.7927 50.9658 97.7135C53.4777 98.3243 55.841 98.5929 58.0228 98.5929C63.8367 98.5929 68.3503 96.6842 70.8654 94.2639C70.1679 95.5588 69.1577 96.6161 68.1058 97.415C68.1038 97.4163 68.1012 97.4179 68.0993 97.4195C67.0962 98.18 66.0546 98.7055 65.2078 98.9782C62.8722 99.7311 60.4536 100.165 58.1 100.276C57.6959 100.295 57.2945 100.305 56.8955 100.305Z" fill="#D9A894"/>
<path d="M52.6439 68.8984C50.119 68.8984 47.8622 68.6219 45.8235 68.1345C45.7023 67.4009 45.5207 66.6489 45.2656 65.8735C47.4859 66.3204 49.6811 66.5473 51.8446 66.5515L54.9717 68.8214C54.7274 68.8381 54.4795 68.8518 54.2286 68.8632C53.6892 68.8871 53.1612 68.8984 52.6439 68.8984ZM58.4966 68.3387C58.6805 67.466 58.8639 66.5927 59.0479 65.72C59.9988 65.4948 60.945 65.2248 61.887 64.9089C62.4682 65.6 62.9676 66.2415 63.3535 66.7552C62.0226 67.3717 60.4026 67.9427 58.4966 68.3387Z" fill="#D9A894"/>
<path d="M49.8779 104.212C56.2303 104.113 63.5551 103.795 68.0507 98.7523C71.6289 94.5944 71.6936 88.4655 70.3983 83.3676C68.9457 77.9989 66.5368 72.9968 64.209 67.943C67.8142 72.3066 70.2721 77.572 71.7372 83.026C73.6567 91.2138 72.0173 100.293 63.3681 103.638C59.0951 105.26 54.256 105.485 49.8779 104.212Z" fill="#1E1E1E"/>
<path d="M40.5401 69.0139C40.364 74.7622 38.1691 80.2063 36.6959 85.6934C35.9275 88.6847 35.7665 91.8456 36.2216 94.9022C36.4032 96.1499 36.7087 97.3726 37.1473 98.5625C36.7979 98.0278 36.496 97.4579 36.234 96.8685C34.5691 92.9657 34.4845 88.4958 35.5552 84.4187C36.9863 79.2669 39.2014 74.2001 40.5401 69.0139Z" fill="#1E1E1E"/>
<path d="M38.502 65.5023C39.9866 66.3528 41.6053 67.0882 43.4013 67.6562L43.6511 62.0627C42.1043 62.6869 40.3282 63.8756 38.502 65.5023Z" fill="#FF9343"/>
<path d="M39.869 69.0136C39.6929 74.7621 37.4983 80.2065 36.025 85.6931C35.2566 88.6847 35.0955 91.8456 35.5507 94.9021C35.7323 96.1498 36.0377 97.3726 36.4762 98.5625C36.1271 98.0278 35.8249 97.458 35.563 96.8684C33.8981 92.9654 33.8137 88.4954 34.8844 84.4186C36.3155 79.2669 38.5305 74.2002 39.869 69.0136Z" fill="#1E1E1E"/>
<path d="M43.3362 73.082C40.5106 78.6637 39.3875 86.987 39.5162 89.1175C39.9967 89.2303 40.7197 89.4788 41.3718 89.8944C41.4052 89.9163 41.4382 89.9378 41.4691 89.9587C42.1746 90.4297 42.7738 91.1038 42.8637 92.0254C43.0982 94.4938 40.5106 94.6656 40.5106 94.6656C42.2993 95.8511 42.3228 98.6806 41.0964 100.192C39.5577 102.086 35.8979 101.923 34.3178 101.618C28.9826 102.1 26.3362 99.9658 25.7544 95.1362C25.6861 94.5659 25.6392 93.9956 25.6117 93.4232C25.5533 92.1895 25.5883 90.9511 25.7055 89.7207C26.9434 76.7008 37.3977 64.2727 43.8461 61.6712L43.3362 73.082Z" fill="#FF7F00"/>
<path d="M40.5111 94.6656C42.3002 95.8511 42.3234 98.6807 41.0972 100.192C39.5583 102.086 35.8987 101.923 34.3186 101.618C28.9829 102.1 26.337 99.9658 25.7552 95.1363C25.6866 94.5657 25.6397 93.9957 25.6123 93.4233C27.6593 91.408 30.5942 90.3635 33.4397 89.6913C35.7634 89.1425 38.2479 88.7754 40.5092 89.5451C40.8412 89.6581 41.1615 89.7972 41.47 89.959C42.1753 90.4297 42.7747 91.1034 42.8646 92.0249C43.0987 94.4938 40.5111 94.6656 40.5111 94.6656Z" fill="#8E3410"/>
<path d="M43.5974 67.4609C43.5941 67.46 43.5912 67.459 43.5879 67.4586L43.6746 65.521C43.6775 65.5219 43.6808 65.5229 43.6837 65.5233L43.5974 67.4609Z" fill="#BC5015"/>
<path d="M43.5872 67.4531C41.9723 66.9415 40.5004 66.2946 39.1416 65.5509C39.5329 65.2043 39.9344 64.864 40.3473 64.5363C41.4611 64.9165 42.5711 65.2433 43.6738 65.5158L43.5872 67.4531Z" fill="#D9640C"/>
<path d="M36.5131 101.18C35.757 101.18 34.9958 101.095 34.2618 100.995C33.8099 101.038 33.3593 101.062 32.9158 101.062C30.7029 101.062 28.6678 100.458 27.4902 98.6165C28.89 99.4668 30.7104 99.6718 32.1401 99.6718C33.4707 99.6718 34.4625 99.4944 34.4625 99.4944C35.0908 99.6414 35.6808 99.7107 36.2136 99.7107C37.7861 99.7107 38.8602 99.1067 38.9398 98.1183C39.038 96.8739 37.9578 96.1075 38.0944 95.1222C38.2993 93.6448 39.6949 93.8909 40.995 93.4263C41.5307 93.234 41.9386 92.907 42.2474 92.5449C42.1571 93.3224 41.5588 93.8619 40.6642 94.013C40.6156 94.0205 40.5183 94.0387 40.4692 94.0415C39.8825 94.0724 39.6607 94.8626 40.1655 95.1863C40.9038 95.6663 41.3113 96.5972 41.3197 97.5584C41.3379 99.9109 39.7126 100.897 37.5835 101.116C37.2298 101.16 36.8724 101.18 36.5131 101.18Z" fill="#842C18"/>
<path d="M44.0797 62.2507C42.1541 63.0522 40.4336 64.3883 38.8774 65.7902C37.2961 67.2309 35.8554 68.8368 34.5324 70.5302C29.0542 77.5279 24.3886 88.4224 26.8844 97.3374C28.0105 100.662 31.0948 101.298 34.261 100.994C35.3439 101.142 36.484 101.255 37.583 101.114C39.712 100.895 41.3371 99.9098 41.319 97.5572C41.3105 96.596 40.9029 95.6653 40.1648 95.1851C39.6598 94.8615 39.8819 94.0713 40.4683 94.0405C40.5175 94.0377 40.6145 94.0193 40.6632 94.0116C41.8139 93.817 42.4757 92.9796 42.1938 91.8203C41.8858 90.6736 40.4844 90.0058 39.3718 89.7229C39.096 89.6636 38.903 89.4229 38.8925 89.153C38.8241 88.3822 38.8704 87.6888 38.9397 86.9803C39.3568 83.5065 40.2824 80.0997 41.5315 76.8395C42.0381 75.5446 42.632 74.2788 43.3365 73.0814C41.3763 77.8505 40.5844 83.0036 40.1864 88.1124C40.1562 88.443 40.1462 88.7762 40.1402 89.0772L39.6608 88.5073C40.8371 88.8093 41.9913 89.348 42.7938 90.3118C44.0123 91.7605 43.644 94.1987 41.8165 94.9492C41.4069 95.133 40.9989 95.2456 40.5507 95.2876L40.8547 94.143C43.0988 95.6565 43.0963 99.2718 41.1512 101.03C39.2884 102.593 36.475 102.598 34.1992 102.23L34.3736 102.239C33.2505 102.335 32.1003 102.347 30.9476 102.146C26.8593 101.479 25.2966 98.1845 25.0519 94.3985C24.2328 83.401 30.1964 72.2573 38.0357 64.8661C39.712 63.3617 41.4979 61.9723 43.6124 61.0914L44.0797 62.2507Z" fill="#1E1E1E"/>
<path d="M40.3185 95.2539C40.3291 95.2443 40.2777 95.2177 40.2507 95.2021C40.1618 95.1549 40.0444 95.1141 39.9514 95.1082C39.4563 95.0761 39.3239 95.8384 39.2734 96.2257L39.2432 96.5938L39.1181 96.2408C38.9494 95.7041 38.854 95.0747 39.2139 94.5815C39.5558 94.1282 40.1576 93.982 40.7026 94.0645L40.3185 95.2539Z" fill="#1E1E1E"/>
<path d="M40.3827 90.0547C39.9189 89.8638 39.3888 89.7329 38.8871 89.6198C38.3615 89.5035 37.8259 89.4051 37.2861 89.3227C38.09 89.1354 38.9054 88.9724 39.7326 88.8777C40.0151 88.8475 40.3007 88.8232 40.6093 88.8255L40.3827 90.0547Z" fill="#1E1E1E"/>
<mask id="mask5_16470_35839" style="mask-type:luminance" maskUnits="userSpaceOnUse" x="19" y="1" width="62" height="48">
<path d="M28.5409 48.6016C27.7516 48.1093 26.5713 47.861 25.3037 47.6704C25.3053 47.6416 25.3045 47.6127 25.3013 47.5835C25.3005 47.5707 25.2997 47.5579 25.2981 47.5442C25.061 44.152 25.3325 40.9684 26.1295 37.8137C26.1628 37.6811 26.1452 37.541 26.0803 37.4208C23.6124 32.8711 21.4857 26.8825 20.392 21.4016C18.9041 13.9431 19.5906 8.91325 22.2267 7.93843C22.4962 7.86114 22.797 7.82268 23.129 7.82268C24.874 7.82268 27.4788 8.88762 30.8951 11.0003C33.1495 12.3936 35.8152 14.2843 38.8178 16.6205C38.9151 16.6962 39.0328 16.7354 39.1522 16.7354C39.2239 16.7354 39.2956 16.721 39.3636 16.6922C43.961 14.7477 48.7185 13.7717 53.5722 13.7717C55.6239 13.7717 57.6933 13.9463 59.7739 14.296C59.8039 14.3008 59.834 14.3032 59.864 14.3032C60.0278 14.3032 60.1836 14.2299 60.2885 14.1001C66.8403 5.93954 71.5514 1.816 74.3092 1.816C74.3477 1.816 74.3861 1.81679 74.4238 1.81839C75.3385 1.92973 76.1539 2.50406 76.848 3.52693C80.1926 8.45548 79.9447 22.304 77.4888 31.3929C77.4532 31.5251 77.4684 31.6656 77.5317 31.7866C79.0427 34.6846 80.046 37.7364 80.5975 41.1166C80.6051 41.1615 80.6179 41.2047 80.6355 41.2456C79.5245 41.7022 78.5189 42.1948 77.9009 42.8191L77.8865 42.8228C77.8757 41.7322 77.7415 40.6176 77.4784 39.4962C76.019 33.2893 71.0408 28.9987 65.7718 28.9987C65.0377 28.9987 64.2967 29.082 63.5602 29.255C57.5367 30.6728 54.0027 37.5542 55.6656 44.6262C55.6676 44.6346 55.6696 44.643 55.6716 44.6514C55.7072 44.802 55.7265 44.9522 55.7309 45.1008C55.233 44.8585 54.4228 44.7988 53.786 44.7988C53.3992 44.7988 53.076 44.8208 52.9258 44.8377C52.5853 44.8753 51.3702 45.0824 50.5924 45.4913C50.5836 45.4116 50.5792 45.3303 50.5792 45.2478C50.5792 45.239 50.5792 45.2306 50.5792 45.2217C50.5624 37.9647 45.5454 32.0918 39.366 32.0918C39.3596 32.0918 39.352 32.0918 39.3456 32.0918C33.1579 32.1066 28.1561 38.0075 28.1709 45.2726C28.1741 46.4224 28.3014 47.5378 28.5409 48.6016Z" fill="white"/>
</mask>
<g mask="url(#mask5_16470_35839)">
<path d="M28.5409 48.6016C27.7515 48.1096 26.5713 47.861 25.3037 47.6705C25.3053 47.6419 25.3045 47.6133 25.3013 47.5839C25.3005 47.5709 25.2997 47.5579 25.2981 47.5449C25.061 44.1523 25.3325 40.9684 26.1295 37.814C26.1628 37.6815 26.1451 37.5412 26.0803 37.4208C23.6124 32.8711 21.4857 26.8827 20.392 21.4019C18.9041 13.9438 19.5906 8.91333 22.2266 7.93894C22.4962 7.86186 22.797 7.82288 23.129 7.82288C24.874 7.82288 27.4788 8.88821 30.8951 11.0007C33.1494 12.3934 35.8152 14.285 38.8178 16.6209C38.915 16.6963 39.0328 16.7353 39.1522 16.7353C39.2239 16.7353 39.2955 16.7214 39.3636 16.6928C43.961 14.7484 48.7185 13.7723 53.572 13.7723C55.6238 13.7723 57.693 13.9464 59.7742 14.2963C59.8037 14.3015 59.834 14.3041 59.8643 14.3041C60.028 14.3041 60.1839 14.2304 60.2887 14.1005C66.8401 5.93993 71.5518 1.81633 74.3095 1.81633C74.3476 1.81633 74.3857 1.8172 74.4238 1.81893C75.3384 1.92979 76.1543 2.5049 76.8481 3.52692C80.1922 8.45601 79.9445 22.3044 77.489 31.3935C77.4535 31.5251 77.4682 31.6663 77.5314 31.7867C79.0428 34.6847 80.0458 37.7369 80.5975 41.1165C80.6053 41.1616 80.6183 41.2049 80.6356 41.2456C79.5244 41.702 78.5188 42.1949 77.9013 42.8193L77.8866 42.8228C77.8753 41.7324 77.7419 40.6177 77.4786 39.4969C76.0192 33.2894 71.0407 28.9987 65.7721 28.9987C65.0377 28.9987 64.2971 29.0827 63.5601 29.255C57.5371 30.6729 54.0024 37.5542 55.6654 44.6261C55.668 44.6347 55.6697 44.6434 55.6714 44.6521C55.7069 44.8019 55.7269 44.9526 55.7312 45.1007C55.2332 44.8591 54.4225 44.7993 53.7859 44.7993C53.3987 44.7993 53.0757 44.8209 52.9258 44.8383C52.5854 44.8755 51.3702 45.0825 50.5924 45.4913C50.5836 45.4116 50.5793 45.3302 50.5793 45.2479C50.5793 45.2393 50.5793 45.2306 50.5793 45.222C50.5624 37.9647 45.5454 32.0924 39.366 32.0924C39.3596 32.0924 39.352 32.0924 39.3456 32.0924C33.1579 32.1072 28.1561 38.008 28.1709 45.2731C28.1741 46.4224 28.3014 47.538 28.5409 48.6016Z" fill="#FF7F00"/>
</g>
<path d="M31.0079 12.4146C30.2482 12.6752 29.4227 12.737 28.6338 12.5942C28.7547 13.1914 28.7888 13.8078 28.7319 14.4158C28.7143 14.5929 28.6898 14.7725 28.6077 14.9303C28.4796 15.1776 28.2337 15.3354 28.001 15.4874C25.7886 16.924 23.8186 18.7941 22.5153 21.0902C21.7235 21.1428 20.925 21.1963 20.1616 21.4134C20.0607 21.4418 19.9585 21.4744 19.8585 21.5078C18.4871 14.6313 18.7523 8.61932 22.0571 7.42159C24.0004 6.85029 27.1476 8.04301 31.1806 10.537C30.9699 11.1367 30.9034 11.7874 31.0079 12.4146Z" fill="#8E3410"/>
<path d="M66.9283 8.20902C67.727 8.28732 68.5448 8.15682 69.2792 7.83489C69.3 8.44481 69.4097 9.05211 69.6046 9.62983C69.6629 9.79862 69.7281 9.96829 69.8447 10.1023C70.0265 10.3128 70.3024 10.4103 70.5634 10.5042C73.0483 11.3908 75.3974 12.7551 77.1958 14.6875C77.978 14.5561 78.768 14.423 79.5607 14.4578C79.6651 14.4622 79.7721 14.47 79.8774 14.4796C79.6224 7.47295 77.9745 1.68443 74.4821 1.28246C72.4592 1.17632 69.6733 3.06348 66.3262 6.42278C66.6698 6.95787 66.8848 7.57561 66.9283 8.20902Z" fill="#8E3410"/>
<path d="M34.6272 19.6443C32.3088 22.7018 30.0415 26.2427 28.3146 30.0656H28.313C27.8056 31.19 27.343 32.3393 26.9396 33.5078C22.4457 24.5586 21.2273 17.1947 22.3115 13.8103C22.6847 12.6474 24.01 12.0852 25.1062 12.6193C28.1179 14.093 30.8004 16.1081 33.3096 18.4034C33.7549 18.8074 34.1927 19.2218 34.6272 19.6443Z" fill="#FFDAB6"/>
<path d="M65.0654 16.0773C68.0274 18.5166 71.0522 21.4382 73.6157 24.7583H73.6173C74.3706 25.7348 75.0861 26.7464 75.7488 27.7891C78.0523 18.0435 77.5364 10.598 75.6993 7.55553C75.0669 6.51035 73.6475 6.2696 72.7047 7.04301C70.1152 9.17197 67.9712 11.7531 66.0603 14.5657C65.7206 15.0623 65.3901 15.5664 65.0654 16.0773Z" fill="#FFDAB6"/>
<path d="M84.712 46.6409C84.7448 50.004 82.3901 52.6261 77.4096 54.4344C63.4553 67.8022 48.1459 69.5974 31.4812 59.8207C26.2171 59.2116 23.3199 57.2051 22.5742 53.9251C23.3379 53.5718 24.2663 53.5157 25.2759 53.6089C23.1993 51.5318 21.8749 49.5595 21.4756 47.6638C21.9818 47.4802 22.5869 47.3928 23.2674 47.4212L24.0364 47.4991L24.0548 47.5006C24.2883 47.5312 24.5222 47.564 24.756 47.5975C26.2263 47.8008 27.6385 48.0448 28.5408 48.6073C28.3013 47.5436 28.174 46.4282 28.1708 45.2785C28.1559 38.0132 33.1578 32.1125 39.3455 32.0972C45.5332 32.0848 50.5625 37.9629 50.5793 45.2275C50.5793 45.2362 50.5793 45.245 50.5793 45.2537C50.58 46.5659 51.7049 47.5917 53.0083 47.4387L53.8134 47.3447C55.1161 47.1917 55.9729 45.9335 55.6713 44.657C55.6691 44.649 55.6676 44.6402 55.6654 44.6322C54.0028 37.56 57.5364 30.6787 63.5602 29.2609C69.5833 27.8453 75.8155 32.4302 77.478 39.5017C77.7411 40.6236 77.8751 41.7376 77.886 42.8283L77.9006 42.8247C78.7676 41.9496 80.3967 41.3333 82.0097 40.7111L84.3375 40.4495C84.3397 42.3496 83.5091 44.5237 82.0105 46.9571C82.9715 46.6329 83.8873 46.4726 84.712 46.6409Z" fill="#FFDAB6"/>
<path d="M51.507 65.0938C47.2127 65.0938 42.8215 64.2678 38.3329 62.6152C36.1622 61.7336 33.9702 60.6434 31.7575 59.346C31.6922 59.307 31.6197 59.2825 31.5448 59.2745C27.9351 58.8572 25.4913 57.7988 24.1523 56.0602C25.605 56.6559 27.4918 57.0385 29.8311 57.1995C36.8074 60.3517 43.5984 61.9278 50.2053 61.9278C60.0142 61.9278 69.4174 58.4529 78.4134 51.5038C80.6508 50.8063 82.3973 49.9991 83.6731 49.0844C82.7713 51.0843 80.6386 52.6784 77.2243 53.9181C77.1535 53.9441 77.0886 53.9845 77.0337 54.0365C75.1803 55.8119 73.2988 57.38 71.3899 58.7402C65.0097 62.9762 58.3833 65.0938 51.507 65.0938Z" fill="#D9A894"/>
<path d="M23.2276 54.2617C24.0954 57.0892 26.8225 58.7317 31.5443 59.2776C31.6192 59.286 31.6917 59.3104 31.757 59.3489C48.1086 68.9417 63.3413 67.1558 77.0334 54.0397C77.0876 53.9873 77.1531 53.9471 77.2239 53.9209C81.6915 52.2992 83.9651 50.0702 84.1564 47.1185C83.6025 47.0949 82.9524 47.212 82.1852 47.4707C81.9694 47.5441 81.7282 47.4733 81.5858 47.2942C81.4434 47.115 81.4276 46.8651 81.5482 46.6694C82.9559 44.3836 83.6898 42.463 83.7842 40.8142C83.0564 40.8369 82.2376 41.0755 81.3848 41.5159C81.2293 41.5963 81.0458 41.5971 80.8903 41.5185C80.7347 41.4399 80.6264 41.2922 80.5975 41.1201C80.0462 37.7403 79.0431 34.6882 77.5323 31.7899C77.4685 31.6693 77.4537 31.5286 77.4895 31.3967C79.9448 22.3076 80.193 8.45911 76.8482 3.53013C76.1544 2.5078 75.3391 1.93286 74.4243 1.82189C71.6833 1.7048 66.9317 5.82991 60.2892 14.1037C60.1651 14.2566 59.9703 14.3318 59.7745 14.2994C52.772 13.1225 45.9051 13.929 39.364 16.6953C39.1831 16.7722 38.974 16.7451 38.8182 16.6237C35.8156 14.2881 33.1499 12.3972 30.8955 11.0036C26.8288 8.48882 23.9124 7.45864 22.2271 7.94183C19.591 8.91697 18.9045 13.9464 20.3924 21.405C21.4861 26.8862 23.6128 32.8742 26.0807 37.424C26.1455 37.5446 26.1632 37.6844 26.13 37.8172C25.3329 40.9715 25.0614 44.1556 25.2985 47.5476C25.3001 47.5615 25.3009 47.5738 25.3017 47.5869C25.321 47.7643 25.2524 47.9364 25.1187 48.0535C24.9849 48.1706 24.8023 48.2134 24.6297 48.1697C24.4186 48.1173 24.2019 48.0736 23.9853 48.0378C23.9729 48.0369 23.9593 48.0351 23.952 48.0343C23.7193 47.9976 23.4807 47.9731 23.2431 47.9626C22.8439 47.946 22.4722 47.9731 22.1338 48.0413C22.6047 49.6228 23.7638 51.324 25.6614 53.2228C25.8235 53.3844 25.8665 53.6308 25.7691 53.8379C25.6714 54.0458 25.4519 54.1699 25.2264 54.149C24.4202 54.0738 23.761 54.1105 23.2276 54.2617ZM51.913 66.5547C45.2875 66.555 38.3736 64.4737 31.3048 60.3449C25.9649 59.703 22.849 57.5834 22.0445 54.0441C21.9876 53.7942 22.113 53.5373 22.346 53.4298C22.815 53.2123 23.3573 53.083 23.9861 53.0393C22.2911 51.1615 21.2927 49.4306 20.9438 47.7739C20.8878 47.5082 21.0359 47.2426 21.2907 47.15C21.8778 46.9377 22.5515 46.845 23.2904 46.8756C23.5652 46.8879 23.8383 46.9149 24.105 46.9569C24.1186 46.9586 24.1335 46.9595 24.1419 46.9613C24.1527 46.963 24.1631 46.9648 24.1739 46.9665C24.0097 43.765 24.2896 40.7478 25.0238 37.7569C22.5495 33.1398 20.4244 27.1256 19.3251 21.6182C17.6962 13.4501 18.6246 8.09037 21.8722 6.91339C21.8826 6.9099 21.8935 6.90641 21.9043 6.90291C23.9244 6.31049 27.0527 7.34767 31.4675 10.0782C33.6914 11.4527 36.3038 13.2998 39.2351 15.5708C45.7825 12.8621 52.6439 12.0565 59.64 13.1749C66.6127 4.52537 71.346 0.571518 74.4977 0.735786C74.5099 0.736664 74.5204 0.737541 74.5318 0.739288C75.7822 0.882584 76.8648 1.61656 77.749 2.91936C81.3315 8.19873 81.0659 22.1399 78.594 31.4753C80.0016 34.2181 80.9715 37.0937 81.55 40.2402C82.5574 39.8216 83.5299 39.6539 84.3967 39.7517C84.6685 39.7832 84.8756 40.0121 84.8791 40.2865L84.8799 40.3503C84.8817 40.3808 84.8817 40.4123 84.8817 40.4429V40.4472C84.8834 42.0996 84.3111 43.959 83.1359 46.105C83.7571 46.0019 84.3146 46.0019 84.8214 46.1058C85.073 46.1565 85.2548 46.3767 85.2574 46.6336C85.2915 50.2633 82.7505 53.0454 77.7036 54.9048C70.6959 61.5921 63.2347 65.4409 55.5262 66.3448C54.3327 66.485 53.1268 66.5547 51.913 66.5547Z" fill="#1E1E1E"/>
<path d="M24.2277 12.9641C24.0311 12.9641 23.8344 13.0036 23.6487 13.0833C23.257 13.2499 22.9582 13.5767 22.8288 13.98C21.8844 16.9277 22.7968 23.6161 26.865 32.1244C27.1546 31.3694 27.4726 30.6071 27.8162 29.8448C27.8227 29.8319 27.829 29.819 27.8359 29.8061C29.3473 26.4688 31.3871 23.0719 33.9026 19.7048C33.5634 19.3796 33.2474 19.085 32.9434 18.8089C30.1804 16.2813 27.5387 14.4187 24.8666 13.1114C24.6655 13.0132 24.4469 12.9641 24.2277 12.9641ZM26.9387 34.0547C26.7344 34.0547 26.5458 33.9396 26.453 33.7552C22.3354 25.5552 20.5063 17.6626 21.7927 13.6475C22.0186 12.944 22.5396 12.3733 23.2217 12.0819C23.905 11.7905 24.6783 11.809 25.344 12.1334C28.1114 13.4873 30.8368 15.408 33.6764 18.0047C34.0884 18.379 34.5238 18.7888 35.0056 19.2564C35.203 19.448 35.2263 19.7563 35.0605 19.9753C32.45 23.418 30.3474 26.889 28.8103 30.2931C28.8042 30.3052 28.7979 30.3181 28.791 30.331C28.2832 31.4587 27.833 32.5889 27.4533 33.6884C27.3817 33.8953 27.1934 34.0394 26.9752 34.0539C26.9631 34.0547 26.9511 34.0547 26.9387 34.0547Z" fill="#1E1E1E"/>
<mask id="mask6_16470_35839" style="mask-type:luminance" maskUnits="userSpaceOnUse" x="25" y="18" width="10" height="13">
<path d="M34.6269 19.6481C32.3084 22.7059 30.0411 26.2471 28.3142 30.0703H28.3126C26.9293 26.9897 27.4916 24.2619 29.2121 21.7431C28.1872 21.3466 26.9933 21.3823 25.7266 21.6038C27.2304 18.6505 29.7584 17.5839 33.3092 18.4078C33.7546 18.8119 34.1923 19.2264 34.6269 19.6481Z" fill="white"/>
</mask>
<g mask="url(#mask6_16470_35839)">
<path d="M34.6269 19.6484C32.3084 22.7064 30.0412 26.247 28.3142 30.0703H28.3126C26.9292 26.9901 27.4916 24.2622 29.2121 21.7435C28.1872 21.3467 26.9934 21.3827 25.7266 21.6041C27.2304 18.6503 29.7584 17.5839 33.3092 18.4074C33.7546 18.8119 34.1923 19.2263 34.6269 19.6484Z" fill="url(#paint0_linear_16470_35839)"/>
</g>
<path d="M27.415 20.8915C28.1692 20.8915 28.8216 21.0043 29.4083 21.2316C29.5633 21.2911 29.6827 21.4187 29.7319 21.5772C29.7808 21.7356 29.7552 21.9088 29.6614 22.0456C28.1568 24.248 27.7307 26.4226 28.3731 28.6605C29.8185 25.6921 31.6736 22.6857 33.9028 19.7018C33.6028 19.4142 33.3205 19.1506 33.0493 18.9024C30.2226 18.2817 28.1564 18.9419 26.7667 20.917C26.991 20.9 27.2068 20.8915 27.415 20.8915ZM28.3142 30.6094C28.1015 30.6094 27.9045 30.4857 27.8159 30.2886C26.5516 27.4732 26.7278 24.7745 28.359 22.0611C27.6677 21.9312 26.8424 21.9567 25.8203 22.1353C25.6173 22.1709 25.4118 22.0882 25.2892 21.9227C25.1667 21.7573 25.1483 21.5362 25.2419 21.3522C26.8672 18.1603 29.6222 16.9892 33.4322 17.8735C33.5227 17.8944 33.606 17.9377 33.6749 18.0003C34.0886 18.376 34.5239 18.7857 35.0058 19.2534C35.2032 19.4451 35.2264 19.7536 35.0606 19.9723C32.4502 23.4155 30.3475 26.8856 28.8104 30.2893C28.7303 30.4664 28.5617 30.5877 28.3687 30.607C28.3503 30.6086 28.3322 30.6094 28.3142 30.6094Z" fill="#1E1E1E"/>
<path d="M74.0227 24.3883C74.0311 24.3984 74.0404 24.4094 74.0488 24.4195C74.5591 25.0811 75.0442 25.7495 75.5008 26.4179C77.4925 17.1999 76.8342 10.4814 75.2342 7.83132C75.0156 7.46895 74.6491 7.22009 74.2295 7.14779C73.8066 7.07548 73.3787 7.18898 73.0508 7.45802C70.753 9.3472 68.6141 11.7703 66.5105 14.8659C66.2777 15.2064 66.038 15.5663 65.7833 15.9606C69.0101 18.6561 71.7804 21.4903 74.0227 24.3883ZM75.7488 28.3281C75.5655 28.3281 75.3906 28.234 75.2897 28.0751C74.665 27.0905 73.9655 26.0959 73.2114 25.1156C73.2021 25.1055 73.1937 25.0954 73.1853 25.0853C70.9027 22.1292 68.055 19.2379 64.7197 16.492C64.507 16.3171 64.4591 16.011 64.6071 15.7798C64.9669 15.214 65.2957 14.7146 65.6118 14.253C67.7734 11.0716 69.9803 8.57287 72.3597 6.61643C72.9331 6.14729 73.6822 5.95055 74.4128 6.07582C75.1443 6.2011 75.7833 6.63576 76.1658 7.26885C78.345 10.8774 78.3896 18.9798 76.2793 27.9094C76.2289 28.1213 76.0557 28.2836 75.8396 28.3206C75.8093 28.3256 75.779 28.3281 75.7488 28.3281Z" fill="#1E1E1E"/>
<mask id="mask7_16470_35839" style="mask-type:luminance" maskUnits="userSpaceOnUse" x="65" y="13" width="10" height="12">
<path d="M65.0654 16.077C68.0279 18.516 71.0521 21.4373 73.6157 24.7578L73.6177 24.7574C74.2513 21.4405 73.0738 18.9165 70.8178 16.8636C71.7233 16.2408 72.8928 15.9997 74.1764 15.9224C72.0309 13.3968 69.3251 12.9431 66.0607 14.5655C65.7206 15.0617 65.3906 15.5659 65.0654 16.077Z" fill="white"/>
</mask>
<g mask="url(#mask7_16470_35839)">
<path d="M65.0654 16.0763C68.0278 18.5156 71.0521 21.4367 73.616 24.7578L73.6175 24.757C74.2518 21.4398 73.0738 18.9164 70.8179 16.8637C71.7236 16.2406 72.8928 15.9993 74.1764 15.9223C72.0308 13.3965 69.3256 12.9433 66.0608 14.565C65.7211 15.0611 65.3909 15.5659 65.0654 16.0763Z" fill="url(#paint1_linear_16470_35839)"/>
</g>
<path d="M65.7824 15.9606C68.6409 18.3494 71.1411 20.8456 73.2333 23.3995C73.3407 21.0732 72.4229 19.0556 70.451 17.2616C70.3283 17.1494 70.2626 16.9875 70.2738 16.8224C70.2858 16.6564 70.3716 16.5049 70.5087 16.4103C71.17 15.9558 71.9796 15.6568 73.0065 15.4949C71.198 13.8941 69.0353 13.7298 66.4285 14.9859C66.2217 15.2905 66.0077 15.6127 65.7824 15.9606ZM73.6165 25.2969C73.4489 25.2969 73.2886 25.2199 73.1844 25.0852C70.9023 22.1289 68.0542 19.2384 64.7187 16.4921C64.5063 16.3173 64.4582 16.0119 64.6057 15.7803C64.9664 15.2143 65.2951 14.715 65.6109 14.2532C65.663 14.1763 65.7343 14.1146 65.8177 14.0729C69.3199 12.3334 72.2714 12.8352 74.5904 15.5655C74.7243 15.7226 74.7572 15.9414 74.6762 16.1314C74.5952 16.3206 74.4149 16.4488 74.2088 16.4608C73.1732 16.5234 72.3644 16.6893 71.7223 16.9755C73.9355 19.2384 74.7307 21.8227 74.1511 24.8552C74.1063 25.0893 73.9147 25.2672 73.6774 25.2937C73.6565 25.2961 73.6365 25.2969 73.6165 25.2969Z" fill="#1E1E1E"/>
<path d="M25.3037 39.5312C25.2636 39.5312 25.2236 39.5271 25.1831 39.5175C24.89 39.4511 24.7061 39.16 24.7722 38.8668C25.3749 36.1992 26.2044 33.9413 27.0066 31.7573C27.11 31.4751 27.4239 31.3312 27.7047 31.434C27.9866 31.5381 28.1316 31.8505 28.0279 32.1327C27.2377 34.2838 26.4207 36.5081 25.8335 39.1072C25.7767 39.3593 25.552 39.5312 25.3037 39.5312Z" fill="#1E1E1E"/>
<path d="M78.5528 33.2969C78.3515 33.2969 78.1581 33.1847 78.0639 32.992C76.8933 30.6005 75.6421 28.7122 74.3176 26.7133C74.1508 26.4631 74.2198 26.1251 74.4701 25.9597C74.7203 25.7929 75.0583 25.862 75.2243 26.1122C76.51 28.0522 77.8388 30.0576 79.041 32.5131C79.1733 32.7835 79.0612 33.1085 78.7915 33.2408C78.7146 33.2789 78.6333 33.2969 78.5528 33.2969Z" fill="#1E1E1E"/>
<path d="M44.5529 44.4781C44.8886 47.3262 43.1612 49.8697 40.6945 50.1603C38.2285 50.451 35.9578 48.3771 35.6228 45.5296C35.2871 42.6815 37.0145 40.1374 39.4812 39.8474C41.9466 39.5567 44.2178 41.63 44.5529 44.4781Z" fill="#1E1E1E"/>
<path d="M42.5813 43.1962C42.7015 44.2137 42.147 45.116 41.3426 45.2107C40.5381 45.3054 39.7892 44.557 39.6696 43.5389C39.5499 42.5214 40.1045 41.6191 40.9083 41.5244C41.7127 41.4297 42.4616 42.1781 42.5813 43.1962Z" fill="white"/>
<path d="M38.7098 48.1875C38.2877 48.1875 37.8961 47.6878 37.8191 47.0311C37.7379 46.3422 38.0334 45.7416 38.4788 45.689C38.4991 45.6866 38.52 45.6855 38.5409 45.6855C38.9629 45.6855 39.3546 46.1851 39.4316 46.8413C39.5128 47.5302 39.2173 48.1314 38.7719 48.1839C38.751 48.1863 38.7301 48.1875 38.7098 48.1875Z" fill="white" fill-opacity="0.2"/>
<path d="M61.3777 42.5088C61.7101 45.357 63.979 47.4332 66.4451 47.1452C68.9119 46.8578 70.6419 44.3159 70.3095 41.4678C69.9777 38.6189 67.7095 36.5434 65.2427 36.8307C62.7766 37.1181 61.0459 39.6606 61.3777 42.5088Z" fill="#1E1E1E"/>
<path d="M63.0004 40.8026C63.1194 41.8207 63.8668 42.5699 64.6711 42.4765C65.4754 42.3831 66.0314 41.4815 65.9124 40.4635C65.7934 39.4455 65.0454 38.6962 64.2411 38.7896C63.4374 38.8837 62.8814 39.7846 63.0004 40.8026Z" fill="white"/>
<path d="M67.7959 44.7812C67.3735 44.7812 66.9826 44.2814 66.9058 43.6242C66.8252 42.9355 67.1211 42.335 67.5668 42.2833C67.5876 42.2808 67.6083 42.2796 67.6285 42.2796C68.0509 42.2796 68.4424 42.7794 68.5186 43.4366C68.5992 44.1253 68.3033 44.7258 67.8576 44.7775C67.8369 44.78 67.8161 44.7812 67.7959 44.7812Z" fill="white" fill-opacity="0.2"/>
<path d="M35.6894 27.9191C37.5028 27.3796 39.2522 27.1535 40.8941 27.4537C41.3176 27.5315 41.7529 27.3451 41.9525 26.9648C43.0103 24.9544 41.3477 23.3777 39.2558 23.3542C38.645 23.3476 38.0435 23.5017 37.4832 23.7447C35.6593 24.5374 34.7438 25.5937 34.4594 26.7167C34.2708 27.4596 34.9548 28.1385 35.6894 27.9191Z" fill="#FFDAB6"/>
<path d="M65.2701 24.4581C63.3815 24.3515 61.6265 24.5361 60.0989 25.2076C59.7049 25.381 59.239 25.3007 58.9554 24.9765C57.4622 23.265 58.716 21.3465 60.7456 20.8407C61.3384 20.6929 61.9589 20.7034 62.5599 20.8107C64.5175 21.1604 65.6528 21.9767 66.1893 23.0032C66.5442 23.6822 66.0355 24.5008 65.2701 24.4581Z" fill="#FFDAB6"/>
<path d="M53.7095 49.5369L53.6458 49.5547L53.6436 49.534L53.7095 49.5369Z" fill="#00046A"/>
<path d="M53.7709 49.5262L53.7738 49.5469L53.709 49.5434L53.7709 49.5262Z" fill="#00046A"/>
<path d="M57.8516 49.795C57.4866 51.0345 57.5134 55.3423 54.1383 55.7184C50.7632 56.0951 49.8393 51.8875 49.2099 50.7568C48.3505 49.211 53.2807 49.0311 53.3907 49.0271H53.3925C53.492 49.0079 58.3494 48.0949 57.8516 49.795Z" fill="#00046A"/>
<path d="M57.8525 49.7951C57.6493 50.4827 57.5672 52.1117 56.9594 53.4921C56.4704 54.6023 55.6425 55.5508 54.138 55.7184C52.6313 55.8867 51.613 55.1391 50.8922 54.1622C49.9968 52.9506 49.5566 51.3816 49.2097 50.7569C48.3515 49.2105 53.2804 49.0312 53.3911 49.0266H53.3922C53.4918 49.0073 58.3503 48.0944 57.8525 49.7951Z" fill="#1E1E1E"/>
<path d="M56.9592 53.4922C56.4703 54.6023 55.642 55.5505 54.138 55.7185C52.6311 55.8865 51.6131 55.1392 50.8926 54.1625C51.5126 53.2422 52.5647 52.7148 53.8394 53.0809C55.0069 52.443 56.1516 52.7265 56.9592 53.4922Z" fill="#FF8080"/>
<path d="M54.4643 52.8275C54.0157 53.0029 53.884 53.4609 53.884 53.4609C53.884 53.4609 53.655 53.0433 53.1787 52.9708L53.8149 52.8397L54.4643 52.8275Z" fill="#1E1E1E"/>
<path d="M55.9807 49.22C55.2307 49.22 54.307 49.3139 53.4771 49.4713C53.4678 49.4737 53.4579 49.4748 53.4485 49.4766C53.4357 49.4778 53.4211 49.4789 53.4083 49.4795C51.4967 49.553 49.8142 49.942 49.5763 50.3659C49.564 50.3875 49.543 50.4237 49.606 50.5362C49.7331 50.7654 49.8626 51.085 50.0125 51.4559C50.8482 53.5221 51.853 55.5183 54.0883 55.2681C56.3236 55.0191 56.8624 52.8526 57.2222 50.6552C57.287 50.2604 57.3435 49.9186 57.417 49.6667C57.4532 49.5431 57.4252 49.5122 57.4077 49.4929C57.2351 49.3028 56.6851 49.22 55.9807 49.22ZM53.7133 56.1953C50.9531 56.1953 49.8049 53.3582 49.1727 51.7959C49.0339 51.453 48.9144 51.1567 48.8141 50.9771C48.6146 50.6184 48.6053 50.2435 48.7867 49.9216C49.3891 48.8503 52.1475 48.6234 53.3401 48.575C54.2772 48.3995 57.2199 47.9376 58.0783 48.8841C58.3279 49.1593 58.402 49.5273 58.2865 49.9221V49.9227C58.2282 50.1204 58.1763 50.4359 58.1168 50.8016C57.8293 52.5563 57.2934 55.8221 54.1886 56.1685C54.0253 56.1866 53.8667 56.1953 53.7133 56.1953Z" fill="#1E1E1E"/>
<path d="M59.014 47.1189C59.014 47.1189 58.7867 49.594 57.4174 50.3679C56.0013 51.1683 54.6621 50.4605 53.9068 49.9969C53.632 49.8285 53.4516 49.5435 53.4161 49.2236L53.2315 47.5693H53.2291L53.4137 49.2236C53.4492 49.5435 53.3361 49.8616 53.1052 50.0865C52.4708 50.7047 51.3198 51.6903 49.7623 51.2212C48.2566 50.7678 47.4893 48.4033 47.4893 48.4033C47.4893 48.4033 48.5837 45.9577 52.9945 45.4658C57.4054 44.9745 59.014 47.1189 59.014 47.1189Z" fill="#FFDAB6"/>
<path d="M53.5292 47.5378C53.7006 47.941 53.8256 48.3496 53.9248 48.761L53.994 49.0704C54.1097 49.5464 54.0187 50.0835 53.6888 50.4668C52.6998 51.5321 51.1015 52.3087 49.6657 51.7C48.3051 51.1688 47.7088 49.7254 47.4893 48.4053C48.1132 49.3815 48.8129 50.5096 49.934 50.7667C50.9788 50.9498 51.8839 50.3635 52.5859 49.6415C52.6798 49.5358 52.7972 49.439 52.8131 49.2817C52.8054 48.7217 52.8248 48.167 52.9287 47.6047C52.9598 47.4333 53.1236 47.3194 53.295 47.3506C53.403 47.3705 53.4887 47.4445 53.5292 47.5378Z" fill="#1E1E1E"/>
<path d="M53.5318 47.5369C53.7571 48.0621 53.8983 48.5991 54.0142 49.1467C54.0647 49.2973 54.2 49.3655 54.3153 49.4485C54.5888 49.6167 54.8806 49.7849 55.1735 49.9037C57.4339 50.7978 58.3815 49.0426 59.0144 47.1198C59.0791 47.9986 58.9614 48.8815 58.5762 49.6985C58.1844 50.5796 57.2092 51.2442 56.2075 51.3236C55.1935 51.4101 54.2459 51.0313 53.4213 50.4955C53.0148 50.1943 52.8078 49.6908 52.816 49.2014L52.8154 48.8844C52.8213 48.4609 52.8537 48.0351 52.9319 47.6039C52.9819 47.2986 53.4183 47.2545 53.5318 47.5369Z" fill="#1E1E1E"/>
<path d="M56.1703 45.8596C55.7678 47.563 53.3632 48.7656 53.3632 48.7656C53.3632 48.7656 50.7541 48.1218 49.9859 46.5493C49.438 45.4239 52.3658 44.9038 52.9264 44.8416C53.4863 44.7789 56.4575 44.6413 56.1703 45.8596Z" fill="#1E1E1E"/>
<path d="M52.6699 45.8594C52.3418 45.8594 51.8864 45.8131 51.7098 45.5776C51.5043 45.3012 52.7216 45.1162 52.9541 45.0903C53.0478 45.0801 53.305 45.0591 53.5681 45.0591C53.9563 45.0591 54.3576 45.1041 54.2741 45.2916C54.0776 45.7326 53.0376 45.8407 53.0376 45.8407C53.0376 45.8407 52.8796 45.8594 52.6699 45.8594Z" fill="#B38A97"/>
<path d="M51.0996 66.011L55.2666 69.0357C56.3711 69.1003 57.4213 69.0529 58.3914 68.8402C58.6521 67.6037 58.9128 66.3671 59.1729 65.13C57.9992 65.373 56.7112 65.5879 55.3192 65.7451C53.8025 65.9166 52.3888 65.9938 51.0996 66.011Z" fill="#D84545"/>
<path d="M56.5537 69.058C56.5577 69.058 56.5616 69.058 56.565 69.0574C56.5611 69.058 56.5577 69.058 56.5537 69.058ZM56.6257 69.0551C56.6302 69.0551 56.6348 69.0551 56.6387 69.0551C56.6342 69.0551 56.6302 69.0551 56.6257 69.0551ZM56.7153 69.0517C56.7198 69.0517 56.7249 69.0512 56.73 69.0512C56.7249 69.0512 56.7204 69.0517 56.7153 69.0517ZM58.391 68.8419C58.3961 68.8158 58.4017 68.7897 58.4074 68.7637C58.4114 68.7863 58.4148 68.8102 58.4187 68.8357C58.4097 68.8379 58.4006 68.8396 58.391 68.8419Z" fill="#D9A894"/>
<path d="M51.1349 66.0151C51.8431 66.0054 52.5899 65.976 53.3693 65.9245L53.3699 65.925C52.5899 65.977 51.8436 66.0054 51.1349 66.0151Z" fill="#1E1E1E"/>
<path d="M56.1521 69.0625C55.8612 69.0625 55.5664 69.0529 55.2664 69.0359L51.0996 66.011C51.1041 66.011 51.1092 66.011 51.1143 66.011C51.1172 66.011 51.1195 66.011 51.1223 66.011C51.1257 66.0104 51.1285 66.0104 51.1319 66.0104C51.1331 66.0104 51.1336 66.0104 51.1353 66.0104C51.8435 66.0002 52.5902 65.9724 53.3698 65.9202L54.7068 66.8904C55.5681 67.5157 56.6023 67.8537 57.658 67.8537C57.8343 67.8537 58.0112 67.844 58.1881 67.8253C58.2125 67.8225 58.2369 67.8197 58.2618 67.8168C58.3582 68.4377 58.3225 68.2086 58.4081 68.762C58.4025 68.7881 58.3968 68.8142 58.3911 68.8402C58.3911 68.8402 58.3911 68.8402 58.3906 68.8408C57.8564 68.9389 57.328 69.0092 56.8069 69.0461C56.8064 69.0461 56.8052 69.0461 56.8047 69.0461C56.8041 69.0461 56.8035 69.0461 56.8035 69.0461C56.7979 69.0461 56.7928 69.0466 56.7871 69.0472C56.7865 69.0472 56.786 69.0472 56.7854 69.0472C56.7797 69.0472 56.7746 69.0472 56.769 69.0478C56.7684 69.0478 56.7678 69.0478 56.7673 69.0478C56.7621 69.0483 56.7565 69.0483 56.7514 69.0483C56.7502 69.0483 56.7497 69.0483 56.7491 69.0483C56.744 69.0489 56.7389 69.0495 56.7338 69.0495C56.7327 69.0495 56.7315 69.0495 56.731 69.05C56.7259 69.05 56.7202 69.05 56.7157 69.05C56.7151 69.05 56.7134 69.05 56.7128 69.0506C56.7083 69.0506 56.7026 69.0512 56.6981 69.0512C56.6969 69.0512 56.6958 69.0512 56.6947 69.0512C56.6896 69.0512 56.685 69.0517 56.6799 69.0517C56.6788 69.0517 56.6777 69.0517 56.6765 69.0517C56.6714 69.0523 56.6669 69.0523 56.6624 69.0529C56.6607 69.0529 56.659 69.0529 56.6573 69.0529C56.6533 69.0529 56.6488 69.0529 56.6442 69.0534C56.6425 69.0534 56.6408 69.0534 56.6391 69.0534C56.6351 69.0534 56.6306 69.054 56.6261 69.054C56.6249 69.054 56.6227 69.054 56.621 69.054C56.6164 69.054 56.6125 69.054 56.6085 69.0546C56.6062 69.0546 56.6045 69.0546 56.6028 69.0546C56.5989 69.0551 56.5949 69.0551 56.5904 69.0551C56.5881 69.0557 56.5864 69.0557 56.5841 69.0557C56.5801 69.0557 56.5762 69.0557 56.5728 69.0557C56.5705 69.0557 56.5677 69.0557 56.566 69.0557C56.562 69.0563 56.558 69.0563 56.5541 69.0563C56.5518 69.0563 56.5495 69.0568 56.5473 69.0568C56.5433 69.0568 56.5405 69.0568 56.5365 69.0568C56.5337 69.0568 56.5314 69.0568 56.5291 69.0568C56.5251 69.0568 56.5217 69.0574 56.5183 69.0574C56.5155 69.0574 56.5132 69.0574 56.5104 69.058C56.507 69.058 56.5036 69.058 56.5002 69.058C56.4974 69.058 56.4945 69.058 56.4917 69.058C56.4883 69.058 56.4855 69.058 56.4821 69.058C56.4787 69.0585 56.4764 69.0585 56.4736 69.0585C56.4701 69.0585 56.4667 69.0585 56.4639 69.0585C56.4611 69.0591 56.4577 69.0591 56.4543 69.0591C56.4514 69.0591 56.4486 69.0591 56.4463 69.0597C56.4424 69.0597 56.439 69.0597 56.4356 69.0597C56.4327 69.0597 56.4305 69.0597 56.4276 69.0597C56.4242 69.0597 56.4203 69.0597 56.4169 69.0597C56.4146 69.0597 56.4118 69.0597 56.4095 69.0597C56.4055 69.0602 56.4015 69.0602 56.3976 69.0602C56.3959 69.0602 56.3936 69.0602 56.3913 69.0602C56.3874 69.0602 56.3828 69.0608 56.3789 69.0608C56.3766 69.0608 56.3755 69.0608 56.3732 69.0608C56.3687 69.0608 56.3636 69.0608 56.359 69.0608C56.3573 69.0608 56.3562 69.0608 56.3551 69.0608C56.35 69.0608 56.3443 69.0608 56.3392 69.0608C56.3386 69.0608 56.3375 69.0608 56.3369 69.0608C56.2757 69.0625 56.2139 69.0625 56.1521 69.0625Z" fill="#B02A2A"/>
<path d="M55.4199 69.0607L57.8054 87.1959L63.8596 91.1016L66.5933 86.024L58.3912 68.8385C57.3765 69.0255 56.384 69.1107 55.4199 69.0607Z" fill="#D84545"/>
<path d="M55.9686 69.0781C55.7849 69.0781 55.6024 69.0742 55.4209 69.0648C55.5968 69.0737 55.7738 69.0781 55.9519 69.0781C56.2057 69.0781 56.4618 69.0692 56.7195 69.0525V69.0542C56.4674 69.0698 56.2174 69.0781 55.9686 69.0781Z" fill="#D9A894"/>
<path d="M63.8598 91.1016L57.8064 87.1959L55.4209 69.061C55.6029 69.07 55.7855 69.0743 55.9687 69.0743C56.2173 69.0743 56.4676 69.0664 56.7198 69.0501L58.1123 79.6423C58.6614 83.8145 61.016 87.5347 64.5522 89.816L63.8598 91.1016Z" fill="#B02A2A"/>
<path d="M55.437 68.5602C56.3871 68.6074 57.2235 68.5643 57.98 68.4286L58.5427 65.7563C57.4943 65.9546 56.4308 66.115 55.3743 66.2345C54.4379 66.3403 53.4912 66.4156 52.5439 66.4599L55.437 68.5602ZM56.1572 69.5547C55.8612 69.5547 55.5554 69.5455 55.2387 69.5271C55.1455 69.5219 55.0559 69.4897 54.9806 69.4346L50.8131 66.4098C50.6424 66.2863 50.5705 66.0678 50.6343 65.8672C50.6981 65.6666 50.8827 65.5292 51.093 65.5269C52.483 65.508 53.8861 65.4194 55.2645 65.2636C56.5378 65.1199 57.819 64.9153 59.0733 64.6561C59.236 64.6222 59.4027 64.6727 59.5188 64.7894C59.6349 64.9061 59.6843 65.0734 59.6504 65.2349L58.8692 68.9448C58.8301 69.1333 58.6841 69.2805 58.4962 69.3213C57.7822 69.4777 57.0108 69.5547 56.1572 69.5547Z" fill="#1E1E1E"/>
<path d="M58.2606 86.9119L63.6804 90.4087L66.0463 86.0144L58.1105 69.3858C57.3611 69.5068 56.6571 69.567 55.9791 69.567L58.2606 86.9119ZM63.8597 91.5938C63.7673 91.5938 63.6748 91.567 63.5954 91.5157L57.541 87.61C57.4207 87.5323 57.3401 87.4053 57.3215 87.2631L54.9369 69.1284C54.9177 68.9845 54.9636 68.8393 55.0622 68.7333C55.1602 68.6266 55.3017 68.5664 55.4456 68.5769C56.3326 68.6228 57.2687 68.5521 58.3034 68.3617C58.5205 68.3232 58.737 68.433 58.8326 68.6321L67.0345 85.8174C67.1015 85.958 67.0978 86.1222 67.024 86.2591L64.2896 91.3367C64.2251 91.4568 64.1134 91.5441 63.9819 91.5782C63.9416 91.5885 63.9006 91.5938 63.8597 91.5938Z" fill="#1E1E1E"/>
<defs>
<linearGradient id="paint0_linear_16470_35839" x1="80.9006" y1="-83.6385" x2="98.1257" y2="-85.6563" gradientUnits="userSpaceOnUse">
<stop stop-color="#FF7F00"/>
<stop offset="0.672244" stop-color="#FF7F00"/>
<stop offset="1" stop-color="#E22B4B"/>
</linearGradient>
<linearGradient id="paint1_linear_16470_35839" x1="163.239" y1="-101.015" x2="181.087" y2="-103.106" gradientUnits="userSpaceOnUse">
<stop stop-color="#FF7F00"/>
<stop offset="0.672244" stop-color="#FF7F00"/>
<stop offset="1" stop-color="#E22B4B"/>
</linearGradient>
</defs>
</svg>
