<svg width="16" height="16" viewBox="0 0 16 16" fill="none" xmlns="http://www.w3.org/2000/svg">
<g clip-path="url(#clip0_16791_5167)">
<path d="M6.36771 7.19896C6.36771 7.47439 6.29298 7.71622 6.18091 7.88432C6.06808 8.05359 5.93048 8.13229 5.80104 8.13229C5.67161 8.13229 5.53401 8.05359 5.42117 7.88432C5.30911 7.71622 5.23438 7.47439 5.23438 7.19896C5.23438 6.92349 5.30911 6.68169 5.42117 6.51359C5.53401 6.34433 5.67161 6.26562 5.80104 6.26562C5.93048 6.26562 6.06808 6.34433 6.18091 6.51359C6.29298 6.68169 6.36771 6.92349 6.36771 7.19896Z" fill="#333333"/>
<path d="M10.7676 7.19896C10.7676 7.47439 10.6929 7.71622 10.5808 7.88432C10.468 8.05359 10.3304 8.13229 10.2009 8.13229C10.0715 8.13229 9.93391 8.05359 9.82108 7.88432C9.70901 7.71622 9.63428 7.47439 9.63428 7.19896C9.63428 6.92349 9.70901 6.68169 9.82108 6.51359C9.93391 6.34433 10.0715 6.26562 10.2009 6.26562C10.3304 6.26562 10.468 6.34433 10.5808 6.51359C10.6929 6.68169 10.7676 6.92349 10.7676 7.19896Z" fill="#333333"/>
<path d="M6.16602 10.5859C6.80965 11.0192 7.42202 11.2358 8.00315 11.2358C8.58365 11.2358 9.15922 11.0196 9.72982 10.5873" stroke="#1E1E1E" stroke-width="1.2" stroke-linecap="round"/>
<path d="M10.5754 2.06933C10.6648 2.71383 10.4682 3.18477 9.98578 3.48218C9.50331 3.77955 8.71942 3.91892 7.63412 3.90025M7.99935 14.536C10.81 14.536 13.1862 12.309 13.9638 9.75252C14.1386 9.17775 15.3327 9.17775 15.3327 7.93595C15.3327 6.69412 14.1273 6.62265 13.9322 6.01862C13.1235 3.51415 10.773 1.33594 7.99935 1.33594C5.22418 1.33594 2.87259 3.51618 2.0651 6.02282C1.87091 6.62562 0.666016 6.67232 0.666016 7.93595C0.666016 9.19955 1.86343 9.19955 2.04432 9.78328C2.83158 12.3239 5.19995 14.536 7.99935 14.536Z" stroke="#333333" stroke-width="1.2" stroke-linecap="round"/>
</g>
<defs>
<clipPath id="clip0_16791_5167">
<rect width="16" height="16" fill="white"/>
</clipPath>
</defs>
</svg>
