<svg width="16" height="16" viewBox="0 0 16 16" fill="none" xmlns="http://www.w3.org/2000/svg">
<g clip-path="url(#clip0_16948_25317)">
<path d="M16 0H0V16H16V0Z" fill="white" fill-opacity="0.01"/>
<path d="M6.09525 14.3942C4.97822 14.0616 3.98392 13.4442 3.19661 12.6261C3.49032 12.278 3.66732 11.8282 3.66732 11.3371C3.66732 10.2326 2.77189 9.33712 1.66732 9.33712C1.6005 9.33712 1.53445 9.34038 1.46931 9.34678C1.38058 8.91298 1.33398 8.46382 1.33398 8.00378C1.33398 7.30692 1.44091 6.63502 1.63925 6.00358C1.64859 6.00372 1.65794 6.00378 1.66732 6.00378C2.77189 6.00378 3.66732 5.10835 3.66732 4.00378C3.66732 3.68668 3.59352 3.38682 3.46218 3.12045C4.23315 2.40357 5.17415 1.86708 6.21802 1.57812C6.54878 2.22647 7.22288 2.67045 8.00065 2.67045C8.77842 2.67045 9.45252 2.22647 9.78328 1.57812C10.8272 1.86708 11.7682 2.40357 12.5391 3.12045C12.4078 3.38682 12.334 3.68668 12.334 4.00378C12.334 5.10835 13.2294 6.00378 14.334 6.00378C14.3434 6.00378 14.3527 6.00372 14.3621 6.00358C14.5604 6.63502 14.6673 7.30692 14.6673 8.00378C14.6673 8.46382 14.6207 8.91298 14.532 9.34678C14.4669 9.34038 14.4008 9.33712 14.334 9.33712C13.2294 9.33712 12.334 10.2326 12.334 11.3371C12.334 11.8282 12.511 12.278 12.8047 12.6261C12.0174 13.4442 11.0231 14.0616 9.90605 14.3942C9.64825 13.5877 8.89265 13.0038 8.00065 13.0038C7.10865 13.0038 6.35305 13.5877 6.09525 14.3942Z" stroke="#7DADFE" stroke-width="1.2" stroke-linejoin="round"/>
<path d="M7.99935 10.3307C9.28802 10.3307 10.3327 9.28606 10.3327 7.9974C10.3327 6.70873 9.28802 5.66406 7.99935 5.66406C6.71068 5.66406 5.66602 6.70873 5.66602 7.9974C5.66602 9.28606 6.71068 10.3307 7.99935 10.3307Z" stroke="#7DADFE" stroke-width="1.2" stroke-linejoin="round"/>
</g>
<defs>
<clipPath id="clip0_16948_25317">
<rect width="16" height="16" fill="white"/>
</clipPath>
</defs>
</svg>
