<svg width="111" height="116" viewBox="0 0 111 116" fill="none" xmlns="http://www.w3.org/2000/svg">
<path fill-rule="evenodd" clip-rule="evenodd" d="M6.15986 91.9504C1.57077 94.2162 -4.02222 95.2157 -9.88091 94.482C-19.3806 93.2923 -27.0771 87.8603 -30.4176 80.8882C-34.6295 82.0101 -39.2547 82.3581 -44.0254 81.7606C-60.6522 79.6783 -72.7437 66.9151 -71.0329 53.2547C-69.3828 40.079 -55.4968 30.8811 -39.5963 32.1121C-36.2689 16.3223 -18.5171 5.74178 1.2403 8.2162C15.5565 10.0092 27.16 18.1843 32.2125 28.686C36.0375 27.4431 40.341 26.9988 44.798 27.557C54.4054 28.7602 62.1717 34.3008 65.4485 41.388C69.2728 40.5444 73.4 40.3282 77.6442 40.8598C94.271 42.9421 106.363 55.7053 104.652 69.3657C102.941 83.0261 88.0753 92.4131 71.4485 90.3308C68.4633 89.9569 65.6254 89.2363 62.9859 88.2315C59.9265 100.561 45.8586 108.732 30.2336 106.775C19.4696 105.427 10.6067 99.5999 6.15986 91.9504Z" fill="#ECF1F7"/>
<path fill-rule="evenodd" clip-rule="evenodd" d="M-69.5525 47.7507C-65.2743 37.6149 -53.1698 31.0659 -39.5962 32.1162C-36.2689 16.3264 -18.5171 5.74587 1.24033 8.22029C15.5565 10.0132 27.16 18.1884 32.2125 28.69C36.0375 27.4472 40.3411 27.0029 44.798 27.5611C54.4054 28.7643 62.1717 34.3049 65.4486 41.3921C69.2728 40.5485 73.4001 40.3323 77.6443 40.8639C91.9227 42.6521 102.857 52.3176 104.577 63.6642C100.113 74.2363 87.1329 80.9081 72.8531 79.1197C69.8679 78.7459 67.0298 78.0266 64.3905 77.0205C61.3311 89.3495 47.2632 97.5208 31.6382 95.5639C20.8728 94.2156 12.01 88.3887 7.56295 80.7405C2.97403 83.005 -2.61913 84.0059 -8.47782 83.2721C-17.9775 82.0824 -25.674 76.6504 -29.0145 69.6784C-33.2262 70.7989 -37.8514 71.1469 -42.6221 70.5494C-56.8992 68.7613 -67.832 59.096 -69.5525 47.7507Z" fill="#F8FAFB"/>
</svg>
