<svg width="160" height="160" viewBox="0 0 160 160" fill="none" xmlns="http://www.w3.org/2000/svg">
<g opacity="0.2">
<path d="M46.1885 147C65.6225 147 81.377 144.567 81.377 141.566C81.377 138.566 65.6225 136.133 46.1885 136.133C26.7544 136.133 11 138.566 11 141.566C11 144.567 26.7544 147 46.1885 147Z" fill="#1E1E1E"/>
</g>
<path d="M82.7562 125.067L82.1522 126.875L79.2522 126.537H79.2502C78.8602 126.239 78.4202 126.079 78.0162 126.073C77.9002 125.357 77.6902 124.757 77.4102 124.273C78.5362 124.341 79.8362 124.531 80.8702 124.709C81.9582 124.895 82.7562 125.067 82.7562 125.067Z" fill="#91BBF9"/>
<path d="M79.2868 132.001C79.2868 132.001 78.8188 133.243 78.0208 134.837C76.9728 136.939 75.3568 139.651 73.4948 140.927C70.2208 143.169 65.9968 141.085 64.4488 139.301C59.4128 138.003 54.3768 137.253 49.3408 137.053C49.6428 136.669 49.8968 136.201 50.0808 135.651C54.7968 131.929 62.6728 129.139 64.8308 128.417C65.1908 128.295 65.3928 128.233 65.3928 128.233L67.5048 125.891C67.5628 125.663 67.6308 125.445 67.7068 125.237C68.7228 122.463 71.2668 121.669 72.6608 123.909C74.2668 122.287 76.3448 122.421 77.4108 124.271C77.6908 124.755 77.9008 125.355 78.0168 126.071C78.4208 126.077 78.8608 126.237 79.2508 126.535H79.2528C80.3668 127.383 81.0648 129.341 79.2868 132.001Z" fill="#C8DFFC"/>
<path d="M78.0208 134.842C76.9728 136.944 75.3568 139.656 73.4948 140.932C70.2208 143.174 65.9968 141.09 64.4488 139.306C59.4128 138.008 54.3768 137.258 49.3408 137.058C49.6428 136.674 49.8968 136.206 50.0808 135.656C54.7968 131.934 62.6728 129.144 64.8308 128.422L65.2548 129.368C65.2548 129.368 60.5928 131.238 60.4768 132.726C60.3608 134.212 64.0048 133.856 64.0048 133.856C64.0048 133.856 63.9308 137.44 68.3488 139.182C72.7668 140.922 77.6608 134.49 77.6608 134.49C77.6608 134.49 77.8028 134.614 78.0208 134.842Z" fill="#72B2ED"/>
<path d="M16.1642 123.727C15.6902 124.273 15.3342 125.057 15.1702 126.077C14.9442 126.081 14.7082 126.133 14.4762 126.229C13.1642 126.525 10.2982 127.193 8.60616 127.787L8.16016 125.497C8.16016 125.497 8.74415 125.317 9.63215 125.071C11.3522 124.593 14.2142 123.867 16.1642 123.727Z" fill="#91BBF9"/>
<path d="M43.3106 137.077C38.4526 137.307 33.5966 138.049 28.7386 139.301C27.1906 141.085 22.9666 143.169 19.6946 140.927C19.5526 140.829 19.4106 140.723 19.2706 140.609C16.2066 138.115 13.9026 132.001 13.9026 132.001C11.8506 128.931 13.0966 126.793 14.4766 126.223C14.9066 126.127 15.1706 126.071 15.1706 126.071C15.3346 125.051 15.6906 124.267 16.1646 123.721C17.2966 122.413 19.1006 122.467 20.5266 123.909C21.6186 122.155 23.4146 122.261 24.6306 123.721C24.6306 123.721 24.6306 123.721 24.6326 123.721C25.0846 124.265 25.4586 124.997 25.6846 125.891C26.4526 126.231 27.2126 126.579 27.9626 126.935C33.0826 129.359 37.8286 132.153 42.2266 135.293C42.4806 136.001 42.8566 136.599 43.3106 137.077Z" fill="#C8DFFC"/>
<path d="M43.3105 137.08C38.4525 137.31 33.5965 138.052 28.7385 139.304C27.1905 141.088 22.9665 143.172 19.6945 140.93C19.5525 140.832 19.4105 140.726 19.2705 140.612C26.6925 143.2 28.0645 135.256 28.0645 135.256C28.0645 135.256 32.6845 136.368 33.0805 134.488C33.4765 132.61 28.0045 128.85 27.6325 128.712L27.0525 126.828C27.0525 126.828 27.5165 126.88 27.9625 126.938C33.0825 129.362 37.8285 132.156 42.2265 135.296C42.4805 136.004 42.8565 136.602 43.3105 137.08Z" fill="#72B2ED"/>
<path d="M45.1361 129.851C43.1801 127.615 41.0641 125.829 38.8881 124.411L38.8861 124.409C34.7441 119.563 28.1961 117.087 19.9021 116.327L17.8281 113.703C18.8481 113.745 19.8501 113.817 20.8321 113.923C23.8981 114.251 26.7721 114.897 29.4381 115.885C36.0101 118.321 41.3241 122.843 45.1361 129.851Z" fill="#FFF3FF"/>
<path d="M19.902 116.333C28.196 117.093 34.744 119.569 38.886 124.415C31.65 119.689 23.758 118.997 18.82 119.151L16.166 116.109C17.448 116.149 18.694 116.223 19.902 116.333Z" fill="#FFF3FF"/>
<path d="M46.1688 131.088C46.1688 131.088 44.8768 131.946 44.1268 133.55C44.0368 133.41 43.9448 133.264 43.8528 133.11C34.8048 125.204 24.8008 123.744 24.6328 123.72C24.6308 123.72 24.6308 123.72 24.6308 123.72C23.4148 122.26 21.6188 122.154 20.5268 123.908C19.1008 122.466 17.2968 122.412 16.1648 123.72C14.2148 123.86 11.3528 124.586 9.63281 125.064V125.062L13.9028 119.644C13.9028 119.644 14.5848 119.498 15.7768 119.362C16.5788 119.27 17.6108 119.182 18.8208 119.144C23.7588 118.99 31.6508 119.682 38.8868 124.408L38.8888 124.41C41.0648 125.828 43.1808 127.614 45.1368 129.85C45.4868 130.248 45.8308 130.66 46.1688 131.088Z" fill="#FFF3FF"/>
<path d="M67.7068 125.243C67.6308 125.451 67.5628 125.669 67.5048 125.897L65.3928 128.239C65.3928 128.239 55.5848 131.313 50.0808 135.657C49.8968 136.207 49.6428 136.675 49.3408 137.059C47.8108 139.009 45.0148 138.883 43.3108 137.083C42.8568 136.605 42.4808 136.007 42.2268 135.299C37.1828 131.699 31.6828 128.551 25.6848 125.897C25.4588 125.003 25.0848 124.271 24.6328 123.727C24.8008 123.751 34.8048 125.211 43.8528 133.117C43.9448 133.271 44.0368 133.417 44.1268 133.557C45.6928 135.961 47.0988 136.225 48.2948 133.713C53.8308 130.011 59.9668 126.873 67.7068 125.243Z" fill="#73D30D"/>
<path d="M46.168 131.094L48.294 133.712C47.098 136.224 45.692 135.96 44.126 133.556C44.876 131.952 46.168 131.094 46.168 131.094Z" fill="#73D30D"/>
<path d="M80.87 124.713C79.836 124.535 78.536 124.345 77.41 124.277C76.344 122.427 74.266 122.293 72.66 123.915C71.266 121.675 68.722 122.469 67.706 125.243C59.966 126.873 53.83 130.011 48.294 133.713L46.168 131.095C46.168 131.095 49.164 127.931 54.222 124.851C57.606 122.791 61.914 120.769 66.866 119.759C69.57 119.207 72.466 118.957 75.508 119.169C75.508 119.169 78.534 121.365 80.87 124.713Z" fill="#FFF3FF"/>
<path d="M66.8659 119.754C65.5739 120.018 64.3259 120.35 63.1259 120.734C59.7279 121.822 56.7219 123.324 54.2219 124.846L54.0859 124.624L55.7159 122.348L58.1819 118.9L58.2519 118.802L58.6439 117.44C59.8419 118.004 61.2339 118.294 62.0399 118.304C62.1579 118.306 62.2639 118.302 62.3559 118.29C62.7459 118.242 63.2319 117.724 63.7259 116.924C64.3839 116.896 65.1239 116.846 65.9019 116.758C65.9019 116.758 66.5539 118.564 66.8659 119.754Z" fill="#91BBF9"/>
<path d="M66.5826 89.8444L65.1646 94.7725C64.8786 94.4085 64.5166 94.1285 64.1306 93.9125C62.8086 93.1725 61.1826 93.1805 61.1826 93.1805L62.4186 88.8825C63.1366 88.4705 64.5066 88.6205 65.5126 89.0645C65.9826 89.2684 66.3726 89.5384 66.5826 89.8444Z" fill="#D84545"/>
<path d="M66.5819 89.8425L65.1639 94.7705C64.8779 94.4065 64.5159 94.1265 64.1299 93.9105L64.3559 93.4425L65.5119 89.0625C65.9819 89.2665 66.3719 89.5365 66.5819 89.8425Z" fill="#B02A2A"/>
<path d="M65.1647 94.7717L64.6087 96.7057L64.5287 96.9857L64.4527 97.2457L60.3467 96.0817L61.1827 93.1797C61.1827 93.1797 62.8567 93.1717 64.1867 93.9417C64.5527 94.1557 64.8927 94.4257 65.1647 94.7717Z" fill="#C8DFFC"/>
<path d="M65.1645 94.7753L64.6085 96.7093H63.4385L64.1865 93.9453C64.5525 94.1593 64.8925 94.4293 65.1645 94.7753Z" fill="#72B2ED"/>
<path d="M64.4527 97.25L64.3567 97.588L64.0327 98.712L62.3567 104.536L61.5967 107.178C58.2747 107.51 56.7827 108.934 56.6127 109.106C56.6047 109.116 56.5987 109.122 56.5967 109.124L56.6027 109.102L57.6967 105.298L57.8767 104.674L60.3467 96.0859L64.4527 97.25Z" fill="#6EB0FF"/>
<path d="M64.3565 97.5881L64.0325 98.7121L62.3565 104.536L61.5965 107.178C58.2745 107.51 56.7825 108.934 56.6125 109.106C56.6085 109.104 56.6065 109.102 56.6025 109.102L57.6965 105.298L57.8765 105.286C57.8765 105.286 60.1365 106.196 60.8505 104.674C61.5645 103.152 63.3045 97.25 63.3045 97.25C63.3045 97.25 63.7865 97.3961 64.3565 97.5881Z" fill="#2F7CF7"/>
<path d="M55.7159 122.347L54.0859 124.623V121.767C54.0859 121.767 55.1219 121.419 55.7159 122.347Z" fill="#1E1E1E"/>
<path d="M58.6439 117.439L58.2519 118.801L58.1819 118.899C57.4819 117.653 55.8319 118.643 55.8319 118.643C55.2079 117.145 54.0859 117.839 54.0859 117.839L55.2759 113.703C55.5239 114.069 55.8939 114.433 56.3879 114.745C56.3019 115.939 57.3639 116.843 58.6439 117.439Z" fill="#6EB0FF"/>
<path d="M58.1819 118.9L55.7159 122.348C55.1219 121.42 54.0859 121.768 54.0859 121.768V117.84C54.0859 117.84 55.2079 117.146 55.8319 118.644C55.8319 118.644 57.4819 117.654 58.1819 118.9Z" fill="#EA863B"/>
<path d="M72.7328 114.749C70.9088 115.947 68.3668 116.507 66.1368 116.761C65.3588 116.849 64.6188 116.899 63.9608 116.927C65.1968 114.925 66.4788 111.149 66.4208 108.541C66.4068 107.873 66.2688 107.315 66.0528 106.849C65.0928 104.773 62.5908 104.535 62.5908 104.535L64.2668 98.7109C64.2668 98.7109 72.4208 100.837 74.8008 108.115C75.8668 111.373 74.7288 113.441 72.7328 114.749Z" fill="#C8DFFC"/>
<path d="M72.4986 114.749C70.6746 115.947 68.1326 116.507 65.9026 116.761C65.1246 116.849 64.3846 116.899 63.7266 116.927C64.9626 114.925 66.2446 111.149 66.1866 108.541C66.1726 107.873 66.0346 107.315 65.8186 106.849L65.9026 106.695C65.9026 106.695 66.9206 112.365 69.1426 112.803C71.3626 113.241 73.2866 108.115 73.2866 108.115C73.2866 108.115 75.5006 111.417 72.4986 114.749Z" fill="#72B2ED"/>
<path d="M55.8841 111.591C55.8841 111.591 55.6121 109.739 56.5941 109.121C56.5941 109.121 56.5941 109.121 56.5961 109.119C56.6461 109.065 58.1161 107.521 61.5961 107.173L62.3561 104.531C62.3561 104.531 66.1061 104.887 66.1861 108.537C66.2441 111.145 64.9621 114.921 63.7261 116.923C63.2321 117.723 62.7461 118.241 62.3561 118.289C61.6481 118.375 60.0201 118.085 58.6441 117.439C57.3641 116.843 56.3021 115.939 56.3881 114.745C55.8941 114.433 55.5241 114.069 55.2761 113.703C54.6061 112.715 54.8281 111.703 55.8841 111.591Z" fill="#C8DFFC"/>
<path d="M56.3872 112.517C56.3872 112.517 56.9263 114.332 58.5535 114.526C60.1806 114.719 61.1699 114.31 61.1922 114.347C61.2145 114.384 59.6365 115.561 58.4656 115.49C57.2947 115.418 56.0004 114.124 55.9186 114.005C55.8368 113.886 55.3608 111.952 56.3872 112.517Z" fill="#72B2ED"/>
<path d="M57.8764 109.125C57.8764 109.125 57.092 109.81 57.925 111.02C58.7581 112.23 63.1267 111.486 63.1267 111.486C63.1267 111.486 62.0991 112.716 60.2666 112.724C57.5879 112.736 56.7846 111.675 56.8342 110.693C56.8837 109.711 57.8764 109.125 57.8764 109.125Z" fill="#72B2ED"/>
<path d="M57.8763 104.672L56.5963 109.122C56.5943 109.124 56.5943 109.124 56.5943 109.124C56.5943 109.124 55.3843 109.828 55.0483 109.308C54.7143 108.788 55.4063 105.914 57.8763 104.672Z" fill="#72B2ED"/>
<path d="M57.9579 44.3705V44.3725C56.3839 47.7325 54.2439 50.9405 51.8059 53.6845L46.6279 50.2645C48.5139 45.8525 50.3479 41.2345 51.4639 36.1685C51.4639 36.1685 51.4639 36.1685 51.4639 36.1665C52.5839 31.0825 52.9779 25.5465 51.9739 19.3125C62.3339 24.2985 62.3719 34.9385 57.9579 44.3705Z" fill="#FFB3FF"/>
<path d="M57.9588 44.3705C58.4048 41.4245 60.0508 29.8245 56.9828 28.5445C53.5268 27.1005 51.5048 35.9865 51.4648 36.1665C52.5848 31.0825 52.9788 25.5465 51.9748 19.3125C62.3348 24.2985 62.3728 34.9385 57.9588 44.3705Z" fill="#F47CF7"/>
<path d="M24.83 53.5792C23.124 55.1252 21.082 58.1812 21.082 58.1812C20.402 56.9492 19.708 55.7672 18.978 54.6712C18.18 53.4612 17.344 52.3512 16.458 51.3792C17.884 47.9392 19.068 44.5872 19.898 41.3672C20.306 42.0872 20.7 42.8572 21.076 43.6472C23.276 48.2752 24.83 53.5792 24.83 53.5792Z" fill="#FFB3FF"/>
<path d="M18.978 54.6712C18.18 53.4612 17.344 52.3512 16.458 51.3792C17.884 47.9392 19.068 44.5872 19.898 41.3672C20.306 42.0872 20.7 42.8572 21.076 43.6472C21.266 46.5172 20.992 50.5292 18.978 54.6712Z" fill="#F47CF7"/>
<path d="M54.4841 55.3617C60.6001 49.0357 64.2801 42.1558 64.2421 34.4377C64.6881 16.9418 50.3981 14.1857 48.7321 15.2557C47.0661 16.3277 49.5641 21.6437 47.8581 30.7277C46.1521 39.8118 42.8601 49.1737 42.8601 49.1737C33.6181 48.6177 28.8761 51.5137 28.8761 51.5137C27.9641 44.0177 25.5841 33.2277 21.1221 32.8298C16.6581 32.4338 12.4741 36.2017 12.4741 36.2017C0.732112 30.4497 -1.05389 39.3757 2.04011 48.7777C5.13411 58.1797 1.56411 63.0577 6.08611 64.5657C9.25011 65.6217 12.3361 60.4237 13.9041 57.2057C14.5781 55.8238 14.9721 54.8077 14.9721 54.8077C14.9721 54.8077 16.0701 55.6457 17.2341 57.6257C17.6521 58.3337 18.0781 59.1877 18.4641 60.2017C12.2981 81.2497 10.2081 93.8477 19.4101 100.256C20.9161 101.306 22.7261 102.188 24.8721 102.916C24.5561 102.948 24.2461 102.984 23.9441 103.028C13.7781 104.444 11.0081 111.874 13.4581 116.686C13.9481 117.648 14.6461 118.504 15.5341 119.186C15.6121 119.248 15.6941 119.308 15.7761 119.366C16.0461 119.334 16.3461 119.304 16.6681 119.276C17.2981 119.22 18.0201 119.174 18.8201 119.148L16.1661 116.106C17.4481 116.146 18.6941 116.22 19.9021 116.33L19.0281 115.226L17.8281 113.706C18.8481 113.748 19.8501 113.82 20.8321 113.926C21.4461 113.992 22.0521 114.07 22.6501 114.162C24.4881 114.442 26.2501 114.844 27.9341 115.374C28.4421 115.534 28.9441 115.704 29.4381 115.888C30.7001 116.356 31.9141 116.9 33.0801 117.524C33.0801 117.524 33.0801 117.524 33.0801 117.526C37.9941 120.152 42.0561 124.19 45.1361 129.854C45.4861 130.252 45.8301 130.664 46.1681 131.092C46.1681 131.092 49.1641 127.928 54.2221 124.848L54.0861 124.626V117.842L55.2761 113.706C54.6061 112.718 54.8281 111.706 55.8841 111.594C55.8841 111.594 55.8381 111.282 55.8541 110.87C55.8721 110.282 56.0141 109.496 56.5861 109.128C56.4861 109.186 55.3681 109.804 55.0481 109.308C54.7141 108.788 55.4061 105.914 57.8761 104.672L58.6141 102.104L60.3461 96.0837L61.1821 93.1817L61.2441 92.9657L62.4181 88.8837C62.9241 88.5937 63.7561 88.5817 64.5541 88.7577C65.4161 88.9437 66.2401 89.3457 66.5821 89.8457L65.1641 94.7737L64.9621 95.4757L64.5281 96.9877L64.7181 97.0417C74.4661 86.0137 71.1201 72.1337 54.4841 55.3617ZM21.0821 58.1797C20.4021 56.9477 19.7081 55.7657 18.9781 54.6697C18.1801 53.4597 17.3441 52.3497 16.4581 51.3777C17.8841 47.9377 19.0681 44.5857 19.8981 41.3657C20.3061 42.0857 20.7001 42.8557 21.0761 43.6457C23.2761 48.2738 24.8301 53.5778 24.8301 53.5778C23.1241 55.1237 21.0821 58.1797 21.0821 58.1797ZM51.8061 53.6857L46.6281 50.2657C50.4081 41.4277 53.9781 31.7597 51.9741 19.3137C66.0281 26.0757 61.0881 43.2437 51.8061 53.6857Z" fill="#C8DFFC"/>
<path d="M27.9344 115.375C26.2504 114.845 24.4884 114.443 22.6504 114.163C24.6944 112.749 26.0844 110.469 26.0844 110.469C26.0844 110.469 28.2744 112.453 27.9344 115.375Z" fill="#72B2ED"/>
<path d="M13.4588 116.688C13.2368 114.622 13.2908 111.518 14.9148 108.82C14.9148 108.82 14.0428 112.106 15.7508 113.49C15.7508 113.49 15.8208 113.382 15.9328 113.206C16.0908 113.75 16.6348 114.322 17.8288 114.874C18.2328 115.062 18.6348 115.176 19.0288 115.228L19.9028 116.332C18.6948 116.222 17.4488 116.148 16.1668 116.108L18.8208 119.15C18.0208 119.176 17.2988 119.222 16.6688 119.278C16.2568 119.25 15.8748 119.218 15.5348 119.188L13.4588 116.688Z" fill="#72B2ED"/>
<path d="M19.8987 41.3641C19.0687 44.5841 17.8847 47.9361 16.4587 51.3761C17.3447 52.348 18.1807 53.458 18.9787 54.6681C18.5007 55.6521 17.9267 56.642 17.2347 57.6241C16.0707 55.644 14.9727 54.8061 14.9727 54.8061C14.9727 54.8061 14.5787 55.8221 13.9047 57.2041L13.7227 56.9281L20.3587 39.4141C20.3587 39.4141 20.9047 41.0681 21.0767 43.6441C20.7007 42.8541 20.3067 42.0841 19.8987 41.3641Z" fill="#72B2ED"/>
<path d="M10.5103 35.9547C10.5103 35.9547 4.50039 34.5861 4.29211 36.639C4.08383 38.6919 6.68715 41.5711 7.11855 41.3662C7.54995 41.1613 11.241 37.4305 11.241 37.4305C11.241 37.4305 11.864 36.6687 11.8491 36.5497" fill="#72B2ED"/>
<path d="M4.29199 51.8435C4.29199 51.8435 6.22587 56.1873 8.45727 56.5741C10.6887 56.9609 19.525 35.3906 19.525 35.3906C19.525 35.3906 20.5449 41.1648 17.9563 47.5441C15.3678 53.9235 10.6292 63.9823 7.77295 64.4584C4.91675 64.9344 5.57131 60.8584 5.15479 57.7939C4.73827 54.7294 4.29199 51.8435 4.29199 51.8435Z" fill="#72B2ED"/>
<path d="M61.244 92.9642L61.182 93.1801L60.346 96.0821L58.614 102.102C49.06 107.028 31.11 105.33 23.944 103.026C22.832 102.668 21.98 102.296 21.458 101.932C20.786 101.462 20.092 100.902 19.41 100.254C15.494 96.5242 12.022 89.8722 15.744 80.7422C15.592 81.1522 12.56 89.7422 23.274 96.6642C31.488 101.972 51.208 102.666 61.244 92.9642Z" fill="#72B2ED"/>
<path d="M65.1647 94.7741L66.5827 89.8461C66.2407 89.3461 65.4167 88.9441 64.5547 88.7581C66.0707 86.1521 67.0447 83.0541 67.2767 79.4141C67.2767 79.4141 69.9847 86.3761 64.9627 95.4761L65.1647 94.7741Z" fill="#72B2ED"/>
<path d="M63.1261 120.739C59.7281 121.827 56.7221 123.329 54.2221 124.851C49.1641 127.931 46.1681 131.095 46.1681 131.095C45.8301 130.667 45.4861 130.255 45.1361 129.857C42.0561 124.193 37.9941 120.155 33.0801 117.529C33.0801 117.527 33.0801 117.527 33.0801 117.527C37.0261 108.435 47.7641 105.145 55.8541 110.873C55.8381 111.285 55.8841 111.597 55.8841 111.597C54.8281 111.709 54.6061 112.721 55.2761 113.709L54.0861 117.845V124.629L55.7161 122.353L58.1821 118.905L58.2521 118.807L58.6441 117.445C59.8421 118.009 61.2341 118.299 62.0401 118.309C62.4281 119.073 62.7901 119.883 63.1261 120.739Z" fill="#FFF3FF"/>
<path d="M64.1943 96.5785C73.3488 86.3006 69.1807 74.6631 61.7931 64.7971C59.4219 61.6283 56.7668 58.6759 53.9871 55.8564C53.7197 55.5849 53.7194 55.1501 53.9809 54.8769C60.4971 48.1175 64.3552 40.7703 63.444 31.191C63.0517 26.0225 60.6648 20.8598 56.2221 18.0023C54.271 16.75 52.0178 15.7888 49.6895 15.7588C49.4557 15.7787 49.2878 15.7762 49.1201 15.8436C49.1042 15.854 49.1201 15.8377 49.101 15.8568C48.9791 15.9463 48.945 16.0796 48.8945 16.2898C48.8275 16.6209 48.8203 17.0437 48.8346 17.4691C48.9183 19.2337 49.1399 21.0718 49.1714 22.8645C49.3061 26.5183 48.7767 30.1842 47.9556 33.7388C46.7776 39.0481 45.2746 44.254 43.5214 49.4073C43.4175 49.7107 43.1237 49.8943 42.819 49.8738C41.9778 49.8389 41.0286 49.7968 40.1802 49.8139C36.4767 49.8727 32.5639 50.4009 29.2425 52.1128C28.8223 52.3819 28.233 52.0931 28.1827 51.6001C27.8736 49.084 27.457 46.5785 26.8953 44.1147C26.0851 40.8802 24.9938 36.3904 22.4885 34.1644C21.9988 33.7764 21.4878 33.5385 20.9148 33.5243C20.565 33.5072 20.1718 33.4998 19.8238 33.5387C17.8892 33.7022 16.0221 34.5664 14.3929 35.6341C13.8988 35.9618 13.3814 36.3441 12.9427 36.7233C12.7229 36.9177 12.4154 36.9506 12.1663 36.8318C10.0855 35.8497 7.79555 34.9305 5.49199 35.1209C-0.336291 35.8067 1.39283 44.7211 2.70987 48.5715C3.84827 51.9204 4.22391 55.5104 4.21755 59.0235C4.29511 60.4512 4.09051 62.3672 5.25367 63.3521C5.60535 63.639 6.07395 63.8485 6.51151 63.9507C9.19599 64.4529 11.8275 59.6787 12.9067 57.6363C13.4225 56.6324 13.9074 55.5872 14.3207 54.5552C14.4561 54.1907 14.8661 54.0077 15.2273 54.1528C15.7977 54.4955 16.2114 55.0402 16.6396 55.5333C17.5323 56.639 18.2333 57.8756 18.7993 59.172C18.9213 59.5617 19.2549 59.9859 19.1362 60.3999C16.8825 68.7379 14.2706 77.2133 13.9519 85.8586C13.7387 92.7738 15.9935 98.237 22.5201 101.266C24.4401 102.17 26.5407 102.903 28.5173 103.671C28.6532 103.721 28.7207 103.878 28.6636 104.011C28.6191 104.116 28.5125 104.176 28.4048 104.166C27.2969 104.064 26.2035 103.863 25.1233 103.59C19.5914 102.159 14.561 98.2915 13.1538 92.5433C10.6397 83.0219 15.1091 69.3659 17.7924 60.0063C17.7916 60.0039 17.8123 60.4623 17.8093 60.4501C17.0678 58.5756 16.0686 56.7162 14.5483 55.3641L15.6262 55.0609C14.4874 57.8078 13.1621 60.4661 11.266 62.7765C9.96883 64.3597 7.89039 66.0191 5.70427 65.1702C4.51847 64.7731 3.56019 63.882 3.19915 62.688C2.82303 61.4626 2.85295 60.2699 2.81775 59.0461C2.80155 57.8878 2.78067 56.7537 2.69307 55.6255C2.52259 53.3727 2.08927 51.1531 1.37987 49.0086C0.64615 46.7526 0.11695 44.4237 0.0147503 42.0367C-0.12069 38.9491 0.63759 35.2169 3.91799 34.0485C5.70103 33.4209 7.73587 33.7138 9.46407 34.243C10.6174 34.5963 11.7143 35.0635 12.7821 35.5744L12.0059 35.6829C14.2013 33.8535 16.8086 32.4223 19.7062 32.1435C20.1211 32.0941 20.5977 32.1095 21.0093 32.1275C21.8831 32.1534 22.7409 32.5611 23.3637 33.0718C26.2199 35.5459 27.3807 40.2936 28.2598 43.8014C28.8349 46.3248 29.2578 48.8711 29.5724 51.4309L28.5127 50.9181C32.2973 48.9209 36.8545 48.3913 41.0793 48.4102C41.6876 48.4241 42.2951 48.4545 42.903 48.4763L42.2007 48.9427C44.0696 43.4474 45.677 37.8152 46.8691 32.1271C47.1128 30.8798 47.4042 29.4528 47.5397 28.193C47.8557 25.5542 47.8437 22.8911 47.6276 20.2393C47.5527 18.8371 47.2878 17.4598 47.5242 16.0033C47.6083 15.4727 47.9882 14.786 48.5599 14.5607L48.6903 14.5094L48.8096 14.4733C49.8404 14.2215 50.8286 14.4082 51.8266 14.6024C55.5191 15.4514 58.8137 17.6679 61.086 20.6746C64.5217 25.1828 65.284 31.0793 64.8486 36.5823C64.2852 44.0164 60.0592 50.6325 54.9873 55.85L54.9811 54.8705C57.8056 57.7353 60.5007 60.7331 62.9151 63.9597C67.0935 69.6036 70.7567 76.2403 70.8502 83.458C70.9267 88.6651 68.6886 93.6756 65.2433 97.5057C64.6007 98.1733 63.6039 97.2924 64.1943 96.5785Z" fill="#1E1E1E"/>
<path d="M14.3348 54.5226C16.0041 50.5296 17.6784 46.4198 18.9239 42.2793C19.3531 40.8949 19.7604 39.5081 20.2204 38.1171C20.2881 37.9087 20.5129 37.795 20.7209 37.8639C20.8939 37.9211 21.0008 38.0866 20.9918 38.2601C20.9139 39.7514 20.6376 41.2185 20.2775 42.6574C19.1607 46.9526 17.5285 51.1016 15.6113 55.0976C15.2031 55.8939 14.0095 55.3624 14.3348 54.5226Z" fill="#1E1E1E"/>
<path d="M12.9045 36.6207C11.3795 38.0351 9.82096 39.3942 8.14956 40.6349C7.82656 40.8676 7.455 40.4091 7.7526 40.1422C9.26804 38.785 10.6867 37.2978 12.0446 35.7836C12.612 35.1824 13.4916 36.0346 12.9045 36.6207Z" fill="#1E1E1E"/>
<path d="M21.0817 58.7795C21.0731 58.7795 21.0645 58.7793 21.0557 58.7789C20.8463 58.7698 20.6571 58.6522 20.5559 58.4687C18.943 55.537 17.5001 53.4121 16.0149 51.7814C15.7917 51.5364 15.8094 51.157 16.0543 50.9338C16.2995 50.7103 16.6789 50.7284 16.902 50.9734C18.3047 52.5134 19.6619 54.4588 21.1367 57.0493C21.8164 56.0973 23.0159 54.4991 24.1485 53.3959C23.6859 51.8912 21.7643 45.8759 19.3756 41.6616C19.2123 41.3733 19.3135 41.0071 19.6018 40.8437C19.8907 40.6804 20.2563 40.7816 20.4197 41.0698C23.2244 46.0182 25.3186 53.1096 25.4063 53.409C25.4709 53.6296 25.4039 53.8678 25.2336 54.0222C23.6029 55.501 21.6004 58.4831 21.5803 58.5131C21.4688 58.68 21.2815 58.7795 21.0817 58.7795Z" fill="#1E1E1E"/>
<path d="M51.8059 54.2838C51.6917 54.2838 51.5766 54.2512 51.4752 54.1844L46.2985 50.7629C46.0567 50.603 45.9637 50.293 46.0776 50.0264C49.8395 41.2288 53.3479 31.6177 51.3817 19.4064C51.3462 19.1858 51.4362 18.9637 51.6153 18.83C51.7948 18.6963 52.0333 18.6734 52.2343 18.7703C57.0862 21.1051 60.0378 24.7409 61.0071 29.5769C62.4636 36.8433 59.028 46.4623 52.2546 54.0824C52.137 54.2146 51.9723 54.2838 51.8059 54.2838ZM47.3774 50.0374L51.7002 52.8946C58.0055 45.6121 61.1911 36.601 59.8303 29.8126C59.009 25.7148 56.6255 22.5471 52.7395 20.3826C54.3317 32.1443 51.0134 41.4836 47.3774 50.0374Z" fill="#1E1E1E"/>
<path d="M39.3786 104.817C41.8248 104.662 44.2601 104.477 46.669 104.041C47.7772 103.863 48.832 103.593 49.9497 103.358C50.1443 103.306 50.2659 103.582 50.092 103.688C47.7292 105.186 44.8454 105.722 42.0778 105.625C41.1508 105.579 40.2308 105.47 39.3261 105.204C39.1145 105.143 39.1556 104.818 39.3786 104.817Z" fill="#1E1E1E"/>
<path d="M56.5952 109.726C56.4417 109.726 56.2882 109.667 56.1714 109.55C56.0014 109.38 55.9542 109.134 56.0305 108.922L61.8418 88.7211C61.8848 88.5713 61.9846 88.4441 62.1198 88.3666C63.4073 87.6275 66.2332 88.2793 67.0772 89.5095C67.1786 89.6574 67.2086 89.8428 67.159 90.0148L62.1731 107.345C62.0815 107.663 61.7497 107.848 61.4308 107.756C61.1122 107.664 60.9284 107.332 61.02 107.013L65.9153 89.9976C65.2778 89.4321 63.7104 89.0751 62.9177 89.3218L57.1732 109.291C57.1452 109.388 57.0927 109.477 57.0208 109.549C56.9034 109.667 56.7493 109.726 56.5952 109.726Z" fill="#1E1E1E"/>
<path d="M54.0863 125.222C54.0252 125.222 53.9635 125.213 53.9029 125.193C53.6547 125.114 53.4863 124.883 53.4863 124.622V117.838C53.4863 117.782 53.4941 117.726 53.5098 117.672L54.6996 113.536C54.791 113.218 55.124 113.033 55.442 113.125C55.7605 113.217 55.9443 113.549 55.8527 113.868L54.6863 117.922V122.753L57.7043 118.535L58.0678 117.272C58.1592 116.954 58.491 116.769 58.8103 116.861C59.1287 116.953 59.3125 117.285 59.2209 117.604L58.8289 118.966C58.81 119.032 58.78 119.094 58.7402 119.149L54.5742 124.971C54.4594 125.132 54.2762 125.222 54.0863 125.222Z" fill="#1E1E1E"/>
<path d="M58.1827 119.499C57.9727 119.499 57.769 119.388 57.6588 119.192C57.5665 119.027 57.4571 118.936 57.3047 118.895C56.9014 118.785 56.3131 119.055 56.1385 119.158C55.9891 119.246 55.8075 119.266 55.6434 119.211C55.4788 119.156 55.345 119.034 55.2782 118.874C55.1858 118.652 55.0303 118.373 54.8145 118.299C54.6141 118.231 54.3963 118.353 54.394 118.354C54.1125 118.529 53.7467 118.439 53.5723 118.158C53.3977 117.876 53.4889 117.504 53.7705 117.329C53.8387 117.287 54.4557 116.923 55.1748 117.154C55.5377 117.271 55.8443 117.509 56.0907 117.863C56.4955 117.715 57.0606 117.589 57.6102 117.734C58.0764 117.858 58.4549 118.159 58.7053 118.605C58.8674 118.894 58.7647 119.259 58.4758 119.422C58.3829 119.474 58.2821 119.499 58.1827 119.499Z" fill="#1E1E1E"/>
<path d="M55.7164 122.749C55.5844 122.749 55.4553 122.684 55.3789 122.565C54.9732 121.93 54.2883 122.126 54.2115 122.15C54.0016 122.217 53.7768 122.102 53.7086 121.894C53.6402 121.685 53.7516 121.461 53.9598 121.391C54.4199 121.236 55.451 121.192 56.0531 122.134C56.172 122.32 56.1176 122.568 55.9314 122.686C55.8647 122.729 55.7901 122.749 55.7164 122.749Z" fill="#1E1E1E"/>
<path d="M62.0941 118.901C60.7867 118.901 58.1503 118.245 56.7449 116.906C56.1673 116.356 55.8417 115.725 55.7904 115.063C54.6992 114.267 54.1224 113.153 54.3406 112.214C54.4562 111.716 54.7824 111.338 55.2486 111.138C55.2417 110.847 55.2573 110.471 55.34 110.09C55.0167 110.062 54.7345 109.924 54.5443 109.628C54.2617 109.189 54.3732 108.471 54.5167 107.946C54.6849 107.331 55.4046 105.239 57.6062 104.133C57.9015 103.984 58.2628 104.103 58.4117 104.399C58.5605 104.695 58.4409 105.056 58.1449 105.205C56.2123 106.176 55.5839 108.245 55.5679 108.888C55.7525 108.855 56.056 108.738 56.2943 108.6C56.5781 108.436 56.9398 108.53 57.1085 108.81C57.2775 109.09 57.1915 109.453 56.9147 109.627C56.4222 109.937 56.4079 111.024 56.478 111.502C56.5019 111.664 56.4587 111.828 56.3587 111.957C56.2589 112.086 56.1107 112.169 55.9483 112.186C55.5694 112.227 55.5259 112.415 55.5093 112.485C55.4116 112.906 55.7987 113.662 56.7081 114.237C56.8952 114.355 57.0021 114.566 56.9862 114.787C56.9548 115.223 57.1466 115.632 57.5725 116.038C58.8403 117.245 61.5032 117.786 62.2852 117.692C63.1057 117.491 65.6686 112.336 65.5864 108.549C65.5198 105.489 62.4301 105.141 62.2987 105.127C61.9698 105.094 61.7288 104.801 61.7612 104.471C61.7934 104.142 62.0869 103.899 62.4139 103.933C63.8946 104.073 66.7139 105.213 66.786 108.522C66.8239 110.266 66.2947 112.667 65.3703 114.944C64.7991 116.351 63.6571 118.735 62.4293 118.883C62.3312 118.895 62.2187 118.901 62.0941 118.901Z" fill="#1E1E1E"/>
<path d="M56.5959 109.722C56.4497 109.722 56.3034 109.67 56.1883 109.562C55.9469 109.338 55.9303 108.962 56.153 108.72C56.2364 108.629 58.2356 106.508 63.0266 106.508C63.0612 106.508 63.0956 106.508 63.1307 106.508C63.462 106.51 63.729 106.781 63.7268 107.112C63.7247 107.442 63.4565 107.708 63.1268 107.708C63.0985 107.707 63.061 107.708 63.0282 107.708C58.8061 107.708 57.0522 109.515 57.0348 109.533C56.9164 109.659 56.7563 109.722 56.5959 109.722Z" fill="#1E1E1E"/>
<path d="M56.3402 111.387C56.9697 112.347 58.6095 112.475 59.6935 112.451C60.0918 112.441 60.6556 112.384 61.0562 112.335C61.2048 112.311 61.3457 112.416 61.3618 112.567C61.3769 112.703 61.2834 112.828 61.1508 112.854L60.4504 112.992C59.735 113.112 59.0094 113.185 58.2814 113.144C57.2479 113.079 56.0037 112.769 55.4288 111.798C55.1732 111.191 56.0529 110.792 56.3402 111.387Z" fill="#1E1E1E"/>
<path d="M56.6513 114.322C57.7355 115.019 59.1856 115.546 60.4315 114.975C60.7319 114.847 60.9505 115.277 60.6694 115.444C59.452 116.178 57.9228 115.937 56.6696 115.426C56.4858 115.35 56.3192 115.277 56.124 115.172C55.5194 114.819 56.0654 113.937 56.6513 114.322Z" fill="#1E1E1E"/>
<path d="M65.1652 95.3709C64.9875 95.3709 64.8117 95.2924 64.6934 95.142C63.6242 93.7836 61.1846 93.7778 61.1846 93.7781C61.1842 93.7781 61.1838 93.7781 61.1834 93.7781C60.8529 93.7781 60.5842 93.5107 60.583 93.1803C60.5819 92.8492 60.8484 92.5799 61.1793 92.5781C61.3057 92.5814 64.2074 92.5842 65.6363 94.3998C65.8412 94.6602 65.7963 95.0375 65.5359 95.2424C65.426 95.3289 65.2951 95.3709 65.1652 95.3709Z" fill="#1E1E1E"/>
<path d="M64.4532 97.8492C64.3989 97.8492 64.3438 97.8417 64.2891 97.8261L60.1835 96.6619C59.8647 96.5717 59.6796 96.2398 59.77 95.9211C59.8604 95.6021 60.1923 95.4164 60.5108 95.5076L64.6165 96.6718C64.9353 96.7621 65.1204 97.0939 65.03 97.4127C64.9551 97.6767 64.7147 97.8492 64.4532 97.8492Z" fill="#1E1E1E"/>
<path d="M63.7555 117.625L63.6973 116.226C66.5769 116.107 71.6881 115.502 73.5645 112.798C74.3863 111.613 74.4965 110.152 73.901 108.331C71.6715 101.514 63.9326 99.4063 63.8547 99.3857L64.2088 98.0312C64.5569 98.1221 72.7612 100.342 75.2315 107.896C75.9623 110.131 75.7885 112.048 74.7147 113.596C72.6043 116.638 67.5902 117.466 63.7555 117.625Z" fill="#1E1E1E"/>
<path d="M62.9998 103.848C63.6224 103.802 64.5013 103.77 65.1307 103.745C65.8383 103.721 66.5454 103.707 67.2515 103.703C67.3731 103.702 67.4723 103.8 67.473 103.922C67.4737 104.026 67.4009 104.114 67.3034 104.138C66.3176 104.371 65.2339 104.658 64.2539 104.932C63.919 105.027 63.5801 105.125 63.2543 105.225C62.2467 105.479 61.9662 103.972 62.9998 103.848Z" fill="#1E1E1E"/>
<path d="M70.2742 142.62C67.6932 142.621 65.2594 141.19 64.0711 139.932C59.2824 138.712 54.4344 137.986 49.6514 137.772C48.8658 138.624 47.8119 139.118 46.6467 139.172C45.2363 139.238 43.8316 138.651 42.8018 137.563L43.8186 136.601C44.568 137.393 45.5717 137.817 46.5818 137.773C47.4568 137.733 48.2408 137.325 48.7895 136.626C48.79 136.625 48.7906 136.625 48.791 136.624C49.0537 136.29 49.2643 135.889 49.4164 135.434C49.4596 135.305 49.5397 135.191 49.6467 135.107C54.8377 131.01 63.5809 128.087 64.9991 127.629L66.8712 125.553C67.425 123.558 68.6885 122.183 70.1983 121.948C71.1545 121.799 72.059 122.142 72.7645 122.899C73.7864 122.145 74.9639 121.897 76.0268 122.238C77.2948 122.645 78.2174 123.805 78.6067 125.455C79.4329 125.664 80.1938 126.28 80.6407 127.133C81.0872 127.985 81.5811 129.789 79.9126 132.328C79.6066 133.121 77.1513 139.275 73.8901 141.51C72.7283 142.305 71.485 142.62 70.2742 142.62ZM50.5353 136.415C55.2152 136.68 59.9486 137.424 64.623 138.628C64.7603 138.664 64.8839 138.74 64.9769 138.848C66.2767 140.345 70.1148 142.398 73.0988 140.355C76.1535 138.262 78.6068 131.824 78.6312 131.759C78.6502 131.709 78.6746 131.662 78.7043 131.617C80.0238 129.644 79.7068 128.367 79.4004 127.782C79.0435 127.101 78.4267 126.783 78.0045 126.776C77.6652 126.771 77.3789 126.522 77.325 126.187C77.1031 124.806 76.474 123.852 75.5988 123.571C74.8215 123.321 73.9311 123.626 73.1576 124.407C73.0068 124.559 72.7951 124.634 72.5818 124.61C72.3692 124.586 72.1789 124.466 72.0658 124.284C71.7528 123.781 71.2119 123.207 70.4135 123.332C69.4402 123.483 68.5648 124.557 68.183 126.068C68.1551 126.178 68.1006 126.28 68.0242 126.365L65.9121 128.707C65.8281 128.8 65.7209 128.869 65.6016 128.906C65.5057 128.936 56.0389 131.934 50.6717 136.082C50.6293 136.196 50.5838 136.307 50.5353 136.415Z" fill="#1E1E1E"/>
<path d="M22.9135 142.621C21.7026 142.621 20.4604 142.305 19.2989 141.51C16.036 139.275 13.5825 133.122 13.2764 132.328C11.6073 129.788 12.1012 127.984 12.5477 127.132C12.9942 126.279 13.7545 125.664 14.5801 125.455C14.9694 123.805 15.8925 122.645 17.1612 122.238C18.2243 121.897 19.4014 122.145 20.4225 122.899C21.1289 122.142 22.0333 121.799 22.9897 121.948C24.4575 122.177 25.6932 123.484 26.2704 125.391C32.0839 127.987 37.5872 131.127 42.6331 134.729C42.7491 134.811 42.8372 134.928 42.8852 135.062C43.0983 135.655 43.412 136.173 43.818 136.6C44.0065 136.799 44.062 137.089 43.96 137.343C43.8579 137.597 43.6171 137.769 43.3436 137.781C38.6282 138.005 33.8423 138.728 29.1157 139.932C27.9274 141.189 25.4932 142.62 22.9135 142.621ZM18.1383 123.486C17.951 123.486 17.7671 123.514 17.5887 123.571C16.713 123.852 16.0835 124.806 15.8618 126.187C15.8079 126.522 15.5215 126.771 15.1823 126.776C14.7606 126.783 14.1444 127.101 13.788 127.781C13.4816 128.366 13.1646 129.643 14.4847 131.617C14.5142 131.662 14.5387 131.709 14.5577 131.759C14.5821 131.824 17.0374 138.264 20.0901 140.355C23.0724 142.399 26.9103 140.346 28.2099 138.848C28.303 138.74 28.4265 138.664 28.564 138.628C33.0187 137.481 37.5277 136.751 41.9868 136.456C41.8597 136.23 41.7464 135.993 41.6474 135.745C36.6382 132.188 31.1734 129.09 25.4013 126.537C25.2046 126.449 25.0587 126.277 25.006 126.068C24.6232 124.557 23.7472 123.483 22.7743 123.332C21.9753 123.208 21.4343 123.781 21.1206 124.284C21.0073 124.466 20.8171 124.586 20.6044 124.61C20.3898 124.634 20.1794 124.559 20.0288 124.406C19.4335 123.805 18.7684 123.486 18.1383 123.486Z" fill="#1E1E1E"/>
<path d="M8.60632 128.482C8.4856 128.482 8.36532 128.451 8.25828 128.389C8.08192 128.288 7.95808 128.115 7.91924 127.916L7.47296 125.625C7.4046 125.274 7.61184 124.928 7.95344 124.822C8.1628 124.757 13.1148 123.236 16.1173 123.023L16.2162 124.42C13.964 124.579 10.3826 125.569 8.96868 125.981L9.14192 126.87C11.4738 126.148 14.8652 125.421 15.0247 125.387L15.3169 126.756C15.2742 126.765 11.0161 127.678 8.8382 128.442C8.76276 128.469 8.68444 128.482 8.60632 128.482Z" fill="#1E1E1E"/>
<path d="M46.4365 136.179C45.4009 136.179 44.3765 135.325 43.3099 133.57C34.483 125.901 24.631 124.432 24.5322 124.418L24.7271 123.031C25.1479 123.09 35.1379 124.57 44.3133 132.588C44.3685 132.636 44.4158 132.693 44.4535 132.756C45.5648 134.615 46.2223 134.786 46.4595 134.779C46.8179 134.762 47.2568 134.263 47.6639 133.409C47.7179 133.295 47.8017 133.198 47.9064 133.128C54.5049 128.714 60.7506 125.99 67.5621 124.556L67.8508 125.926C61.2733 127.311 55.2283 129.938 48.841 134.188C48.1869 135.483 47.4281 136.135 46.5252 136.177C46.4957 136.179 46.4662 136.179 46.4365 136.179Z" fill="#1E1E1E"/>
<path d="M82.1539 127.58C82.1269 127.58 82.0996 127.579 82.0722 127.576L79.1691 127.237L79.3316 125.846L81.6695 126.119L81.8422 125.601C80.8045 125.402 78.907 125.069 77.3691 124.975L77.4543 123.578C79.7895 123.721 82.7779 124.359 82.9041 124.386C83.0986 124.428 83.2662 124.551 83.3649 124.724C83.4635 124.897 83.4838 125.103 83.4209 125.292L82.8176 127.102C82.7215 127.39 82.4519 127.58 82.1539 127.58Z" fill="#1E1E1E"/>
<path d="M44.7603 133.846L43.492 133.253C43.9854 132.198 44.6871 131.435 45.1834 130.984C38.9781 123.49 30.9723 120.97 25.2879 120.183C19.764 119.418 15.3492 120.092 14.2896 120.282L10.1816 125.495L9.08203 124.629L13.352 119.21C13.4531 119.081 13.5961 118.992 13.7561 118.958C13.9641 118.914 18.918 117.887 25.4799 118.796C31.5524 119.637 40.1658 122.377 46.7164 130.653C46.8379 130.807 46.8897 131.004 46.859 131.197C46.8282 131.391 46.718 131.563 46.5549 131.671C46.5455 131.677 45.4119 132.452 44.7603 133.846Z" fill="#1E1E1E"/>
<path d="M47.7522 134.15L45.6246 131.531C45.4029 131.259 45.4178 130.864 45.6594 130.609C45.7887 130.472 48.8861 127.228 54.1262 124.086C58.9729 121.18 66.6258 117.845 75.557 118.466C75.6879 118.475 75.8135 118.521 75.9197 118.598C76.0471 118.69 79.0693 120.902 81.4441 124.307L80.2957 125.108C78.3572 122.329 75.8924 120.341 75.2537 119.849C66.7914 119.322 59.5119 122.495 54.8824 125.265C50.8906 127.653 48.1289 130.157 47.1102 131.14L48.8385 133.267L47.7522 134.15Z" fill="#1E1E1E"/>
<path d="M44.61 130.144C39.2826 120.353 30.9365 115.187 19.1238 114.38L20.373 115.962L19.4312 116.706L17.3586 114.081C17.2135 113.897 17.1885 113.645 17.2949 113.437C17.4015 113.228 17.6205 113.105 17.8537 113.11C24.1031 113.362 29.5715 114.808 34.1068 117.409C38.8711 120.141 42.7595 124.233 45.6639 129.57L44.61 130.144Z" fill="#1E1E1E"/>
<path d="M38.433 124.806C34.25 119.911 27.4057 117.274 17.5361 116.765L19.2729 118.754L18.3689 119.543L15.7145 116.502C15.5574 116.323 15.5221 116.067 15.624 115.851C15.726 115.635 15.9461 115.501 16.1849 115.508C27.1611 115.847 34.7369 118.633 39.3451 124.026L38.433 124.806Z" fill="#1E1E1E"/>
<path d="M15.4271 119.858C11.5554 117.161 10.9957 111.703 13.6117 107.943C15.4501 105.203 18.5231 103.547 21.6571 102.771C22.6931 102.493 23.7505 102.349 24.8053 102.219L24.9431 103.612C23.9488 103.729 22.952 103.855 21.9891 104.107C19.1605 104.78 16.3399 106.251 14.6919 108.676C13.0447 111.03 12.7347 114.294 14.2235 116.786C14.707 117.6 15.3563 118.313 16.1259 118.87L15.4271 119.858Z" fill="#1E1E1E"/>
<path d="M28.8414 115.958C28.3338 113.055 26.9587 108.904 23.4469 108.858C21.0248 108.794 18.5733 110.188 17.0375 112.066C16.5844 112.646 16.0647 113.419 16.1125 114.144C16.1481 114.34 16.0103 114.53 15.8105 114.55C15.6349 114.568 15.4764 114.451 15.4396 114.282C15.2494 113.224 15.7673 112.338 16.3036 111.521C18.1316 108.949 21.3772 107.179 24.5714 107.747C28.1393 108.533 29.5797 112.591 30.0332 115.818C30.1039 116.605 28.9564 116.743 28.8414 115.958Z" fill="#1E1E1E"/>
<path d="M24.9628 114.84C24.6261 113.848 23.8464 113.001 23.1057 112.265C22.8653 112.038 23.177 111.664 23.4427 111.859C23.9084 112.202 24.3913 112.593 24.7961 113.007C25.2344 113.459 25.6635 113.951 25.9172 114.542C26.098 115.175 25.1761 115.465 24.9628 114.84Z" fill="#1E1E1E"/>
<path d="M20.4482 114.246L19.4416 112.676C19.2733 112.418 19.6251 112.128 19.8459 112.337L21.2149 113.604C21.7427 114.137 20.8809 114.86 20.4482 114.246Z" fill="#1E1E1E"/>
<path d="M28.359 113.735L28.3115 107.491C28.3194 106.965 29.0902 106.944 29.1247 107.471C29.1254 107.474 29.5578 113.686 29.5582 113.689C29.5873 114.505 28.394 114.554 28.359 113.735Z" fill="#1E1E1E"/>
<path d="M66.1893 119.934C65.8897 118.789 65.2506 117.017 65.2441 116.999L66.5609 116.523C66.5879 116.598 67.2279 118.372 67.5435 119.58L66.1893 119.934Z" fill="#1E1E1E"/>
<path d="M26.2604 125.498L28.7512 129.627C29.0042 130.056 28.4008 130.472 28.0908 130.083L25.1086 126.293C24.5313 125.498 25.7185 124.675 26.2604 125.498Z" fill="#1E1E1E"/>
<path d="M66.0225 128.543C65.3367 129.769 64.7005 131.058 64.2101 132.376C64.0351 132.838 63.3377 132.633 63.4399 132.151C63.7627 130.702 64.2237 129.315 64.7621 127.933C65.1662 127.027 66.4823 127.661 66.0225 128.543Z" fill="#1E1E1E"/>
<path d="M46.4527 97.0428C46.4467 97.0968 46.3347 98.1248 45.9687 99.0708C45.6627 99.8628 45.1767 100.595 44.4287 100.645C43.6107 100.697 42.8867 100.013 42.3587 99.2988C41.8087 98.5548 41.4727 97.7828 41.4727 97.7828C41.4727 97.7828 41.4727 97.7828 41.4727 97.7808C42.5027 97.8188 43.5507 97.2648 43.6947 96.1328C44.1727 97.2428 45.4427 97.4508 46.4527 97.0428Z" fill="#1E1E1E"/>
<path d="M45.9684 99.0713C45.6624 99.8633 45.1764 100.595 44.4284 100.645C43.6104 100.697 42.8864 100.013 42.3584 99.2993C42.8964 98.9213 43.5924 98.6953 44.3524 98.6953C44.9464 98.6954 45.4984 98.8333 45.9684 99.0713Z" fill="#F978BB"/>
<path d="M32.15 92.3087C34.5463 91.9233 36.0838 89.0927 35.5842 85.9865C35.0846 82.8802 32.737 80.6745 30.3407 81.06C27.9445 81.4454 26.407 84.2759 26.9066 87.3822C27.4062 90.4884 29.7538 92.6941 32.15 92.3087Z" fill="#1E1E1E"/>
<path d="M33.9232 86.7684C34.5098 86.4744 34.623 85.5129 34.176 84.6209C33.729 83.7289 32.891 83.244 32.3044 83.538C31.7178 83.832 31.6046 84.7934 32.0516 85.6855C32.4986 86.5775 33.3365 87.0623 33.9232 86.7684Z" fill="#F2F2F2"/>
<g opacity="0.41">
<path d="M33.3167 89.4645C33.8892 89.3725 34.2942 88.9309 34.2214 88.4783C34.1486 88.0257 33.6256 87.7334 33.0531 87.8255C32.4807 87.9175 32.0756 88.3591 32.1484 88.8117C32.2212 89.2643 32.7443 89.5566 33.3167 89.4645Z" fill="#F2F2F2"/>
</g>
<path d="M24.9596 76.5124C25.8223 74.4701 28.0509 73.0686 30.265 73.1103C30.9977 73.1146 31.7128 73.2451 32.3677 73.518C32.6079 73.6181 32.7213 73.8938 32.6213 74.134C32.5543 74.2946 32.4094 74.398 32.2483 74.4199C31.6034 74.5246 30.9997 74.6094 30.4271 74.7432C28.6665 75.1026 27.2835 76.0517 25.9308 77.2173C25.4443 77.6452 24.7035 77.0999 24.9596 76.5124Z" fill="#1E1E1E"/>
<path d="M53.2544 89.7879C55.6739 89.5981 57.4359 86.9016 57.1899 83.7652C56.9438 80.6287 54.7829 78.24 52.3634 78.4298C49.9439 78.6196 48.1819 81.316 48.4279 84.4525C48.6739 87.589 50.8348 89.9777 53.2544 89.7879Z" fill="#1E1E1E"/>
<path d="M51.791 83.3285C52.0153 82.3562 51.6788 81.4484 51.0394 81.3009C50.4 81.1534 49.6998 81.822 49.4755 82.7943C49.2512 83.7665 49.5877 84.6743 50.2271 84.8218C50.8665 84.9693 51.5667 84.3007 51.791 83.3285Z" fill="#F2F2F2"/>
<g opacity="0.41">
<path d="M51.4508 87.2995C52.0288 87.2541 52.4683 86.8469 52.4325 86.3899C52.3966 85.9329 51.899 85.5991 51.321 85.6445C50.743 85.6898 50.3035 86.097 50.3393 86.5541C50.3752 87.0111 50.8728 87.3448 51.4508 87.2995Z" fill="#F2F2F2"/>
</g>
<path d="M52.1486 71.4257C51.819 73.9085 49.1291 75.276 46.8351 74.5811C46.2748 74.417 45.7183 74.1313 45.3166 73.6804C45.0778 73.4172 44.7202 72.824 45.2234 72.6283C45.3876 72.5697 45.5415 72.6411 45.6579 72.7487C46.5216 73.3544 47.754 73.3215 48.7351 73.0826C49.8214 72.812 50.6252 72.0564 51.1854 71.1064C51.4617 70.6124 52.2267 70.8699 52.1486 71.4257Z" fill="#1E1E1E"/>
<path d="M40.6903 91.9817C42.1216 91.2407 43.6269 90.965 45.2005 91.1196C45.6168 91.1605 45.8828 91.5793 45.7355 91.9707C45.4665 92.6851 44.9024 93.756 43.794 94.4587C43.661 94.543 43.4993 94.5671 43.3452 94.535C42.8273 94.4272 41.5945 94.0706 40.53 92.9927C40.2278 92.6867 40.3084 92.1794 40.6903 91.9817Z" fill="#1E1E1E"/>
<path d="M39.6597 95.1404C39.6085 95.6836 39.6835 96.2109 39.9589 96.5822C40.6147 97.4952 42.2864 97.531 42.9579 96.635C43.0814 96.474 43.1558 96.2821 43.1977 96.0674C43.2345 95.7931 43.4866 95.6006 43.7608 95.6374C43.9422 95.6613 44.082 95.7782 44.1548 95.9325C44.5365 96.7123 45.4892 96.8625 46.2684 96.5843L45.9605 97.0406C45.9524 96.8334 46.0815 96.6454 46.2696 96.5818C47.409 96.2013 47.7689 95.1121 47.3075 94.0462C47.2195 93.8055 47.5541 93.6349 47.698 93.8448C48.6714 95.1796 48.1352 96.8508 46.6357 97.4953L46.9447 97.0386C46.9685 97.578 46.1159 97.6749 45.7113 97.7415C44.7059 97.874 43.5845 97.3157 43.2345 96.3287C43.2345 96.3289 44.1918 96.1936 44.1915 96.194C43.9744 98.5957 40.333 98.9901 39.294 96.9779C38.9724 96.3713 38.9892 95.6563 39.1975 95.0368C39.2369 94.9116 39.3702 94.8421 39.4954 94.8815C39.6081 94.9167 39.6748 95.0281 39.6597 95.1404Z" fill="#1E1E1E"/>
<path d="M44.3359 101.048C42.507 101.048 41.2458 98.2663 41.1054 97.9426C41.0175 97.7401 41.1105 97.5047 41.313 97.4167C41.5144 97.329 41.7509 97.4216 41.8392 97.6239C42.1677 98.3782 43.2761 100.32 44.4015 100.245C45.4835 100.175 45.9702 97.819 46.0554 96.9993C46.078 96.7798 46.2712 96.6206 46.4944 96.6427C46.714 96.6655 46.8738 96.8618 46.8511 97.0814C46.8108 97.4736 46.4009 100.916 44.4538 101.044C44.4144 101.046 44.375 101.048 44.3359 101.048Z" fill="#1E1E1E"/>
<path d="M23.0659 130.309C21.6038 129.879 20.0305 130.488 19.1629 131.741C18.5213 132.668 18.07 134.125 18.7455 136.287C20.134 140.73 26.4216 138.647 26.5207 135.097C26.5896 132.631 24.8889 130.845 23.0659 130.309Z" fill="#1E1E1E"/>
<path d="M19.8619 126.896C20.0324 126.173 19.5852 125.45 18.8629 125.279C18.1406 125.109 17.4169 125.556 17.2463 126.278C17.0758 127 17.523 127.724 18.2453 127.895C18.9676 128.065 19.6913 127.618 19.8619 126.896Z" fill="#1E1E1E"/>
<path d="M22.6441 127.362C23.2986 127.362 23.8292 126.832 23.8292 126.177C23.8292 125.523 23.2986 124.992 22.6441 124.992C21.9896 124.992 21.459 125.523 21.459 126.177C21.459 126.832 21.9896 127.362 22.6441 127.362Z" fill="#1E1E1E"/>
<path d="M15.7766 130.673C16.4558 130.673 17.0064 130.087 17.0064 129.364C17.0064 128.641 16.4558 128.055 15.7766 128.055C15.0975 128.055 14.5469 128.641 14.5469 129.364C14.5469 130.087 15.0975 130.673 15.7766 130.673Z" fill="#1E1E1E"/>
<path d="M70.1218 130.309C71.584 129.879 73.1573 130.488 74.0248 131.741C74.6664 132.668 75.1178 134.125 74.4423 136.287C73.0538 140.73 66.7662 138.647 66.6671 135.097C66.5982 132.631 68.2989 130.845 70.1218 130.309Z" fill="#1E1E1E"/>
<path d="M75.5782 127.536C76.1029 127.011 76.1029 126.161 75.5781 125.636C75.0534 125.111 74.2025 125.111 73.6777 125.636C73.153 126.161 73.153 127.011 73.6777 127.536C74.2025 128.061 75.0534 128.061 75.5782 127.536Z" fill="#1E1E1E"/>
<path d="M70.5435 127.362C71.198 127.362 71.7286 126.832 71.7286 126.177C71.7286 125.523 71.198 124.992 70.5435 124.992C69.889 124.992 69.3584 125.523 69.3584 126.177C69.3584 126.832 69.889 127.362 70.5435 127.362Z" fill="#1E1E1E"/>
<path d="M77.4114 130.673C78.0906 130.673 78.6412 130.087 78.6412 129.364C78.6412 128.641 78.0906 128.055 77.4114 128.055C76.7322 128.055 76.1816 128.641 76.1816 129.364C76.1816 130.087 76.7322 130.673 77.4114 130.673Z" fill="#1E1E1E"/>
</svg>
