<svg width="188" height="191" viewBox="0 0 188 191" fill="none" xmlns="http://www.w3.org/2000/svg">
<path opacity="0.1" d="M177.758 -26.5941C198.846 15.0954 181.032 50.1946 153.968 69.5415C127.148 88.714 82.0673 82.283 49.1589 42.9387C57.6936 54.0378 75.0716 97.5023 52.0873 130.228C28.2655 164.146 -4.11861 165.482 -30.8864 155.2C-72.887 139.067 -102.492 106.128 -126.212 76.1484C-120.213 102.306 -115.915 143.63 -141.026 171.973C-166.137 200.315 -214.17 200.538 -247.505 143.429C-280.84 86.3196 -321.934 -42.0674 -229.336 -81.4787C-192.205 -97.2822 -152.749 -74.995 -132.415 -59.8832C-123.613 -53.3413 -98.3235 -33.0248 -68.141 0.468588C-100.462 -43.1717 -136.896 -123.38 -95.1187 -166.635C-11.5639 -253.144 140.027 -101.187 177.758 -26.5941Z" fill="#7DADFE"/>
</svg>
