<svg width="120" height="158" viewBox="0 0 120 158" fill="none" xmlns="http://www.w3.org/2000/svg">
<g opacity="0.2">
<path d="M58.1715 157.094C79.1021 157.094 96.0693 154.662 96.0693 151.662C96.0693 149.616 88.1805 147.835 76.5249 146.908C76.553 147.376 76.5655 147.846 76.5555 148.324C76.5324 149.412 76.3737 150.699 75.7124 151.662C74.6644 153.465 72.5151 153.895 70.6319 153.895C70.6145 153.895 70.597 153.895 70.5796 153.895C69.7994 153.898 68.7147 153.898 67.5611 153.898C67.048 153.898 66.5218 153.898 66.0017 153.898C65.472 153.898 64.9493 153.898 64.4545 153.898C63.6726 153.898 62.9597 153.898 62.4021 153.899C62.2808 153.902 62.163 153.904 62.046 153.904C56.695 153.904 55.4349 150.661 56.0545 146.238C55.7918 146.24 55.5318 146.243 55.2717 146.246C55.2429 146.959 55.1897 147.578 55.1068 148.077C54.468 151.916 51.7541 153.946 47.2583 153.946H37.1401C35.3328 153.946 33.9637 153.382 33.0701 152.27C31.9627 150.891 31.8842 148.958 32.1547 147.712C24.8385 148.702 20.2737 150.105 20.2737 151.662C20.2737 154.662 37.2413 157.094 58.1715 157.094Z" fill="#1E1E1E"/>
</g>
<path d="M3.011 81.8817C3.35669 82.4504 3.75319 83.0176 4.1995 83.5843C10.0235 90.9811 28.1509 101.594 47.5725 98.0193C48.8626 97.7825 50.1577 97.4812 51.4568 97.1142L53.4961 77.7499C27.2145 81.7766 20.2379 71.6739 15.4231 68.9103C11.0147 65.9754 6.39122 66.8481 3.44934 69.7163C0.617054 72.4808 0.128899 77.1661 3.011 81.8817Z" fill="#FFAD40"/>
<path d="M53.4961 77.7482L51.4568 97.1131C50.1567 97.4806 48.8626 97.7805 47.5715 98.0197C32.2703 100.835 17.773 94.8462 9.46338 88.5594C7.22483 86.8673 5.43361 85.1526 4.19926 83.5827C3.75295 83.0165 3.35744 82.4488 3.00975 81.8801C0.127636 77.1644 0.61779 72.4801 3.45009 69.7145C6.38899 66.8464 11.0135 65.9757 15.4229 68.9086C16.3673 69.4525 17.3954 70.2754 18.6348 71.2219C23.7185 75.0932 32.3709 80.986 53.4961 77.7482Z" fill="#FFAD40"/>
<path d="M53.4971 77.749L53.0089 82.3857L51.4568 97.1146C50.1567 97.4805 48.8626 97.7803 47.5705 98.0196C32.2693 100.835 17.7722 94.8472 9.46358 88.5594C7.22505 86.8672 5.43382 85.1526 4.19849 83.5826C3.75317 83.016 3.35668 82.4503 3.009 81.8806C0.127892 77.1642 0.617039 72.4799 3.45033 69.7154C6.38921 66.8462 11.0137 65.9765 15.4221 68.9104C16.3665 69.4524 17.3936 70.2752 18.6349 71.2217C21.0886 73.0916 24.3762 75.4298 29.4978 76.9879C34.9821 78.6546 42.5714 79.423 53.4971 77.749Z" fill="#FF7F00"/>
<path d="M9.46371 88.5547C7.22516 86.8626 5.43393 85.148 4.1996 83.578C3.75328 83.0118 3.35777 82.4441 3.01008 81.8754C0.127968 77.1597 0.61812 72.4754 3.45042 69.7098C6.38932 66.8417 11.0139 65.971 15.4232 68.9039C16.3676 69.4478 17.3958 70.2707 18.6351 71.2172C23.3044 79.619 15.1502 88.1717 9.46371 88.5547Z" fill="#8E3410"/>
<path d="M40.8961 82.5781C41.3655 81.9577 41.9582 81.2002 42.6406 80.3887C41.7778 80.0997 40.919 79.7797 40.0626 79.4303C35.8389 79.2801 32.3597 78.6654 29.4528 77.7993C32.7075 80.472 36.6593 81.9512 40.8961 82.5781Z" fill="#D9640C"/>
<path d="M33.0418 97.4609C33.3419 96.679 33.6626 95.889 34.0001 95.097C34.1315 94.7887 34.2658 94.4802 34.4019 94.1718C33.8649 94.2224 33.3046 94.2609 32.7192 94.2845C32.3864 94.298 32.0471 94.305 31.7022 94.305C25.3399 94.305 17.2259 92.0141 10.8338 88.314C10.7434 88.3381 10.6539 88.3606 10.5644 88.3816C13.6761 90.6505 17.7386 92.9669 22.6122 94.7781C25.4872 95.8469 29.0323 96.8792 33.0418 97.4609Z" fill="#D9640C"/>
<path d="M10.5646 88.3906C10.6541 88.3696 10.7436 88.3471 10.834 88.3231C10.202 87.9571 9.58601 87.5771 8.99075 87.1847C9.48523 87.5832 10.0098 87.9861 10.5646 88.3906Z" fill="#842C18"/>
<path d="M39.6193 99.5234C43.5371 99.5234 47.5834 99.0218 51.6695 97.8639C52.0847 97.7467 52.3256 97.3147 52.2082 96.8996C52.0907 96.4842 51.6596 96.2433 51.2434 96.361C39.7995 99.6036 29.3573 97.2952 22.6128 94.7881C13.6412 91.4534 7.41644 86.407 4.81284 83.0989C1.17877 78.4967 0.851204 73.3442 3.99642 70.2746C6.96939 67.3733 11.2855 67.0935 14.9902 69.5597C15.0052 69.5697 15.0191 69.5787 15.034 69.5866C15.7798 70.0147 16.6082 70.651 17.5689 71.3877C22.7104 75.3324 31.3157 81.937 53.615 78.5207C54.0411 78.4557 54.3338 78.0565 54.2681 77.6304C54.2024 77.2042 53.8061 76.9105 53.378 76.9762C31.7398 80.2909 23.4631 73.9415 18.5198 70.1482C17.5241 69.3845 16.6629 68.7234 15.8345 68.2455C11.4936 65.3691 6.42179 65.7255 2.9052 69.1565C1.15287 70.866 0.225941 73.2466 0.295635 75.8591C0.369312 78.5952 1.50732 81.4328 3.58622 84.0662C8.56938 90.398 22.9175 99.5224 39.6193 99.5234Z" fill="#512717"/>
<path d="M110.077 91.7213C110.082 93.2322 110.446 94.7214 111.068 96.0983C111.622 97.3259 112.127 98.5297 112.574 99.721C113.975 103.466 114.803 107.098 114.788 111.04C114.771 115.41 113.609 119.726 111.18 123.361C101.757 137.458 79.2504 135.837 69.0921 120.881C76.3549 116.64 80.3076 109.859 81.9406 101.542C82.6406 97.9805 82.917 94.1352 82.8437 90.0903C82.5234 72.3044 105.239 64.2461 115.789 78.5685C117.942 81.4933 119.268 85.0908 119.268 89.2117C116.065 83.4452 110.057 85.155 110.077 91.7213Z" fill="#FFDAB6"/>
<path d="M82.429 103.494C83.1297 99.9324 83.4053 96.0879 83.3321 92.0423C83.0124 74.2571 105.727 66.1981 116.278 80.5205C117.431 82.0865 118.343 83.8479 118.945 85.7775C118.43 83.0698 117.321 80.6482 115.79 78.5678C105.239 64.2454 82.5239 72.3037 82.8443 90.0897C82.9175 94.1345 82.6412 97.9798 81.9412 101.542C80.3082 109.858 76.3555 116.64 69.0927 120.88C69.4577 121.417 69.8401 121.935 70.2358 122.438C77.0826 118.177 80.8456 111.557 82.429 103.494Z" fill="white"/>
<path d="M111.068 96.0885C110.926 95.7717 110.798 95.4494 110.684 95.1225C110.837 96.1276 111.136 97.1103 111.556 98.0412C112.111 99.2689 112.616 100.472 113.063 101.664C113.467 102.745 113.823 103.817 114.125 104.891C113.749 103.16 113.224 101.447 112.574 99.7107C112.128 98.519 111.622 97.3157 111.068 96.0885Z" fill="white"/>
<mask id="mask0_16333_14137" style="mask-type:luminance" maskUnits="userSpaceOnUse" x="84" y="94" width="31" height="34">
<path d="M92.2494 127.211C99.4894 127.211 106.466 124.276 110.706 118.183C112.525 115.567 113.611 112.572 114.016 109.467C113.816 105.756 112.841 102.042 110.885 97.4989C110.154 96.7044 109.37 96.0511 108.527 95.5595C108.664 98.9602 108.193 101.955 106.819 104.347C105.937 99.607 103.982 96.436 100.96 94.827C100.984 97.7782 100.603 100.405 99.7392 102.639C99.4584 99.1945 98.2083 96.6994 96.3214 94.827C96.3555 97.7782 96.0626 100.637 95.3452 103.371C92.7084 101.369 90.9022 98.5352 89.4864 95.3151C88.4256 98.2508 87.967 102.147 87.8874 106.648C88.6484 110.138 88.9492 113.701 88.6849 117.251C88.4431 120.983 87.177 124.333 84.1468 125.992C86.7981 126.801 89.5425 127.211 92.2494 127.211Z" fill="white"/>
</mask>
<g mask="url(#mask0_16333_14137)">
<path d="M92.2494 127.211C99.4895 127.211 106.466 124.276 110.706 118.183C112.525 115.567 113.611 112.572 114.016 109.468C113.816 105.756 112.841 102.042 110.885 97.4988C110.154 96.7043 109.37 96.0512 108.527 95.5593C108.664 98.9602 108.193 101.955 106.818 104.348C105.937 99.6072 103.982 96.4359 100.96 94.8271C100.984 97.7784 100.603 100.405 99.739 102.639C99.4584 99.1944 98.2082 96.6992 96.3213 94.8271C96.3554 97.7784 96.0626 100.637 95.3451 103.371C92.7086 101.369 90.9023 98.5352 89.4863 95.3154C88.4255 98.2509 87.9673 102.147 87.8877 106.648C88.6485 110.138 88.9495 113.701 88.6852 117.251C88.4433 120.983 87.1769 124.333 84.1469 125.992C86.7983 126.801 89.5424 127.211 92.2494 127.211Z" fill="#FF7F00"/>
</g>
<path d="M109.652 89.2344C110.221 87.1131 111.542 85.5847 113.334 85.1175C113.679 85.0268 114.052 84.9773 114.443 84.9773C115.675 84.9773 117.083 85.473 118.365 86.7611C118.326 86.4813 118.28 86.202 118.227 85.9263C116.973 84.0395 115.36 83.165 113.871 83.165C111.605 83.165 109.626 85.1903 109.637 88.7567C109.638 88.9167 109.643 89.0761 109.652 89.2344Z" fill="#D19E8D"/>
<mask id="mask1_16333_14137" style="mask-type:luminance" maskUnits="userSpaceOnUse" x="76" y="109" width="39" height="24">
<path d="M92.1152 132.336C99.8593 132.336 106.582 128.919 110.571 122.952C112.834 119.567 114.039 115.445 114.055 111.034C114.057 110.509 114.044 109.987 114.016 109.464C113.611 112.568 112.525 115.564 110.706 118.179C106.466 124.272 99.4893 127.208 92.2493 127.208C89.5424 127.208 86.798 126.798 84.1467 125.989C83.3342 126.433 82.3955 126.756 81.3152 126.932C80.4942 127.075 79.6746 127.132 78.8616 127.132C78.2804 127.132 77.7027 127.103 77.13 127.056C76.8471 127.1 76.5577 127.139 76.2644 127.172C76.2644 127.174 76.2644 127.176 76.2644 127.177C80.8136 130.442 86.3465 132.314 92.016 132.335C92.0496 132.335 92.0821 132.336 92.1152 132.336Z" fill="white"/>
</mask>
<g mask="url(#mask1_16333_14137)">
<path d="M92.1154 132.336C99.8594 132.336 106.582 128.919 110.571 122.952C112.834 119.567 114.039 115.446 114.055 111.034C114.057 110.509 114.044 109.986 114.016 109.464C113.611 112.568 112.525 115.564 110.706 118.179C106.466 124.272 99.4895 127.208 92.2493 127.208C89.5428 127.208 86.7981 126.798 84.1466 125.989C83.3344 126.433 82.3957 126.756 81.3152 126.932C80.4945 127.075 79.6748 127.132 78.8615 127.132C78.2805 127.132 77.7027 127.103 77.1302 127.056C76.8471 127.1 76.5577 127.139 76.2645 127.173C76.2645 127.174 76.2645 127.176 76.2645 127.177C80.8135 130.442 86.3468 132.314 92.016 132.335C92.0498 132.335 92.0821 132.336 92.1154 132.336Z" fill="#D15F0E"/>
</g>
<path d="M114.443 84.9715C114.052 84.9715 113.679 85.0211 113.333 85.1115C110.9 85.7464 109.334 88.3394 109.344 91.718C109.349 93.2804 109.704 94.8535 110.399 96.3939C112.979 102.104 114.072 106.482 114.054 111.031C114.038 115.442 112.833 119.563 110.57 122.948C106.582 128.915 99.8588 132.333 92.1148 132.333C92.0819 132.333 92.0491 132.332 92.0156 132.332C83.4315 132.3 75.1587 128.023 70.1434 121.097C79.3249 115.375 83.842 104.943 83.5748 90.0713C83.4328 82.1809 88.1877 75.4418 95.6891 72.9023C101.501 70.934 109.678 71.5019 115.199 78.9965C116.896 81.2989 117.971 83.9456 118.365 86.7556C117.083 85.4671 115.675 84.9715 114.443 84.9715ZM92.1148 133.797C100.357 133.797 107.523 130.143 111.788 123.762C114.211 120.137 115.502 115.736 115.519 111.036C115.537 106.264 114.405 101.705 111.734 95.7905C111.124 94.4397 110.813 93.0681 110.808 91.7133C110.8 89.0245 111.936 86.9893 113.703 86.5292C115.448 86.0725 117.335 87.2358 118.627 89.5616C118.789 89.8529 119.128 89.9983 119.451 89.9145C119.774 89.8308 120 89.5395 120 89.206C120 85.1744 118.748 81.3438 116.378 78.1279C111.444 71.4289 103.138 68.8325 95.2195 71.5147C87.1028 74.2631 81.9568 81.5574 82.1102 90.0974C82.372 104.678 78.1677 114.443 69.2634 119.92C69.0277 119.768 68.7143 119.759 68.4638 119.923C68.1296 120.143 68.0338 120.591 68.2481 120.928C68.2461 121.057 68.2776 121.187 68.3459 121.307C68.4343 121.459 68.5689 121.568 68.7223 121.626C73.9821 129.12 82.8274 133.762 92.0103 133.797C92.0451 133.797 92.0799 133.797 92.1148 133.797Z" fill="#1E1E1E"/>
<path d="M64.7812 78.3498C63.6792 80.5106 63.0348 82.5154 62.7205 84.4202C59.6502 85.1541 56.1849 85.5051 52.2141 85.3311C47.4078 85.122 43.5991 83.9893 40.808 82.6961C42.9913 79.7901 48.103 73.5942 52.2402 73.2844C57.9597 72.858 62.0432 75.446 64.7812 78.3498Z" fill="#F9D3B7"/>
<path d="M67.9551 82.6737C63.711 84.5269 58.6217 85.6118 52.2131 85.331C47.4068 85.122 43.5981 83.9893 40.807 82.6961C42.9903 79.79 48.102 73.5942 52.2392 73.2843C57.9587 72.858 62.0422 75.4459 64.7803 78.3497C66.1735 79.8274 67.2196 81.3886 67.9551 82.6737Z" fill="#FF9343"/>
<path d="M75.4632 112.774C75.3949 119.492 75.5998 136.654 75.4632 144.238C75.565 145.291 76.2501 149.203 75.211 150.986C74.4451 152.301 73.4664 153.117 70.3515 153.117C68.2273 153.117 65.3949 153.117 62.0002 153.117C57.2676 153.117 56.8445 150.306 56.7362 149.004C56.5634 146.919 57.1263 144.727 57.1263 144.727L55.4461 128.298L75.4632 112.774Z" fill="#FFAD40"/>
<path d="M75.2114 150.987C74.4442 152.303 73.4668 153.117 70.3519 153.117H61.9999C57.2672 153.117 56.8448 150.306 56.7364 149.005C56.5637 146.92 57.126 144.728 57.126 144.728L57.103 144.498L55.4451 128.299L75.4643 112.774C75.394 119.456 75.597 136.468 75.4663 144.112C75.4663 144.154 75.4643 144.197 75.4643 144.238C75.5648 145.292 76.2499 149.204 75.2114 150.987Z" fill="#FFAD40"/>
<path d="M75.2114 150.987C74.4442 152.303 73.4668 153.117 70.3519 153.117H61.9999C57.2672 153.117 56.8448 150.306 56.7364 149.005C56.5637 146.92 57.126 144.728 57.126 144.728L57.103 144.498L55.4451 128.299L75.4643 112.774C75.394 119.456 75.597 136.468 75.4663 144.112C75.4663 144.154 75.4643 144.197 75.4643 144.238C75.5648 145.292 76.2499 149.204 75.2114 150.987Z" fill="#FFAD40"/>
<mask id="mask2_16333_14137" style="mask-type:luminance" maskUnits="userSpaceOnUse" x="56" y="130" width="19" height="15">
<path d="M58.7967 144.711C59.2467 144.711 59.7008 144.668 60.0993 144.567C63.0665 143.827 65.1501 143.59 66.7371 143.59C68.7851 143.59 70.0077 143.985 71.2427 144.202C71.7628 144.294 72.3441 144.331 72.9213 144.331C73.5416 144.331 74.1568 144.289 74.687 144.228C74.7351 140.191 74.735 135.995 74.7205 131.767C72.2289 130.964 69.6332 130.659 67.1306 130.659C63.1306 130.659 59.3664 131.436 56.63 132.198L57.9036 144.651C57.9036 144.652 57.9036 144.654 57.9041 144.656C58.1874 144.691 58.4913 144.711 58.7967 144.711Z" fill="white"/>
</mask>
<g mask="url(#mask2_16333_14137)">
<path d="M58.7965 144.711C59.2467 144.711 59.7007 144.668 60.0996 144.567C63.067 143.827 65.1502 143.59 66.7372 143.59C68.7853 143.59 70.0079 143.985 71.2428 144.202C71.7631 144.294 72.3445 144.331 72.9213 144.331C73.5417 144.331 74.1568 144.289 74.6869 144.228C74.735 140.191 74.735 135.995 74.7207 131.767C72.2289 130.964 69.6331 130.659 67.1308 130.659C63.1306 130.659 59.3669 131.436 56.6301 132.198L57.904 144.651C57.904 144.652 57.904 144.654 57.904 144.656C58.1878 144.691 58.4912 144.711 58.7965 144.711Z" fill="#FF7F00"/>
</g>
<mask id="mask3_16333_14137" style="mask-type:luminance" maskUnits="userSpaceOnUse" x="56" y="124" width="19" height="9">
<path d="M56.6301 132.188C59.3666 131.426 63.1307 130.649 67.1307 130.649C69.6334 130.649 72.2291 130.953 74.7207 131.756C74.7157 130.265 74.7092 128.768 74.7022 127.274C74.5765 127.277 74.4504 127.279 74.3242 127.279C72.2426 127.279 70.131 126.847 68.56 125.529C68.3528 125.341 68.163 125.137 67.9913 124.919L57.6524 129.508C57.2539 129.567 56.8259 129.622 56.3723 129.671L56.6301 132.188Z" fill="white"/>
</mask>
<g mask="url(#mask3_16333_14137)">
<path d="M56.6303 132.188C59.3666 131.426 63.131 130.649 67.1306 130.649C69.6337 130.649 72.2293 130.953 74.7207 131.756C74.7161 130.265 74.7096 128.768 74.7025 127.274C74.5768 127.277 74.4505 127.279 74.3241 127.279C72.243 127.279 70.1312 126.847 68.5599 125.529C68.3528 125.341 68.1633 125.137 67.9914 124.919L57.6527 129.508C57.2542 129.567 56.8263 129.622 56.3725 129.671L56.6303 132.188Z" fill="#D9640C"/>
</g>
<path d="M53.236 121.529C52.5806 126.285 54.6018 143.33 54.1293 148.013C53.7061 152.206 50.9625 153.164 47.258 153.164C44.7587 153.164 42.4917 153.164 37.14 153.164C32.6551 153.164 32.6035 149.301 32.922 147.862C33.3896 145.744 35.4825 144.427 36.7482 144.064C32.1843 124.907 31.1015 111.058 31.1015 111.058L53.236 121.529Z" fill="#FFAD40"/>
<path d="M54.1302 148.014C53.7069 152.206 50.9634 153.164 47.2589 153.164H37.1402C32.6561 153.164 32.6053 149.302 32.9213 147.862C33.3905 145.746 35.4826 144.429 36.7476 144.066H36.7492C32.1861 124.908 31.1033 111.059 31.1033 111.059L53.2369 121.53C52.6927 125.48 53.9947 137.9 54.1794 144.681C54.2205 146.069 54.2108 147.219 54.1302 148.014Z" fill="#D9640C"/>
<mask id="mask4_16333_14137" style="mask-type:luminance" maskUnits="userSpaceOnUse" x="33" y="123" width="19" height="23">
<path d="M51.1304 145.078C51.3267 145.078 51.5214 145.075 51.7136 145.068C51.8773 142.797 51.5855 136.789 50.3715 134.846C49.4759 133.415 47.7968 132.564 41.6516 129.892C37.8388 128.234 35.2256 125.755 33.4574 123.358C34.3224 128.879 35.6171 135.938 37.5089 143.88L37.551 144.056C37.57 144.056 37.589 144.056 37.6085 144.056C39.3437 144.056 43.3652 144.117 46.4371 144.631C47.3612 144.786 48.6819 144.975 50.0426 145.048C50.4045 145.067 50.7695 145.078 51.1304 145.078Z" fill="white"/>
</mask>
<g mask="url(#mask4_16333_14137)">
<path d="M51.1303 145.078C51.3267 145.078 51.5215 145.075 51.7139 145.068C51.877 142.797 51.5856 136.789 50.3718 134.846C49.4755 133.415 47.797 132.564 41.6514 129.892C37.839 128.234 35.2254 125.755 33.4574 123.358C34.3228 128.879 35.6173 135.938 37.5088 143.88L37.5508 144.056C37.5698 144.056 37.5888 144.056 37.6086 144.056C39.3434 144.056 43.3655 144.117 46.4368 144.631C47.3615 144.786 48.6822 144.975 50.0424 145.048C50.4043 145.067 50.7693 145.078 51.1303 145.078Z" fill="#FF7F00"/>
</g>
<path d="M54.1304 148.014C53.7072 152.206 50.964 153.164 47.2588 153.164H37.1402C32.6556 153.164 32.6054 149.302 32.9218 147.862C33.3904 145.746 35.4833 144.429 36.7473 144.066H36.7497C36.7497 144.066 42.4091 143.961 46.4371 144.635C48.3698 144.959 52.0344 145.431 54.1791 144.682C54.2205 146.069 54.2109 147.219 54.1304 148.014Z" fill="#FFF3E9"/>
<path d="M54.131 148.014C53.7078 152.206 50.9639 153.164 47.2589 153.164H37.14C32.7671 153.164 32.6117 149.488 32.8994 147.973H32.901C32.9065 147.934 32.9145 147.897 32.9217 147.862C33.3903 145.746 35.4831 144.429 36.7479 144.066H36.7495C36.7495 144.066 42.4094 143.961 46.4372 144.635C47.741 144.854 49.8338 145.14 51.7139 145.072C52.6216 145.039 53.4799 144.926 54.1796 144.681C54.2203 146.069 54.2107 147.219 54.131 148.014Z" fill="#8E3410"/>
<path d="M37.1402 152.383H47.2583C50.9919 152.383 53.0557 150.89 53.5661 147.821C53.6872 147.089 53.7387 146.053 53.7402 144.813C53.1333 144.968 52.4393 145.045 51.7128 145.072C51.6068 149.535 47.2393 149.641 41.4411 149.667C41.3841 149.667 41.3287 149.667 41.2718 149.667C37.1354 149.667 34.9766 149.02 33.6274 148.365C33.5245 149.158 33.5791 150.407 34.2881 151.29C34.8706 152.015 35.8305 152.383 37.1402 152.383Z" fill="#842C18"/>
<path d="M37.141 153.945H47.2589C51.755 153.945 54.4694 151.916 55.1076 148.077C55.5374 145.49 55.1644 139.705 54.8035 134.109C54.4799 129.094 54.145 123.909 54.4507 121.696L52.9033 121.482C52.5757 123.853 52.9001 128.884 53.2448 134.21C53.5992 139.717 53.9665 145.411 53.5667 147.821C53.0558 150.89 50.9927 152.383 47.2589 152.383H37.141C35.8304 152.383 34.8711 152.015 34.2888 151.29C33.4697 150.27 33.524 148.761 33.6854 148.031C34.0763 146.261 35.9034 145.119 36.9642 144.815L37.6819 144.61L37.5092 143.883C33.0139 125.014 31.8923 111.135 31.8809 110.997L30.3238 111.119C30.3344 111.257 31.4373 124.92 35.8296 143.573C34.4072 144.203 32.6206 145.609 32.1599 147.694C31.8842 148.939 31.958 150.884 33.0707 152.269C33.9644 153.381 35.3333 153.945 37.141 153.945Z" fill="#1E1E1E"/>
<path d="M46.4365 144.628C43.3639 143.718 40.1399 142.996 36.9135 143.251C36.7968 143.264 36.7002 143.273 36.5503 143.302L36.9467 144.812C37.2752 144.701 37.6708 144.621 38.0201 144.557C40.7867 144.083 43.6599 144.259 46.4365 144.628Z" fill="#1E1E1E"/>
<path d="M37.3627 146.22C34.9101 148.067 35.1707 152.911 38.3201 153.93L38.6904 152.412C36.1399 152.009 35.7164 147.87 37.3627 146.22Z" fill="#1E1E1E"/>
<path d="M42.7206 146.22C40.2682 148.067 40.5292 152.911 43.6783 153.93L44.0488 152.412C41.4989 152.009 41.0752 147.87 42.7206 146.22Z" fill="#1E1E1E"/>
<path d="M75.2115 150.987C74.4445 152.303 73.4668 153.117 70.352 153.117H61.9994C57.2674 153.117 56.8449 150.306 56.7363 149.005C56.5634 146.92 57.1257 144.728 57.1257 144.728L57.103 144.498C57.881 144.716 59.1472 144.804 60.0995 144.564C66.8966 142.869 69.0514 143.813 71.2425 144.199C72.6283 144.445 74.4464 144.295 75.4663 144.112C75.4663 144.153 75.4643 144.197 75.4643 144.238C75.5644 145.292 76.2502 149.204 75.2115 150.987Z" fill="#8E3410"/>
<path d="M62.0995 152.336C62.1988 152.336 62.3006 152.334 62.403 152.332C62.76 152.333 63.1794 152.333 63.6407 152.333C64.6297 152.333 65.8081 152.332 66.9569 152.331C68.0954 152.33 69.2042 152.328 70.0695 152.328C70.2428 152.328 70.4071 152.328 70.5598 152.329C71.8446 152.31 73.146 152.149 73.8805 151.448C74.6202 150.773 74.8947 149.846 74.9707 148.857C74.1254 149.369 72.9038 149.655 70.9316 149.655H61.4037C59.6164 149.655 58.3684 149.304 57.4941 148.781C57.6623 151.245 58.9985 152.336 62.0995 152.336Z" fill="#842C18"/>
<path d="M74.6827 112.762C74.6231 122.943 74.8104 134.132 74.6866 144.309C74.8448 145.643 75.0269 146.956 74.9951 148.283C74.9825 149.48 74.7621 150.643 73.8805 151.448C73.1457 152.148 71.8445 152.31 70.5597 152.328C69.649 152.327 68.3245 152.329 66.957 152.33C65.2732 152.332 63.5244 152.334 62.4032 152.332C58.3325 152.42 57.1213 150.774 57.5608 146.816C57.6309 146.18 57.7401 145.514 57.8838 144.917C57.9069 144.826 57.9129 144.731 57.9043 144.643L56.2237 128.214C56.18 127.785 55.7968 127.473 55.3672 127.517C54.9383 127.561 54.6259 127.944 54.6703 128.373L56.3501 144.801L56.3707 144.528C55.162 149.9 56.0616 154.058 62.4038 153.894C63.3139 153.892 64.6364 153.893 66.0026 153.893C67.6944 153.893 69.4537 153.894 70.5816 153.89C72.4766 153.898 74.6562 153.477 75.7139 151.657C76.3751 150.694 76.534 149.407 76.5565 148.319C76.5797 147.243 76.487 146.206 76.3619 145.154L76.2414 144.158L76.2454 144.248C76.352 136.967 76.2527 127.95 76.2395 120.633C76.2322 118.012 76.2236 115.389 76.2454 112.775C76.2289 111.767 74.731 111.708 74.6827 112.762Z" fill="#1E1E1E"/>
<path d="M72.2144 144.885C68.7146 142.099 62.9919 142.759 59.4878 145.227C63.7074 144.344 67.989 143.685 72.2144 144.885Z" fill="#1E1E1E"/>
<path d="M62.1778 146.213C61.4011 147.308 61.0794 148.673 61.0887 150.023C61.0968 151.478 61.8965 152.955 63.1162 153.789L63.9121 152.445C61.5698 151.475 61.2729 148.313 62.1778 146.213Z" fill="#1E1E1E"/>
<path d="M69.0144 146.218C69.9419 147.775 69.868 150.615 68.807 152.064C68.6604 152.241 68.4969 152.338 68.375 152.367L69.0716 153.766C71.2299 152.421 70.5403 147.805 69.0144 146.218Z" fill="#1E1E1E"/>
<path d="M69.3246 85.5209C70.3506 93.0768 74.211 102.022 75.2246 107.254C76.3877 113.256 75.3691 118.951 73.5656 122.457L57.6532 129.519C49.2951 130.751 27.9721 130.406 30.4525 107.031C31.1029 100.909 35.2589 91.1445 39.7392 84.1838C39.7392 84.1838 46.8279 73.6952 52.2401 73.2908C64.5966 72.3671 69.3246 85.5209 69.3246 85.5209Z" fill="#FFAD40"/>
<path d="M73.5659 122.456L57.6515 129.52C50.4201 130.585 33.4733 130.47 30.6556 115.265C30.2162 112.904 30.1179 110.176 30.4526 107.032C31.1024 100.909 35.2586 91.1445 39.7382 84.1836C39.7382 84.1836 46.8267 73.695 52.2403 73.2905C57.9593 72.8641 62.0433 75.4519 64.7806 78.3557C67.9597 81.7249 69.3243 85.5221 69.3243 85.5221C70.3502 93.0777 74.21 102.021 75.2245 107.254C76.3884 113.257 75.3674 118.952 73.5659 122.456Z" fill="#FFAD40"/>
<path d="M73.5659 122.456L57.6515 129.52C50.4201 130.585 33.4733 130.47 30.6556 115.265C30.2162 112.904 30.1179 110.176 30.4526 107.032C31.1024 100.909 35.2586 91.1445 39.7382 84.1836C39.7382 84.1836 46.8267 73.695 52.2403 73.2905C57.9593 72.8641 62.0433 75.4519 64.7806 78.3557C67.9597 81.7249 69.3243 85.5221 69.3243 85.5221C70.3502 93.0777 74.21 102.021 75.2245 107.254C76.3884 113.257 75.3674 118.952 73.5659 122.456Z" fill="#FFAD40"/>
<path d="M73.5659 122.457L57.6515 129.52C50.6418 130.552 34.4992 130.477 30.9553 116.616C30.84 116.179 30.7417 115.73 30.6556 115.266C30.2162 112.904 30.1179 110.176 30.4526 107.032C31.1024 100.909 35.2586 91.1446 39.7382 84.1837C39.7382 84.1837 46.8267 73.6951 52.2403 73.2906C57.9593 72.8642 62.0433 75.452 64.7806 78.3558C67.9597 81.725 69.3243 85.5223 69.3243 85.5223C69.5989 87.5407 70.0748 89.659 70.6459 91.779C72.2102 97.5926 74.4813 103.419 75.2245 107.254C76.3884 113.257 75.3674 118.952 73.5659 122.457Z" fill="#FF7F00"/>
<path d="M52.1982 129.906C54.2862 129.906 56.1724 129.738 57.6519 129.52L67.9918 124.93C66.4615 122.988 66.3509 119.949 67.8271 117.983C67.794 117.969 67.7618 117.955 67.7287 117.94C66.9296 117.612 66.3533 117.026 66.0079 116.324C63.2589 121.894 56.4582 124.637 48.885 124.637C48.3846 124.637 47.8818 124.625 47.3757 124.601C44.4338 124.462 41.4104 123.92 38.491 122.98C37.4329 122.639 36.131 121.981 34.8768 121.03C34.8736 121.028 34.8711 121.027 34.8687 121.025C33.5531 120.026 32.29 118.704 31.4175 117.085C31.2561 116.93 31.1027 116.774 30.955 116.616C33.7517 127.552 44.3894 129.906 52.1982 129.906ZM67.359 111.318C68.0838 110.746 68.9305 110.345 69.8086 110.065C69.7997 109.845 69.786 109.619 69.7666 109.394C69.2694 103.008 68.2791 96.567 65.8287 90.6057C65.8303 90.6065 65.8311 90.6081 65.832 90.6098C65.8311 90.6081 65.8303 90.6065 65.8295 90.6049L65.8037 90.0367C65.5099 90.341 65.4252 90.931 65.6124 91.8753C67.3146 100.479 68.1621 106.75 67.359 111.318Z" fill="#FF7F00"/>
<path d="M67.2227 111.995C66.0524 123.571 51.2748 127.095 38.4902 122.976C36.3211 122.276 33.1233 120.247 31.4182 117.082C35.742 121.242 44.786 124.193 56.2927 121.394C62.8635 119.795 66.124 116.963 67.2227 111.995Z" fill="#F9D3B7"/>
<path d="M62.7222 84.4219C63.6925 84.1905 64.6225 83.9211 65.5176 83.6174L65.5157 83.5697C65.5115 83.5709 65.5084 83.5715 65.5041 83.5733L65.3957 81.1514C64.7345 81.3142 64.0758 81.4618 63.4183 81.5946C63.0999 82.5638 62.8722 83.5048 62.7222 84.4219Z" fill="#D9640C"/>
<path d="M38.4902 122.975C35.9292 122.149 31.9378 119.471 30.6552 115.262C30.2158 112.9 30.1175 110.172 30.4522 107.028C31.102 100.905 35.2582 91.1408 39.7378 84.1798C39.7378 84.1798 46.8263 73.6912 52.2399 73.2867C57.959 72.8603 62.0429 75.4481 64.7802 78.3519C58.7038 90.2684 66.5347 97.437 67.2681 109.498C68.0926 123.052 52.1538 127.378 38.4902 122.975Z" fill="#FFDAB6"/>
<path d="M47.3755 124.594C44.4335 124.455 41.4102 123.912 38.4909 122.971C37.4322 122.63 36.13 121.973 34.8763 121.023C36.1308 121.973 37.433 122.631 38.4909 122.972C41.4102 123.913 44.4335 124.455 47.3755 124.594Z" fill="#D4A395"/>
<path d="M34.877 121.031C34.8738 121.029 34.8715 121.027 34.8691 121.026C34.8715 121.028 34.8738 121.029 34.877 121.031Z" fill="#D4A395"/>
<path d="M48.8806 124.633C56.4552 124.633 63.2577 121.89 66.0059 116.319C65.9069 116.117 65.8265 115.905 65.7654 115.687C64.0378 118.453 61.0226 120.243 56.2927 121.394C53.1528 122.157 50.1988 122.493 47.4715 122.493C40.2041 122.493 34.5622 120.107 31.4183 117.082C32.2901 118.7 33.5528 120.022 34.8678 121.021C34.8702 121.022 34.8734 121.024 34.8759 121.026C36.1297 121.977 37.4318 122.634 38.4902 122.975C41.4097 123.916 44.433 124.458 47.375 124.597C47.8801 124.621 48.3819 124.633 48.8806 124.633Z" fill="#D9A894"/>
<path d="M54.1952 85.375C57.3513 85.375 60.1722 85.0293 62.7206 84.42C62.8722 83.5031 63.0991 82.5631 63.418 81.5939C60.6426 82.1524 57.8986 82.4361 55.1942 82.4414L51.2854 85.2787C51.5908 85.2996 51.9006 85.3168 52.2142 85.331C52.8885 85.3608 53.5485 85.375 54.1952 85.375ZM46.8793 84.6754C46.6493 83.5845 46.4201 82.4929 46.1901 81.402C45.0014 81.1205 43.8187 80.783 42.6412 80.388C41.9147 81.2519 41.2905 82.0538 40.8082 82.696C42.4717 83.4665 44.4967 84.1803 46.8793 84.6754Z" fill="#D9A894"/>
<path d="M57.6523 129.514C49.7118 129.392 40.5559 128.994 34.9364 122.69C30.4637 117.493 30.3828 109.832 32.0019 103.46C33.8176 96.7486 36.8288 90.496 39.7385 84.1788C35.232 89.6332 32.1596 96.215 30.3283 103.032C27.9289 113.267 29.9782 124.616 40.7896 128.798C46.1309 130.826 52.1798 131.106 57.6523 129.514Z" fill="#1E1E1E"/>
<path d="M69.3251 85.5174C69.5452 92.7027 72.2889 99.5079 74.1304 106.367C75.0908 110.106 75.2921 114.057 74.7232 117.878C74.4963 119.437 74.1144 120.966 73.5661 122.453C74.0029 121.785 74.3802 121.072 74.7078 120.336C76.7889 115.457 76.8946 109.87 75.5562 104.773C73.7673 98.3336 70.9985 92.0001 69.3251 85.5174Z" fill="#1E1E1E"/>
<path d="M71.8726 81.1278C70.0167 82.191 67.9933 83.1103 65.7484 83.8203L65.4362 76.8284C67.3696 77.6086 69.5897 79.0945 71.8726 81.1278Z" fill="#FF9343"/>
<path d="M70.1637 85.517C70.3839 92.7026 73.1271 99.5081 74.9687 106.366C75.9293 110.106 76.1307 114.057 75.5616 117.878C75.3347 119.437 74.9528 120.966 74.4048 122.453C74.8411 121.785 75.2189 121.072 75.5463 120.335C77.6274 115.457 77.7329 109.869 76.3945 104.773C74.6056 98.3337 71.8369 92.0002 70.1637 85.517Z" fill="#1E1E1E"/>
<path d="M65.8298 90.6045C69.3617 97.5816 70.7656 107.986 70.6047 110.649C70.0041 110.79 69.1004 111.1 68.2852 111.62C68.2434 111.647 68.2023 111.674 68.1636 111.7C67.2817 112.289 66.5327 113.132 66.4204 114.284C66.1273 117.369 69.3617 117.584 69.3617 117.584C67.1258 119.066 67.0965 122.603 68.6295 124.492C70.5529 126.86 75.1276 126.655 77.1028 126.274C83.7718 126.877 87.0798 124.209 87.807 118.172C87.8924 117.459 87.951 116.746 87.9853 116.031C88.0583 114.489 88.0147 112.941 87.8681 111.403C86.3208 95.128 73.2528 79.5928 65.1924 76.341L65.8298 90.6045Z" fill="#FF7F00"/>
<path d="M69.3609 117.584C67.1245 119.066 67.0955 122.603 68.6283 124.492C70.5519 126.86 75.1264 126.655 77.1015 126.274C83.7711 126.877 87.0785 124.209 87.8058 118.172C87.8915 117.459 87.9501 116.747 87.9844 116.031C85.4257 113.512 81.757 112.206 78.2002 111.366C75.2956 110.68 72.1899 110.221 69.3633 111.183C68.9482 111.325 68.5479 111.498 68.1623 111.701C67.2806 112.289 66.5314 113.131 66.4191 114.283C66.1264 117.369 69.3609 117.584 69.3609 117.584Z" fill="#8E3410"/>
<path d="M65.5032 83.5781C65.5074 83.5769 65.511 83.5757 65.5151 83.5751L65.4067 81.1531C65.4031 81.1543 65.399 81.1555 65.3954 81.1561L65.5032 83.5781Z" fill="#BC5015"/>
<path d="M65.5163 83.5625C67.5348 82.9229 69.3747 82.1143 71.0732 81.1847C70.5841 80.7515 70.0823 80.3261 69.5661 79.9164C68.1738 80.3917 66.7864 80.8003 65.408 81.1408L65.5163 83.5625Z" fill="#D9640C"/>
<path d="M74.3587 125.727C75.3037 125.727 76.2552 125.621 77.1728 125.495C77.7377 125.55 78.3008 125.58 78.8552 125.58C81.6214 125.58 84.1653 124.824 85.6372 122.523C83.8875 123.585 81.612 123.842 79.8248 123.842C78.1617 123.842 76.9219 123.62 76.9219 123.62C76.1365 123.804 75.399 123.89 74.7329 123.89C72.7674 123.89 71.4247 123.135 71.3253 121.9C71.2025 120.344 72.5528 119.386 72.382 118.155C72.1259 116.308 70.3814 116.616 68.7562 116.035C68.0866 115.794 67.5767 115.386 67.1907 114.933C67.3036 115.905 68.0516 116.579 69.1697 116.768C69.2305 116.778 69.3522 116.8 69.4136 116.804C70.1469 116.842 70.4241 117.83 69.7931 118.235C68.8703 118.835 68.3609 119.998 68.3504 121.2C68.3276 124.141 70.3592 125.373 73.0206 125.646C73.4628 125.703 73.9095 125.727 74.3587 125.727Z" fill="#842C18"/>
<path d="M64.9004 77.0653C67.3073 78.0672 69.458 79.7373 71.4033 81.4897C73.3799 83.2905 75.1807 85.298 76.8346 87.4147C83.6822 96.1618 89.5143 109.78 86.3944 120.924C84.9868 125.079 81.1315 125.874 77.1737 125.494C75.8202 125.68 74.395 125.82 73.0213 125.645C70.36 125.371 68.3286 124.139 68.3513 121.199C68.3619 119.997 68.8713 118.834 69.794 118.233C70.4253 117.829 70.1477 116.841 69.4146 116.803C69.3531 116.799 69.2319 116.776 69.1709 116.766C67.7326 116.523 66.9053 115.476 67.2577 114.027C67.6427 112.594 69.3946 111.759 70.7852 111.406C71.13 111.331 71.3712 111.031 71.3844 110.693C71.4698 109.73 71.4121 108.863 71.3254 107.977C70.804 103.635 69.6471 99.3765 68.0856 95.3013C67.4524 93.6827 66.71 92.1005 65.8294 90.6037C68.2796 96.5651 69.2696 103.006 69.767 109.392C69.8047 109.806 69.8173 110.222 69.8248 110.598L70.424 109.886C68.9536 110.264 67.5108 110.937 66.5077 112.142C64.9846 113.953 65.445 117 67.7294 117.938C68.2413 118.168 68.7514 118.309 69.3116 118.362L68.9316 116.931C66.1265 118.823 66.1296 123.342 68.561 125.539C70.8895 127.493 74.4063 127.499 77.251 127.039L77.033 127.05C78.4369 127.17 79.8746 127.186 81.3155 126.935C86.4258 126.101 88.3793 121.983 88.6852 117.25C89.709 103.503 82.2546 89.5736 72.4554 80.3346C70.36 78.4541 68.1276 76.7173 65.4845 75.6162L64.9004 77.0653Z" fill="#1E1E1E"/>
<path d="M69.6016 118.317C69.5884 118.305 69.6526 118.272 69.6864 118.253C69.7975 118.194 69.9442 118.143 70.0605 118.135C70.6793 118.095 70.8449 119.048 70.9079 119.532L70.9458 119.992L71.1022 119.551C71.313 118.88 71.4322 118.093 70.9824 117.477C70.555 116.91 69.8027 116.727 69.1215 116.831L69.6016 118.317Z" fill="#1E1E1E"/>
<path d="M69.5219 111.82C70.1016 111.582 70.7642 111.418 71.3914 111.277C72.0484 111.131 72.7179 111.008 73.3926 110.905C72.3877 110.671 71.3685 110.468 70.3345 110.349C69.9814 110.311 69.6243 110.281 69.2386 110.284L69.5219 111.82Z" fill="#1E1E1E"/>
<mask id="mask5_16333_14137" style="mask-type:luminance" maskUnits="userSpaceOnUse" x="19" y="1" width="77" height="59">
<path d="M84.3238 60C85.3105 59.3847 86.7859 59.0743 88.3704 58.836C88.3684 58.8 88.3694 58.764 88.3734 58.7274C88.3744 58.7114 88.3754 58.6954 88.3774 58.6784C88.6737 54.4381 88.3343 50.4586 87.3381 46.5152C87.2965 46.3495 87.3186 46.1742 87.3997 46.0241C90.4845 40.337 93.1428 32.8511 94.51 26.0001C96.3698 16.677 95.5118 10.3896 92.2167 9.17109C91.8797 9.07447 91.5038 9.0264 91.0888 9.0264C88.9075 9.0264 85.6515 10.3576 81.3811 12.9984C78.5631 14.74 75.231 17.1035 71.4778 20.0236C71.3561 20.1182 71.209 20.1673 71.0598 20.1673C70.9702 20.1673 70.8806 20.1493 70.7954 20.1132C65.0488 17.6827 59.1019 16.4627 53.0348 16.4627C50.4701 16.4627 47.8834 16.681 45.2826 17.118C45.2451 17.124 45.2075 17.127 45.17 17.127C44.9652 17.127 44.7705 17.0354 44.6393 16.8732C36.4496 6.67247 30.5608 1.51805 27.1135 1.51805C27.0654 1.51805 27.0173 1.51904 26.9703 1.52104C25.8269 1.66021 24.8076 2.37812 23.94 3.65671C19.7593 9.8174 20.0692 27.128 23.139 38.4892C23.1835 38.6544 23.1645 38.8301 23.0854 38.9813C21.1966 42.6038 19.9425 46.4186 19.2532 50.6438C19.2436 50.6999 19.2276 50.754 19.2056 50.805C20.5943 51.3757 21.8514 51.9915 22.6238 52.772L22.6419 52.7765C22.6554 51.4133 22.8231 50.0201 23.152 48.6183C24.9763 40.8596 31.199 35.4964 37.7853 35.4964C38.7029 35.4964 39.6291 35.6006 40.5497 35.8168C48.0791 37.589 52.4966 46.1908 50.418 55.0308C50.4155 55.0413 50.413 55.0518 50.4105 55.0623C50.366 55.2506 50.3419 55.4383 50.3364 55.624C50.9587 55.3212 51.9715 55.2466 52.7675 55.2466C53.2511 55.2466 53.6551 55.2741 53.8428 55.2951C54.2683 55.3422 55.7872 55.601 56.7594 56.1122C56.7705 56.0125 56.776 55.9109 56.776 55.8078C56.776 55.7968 56.776 55.7862 56.776 55.7752C56.797 46.7039 63.0683 39.3628 70.7924 39.3628C70.8005 39.3628 70.81 39.3628 70.818 39.3628C78.5526 39.3813 84.8049 46.7575 84.7864 55.8388C84.7824 57.2761 84.6232 58.6703 84.3238 60Z" fill="white"/>
</mask>
<g mask="url(#mask5_16333_14137)">
<path d="M84.3239 60C85.3106 59.3851 86.7859 59.0743 88.3704 58.8362C88.3683 58.8004 88.3694 58.7647 88.3734 58.7279C88.3744 58.7116 88.3754 58.6954 88.3774 58.6792C88.6737 54.4384 88.3343 50.4586 87.3381 46.5156C87.2965 46.3499 87.3186 46.1745 87.3997 46.0241C90.4845 40.3369 93.1428 32.8514 94.51 26.0004C96.3699 16.6777 95.5118 10.3897 92.2167 9.17172C91.8798 9.07537 91.5038 9.02664 91.0887 9.02664C88.9075 9.02664 85.6515 10.3583 81.3811 12.9989C78.5632 14.7398 75.231 17.1043 71.4778 20.0242C71.3562 20.1184 71.209 20.1671 71.0598 20.1671C70.9701 20.1671 70.8806 20.1498 70.7955 20.1141C65.0488 17.6835 59.1019 16.4634 53.035 16.4634C50.4702 16.4634 47.8838 16.681 45.2822 17.1184C45.2454 17.1249 45.2075 17.1281 45.1696 17.1281C44.965 17.1281 44.7701 17.0361 44.6391 16.8737C36.4499 6.67296 30.5603 1.51846 27.1132 1.51846C27.0655 1.51846 27.0179 1.51954 26.9702 1.52171C25.827 1.66029 24.8071 2.37917 23.9399 3.6567C19.7598 9.81806 20.0694 27.1286 23.1387 38.4899C23.1831 38.6545 23.1647 38.8309 23.0857 38.9814C21.1965 42.604 19.9428 46.4192 19.2531 50.6437C19.2434 50.7 19.2271 50.7542 19.2055 50.8051C20.5945 51.3756 21.8515 51.9916 22.6234 52.7722L22.6418 52.7766C22.6559 51.4135 22.8226 50.0201 23.1517 48.6192C24.976 40.8598 31.1991 35.4964 37.7848 35.4964C38.7029 35.4964 39.6286 35.6014 40.5499 35.8168C48.0787 37.5891 52.497 46.1908 50.4183 55.0306C50.415 55.0415 50.4129 55.0523 50.4107 55.0631C50.3663 55.2504 50.3414 55.4388 50.336 55.6239C50.9585 55.3219 51.9719 55.2472 52.7676 55.2472C53.2516 55.2472 53.6554 55.2742 53.8427 55.2959C54.2683 55.3424 55.7873 55.6012 56.7595 56.1122C56.7705 56.0126 56.7759 55.9108 56.7759 55.808C56.7759 55.7971 56.7759 55.7863 56.7759 55.7755C56.797 46.704 63.0683 39.3636 70.7925 39.3636C70.8005 39.3636 70.81 39.3636 70.818 39.3636C78.5526 39.382 84.8049 46.7581 84.7864 55.8394C84.7824 57.2761 84.6232 58.6705 84.3239 60Z" fill="#FF7F00"/>
</g>
<path d="M81.2403 14.7663C82.19 15.0921 83.2218 15.1693 84.208 14.9908C84.0569 15.7373 84.0143 16.5078 84.0854 17.2678C84.1074 17.4892 84.138 17.7137 84.2406 17.911C84.4008 18.22 84.7081 18.4173 84.999 18.6073C87.7645 20.4031 90.227 22.7407 91.8561 25.6108C92.8458 25.6766 93.844 25.7434 94.7983 26.0148C94.9244 26.0503 95.0521 26.0911 95.1772 26.1328C96.8914 17.5372 96.5599 10.0222 92.4288 8.52504C89.9998 7.81091 86.0658 9.30181 81.0245 12.4193C81.2878 13.1689 81.371 13.9822 81.2403 14.7663Z" fill="#8E3410"/>
<path d="M36.3397 9.51127C35.3413 9.60915 34.319 9.44602 33.4011 9.04362C33.375 9.80601 33.2379 10.5651 32.9943 11.2873C32.9214 11.4983 32.8399 11.7104 32.6941 11.8778C32.4668 12.141 32.1221 12.2628 31.7958 12.3803C28.6897 13.4885 25.7532 15.1939 23.5052 17.6094C22.5275 17.4452 21.5399 17.2787 20.5492 17.3223C20.4187 17.3277 20.2849 17.3375 20.1533 17.3494C20.4719 8.59119 22.5318 1.35554 26.8973 0.853081C29.426 0.720396 32.9084 3.07935 37.0923 7.27848C36.6627 7.94734 36.3941 8.71952 36.3397 9.51127Z" fill="#8E3410"/>
<path d="M76.7157 23.8034C79.6138 27.6252 82.4478 32.0515 84.6065 36.8301H84.6085C85.2428 38.2355 85.8211 39.6721 86.3252 41.1328C91.9427 29.9463 93.4656 20.7414 92.1104 16.511C91.6438 15.0573 89.9873 14.3546 88.617 15.0222C84.8524 16.8644 81.4992 19.3832 78.3627 22.2523C77.8061 22.7573 77.2589 23.2753 76.7157 23.8034Z" fill="#FFDAB6"/>
<path d="M38.668 19.3446C34.9656 22.3938 31.1845 26.0458 27.9802 30.196H27.9781C27.0365 31.4165 26.1421 32.681 25.3137 33.9844C22.4344 21.8024 23.0793 12.4955 25.3756 8.69246C26.1662 7.38597 27.9403 7.08505 29.1189 8.05181C32.3557 10.713 35.0358 13.9394 37.4244 17.4551C37.8491 18.0759 38.2622 18.7061 38.668 19.3446Z" fill="#FFDAB6"/>
<path d="M14.1097 57.5472C14.0688 61.7511 17.0122 65.0287 23.2378 67.2891C40.6806 83.9988 59.8174 86.2428 80.6482 74.022C87.2284 73.2606 90.8499 70.7525 91.782 66.6525C90.8274 66.2108 89.6669 66.1407 88.4048 66.2573C91.0006 63.6608 92.6561 61.1955 93.1553 58.8259C92.5225 58.5964 91.7661 58.4871 90.9155 58.5226L89.9543 58.62L89.9313 58.6219C89.6394 58.6601 89.347 58.7011 89.0547 58.743C87.2169 58.9971 85.4517 59.3022 84.3237 60.0052C84.6231 58.6756 84.7823 57.2813 84.7863 55.8442C84.8049 46.7626 78.5526 39.3867 70.8179 39.3676C63.0832 39.3521 56.7966 46.6997 56.7756 55.7804C56.7756 55.7914 56.7756 55.8023 56.7756 55.8132C56.7747 57.4534 55.3686 58.7357 53.7393 58.5444L52.733 58.427C51.1046 58.2357 50.0336 56.6629 50.4107 55.0673C50.4134 55.0573 50.4152 55.0464 50.418 55.0364C52.4962 46.1961 48.0793 37.5944 40.5495 35.8222C33.0207 34.0527 25.2304 39.7838 23.1522 48.6232C22.8234 50.0257 22.6559 51.4181 22.6422 52.7815L22.624 52.7769C21.5402 51.6831 19.5039 50.9127 17.4876 50.1349L14.5779 49.808C14.5751 52.1831 15.6133 54.9007 17.4867 57.9425C16.2854 57.5372 15.1407 57.3368 14.1097 57.5472Z" fill="#FFDAB6"/>
<path d="M55.6162 80.6172C60.9842 80.6172 66.4731 79.5847 72.0838 77.519C74.7973 76.417 77.5372 75.0543 80.3031 73.4325C80.3847 73.3838 80.4754 73.3531 80.569 73.3432C85.0812 72.8215 88.1359 71.4985 89.8096 69.3253C87.9938 70.0698 85.6353 70.5482 82.7112 70.7494C73.9908 74.6897 65.502 76.6598 57.2434 76.6598C44.9822 76.6598 33.2282 72.3161 21.9832 63.6297C19.1864 62.7579 17.0033 61.7489 15.4086 60.6055C16.5358 63.1054 19.2018 65.098 23.4696 66.6476C23.5581 66.6801 23.6393 66.7306 23.7079 66.7956C26.0246 69.0148 28.3765 70.975 30.7626 72.6753C38.7379 77.9702 47.0209 80.6172 55.6162 80.6172Z" fill="#D9A894"/>
<path d="M90.9656 67.079C89.8808 70.6135 86.4719 72.6665 80.5696 73.349C80.476 73.3594 80.3854 73.39 80.3037 73.4381C59.8643 85.429 40.8234 83.1968 23.7082 66.8016C23.6405 66.7361 23.5586 66.6858 23.4701 66.6531C17.8856 64.6259 15.0436 61.8397 14.8045 58.1501C15.4969 58.1206 16.3095 58.267 17.2685 58.5903C17.5383 58.682 17.8397 58.5936 18.0178 58.3697C18.1958 58.1458 18.2155 57.8334 18.0647 57.5887C16.3052 54.7315 15.3877 52.3308 15.2697 50.2697C16.1796 50.2981 17.203 50.5963 18.269 51.1468C18.4634 51.2473 18.6928 51.2484 18.8872 51.1501C19.0816 51.0518 19.217 50.8672 19.2531 50.652C19.9423 46.4273 21.1961 42.6122 23.0846 38.9893C23.1643 38.8385 23.1829 38.6627 23.1381 38.4978C20.069 27.1365 19.7588 9.82583 23.9398 3.6646C24.807 2.3867 25.8261 1.66802 26.9696 1.52931C30.3959 1.38295 36.3354 6.53934 44.6385 16.8816C44.7936 17.0727 45.0372 17.1667 45.2818 17.1262C54.035 15.655 62.6187 16.6631 70.7949 20.1211C71.0211 20.2172 71.2825 20.1834 71.4772 20.0316C75.2305 17.112 78.5626 14.7485 81.3807 13.0064C86.464 9.86298 90.1095 8.57524 92.2162 9.17924C95.5113 10.3982 96.3693 16.685 94.5095 26.0082C93.1424 32.8597 90.484 40.3447 87.3991 46.0319C87.3181 46.1826 87.296 46.3574 87.3375 46.5234C88.3338 50.4663 88.6732 54.4464 88.3769 58.6864C88.3749 58.7039 88.3738 58.7192 88.3728 58.7356C88.3488 58.9573 88.4344 59.1724 88.6017 59.3188C88.7689 59.4652 88.9972 59.5187 89.2129 59.4641C89.4767 59.3985 89.7476 59.3439 90.0184 59.2991C90.0339 59.2981 90.0509 59.2959 90.06 59.2948C90.3509 59.2489 90.6491 59.2183 90.9461 59.2052C91.4452 59.1845 91.9098 59.2183 92.3328 59.3035C91.7441 61.2804 90.2953 63.407 87.9233 65.7804C87.7206 65.9825 87.6669 66.2905 87.7886 66.5493C87.9107 66.8093 88.1851 66.9644 88.467 66.9382C89.4748 66.8442 90.2988 66.8901 90.9656 67.079ZM55.1088 82.4453C63.3907 82.4457 72.033 79.8441 80.8689 74.6831C87.5438 73.8806 91.4387 71.2312 92.4444 66.8071C92.5155 66.4947 92.3588 66.1736 92.0675 66.0393C91.4812 65.7673 90.8034 65.6056 90.0174 65.551C92.1361 63.2038 93.3841 61.0401 93.8202 58.9693C93.8902 58.6373 93.7051 58.3052 93.3866 58.1894C92.6527 57.924 91.8106 57.8083 90.887 57.8465C90.5435 57.8618 90.2021 57.8956 89.8687 57.9481C89.8517 57.9502 89.8331 57.9513 89.8227 57.9535C89.8091 57.9557 89.7961 57.9579 89.7826 57.9601C89.9879 53.9582 89.638 50.1867 88.7203 46.4481C91.8131 40.6768 94.4695 33.159 95.8436 26.2747C97.8798 16.0646 96.7193 9.36491 92.6597 7.89369C92.6467 7.88932 92.6332 7.88495 92.6196 7.88058C90.0945 7.14005 86.1841 8.43653 80.6657 11.8497C77.8858 13.5678 74.6202 15.8767 70.9561 18.7154C62.7719 15.3295 54.1951 14.3225 45.45 15.7206C36.7341 4.90865 30.8175 -0.0336609 26.8779 0.171677C26.8626 0.172768 26.8495 0.173866 26.8353 0.176048C25.2723 0.355179 23.919 1.27264 22.8137 2.90115C18.3356 9.50036 18.6676 26.9268 21.7575 38.5961C19.998 42.0246 18.7856 45.6191 18.0625 49.5522C16.8032 49.029 15.5876 48.8193 14.5041 48.9416C14.1644 48.9809 13.9055 49.2671 13.9012 49.61L13.9001 49.6898C13.8979 49.728 13.8979 49.7673 13.8979 49.8055V49.811C13.8957 51.8764 14.6111 54.2006 16.0802 56.8831C15.3036 56.7543 14.6068 56.7543 13.9733 56.8842C13.6587 56.9476 13.4315 57.2228 13.4282 57.5439C13.3857 62.081 16.5618 65.5587 22.8705 67.8829C31.6301 76.242 40.9566 81.0531 50.5922 82.183C52.0842 82.3581 53.5915 82.4453 55.1088 82.4453Z" fill="#1E1E1E"/>
<path d="M89.7153 15.4571C89.9611 15.4571 90.2069 15.5064 90.4392 15.606C90.9288 15.8143 91.3023 16.2228 91.464 16.7269C92.6444 20.4116 91.504 28.772 86.4187 39.4075C86.0567 38.4637 85.6593 37.5108 85.2297 36.5579C85.2217 36.5418 85.2137 36.5257 85.2052 36.5096C83.3159 32.338 80.7662 28.0919 77.6217 23.883C78.0457 23.4765 78.4408 23.1082 78.8207 22.7631C82.2745 19.6036 85.5767 17.2753 88.9168 15.6412C89.1682 15.5185 89.4414 15.4571 89.7153 15.4571ZM86.3266 41.8203C86.5819 41.8203 86.8177 41.6764 86.9338 41.446C92.0808 31.1959 94.3671 21.3303 92.7592 16.3114C92.4767 15.432 91.8255 14.7186 90.9729 14.3543C90.1188 13.9901 89.1522 14.0132 88.32 14.4187C84.8608 16.1111 81.454 18.5119 77.9046 21.7579C77.3895 22.2258 76.8452 22.7379 76.243 23.3225C75.9962 23.562 75.9671 23.9473 76.1744 24.221C79.4375 28.5245 82.0658 32.8632 83.9872 37.1184C83.9947 37.1335 84.0027 37.1496 84.0112 37.1657C84.646 38.5753 85.2087 39.988 85.6833 41.3625C85.7729 41.6211 86.0082 41.8012 86.281 41.8193C86.2961 41.8203 86.3111 41.8203 86.3266 41.8203Z" fill="#1E1E1E"/>
<mask id="mask6_16333_14137" style="mask-type:luminance" maskUnits="userSpaceOnUse" x="76" y="21" width="12" height="16">
<path d="M76.7164 23.8082C79.6145 27.6304 82.4486 32.057 84.6073 36.8359H84.6093C86.3384 32.9851 85.6355 29.5754 83.4849 26.427C84.766 25.9313 86.2583 25.9759 87.8418 26.2527C85.962 22.5611 82.802 21.228 78.3635 22.2578C77.8068 22.7629 77.2596 23.281 76.7164 23.8082Z" fill="white"/>
</mask>
<g mask="url(#mask6_16333_14137)">
<path d="M76.7164 23.8085C79.6145 27.6311 82.4485 32.0568 84.6072 36.8359H84.6092C86.3385 32.9857 85.6355 29.5758 83.4849 26.4274C84.766 25.9314 86.2583 25.9764 87.8418 26.2532C85.9619 22.5609 82.802 21.228 78.3634 22.2573C77.8067 22.7629 77.2596 23.2809 76.7164 23.8085Z" fill="url(#paint0_linear_16333_14137)"/>
</g>
<path d="M85.731 25.3683C84.7882 25.3683 83.9728 25.5093 83.2393 25.7934C83.0456 25.8678 82.8964 26.0273 82.8349 26.2254C82.7738 26.4235 82.8058 26.6399 82.923 26.8109C84.8038 29.5639 85.3364 32.2821 84.5334 35.0796C82.7266 31.369 80.4078 27.611 77.6213 23.8811C77.9963 23.5217 78.3492 23.1922 78.6882 22.882C82.2215 22.106 84.8043 22.9312 86.5414 25.4001C86.2611 25.3789 85.9913 25.3683 85.731 25.3683ZM84.6071 37.5156C84.8729 37.5156 85.1192 37.361 85.2298 37.1146C86.8103 33.5953 86.59 30.222 84.551 26.8303C85.4151 26.6679 86.4468 26.6998 87.7244 26.923C87.9782 26.9675 88.235 26.8641 88.3883 26.6573C88.5414 26.4505 88.5644 26.1742 88.4473 25.9442C86.4158 21.9543 82.972 20.4904 78.2096 21.5958C78.0964 21.6219 77.9922 21.676 77.9061 21.7543C77.389 22.2239 76.8449 22.7361 76.2426 23.3207C75.9958 23.5603 75.9668 23.9459 76.1741 24.2193C79.4371 28.5232 82.0654 32.861 83.9868 37.1156C84.0869 37.3369 84.2976 37.4886 84.5389 37.5127C84.5619 37.5147 84.5845 37.5156 84.6071 37.5156Z" fill="#1E1E1E"/>
<path d="M27.4716 29.7315C27.4611 29.7441 27.4495 29.7578 27.439 29.7704C26.8011 30.5975 26.1947 31.433 25.6241 32.2685C23.1344 20.7459 23.9573 12.3478 25.9572 9.03524C26.2304 8.58228 26.6887 8.27121 27.2131 8.18083C27.7417 8.09044 28.2766 8.23232 28.6865 8.56862C31.5587 10.9301 34.2324 13.9589 36.8618 17.8285C37.1529 18.2541 37.4525 18.7039 37.7709 19.1968C33.7374 22.5662 30.2745 26.1089 27.4716 29.7315ZM25.314 34.6562C25.5431 34.6562 25.7617 34.5385 25.8878 34.3399C26.6687 33.1093 27.5431 31.866 28.4858 30.6406C28.4973 30.628 28.5079 30.6154 28.5184 30.6028C31.3717 26.9076 34.9312 23.2934 39.1003 19.861C39.3662 19.6424 39.4261 19.2599 39.2412 18.9709C38.7914 18.2636 38.3804 17.6393 37.9853 17.0624C35.2833 13.0856 32.5246 9.96218 29.5504 7.51663C28.8336 6.9302 27.8973 6.68428 26.984 6.84087C26.0697 6.99746 25.2709 7.54079 24.7928 8.33216C22.0687 12.8428 22.013 22.9708 24.6509 34.1329C24.7139 34.3977 24.9304 34.6006 25.2005 34.6468C25.2384 34.6531 25.2762 34.6562 25.314 34.6562Z" fill="#1E1E1E"/>
<mask id="mask7_16333_14137" style="mask-type:luminance" maskUnits="userSpaceOnUse" x="27" y="16" width="12" height="15">
<path d="M38.668 19.3443C34.9648 22.3931 31.1846 26.0446 27.9801 30.1953L27.9776 30.1948C27.1857 26.0486 28.6575 22.8937 31.4775 20.3275C30.3456 19.549 28.8838 19.2477 27.2793 19.151C29.9611 15.9941 33.3433 15.4269 37.4239 17.4549C37.8489 18.0752 38.2615 18.7055 38.668 19.3443Z" fill="white"/>
</mask>
<g mask="url(#mask7_16333_14137)">
<path d="M38.668 19.3434C34.965 22.3925 31.1847 26.0439 27.9798 30.1953L27.9778 30.1943C27.185 26.0478 28.6575 22.8936 31.4774 20.3277C30.3452 19.5488 28.8837 19.2472 27.2793 19.1509C29.9613 15.9937 33.3427 15.4271 37.4237 17.4542C37.8484 18.0744 38.2612 18.7054 38.668 19.3434Z" fill="url(#paint1_linear_16333_14137)"/>
</g>
<path d="M37.7722 19.2047C34.1991 22.1907 31.0738 25.3109 28.4586 28.5033C28.3243 25.5955 29.4716 23.0734 31.9366 20.8309C32.0899 20.6907 32.172 20.4883 32.158 20.2819C32.143 20.0744 32.0358 19.8851 31.8644 19.7668C31.0378 19.1987 30.0257 18.825 28.7422 18.6225C31.0027 16.6216 33.7061 16.4161 36.9646 17.9863C37.2231 18.367 37.4906 18.7698 37.7722 19.2047ZM27.9797 30.875C28.1891 30.875 28.3895 30.7788 28.5197 30.6105C31.3724 26.9151 34.9325 23.3019 39.1019 19.869C39.3674 19.6506 39.4275 19.2688 39.2431 18.9793C38.7922 18.2718 38.3814 17.6476 37.9866 17.0704C37.9215 16.9743 37.8323 16.8971 37.7281 16.845C33.3504 14.6707 29.661 15.2979 26.7622 18.7107C26.5949 18.9071 26.5538 19.1807 26.655 19.4181C26.7562 19.6546 26.9817 19.8149 27.2392 19.83C28.5338 19.9081 29.5448 20.1155 30.3474 20.4732C27.5809 23.3019 26.5869 26.5323 27.3113 30.3229C27.3674 30.6155 27.6069 30.8379 27.9035 30.871C27.9296 30.874 27.9546 30.875 27.9797 30.875Z" fill="#1E1E1E"/>
<path d="M88.3706 48.6641C88.4207 48.6641 88.4707 48.6589 88.5213 48.6469C88.8877 48.5639 89.1176 48.1999 89.0349 47.8334C88.2816 44.499 87.2447 41.6766 86.242 38.9467C86.1128 38.5939 85.7203 38.4141 85.3694 38.5425C85.017 38.6727 84.8358 39.0631 84.9654 39.4159C85.9531 42.1047 86.9744 44.8852 87.7083 48.134C87.7794 48.4491 88.0602 48.6641 88.3706 48.6641Z" fill="#1E1E1E"/>
<path d="M21.809 40.875C22.0607 40.875 22.3024 40.7348 22.4202 40.4939C23.8834 37.5045 25.4474 35.1442 27.103 32.6455C27.3115 32.3327 27.2252 31.9103 26.9124 31.7036C26.5996 31.4951 26.1772 31.5814 25.9696 31.8941C24.3625 34.3191 22.7015 36.8259 21.1987 39.8953C21.0333 40.2333 21.1735 40.6395 21.5106 40.8049C21.6068 40.8525 21.7083 40.875 21.809 40.875Z" fill="#1E1E1E"/>
<path d="M64.3086 54.8476C63.889 58.4077 66.0482 61.5871 69.1316 61.9504C72.2142 62.3137 75.0525 59.7214 75.4713 56.162C75.8909 52.6019 73.7317 49.4217 70.6483 49.0592C67.5665 48.6959 64.7275 51.2875 64.3086 54.8476Z" fill="#1E1E1E"/>
<path d="M66.7736 53.2452C66.6233 54.5171 67.3165 55.6449 68.322 55.7633C69.3276 55.8817 70.2638 54.9463 70.4133 53.6736C70.5628 52.4017 69.8697 51.2739 68.8649 51.1555C67.8594 51.0371 66.9232 51.9726 66.7736 53.2452Z" fill="white"/>
<path d="M71.613 59.4844C72.1406 59.4844 72.6301 58.8598 72.7264 58.0389C72.8279 57.1777 72.4585 56.427 71.9018 56.3613C71.8764 56.3583 71.8503 56.3568 71.8242 56.3568C71.2966 56.3568 70.807 56.9814 70.7108 57.8016C70.6093 58.6627 70.9787 59.4142 71.5354 59.4799C71.5615 59.4829 71.5876 59.4844 71.613 59.4844Z" fill="white" fill-opacity="0.2"/>
<path d="M43.2782 52.3899C42.8626 55.9502 40.0265 58.5454 36.9439 58.1854C33.8604 57.8262 31.6978 54.6488 32.1134 51.0886C32.5281 47.5276 35.3634 44.9331 38.4468 45.2923C41.5295 45.6515 43.6929 48.8297 43.2782 52.3899Z" fill="#1E1E1E"/>
<path d="M41.2495 50.2572C41.1007 51.5297 40.1665 52.4663 39.1611 52.3495C38.1557 52.2328 37.4607 51.1058 37.6095 49.8333C37.7582 48.5608 38.6932 47.6242 39.6986 47.7409C40.7032 47.8585 41.3982 48.9847 41.2495 50.2572Z" fill="white"/>
<path d="M35.2551 55.2266C35.7831 55.2266 36.2717 54.6018 36.3677 53.7802C36.4685 52.9194 36.0986 52.1687 35.5415 52.1042C35.5155 52.101 35.4896 52.0995 35.4644 52.0995C34.9364 52.0995 34.4469 52.7242 34.3517 53.5458C34.251 54.4066 34.6208 55.1573 35.178 55.2218C35.2039 55.225 35.2299 55.2266 35.2551 55.2266Z" fill="white" fill-opacity="0.2"/>
<path d="M75.3883 34.1508C73.1214 33.4764 70.9347 33.1938 68.8824 33.5691C68.353 33.6663 67.8089 33.4333 67.5593 32.958C66.2372 30.4449 68.3154 28.4741 70.9302 28.4447C71.6937 28.4364 72.4456 28.6291 73.146 28.9328C75.4258 29.9237 76.5702 31.2441 76.9257 32.6479C77.1615 33.5764 76.3065 34.4251 75.3883 34.1508Z" fill="#FFDAB6"/>
<path d="M38.4121 29.8265C40.7728 29.6933 42.9666 29.924 44.8762 30.7635C45.3686 30.9801 45.951 30.8798 46.3056 30.4746C48.172 28.3352 46.6047 25.937 44.0677 25.3048C43.3267 25.1201 42.5511 25.1332 41.7998 25.2673C39.3528 25.7044 37.9338 26.7248 37.2632 28.0079C36.8195 28.8567 37.4554 29.8799 38.4121 29.8265Z" fill="#FFDAB6"/>
<path d="M52.8629 61.1731L52.9424 61.1953L52.9453 61.1695L52.8629 61.1731Z" fill="#00046A"/>
<path d="M52.7864 61.1617L52.7828 61.1875L52.8638 61.1832L52.7864 61.1617Z" fill="#00046A"/>
<path d="M47.6854 61.4957C48.1418 63.0451 48.1083 68.4298 52.3271 68.9C56.546 69.3708 57.7009 64.1113 58.4876 62.698C59.5618 60.7658 53.3991 60.5409 53.2616 60.5358H53.2594C53.1349 60.5118 47.0632 59.3706 47.6854 61.4957Z" fill="#00046A"/>
<path d="M47.6844 61.4958C47.9384 62.3553 48.041 64.3915 48.8007 66.1171C49.4121 67.5049 50.4469 68.6904 52.3275 68.9C54.2109 69.1103 55.4837 68.1759 56.3847 66.9547C57.504 65.4402 58.0542 63.4789 58.4879 62.6981C59.5606 60.7651 53.3994 60.541 53.2612 60.5352H53.2597C53.1353 60.5111 47.0621 59.37 47.6844 61.4958Z" fill="#1E1E1E"/>
<path d="M48.801 66.1172C49.4122 67.5048 50.4474 68.6901 52.3276 68.9001C54.2112 69.1101 55.4836 68.1759 56.3843 66.9551C55.6092 65.8047 54.2942 65.1454 52.7008 65.6031C51.2413 64.8057 49.8105 65.1601 48.801 66.1172Z" fill="#FF8080"/>
<path d="M51.9194 65.2864C52.4802 65.5056 52.6447 66.0781 52.6447 66.0781C52.6447 66.0781 52.931 65.5561 53.5264 65.4655L52.7312 65.3016L51.9194 65.2864Z" fill="#1E1E1E"/>
<path d="M50.0244 60.773C50.9619 60.773 52.1165 60.8904 53.1539 61.0872C53.1655 61.0901 53.1779 61.0916 53.1896 61.0938C53.2056 61.0953 53.2238 61.0967 53.2399 61.0974C55.6294 61.1893 57.7325 61.6755 58.0299 62.2055C58.0452 62.2324 58.0715 62.2776 57.9927 62.4183C57.8338 62.7048 57.672 63.1043 57.4846 63.5679C56.44 66.1506 55.184 68.6459 52.3899 68.3331C49.5958 68.0219 48.9222 65.3138 48.4725 62.567C48.3915 62.0735 48.3208 61.6463 48.229 61.3314C48.1838 61.1769 48.2188 61.1383 48.2406 61.1142C48.4564 60.8766 49.1438 60.773 50.0244 60.773ZM52.8586 69.4922C56.3088 69.4922 57.7442 65.9458 58.5343 63.9929C58.7078 63.5642 58.8573 63.1939 58.9827 62.9694C59.232 62.5211 59.2436 62.0524 59.0169 61.65C58.2639 60.3109 54.8159 60.0273 53.3252 59.9668C52.1537 59.7474 48.4754 59.1701 47.4023 60.3532C47.0903 60.6972 46.9978 61.1572 47.1421 61.6507V61.6514C47.215 61.8986 47.2799 62.2929 47.3542 62.75C47.7136 64.9434 48.3835 69.0257 52.2645 69.4587C52.4686 69.4813 52.6669 69.4922 52.8586 69.4922Z" fill="#1E1E1E"/>
<path d="M46.2328 58.1486C46.2328 58.1486 46.5169 61.2425 48.2285 62.2099C49.9987 63.2104 51.6727 62.3257 52.6168 61.7461C52.9603 61.5356 53.1858 61.1793 53.2301 60.7794L53.4609 58.7116H53.4639L53.2331 60.7794C53.1888 61.1793 53.3301 61.577 53.6188 61.8581C54.4118 62.6308 55.8505 63.8628 57.7973 63.2765C59.6795 62.7098 60.6387 59.7542 60.6387 59.7542C60.6387 59.7542 59.2706 56.6971 53.7571 56.0822C48.2435 55.4681 46.2328 58.1486 46.2328 58.1486Z" fill="#FFDAB6"/>
<path d="M53.0888 58.6703C52.8745 59.1744 52.7183 59.685 52.5943 60.1993L52.5077 60.586C52.3632 61.1811 52.4769 61.8524 52.8892 62.3315C54.1255 63.6632 56.1234 64.6339 57.9181 63.873C59.6188 63.209 60.3643 61.4048 60.6387 59.7547C59.8587 60.9749 58.9842 62.3851 57.5828 62.7064C56.2768 62.9354 55.1454 62.2024 54.2679 61.2999C54.1505 61.1678 54.0037 61.0468 53.9839 60.8501C53.9935 60.1502 53.9692 59.4568 53.8394 58.7539C53.8005 58.5397 53.5958 58.3974 53.3815 58.4362C53.2465 58.4612 53.1394 58.5536 53.0888 58.6703Z" fill="#1E1E1E"/>
<path d="M53.085 58.673C52.8034 59.3296 52.6269 60.0009 52.4821 60.6854C52.4188 60.8736 52.2497 60.9589 52.1056 61.0626C51.7637 61.2728 51.3991 61.4831 51.0329 61.6316C48.2074 62.7492 47.0229 60.5552 46.2318 58.1517C46.1509 59.2502 46.298 60.3538 46.7796 61.375C47.2692 62.4764 48.4882 63.3072 49.7404 63.4065C51.0079 63.5146 52.1924 63.0411 53.2232 62.3713C53.7312 61.9948 53.99 61.3655 53.9797 60.7538L53.9805 60.3575C53.9731 59.8281 53.9327 59.2958 53.8349 58.7568C53.7724 58.3753 53.2269 58.3201 53.085 58.673Z" fill="#1E1E1E"/>
<path d="M49.7871 56.5706C50.2902 58.6999 53.296 60.2031 53.296 60.2031C53.296 60.2031 56.5574 59.3983 57.5176 57.4327C58.2025 56.026 54.5428 55.3758 53.842 55.2981C53.1421 55.2197 49.4281 55.0477 49.7871 56.5706Z" fill="#1E1E1E"/>
<path d="M54.1624 56.5781C54.5724 56.5781 55.1417 56.5203 55.3625 56.2259C55.6194 55.8804 54.0978 55.6491 53.8072 55.6168C53.69 55.604 53.3686 55.5778 53.0396 55.5778C52.5544 55.5778 52.0528 55.6341 52.1571 55.8684C52.4027 56.4197 53.7028 56.5548 53.7028 56.5548C53.7028 56.5548 53.9003 56.5781 54.1624 56.5781Z" fill="#B38A97"/>
<path d="M56.1255 81.7637L50.9168 85.5447C49.5361 85.6254 48.2234 85.5661 47.0107 85.3003C46.6849 83.7546 46.359 82.2089 46.0339 80.6625C47.501 80.9662 49.111 81.2349 50.851 81.4314C52.7468 81.6458 54.5141 81.7423 56.1255 81.7637Z" fill="#D84545"/>
<path d="M49.3079 85.5724C49.3029 85.5724 49.298 85.5725 49.2937 85.5717C49.2987 85.5725 49.3029 85.5724 49.3079 85.5724ZM49.2179 85.5689C49.2122 85.5689 49.2065 85.5689 49.2016 85.5689C49.2072 85.5689 49.2122 85.5689 49.2179 85.5689ZM49.1059 85.5647C49.1002 85.5647 49.0938 85.5639 49.0874 85.5639C49.0938 85.5639 49.0995 85.5647 49.1059 85.5647ZM47.0113 85.3024C47.0049 85.2698 46.9978 85.2372 46.9907 85.2046C46.9858 85.2329 46.9815 85.2627 46.9766 85.2946C46.9879 85.2974 46.9993 85.2996 47.0113 85.3024Z" fill="#D9A894"/>
<path d="M56.0816 81.765C55.1964 81.7529 54.2629 81.716 53.2886 81.6517L53.2879 81.6524C54.2629 81.7174 55.1957 81.7529 56.0816 81.765Z" fill="#1E1E1E"/>
<path d="M49.8099 85.5781C50.1735 85.5781 50.542 85.5661 50.917 85.5448L56.1255 81.7637C56.1198 81.7637 56.1134 81.7637 56.1071 81.7637C56.1035 81.7637 56.1007 81.7637 56.0971 81.7637C56.0929 81.763 56.0893 81.763 56.0851 81.763C56.0837 81.763 56.083 81.763 56.0808 81.763C55.1956 81.7502 54.2622 81.7155 53.2877 81.6503L51.6165 82.8629C50.5399 83.6447 49.2472 84.0671 47.9275 84.0671C47.7071 84.0671 47.486 84.0551 47.2648 84.0317C47.2344 84.0281 47.2039 84.0246 47.1727 84.021C47.0522 84.7971 47.0969 84.5108 46.9898 85.2025C46.9969 85.2351 47.004 85.2677 47.0111 85.3003C47.0111 85.3003 47.0111 85.3003 47.0118 85.301C47.6794 85.4236 48.34 85.5115 48.9913 85.5576C48.992 85.5576 48.9934 85.5576 48.9942 85.5576C48.9949 85.5576 48.9956 85.5576 48.9956 85.5576C49.0027 85.5576 49.009 85.5583 49.0161 85.559C49.0168 85.559 49.0175 85.559 49.0183 85.559C49.0253 85.559 49.0317 85.559 49.0388 85.5597C49.0395 85.5597 49.0402 85.5597 49.0409 85.5597C49.0473 85.5604 49.0544 85.5604 49.0608 85.5604C49.0622 85.5604 49.0629 85.5604 49.0636 85.5604C49.07 85.5611 49.0764 85.5618 49.0827 85.5618C49.0842 85.5618 49.0856 85.5618 49.0863 85.5625C49.0927 85.5625 49.0998 85.5625 49.1054 85.5625C49.1061 85.5625 49.1083 85.5625 49.109 85.5632C49.1146 85.5632 49.1217 85.564 49.1274 85.564C49.1288 85.564 49.1302 85.564 49.1317 85.564C49.138 85.564 49.1437 85.5647 49.1501 85.5647C49.1515 85.5647 49.1529 85.5647 49.1543 85.5647C49.1607 85.5654 49.1664 85.5654 49.1721 85.5661C49.1742 85.5661 49.1763 85.5661 49.1784 85.5661C49.1834 85.5661 49.1891 85.5661 49.1947 85.5668C49.1969 85.5668 49.199 85.5668 49.2011 85.5668C49.2061 85.5668 49.2117 85.5675 49.2174 85.5675C49.2188 85.5675 49.2217 85.5675 49.2238 85.5675C49.2295 85.5675 49.2344 85.5675 49.2394 85.5682C49.2422 85.5682 49.2443 85.5682 49.2465 85.5682C49.2514 85.5689 49.2564 85.5689 49.2621 85.5689C49.2649 85.5696 49.267 85.5696 49.2699 85.5696C49.2748 85.5696 49.2798 85.5696 49.284 85.5696C49.2869 85.5696 49.2904 85.5696 49.2925 85.5696C49.2975 85.5703 49.3025 85.5703 49.3074 85.5703C49.3103 85.5703 49.3131 85.571 49.3159 85.571C49.3209 85.571 49.3244 85.571 49.3294 85.571C49.3329 85.571 49.3358 85.571 49.3386 85.571C49.3436 85.571 49.3478 85.5718 49.3521 85.5718C49.3556 85.5718 49.3584 85.5717 49.362 85.5725C49.3662 85.5725 49.3705 85.5725 49.3747 85.5725C49.3783 85.5725 49.3818 85.5725 49.3854 85.5725C49.3896 85.5725 49.3932 85.5725 49.3974 85.5725C49.4017 85.5732 49.4045 85.5732 49.4081 85.5732C49.4123 85.5732 49.4166 85.5732 49.4201 85.5732C49.4237 85.5739 49.4279 85.5739 49.4322 85.5739C49.4357 85.5739 49.4392 85.5739 49.4421 85.5746C49.447 85.5746 49.4513 85.5746 49.4555 85.5746C49.4591 85.5746 49.4619 85.5746 49.4655 85.5746C49.4697 85.5746 49.4747 85.5746 49.4789 85.5746C49.4818 85.5746 49.4853 85.5746 49.4881 85.5746C49.4931 85.5753 49.4981 85.5753 49.503 85.5753C49.5052 85.5753 49.508 85.5753 49.5108 85.5753C49.5158 85.5753 49.5215 85.576 49.5264 85.576C49.5293 85.576 49.5307 85.576 49.5335 85.576C49.5392 85.576 49.5456 85.576 49.5512 85.576C49.5534 85.576 49.5548 85.576 49.5562 85.576C49.5626 85.576 49.5697 85.576 49.576 85.576C49.5767 85.576 49.5782 85.576 49.5789 85.576C49.6554 85.5781 49.7327 85.5781 49.8099 85.5781Z" fill="#B02A2A"/>
<path d="M50.7251 85.5739L47.7432 108.243L40.1754 113.125L36.7584 106.778L47.011 85.2962C48.2794 85.5299 49.52 85.6364 50.7251 85.5739Z" fill="#D84545"/>
<path d="M50.039 85.5938C50.2686 85.5938 50.4968 85.5889 50.7236 85.5771C50.5038 85.5882 50.2825 85.5938 50.0599 85.5938C49.7426 85.5938 49.4225 85.5826 49.1004 85.5617V85.5638C49.4156 85.5833 49.728 85.5938 50.039 85.5938Z" fill="#D9A894"/>
<path d="M40.175 113.125L47.7418 108.243L50.7236 85.5742C50.4961 85.5856 50.2679 85.5909 50.0388 85.5909C49.7282 85.5909 49.4153 85.581 49.1001 85.5606L47.3593 98.8009C46.673 104.016 43.7297 108.666 39.3095 111.518L40.175 113.125Z" fill="#B02A2A"/>
<path d="M50.7038 84.9523C49.5161 85.0112 48.4706 84.9573 47.525 84.7877L46.8216 81.4473C48.1322 81.6952 49.4615 81.8957 50.7821 82.0451C51.9526 82.1773 53.136 82.2714 54.3201 82.3268L50.7038 84.9523ZM49.8035 86.1953C50.1735 86.1953 50.5558 86.1838 50.9517 86.1608C51.0681 86.1544 51.1802 86.1141 51.2743 86.0451L56.4836 82.2643C56.697 82.1098 56.7868 81.8367 56.7071 81.586C56.6273 81.3352 56.3967 81.1635 56.1337 81.1606C54.3963 81.1369 52.6424 81.0262 50.9193 80.8315C49.3278 80.6519 47.7262 80.3961 46.1584 80.072C45.955 80.0296 45.7467 80.0929 45.6015 80.2387C45.4564 80.3846 45.3946 80.5937 45.437 80.7956L46.4135 85.433C46.4623 85.6686 46.6448 85.8526 46.8798 85.9036C47.7722 86.099 48.7365 86.1953 49.8035 86.1953Z" fill="#1E1E1E"/>
<path d="M47.174 107.89L40.3992 112.261L37.4418 106.768L47.3616 85.9823C48.2983 86.1335 49.1784 86.2087 50.0259 86.2087L47.174 107.89ZM40.1752 113.742C40.2907 113.742 40.4062 113.709 40.5055 113.645L48.0735 108.763C48.2239 108.665 48.3247 108.507 48.3479 108.329L51.3286 85.6605C51.3526 85.4806 51.2953 85.2992 51.172 85.1666C51.0495 85.0332 50.8727 84.958 50.6928 84.9712C49.5839 85.0285 48.4139 84.9402 47.1205 84.7021C46.8491 84.654 46.5785 84.7913 46.4591 85.0402L36.2066 106.522C36.1229 106.697 36.1275 106.903 36.2198 107.074L39.6378 113.421C39.7184 113.571 39.858 113.68 40.0224 113.723C40.0728 113.736 40.124 113.742 40.1752 113.742Z" fill="#1E1E1E"/>
<defs>
<linearGradient id="paint0_linear_16333_14137" x1="18.8742" y1="-105.3" x2="-2.65715" y2="-107.822" gradientUnits="userSpaceOnUse">
<stop stop-color="#FF7F00"/>
<stop offset="0.672244" stop-color="#FF7F00"/>
<stop offset="1" stop-color="#E22B4B"/>
</linearGradient>
<linearGradient id="paint1_linear_16333_14137" x1="-84.0485" y1="-127.021" x2="-106.36" y2="-129.634" gradientUnits="userSpaceOnUse">
<stop stop-color="#FF7F00"/>
<stop offset="0.672244" stop-color="#FF7F00"/>
<stop offset="1" stop-color="#E22B4B"/>
</linearGradient>
</defs>
</svg>
