<svg width="1920" height="127" viewBox="0 0 1920 127" fill="none" xmlns="http://www.w3.org/2000/svg">
<path d="M193.018 24.2303C178.966 40.8493 160.764 53.0253 137.594 53.0253V86.8667H234.241H330.893V53.0253C307.723 53.0253 289.521 40.8493 275.469 24.2303C251.732 -3.83719 216.75 -3.83719 193.018 24.2303Z" fill="#4489E3"/>
<path d="M434.285 24.2303C420.233 40.8493 402.031 53.0253 378.861 53.0253V86.8667H475.508H572.155V53.0253C548.985 53.0253 530.783 40.8493 516.731 24.2303C493.003 -3.83719 458.021 -3.83719 434.285 24.2303Z" fill="#4489E3"/>
<path d="M675.556 24.2303C661.503 40.8493 643.301 53.0253 620.131 53.0253V86.8667H716.779H813.426V53.0253C790.256 53.0253 772.054 40.8493 758.002 24.2303C734.27 -3.83719 699.287 -3.83719 675.556 24.2303Z" fill="#4489E3"/>
<path d="M916.822 24.2303C902.77 40.8493 884.568 53.0253 861.398 53.0253V86.8667H958.045H1054.69V53.0253C1031.52 53.0253 1013.32 40.8493 999.268 24.2303C975.54 -3.83719 940.558 -3.83719 916.822 24.2303Z" fill="#4489E3"/>
<path d="M1158.09 24.2303C1144.04 40.8493 1125.84 53.0253 1102.67 53.0253V86.8667H1199.32H1295.96V53.0253C1272.79 53.0253 1254.59 40.8493 1240.54 24.2303C1216.81 -3.83719 1181.83 -3.83719 1158.09 24.2303Z" fill="#4489E3"/>
<path d="M1399.36 24.2303C1385.31 40.8493 1367.11 53.0253 1343.94 53.0253V86.8667H1440.58H1537.23V53.0253C1514.06 53.0253 1495.86 40.8493 1481.81 24.2303C1458.08 -3.83719 1423.1 -3.83719 1399.36 24.2303Z" fill="#4489E3"/>
<path d="M1640.63 24.2303C1626.58 40.8493 1608.38 53.0253 1585.21 53.0253V86.8667H1681.85H1778.5V53.0253C1755.33 53.0253 1737.13 40.8493 1723.08 24.2303C1699.35 -3.83719 1664.36 -3.83719 1640.63 24.2303Z" fill="#4489E3"/>
<path d="M1852.01 26.2738C1822.38 -8.75793 1778.81 -8.75793 1749.19 26.2738C1731.65 47.0134 1708.98 62.2107 1680.06 62.2107C1651.14 62.2107 1628.44 47.0134 1610.9 26.2738C1581.28 -8.75793 1537.62 -8.75793 1508 26.2738C1490.46 47.0134 1467.75 62.2107 1438.83 62.2107C1409.91 62.2107 1387.2 47.0134 1369.66 26.2738C1340.03 -8.75793 1296.37 -8.75793 1266.74 26.2738C1249.2 47.0134 1226.49 62.2107 1197.56 62.2107C1168.64 62.2107 1145.93 47.0134 1128.38 26.2738C1098.76 -8.75793 1055.09 -8.75793 1025.47 26.2738C1007.93 47.0134 985.212 62.2107 956.293 62.2107C927.374 62.2107 904.655 47.0134 887.114 26.2738C857.493 -8.75793 813.827 -8.75793 784.201 26.2738C766.661 47.0134 743.941 62.2107 715.022 62.2107C686.103 62.2107 663.384 47.0134 645.843 26.2738C616.222 -8.75793 572.556 -8.75793 542.93 26.2738C525.39 47.0134 502.67 62.2107 473.752 62.2107C444.833 62.2107 422.113 47.0134 404.573 26.2738C374.951 -8.75793 331.285 -8.75793 301.66 26.2738C284.119 47.0134 261.4 62.2107 232.481 62.2107C203.562 62.2107 180.842 47.0134 163.302 26.2738C133.68 -8.75793 91.8993 -8.75793 62.2777 26.2738C44.7495 47.0134 23.9313 62.2107 -5 62.2107V106.657H111.858H232.493H353.129H473.764H594.399H715.035H835.662H956.297H1076.93H1197.57H1318.2H1438.84H1559.47H1680.11H1800.74H1921V62.2107C1896.2 62.2107 1869.55 47.0134 1852.01 26.2738Z" fill="#266BC5"/>
<path d="M1852.01 47.1331C1822.38 12.289 1778.81 12.289 1749.19 47.1331C1731.65 67.7617 1708.98 82.8817 1680.06 82.8817C1651.14 82.8817 1628.44 67.7658 1610.9 47.1331C1581.28 12.289 1537.62 12.289 1508 47.1331C1490.46 67.7617 1467.75 82.8817 1438.83 82.8817C1409.91 82.8817 1387.2 67.7658 1369.66 47.1331C1340.03 12.289 1296.37 12.289 1266.74 47.1331C1249.2 67.7617 1226.49 82.8817 1197.56 82.8817C1168.64 82.8817 1145.93 67.7658 1128.38 47.1331C1098.76 12.289 1055.09 12.289 1025.47 47.1331C1007.93 67.7617 985.212 82.8817 956.293 82.8817C927.374 82.8817 904.655 67.7658 887.114 47.1331C857.493 12.289 813.827 12.289 784.201 47.1331C766.661 67.7617 743.941 82.8817 715.022 82.8817C686.103 82.8817 663.384 67.7658 645.843 47.1331C616.222 12.289 572.556 12.289 542.93 47.1331C525.39 67.7617 502.67 82.8817 473.752 82.8817C444.833 82.8817 422.113 67.7658 404.573 47.1331C374.951 12.289 331.285 12.289 301.66 47.1331C284.119 67.7617 261.4 82.8817 232.481 82.8817C203.562 82.8817 180.842 67.7658 163.302 47.1331C133.68 12.289 91.8993 12.289 62.2777 47.1331C44.7495 67.7617 23.9313 82.8775 -5 82.8775V127H111.858H232.493H353.129H473.764H594.399H715.035H835.662H956.297H1076.93H1197.57H1318.2H1438.84H1559.47H1680.11H1800.74H1921V82.8775C1896.2 82.8775 1869.55 67.7617 1852.01 47.1331Z" fill="#084DA7"/>
</svg>
