<svg width="68" height="15" viewBox="0 0 68 15" fill="none" xmlns="http://www.w3.org/2000/svg">
<path d="M2.25956 9.48068C2.25956 10.4476 2.52374 11.2066 3.05209 11.7575C3.58045 12.3084 4.28867 12.5839 5.17675 12.5839C6.0536 12.5839 6.75057 12.3141 7.26769 11.7744C7.7848 11.2234 8.04336 10.4589 8.04336 9.48068V2.95547C8.04336 2.72167 8.23285 2.53214 8.46661 2.53214H9.87966C10.1134 2.53214 10.3029 2.72167 10.3029 2.95547V9.48068C10.3029 10.5151 10.0949 11.409 9.67901 12.1623C9.27431 12.9043 8.68413 13.4778 7.90846 13.8825C7.14403 14.2873 6.23346 14.4897 5.17675 14.4897C4.1088 14.4897 3.18699 14.2873 2.41132 13.8825C1.63565 13.4778 1.03985 12.9043 0.623908 12.1623C0.207969 11.409 0 10.5151 0 9.48068V2.95547C0 2.72167 0.189497 2.53214 0.423253 2.53214H1.83631C2.07006 2.53214 2.25956 2.72167 2.25956 2.95547V9.48068Z" fill="#1E1E1E"/>
<path d="M15.3573 2.95547C15.3573 2.72167 15.5468 2.53214 15.7805 2.53214H17.1936C17.4273 2.53214 17.6168 2.72167 17.6168 2.95547V13.9146C17.6168 14.1484 17.4273 14.3379 17.1936 14.3379H15.7805C15.5468 14.3379 15.3573 14.1484 15.3573 13.9146V2.95547Z" fill="#1E1E1E"/>
<path d="M38.689 2.40752C39.577 2.40752 40.4033 2.55931 41.1677 2.86289C41.9322 3.16646 42.5954 3.59372 43.1575 4.14466C43.7308 4.69559 44.1749 5.33648 44.4896 6.06731C44.8156 6.7869 44.9786 7.57395 44.9786 8.42846C44.9786 9.27173 44.8156 10.0644 44.4896 10.8065C44.1749 11.5486 43.7308 12.1951 43.1575 12.746C42.5954 13.2969 41.9322 13.7298 41.1677 14.0446C40.4033 14.3482 39.577 14.5 38.689 14.5C37.8009 14.5 36.9746 14.3482 36.2102 14.0446C35.457 13.7298 34.7938 13.2969 34.2204 12.746C33.6471 12.1951 33.1974 11.5542 32.8714 10.8233C32.5567 10.0813 32.3993 9.28298 32.3993 8.42846C32.3993 7.57395 32.5567 6.78128 32.8714 6.05044C33.1974 5.31961 33.6471 4.68435 34.2204 4.14466C34.7938 3.59372 35.457 3.16646 36.2102 2.86289C36.9746 2.55931 37.8009 2.40752 38.689 2.40752ZM38.7227 4.31331C38.1718 4.31331 37.6547 4.42012 37.1714 4.63375C36.688 4.83614 36.2608 5.12847 35.8898 5.51075C35.5188 5.88179 35.2266 6.31467 35.013 6.80939C34.8106 7.3041 34.7094 7.8438 34.7094 8.42846C34.7094 9.01313 34.8162 9.55844 35.0298 10.0644C35.2434 10.5591 35.5357 10.9976 35.9067 11.3799C36.2776 11.7622 36.7048 12.0601 37.1882 12.2738C37.6716 12.4874 38.1831 12.5942 38.7227 12.5942C39.2623 12.5942 39.7682 12.4874 40.2403 12.2738C40.7237 12.0601 41.1453 11.7622 41.505 11.3799C41.8647 10.9976 42.1457 10.5591 42.3481 10.0644C42.5617 9.55844 42.6685 9.01313 42.6685 8.42846C42.6685 7.8438 42.5617 7.3041 42.3481 6.80939C42.1457 6.31467 41.8647 5.88179 41.505 5.51075C41.1453 5.12847 40.7237 4.83614 40.2403 4.63375C39.7682 4.42012 39.2623 4.31331 38.7227 4.31331Z" fill="#1E1E1E"/>
<path d="M51.8853 2.54245C53.4142 2.54245 54.5946 2.89662 55.4265 3.60496C56.2583 4.31331 56.6743 5.30837 56.6743 6.59014C56.6743 7.92812 56.2583 8.96815 55.4265 9.71023C54.5946 10.4523 53.4142 10.8233 51.8853 10.8233H49.6444C49.4106 10.8233 49.2211 11.0129 49.2211 11.2467V13.9249C49.2211 14.1587 49.0316 14.3482 48.7978 14.3482H47.3848C47.151 14.3482 46.9615 14.1587 46.9615 13.9249V2.96577C46.9615 2.73198 47.151 2.54245 47.3848 2.54245H51.8853ZM51.8853 8.95129C52.7285 8.95129 53.3805 8.76015 53.8414 8.37787C54.3023 7.99559 54.5327 7.41654 54.5327 6.64073C54.5327 5.89866 54.3023 5.34772 53.8414 4.98793C53.3805 4.61689 52.7285 4.43137 51.8853 4.43137H49.6444C49.4106 4.43137 49.2211 4.6209 49.2211 4.8547V8.52796C49.2211 8.76176 49.4106 8.95129 49.6444 8.95129H51.8853ZM52.1703 10.5991C52.0064 10.3169 52.21 9.96321 52.5363 9.96321H53.7825C53.9246 9.96321 54.0572 10.0345 54.1355 10.153L56.4759 13.6913C56.662 13.9727 56.4602 14.3482 56.1229 14.3482H54.5909C54.4401 14.3482 54.3006 14.2679 54.2249 14.1375L52.1703 10.5991Z" fill="#1E1E1E"/>
<path d="M59.1472 2.96577C59.1472 2.73198 59.3367 2.54245 59.5705 2.54245H67.3744C67.6082 2.54245 67.7977 2.73198 67.7977 2.96577V4.00804C67.7977 4.24184 67.6082 4.43137 67.3744 4.43137H61.8301C61.5963 4.43137 61.4068 4.6209 61.4068 4.8547V7.06067C61.4068 7.29447 61.5963 7.484 61.8301 7.484H66.7168C66.9505 7.484 67.14 7.67353 67.14 7.90733V8.93273C67.14 9.16653 66.9505 9.35606 66.7168 9.35606H61.8301C61.5963 9.35606 61.4068 9.54559 61.4068 9.77939V12.036C61.4068 12.2698 61.5963 12.4593 61.8301 12.4593H67.5767C67.8105 12.4593 68 12.6488 68 12.8826V13.9249C68 14.1587 67.8105 14.3482 67.5767 14.3482H59.5705C59.3367 14.3482 59.1472 14.1587 59.1472 13.9249V2.96577Z" fill="#1E1E1E"/>
<path d="M12.0111 4.78535L15.5308 2.60028C15.6983 2.49629 15.9189 2.55688 16.0098 2.73186L16.6381 3.94105C16.7192 4.09726 16.6672 4.28963 16.5184 4.3836L13.1367 6.51851C12.9809 6.61685 12.7751 6.5726 12.6735 6.41893L11.9072 5.25989C11.8019 5.1007 11.8489 4.886 12.0111 4.78535Z" fill="#1E1E1E"/>
<path d="M28.2103 3.92797V3.27602C28.2103 3.21993 28.2288 3.16542 28.263 3.12099L29.9652 0.911398C30.1409 0.683189 29.8612 0.384818 29.6222 0.545623L26.9568 2.3391C26.9149 2.36729 26.8655 2.38232 26.815 2.38247C26.108 2.38455 25.3455 2.41471 25.0853 2.45065C24.8217 2.4879 24.3762 2.58725 24.1001 2.67417C23.824 2.7611 23.4286 2.91632 23.2215 3.02187C23.0145 3.12122 22.6756 3.3199 22.4685 3.4565C22.2615 3.59931 21.9289 3.86629 21.7218 4.05256C21.521 4.24504 21.2323 4.55549 21.088 4.74176C20.9374 4.92803 20.7052 5.29435 20.5609 5.54892C20.4228 5.80349 20.2346 6.21949 20.1467 6.46785C20.0589 6.71 19.9459 7.18809 19.8895 7.51716C19.8204 7.94558 19.8016 8.31191 19.8267 8.74654C19.8455 9.08803 19.9083 9.54749 19.9585 9.77102C20.015 9.99454 20.1154 10.3298 20.1844 10.5161C20.2534 10.7024 20.4291 11.0687 20.5672 11.3233C20.7052 11.5778 20.9374 11.9442 21.088 12.1304C21.2323 12.3167 21.521 12.6271 21.7218 12.8196C21.9289 13.0059 22.2615 13.2729 22.4685 13.4157C22.6756 13.5523 23.0145 13.751 23.2215 13.8503C23.4286 13.9559 23.824 14.1111 24.1001 14.198C24.3762 14.2849 24.8217 14.3843 25.0853 14.4215C25.3467 14.4576 26.315 14.4879 28.8975 14.4897C29.0378 14.4898 29.1515 14.3761 29.1515 14.2358V12.8788C29.1515 12.7394 29.0392 12.6261 28.8999 12.6248L27.1135 12.6084C25.1291 12.5899 25.0969 12.5896 24.6021 12.4285C24.326 12.3353 23.8867 12.1242 23.6294 11.9566C23.3721 11.7951 22.9894 11.4723 22.7823 11.2488C22.5752 11.0252 22.2991 10.6403 22.1736 10.3857C22.0418 10.1311 21.8787 9.6903 21.8034 9.39848C21.6904 8.95764 21.6716 8.75896 21.703 8.21878C21.7281 7.73448 21.7845 7.43645 21.91 7.07012C22.0042 6.79692 22.2175 6.37471 22.3807 6.13877C22.5376 5.90283 22.8262 5.56755 23.0082 5.3937C23.1964 5.22606 23.5165 4.9777 23.7236 4.85352C23.9306 4.72934 24.326 4.54928 24.6021 4.46235C24.965 4.33873 25.2095 4.29325 26.0735 4.27828C26.1645 4.2767 26.2496 4.3244 26.2958 4.40274L27.4384 6.33746C28.1036 7.4737 28.637 8.42367 28.6244 8.44851C28.6128 8.47727 28.4019 8.61261 27.7223 9.00759C27.622 9.06587 27.4946 9.0487 27.4134 8.96584L26.1708 7.69722C25.4116 6.92731 24.7652 6.294 24.7276 6.294C24.6925 6.294 24.4281 6.53161 23.6241 7.3241C23.5234 7.42332 23.5232 7.58591 23.6237 7.68532L25.3551 9.39848C26.4093 10.4416 27.2878 11.2984 27.3129 11.3046C27.3443 11.3108 27.6769 11.1432 28.0597 10.9321C28.4424 10.721 29.2958 10.2429 29.9547 9.86415C30.6199 9.48541 31.1596 9.15633 31.1596 9.11908C31.1596 9.08201 30.5074 7.93268 28.2455 4.05714C28.2229 4.01827 28.2103 3.97297 28.2103 3.92797Z" fill="#1E1E1E"/>
<path d="M29.6222 0.545623L27.0047 2.30685C26.9345 2.35405 26.8925 2.43306 26.8925 2.51761V3.18952H28.0853C28.1641 3.18952 28.2384 3.15295 28.2865 3.09054L29.9652 0.911398C30.1409 0.683189 29.8612 0.384818 29.6222 0.545623Z" fill="#1E1E1E"/>
</svg>
