<svg width="1920" height="755" viewBox="0 0 1920 755" fill="none" xmlns="http://www.w3.org/2000/svg">
<g opacity="0.2" clip-path="url(#clip0_16163_17616)">
<mask id="mask0_16163_17616" style="mask-type:luminance" maskUnits="userSpaceOnUse" x="-54" y="-545" width="2024" height="1350">
<path d="M1970 -545H-54V804.333H1970V-545Z" fill="white"/>
</mask>
<g mask="url(#mask0_16163_17616)">
<path opacity="0.18" d="M573.2 501.622C793.103 526.689 683.721 575.684 714.486 597.332C742.001 616.695 778.293 606.449 1118.97 559.732C1452.12 514.049 1695.51 551.757 1970 538.11V451.375C1635.75 461.66 1379.91 535.363 894.511 555.174C727.018 562.01 798.803 516.435 686.001 503.902C455.095 478.246 140.922 459.506 -54 467.527V582.671C109.072 534.899 350.897 476.284 573.2 501.622Z" fill="#54A7E5"/>
<path opacity="0.18" d="M463.558 427.722C576.986 439.658 537.977 464.006 803.288 467.959C1068.6 471.916 1541.14 398.73 1970 403.11V329.383C1741.17 373.895 1514.49 410.424 1281.39 422.36C1091.29 432.094 891.07 413.144 702.66 386.036C573.113 367.399 497.664 346.133 367.551 331.995C243.706 318.54 90.6296 371.347 -54 384.465V418.603C118.763 412.178 291.788 409.644 463.558 427.722Z" fill="#54A7E5"/>
<path opacity="0.18" d="M361.53 198.888C496.177 206.849 551.36 201.541 703.664 194.908C835.842 189.151 1054.47 178.397 1239.79 166.984H-54V187.06C84.1528 180.864 250.442 192.322 361.53 198.888Z" fill="#54A7E5"/>
<path opacity="0.18" d="M1062.89 355.905C998.299 375.641 1035.98 402.552 1274.59 377.435C1513.2 352.319 1462.97 296.702 1412.73 289.526C1362.5 282.35 1382.24 275.172 1554.47 271.585C1677.46 269.022 1869.97 254.568 1970 246.512V197.828C1859.55 202.842 1526.06 219.469 1348.15 244.674C1132.85 275.175 1473.73 296.702 1224.35 330.791C974.975 364.878 1382.23 275.175 1041.36 280.556C700.48 285.937 427.777 280.556 207.104 257.234C101.74 246.094 11.529 239.05 -54 234.727V282.658C20.1405 283.511 238.168 286.425 646.658 294.905C1165.15 305.67 1127.47 336.17 1062.89 355.905Z" fill="#54A7E5"/>
<g opacity="0.18">
<path d="M1594.77 318.253C1635.85 318.253 1669.16 307.713 1669.16 294.712C1669.16 281.711 1635.85 271.172 1594.77 271.172C1553.69 271.172 1520.39 281.711 1520.39 294.712C1520.39 307.713 1553.69 318.253 1594.77 318.253Z" fill="#54A7E5"/>
<path d="M1737.89 286.239C1737.89 289.879 1731.57 292.829 1723.77 292.829C1715.97 292.829 1709.64 289.876 1709.64 286.239C1709.64 282.598 1715.97 279.648 1723.77 279.648C1731.57 279.648 1737.89 282.598 1737.89 286.239Z" fill="#54A7E5"/>
<path d="M773.713 335.203C817.915 335.203 853.748 325.929 853.748 314.488C853.748 303.048 817.915 293.773 773.713 293.773C729.512 293.773 693.679 303.048 693.679 314.488C693.679 325.929 729.512 335.203 773.713 335.203Z" fill="#54A7E5"/>
<path d="M914.948 339.903C914.948 344.583 903.989 348.377 890.466 348.377C876.943 348.377 865.984 344.583 865.984 339.903C865.984 335.224 876.943 331.43 890.466 331.43C903.989 331.43 914.948 335.221 914.948 339.903Z" fill="#54A7E5"/>
<path d="M367.89 539.526C406.372 539.526 437.567 528.987 437.567 515.986C437.567 502.985 406.372 492.445 367.89 492.445C329.409 492.445 298.214 502.985 298.214 515.986C298.214 528.987 329.409 539.526 367.89 539.526Z" fill="#54A7E5"/>
<path d="M500.654 534.817C500.654 538.457 491.379 541.407 479.939 541.407C468.5 541.407 459.224 538.457 459.224 534.817C459.224 531.176 468.5 528.227 479.939 528.227C491.379 528.227 500.654 531.176 500.654 534.817Z" fill="#54A7E5"/>
<path d="M1430.94 238.222C1453.82 238.222 1472.37 231.477 1472.37 223.158C1472.37 214.838 1453.82 208.094 1430.94 208.094C1408.05 208.094 1389.51 214.838 1389.51 223.158C1389.51 231.477 1408.05 238.222 1430.94 238.222Z" fill="#54A7E5"/>
<path d="M1512.85 322.025C1512.85 324.106 1507.79 325.792 1501.55 325.792C1495.32 325.792 1490.26 324.106 1490.26 322.025C1490.26 319.944 1495.32 318.258 1501.55 318.258C1507.79 318.258 1512.85 319.944 1512.85 322.025Z" fill="#54A7E5"/>
<path d="M1771.79 606.375C1771.79 609.494 1761.25 612.026 1748.25 612.026C1735.25 612.026 1724.71 609.497 1724.71 606.375C1724.71 603.255 1735.25 600.727 1748.25 600.727C1761.25 600.727 1771.79 603.255 1771.79 606.375Z" fill="#54A7E5"/>
<path d="M1888.54 584.726C1888.54 587.846 1883.48 590.375 1877.24 590.375C1871 590.375 1865.94 587.846 1865.94 584.726C1865.94 581.607 1871 579.078 1877.24 579.078C1883.49 579.078 1888.54 581.607 1888.54 584.726Z" fill="#54A7E5"/>
<path d="M68.4683 321.093C114.23 321.093 151.328 312.24 151.328 301.32C151.328 290.4 114.23 281.547 68.4683 281.547C22.706 281.547 -14.3916 290.4 -14.3916 301.32C-14.3916 312.24 22.706 321.093 68.4683 321.093Z" fill="#54A7E5"/>
<path d="M200.29 324.849C200.29 329.528 191.436 333.323 180.517 333.323C169.598 333.323 160.744 329.528 160.744 324.849C160.744 320.169 169.595 316.375 180.517 316.375C191.438 316.375 200.29 320.169 200.29 324.849Z" fill="#54A7E5"/>
<path d="M288.798 244.82C288.798 247.94 284.583 250.469 279.382 250.469C274.182 250.469 269.967 247.94 269.967 244.82C269.967 241.701 274.182 239.172 279.382 239.172C284.583 239.172 288.798 241.701 288.798 244.82Z" fill="#54A7E5"/>
<path d="M285.973 534.814C285.973 536.895 280.913 538.582 274.673 538.582C268.434 538.582 263.374 536.895 263.374 534.814C263.374 532.734 268.434 531.047 274.673 531.047C280.915 531.05 285.973 532.736 285.973 534.814Z" fill="#54A7E5"/>
<path d="M240.778 450.082C240.778 453.723 232.768 456.672 222.888 456.672C213.008 456.672 204.999 453.72 204.999 450.082C204.999 446.442 213.008 443.492 222.888 443.492C232.768 443.492 240.778 446.442 240.778 450.082Z" fill="#54A7E5"/>
<path d="M848.097 351.206C848.097 354.325 840.508 356.854 831.149 356.854C821.79 356.854 814.202 354.325 814.202 351.206C814.202 348.086 821.79 345.555 831.149 345.555C840.508 345.555 848.097 348.083 848.097 351.206Z" fill="#54A7E5"/>
<path d="M1016.64 263.646C1016.64 268.325 1006.94 272.119 994.983 272.119C983.022 272.119 973.326 268.325 973.326 263.646C973.326 258.966 983.022 255.172 994.983 255.172C1006.94 255.172 1016.64 258.966 1016.64 263.646Z" fill="#54A7E5"/>
<path d="M1365.03 224.114C1370.23 224.114 1374.44 222.005 1374.44 219.404C1374.44 216.804 1370.23 214.695 1365.03 214.695C1359.83 214.695 1355.61 216.804 1355.61 219.404C1355.61 222.005 1359.83 224.114 1365.03 224.114Z" fill="#54A7E5"/>
<path d="M1499.67 218.454C1499.67 219.493 1496.72 220.338 1493.08 220.338C1489.44 220.338 1486.49 219.496 1486.49 218.454C1486.49 217.415 1489.44 216.57 1493.08 216.57C1496.72 216.57 1499.67 217.412 1499.67 218.454Z" fill="#54A7E5"/>
<path d="M1381.97 396.409C1381.97 399.528 1376.07 402.057 1368.79 402.057C1361.51 402.057 1355.61 399.528 1355.61 396.409C1355.61 393.289 1361.51 390.758 1368.79 390.758C1376.07 390.761 1381.97 393.289 1381.97 396.409Z" fill="#54A7E5"/>
<path d="M1214 459.579C1214 463.74 1200.51 467.111 1183.87 467.111C1167.23 467.111 1153.74 463.738 1153.74 459.579C1153.74 455.42 1167.23 452.047 1183.87 452.047C1200.51 452.047 1214 455.42 1214 459.579Z" fill="#54A7E5"/>
</g>
</g>
</g>
<defs>
<clipPath id="clip0_16163_17616">
<rect width="1921" height="755" fill="white"/>
</clipPath>
</defs>
</svg>
