<svg width="1920" height="127" viewBox="0 0 1920 127" fill="none" xmlns="http://www.w3.org/2000/svg">
<path d="M197.401 24.2303C183.393 40.8493 165.248 53.0253 142.15 53.0253V86.8667H238.496H334.846V53.0253C311.749 53.0253 293.603 40.8493 279.595 24.2303C255.933 -3.83719 221.059 -3.83719 197.401 24.2303Z" fill="#F8FAFB"/>
<path d="M437.917 24.2303C423.908 40.8493 405.763 53.0253 382.665 53.0253V86.8667H479.011H575.357V53.0253C552.26 53.0253 534.114 40.8493 520.106 24.2303C496.452 -3.83719 461.579 -3.83719 437.917 24.2303Z" fill="#F8FAFB"/>
<path d="M678.436 24.2303C664.427 40.8493 646.282 53.0253 623.184 53.0253V86.8667H719.53H815.876V53.0253C792.779 53.0253 774.633 40.8493 760.625 24.2303C736.967 -3.83719 702.094 -3.83719 678.436 24.2303Z" fill="#F8FAFB"/>
<path d="M918.95 24.2303C904.942 40.8493 886.796 53.0253 863.699 53.0253V86.8667H960.045H1056.39V53.0253C1033.29 53.0253 1015.15 40.8493 1001.14 24.2303C977.485 -3.83719 942.612 -3.83719 918.95 24.2303Z" fill="#F8FAFB"/>
<path d="M1159.47 24.2303C1145.46 40.8493 1127.32 53.0253 1104.22 53.0253V86.8667H1200.56H1296.91V53.0253C1273.81 53.0253 1255.67 40.8493 1241.66 24.2303C1218.01 -3.83719 1183.13 -3.83719 1159.47 24.2303Z" fill="#F8FAFB"/>
<path d="M1399.98 24.2303C1385.98 40.8493 1367.83 53.0253 1344.73 53.0253V86.8667H1441.08H1537.43V53.0253C1514.33 53.0253 1496.18 40.8493 1482.17 24.2303C1458.52 -3.83719 1423.65 -3.83719 1399.98 24.2303Z" fill="#F8FAFB"/>
<path d="M1640.5 24.2303C1626.49 40.8493 1608.35 53.0253 1585.25 53.0253V86.8667H1681.6H1777.94V53.0253C1754.85 53.0253 1736.7 40.8493 1722.69 24.2303C1699.04 -3.83719 1664.16 -3.83719 1640.5 24.2303Z" fill="#F8FAFB"/>
<path d="M1851.22 26.2738C1821.69 -8.75793 1778.25 -8.75793 1748.72 26.2738C1731.24 47.0134 1708.64 62.2107 1679.81 62.2107C1650.98 62.2107 1628.35 47.0134 1610.87 26.2738C1581.33 -8.75793 1537.82 -8.75793 1508.29 26.2738C1490.8 47.0134 1468.16 62.2107 1439.33 62.2107C1410.5 62.2107 1387.86 47.0134 1370.37 26.2738C1340.84 -8.75793 1297.31 -8.75793 1267.78 26.2738C1250.29 47.0134 1227.65 62.2107 1198.82 62.2107C1169.98 62.2107 1147.34 47.0134 1129.85 26.2738C1100.32 -8.75793 1056.79 -8.75793 1027.26 26.2738C1009.78 47.0134 987.127 62.2107 958.298 62.2107C929.47 62.2107 906.821 47.0134 889.335 26.2738C859.806 -8.75793 816.276 -8.75793 786.743 26.2738C769.257 47.0134 746.608 62.2107 717.779 62.2107C688.95 62.2107 666.302 47.0134 648.816 26.2738C619.287 -8.75793 575.757 -8.75793 546.224 26.2738C528.737 47.0134 506.089 62.2107 477.26 62.2107C448.431 62.2107 425.783 47.0134 408.297 26.2738C378.767 -8.75793 335.238 -8.75793 305.704 26.2738C288.218 47.0134 265.57 62.2107 236.741 62.2107C207.912 62.2107 185.264 47.0134 167.778 26.2738C138.248 -8.75793 96.5974 -8.75793 67.0682 26.2738C49.5945 47.0134 28.8412 62.2107 0 62.2107V106.657H116.494H236.753H357.013H477.272H597.532H717.792H838.043H958.302H1078.56H1198.82H1319.08H1439.34H1559.6H1679.86H1800.12H1920V62.2107C1895.28 62.2107 1868.71 47.0134 1851.22 26.2738Z" fill="#ECF2FB"/>
<path d="M1851.22 47.1331C1821.69 12.289 1778.25 12.289 1748.72 47.1331C1731.24 67.7617 1708.64 82.8817 1679.81 82.8817C1650.98 82.8817 1628.35 67.7658 1610.87 47.1331C1581.33 12.289 1537.82 12.289 1508.29 47.1331C1490.8 67.7617 1468.16 82.8817 1439.33 82.8817C1410.5 82.8817 1387.86 67.7658 1370.37 47.1331C1340.84 12.289 1297.31 12.289 1267.78 47.1331C1250.29 67.7617 1227.65 82.8817 1198.82 82.8817C1169.98 82.8817 1147.34 67.7658 1129.85 47.1331C1100.32 12.289 1056.79 12.289 1027.26 47.1331C1009.78 67.7617 987.127 82.8817 958.298 82.8817C929.47 82.8817 906.821 67.7658 889.335 47.1331C859.806 12.289 816.276 12.289 786.743 47.1331C769.257 67.7617 746.608 82.8817 717.779 82.8817C688.95 82.8817 666.302 67.7658 648.816 47.1331C619.287 12.289 575.757 12.289 546.224 47.1331C528.737 67.7617 506.089 82.8817 477.26 82.8817C448.431 82.8817 425.783 67.7658 408.297 47.1331C378.767 12.289 335.238 12.289 305.704 47.1331C288.218 67.7617 265.57 82.8817 236.741 82.8817C207.912 82.8817 185.264 67.7658 167.778 47.1331C138.248 12.289 96.5974 12.289 67.0682 47.1331C49.5945 67.7617 28.8412 82.8775 0 82.8775V127H116.494H236.753H357.013H477.272H597.532H717.792H838.043H958.302H1078.56H1198.82H1319.08H1439.34H1559.6H1679.86H1800.12H1920V82.8775C1895.28 82.8775 1868.71 67.7617 1851.22 47.1331Z" fill="white"/>
</svg>
