<svg width="1920" height="127" viewBox="0 0 1920 127" fill="none" xmlns="http://www.w3.org/2000/svg">
<path d="M1722.6 102.77C1736.61 86.1507 1754.75 73.9747 1777.85 73.9747V40.1333H1681.5H1585.15V73.9747C1608.25 73.9747 1626.4 86.1507 1640.41 102.77C1664.07 130.837 1698.94 130.837 1722.6 102.77Z" fill="white"/>
<path d="M1482.08 102.77C1496.09 86.1507 1514.24 73.9747 1537.33 73.9747V40.1333H1440.99H1344.64V73.9747C1367.74 73.9747 1385.89 86.1507 1399.89 102.77C1423.55 130.837 1458.42 130.837 1482.08 102.77Z" fill="white"/>
<path d="M1241.56 102.77C1255.57 86.1507 1273.72 73.9747 1296.82 73.9747V40.1333H1200.47H1104.12V73.9747C1127.22 73.9747 1145.37 86.1507 1159.38 102.77C1183.03 130.837 1217.91 130.837 1241.56 102.77Z" fill="white"/>
<path d="M1001.05 102.77C1015.06 86.1507 1033.2 73.9747 1056.3 73.9747V40.1333H959.955H863.609V73.9747C886.707 73.9747 904.852 86.1507 918.861 102.77C942.515 130.837 977.388 130.837 1001.05 102.77Z" fill="white"/>
<path d="M760.53 102.77C774.539 86.1507 792.684 73.9747 815.782 73.9747V40.1333H719.436H623.09V73.9747C646.187 73.9747 664.332 86.1507 678.341 102.77C701.995 130.837 736.872 130.837 760.53 102.77Z" fill="white"/>
<path d="M520.015 102.77C534.024 86.1507 552.169 73.9747 575.267 73.9747V40.1333H478.921H382.574V73.9747C405.672 73.9747 423.817 86.1507 437.826 102.77C461.48 130.837 496.353 130.837 520.015 102.77Z" fill="white"/>
<path d="M279.497 102.77C293.505 86.1507 311.65 73.9747 334.748 73.9747V40.1333H238.402H142.056V73.9747C165.154 73.9747 183.299 86.1507 197.307 102.77C220.961 130.837 255.839 130.837 279.497 102.77Z" fill="white"/>
<path d="M68.7781 100.726C98.3114 135.758 141.746 135.758 171.276 100.726C188.762 79.9866 211.361 64.7893 240.194 64.7893C269.023 64.7893 291.646 79.9866 309.132 100.726C338.666 135.758 382.183 135.758 411.712 100.726C429.198 79.9866 451.839 64.7893 480.667 64.7893C509.496 64.7893 532.141 79.9866 549.627 100.726C579.156 135.758 622.686 135.758 652.219 100.726C669.705 79.9866 692.349 64.7893 721.182 64.7893C750.015 64.7893 772.66 79.9866 790.146 100.726C819.679 135.758 863.209 135.758 892.738 100.726C910.224 79.9866 932.873 64.7893 961.702 64.7893C990.53 64.7893 1013.18 79.9866 1030.67 100.726C1060.19 135.758 1103.72 135.758 1133.26 100.726C1150.74 79.9866 1173.39 64.7893 1202.22 64.7893C1231.05 64.7893 1253.7 79.9866 1271.18 100.726C1300.71 135.758 1344.24 135.758 1373.78 100.726C1391.26 79.9866 1413.91 64.7893 1442.74 64.7893C1471.57 64.7893 1494.22 79.9866 1511.7 100.726C1541.23 135.758 1584.76 135.758 1614.3 100.726C1631.78 79.9866 1654.43 64.7893 1683.26 64.7893C1712.09 64.7893 1734.74 79.9866 1752.22 100.726C1781.75 135.758 1823.4 135.758 1852.93 100.726C1870.41 79.9866 1891.16 64.7893 1920 64.7893V20.3426H1803.51H1683.25H1562.99H1442.73H1322.47H1202.21H1081.96H961.698H841.438H721.178H600.919H480.659H360.4H240.14H119.881H0V64.7893C24.7211 64.7893 51.292 79.9866 68.7781 100.726Z" fill="#ECF2FB"/>
<path d="M68.7781 79.8669C98.3114 114.711 141.746 114.711 171.276 79.8669C188.762 59.2383 211.361 44.1183 240.194 44.1183C269.023 44.1183 291.646 59.2342 309.132 79.8669C338.666 114.711 382.183 114.711 411.712 79.8669C429.198 59.2383 451.839 44.1183 480.667 44.1183C509.496 44.1183 532.141 59.2342 549.627 79.8669C579.156 114.711 622.686 114.711 652.219 79.8669C669.705 59.2383 692.349 44.1183 721.182 44.1183C750.015 44.1183 772.66 59.2342 790.146 79.8669C819.679 114.711 863.209 114.711 892.738 79.8669C910.224 59.2383 932.873 44.1183 961.702 44.1183C990.53 44.1183 1013.18 59.2342 1030.67 79.8669C1060.19 114.711 1103.72 114.711 1133.26 79.8669C1150.74 59.2383 1173.39 44.1183 1202.22 44.1183C1231.05 44.1183 1253.7 59.2342 1271.18 79.8669C1300.71 114.711 1344.24 114.711 1373.78 79.8669C1391.26 59.2383 1413.91 44.1183 1442.74 44.1183C1471.57 44.1183 1494.22 59.2342 1511.7 79.8669C1541.23 114.711 1584.76 114.711 1614.3 79.8669C1631.78 59.2383 1654.43 44.1183 1683.26 44.1183C1712.09 44.1183 1734.74 59.2342 1752.22 79.8669C1781.75 114.711 1823.4 114.711 1852.93 79.8669C1870.41 59.2383 1891.16 44.1225 1920 44.1225V0H1803.51H1683.25H1562.99H1442.73H1322.47H1202.21H1081.96H961.698H841.438H721.178H600.919H480.659H360.4H240.14H119.881H0V44.1225C24.7211 44.1225 51.292 59.2383 68.7781 79.8669Z" fill="white"/>
</svg>
